<?xml version="1.0" encoding="utf-8"?>
<!-- Generator: Adobe Illustrator 26.0.1, SVG Export Plug-In . SVG Version: 6.00 Build 0)  -->
<svg version="1.1" id="Layer_1" xmlns="http://www.w3.org/2000/svg" xmlns:xlink="http://www.w3.org/1999/xlink" x="0px" y="0px"
	 viewBox="0 0 417.44 482.96" style="enable-background:new 0 0 417.44 482.96;" xml:space="preserve">
<style type="text/css">
	.st0{fill:none;stroke:#AA6C5A;stroke-width:0.6057;stroke-miterlimit:10;}
	.st1{opacity:0.5;fill:#B65432;}
	.st2{fill:url(#SVGID_1_);}
	.st3{fill:url(#SVGID_00000109016219099711407190000017944632089826777487_);}
	.st4{fill:url(#SVGID_00000174600481247554348740000015030660276649575094_);}
	.st5{fill:#FFFFFF;}
	.st6{fill:url(#SVGID_00000009551764786339234080000005826823833229189283_);}
	.st7{fill:url(#SVGID_00000093879225478873270740000014002625263652753795_);}
	.st8{fill:url(#SVGID_00000020379906508715965040000017696791415844239291_);}
	.st9{opacity:0.5;}
	.st10{fill:#B65432;}
	.st11{fill:url(#SVGID_00000037662254867416996620000005679462107322739874_);}
	.st12{fill:url(#SVGID_00000152261893950971615600000009097742893777168001_);}
	.st13{fill:url(#SVGID_00000121252651910604850050000010006497263075629479_);}
	.st14{fill:url(#SVGID_00000003785389805400961340000004796716773150074019_);}
	.st15{fill:url(#SVGID_00000014632373811657069180000003287376044330711169_);}
	.st16{fill:url(#SVGID_00000180327123094332476680000006234107009317851021_);}
	.st17{fill:url(#SVGID_00000067920884863146572090000018070974105298674072_);}
	.st18{fill:url(#SVGID_00000047055456874480615280000008971348869110405262_);}
	.st19{fill:url(#SVGID_00000007418231068408093020000000781802502291966352_);}
	.st20{fill:url(#SVGID_00000097473355770558877900000000773158505578187689_);}
	.st21{fill:url(#SVGID_00000146496640043006363690000001306001941412763063_);}
	.st22{fill:url(#SVGID_00000020395849586062361170000002489527644117430683_);}
</style>
<line class="st0" x1="-162.36" y1="569.55" x2="-162.36" y2="615.89"/>
<g>
	<path class="st1" d="M220.04,292.44c0,0-22.5,27.76,12.02,46.33c0,0-7.81-39.78,5.65-42.75L220.04,292.44z"/>
	<g>
		<linearGradient id="SVGID_1_" gradientUnits="userSpaceOnUse" x1="110.4428" y1="420.3989" x2="402.3642" y2="289.9841">
			<stop  offset="0.601" style="stop-color:#F8607D"/>
			<stop  offset="0.894" style="stop-color:#FFFFD9"/>
		</linearGradient>
		<path class="st2" d="M301.21,317.9c-2.75,5.17-3.14,11.62-2.69,17.31l65.5,0.12l-20.98-44.11c-9.67,3.88-17.94,5.9-23.81,7.7
			C315.74,300.5,308.78,303.69,301.21,317.9z"/>
		
			<linearGradient id="SVGID_00000180353631734615732930000014447252605168227758_" gradientUnits="userSpaceOnUse" x1="-50.5457" y1="375.8604" x2="241.3756" y2="245.4456">
			<stop  offset="0.2482" style="stop-color:#F8607D"/>
			<stop  offset="0.2683" style="stop-color:#F86982"/>
			<stop  offset="0.421" style="stop-color:#FBA9A7"/>
			<stop  offset="0.5498" style="stop-color:#FDD8C2"/>
			<stop  offset="0.6484" style="stop-color:#FFF4D3"/>
			<stop  offset="0.7049" style="stop-color:#FFFFD9"/>
		</linearGradient>
		<path style="fill:url(#SVGID_00000180353631734615732930000014447252605168227758_);" d="M85.67,297.25
			c0.7,1.73,2.93,9.95,2.93,9.95c-11.73-8.1-18.99-20.82-18.99-20.82c-0.43-0.66-0.81-1.31-1.22-1.97l-24.1,50.34l82.6,0.15
			c-1.59-0.9-3.18-1.82-4.78-2.83C106.6,322.26,85.67,297.25,85.67,297.25z"/>
		
			<linearGradient id="SVGID_00000086691340654637067860000011331094755310348732_" gradientUnits="userSpaceOnUse" x1="-52.5883" y1="135.4703" x2="239.333" y2="5.0555">
			<stop  offset="0.7351" style="stop-color:#F8607D"/>
			<stop  offset="0.9615" style="stop-color:#FFFFD9"/>
		</linearGradient>
		<path style="fill:url(#SVGID_00000086691340654637067860000011331094755310348732_);" d="M204.53,0l-17.64,36.85
			c11.57-2.17,20.56-2.17,33.8-2.87L204.53,0z"/>
		<g>
			<path class="st5" d="M173.62,40c-13.26,3.76-30.3,4.05-40.35,7.81s-29.69,15.82-39.93,27.18c-3.91,4.34-10.13,11.2-11.76,13.26
				c-9.58,12.07-21.76,21.26-28.16,40.23c-6.67,19.76-18.43,42.73-17.59,79.38c0,0,5.96-9.98,6.02-7.38
				c0.54,25.35,7.33,53.43,26.54,83.92l118.5-247.56C182.87,37.6,178.56,38.6,173.62,40z"/>
		</g>
		<g>
			<path class="st5" d="M285.38,56.99c-3.16-1.63-6.25-2.99-9.12-4.05L285.38,56.99z"/>
		</g>
	</g>
	
		<linearGradient id="SVGID_00000132794831756316158430000006929435675034738106_" gradientUnits="userSpaceOnUse" x1="54.4373" y1="355.2036" x2="356.3374" y2="48.6767">
		<stop  offset="0.2185" style="stop-color:#C21401"/>
		<stop  offset="0.4916" style="stop-color:#B74E17"/>
		<stop  offset="0.598" style="stop-color:#BA531E"/>
		<stop  offset="0.7508" style="stop-color:#C16131"/>
		<stop  offset="0.884" style="stop-color:#CA7147"/>
	</linearGradient>
	<path style="fill:url(#SVGID_00000132794831756316158430000006929435675034738106_);" d="M369.75,252.13
		c0.1-0.71,0.3-1.52,1.06-2.5c0.9-1.12,1.18-1.73,2.22-2.92c2.13-2.46,3.36-6.3,3.17-9.35c-0.19-3.04-1.09-10.11-13.96-8.96
		c-1.75,0.11-8.84,0.82-11.19-1.28c-0.45-0.46-0.71-0.93-0.82-1.36c-0.03-0.18-0.05-0.37-0.04-0.59c0.04-0.31,0.16-0.67,0.46-0.99
		c0.12-0.13,0.23-0.21,0.35-0.29c0.18-0.12,0.43-0.23,0.74-0.33c3.62-0.78,11.94-2.82,15.09-5.81c4.85-3.83,7.98-8.83,6.66-12.91
		c-1.46-4.5-6.95-8.33-11.78-12.38c0,0,1.15-1.01,2.03-1.79c1.21-1.12,2.48-2.19,3.78-3.87c2.51-3.35,3.54-7.67,3.01-11.91
		c-0.3-2.14-0.75-4.08-2.06-6.33c-1.27-2.08-2.97-3.62-4.68-4.86c-3.45-2.46-15.66-7.11-17.12-7.68c-2.65-1.03-6.12-4.68-8.01-8.89
		c-2.24-4.97-3.57-11.17-4.52-16.23c1.02,0.05,2.04-0.14,2.79-0.62c2.77-1.79,3.9-6.71,3.9-6.71c-2.75,2.88-5.55,3.53-7.36,3.61
		c-0.43-2.51-0.75-4.45-1.01-5.36c-1.97-7.29-5.25-27.74-14.96-40.3c-9.23-11.93-13.74-17.55-34.17-25.54
		c0.15,0.17-0.16-0.1-0.82-0.66c-0.82-0.85-1.9-1.94-3.4-3.34c-3.45-3.19-8.74-7.79-16.56-12.3c-2.38-1.32-5.42-2.5-8.62-3.57
		c-2.54-1.07-5.04-1.84-7.41-2.26c-4.92-1.39-9.71-2.24-15.69-1.79c-6.34,0.4-13.13,0.63-20.37,0.83
		c-7.23,0.2-14.99,0.51-23.07,1.81c-4.04,0.63-8.12,1.53-12.26,2.57c-4.17,1.12-8.09,2.03-12.43,2.71
		c-8.58,1.46-17.7,1.93-27.35,4.33c-4.96,1.29-9.44,3.57-13.85,5.91c-4.41,2.39-8.75,5.03-13.01,7.94
		c-4.26,2.92-8.46,6.09-12.48,9.69c-2,1.78-3.99,3.76-5.8,5.78c-1.78,1.99-3.58,3.99-5.39,6.01c-1.81,2.02-3.63,4.05-5.46,6.1
		c-1.74,2.04-3.38,4.06-5.23,6.07c-3.61,4.03-7.52,8.09-11.15,12.62c-3.66,4.5-7,9.51-9.62,14.97c-1.33,2.7-2.44,5.58-3.43,8.4
		c-0.98,2.69-1.96,5.4-2.95,8.12c-4.12,10.91-8.4,22.35-11.09,34.48c-2.75,12.11-3.98,24.79-3.73,37.56l0.26,13.39l6.29-10.43
		c1.78,20.71,7.94,40.39,16.08,56.74c2.22,4.62,4.64,8.97,7.07,13.1c1.18,2.11,2.46,4,3.65,5.95c1.18,1.87,2.42,3.97,3.75,5.79
		c5.25,7.39,11.16,13.33,17.25,17.49l7.96,5.44l-1.53-5.03c3.81,4.04,7.66,7.9,11.56,11.56c3.67,3.41,7.39,6.62,11.28,9.5
		c3.94,2.91,7.96,5.24,11.91,7.31c15.99,8.33,31.13,10.67,41.4,12.23l6.26,0.95l-4.32-4.55c-0.46-0.49-0.93-0.98-1.37-1.44
		c0.39-0.08,0.79-0.13,1.19-0.22c1.84-0.43,10.94-3.44,13.97-3.73c6.03-0.53,11.97-0.47,17.16-0.02c5.23,0.43,9.81,1.59,13.41,3.35
		c3.58,1.8,6.17,4.14,8.14,6.07l3.8,3.72l-1.88-4.94c-0.49-1.29-0.85-2.76-0.81-3.65c0.06-0.44,0.08-0.57,0.11-0.61
		c3.25,2.06,6.56,3.38,9.39,4.11c2.96,0.75,5.3,0.77,6.31,0.75l2.13-0.04l-1.69-1.35c-0.51-0.41-0.97-0.87-1.44-1.32
		c-3.76-4.65-27.47-29.59-15.19-52.44c2.23,0.28,4.44,0.54,6.62,0.52c2.27,0.02,4.58,0.13,6.81-0.11c2.22-0.21,4.42-0.81,6.21-1.97
		c1.81-1.13,4.01-3.86,4.74-5.49c1.48-3.31,1.1-6.86,0.4-9.17c-0.7-2.35-1.72-3.95-2.44-4.97c-0.73-1.03-1.2-1.49-1.2-1.49
		s0.41,0.52,1.03,1.6c0.61,1.08,1.44,2.75,1.88,5.04c0.46,2.26,0.33,5.2-1.22,8c-1.46,2.88-4.73,4.69-8.78,4.68
		c-2.02,0.08-4.17-0.17-6.53-0.34c-2.22-0.12-4.53-0.57-6.98-1.01c-4.89-0.91-10.09-2.04-15.69-3.03
		c-10.92-0.92-21.41-7.66-28.77-17.62c-3.6-5.02-6.15-10.57-7.67-16.21c-1.55-5.67-2.18-11.37-1.57-16.62
		c1-10.61,8.52-18.49,15.67-21.99c7.19-3.4,14.1-2.98,18.54-1.7c4.85,1.88,9.69,5.06,13.73,8.22c-0.39-0.21-0.67-0.34-0.67-0.34
		s1.32,1.14,3.57,3.36c2.21,2.22,5.43,5.61,8.71,10.11l8.36,11.47l-5.56-13.29c-1.08-2.59-2.14-6.43-2.06-10.37
		c0.14-0.14,0.58-0.67,1.22-0.84c0.77-0.27,1.91-0.32,3.1-0.18c4.57,0.58,9.17,2.81,13.28,4.71c4.13,1.94,7.8,3.85,10.89,5.47
		c6.17,3.27,10.31,6.64,10.31,6.64s-1.15-2.93-3.01-6.01c-1.83-3.1-4.57-7.64-7.87-13.57c-3.26-5.94-7.19-13.27-10.66-22.14
		c-1.73-4.43-3.34-9.26-4.63-14.45c-0.99-4.16-1.84-8.72-2.13-13.26c5.19,2.47,13.59,6.19,13.59,6.19s-3.49-10.3-5.78-18.2
		c0.11,0.04,0.21,0.08,0.32,0.12l6.81,3.03c0,0-3.29-5.27-5.34-11.03c-5.6-16.33-8.98-32.75-6.39-47.24
		c1.25-7.19,4.1-13.64,7.92-18.86c1.01-1.27,2-2.52,2.97-3.74c1.11-1.11,2.2-2.22,3.36-3.21c2.28-2.02,4.64-3.76,7.03-5.18
		c4.8-2.87,9.69-4.31,14.17-4.77c0,0,0.01,0,0.01,0c0.4-0.06,0.77-0.09,1.16-0.14c3.47-0.31,14.08-0.4,22.15,8.72
		c5.9,7.51,11.85,17.25,16.47,28.42c2.59,6.29,4.48,13,6.27,20.42c0.95,3.63,1.74,7.27,2.53,11.1c0.4,1.93,0.81,3.88,1.22,5.84
		c0.5,2.06,0.78,3.88,1.91,6.56c1.8,3.9,4.46,7.99,8.13,10.84c1.81,1.44,3.8,2.61,5.86,3.5c2.12,0.89,3.7,1.39,5.5,2.1
		c3.45,1.32,6.78,2.68,9.35,4.38c2.69,1.79,3.74,3.36,4.29,6.35c0.5,2.66-0.04,5.47-1.38,7.51c-0.64,0.99-1.77,2.16-2.85,3.28
		c-1.12,1.2-2.2,2.15-3.48,3.9c-0.15,0.2-0.36,0.55-0.55,0.97c-0.08,0.12-0.24,0.68-0.28,1.03c-0.1,0.21,0.03,1.41,0.41,1.95
		c0.54,0.77,0.83,0.98,1.15,1.3l1.78,1.58c4.95,4.15,9.03,6.34,9.57,11.44c0.15,1.4-0.03,2.56-0.38,3.53
		c-0.82,2.28-3.07,4.89-6.71,7.27c-2.05,1.34-4.36,2.48-6.44,3.38c0.1-0.06,0.04-0.05-0.29,0.1c-1.3,0.6-5.58,1.55-5.58,1.55
		s-1.06,0.28-1.45,1.1c-0.24,0.51-0.09,1.09-0.07,1.18c0.14,0.6,0.71,1.33,0.9,1.53c0.18,0.21,0.38,0.39,0.61,0.58
		c0.11,0.09,0.17,0.14,0.24,0.19c0.57,0.44,1.23,0.83,2.03,1.08c0.11,0.04,0.2,0.05,0.31,0.09c0.19,0.06,0.4,0.11,0.6,0.16
		c1.71,0.45,2.89,0.53,2.89,0.53l-0.04-0.02c1.95,0.2,4.25,0.28,7.03,0.37c1.7,0.13,2.39,0.22,4.18,0.61
		c1.86,0.41,2.93,1.72,3.49,2.39c2.44,2.73,1.75,7.61-1.16,10.3c-0.71,0.69-1.33,1.41-2.55,2.37c-1.24,1.09-2.88,3.71-3.12,6.47
		c-0.28,3.2,0.95,6.49,0.95,6.49c0.59,1.32,1.14,2.52,1.6,3.76c0.95,2.45,1.53,4.97,1.48,7.29c-0.14,2.31-0.81,4.34-2.44,6.16
		c-3.42,4.17-6.41,5.94-12.67,7.64c-2.18,0.61-6.74,1.93-6.74,1.93c-12.74,10.02-31.47,10.62-31.47,10.62s-6.16,5.19-8.9,8.48
		c-2.82,3.32-3.06,5.24-4.77,8.52c-0.41,0.83-0.82,1.65-1.22,2.45c-0.36,0.89-0.73,1.75-1.04,2.61c-0.24,0.87-0.47,1.73-0.7,2.56
		c-0.14,0.84-0.27,1.67-0.4,2.48c-0.38,3.24-0.9,6.33-0.65,8.91c0.58,5.18,1.7,9.02,2.53,11.59c0.84,2.57,1.08,2.48,0.65-0.16
		c-0.42-2.63-0.95-6.56-0.88-11.54c0.18-4.96,1.41-11.19,5.48-16.7c1.02-1.54,2.41-3.32,4.14-4.82
		c15.92-13.83,24.05-8.7,41.62-19.87c3.29-0.94,7.61-1.92,10.84-3.69c3.24-1.76,6.17-4.22,8.4-7.05c2.52-2.95,3.83-7.15,3.75-10.84
		c-0.1-3.72-1.19-7.02-2.48-9.85C370.69,257.75,369.23,255.81,369.75,252.13z M238.38,349c0.02,0.02,0.03,0.03,0.05,0.05
		c-0.3-0.04-0.64-0.1-0.99-0.15C237.73,348.94,238.07,348.96,238.38,349z"/>
	
		<linearGradient id="SVGID_00000025407121213088113070000012245969226747923619_" gradientUnits="userSpaceOnUse" x1="347.6421" y1="131.726" x2="385.9914" y2="105.7838">
		<stop  offset="5.618000e-03" style="stop-color:#FFCE24"/>
		<stop  offset="0.2528" style="stop-color:#FFFFC8"/>
		<stop  offset="0.2993" style="stop-color:#FAF4B7"/>
		<stop  offset="0.3917" style="stop-color:#EED88A"/>
		<stop  offset="0.52" style="stop-color:#DAAB42"/>
		<stop  offset="0.5955" style="stop-color:#CE8E15"/>
		<stop  offset="0.8434" style="stop-color:#F6DE71"/>
		<stop  offset="0.8708" style="stop-color:#FBE77B"/>
		<stop  offset="1" style="stop-color:#FFFFC8"/>
	</linearGradient>
	<path style="fill:url(#SVGID_00000025407121213088113070000012245969226747923619_);" d="M366.57,107.32
		c-1.11,6.87-5.12,10.71-12.05,11.68c6.82,0.91,11,4.55,12.17,11.44c0.61-3.1,1.66-5.96,4.05-8.13c2.34-2.12,5.18-3.05,8.31-3.45
		C372.11,118.04,367.75,114.47,366.57,107.32z"/>
	
		<linearGradient id="SVGID_00000159445307303815359200000003123743105343505561_" gradientUnits="userSpaceOnUse" x1="344.5771" y1="111.2143" x2="428.8489" y2="54.2069">
		<stop  offset="5.618000e-03" style="stop-color:#FFCE24"/>
		<stop  offset="0.2528" style="stop-color:#FFFFC8"/>
		<stop  offset="0.2993" style="stop-color:#FAF4B7"/>
		<stop  offset="0.3917" style="stop-color:#EED88A"/>
		<stop  offset="0.52" style="stop-color:#DAAB42"/>
		<stop  offset="0.5955" style="stop-color:#CE8E15"/>
		<stop  offset="0.8434" style="stop-color:#F6DE71"/>
		<stop  offset="0.8708" style="stop-color:#FBE77B"/>
		<stop  offset="1" style="stop-color:#FFFFC8"/>
	</linearGradient>
	<path style="fill:url(#SVGID_00000159445307303815359200000003123743105343505561_);" d="M389.94,54.96
		c-2.45,15.13-11.29,23.61-26.57,25.74c15.04,2.02,24.25,10.03,26.82,25.22c1.34-6.83,3.66-13.13,8.92-17.91
		c5.15-4.68,11.42-6.72,18.32-7.6C402.15,78.58,392.53,70.72,389.94,54.96z"/>
	<g class="st9">
		<path class="st10" d="M264.5,320.2c0,0,19.43-6.85,25.45-9.69c7.74-3.47,17.58-9.57,24.05-12.82l6.1-1.06c4.6-1.27,5.03,0,5.03,0
			s-2.74,1.61-6.61,3.9c-4.09,2.35-13.13,14.41-19.49,17.6c0,0-0.32-5.87-6.12-4.09C288.55,315.88,264.5,320.2,264.5,320.2z"/>
		<path class="st10" d="M192.93,268.44c0,0,11.23,21.98,44.51,14.46C237.44,282.9,215.18,286.47,192.93,268.44z"/>
		<path class="st10" d="M293.38,166.91l7.52-6.99l14.18,4.18C315.07,164.1,298.12,163.23,293.38,166.91z"/>
	</g>
	<path class="st10" d="M316.66,111.92c-1.96-0.47-4.85-1.41-9.56-0.47c-11.01,2.19-23.66,10.7-27.54,32.85
		c0,0,10.01-16.13,20.15-21.71c3.82-2.11,5.16-2.95,10.98-3.41c7.85-0.63,8.67-0.79,9.14-2.88
		C320.01,115.48,319.67,112.64,316.66,111.92z"/>
	<path class="st10" d="M183.42,252.76c0,0-5.72-20.21,7.61-27.11c11.73-6.07,20.14,4.52,22.4,13.77c2.12,8.71,3.99,6.92,10.93,6.93
		s1.16,7.4,5.49,10.64c4.34,3.25,9.01,9.65,3.85,13.19c-3.8,2.6-7.48,1.52-10.79-0.18c-3.88-1.99-8.04-7.81-9.48-16.92
		c-1.44-9.11-7.2-24.83-20.38-19.92C185.36,236.04,182.59,241.43,183.42,252.76z"/>
	<path class="st10" d="M323.91,159.8c2.21-6.05-2.69-16.8-4.76-18.33c1.49,0.35,3.7,0.49,7-0.08c0,0-3.01-0.83-4.85-2.22
		c0.39-0.06,0.52,0.12,0.52,0.12c8.47,2.19,9.99-7.26,9.99-7.26c-4.89,5.05-9.76,3.57-9.76,3.57c-5.07-0.43-11.26,2.67-16.05,9.37
		c-7.98,11.14-12.61,21.94-12.61,21.94l7.01-6.2c8.46,2.53,11.73,3.65,16.16,3.91c2.99,0.27,6.28-0.07,8.98-2.29
		c2.42-2,2.74-6.39,2.74-6.39s-0.33,0.96-2.46,2.59C324.46,159.57,324.06,159.74,323.91,159.8z M323.2,160.2
		c-2.7,1.75-3.52,1.57-7.3,1.42c-5.99-0.24-9.72-3.08-14.64-2.96c-0.01,0,5.33-7.41,9.61-10.11c0.5,0.19,2.23,1.46,3.38,1.39
		c0.45,0.91,1.02,3.59,1.78,4.8c1.41,2.83,3.87,4.72,5.54,5.55C322.66,160.84,323.2,160.2,323.2,160.2z"/>
	<g>
		<g>
			
				<linearGradient id="SVGID_00000048470270055880821530000008113110914670093711_" gradientUnits="userSpaceOnUse" x1="-138.5695" y1="375.0387" x2="785.3483" y2="546.3611">
				<stop  offset="0.0978" style="stop-color:#F55156"/>
				<stop  offset="0.2072" style="stop-color:#F5595A"/>
				<stop  offset="0.3783" style="stop-color:#F66F64"/>
				<stop  offset="0.5898" style="stop-color:#F79475"/>
				<stop  offset="0.831" style="stop-color:#F9C68C"/>
				<stop  offset="1" style="stop-color:#FAED9E"/>
			</linearGradient>
			<path style="fill:url(#SVGID_00000048470270055880821530000008113110914670093711_);" d="M38.71,366.56l34.75,75.52H60.82
				l-11.25-24.61H17.88L6.24,442.08H0l35.59-75.52H38.71z M20.05,412.68h27.23l-13.42-29.24L20.05,412.68z"/>
			
				<linearGradient id="SVGID_00000121260544622000413400000016655020888485407674_" gradientUnits="userSpaceOnUse" x1="-136.2516" y1="362.5384" x2="787.6663" y2="533.8609">
				<stop  offset="0.0978" style="stop-color:#F55156"/>
				<stop  offset="0.2072" style="stop-color:#F5595A"/>
				<stop  offset="0.3783" style="stop-color:#F66F64"/>
				<stop  offset="0.5898" style="stop-color:#F79475"/>
				<stop  offset="0.831" style="stop-color:#F9C68C"/>
				<stop  offset="1" style="stop-color:#FAED9E"/>
			</linearGradient>
			<path style="fill:url(#SVGID_00000121260544622000413400000016655020888485407674_);" d="M102.79,382.77l20.58,30.06l20.49-30.06
				h5.41l-22.99,33.68v25.63h-9.97v-24.69l-23.71-34.62H102.79z"/>
			
				<linearGradient id="SVGID_00000132781743945003952980000007131373583661074334_" gradientUnits="userSpaceOnUse" x1="-134.5507" y1="353.366" x2="789.3671" y2="524.6885">
				<stop  offset="0.0978" style="stop-color:#F55156"/>
				<stop  offset="0.2072" style="stop-color:#F5595A"/>
				<stop  offset="0.3783" style="stop-color:#F66F64"/>
				<stop  offset="0.5898" style="stop-color:#F79475"/>
				<stop  offset="0.831" style="stop-color:#F9C68C"/>
				<stop  offset="1" style="stop-color:#FAED9E"/>
			</linearGradient>
			<path style="fill:url(#SVGID_00000132781743945003952980000007131373583661074334_);" d="M195.87,381.43l27.91,60.65h-10.15
				l-9.04-19.77h-25.45l-9.35,19.77h-5.01l28.58-60.65H195.87z M180.88,418.46h21.87l-10.78-23.48L180.88,418.46z"/>
			
				<linearGradient id="SVGID_00000101077148771929272270000000269191458380960132_" gradientUnits="userSpaceOnUse" x1="-131.3912" y1="336.3271" x2="792.5267" y2="507.6496">
				<stop  offset="0.0978" style="stop-color:#F55156"/>
				<stop  offset="0.2072" style="stop-color:#F5595A"/>
				<stop  offset="0.3783" style="stop-color:#F66F64"/>
				<stop  offset="0.5898" style="stop-color:#F79475"/>
				<stop  offset="0.831" style="stop-color:#F9C68C"/>
				<stop  offset="1" style="stop-color:#FAED9E"/>
			</linearGradient>
			<path style="fill:url(#SVGID_00000101077148771929272270000000269191458380960132_);" d="M246.23,382.77h9.97v38.51
				c0,2.53,0.43,4.91,1.3,7.14c0.86,2.22,2.1,4.17,3.71,5.84c1.61,1.67,3.56,2.99,5.84,3.96c2.28,0.97,4.82,1.45,7.63,1.45
				c2.83,0,5.38-0.48,7.65-1.45c2.27-0.97,4.2-2.29,5.79-3.96c1.6-1.67,2.82-3.61,3.67-5.84c0.85-2.22,1.28-4.6,1.28-7.14v-38.51
				h4.38v38.51c0,3.04-0.49,5.9-1.48,8.59c-0.98,2.68-2.53,5.03-4.63,7.04c-2.1,2.01-4.79,3.61-8.08,4.79
				c-3.28,1.18-7.22,1.77-11.81,1.77c-4.08,0-7.7-0.59-10.85-1.77s-5.79-2.78-7.92-4.81c-2.13-2.03-3.74-4.41-4.83-7.14
				c-1.09-2.73-1.63-5.64-1.63-8.74V382.77z"/>
			
				<linearGradient id="SVGID_00000026144435826787948350000011658439412899530382_" gradientUnits="userSpaceOnUse" x1="-127.8367" y1="317.1584" x2="796.0811" y2="488.4809">
				<stop  offset="0.0978" style="stop-color:#F55156"/>
				<stop  offset="0.2072" style="stop-color:#F5595A"/>
				<stop  offset="0.3783" style="stop-color:#F66F64"/>
				<stop  offset="0.5898" style="stop-color:#F79475"/>
				<stop  offset="0.831" style="stop-color:#F9C68C"/>
				<stop  offset="1" style="stop-color:#FAED9E"/>
			</linearGradient>
			<path style="fill:url(#SVGID_00000026144435826787948350000011658439412899530382_);" d="M329.7,368.24h29.74
				c3.94,0,7.55,0.44,10.83,1.31c3.29,0.87,6.11,2.1,8.46,3.7c2.36,1.6,4.19,3.51,5.48,5.74s1.95,4.68,1.95,7.35
				c0,2.04-0.2,3.86-0.61,5.46c-0.41,1.6-1.13,3.07-2.17,4.43c-1.04,1.36-2.42,2.63-4.15,3.84c-1.73,1.2-3.91,2.44-6.54,3.7v0.22
				c2.63,0.41,5.01,1.11,7.13,2.12c2.11,1,3.92,2.28,5.43,3.82s2.66,3.34,3.48,5.4c0.82,2.06,1.23,4.32,1.23,6.77
				c0,2.79-0.6,5.39-1.81,7.82c-1.2,2.43-2.93,4.55-5.18,6.35c-2.25,1.8-4.96,3.22-8.13,4.26c-3.17,1.04-6.73,1.56-10.66,1.56H329.7
				V368.24z M342.11,401.48h15.81c2.49,0,4.7-0.35,6.63-1.06c1.93-0.7,3.56-1.68,4.9-2.92c1.34-1.24,2.35-2.73,3.04-4.45
				c0.68-1.73,1.03-3.59,1.03-5.6c0-2.15-0.41-4.11-1.23-5.87c-0.82-1.77-2.09-3.28-3.81-4.54c-1.73-1.26-3.92-2.23-6.57-2.9
				c-2.65-0.67-5.84-1-9.55-1h-10.25V401.48z M342.11,436.68h13.42c3.6,0,6.73-0.34,9.38-1.03c2.65-0.69,4.84-1.65,6.57-2.9
				c1.73-1.25,3.01-2.74,3.84-4.48c0.84-1.75,1.25-3.66,1.25-5.74c0-2.34-0.37-4.51-1.11-6.52c-0.74-2-1.96-3.74-3.65-5.21
				c-1.69-1.47-3.9-2.62-6.63-3.48c-2.73-0.85-6.08-1.28-10.05-1.28h-13.03V436.68z"/>
		</g>
	</g>
	<g>
		
			<linearGradient id="SVGID_00000151514427602383524240000000242598362803049895_" gradientUnits="userSpaceOnUse" x1="136.2215" y1="125.8626" x2="275.7762" y2="-6.4612">
			<stop  offset="0.1298" style="stop-color:#F8537A"/>
			<stop  offset="0.2419" style="stop-color:#F96584"/>
			<stop  offset="0.4666" style="stop-color:#FB949F"/>
			<stop  offset="0.7804" style="stop-color:#FEDECA"/>
			<stop  offset="0.8598" style="stop-color:#FFF2D6"/>
		</linearGradient>
		<path style="fill:url(#SVGID_00000151514427602383524240000000242598362803049895_);" d="M240.11,59.99
			c-0.14-2.02-3.61-5.06-12.14-6.22c-8.53-1.16-13.59-3.04-16.77-3.04c-3.18,0-11.13-0.87-21.98,2.89
			c-10.84,3.76-16.48,5.63-19.09,5.92c-2.6,0.29-7.66,2.6-7.38,5.49c0.29,2.89,3.18,2.17,5.2,1.88c0,0,18.65-1.3,26.75-0.72
			c8.1,0.58,33.54,9.84,41.64,1.75C241.55,63.9,240.25,62.02,240.11,59.99z M223.63,57.96c-1.01,0.43-4.77,0.29-6.22,1.59
			c-1.45,1.3-3.62,2.31-3.04,3.03s2.46,0.87,3.76,1.01c1.3,0.14-1.59,0.72-3.47,0.58c-1.88-0.15-8.39-3.18-16.92-3.04
			c-8.53,0.14-16.19-0.44-24.58,1.29c0,0,10.7-3.61,14.6-5.2c3.9-1.59,12.44-3.47,20.53-3.17C216.4,54.35,224.64,57.53,223.63,57.96
			z"/>
	</g>
	<g>
		
			<linearGradient id="SVGID_00000042706772989471748520000013264926926479101083_" gradientUnits="userSpaceOnUse" x1="-144.8473" y1="424.6962" x2="769.0239" y2="594.1558">
			<stop  offset="0.0978" style="stop-color:#F55156"/>
			<stop  offset="0.2072" style="stop-color:#F5595A"/>
			<stop  offset="0.3783" style="stop-color:#F66F64"/>
			<stop  offset="0.5898" style="stop-color:#F79475"/>
			<stop  offset="0.831" style="stop-color:#F9C68C"/>
			<stop  offset="1" style="stop-color:#FAED9E"/>
		</linearGradient>
		<path style="fill:url(#SVGID_00000042706772989471748520000013264926926479101083_);" d="M115.04,471.3c0-1.2-0.03-2.38-0.08-3.55
			c-0.05-1.16-0.11-2.33-0.18-3.5c0.56,0.04,1.14,0.07,1.72,0.1c0.58,0.03,1.16,0.04,1.72,0.04c0.56,0,1.14-0.02,1.72-0.07
			c0.59-0.05,1.16-0.07,1.72-0.07c0.93,0,1.81,0.06,2.63,0.18c0.82,0.12,1.55,0.33,2.18,0.63c0.63,0.3,1.13,0.71,1.49,1.22
			c0.37,0.51,0.55,1.15,0.55,1.91c0,1.35-0.5,2.4-1.51,3.17c-1.01,0.77-2.32,1.3-3.95,1.61v0.05c1.93,0.07,3.45,0.46,4.57,1.17
			c1.12,0.71,1.67,1.85,1.67,3.41c0,1.02-0.25,1.88-0.75,2.57c-0.5,0.69-1.15,1.25-1.95,1.68c-0.8,0.43-1.68,0.73-2.65,0.9
			c-0.96,0.17-1.92,0.26-2.88,0.26c-0.52,0-1.05-0.01-1.58-0.03c-0.53-0.02-1.06-0.03-1.58-0.03c-0.52,0-1.05,0-1.58,0
			c-0.53,0-1.06,0.02-1.58,0.05c0.07-1.16,0.12-2.33,0.18-3.48c0.05-1.16,0.08-2.34,0.08-3.54V471.3z M119.46,472.64
			c0.76,0,1.51-0.06,2.26-0.19c0.75-0.13,1.41-0.34,2-0.64c0.58-0.3,1.06-0.7,1.41-1.2c0.36-0.5,0.54-1.13,0.54-1.9
			c0-0.75-0.16-1.34-0.49-1.79c-0.32-0.45-0.74-0.79-1.23-1.04c-0.5-0.25-1.06-0.41-1.69-0.49c-0.63-0.08-1.26-0.12-1.88-0.12
			c-0.56,0-1.04,0.01-1.43,0.04c-0.39,0.03-0.74,0.06-1.04,0.1c-0.04,0.87-0.09,1.74-0.13,2.59c-0.04,0.86-0.06,1.72-0.06,2.59v2.05
			H119.46z M117.71,476.44c0,0.93,0.02,1.85,0.06,2.76c0.04,0.91,0.09,1.83,0.13,2.76c0.41,0.04,0.9,0.07,1.46,0.1
			c0.56,0.03,1.14,0.04,1.72,0.04c0.69,0,1.36-0.1,2-0.3c0.64-0.2,1.2-0.5,1.67-0.89c0.48-0.39,0.86-0.87,1.14-1.45
			c0.28-0.57,0.42-1.22,0.42-1.95c0-0.78-0.17-1.42-0.5-1.93c-0.34-0.5-0.82-0.89-1.45-1.17c-0.63-0.28-1.38-0.48-2.26-0.59
			c-0.88-0.11-1.86-0.16-2.94-0.16h-1.46V476.44z"/>
		
			<linearGradient id="SVGID_00000176020675563861974880000011464045386007859859_" gradientUnits="userSpaceOnUse" x1="-141.9025" y1="418.8729" x2="767.3674" y2="587.4792">
			<stop  offset="0.0978" style="stop-color:#F55156"/>
			<stop  offset="0.2072" style="stop-color:#F5595A"/>
			<stop  offset="0.3783" style="stop-color:#F66F64"/>
			<stop  offset="0.5898" style="stop-color:#F79475"/>
			<stop  offset="0.831" style="stop-color:#F9C68C"/>
			<stop  offset="1" style="stop-color:#FAED9E"/>
		</linearGradient>
		<path style="fill:url(#SVGID_00000176020675563861974880000011464045386007859859_);" d="M147.81,467.75
			c-0.05-1.16-0.11-2.33-0.18-3.5c0.97,0.04,1.94,0.07,2.91,0.1c0.96,0.03,1.93,0.04,2.91,0.04s1.94-0.01,2.89-0.04
			c0.95-0.03,1.92-0.06,2.89-0.1c-0.06,0.27-0.1,0.55-0.1,0.82c0,0.27,0.03,0.55,0.1,0.82c-0.69-0.04-1.33-0.07-1.9-0.11
			c-0.57-0.04-1.18-0.07-1.82-0.11c-0.64-0.04-1.34-0.07-2.1-0.1c-0.76-0.03-1.67-0.04-2.73-0.04c-0.02,0.58-0.05,1.14-0.08,1.67
			s-0.05,1.13-0.05,1.8c0,0.71,0,1.4,0.02,2.08c0.01,0.67,0.02,1.18,0.02,1.53c0.95,0,1.81-0.01,2.57-0.03
			c0.76-0.02,1.45-0.04,2.08-0.07c0.63-0.03,1.21-0.05,1.74-0.08c0.53-0.03,1.03-0.06,1.51-0.1c-0.06,0.27-0.1,0.56-0.1,0.85
			c0,0.27,0.03,0.55,0.1,0.82c-0.56-0.05-1.22-0.1-1.97-0.14c-0.75-0.04-1.49-0.06-2.24-0.07c-0.75-0.01-1.45-0.02-2.11-0.03
			c-0.66-0.01-1.19-0.01-1.58-0.01c0,0.16-0.01,0.34-0.02,0.53c-0.01,0.19-0.02,0.43-0.02,0.72v1.06v1.64c0,1.04,0,1.89,0.02,2.57
			c0.01,0.67,0.03,1.18,0.05,1.53c0.71,0,1.47,0,2.27,0c0.82,0,1.63-0.01,2.42-0.04c0.79-0.03,1.54-0.06,2.24-0.11
			c0.7-0.05,1.32-0.11,1.84-0.2c-0.04,0.13-0.07,0.27-0.08,0.42c-0.01,0.16-0.02,0.3-0.02,0.42c0,0.29,0.03,0.53,0.1,0.71
			c-0.97-0.04-1.94-0.05-2.91-0.05c-0.96,0-1.94,0-2.94,0c-1,0-1.98,0-2.96,0c-0.97,0-1.96,0.02-2.96,0.05
			c0.07-1.16,0.12-2.33,0.18-3.48c0.05-1.16,0.08-2.34,0.08-3.54v-4.7C147.89,470.1,147.87,468.92,147.81,467.75z"/>
		
			<linearGradient id="SVGID_00000044137484797335185330000011671508218340492218_" gradientUnits="userSpaceOnUse" x1="-145.8686" y1="413.0522" x2="778.0493" y2="584.3748">
			<stop  offset="0.0978" style="stop-color:#F55156"/>
			<stop  offset="0.2072" style="stop-color:#F5595A"/>
			<stop  offset="0.3783" style="stop-color:#F66F64"/>
			<stop  offset="0.5898" style="stop-color:#F79475"/>
			<stop  offset="0.831" style="stop-color:#F9C68C"/>
			<stop  offset="1" style="stop-color:#FAED9E"/>
		</linearGradient>
		<path style="fill:url(#SVGID_00000044137484797335185330000011671508218340492218_);" d="M195.08,483.02
			c-0.3-0.04-0.59-0.05-0.86-0.05c-0.27,0-0.56,0-0.86,0c-0.3,0-0.59,0-0.86,0c-0.27,0-0.56,0.02-0.86,0.05
			c-0.15-0.42-0.36-0.92-0.62-1.52c-0.26-0.59-0.55-1.21-0.86-1.86c-0.31-0.65-0.63-1.3-0.96-1.97c-0.32-0.66-0.63-1.3-0.91-1.9
			c-0.69-0.02-1.4-0.03-2.11-0.04c-0.71-0.01-1.43-0.01-2.14-0.01c-0.67,0-1.33,0-1.98,0.01c-0.65,0.01-1.31,0.02-1.98,0.04
			c-0.69,1.42-1.32,2.77-1.88,4.06c-0.56,1.28-0.99,2.34-1.27,3.18c-0.37-0.04-0.77-0.05-1.2-0.05c-0.43,0-0.83,0.02-1.2,0.05
			c1.75-3.19,3.47-6.35,5.13-9.5c1.67-3.15,3.35-6.35,5.04-9.61h0.62c0.52,1.06,1.08,2.2,1.69,3.43c0.61,1.23,1.22,2.47,1.85,3.73
			c0.63,1.26,1.26,2.5,1.88,3.74c0.63,1.24,1.22,2.39,1.77,3.45c0.55,1.07,1.05,2.02,1.49,2.85
			C194.43,481.94,194.79,482.58,195.08,483.02z M180.68,474.52c0.56,0,1.15,0.01,1.75,0.03c0.61,0.02,1.19,0.03,1.75,0.03
			c0.61,0,1.21,0,1.82-0.01c0.61-0.01,1.21-0.02,1.82-0.04l-3.61-6.94L180.68,474.52z"/>
		
			<linearGradient id="SVGID_00000121274840450649606070000005603854407151574935_" gradientUnits="userSpaceOnUse" x1="-141.3676" y1="406.0613" x2="775.0768" y2="575.998">
			<stop  offset="0.0978" style="stop-color:#F55156"/>
			<stop  offset="0.2072" style="stop-color:#F5595A"/>
			<stop  offset="0.3783" style="stop-color:#F66F64"/>
			<stop  offset="0.5898" style="stop-color:#F79475"/>
			<stop  offset="0.831" style="stop-color:#F9C68C"/>
			<stop  offset="1" style="stop-color:#FAED9E"/>
		</linearGradient>
		<path style="fill:url(#SVGID_00000121274840450649606070000005603854407151574935_);" d="M227.76,473.13
			c0-2.59-0.01-4.58-0.03-5.98c-0.02-1.4-0.08-2.37-0.16-2.9c0.24,0.04,0.47,0.07,0.68,0.1c0.22,0.03,0.43,0.04,0.65,0.04
			c0.28,0,0.61-0.05,0.98-0.14c-0.07,0.64-0.13,1.4-0.2,2.28c-0.07,0.88-0.12,1.83-0.16,2.84c-0.04,1.01-0.09,2.05-0.13,3.11
			c-0.04,1.07-0.08,2.1-0.1,3.1c-0.02,1.22-0.24,2.31-0.67,3.28c-0.42,0.97-1.02,1.78-1.8,2.46c-0.78,0.67-1.74,1.18-2.88,1.53
			c-1.14,0.35-2.44,0.52-3.92,0.52c-3.25,0-5.61-0.62-7.08-1.86c-1.47-1.24-2.21-3.2-2.21-5.87c0-0.86,0.03-1.62,0.08-2.28
			c0.05-0.66,0.08-1.34,0.08-2.03c0-1.53-0.02-2.89-0.07-4.07c-0.04-1.18-0.09-2.18-0.13-3c0.26,0.04,0.54,0.07,0.84,0.1
			c0.3,0.03,0.59,0.04,0.84,0.04c0.24,0,0.47-0.01,0.7-0.04c0.23-0.03,0.46-0.06,0.7-0.1c-0.04,0.4-0.09,0.92-0.13,1.57
			c-0.04,0.65-0.09,1.38-0.13,2.2c-0.04,0.82-0.08,1.7-0.1,2.65c-0.02,0.95-0.03,1.93-0.03,2.95c0,0.62,0.01,1.26,0.03,1.93
			c0.02,0.66,0.1,1.31,0.23,1.94c0.13,0.63,0.34,1.23,0.63,1.8c0.29,0.57,0.71,1.07,1.25,1.5c0.54,0.43,1.22,0.76,2.05,1.01
			c0.82,0.25,1.84,0.37,3.05,0.37c1.19,0,2.19-0.15,3.01-0.44c0.81-0.29,1.48-0.67,2-1.15c0.52-0.47,0.93-1.02,1.22-1.64
			c0.29-0.62,0.5-1.27,0.63-1.94c0.13-0.67,0.21-1.35,0.23-2.02C227.75,474.32,227.76,473.7,227.76,473.13z"/>
		
			<linearGradient id="SVGID_00000137111669011006098190000009593341643863723196_" gradientUnits="userSpaceOnUse" x1="-142.5438" y1="399.2977" x2="780.1581" y2="570.3947">
			<stop  offset="0.0978" style="stop-color:#F55156"/>
			<stop  offset="0.2072" style="stop-color:#F5595A"/>
			<stop  offset="0.3783" style="stop-color:#F66F64"/>
			<stop  offset="0.5898" style="stop-color:#F79475"/>
			<stop  offset="0.831" style="stop-color:#F9C68C"/>
			<stop  offset="1" style="stop-color:#FAED9E"/>
		</linearGradient>
		<path style="fill:url(#SVGID_00000137111669011006098190000009593341643863723196_);" d="M253.53,465.68c-0.56,0-1.15,0-1.77,0.01
			c-0.62,0.01-1.24,0.03-1.85,0.05c-0.62,0.03-1.21,0.06-1.79,0.1c-0.57,0.04-1.09,0.08-1.54,0.14c0.11-0.33,0.16-0.62,0.16-0.87
			c0-0.2-0.05-0.48-0.16-0.85c1.43,0.04,2.83,0.07,4.19,0.1c1.36,0.03,2.76,0.04,4.19,0.04c1.43,0,2.83-0.01,4.19-0.04
			c1.36-0.03,2.76-0.06,4.19-0.1c-0.11,0.36-0.16,0.66-0.16,0.87c0,0.24,0.05,0.52,0.16,0.85c-0.45-0.05-0.97-0.1-1.54-0.14
			c-0.57-0.04-1.17-0.07-1.79-0.1c-0.62-0.03-1.23-0.05-1.85-0.05c-0.62-0.01-1.21-0.01-1.77-0.01c-0.06,1.88-0.1,3.76-0.1,5.65v4.7
			c0,1.2,0.03,2.39,0.08,3.55c0.05,1.17,0.11,2.31,0.18,3.44c-0.5-0.04-1.03-0.05-1.59-0.05c-0.56,0-1.09,0.02-1.59,0.05
			c0.07-1.13,0.12-2.28,0.18-3.44c0.05-1.16,0.08-2.35,0.08-3.55v-4.7C253.63,469.44,253.6,467.55,253.53,465.68z"/>
		
			<linearGradient id="SVGID_00000113343384181061120260000016357636721095759744_" gradientUnits="userSpaceOnUse" x1="-141.9785" y1="393.398" x2="781.9393" y2="564.7206">
			<stop  offset="0.0978" style="stop-color:#F55156"/>
			<stop  offset="0.2072" style="stop-color:#F5595A"/>
			<stop  offset="0.3783" style="stop-color:#F66F64"/>
			<stop  offset="0.5898" style="stop-color:#F79475"/>
			<stop  offset="0.831" style="stop-color:#F9C68C"/>
			<stop  offset="1" style="stop-color:#FAED9E"/>
		</linearGradient>
		<path style="fill:url(#SVGID_00000113343384181061120260000016357636721095759744_);" d="M285.61,475.34
			c-0.22-0.31-0.54-0.76-0.96-1.35c-0.42-0.59-0.89-1.25-1.4-1.97c-0.51-0.72-1.05-1.47-1.61-2.27c-0.56-0.79-1.1-1.55-1.61-2.27
			c-0.51-0.72-0.97-1.37-1.38-1.94c-0.41-0.57-0.73-1.01-0.94-1.3c0.3,0.04,0.6,0.07,0.89,0.1c0.29,0.03,0.59,0.04,0.89,0.04
			c0.3,0,0.6-0.01,0.89-0.04c0.29-0.03,0.59-0.06,0.89-0.1c0.97,1.58,1.97,3.14,2.97,4.67c1.01,1.53,2.07,3.12,3.2,4.78
			c0.5-0.66,1.02-1.37,1.56-2.16c0.54-0.78,1.08-1.58,1.62-2.4c0.54-0.82,1.06-1.64,1.56-2.47c0.5-0.83,0.96-1.63,1.4-2.42
			c0.54,0.09,0.96,0.14,1.27,0.14c0.3,0,0.73-0.05,1.27-0.14c-1.04,1.33-1.97,2.53-2.79,3.61c-0.82,1.07-1.55,2.05-2.18,2.92
			c-0.63,0.87-1.18,1.66-1.66,2.36c-0.48,0.7-0.89,1.33-1.23,1.9c0,0.67,0.01,1.39,0.02,2.16c0.01,0.76,0.03,1.52,0.05,2.25
			c0.02,0.74,0.05,1.42,0.08,2.05c0.03,0.63,0.07,1.13,0.11,1.52c-0.5-0.04-1.03-0.05-1.59-0.05c-0.56,0-1.09,0.02-1.59,0.05
			c0.13-0.95,0.21-2.09,0.23-3.44C285.59,478.23,285.61,476.82,285.61,475.34z"/>
	</g>
</g>
</svg>
