<?xml version="1.0" encoding="utf-8"?>
<!-- Generator: Adobe Illustrator 26.0.1, SVG Export Plug-In . SVG Version: 6.00 Build 0)  -->
<svg version="1.1" id="Layer_1" xmlns="http://www.w3.org/2000/svg" xmlns:xlink="http://www.w3.org/1999/xlink" x="0px" y="0px"
	 viewBox="0 0 292.15 89.11" style="enable-background:new 0 0 292.15 89.11;" xml:space="preserve">
<style type="text/css">
	.st0{enable-background:new    ;}
	.st1{fill:#F58F8E;}
	.st2{fill:#707070;}
	.st3{fill:none;stroke:#707070;stroke-width:0.3;stroke-miterlimit:4.0005;}
</style>
<g>
	<g class="st0">
		<path class="st1" d="M3.88,29.12h12.8v-3.16H0v-2.12h16.68v-2.88H3.8V18.8h12.88v-2.4H4.8V8.88h11.88V6.32H0.24V4.16h16.44V0.88
			h2.44v3.28h16.48v2.16H19.12v2.56h11.68v7.52H19.12v2.4h13.04v5.04h3.84v2.12h-3.84v5.32H19.12v2.8c0,1.56-1,2.6-2.96,2.6h-4.88
			l-0.88-2.32c1.68,0.12,3.16,0.24,4.96,0.24c0.68,0,1.32-0.16,1.32-1v-2.32H3.88V29.12z M7.24,14.24h9.44v-3.2H7.24V14.24z
			 M28.35,14.24v-3.2h-9.24v3.2H28.35z M29.71,23.84v-2.88h-10.6v2.88H29.71z M29.71,29.12v-3.16h-10.6v3.16H29.71z"/>
		<path class="st1" d="M55.2,27.64c-0.8,3.56-2.6,6.64-5.28,9.24c-0.8-0.64-1.24-1.24-1.96-1.8c3.16-3.2,4.84-7.08,4.84-11.64
			l-0.04-10.92h13.28v20.96c-0.2,0.96-0.88,1.92-1.84,2.28c-1.4,0.56-3.24,0.24-4.8,0.28l-0.84-2.36l4.04,0.12
			c0.44-0.04,0.76-0.32,0.88-0.76V27.6L55.2,27.64z M49.08,8.72V6.36h10.76c-1.16-1.88-2.64-3.6-4.56-4.76
			c0.8-0.48,1.68-0.92,2.44-1.44c0.8,0.48,1.52,1.48,2.2,2.12c1,1.2,1.88,2.72,2.68,4.08h6.8c1.88-1.92,3.04-3.92,4-6.36
			c0.8,0.36,1.6,0.88,2.36,1.32c-0.8,1.84-1.92,3.48-3.32,5.04h10.96v2.36H49.08z M63.48,21.04H55.4c-0.08,1.64,0.04,2.76-0.12,4.2
			h8.2V21.04z M55.36,14.92v3.92h8.16l0.04-3.96L55.36,14.92z M70.36,13.84h2.56l-0.04,15.6l-2.52-0.04V13.84z M79.87,11.08v22.72
			c0,1.08-0.84,2.24-1.88,2.68c-1.44,0.44-3.12,0.16-4.72,0.24c-0.2-0.8-0.48-1.6-0.8-2.4c1.28,0.04,2.6,0.2,3.96,0.16
			c0.48-0.2,0.92-0.72,0.92-1.2V11.12L79.87,11.08z"/>
		<path class="st1" d="M116.88,0.52c0.68,2.04,1.48,4.08,2.56,5.96c1.6-1.2,2.88-2.8,3.92-4.4c0.68,0.48,1.28,1,1.88,1.48
			c-1.24,1.84-2.72,3.6-4.52,4.96c0.16,0.56,0.64,1,0.96,1.52l0.72,0.92c0.2,0.04,0.32-0.2,0.44-0.24c1.72-1.28,3.16-3.04,4.4-4.72
			c0.64,0.4,1.28,1,1.88,1.4c-1.36,1.88-3,3.96-5,5.28c2.32,2.4,5.12,4.24,8,5.6c-0.52,0.64-0.96,1.32-1.48,1.96l-0.28-0.04
			c-3.72-1.92-7.44-4.68-10.08-8.16l-0.08,2.2h-11.88l-0.04-1.84c-2.92,3.28-6.6,5.76-10.32,7.56l-1.88-2
			c2.72-1.16,5.36-2.72,7.72-4.72c-1.04-1.64-2.8-2.88-4.32-3.96l1.72-1.68c0.92,0.52,2.8,2.12,4.24,3.88l0.16,0.2
			c1.44-1.44,2.56-2.92,3.36-4.56c0.4-0.8,0.48-1.24,0.72-1.88H98.84L98.8,2.88l13.92,0.04c-0.24,3.76-1.88,6.44-3.92,8.92h11.28
			c-1.68-1.92-2.88-4.44-3.92-6.64c-0.56-1.2-1.04-2.48-1.4-3.72L116.88,0.52z M108.56,27.6c1.48,1.48,2.6,3.12,3.44,4.88h3.8
			c1.6-1.32,2.84-3.12,3.72-4.88c0.72,0.24,1.44,0.72,2.12,1.2c-0.72,1.24-1.52,2.6-2.68,3.68l11.64-0.04l0.04,2.4H97.68v-2.36
			h11.84c-0.2-0.56-0.64-1.12-1.04-1.6c-0.64-0.8-1.44-1.56-2.16-2.24L108.56,27.6z M124.12,17.88V27h-19.84l0.04-9.16L124.12,17.88
			z M106.88,20.2v4.44h14.64V20.2H106.88z"/>
		<path class="st1" d="M145.72,17.32l5.2,0.04v-3.68l-3.2-0.04c-0.64,0.52-1.24,1.12-1.88,1.64L144,13.6
			c3.92-3.16,6.56-7.96,7.76-12.8c0.72,0.28,1.44,0.68,2.2,0.96c-0.2,0.84-0.52,1.72-0.84,2.56c1.16,0.76,2.44,1.48,3.56,2.4
			c0.96,1.04,2.12,2,2.96,3.16c-0.64,0.56-1.32,1.08-2,1.48c-1.36-1.96-3.28-3.64-5.28-4.88l-0.12,0.2c-0.76,1.6-1.76,3.16-2.8,4.68
			h7.6v2.28h-3.64v3.72l4.52-0.04v2.32h-4.56v9.84c1.64-0.48,3.4-1.2,5.08-1.64l0.04,2.44l-8.44,2.76c-1.2,0.4-2.44,0.8-3.64,1.2
			l-1.56-2.16c2.08-0.44,4.08-1.12,6.08-1.76V19.64h-5.24L145.72,17.32z M149.52,28.2l-2.24,0.84c-0.28-2.48-1.04-4.68-2.56-6.64
			l2.12-0.88C148.28,23.52,148.96,25.88,149.52,28.2z M156.4,27.96l-2.16-0.76c1.2-1.92,2.12-3.84,2.32-6.2l2.12,0.64
			C158.32,23.88,157.48,25.96,156.4,27.96z M159.88,33.23l-2.24-1.64c3.56-2.32,6.48-4.6,9.84-7.08l-0.04-7.2h-8.72v-2.28h11.52
			l0.96-3.12h-10.68c0.44-1.36,3.28-10,3.76-11.44l2.24,0.64c-0.08,0.72-0.56,1.64-0.68,2.32h10.44c-1.12,3.96-2.36,7.68-3.56,11.6
			l6.76-0.04v2.32l-9.56,0.04l0.04,16.68c-0.2,1.12-1,2.36-2.12,2.72c-1.52,0.28-3.24,0.12-4.88,0.16l-0.92-2.6
			c1.36,0.08,2.76,0.28,4.2,0.24c0.48,0,0.96-0.4,1.16-0.8v-6.4C165.12,29.2,162.68,31.08,159.88,33.23z M164.24,24.44
			c-1.28-1.8-3.28-3.4-5.28-4.12l1.92-1.68c2,0.84,3.68,2.48,5.16,4.16L164.24,24.44z M165.04,5.76c-0.36,1.32-0.88,2.44-1.24,3.84
			h8.16l1.16-3.88L165.04,5.76z M178.87,33.07c-2.28-2.64-5.12-4.76-8.32-5.64l1.68-1.88c3.2,1.08,5.92,3.28,8.4,5.72L178.87,33.07z
			 M178.55,20c-1.72,1.96-3.72,3.16-5.92,4.04l-1.52-1.92c2.12-0.76,4.48-2.12,6.08-3.88L178.55,20z"/>
	</g>
	<g class="st0">
		<path class="st2" d="M76.59,59.65c0.87-1.48,1.74-2.59,2.6-3.35c0.86-0.75,1.68-1.24,2.45-1.44c1.16-0.31,2.18-0.1,3.07,0.63
			c0.89,0.73,1.52,1.79,1.89,3.18c0.24,0.9,0.35,1.89,0.32,2.96c-0.03,1.07-0.21,2.17-0.54,3.31c-0.49,1.68-1.26,3.3-2.32,4.87
			c-1.06,1.57-2.25,3.02-3.59,4.36c-1.34,1.34-2.77,2.53-4.28,3.57c-1.52,1.04-2.97,1.88-4.38,2.5c-0.22,1.66-0.38,3.18-0.49,4.56
			c-0.11,1.38-0.16,2.56-0.15,3.52c0.02,0.38-0.05,0.59-0.2,0.63c-0.13,0.03-0.3-0.07-0.52-0.32c-0.22-0.25-0.38-0.56-0.48-0.95
			c-0.06-0.23-0.09-0.5-0.09-0.8c0.03-0.81,0.08-1.66,0.15-2.54c0.07-0.89,0.17-1.8,0.3-2.75l0.05-0.59
			c-0.19,0.11-0.41,0.22-0.67,0.35c-0.26,0.12-0.52,0.22-0.8,0.3c-0.59,0.16-0.92,0.12-0.98-0.11c-0.03-0.13,0.03-0.26,0.2-0.41
			c0.17-0.14,0.39-0.25,0.67-0.33c0.18-0.05,0.32-0.07,0.43-0.07l1.19-0.32c0.17-2.06,0.31-4.03,0.45-5.9
			c0.13-1.87,0.22-3.59,0.25-5.16c0.04-1.57,0.02-2.96-0.04-4.17s-0.19-2.19-0.39-2.94c-0.21-0.77-0.45-1.23-0.72-1.38
			c-0.27-0.15-0.54-0.19-0.8-0.12c-0.7,0.19-1.33,0.79-1.9,1.79c-0.57,1.01-1.05,2.17-1.42,3.49c-0.38,1.32-0.62,2.65-0.73,3.98
			c-0.11,1.34-0.04,2.45,0.19,3.32c0.12,0.46,0.31,0.83,0.54,1.1c0.13,0.19,0.31,0.28,0.53,0.27c0.05-0.01,0.08,0,0.1,0.06
			c0.02,0.08-0.03,0.2-0.15,0.37c-0.12,0.17-0.28,0.28-0.49,0.34c-0.21,0.06-0.49-0.05-0.85-0.31c-0.36-0.26-0.67-0.88-0.93-1.86
			c-0.29-1.08-0.35-2.33-0.18-3.74c0.17-1.41,0.49-2.77,0.97-4.07c0.48-1.3,1.07-2.44,1.79-3.42c0.71-0.98,1.47-1.57,2.26-1.79
			c0.44-0.12,0.85,0.01,1.24,0.39c0.39,0.38,0.69,0.94,0.89,1.69c0.19,0.7,0.32,1.51,0.41,2.44c0.08,0.93,0.14,1.94,0.17,3.04
			c0.03,1.1,0.02,2.24-0.03,3.45s-0.11,2.42-0.2,3.66c0.56-2.86,1.28-5.62,2.16-8.31C74.41,63.94,75.43,61.62,76.59,59.65z
			 M85.54,64.45c0.3-1.24,0.47-2.4,0.5-3.47c0.03-1.07-0.07-2.03-0.3-2.88c-0.3-1.11-0.77-1.95-1.42-2.52
			c-0.65-0.57-1.41-0.74-2.29-0.5c-0.7,0.19-1.44,0.67-2.24,1.45c-0.8,0.78-1.61,1.93-2.45,3.45c-0.71,1.27-1.35,2.7-1.91,4.3
			c-0.56,1.6-1.07,3.28-1.53,5.03c-0.46,1.75-0.86,3.52-1.21,5.31c-0.35,1.79-0.63,3.52-0.85,5.18c1.55-0.72,3.05-1.62,4.52-2.7
			c1.46-1.08,2.8-2.3,4.01-3.65c1.21-1.35,2.27-2.78,3.17-4.31C84.45,67.62,85.12,66.06,85.54,64.45z"/>
		<path class="st2" d="M106.01,65.31c0.04-0.04,0.12-0.07,0.22-0.1c0.18-0.05,0.29-0.01,0.32,0.12c0.04,0.16-0.03,0.3-0.22,0.43
			c-0.63,0.44-1.4,0.93-2.32,1.45c-0.92,0.52-1.83,0.91-2.74,1.15c-0.59,0.16-1.09,0.23-1.5,0.21c-0.4-0.02-0.73-0.08-0.98-0.19
			c-0.25-0.11-0.44-0.26-0.58-0.45c-0.13-0.18-0.23-0.39-0.29-0.63c-0.08-0.28-0.12-0.57-0.13-0.86c-0.01-0.29-0.03-0.51-0.07-0.66
			c-0.03-0.13-0.1-0.18-0.21-0.15c-0.31,0.08-0.6,0.46-0.88,1.13c-0.28,0.67-0.52,1.42-0.72,2.26c-0.2,0.84-0.37,1.69-0.5,2.54
			c-0.13,0.85-0.21,1.48-0.23,1.91c0.02,0.19-0.03,0.3-0.16,0.33c-0.26,0.07-0.46-0.01-0.6-0.23c-0.14-0.22-0.26-0.45-0.35-0.67
			l-0.05-0.19c-0.12-0.46-0.21-1.03-0.27-1.69s-0.08-1.3-0.08-1.91c0-0.61,0.05-1.14,0.13-1.59c0.09-0.45,0.22-0.7,0.4-0.75
			c0.13-0.04,0.22,0.05,0.28,0.26c0.04,0.15,0.05,0.33,0.02,0.53c-0.03,0.4-0.06,0.85-0.07,1.37c-0.01,0.51-0.02,1.03-0.02,1.56
			c0.15-0.57,0.33-1.14,0.53-1.72c0.2-0.58,0.43-1.11,0.67-1.59c0.24-0.48,0.51-0.89,0.79-1.23c0.28-0.34,0.58-0.55,0.89-0.63
			c0.31-0.08,0.51,0.06,0.61,0.42c0.05,0.18,0.08,0.39,0.11,0.63c0.02,0.24,0.07,0.48,0.13,0.71c0.06,0.21,0.14,0.41,0.24,0.6
			s0.26,0.34,0.45,0.46c0.2,0.11,0.46,0.18,0.78,0.2c0.32,0.02,0.72-0.03,1.18-0.15c0.44-0.12,0.9-0.29,1.37-0.51
			c0.48-0.22,0.95-0.47,1.41-0.75c0.46-0.28,0.91-0.56,1.32-0.85C105.35,65.78,105.71,65.52,106.01,65.31z"/>
		<path class="st2" d="M117.78,62.27c0.08-0.11,0.17-0.17,0.28-0.2c0.15-0.04,0.25,0,0.28,0.13c0.03,0.13-0.01,0.27-0.14,0.41
			c-0.38,0.43-0.87,0.96-1.46,1.59c-0.59,0.63-1.21,1.24-1.87,1.84c-0.65,0.6-1.31,1.15-1.99,1.63c-0.67,0.48-1.28,0.8-1.82,0.94
			c-0.44,0.12-0.82,0.07-1.16-0.15c-0.33-0.21-0.57-0.57-0.7-1.06c-0.13-0.49-0.17-1.06-0.13-1.71c0.05-0.65,0.15-1.28,0.32-1.89
			c0.17-0.61,0.39-1.14,0.67-1.59c0.28-0.45,0.6-0.72,0.96-0.82c0.26-0.07,0.49-0.04,0.71,0.1c0.22,0.14,0.36,0.35,0.44,0.63
			c0.15,0.54,0.06,1.12-0.26,1.73c-0.32,0.61-0.69,1.17-1.11,1.66c-0.22,0.22-0.4,0.38-0.55,0.48c-0.15,0.1-0.3,0.16-0.42,0.2
			c-0.13,0.03-0.22,0.05-0.28,0.03c-0.09,0.58-0.08,1.07,0.03,1.49c0.08,0.28,0.22,0.49,0.42,0.63c0.2,0.14,0.47,0.16,0.81,0.07
			c0.46-0.12,1.01-0.44,1.65-0.94c0.64-0.5,1.29-1.07,1.95-1.7c0.66-0.63,1.29-1.27,1.89-1.92C116.91,63.24,117.4,62.7,117.78,62.27
			z M111.36,61.96c-0.21,0.06-0.47,0.39-0.78,1.02c-0.32,0.62-0.56,1.32-0.75,2.08c0.2-0.19,0.41-0.43,0.64-0.71
			c0.23-0.28,0.43-0.56,0.62-0.85c0.19-0.28,0.33-0.55,0.43-0.8c0.1-0.25,0.13-0.45,0.09-0.6
			C111.58,61.98,111.49,61.93,111.36,61.96z"/>
		<path class="st2" d="M121.57,62.17c0.2-0.08,0.41-0.15,0.65-0.21c0.23-0.06,0.45-0.12,0.66-0.18c0.15-0.04,0.31-0.08,0.46-0.12
			c0.16-0.04,0.31-0.07,0.48-0.08c0.32-0.06,0.53-0.07,0.65-0.05c0.12,0.02,0.19,0.07,0.21,0.15c0.02,0.08,0,0.16-0.06,0.24
			c-0.06,0.09-0.13,0.14-0.21,0.16s-0.23,0.03-0.47,0.02c-0.24-0.01-0.38,0-0.43,0.01c-0.14,0.01-0.25,0.03-0.34,0.05
			c-0.09,0.02-0.19,0.05-0.29,0.08c-0.26,0.07-0.49,0.15-0.7,0.23c-0.21,0.09-0.44,0.19-0.68,0.31c-0.36,0.1-0.56,0.07-0.6-0.09
			C120.83,62.5,121.06,62.33,121.57,62.17z"/>
		<path class="st2" d="M142.48,55.53c0.04-0.04,0.12-0.07,0.22-0.1c0.18-0.05,0.29-0.01,0.32,0.12c0.04,0.16-0.03,0.3-0.22,0.43
			c-0.63,0.44-1.4,0.93-2.32,1.45c-0.92,0.52-1.83,0.91-2.74,1.15c-0.59,0.16-1.09,0.23-1.5,0.21s-0.73-0.08-0.98-0.19
			c-0.25-0.11-0.44-0.26-0.58-0.45c-0.13-0.19-0.23-0.39-0.29-0.63c-0.08-0.28-0.12-0.57-0.13-0.86c-0.01-0.29-0.03-0.51-0.07-0.66
			c-0.03-0.13-0.1-0.18-0.21-0.15c-0.31,0.08-0.6,0.46-0.88,1.13s-0.52,1.42-0.72,2.26c-0.2,0.84-0.37,1.69-0.5,2.54
			c-0.13,0.85-0.21,1.48-0.23,1.91c0.02,0.19-0.03,0.3-0.16,0.33c-0.26,0.07-0.46-0.01-0.6-0.23c-0.14-0.22-0.26-0.45-0.35-0.67
			l-0.05-0.19c-0.12-0.46-0.21-1.03-0.27-1.69c-0.05-0.66-0.08-1.3-0.08-1.91c0-0.61,0.05-1.14,0.13-1.59
			c0.09-0.45,0.22-0.7,0.4-0.75c0.13-0.03,0.22,0.05,0.28,0.26c0.04,0.15,0.05,0.33,0.02,0.53c-0.03,0.4-0.06,0.85-0.07,1.37
			c-0.01,0.51-0.02,1.03-0.02,1.56c0.15-0.57,0.33-1.14,0.53-1.72c0.2-0.58,0.43-1.11,0.67-1.59c0.24-0.48,0.51-0.89,0.79-1.23
			c0.28-0.34,0.58-0.55,0.89-0.63c0.31-0.08,0.51,0.06,0.61,0.42c0.05,0.18,0.08,0.39,0.11,0.63c0.02,0.24,0.07,0.48,0.13,0.71
			c0.06,0.21,0.14,0.41,0.24,0.6c0.11,0.19,0.26,0.34,0.45,0.46c0.2,0.11,0.46,0.18,0.78,0.2c0.32,0.02,0.72-0.03,1.18-0.15
			c0.44-0.12,0.9-0.29,1.37-0.51c0.48-0.22,0.95-0.47,1.41-0.75c0.46-0.28,0.91-0.56,1.32-0.85C141.82,56,142.18,55.74,142.48,55.53
			z"/>
		<path class="st2" d="M154.26,52.49c0.08-0.11,0.18-0.17,0.28-0.2c0.15-0.04,0.25,0,0.28,0.13c0.03,0.13-0.01,0.27-0.14,0.41
			c-0.38,0.43-0.87,0.96-1.46,1.59c-0.59,0.63-1.21,1.24-1.87,1.85c-0.65,0.6-1.31,1.15-1.99,1.63c-0.67,0.48-1.28,0.8-1.82,0.94
			c-0.44,0.12-0.82,0.07-1.16-0.15c-0.33-0.21-0.57-0.57-0.7-1.06c-0.13-0.49-0.17-1.06-0.13-1.71c0.05-0.65,0.15-1.28,0.32-1.89
			c0.17-0.61,0.39-1.14,0.67-1.59c0.28-0.45,0.6-0.72,0.96-0.82c0.26-0.07,0.49-0.04,0.71,0.1c0.22,0.14,0.36,0.35,0.44,0.63
			c0.14,0.54,0.06,1.12-0.26,1.73c-0.32,0.61-0.69,1.17-1.11,1.66c-0.22,0.22-0.4,0.38-0.55,0.48c-0.15,0.1-0.29,0.16-0.42,0.2
			c-0.13,0.03-0.22,0.05-0.28,0.03c-0.09,0.58-0.09,1.07,0.03,1.48c0.08,0.28,0.21,0.5,0.42,0.63c0.2,0.14,0.47,0.16,0.81,0.07
			c0.46-0.12,1.01-0.44,1.65-0.94c0.64-0.5,1.29-1.07,1.95-1.7c0.66-0.63,1.29-1.27,1.89-1.92
			C153.39,53.46,153.88,52.92,154.26,52.49z M147.84,52.18c-0.21,0.05-0.47,0.39-0.78,1.02c-0.32,0.62-0.56,1.32-0.75,2.08
			c0.2-0.19,0.41-0.43,0.64-0.71c0.23-0.28,0.43-0.56,0.62-0.85c0.19-0.28,0.33-0.55,0.43-0.8c0.1-0.25,0.13-0.45,0.09-0.6
			C148.05,52.2,147.97,52.15,147.84,52.18z"/>
		<path class="st2" d="M170.87,48.04c0.13-0.12,0.24-0.19,0.32-0.21c0.13-0.04,0.21,0.01,0.25,0.14c0.04,0.13-0.02,0.27-0.18,0.42
			c-1.3,1.23-2.6,2.55-3.89,3.94c-1.3,1.4-2.5,2.87-3.6,4.4c0.02,1.4-0.04,2.85-0.18,4.36c-0.14,1.5-0.36,2.89-0.66,4.17
			c-0.3,1.28-0.69,2.37-1.16,3.25c-0.47,0.88-1.04,1.42-1.71,1.6c-0.31,0.08-0.58,0-0.81-0.26c-0.23-0.26-0.39-0.54-0.47-0.85
			c-0.14-0.51-0.16-1.12-0.07-1.8c0.09-0.69,0.24-1.38,0.44-2.08c0.2-0.7,0.42-1.36,0.67-1.98c0.25-0.62,0.47-1.12,0.67-1.51
			c0.4-0.88,0.84-1.73,1.33-2.55c0.48-0.82,1.01-1.62,1.57-2.41c-0.01-1.16-0.04-2.22-0.11-3.2c-0.07-0.98-0.19-1.79-0.36-2.43
			c-0.25-0.95-0.59-1.37-1-1.26c-0.08,0.02-0.16,0.07-0.25,0.15c0.12,0.24,0.2,0.44,0.24,0.6c0.03,0.13,0.06,0.29,0.07,0.5
			c0.01,0.2,0,0.41-0.04,0.61c-0.04,0.21-0.11,0.38-0.21,0.53c-0.1,0.15-0.24,0.25-0.42,0.3c-0.13,0.04-0.22-0.04-0.27-0.22
			c-0.01-0.05-0.03-0.12-0.04-0.22c-0.01-0.09-0.03-0.33-0.05-0.71c-0.11,0.3-0.21,0.59-0.29,0.86c-0.08,0.27-0.14,0.48-0.18,0.63
			c-0.05,0.21-0.13,0.5-0.22,0.87c-0.09,0.37-0.19,0.74-0.3,1.12c-0.11,0.37-0.24,0.71-0.4,1c-0.16,0.29-0.33,0.46-0.51,0.51
			c-0.31,0.08-0.58,0.01-0.83-0.23c-0.24-0.24-0.42-0.58-0.54-1.01c-0.13-0.49-0.19-1.07-0.17-1.73c0.01-0.67,0.1-1.31,0.25-1.93
			c0.15-0.62,0.37-1.17,0.66-1.65c0.29-0.48,0.65-0.77,1.09-0.89c0.46-0.12,0.87-0.09,1.21,0.11c0.34,0.2,0.63,0.47,0.86,0.83
			c0.08-0.11,0.2-0.18,0.36-0.22c0.28-0.08,0.53,0.03,0.73,0.32c0.2,0.29,0.38,0.73,0.54,1.33c0.16,0.59,0.28,1.32,0.38,2.18
			c0.09,0.86,0.16,1.77,0.19,2.72c1.04-1.49,2.15-2.9,3.34-4.23C168.29,50.56,169.55,49.28,170.87,48.04z M160.31,52.65
			c0.05-0.21,0.13-0.48,0.24-0.81c0.1-0.33,0.22-0.67,0.35-1.01c0-0.11-0.02-0.22-0.04-0.32c-0.03-0.1-0.06-0.22-0.09-0.35
			c-0.03-0.13-0.11-0.31-0.23-0.54c-0.12-0.23-0.28-0.32-0.48-0.26c-0.31,0.08-0.6,0.37-0.86,0.87c-0.27,0.5-0.48,1.07-0.64,1.7
			c-0.16,0.64-0.27,1.28-0.33,1.93c-0.06,0.65-0.04,1.17,0.07,1.56c0.12,0.46,0.34,0.65,0.65,0.57c0.1-0.03,0.21-0.15,0.33-0.38
			c0.12-0.23,0.24-0.51,0.35-0.84c0.12-0.33,0.24-0.69,0.36-1.07C160.09,53.34,160.2,52.98,160.31,52.65z M159.94,69.65
			c0.54-0.15,1.01-0.62,1.42-1.42c0.41-0.8,0.75-1.78,1.03-2.95c0.28-1.17,0.5-2.45,0.66-3.86c0.16-1.41,0.25-2.78,0.28-4.12
			c-1.07,1.47-1.94,2.95-2.62,4.43c-0.16,0.35-0.35,0.83-0.59,1.44c-0.24,0.61-0.45,1.26-0.64,1.93c-0.19,0.67-0.33,1.34-0.41,2.01
			c-0.08,0.67-0.06,1.24,0.06,1.7c0.05,0.18,0.13,0.37,0.26,0.57C159.52,69.6,159.7,69.69,159.94,69.65z"/>
		<path class="st2" d="M183.74,45.04c-0.39,0.49-0.87,1.06-1.43,1.69c-0.56,0.63-1.16,1.26-1.8,1.87c-0.64,0.61-1.28,1.16-1.92,1.63
			c-0.65,0.48-1.25,0.79-1.82,0.94c-0.8,0.21-1.42,0.11-1.87-0.33c-0.45-0.43-0.75-0.94-0.91-1.54c-0.11-0.41-0.17-0.79-0.16-1.14
			c0-0.34,0.03-0.66,0.09-0.96c0.13-0.56,0.33-0.88,0.62-0.95c0.21-0.05,0.35,0.07,0.43,0.38c0.06,0.23,0.08,0.55,0.04,0.94
			c-0.03,0.4-0.05,0.81-0.06,1.26c-0.01,0.44,0.04,0.85,0.14,1.21c0.1,0.36,0.25,0.64,0.47,0.83c0.22,0.19,0.53,0.23,0.94,0.12
			c0.49-0.13,1.05-0.45,1.67-0.95s1.25-1.07,1.88-1.71c0.63-0.64,1.24-1.28,1.82-1.94c0.58-0.65,1.06-1.21,1.44-1.67
			c0.08-0.13,0.18-0.21,0.31-0.25c0.13-0.04,0.21,0.01,0.25,0.14C183.91,44.76,183.86,44.9,183.74,45.04z M174.9,41.45
			c0.18-0.05,0.3,0.06,0.37,0.31c0.05,0.18,0.04,0.4-0.01,0.65c-0.06,0.25-0.19,0.4-0.4,0.46c-0.18,0.05-0.3-0.06-0.37-0.31
			c-0.06-0.21-0.05-0.42,0.02-0.62C174.58,41.71,174.71,41.56,174.9,41.45z"/>
		<path class="st2" d="M190.54,47.07c-0.22-0.21-0.53-0.35-0.93-0.39c-0.4-0.04-0.81-0.09-1.22-0.15c-0.42-0.05-0.79-0.15-1.14-0.3
			c-0.34-0.14-0.57-0.43-0.69-0.87c-0.14-0.51-0.12-1.09,0.05-1.73c0.17-0.64,0.43-1.25,0.77-1.84c0.34-0.59,0.73-1.11,1.18-1.56
			c0.44-0.45,0.89-0.74,1.32-0.85c0.39-0.1,0.7-0.06,0.94,0.12c0.24,0.18,0.41,0.44,0.5,0.78c0.1,0.39,0.09,0.84-0.05,1.36
			c-0.14,0.52-0.33,1.02-0.59,1.5c-0.13,0.25-0.27,0.45-0.45,0.58c-0.17,0.13-0.34,0.21-0.49,0.26c-0.28,0.08-0.45,0.02-0.5-0.16
			c-0.03-0.13,0.01-0.31,0.15-0.54c0.13-0.23,0.28-0.48,0.46-0.77c0.17-0.28,0.32-0.57,0.45-0.87c0.13-0.3,0.22-0.58,0.29-0.84
			c0.07-0.27,0.07-0.5,0.02-0.71c-0.03-0.1-0.09-0.14-0.2-0.11c-0.36,0.1-0.74,0.35-1.14,0.76c-0.4,0.41-0.77,0.89-1.11,1.44
			c-0.34,0.55-0.6,1.1-0.78,1.66c-0.18,0.56-0.22,1.02-0.13,1.38c0.06,0.23,0.23,0.41,0.49,0.53c0.27,0.12,0.58,0.23,0.94,0.33
			s0.72,0.2,1.1,0.31c0.37,0.11,0.7,0.26,0.97,0.46c0.93-1.05,1.95-2.09,3.06-3.12c1.1-1.03,2.21-1.96,3.3-2.81
			c0.14-0.09,0.24-0.14,0.29-0.16c0.16-0.04,0.25,0,0.28,0.13c0.03,0.13-0.05,0.28-0.25,0.44c-1.18,0.87-2.31,1.75-3.42,2.63
			c-1.1,0.89-2.14,1.88-3.12,2.97c0.22,0.19,0.36,0.41,0.43,0.67c0.1,0.39,0.07,0.84-0.09,1.37c-0.16,0.53-0.41,1.04-0.75,1.55
			c-0.32,0.47-0.64,0.86-0.97,1.15c-0.34,0.3-0.64,0.48-0.93,0.56c-0.39,0.1-0.62,0.01-0.69-0.27c-0.09-0.33,0.09-0.95,0.54-1.84
			c0.27-0.54,0.59-1.08,0.98-1.61C189.81,47.98,190.18,47.5,190.54,47.07z M188.64,50.19c-0.43,0.86-0.61,1.43-0.53,1.72
			c0.05,0.18,0.18,0.24,0.38,0.19c0.21-0.05,0.46-0.23,0.77-0.54c0.3-0.3,0.61-0.72,0.91-1.24c0.26-0.46,0.46-0.95,0.6-1.47
			c0.14-0.52,0.16-0.96,0.06-1.32c-0.02-0.08-0.08-0.19-0.17-0.33c-0.31,0.39-0.66,0.85-1.04,1.38
			C189.23,49.11,188.91,49.65,188.64,50.19z"/>
		<path class="st2" d="M218.22,25.53c0.32-0.06,0.54-0.08,0.67-0.05c0.13,0.02,0.2,0.06,0.21,0.11c0.03,0.1-0.04,0.22-0.19,0.36
			c-0.16,0.14-0.33,0.23-0.5,0.28c-0.26,0.04-0.54,0.07-0.81,0.07c-0.28,0-0.54,0.04-0.8,0.11c-1.33,0.3-2.65,0.61-3.96,0.92
			c-1.31,0.31-2.62,0.64-3.94,0.99c-1,0.27-2,0.55-3,0.85c-1,0.3-1.98,0.6-2.94,0.91c-0.21,1.27-0.43,2.7-0.66,4.28
			c-0.23,1.58-0.41,3.15-0.56,4.73c-0.14,1.57-0.22,3.04-0.23,4.41c-0.01,1.37,0.1,2.46,0.32,3.29c0.1,0.36,0.26,0.7,0.48,1.01
			c0.22,0.31,0.55,0.41,0.99,0.29c0.54-0.15,1.15-0.66,1.83-1.53c0.68-0.87,1.34-1.87,2-2.98s1.26-2.22,1.82-3.33
			c0.56-1.1,0.99-1.97,1.29-2.6c0.06-0.18,0.16-0.29,0.29-0.33c0.13-0.03,0.21,0.01,0.25,0.14c0.03,0.1,0.01,0.23-0.06,0.39
			c-0.22,0.42-0.49,0.95-0.81,1.6c-0.32,0.65-0.68,1.34-1.08,2.07c-0.4,0.73-0.83,1.47-1.29,2.23c-0.46,0.76-0.92,1.45-1.39,2.07
			c-0.47,0.62-0.93,1.15-1.39,1.6c-0.46,0.44-0.9,0.72-1.31,0.83c-0.52,0.14-0.95,0-1.31-0.41c-0.36-0.42-0.65-1.03-0.87-1.86
			c-0.24-0.9-0.41-2-0.51-3.28c-0.1-1.28-0.13-2.63-0.11-4.03s0.1-2.81,0.21-4.22c0.12-1.41,0.27-2.7,0.46-3.85
			c-0.79,0.27-1.51,0.52-2.18,0.75c-0.67,0.23-1.32,0.49-1.97,0.78c-0.35,0.15-0.68,0.31-0.99,0.47c-0.31,0.17-0.64,0.32-0.99,0.47
			c-0.1,0.05-0.22,0.1-0.38,0.14c-0.31,0.08-0.48,0.07-0.5-0.03c-0.04-0.13,0.21-0.3,0.73-0.53c1.05-0.42,2.09-0.8,3.13-1.15
			c1.04-0.35,2.1-0.71,3.19-1.08c0.12-0.58,0.24-1.13,0.35-1.63c0.11-0.5,0.23-0.93,0.36-1.3c0.26-0.76,0.54-1.18,0.82-1.26
			c0.21-0.06,0.35,0.08,0.44,0.42c0.08,0.28,0.07,0.68-0.01,1.2L203,29.9c1.77-0.61,3.52-1.18,5.24-1.69
			c1.72-0.52,3.48-1.01,5.25-1.49c0.77-0.21,1.55-0.42,2.34-0.63C216.61,25.88,217.41,25.69,218.22,25.53z"/>
		<path class="st2" d="M225.9,33.16c0.04-0.04,0.12-0.07,0.22-0.1c0.18-0.05,0.29-0.01,0.32,0.12c0.04,0.16-0.03,0.3-0.22,0.43
			c-0.63,0.44-1.4,0.93-2.32,1.45c-0.92,0.52-1.83,0.91-2.74,1.15c-0.59,0.16-1.09,0.23-1.5,0.21s-0.73-0.08-0.98-0.19
			c-0.25-0.11-0.44-0.26-0.58-0.45c-0.13-0.19-0.23-0.39-0.29-0.63c-0.08-0.28-0.12-0.57-0.13-0.86c-0.01-0.29-0.03-0.51-0.07-0.66
			c-0.03-0.13-0.1-0.18-0.21-0.15c-0.31,0.08-0.6,0.46-0.88,1.13c-0.28,0.67-0.52,1.42-0.72,2.26c-0.2,0.84-0.37,1.69-0.5,2.54
			c-0.13,0.85-0.21,1.49-0.23,1.91c0.02,0.19-0.03,0.3-0.16,0.33c-0.26,0.07-0.46-0.01-0.6-0.23c-0.14-0.22-0.26-0.45-0.35-0.67
			l-0.05-0.19c-0.12-0.46-0.21-1.03-0.27-1.69c-0.05-0.66-0.08-1.3-0.08-1.91c0-0.61,0.05-1.14,0.13-1.59
			c0.09-0.45,0.22-0.7,0.4-0.75c0.13-0.03,0.22,0.05,0.28,0.26c0.04,0.15,0.05,0.33,0.02,0.53c-0.03,0.4-0.06,0.85-0.07,1.36
			c-0.01,0.51-0.02,1.03-0.02,1.56c0.15-0.57,0.33-1.14,0.53-1.72c0.2-0.58,0.43-1.11,0.67-1.59s0.51-0.89,0.79-1.23
			c0.28-0.34,0.58-0.55,0.89-0.63c0.31-0.08,0.51,0.06,0.61,0.42c0.05,0.18,0.08,0.39,0.11,0.63c0.02,0.24,0.07,0.48,0.13,0.71
			c0.06,0.21,0.14,0.41,0.24,0.6c0.11,0.19,0.26,0.35,0.45,0.46c0.2,0.11,0.46,0.18,0.78,0.2c0.32,0.02,0.72-0.03,1.18-0.15
			c0.44-0.12,0.9-0.29,1.37-0.51c0.48-0.22,0.95-0.47,1.41-0.75c0.46-0.28,0.91-0.56,1.32-0.85
			C225.24,33.63,225.6,33.38,225.9,33.16z"/>
		<path class="st2" d="M240.01,29.54c0.08-0.1,0.16-0.17,0.24-0.19c0.15-0.04,0.25,0,0.28,0.13c0.03,0.13,0,0.26-0.1,0.4
			c-0.26,0.35-0.63,0.8-1.11,1.35c-0.47,0.56-0.99,1.11-1.54,1.68s-1.11,1.07-1.68,1.53c-0.57,0.46-1.1,0.75-1.59,0.88
			c-0.52,0.14-0.91,0.05-1.17-0.27c-0.26-0.32-0.46-0.71-0.58-1.17c-0.1-0.39-0.18-0.78-0.23-1.18c-0.05-0.4-0.11-0.72-0.17-0.95
			c-0.05-0.21-0.12-0.3-0.2-0.28c-0.08,0.02-0.17,0.18-0.28,0.49c0.06,0.12,0.11,0.24,0.16,0.37c0.05,0.13,0.09,0.25,0.12,0.38
			c0.1,0.36,0.08,0.66-0.05,0.9s-0.28,0.39-0.46,0.43c-0.1,0.03-0.2,0.01-0.3-0.04c-0.04,0.17-0.09,0.44-0.16,0.81
			c-0.07,0.36-0.16,0.73-0.29,1.09c-0.12,0.36-0.25,0.69-0.38,0.97c-0.13,0.28-0.27,0.45-0.43,0.49c-0.28,0.08-0.52,0-0.72-0.22
			c-0.2-0.22-0.35-0.53-0.45-0.91c-0.11-0.41-0.16-0.89-0.16-1.45c0-0.55,0.06-1.09,0.17-1.6c0.11-0.51,0.28-0.96,0.51-1.34
			c0.23-0.38,0.52-0.62,0.89-0.71c0.31-0.08,0.58-0.06,0.8,0.06c0.22,0.12,0.43,0.31,0.61,0.56c0.21-0.47,0.4-0.73,0.58-0.78
			c0.26-0.07,0.44,0.09,0.54,0.48c0.1,0.36,0.15,0.81,0.17,1.34c0.02,0.53,0.09,1.02,0.2,1.46c0.08,0.31,0.21,0.56,0.37,0.75
			c0.16,0.19,0.41,0.24,0.74,0.15c0.44-0.12,0.93-0.41,1.49-0.87c0.55-0.47,1.09-0.99,1.63-1.58c0.53-0.58,1.02-1.17,1.47-1.76
			C239.39,30.36,239.74,29.89,240.01,29.54z M231.21,33.64c-0.02-0.08-0.03-0.14-0.01-0.2c0-0.19,0-0.43,0-0.7
			c0-0.27-0.03-0.52-0.09-0.72c-0.06-0.23-0.14-0.33-0.25-0.31c-0.28,0.08-0.53,0.31-0.74,0.72c-0.21,0.4-0.38,0.87-0.5,1.4
			c-0.12,0.53-0.2,1.05-0.24,1.58c-0.04,0.52-0.02,0.94,0.06,1.25c0.1,0.36,0.26,0.51,0.49,0.45c0.08-0.02,0.17-0.15,0.29-0.39
			s0.22-0.49,0.31-0.77c0.09-0.27,0.18-0.54,0.26-0.79c0.08-0.26,0.14-0.43,0.17-0.52L231.21,33.64z"/>
		<path class="st2" d="M261.04,14.05c0.32-0.06,0.54-0.08,0.67-0.05c0.13,0.02,0.2,0.06,0.22,0.11c0.03,0.1-0.04,0.22-0.19,0.36
			c-0.16,0.14-0.33,0.23-0.5,0.28c-0.26,0.04-0.53,0.07-0.81,0.07c-0.28,0-0.54,0.04-0.8,0.11c-1.33,0.3-2.65,0.61-3.96,0.92
			c-1.31,0.31-2.62,0.64-3.94,0.99c-1,0.27-2.01,0.55-3,0.85c-1,0.3-1.98,0.6-2.94,0.91c-0.21,1.27-0.43,2.7-0.66,4.28
			c-0.23,1.58-0.41,3.15-0.56,4.73c-0.14,1.57-0.22,3.04-0.23,4.41c-0.01,1.37,0.1,2.46,0.32,3.29c0.1,0.36,0.26,0.7,0.48,1.01
			c0.22,0.31,0.55,0.41,0.99,0.29c0.54-0.15,1.15-0.65,1.83-1.53c0.68-0.87,1.34-1.87,2-2.98s1.26-2.22,1.82-3.33
			c0.56-1.1,0.99-1.97,1.29-2.6c0.06-0.18,0.16-0.29,0.29-0.33c0.13-0.03,0.21,0.01,0.24,0.14c0.03,0.1,0.01,0.23-0.06,0.39
			c-0.22,0.42-0.49,0.95-0.81,1.6c-0.32,0.65-0.68,1.34-1.08,2.07c-0.4,0.73-0.83,1.47-1.29,2.23c-0.46,0.76-0.92,1.45-1.39,2.07
			c-0.47,0.62-0.93,1.15-1.39,1.6c-0.46,0.44-0.9,0.72-1.31,0.83c-0.52,0.14-0.95,0-1.31-0.41c-0.36-0.42-0.65-1.03-0.87-1.86
			c-0.24-0.9-0.41-2-0.51-3.28c-0.1-1.28-0.13-2.63-0.11-4.03s0.1-2.81,0.22-4.22c0.12-1.41,0.27-2.7,0.46-3.85
			c-0.79,0.27-1.51,0.52-2.18,0.75c-0.67,0.23-1.32,0.49-1.97,0.78c-0.35,0.15-0.68,0.31-0.99,0.47c-0.31,0.17-0.64,0.32-0.99,0.47
			c-0.1,0.05-0.22,0.1-0.38,0.14c-0.31,0.08-0.48,0.07-0.5-0.03c-0.04-0.13,0.21-0.3,0.73-0.53c1.05-0.42,2.09-0.8,3.13-1.15
			c1.04-0.35,2.1-0.71,3.19-1.08c0.12-0.58,0.24-1.13,0.35-1.63c0.11-0.5,0.23-0.93,0.36-1.3c0.26-0.76,0.54-1.18,0.82-1.26
			c0.21-0.06,0.35,0.08,0.44,0.42c0.08,0.28,0.07,0.68-0.01,1.2l-0.32,2.03c1.77-0.61,3.52-1.18,5.24-1.69
			c1.72-0.52,3.48-1.01,5.25-1.49c0.77-0.21,1.55-0.42,2.34-0.63C259.42,14.4,260.22,14.21,261.04,14.05z"/>
		<path class="st2" d="M266,22.99c-0.39,0.49-0.87,1.06-1.43,1.69c-0.56,0.64-1.16,1.26-1.8,1.87c-0.64,0.61-1.28,1.16-1.92,1.63
			s-1.25,0.79-1.82,0.94c-0.8,0.21-1.42,0.11-1.87-0.33c-0.45-0.43-0.75-0.94-0.91-1.54c-0.11-0.41-0.16-0.79-0.16-1.14
			c0-0.35,0.04-0.67,0.09-0.96c0.13-0.56,0.33-0.88,0.62-0.95c0.21-0.06,0.35,0.07,0.43,0.38c0.06,0.23,0.08,0.55,0.04,0.94
			c-0.03,0.4-0.05,0.81-0.06,1.26c0,0.44,0.04,0.85,0.14,1.21c0.1,0.36,0.25,0.64,0.47,0.83c0.22,0.19,0.53,0.23,0.94,0.12
			c0.49-0.13,1.05-0.45,1.67-0.95c0.63-0.5,1.25-1.07,1.88-1.71c0.63-0.64,1.24-1.28,1.82-1.94c0.58-0.65,1.06-1.21,1.44-1.67
			c0.08-0.13,0.18-0.21,0.31-0.25s0.21,0.01,0.25,0.14C266.17,22.71,266.13,22.84,266,22.99z M257.17,19.39
			c0.18-0.05,0.31,0.06,0.37,0.31c0.05,0.18,0.04,0.4-0.01,0.65c-0.06,0.25-0.19,0.4-0.4,0.46c-0.18,0.05-0.3-0.06-0.37-0.31
			c-0.05-0.21-0.05-0.42,0.02-0.63C256.85,19.66,256.97,19.5,257.17,19.39z"/>
		<path class="st2" d="M277.19,19.32c0.36-0.1,0.56-0.07,0.6,0.09c0.04,0.13-0.08,0.26-0.35,0.38c-0.45,0.18-1.03,0.39-1.74,0.63
			c-0.71,0.25-1.44,0.47-2.18,0.67c-0.49,0.13-0.95,0.24-1.38,0.33c-0.43,0.09-0.81,0.14-1.14,0.14c0.18,0.26,0.33,0.54,0.44,0.86
			c0.11,0.32,0.19,0.56,0.24,0.74c0.2,0.83,0.16,1.56-0.12,2.19c-0.27,0.63-0.62,0.99-1.03,1.1c-0.28,0.08-0.55,0.02-0.81-0.17
			c-0.26-0.19-0.46-0.56-0.61-1.1c-0.17-0.64-0.23-1.39-0.17-2.25c0.06-0.86,0.2-1.54,0.43-2.04c0.15-0.37,0.33-0.58,0.53-0.64
			c0.18-0.05,0.3,0.04,0.36,0.27c0.03,0.13,0.03,0.28,0,0.46c0.17,0.01,0.35,0.11,0.54,0.31c0.5,0.03,1.13-0.05,1.88-0.25
			c0.8-0.21,1.61-0.49,2.45-0.84C275.96,19.84,276.65,19.55,277.19,19.32z M270.24,26.28c0.26-0.07,0.45-0.25,0.58-0.55
			c0.13-0.3,0.19-0.64,0.2-1.03c0.01-0.39-0.02-0.79-0.07-1.2c-0.06-0.41-0.13-0.79-0.22-1.12c-0.08-0.28-0.15-0.5-0.22-0.67
			c-0.07-0.16-0.13-0.23-0.18-0.22c-0.03-0.02-0.06-0.03-0.09-0.04c-0.03-0.01-0.06-0.03-0.1-0.08c-0.24,0.64-0.42,1.37-0.54,2.17
			c-0.12,0.8-0.11,1.49,0.02,2.07C269.74,26.14,269.95,26.36,270.24,26.28z"/>
		<path class="st2" d="M291.44,15.75c0.08-0.13,0.18-0.21,0.31-0.25c0.13-0.03,0.21,0.01,0.25,0.14s-0.01,0.27-0.14,0.41
			c-0.34,0.39-0.74,0.86-1.22,1.39c-0.48,0.53-0.98,1.04-1.52,1.52c-0.53,0.49-1.07,0.93-1.61,1.32c-0.54,0.39-1.05,0.65-1.51,0.78
			c-0.7,0.19-1.19,0.1-1.48-0.27c-0.29-0.36-0.5-0.78-0.62-1.24c-0.06-0.23-0.11-0.45-0.16-0.66c-0.04-0.21-0.08-0.38-0.12-0.51
			c-0.05-0.21-0.12-0.3-0.2-0.28c-0.13,0.03-0.27,0.29-0.41,0.77c-0.15,0.48-0.29,1.02-0.42,1.6c-0.13,0.59-0.27,1.16-0.41,1.71
			c-0.14,0.55-0.28,0.9-0.4,1.04c-0.02,0.03-0.05,0.06-0.11,0.07c-0.26,0.07-0.47-0.21-0.63-0.82c-0.09-0.33-0.16-0.74-0.22-1.2
			c-0.06-0.47-0.1-0.95-0.14-1.43c-0.03-0.49-0.05-0.97-0.04-1.46c0.01-0.48,0.05-0.9,0.12-1.25c0.1-0.63,0.29-0.99,0.54-1.06
			c0.21-0.06,0.36,0.1,0.45,0.46c0.05,0.18,0.06,0.48,0.03,0.9c-0.08,0.74-0.16,1.56-0.23,2.46c-0.08,0.9-0.1,1.67-0.07,2.3
			c0.1-0.36,0.21-0.8,0.35-1.32c0.14-0.52,0.3-1.02,0.48-1.52c0.19-0.49,0.38-0.91,0.57-1.27c0.19-0.36,0.38-0.56,0.56-0.61
			c0.23,0.02,0.39,0.23,0.5,0.61c0.07,0.26,0.13,0.55,0.17,0.87c0.04,0.32,0.1,0.62,0.18,0.91c0.1,0.36,0.25,0.66,0.45,0.89
			c0.2,0.24,0.52,0.29,0.96,0.18c0.46-0.12,0.96-0.39,1.49-0.79c0.53-0.4,1.05-0.87,1.57-1.4c0.52-0.53,1.02-1.06,1.5-1.6
			C290.73,16.6,291.13,16.14,291.44,15.75z"/>
	</g>
	<g class="st0">
		<path class="st3" d="M76.59,59.65c0.87-1.48,1.74-2.59,2.6-3.35c0.86-0.75,1.68-1.24,2.45-1.44c1.16-0.31,2.18-0.1,3.07,0.63
			c0.89,0.73,1.52,1.79,1.89,3.18c0.24,0.9,0.35,1.89,0.32,2.96c-0.03,1.07-0.21,2.17-0.54,3.31c-0.49,1.68-1.26,3.3-2.32,4.87
			c-1.06,1.57-2.25,3.02-3.59,4.36c-1.34,1.34-2.77,2.53-4.28,3.57c-1.52,1.04-2.97,1.88-4.38,2.5c-0.22,1.66-0.38,3.18-0.49,4.56
			c-0.11,1.38-0.16,2.56-0.15,3.52c0.02,0.38-0.05,0.59-0.2,0.63c-0.13,0.03-0.3-0.07-0.52-0.32c-0.22-0.25-0.38-0.56-0.48-0.95
			c-0.06-0.23-0.09-0.5-0.09-0.8c0.03-0.81,0.08-1.66,0.15-2.54c0.07-0.89,0.17-1.8,0.3-2.75l0.05-0.59
			c-0.19,0.11-0.41,0.22-0.67,0.35c-0.26,0.12-0.52,0.22-0.8,0.3c-0.59,0.16-0.92,0.12-0.98-0.11c-0.03-0.13,0.03-0.26,0.2-0.41
			c0.17-0.14,0.39-0.25,0.67-0.33c0.18-0.05,0.32-0.07,0.43-0.07l1.19-0.32c0.17-2.06,0.31-4.03,0.45-5.9
			c0.13-1.87,0.22-3.59,0.25-5.16c0.04-1.57,0.02-2.96-0.04-4.17s-0.19-2.19-0.39-2.94c-0.21-0.77-0.45-1.23-0.72-1.38
			c-0.27-0.15-0.54-0.19-0.8-0.12c-0.7,0.19-1.33,0.79-1.9,1.79c-0.57,1.01-1.05,2.17-1.42,3.49c-0.38,1.32-0.62,2.65-0.73,3.98
			c-0.11,1.34-0.04,2.45,0.19,3.32c0.12,0.46,0.31,0.83,0.54,1.1c0.13,0.19,0.31,0.28,0.53,0.27c0.05-0.01,0.08,0,0.1,0.06
			c0.02,0.08-0.03,0.2-0.15,0.37c-0.12,0.17-0.28,0.28-0.49,0.34c-0.21,0.06-0.49-0.05-0.85-0.31c-0.36-0.26-0.67-0.88-0.93-1.86
			c-0.29-1.08-0.35-2.33-0.18-3.74c0.17-1.41,0.49-2.77,0.97-4.07c0.48-1.3,1.07-2.44,1.79-3.42c0.71-0.98,1.47-1.57,2.26-1.79
			c0.44-0.12,0.85,0.01,1.24,0.39c0.39,0.38,0.69,0.94,0.89,1.69c0.19,0.7,0.32,1.51,0.41,2.44c0.08,0.93,0.14,1.94,0.17,3.04
			c0.03,1.1,0.02,2.24-0.03,3.45s-0.11,2.42-0.2,3.66c0.56-2.86,1.28-5.62,2.16-8.31C74.41,63.94,75.43,61.62,76.59,59.65z
			 M85.54,64.45c0.3-1.24,0.47-2.4,0.5-3.47c0.03-1.07-0.07-2.03-0.3-2.88c-0.3-1.11-0.77-1.95-1.42-2.52
			c-0.65-0.57-1.41-0.74-2.29-0.5c-0.7,0.19-1.44,0.67-2.24,1.45c-0.8,0.78-1.61,1.93-2.45,3.45c-0.71,1.27-1.35,2.7-1.91,4.3
			c-0.56,1.6-1.07,3.28-1.53,5.03c-0.46,1.75-0.86,3.52-1.21,5.31c-0.35,1.79-0.63,3.52-0.85,5.18c1.55-0.72,3.05-1.62,4.52-2.7
			c1.46-1.08,2.8-2.3,4.01-3.65c1.21-1.35,2.27-2.78,3.17-4.31C84.45,67.62,85.12,66.06,85.54,64.45z"/>
		<path class="st3" d="M106.01,65.31c0.04-0.04,0.12-0.07,0.22-0.1c0.18-0.05,0.29-0.01,0.32,0.12c0.04,0.16-0.03,0.3-0.22,0.43
			c-0.63,0.44-1.4,0.93-2.32,1.45c-0.92,0.52-1.83,0.91-2.74,1.15c-0.59,0.16-1.09,0.23-1.5,0.21c-0.4-0.02-0.73-0.08-0.98-0.19
			c-0.25-0.11-0.44-0.26-0.58-0.45c-0.13-0.18-0.23-0.39-0.29-0.63c-0.08-0.28-0.12-0.57-0.13-0.86c-0.01-0.29-0.03-0.51-0.07-0.66
			c-0.03-0.13-0.1-0.18-0.21-0.15c-0.31,0.08-0.6,0.46-0.88,1.13c-0.28,0.67-0.52,1.42-0.72,2.26c-0.2,0.84-0.37,1.69-0.5,2.54
			c-0.13,0.85-0.21,1.48-0.23,1.91c0.02,0.19-0.03,0.3-0.16,0.33c-0.26,0.07-0.46-0.01-0.6-0.23c-0.14-0.22-0.26-0.45-0.35-0.67
			l-0.05-0.19c-0.12-0.46-0.21-1.03-0.27-1.69s-0.08-1.3-0.08-1.91c0-0.61,0.05-1.14,0.13-1.59c0.09-0.45,0.22-0.7,0.4-0.75
			c0.13-0.04,0.22,0.05,0.28,0.26c0.04,0.15,0.05,0.33,0.02,0.53c-0.03,0.4-0.06,0.85-0.07,1.37c-0.01,0.51-0.02,1.03-0.02,1.56
			c0.15-0.57,0.33-1.14,0.53-1.72c0.2-0.58,0.43-1.11,0.67-1.59c0.24-0.48,0.51-0.89,0.79-1.23c0.28-0.34,0.58-0.55,0.89-0.63
			c0.31-0.08,0.51,0.06,0.61,0.42c0.05,0.18,0.08,0.39,0.11,0.63c0.02,0.24,0.07,0.48,0.13,0.71c0.06,0.21,0.14,0.41,0.24,0.6
			s0.26,0.34,0.45,0.46c0.2,0.11,0.46,0.18,0.78,0.2c0.32,0.02,0.72-0.03,1.18-0.15c0.44-0.12,0.9-0.29,1.37-0.51
			c0.48-0.22,0.95-0.47,1.41-0.75c0.46-0.28,0.91-0.56,1.32-0.85C105.35,65.78,105.71,65.52,106.01,65.31z"/>
		<path class="st3" d="M117.78,62.27c0.08-0.11,0.17-0.17,0.28-0.2c0.15-0.04,0.25,0,0.28,0.13c0.03,0.13-0.01,0.27-0.14,0.41
			c-0.38,0.43-0.87,0.96-1.46,1.59c-0.59,0.63-1.21,1.24-1.87,1.84c-0.65,0.6-1.31,1.15-1.99,1.63c-0.67,0.48-1.28,0.8-1.82,0.94
			c-0.44,0.12-0.82,0.07-1.16-0.15c-0.33-0.21-0.57-0.57-0.7-1.06c-0.13-0.49-0.17-1.06-0.13-1.71c0.05-0.65,0.15-1.28,0.32-1.89
			c0.17-0.61,0.39-1.14,0.67-1.59c0.28-0.45,0.6-0.72,0.96-0.82c0.26-0.07,0.49-0.04,0.71,0.1c0.22,0.14,0.36,0.35,0.44,0.63
			c0.15,0.54,0.06,1.12-0.26,1.73c-0.32,0.61-0.69,1.17-1.11,1.66c-0.22,0.22-0.4,0.38-0.55,0.48c-0.15,0.1-0.3,0.16-0.42,0.2
			c-0.13,0.03-0.22,0.05-0.28,0.03c-0.09,0.58-0.08,1.07,0.03,1.49c0.08,0.28,0.22,0.49,0.42,0.63c0.2,0.14,0.47,0.16,0.81,0.07
			c0.46-0.12,1.01-0.44,1.65-0.94c0.64-0.5,1.29-1.07,1.95-1.7c0.66-0.63,1.29-1.27,1.89-1.92C116.91,63.24,117.4,62.7,117.78,62.27
			z M111.36,61.96c-0.21,0.06-0.47,0.39-0.78,1.02c-0.32,0.62-0.56,1.32-0.75,2.08c0.2-0.19,0.41-0.43,0.64-0.71
			c0.23-0.28,0.43-0.56,0.62-0.85c0.19-0.28,0.33-0.55,0.43-0.8c0.1-0.25,0.13-0.45,0.09-0.6
			C111.58,61.98,111.49,61.93,111.36,61.96z"/>
		<path class="st3" d="M121.57,62.17c0.2-0.08,0.41-0.15,0.65-0.21c0.23-0.06,0.45-0.12,0.66-0.18c0.15-0.04,0.31-0.08,0.46-0.12
			c0.16-0.04,0.31-0.07,0.48-0.08c0.32-0.06,0.53-0.07,0.65-0.05c0.12,0.02,0.19,0.07,0.21,0.15c0.02,0.08,0,0.16-0.06,0.24
			c-0.06,0.09-0.13,0.14-0.21,0.16s-0.23,0.03-0.47,0.02c-0.24-0.01-0.38,0-0.43,0.01c-0.14,0.01-0.25,0.03-0.34,0.05
			c-0.09,0.02-0.19,0.05-0.29,0.08c-0.26,0.07-0.49,0.15-0.7,0.23c-0.21,0.09-0.44,0.19-0.68,0.31c-0.36,0.1-0.56,0.07-0.6-0.09
			C120.83,62.5,121.06,62.33,121.57,62.17z"/>
		<path class="st3" d="M142.48,55.53c0.04-0.04,0.12-0.07,0.22-0.1c0.18-0.05,0.29-0.01,0.32,0.12c0.04,0.16-0.03,0.3-0.22,0.43
			c-0.63,0.44-1.4,0.93-2.32,1.45c-0.92,0.52-1.83,0.91-2.74,1.15c-0.59,0.16-1.09,0.23-1.5,0.21s-0.73-0.08-0.98-0.19
			c-0.25-0.11-0.44-0.26-0.58-0.45c-0.13-0.19-0.23-0.39-0.29-0.63c-0.08-0.28-0.12-0.57-0.13-0.86c-0.01-0.29-0.03-0.51-0.07-0.66
			c-0.03-0.13-0.1-0.18-0.21-0.15c-0.31,0.08-0.6,0.46-0.88,1.13s-0.52,1.42-0.72,2.26c-0.2,0.84-0.37,1.69-0.5,2.54
			c-0.13,0.85-0.21,1.48-0.23,1.91c0.02,0.19-0.03,0.3-0.16,0.33c-0.26,0.07-0.46-0.01-0.6-0.23c-0.14-0.22-0.26-0.45-0.35-0.67
			l-0.05-0.19c-0.12-0.46-0.21-1.03-0.27-1.69c-0.05-0.66-0.08-1.3-0.08-1.91c0-0.61,0.05-1.14,0.13-1.59
			c0.09-0.45,0.22-0.7,0.4-0.75c0.13-0.03,0.22,0.05,0.28,0.26c0.04,0.15,0.05,0.33,0.02,0.53c-0.03,0.4-0.06,0.85-0.07,1.37
			c-0.01,0.51-0.02,1.03-0.02,1.56c0.15-0.57,0.33-1.14,0.53-1.72c0.2-0.58,0.43-1.11,0.67-1.59c0.24-0.48,0.51-0.89,0.79-1.23
			c0.28-0.34,0.58-0.55,0.89-0.63c0.31-0.08,0.51,0.06,0.61,0.42c0.05,0.18,0.08,0.39,0.11,0.63c0.02,0.24,0.07,0.48,0.13,0.71
			c0.06,0.21,0.14,0.41,0.24,0.6c0.11,0.19,0.26,0.34,0.45,0.46c0.2,0.11,0.46,0.18,0.78,0.2c0.32,0.02,0.72-0.03,1.18-0.15
			c0.44-0.12,0.9-0.29,1.37-0.51c0.48-0.22,0.95-0.47,1.41-0.75c0.46-0.28,0.91-0.56,1.32-0.85C141.82,56,142.18,55.74,142.48,55.53
			z"/>
		<path class="st3" d="M154.26,52.49c0.08-0.11,0.18-0.17,0.28-0.2c0.15-0.04,0.25,0,0.28,0.13c0.03,0.13-0.01,0.27-0.14,0.41
			c-0.38,0.43-0.87,0.96-1.46,1.59c-0.59,0.63-1.21,1.24-1.87,1.85c-0.65,0.6-1.31,1.15-1.99,1.63c-0.67,0.48-1.28,0.8-1.82,0.94
			c-0.44,0.12-0.82,0.07-1.16-0.15c-0.33-0.21-0.57-0.57-0.7-1.06c-0.13-0.49-0.17-1.06-0.13-1.71c0.05-0.65,0.15-1.28,0.32-1.89
			c0.17-0.61,0.39-1.14,0.67-1.59c0.28-0.45,0.6-0.72,0.96-0.82c0.26-0.07,0.49-0.04,0.71,0.1c0.22,0.14,0.36,0.35,0.44,0.63
			c0.14,0.54,0.06,1.12-0.26,1.73c-0.32,0.61-0.69,1.17-1.11,1.66c-0.22,0.22-0.4,0.38-0.55,0.48c-0.15,0.1-0.29,0.16-0.42,0.2
			c-0.13,0.03-0.22,0.05-0.28,0.03c-0.09,0.58-0.09,1.07,0.03,1.48c0.08,0.28,0.21,0.5,0.42,0.63c0.2,0.14,0.47,0.16,0.81,0.07
			c0.46-0.12,1.01-0.44,1.65-0.94c0.64-0.5,1.29-1.07,1.95-1.7c0.66-0.63,1.29-1.27,1.89-1.92
			C153.39,53.46,153.88,52.92,154.26,52.49z M147.84,52.18c-0.21,0.05-0.47,0.39-0.78,1.02c-0.32,0.62-0.56,1.32-0.75,2.08
			c0.2-0.19,0.41-0.43,0.64-0.71c0.23-0.28,0.43-0.56,0.62-0.85c0.19-0.28,0.33-0.55,0.43-0.8c0.1-0.25,0.13-0.45,0.09-0.6
			C148.05,52.2,147.97,52.15,147.84,52.18z"/>
		<path class="st3" d="M170.87,48.04c0.13-0.12,0.24-0.19,0.32-0.21c0.13-0.04,0.21,0.01,0.25,0.14c0.04,0.13-0.02,0.27-0.18,0.42
			c-1.3,1.23-2.6,2.55-3.89,3.94c-1.3,1.4-2.5,2.87-3.6,4.4c0.02,1.4-0.04,2.85-0.18,4.36c-0.14,1.5-0.36,2.89-0.66,4.17
			c-0.3,1.28-0.69,2.37-1.16,3.25c-0.47,0.88-1.04,1.42-1.71,1.6c-0.31,0.08-0.58,0-0.81-0.26c-0.23-0.26-0.39-0.54-0.47-0.85
			c-0.14-0.51-0.16-1.12-0.07-1.8c0.09-0.69,0.24-1.38,0.44-2.08c0.2-0.7,0.42-1.36,0.67-1.98c0.25-0.62,0.47-1.12,0.67-1.51
			c0.4-0.88,0.84-1.73,1.33-2.55c0.48-0.82,1.01-1.62,1.57-2.41c-0.01-1.16-0.04-2.22-0.11-3.2c-0.07-0.98-0.19-1.79-0.36-2.43
			c-0.25-0.95-0.59-1.37-1-1.26c-0.08,0.02-0.16,0.07-0.25,0.15c0.12,0.24,0.2,0.44,0.24,0.6c0.03,0.13,0.06,0.29,0.07,0.5
			c0.01,0.2,0,0.41-0.04,0.61c-0.04,0.21-0.11,0.38-0.21,0.53c-0.1,0.15-0.24,0.25-0.42,0.3c-0.13,0.04-0.22-0.04-0.27-0.22
			c-0.01-0.05-0.03-0.12-0.04-0.22c-0.01-0.09-0.03-0.33-0.05-0.71c-0.11,0.3-0.21,0.59-0.29,0.86c-0.08,0.27-0.14,0.48-0.18,0.63
			c-0.05,0.21-0.13,0.5-0.22,0.87c-0.09,0.37-0.19,0.74-0.3,1.12c-0.11,0.37-0.24,0.71-0.4,1c-0.16,0.29-0.33,0.46-0.51,0.51
			c-0.31,0.08-0.58,0.01-0.83-0.23c-0.24-0.24-0.42-0.58-0.54-1.01c-0.13-0.49-0.19-1.07-0.17-1.73c0.01-0.67,0.1-1.31,0.25-1.93
			c0.15-0.62,0.37-1.17,0.66-1.65c0.29-0.48,0.65-0.77,1.09-0.89c0.46-0.12,0.87-0.09,1.21,0.11c0.34,0.2,0.63,0.47,0.86,0.83
			c0.08-0.11,0.2-0.18,0.36-0.22c0.28-0.08,0.53,0.03,0.73,0.32c0.2,0.29,0.38,0.73,0.54,1.33c0.16,0.59,0.28,1.32,0.38,2.18
			c0.09,0.86,0.16,1.77,0.19,2.72c1.04-1.49,2.15-2.9,3.34-4.23C168.29,50.56,169.55,49.28,170.87,48.04z M160.31,52.65
			c0.05-0.21,0.13-0.48,0.24-0.81c0.1-0.33,0.22-0.67,0.35-1.01c0-0.11-0.02-0.22-0.04-0.32c-0.03-0.1-0.06-0.22-0.09-0.35
			c-0.03-0.13-0.11-0.31-0.23-0.54c-0.12-0.23-0.28-0.32-0.48-0.26c-0.31,0.08-0.6,0.37-0.86,0.87c-0.27,0.5-0.48,1.07-0.64,1.7
			c-0.16,0.64-0.27,1.28-0.33,1.93c-0.06,0.65-0.04,1.17,0.07,1.56c0.12,0.46,0.34,0.65,0.65,0.57c0.1-0.03,0.21-0.15,0.33-0.38
			c0.12-0.23,0.24-0.51,0.35-0.84c0.12-0.33,0.24-0.69,0.36-1.07C160.09,53.34,160.2,52.98,160.31,52.65z M159.94,69.65
			c0.54-0.15,1.01-0.62,1.42-1.42c0.41-0.8,0.75-1.78,1.03-2.95c0.28-1.17,0.5-2.45,0.66-3.86c0.16-1.41,0.25-2.78,0.28-4.12
			c-1.07,1.47-1.94,2.95-2.62,4.43c-0.16,0.35-0.35,0.83-0.59,1.44c-0.24,0.61-0.45,1.26-0.64,1.93c-0.19,0.67-0.33,1.34-0.41,2.01
			c-0.08,0.67-0.06,1.24,0.06,1.7c0.05,0.18,0.13,0.37,0.26,0.57C159.52,69.6,159.7,69.69,159.94,69.65z"/>
		<path class="st3" d="M183.74,45.04c-0.39,0.49-0.87,1.06-1.43,1.69c-0.56,0.63-1.16,1.26-1.8,1.87c-0.64,0.61-1.28,1.16-1.92,1.63
			c-0.65,0.48-1.25,0.79-1.82,0.94c-0.8,0.21-1.42,0.11-1.87-0.33c-0.45-0.43-0.75-0.94-0.91-1.54c-0.11-0.41-0.17-0.79-0.16-1.14
			c0-0.34,0.03-0.66,0.09-0.96c0.13-0.56,0.33-0.88,0.62-0.95c0.21-0.05,0.35,0.07,0.43,0.38c0.06,0.23,0.08,0.55,0.04,0.94
			c-0.03,0.4-0.05,0.81-0.06,1.26c-0.01,0.44,0.04,0.85,0.14,1.21c0.1,0.36,0.25,0.64,0.47,0.83c0.22,0.19,0.53,0.23,0.94,0.12
			c0.49-0.13,1.05-0.45,1.67-0.95s1.25-1.07,1.88-1.71c0.63-0.64,1.24-1.28,1.82-1.94c0.58-0.65,1.06-1.21,1.44-1.67
			c0.08-0.13,0.18-0.21,0.31-0.25c0.13-0.04,0.21,0.01,0.25,0.14C183.91,44.76,183.86,44.9,183.74,45.04z M174.9,41.45
			c0.18-0.05,0.3,0.06,0.37,0.31c0.05,0.18,0.04,0.4-0.01,0.65c-0.06,0.25-0.19,0.4-0.4,0.46c-0.18,0.05-0.3-0.06-0.37-0.31
			c-0.06-0.21-0.05-0.42,0.02-0.62C174.58,41.71,174.71,41.56,174.9,41.45z"/>
		<path class="st3" d="M190.54,47.07c-0.22-0.21-0.53-0.35-0.93-0.39c-0.4-0.04-0.81-0.09-1.22-0.15c-0.42-0.05-0.79-0.15-1.14-0.3
			c-0.34-0.14-0.57-0.43-0.69-0.87c-0.14-0.51-0.12-1.09,0.05-1.73c0.17-0.64,0.43-1.25,0.77-1.84c0.34-0.59,0.73-1.11,1.18-1.56
			c0.44-0.45,0.89-0.74,1.32-0.85c0.39-0.1,0.7-0.06,0.94,0.12c0.24,0.18,0.41,0.44,0.5,0.78c0.1,0.39,0.09,0.84-0.05,1.36
			c-0.14,0.52-0.33,1.02-0.59,1.5c-0.13,0.25-0.27,0.45-0.45,0.58c-0.17,0.13-0.34,0.21-0.49,0.26c-0.28,0.08-0.45,0.02-0.5-0.16
			c-0.03-0.13,0.01-0.31,0.15-0.54c0.13-0.23,0.28-0.48,0.46-0.77c0.17-0.28,0.32-0.57,0.45-0.87c0.13-0.3,0.22-0.58,0.29-0.84
			c0.07-0.27,0.07-0.5,0.02-0.71c-0.03-0.1-0.09-0.14-0.2-0.11c-0.36,0.1-0.74,0.35-1.14,0.76c-0.4,0.41-0.77,0.89-1.11,1.44
			c-0.34,0.55-0.6,1.1-0.78,1.66c-0.18,0.56-0.22,1.02-0.13,1.38c0.06,0.23,0.23,0.41,0.49,0.53c0.27,0.12,0.58,0.23,0.94,0.33
			s0.72,0.2,1.1,0.31c0.37,0.11,0.7,0.26,0.97,0.46c0.93-1.05,1.95-2.09,3.06-3.12c1.1-1.03,2.21-1.96,3.3-2.81
			c0.14-0.09,0.24-0.14,0.29-0.16c0.16-0.04,0.25,0,0.28,0.13c0.03,0.13-0.05,0.28-0.25,0.44c-1.18,0.87-2.31,1.75-3.42,2.63
			c-1.1,0.89-2.14,1.88-3.12,2.97c0.22,0.19,0.36,0.41,0.43,0.67c0.1,0.39,0.07,0.84-0.09,1.37c-0.16,0.53-0.41,1.04-0.75,1.55
			c-0.32,0.47-0.64,0.86-0.97,1.15c-0.34,0.3-0.64,0.48-0.93,0.56c-0.39,0.1-0.62,0.01-0.69-0.27c-0.09-0.33,0.09-0.95,0.54-1.84
			c0.27-0.54,0.59-1.08,0.98-1.61C189.81,47.98,190.18,47.5,190.54,47.07z M188.64,50.19c-0.43,0.86-0.61,1.43-0.53,1.72
			c0.05,0.18,0.18,0.24,0.38,0.19c0.21-0.05,0.46-0.23,0.77-0.54c0.3-0.3,0.61-0.72,0.91-1.24c0.26-0.46,0.46-0.95,0.6-1.47
			c0.14-0.52,0.16-0.96,0.06-1.32c-0.02-0.08-0.08-0.19-0.17-0.33c-0.31,0.39-0.66,0.85-1.04,1.38
			C189.23,49.11,188.91,49.65,188.64,50.19z"/>
		<path class="st3" d="M218.22,25.53c0.32-0.06,0.54-0.08,0.67-0.05c0.13,0.02,0.2,0.06,0.21,0.11c0.03,0.1-0.04,0.22-0.19,0.36
			c-0.16,0.14-0.33,0.23-0.5,0.28c-0.26,0.04-0.54,0.07-0.81,0.07c-0.28,0-0.54,0.04-0.8,0.11c-1.33,0.3-2.65,0.61-3.96,0.92
			c-1.31,0.31-2.62,0.64-3.94,0.99c-1,0.27-2,0.55-3,0.85c-1,0.3-1.98,0.6-2.94,0.91c-0.21,1.27-0.43,2.7-0.66,4.28
			c-0.23,1.58-0.41,3.15-0.56,4.73c-0.14,1.57-0.22,3.04-0.23,4.41c-0.01,1.37,0.1,2.46,0.32,3.29c0.1,0.36,0.26,0.7,0.48,1.01
			c0.22,0.31,0.55,0.41,0.99,0.29c0.54-0.15,1.15-0.66,1.83-1.53c0.68-0.87,1.34-1.87,2-2.98s1.26-2.22,1.82-3.33
			c0.56-1.1,0.99-1.97,1.29-2.6c0.06-0.18,0.16-0.29,0.29-0.33c0.13-0.03,0.21,0.01,0.25,0.14c0.03,0.1,0.01,0.23-0.06,0.39
			c-0.22,0.42-0.49,0.95-0.81,1.6c-0.32,0.65-0.68,1.34-1.08,2.07c-0.4,0.73-0.83,1.47-1.29,2.23c-0.46,0.76-0.92,1.45-1.39,2.07
			c-0.47,0.62-0.93,1.15-1.39,1.6c-0.46,0.44-0.9,0.72-1.31,0.83c-0.52,0.14-0.95,0-1.31-0.41c-0.36-0.42-0.65-1.03-0.87-1.86
			c-0.24-0.9-0.41-2-0.51-3.28c-0.1-1.28-0.13-2.63-0.11-4.03s0.1-2.81,0.21-4.22c0.12-1.41,0.27-2.7,0.46-3.85
			c-0.79,0.27-1.51,0.52-2.18,0.75c-0.67,0.23-1.32,0.49-1.97,0.78c-0.35,0.15-0.68,0.31-0.99,0.47c-0.31,0.17-0.64,0.32-0.99,0.47
			c-0.1,0.05-0.22,0.1-0.38,0.14c-0.31,0.08-0.48,0.07-0.5-0.03c-0.04-0.13,0.21-0.3,0.73-0.53c1.05-0.42,2.09-0.8,3.13-1.15
			c1.04-0.35,2.1-0.71,3.19-1.08c0.12-0.58,0.24-1.13,0.35-1.63c0.11-0.5,0.23-0.93,0.36-1.3c0.26-0.76,0.54-1.18,0.82-1.26
			c0.21-0.06,0.35,0.08,0.44,0.42c0.08,0.28,0.07,0.68-0.01,1.2L203,29.9c1.77-0.61,3.52-1.18,5.24-1.69
			c1.72-0.52,3.48-1.01,5.25-1.49c0.77-0.21,1.55-0.42,2.34-0.63C216.61,25.88,217.41,25.69,218.22,25.53z"/>
		<path class="st3" d="M225.9,33.16c0.04-0.04,0.12-0.07,0.22-0.1c0.18-0.05,0.29-0.01,0.32,0.12c0.04,0.16-0.03,0.3-0.22,0.43
			c-0.63,0.44-1.4,0.93-2.32,1.45c-0.92,0.52-1.83,0.91-2.74,1.15c-0.59,0.16-1.09,0.23-1.5,0.21s-0.73-0.08-0.98-0.19
			c-0.25-0.11-0.44-0.26-0.58-0.45c-0.13-0.19-0.23-0.39-0.29-0.63c-0.08-0.28-0.12-0.57-0.13-0.86c-0.01-0.29-0.03-0.51-0.07-0.66
			c-0.03-0.13-0.1-0.18-0.21-0.15c-0.31,0.08-0.6,0.46-0.88,1.13c-0.28,0.67-0.52,1.42-0.72,2.26c-0.2,0.84-0.37,1.69-0.5,2.54
			c-0.13,0.85-0.21,1.49-0.23,1.91c0.02,0.19-0.03,0.3-0.16,0.33c-0.26,0.07-0.46-0.01-0.6-0.23c-0.14-0.22-0.26-0.45-0.35-0.67
			l-0.05-0.19c-0.12-0.46-0.21-1.03-0.27-1.69c-0.05-0.66-0.08-1.3-0.08-1.91c0-0.61,0.05-1.14,0.13-1.59
			c0.09-0.45,0.22-0.7,0.4-0.75c0.13-0.03,0.22,0.05,0.28,0.26c0.04,0.15,0.05,0.33,0.02,0.53c-0.03,0.4-0.06,0.85-0.07,1.36
			c-0.01,0.51-0.02,1.03-0.02,1.56c0.15-0.57,0.33-1.14,0.53-1.72c0.2-0.58,0.43-1.11,0.67-1.59s0.51-0.89,0.79-1.23
			c0.28-0.34,0.58-0.55,0.89-0.63c0.31-0.08,0.51,0.06,0.61,0.42c0.05,0.18,0.08,0.39,0.11,0.63c0.02,0.24,0.07,0.48,0.13,0.71
			c0.06,0.21,0.14,0.41,0.24,0.6c0.11,0.19,0.26,0.35,0.45,0.46c0.2,0.11,0.46,0.18,0.78,0.2c0.32,0.02,0.72-0.03,1.18-0.15
			c0.44-0.12,0.9-0.29,1.37-0.51c0.48-0.22,0.95-0.47,1.41-0.75c0.46-0.28,0.91-0.56,1.32-0.85
			C225.24,33.63,225.6,33.38,225.9,33.16z"/>
		<path class="st3" d="M240.01,29.54c0.08-0.1,0.16-0.17,0.24-0.19c0.15-0.04,0.25,0,0.28,0.13c0.03,0.13,0,0.26-0.1,0.4
			c-0.26,0.35-0.63,0.8-1.11,1.35c-0.47,0.56-0.99,1.11-1.54,1.68s-1.11,1.07-1.68,1.53c-0.57,0.46-1.1,0.75-1.59,0.88
			c-0.52,0.14-0.91,0.05-1.17-0.27c-0.26-0.32-0.46-0.71-0.58-1.17c-0.1-0.39-0.18-0.78-0.23-1.18c-0.05-0.4-0.11-0.72-0.17-0.95
			c-0.05-0.21-0.12-0.3-0.2-0.28c-0.08,0.02-0.17,0.18-0.28,0.49c0.06,0.12,0.11,0.24,0.16,0.37c0.05,0.13,0.09,0.25,0.12,0.38
			c0.1,0.36,0.08,0.66-0.05,0.9s-0.28,0.39-0.46,0.43c-0.1,0.03-0.2,0.01-0.3-0.04c-0.04,0.17-0.09,0.44-0.16,0.81
			c-0.07,0.36-0.16,0.73-0.29,1.09c-0.12,0.36-0.25,0.69-0.38,0.97c-0.13,0.28-0.27,0.45-0.43,0.49c-0.28,0.08-0.52,0-0.72-0.22
			c-0.2-0.22-0.35-0.53-0.45-0.91c-0.11-0.41-0.16-0.89-0.16-1.45c0-0.55,0.06-1.09,0.17-1.6c0.11-0.51,0.28-0.96,0.51-1.34
			c0.23-0.38,0.52-0.62,0.89-0.71c0.31-0.08,0.58-0.06,0.8,0.06c0.22,0.12,0.43,0.31,0.61,0.56c0.21-0.47,0.4-0.73,0.58-0.78
			c0.26-0.07,0.44,0.09,0.54,0.48c0.1,0.36,0.15,0.81,0.17,1.34c0.02,0.53,0.09,1.02,0.2,1.46c0.08,0.31,0.21,0.56,0.37,0.75
			c0.16,0.19,0.41,0.24,0.74,0.15c0.44-0.12,0.93-0.41,1.49-0.87c0.55-0.47,1.09-0.99,1.63-1.58c0.53-0.58,1.02-1.17,1.47-1.76
			C239.39,30.36,239.74,29.89,240.01,29.54z M231.21,33.64c-0.02-0.08-0.03-0.14-0.01-0.2c0-0.19,0-0.43,0-0.7
			c0-0.27-0.03-0.52-0.09-0.72c-0.06-0.23-0.14-0.33-0.25-0.31c-0.28,0.08-0.53,0.31-0.74,0.72c-0.21,0.4-0.38,0.87-0.5,1.4
			c-0.12,0.53-0.2,1.05-0.24,1.58c-0.04,0.52-0.02,0.94,0.06,1.25c0.1,0.36,0.26,0.51,0.49,0.45c0.08-0.02,0.17-0.15,0.29-0.39
			s0.22-0.49,0.31-0.77c0.09-0.27,0.18-0.54,0.26-0.79c0.08-0.26,0.14-0.43,0.17-0.52L231.21,33.64z"/>
		<path class="st3" d="M261.04,14.05c0.32-0.06,0.54-0.08,0.67-0.05c0.13,0.02,0.2,0.06,0.22,0.11c0.03,0.1-0.04,0.22-0.19,0.36
			c-0.16,0.14-0.33,0.23-0.5,0.28c-0.26,0.04-0.53,0.07-0.81,0.07c-0.28,0-0.54,0.04-0.8,0.11c-1.33,0.3-2.65,0.61-3.96,0.92
			c-1.31,0.31-2.62,0.64-3.94,0.99c-1,0.27-2.01,0.55-3,0.85c-1,0.3-1.98,0.6-2.94,0.91c-0.21,1.27-0.43,2.7-0.66,4.28
			c-0.23,1.58-0.41,3.15-0.56,4.73c-0.14,1.57-0.22,3.04-0.23,4.41c-0.01,1.37,0.1,2.46,0.32,3.29c0.1,0.36,0.26,0.7,0.48,1.01
			c0.22,0.31,0.55,0.41,0.99,0.29c0.54-0.15,1.15-0.65,1.83-1.53c0.68-0.87,1.34-1.87,2-2.98s1.26-2.22,1.82-3.33
			c0.56-1.1,0.99-1.97,1.29-2.6c0.06-0.18,0.16-0.29,0.29-0.33c0.13-0.03,0.21,0.01,0.24,0.14c0.03,0.1,0.01,0.23-0.06,0.39
			c-0.22,0.42-0.49,0.95-0.81,1.6c-0.32,0.65-0.68,1.34-1.08,2.07c-0.4,0.73-0.83,1.47-1.29,2.23c-0.46,0.76-0.92,1.45-1.39,2.07
			c-0.47,0.62-0.93,1.15-1.39,1.6c-0.46,0.44-0.9,0.72-1.31,0.83c-0.52,0.14-0.95,0-1.31-0.41c-0.36-0.42-0.65-1.03-0.87-1.86
			c-0.24-0.9-0.41-2-0.51-3.28c-0.1-1.28-0.13-2.63-0.11-4.03s0.1-2.81,0.22-4.22c0.12-1.41,0.27-2.7,0.46-3.85
			c-0.79,0.27-1.51,0.52-2.18,0.75c-0.67,0.23-1.32,0.49-1.97,0.78c-0.35,0.15-0.68,0.31-0.99,0.47c-0.31,0.17-0.64,0.32-0.99,0.47
			c-0.1,0.05-0.22,0.1-0.38,0.14c-0.31,0.08-0.48,0.07-0.5-0.03c-0.04-0.13,0.21-0.3,0.73-0.53c1.05-0.42,2.09-0.8,3.13-1.15
			c1.04-0.35,2.1-0.71,3.19-1.08c0.12-0.58,0.24-1.13,0.35-1.63c0.11-0.5,0.23-0.93,0.36-1.3c0.26-0.76,0.54-1.18,0.82-1.26
			c0.21-0.06,0.35,0.08,0.44,0.42c0.08,0.28,0.07,0.68-0.01,1.2l-0.32,2.03c1.77-0.61,3.52-1.18,5.24-1.69
			c1.72-0.52,3.48-1.01,5.25-1.49c0.77-0.21,1.55-0.42,2.34-0.63C259.42,14.4,260.22,14.21,261.04,14.05z"/>
		<path class="st3" d="M266,22.99c-0.39,0.49-0.87,1.06-1.43,1.69c-0.56,0.64-1.16,1.26-1.8,1.87c-0.64,0.61-1.28,1.16-1.92,1.63
			s-1.25,0.79-1.82,0.94c-0.8,0.21-1.42,0.11-1.87-0.33c-0.45-0.43-0.75-0.94-0.91-1.54c-0.11-0.41-0.16-0.79-0.16-1.14
			c0-0.35,0.04-0.67,0.09-0.96c0.13-0.56,0.33-0.88,0.62-0.95c0.21-0.06,0.35,0.07,0.43,0.38c0.06,0.23,0.08,0.55,0.04,0.94
			c-0.03,0.4-0.05,0.81-0.06,1.26c0,0.44,0.04,0.85,0.14,1.21c0.1,0.36,0.25,0.64,0.47,0.83c0.22,0.19,0.53,0.23,0.94,0.12
			c0.49-0.13,1.05-0.45,1.67-0.95c0.63-0.5,1.25-1.07,1.88-1.71c0.63-0.64,1.24-1.28,1.82-1.94c0.58-0.65,1.06-1.21,1.44-1.67
			c0.08-0.13,0.18-0.21,0.31-0.25s0.21,0.01,0.25,0.14C266.17,22.71,266.13,22.84,266,22.99z M257.17,19.39
			c0.18-0.05,0.31,0.06,0.37,0.31c0.05,0.18,0.04,0.4-0.01,0.65c-0.06,0.25-0.19,0.4-0.4,0.46c-0.18,0.05-0.3-0.06-0.37-0.31
			c-0.05-0.21-0.05-0.42,0.02-0.63C256.85,19.66,256.97,19.5,257.17,19.39z"/>
		<path class="st3" d="M277.19,19.32c0.36-0.1,0.56-0.07,0.6,0.09c0.04,0.13-0.08,0.26-0.35,0.38c-0.45,0.18-1.03,0.39-1.74,0.63
			c-0.71,0.25-1.44,0.47-2.18,0.67c-0.49,0.13-0.95,0.24-1.38,0.33c-0.43,0.09-0.81,0.14-1.14,0.14c0.18,0.26,0.33,0.54,0.44,0.86
			c0.11,0.32,0.19,0.56,0.24,0.74c0.2,0.83,0.16,1.56-0.12,2.19c-0.27,0.63-0.62,0.99-1.03,1.1c-0.28,0.08-0.55,0.02-0.81-0.17
			c-0.26-0.19-0.46-0.56-0.61-1.1c-0.17-0.64-0.23-1.39-0.17-2.25c0.06-0.86,0.2-1.54,0.43-2.04c0.15-0.37,0.33-0.58,0.53-0.64
			c0.18-0.05,0.3,0.04,0.36,0.27c0.03,0.13,0.03,0.28,0,0.46c0.17,0.01,0.35,0.11,0.54,0.31c0.5,0.03,1.13-0.05,1.88-0.25
			c0.8-0.21,1.61-0.49,2.45-0.84C275.96,19.84,276.65,19.55,277.19,19.32z M270.24,26.28c0.26-0.07,0.45-0.25,0.58-0.55
			c0.13-0.3,0.19-0.64,0.2-1.03c0.01-0.39-0.02-0.79-0.07-1.2c-0.06-0.41-0.13-0.79-0.22-1.12c-0.08-0.28-0.15-0.5-0.22-0.67
			c-0.07-0.16-0.13-0.23-0.18-0.22c-0.03-0.02-0.06-0.03-0.09-0.04c-0.03-0.01-0.06-0.03-0.1-0.08c-0.24,0.64-0.42,1.37-0.54,2.17
			c-0.12,0.8-0.11,1.49,0.02,2.07C269.74,26.14,269.95,26.36,270.24,26.28z"/>
		<path class="st3" d="M291.44,15.75c0.08-0.13,0.18-0.21,0.31-0.25c0.13-0.03,0.21,0.01,0.25,0.14s-0.01,0.27-0.14,0.41
			c-0.34,0.39-0.74,0.86-1.22,1.39c-0.48,0.53-0.98,1.04-1.52,1.52c-0.53,0.49-1.07,0.93-1.61,1.32c-0.54,0.39-1.05,0.65-1.51,0.78
			c-0.7,0.19-1.19,0.1-1.48-0.27c-0.29-0.36-0.5-0.78-0.62-1.24c-0.06-0.23-0.11-0.45-0.16-0.66c-0.04-0.21-0.08-0.38-0.12-0.51
			c-0.05-0.21-0.12-0.3-0.2-0.28c-0.13,0.03-0.27,0.29-0.41,0.77c-0.15,0.48-0.29,1.02-0.42,1.6c-0.13,0.59-0.27,1.16-0.41,1.71
			c-0.14,0.55-0.28,0.9-0.4,1.04c-0.02,0.03-0.05,0.06-0.11,0.07c-0.26,0.07-0.47-0.21-0.63-0.82c-0.09-0.33-0.16-0.74-0.22-1.2
			c-0.06-0.47-0.1-0.95-0.14-1.43c-0.03-0.49-0.05-0.97-0.04-1.46c0.01-0.48,0.05-0.9,0.12-1.25c0.1-0.63,0.29-0.99,0.54-1.06
			c0.21-0.06,0.36,0.1,0.45,0.46c0.05,0.18,0.06,0.48,0.03,0.9c-0.08,0.74-0.16,1.56-0.23,2.46c-0.08,0.9-0.1,1.67-0.07,2.3
			c0.1-0.36,0.21-0.8,0.35-1.32c0.14-0.52,0.3-1.02,0.48-1.52c0.19-0.49,0.38-0.91,0.57-1.27c0.19-0.36,0.38-0.56,0.56-0.61
			c0.23,0.02,0.39,0.23,0.5,0.61c0.07,0.26,0.13,0.55,0.17,0.87c0.04,0.32,0.1,0.62,0.18,0.91c0.1,0.36,0.25,0.66,0.45,0.89
			c0.2,0.24,0.52,0.29,0.96,0.18c0.46-0.12,0.96-0.39,1.49-0.79c0.53-0.4,1.05-0.87,1.57-1.4c0.52-0.53,1.02-1.06,1.5-1.6
			C290.73,16.6,291.13,16.14,291.44,15.75z"/>
	</g>
</g>
</svg>
