<?xml version="1.0" encoding="utf-8"?>
<!-- Generator: Adobe Illustrator 24.0.1, SVG Export Plug-In . SVG Version: 6.00 Build 0)  -->
<svg version="1.1" id="圖層_1" xmlns="http://www.w3.org/2000/svg" xmlns:xlink="http://www.w3.org/1999/xlink" x="0px" y="0px"
	 viewBox="0 0 683 103" style="enable-background:new 0 0 683 103;" xml:space="preserve">
<style type="text/css">
	.st0{enable-background:new    ;}
	.st1{fill:#F58F8E;}
	.st2{fill:#707070;}
	.st3{fill:none;stroke:#707070;stroke-width:0.3;stroke-miterlimit:4.0005;}
	.st4{fill:#95918E;}
	.st5{fill:#FFFFFF;}
	.st6{fill:#A67C52;}
</style>
<g id="Group_1175" transform="translate(125 1202)">
	<g id="Group_1173-2" transform="translate(0 0)">
		<g id="Group_1166-2" transform="translate(0)">
			<g id="Group_1163-2" transform="translate(0)">
				<g id="Group_1160-2" transform="translate(34.22 16.906)">
					<path id="Path_43911-2" class="st6" d="M-86.122-1149.751c0.217,0,0.435-0.012,0.651-0.036c3.234-0.351,5.45-3.387,6.079-8.331
						l0.058-0.457c0.3-2.369,0.6-4.818,2.083-6.466c1.258-1.396,3.21-1.938,5.008-1.392c1.754,0.613,2.913,2.286,2.87,4.143
						c-0.137,1.821-1.537,3.294-3.349,3.523c-0.891,0.04-1.761-0.271-2.425-0.866c-0.649-0.542-1.056-1.32-1.132-2.162
						c-0.026-0.414-0.382-0.729-0.796-0.703c-0.414,0.026-0.729,0.382-0.704,0.796c0.101,1.242,0.692,2.393,1.642,3.2
						c0.964,0.861,2.231,1.305,3.522,1.232c2.565-0.282,4.559-2.36,4.737-4.934c0.066-2.526-1.504-4.807-3.887-5.648
						c-2.366-0.731-4.942-0.025-6.605,1.81c-1.8,2-2.146,4.805-2.456,7.282l-0.057,0.454c-0.252,1.985-1.222,6.645-4.752,7.028
						c-1.369,0.178-2.734-0.353-3.624-1.408c-1.033-1.252-1.395-2.927-0.969-4.494c0.331-1.217,1.253-2.185,2.452-2.575
						c0.863-0.268,1.803-0.037,2.443,0.6c0.677,0.669,0.926,1.659,0.647,2.569c-0.181,0.719-0.769,1.263-1.5,1.387
						c-0.408,0.069-0.683,0.457-0.614,0.865c0.069,0.408,0.457,0.683,0.865,0.614c1.295-0.22,2.344-1.172,2.687-2.44
						c0.435-1.459,0.023-3.039-1.068-4.1c-1.027-0.994-2.512-1.353-3.879-0.936c-1.706,0.533-3.02,1.903-3.482,3.63
						c-0.564,2.044-0.086,4.234,1.279,5.857C-89.331-1150.457-87.766-1149.74-86.122-1149.751z"/>
				</g>
				<g id="Group_1161-2" transform="translate(34.22)">
					<path id="Path_43912-2" class="st6" d="M-73.602-1149.752c0.626,0.002,1.247-0.1,1.84-0.3c2.383-0.84,3.953-3.121,3.887-5.647
						c-0.177-2.574-2.172-4.652-4.737-4.935c-1.291-0.072-2.558,0.372-3.522,1.233c-0.95,0.807-1.541,1.958-1.642,3.2
						c-0.026,0.414,0.289,0.771,0.703,0.797c0.414,0.026,0.771-0.289,0.797-0.703c0.076-0.842,0.483-1.62,1.132-2.162
						c0.662-0.598,1.534-0.909,2.425-0.867c1.812,0.229,3.212,1.703,3.349,3.524c0.042,1.857-1.116,3.53-2.87,4.143
						c-1.798,0.546-3.749,0.003-5.008-1.392c-1.481-1.649-1.787-4.1-2.083-6.467l-0.058-0.457c-0.629-4.943-2.845-7.979-6.078-8.331
						c-1.86-0.223-3.708,0.499-4.925,1.924c-1.365,1.622-1.844,3.813-1.279,5.857c0.462,1.727,1.776,3.096,3.482,3.629
						c1.367,0.416,2.852,0.058,3.879-0.935c1.091-1.062,1.503-2.641,1.068-4.1c-0.343-1.268-1.392-2.22-2.687-2.439
						c-0.406-0.083-0.802,0.179-0.885,0.585c-0.083,0.406,0.179,0.802,0.585,0.885c0.016,0.003,0.033,0.006,0.049,0.008
						c0.731,0.124,1.319,0.669,1.5,1.388c0.279,0.91,0.03,1.899-0.647,2.568c-0.641,0.637-1.58,0.868-2.443,0.6
						c-1.199-0.39-2.121-1.358-2.452-2.574c-0.427-1.568-0.065-3.246,0.969-4.5c0.89-1.056,2.255-1.586,3.624-1.408
						c3.53,0.383,4.5,5.043,4.752,7.029l0.057,0.454c0.31,2.476,0.661,5.284,2.456,7.282
						C-77.141-1150.525-75.414-1149.76-73.602-1149.752z"/>
				</g>
				<g id="Group_1162-2" transform="translate(0 2.765)">
					<path id="Path_43913-2" class="st6" d="M-67.372-1138.376c0.328,0,0.618-0.213,0.717-0.526
						c0.174-0.559,4.456-13.679,19.558-13.679c0.414,0,0.75-0.336,0.75-0.75c0-0.414-0.336-0.75-0.75-0.75
						c-8.763,0.192-16.656-5.273-19.559-13.544c-0.124-0.395-0.545-0.615-0.94-0.491c-0.056,0.018-0.109,0.042-0.16,0.072
						l-23.779,14.137c-0.356,0.211-0.474,0.67-0.263,1.026c0.064,0.108,0.155,0.199,0.263,0.263l23.779,14.136
						C-67.64-1138.412-67.507-1138.375-67.372-1138.376z M-53.162-1153.327c-9.47,2.487-13.49,10.436-14.594,13.1l-21.927-13.036
						l21.93-13.037c1.106,2.643,5.129,10.508,14.587,12.973H-53.162z"/>
				</g>
			</g>
			<g id="Group_1164-2" transform="translate(41.332 16.902)">
				<path id="Path_43914-2" class="st6" d="M-91.151-1166.65H482.82c0.414,0,0.75-0.336,0.75-0.75s-0.336-0.75-0.75-0.75H-91.151
					c-0.414,0-0.75,0.336-0.75,0.75S-91.565-1166.65-91.151-1166.65z"/>
			</g>
			<g id="Group_1165-2" transform="translate(12.5 2.765)">
				<path id="Path_43915-2" class="st6" d="M-79.871-1138.377c0.414,0,0.75-0.336,0.75-0.75c0-0.169-0.057-0.332-0.162-0.465
					l-10.909-13.79l10.9-13.548c0.26-0.323,0.209-0.795-0.114-1.055c-0.323-0.26-0.795-0.209-1.055,0.114l-11.279,14.014
					c-0.218,0.274-0.218,0.662,0,0.936l11.279,14.259C-80.318-1138.481-80.101-1138.376-79.871-1138.377z"/>
			</g>
		</g>
	</g>
</g>
</svg>
