<?xml version="1.0" encoding="utf-8"?>
<!-- Generator: Adobe Illustrator 26.0.1, SVG Export Plug-In . SVG Version: 6.00 Build 0)  -->
<svg version="1.1" id="Layer_1" xmlns="http://www.w3.org/2000/svg" xmlns:xlink="http://www.w3.org/1999/xlink" x="0px" y="0px"
	 viewBox="0 0 86.76 86.76" style="enable-background:new 0 0 86.76 86.76;" xml:space="preserve">
<style type="text/css">
	.st0{clip-path:url(#SVGID_00000082333283041467074480000003278212060830583953_);fill:#F58F8E;}
	.st1{clip-path:url(#SVGID_00000082333283041467074480000003278212060830583953_);fill:#FFFFFF;}
	.st2{clip-path:url(#SVGID_00000082333283041467074480000003278212060830583953_);fill:#6B9F99;}
	
		.st3{clip-path:url(#SVGID_00000082333283041467074480000003278212060830583953_);fill:#FFFFFF;stroke:#E3CEB7;stroke-width:1.1147;stroke-linecap:round;stroke-linejoin:round;stroke-miterlimit:10;}
</style>
<g>
	<g>
		<defs>
			<circle id="SVGID_1_" cx="43.38" cy="43.38" r="43.38"/>
		</defs>
		<clipPath id="SVGID_00000096778906253908085840000013842285580130479551_">
			<use xlink:href="#SVGID_1_"  style="overflow:visible;"/>
		</clipPath>
		
			<circle style="clip-path:url(#SVGID_00000096778906253908085840000013842285580130479551_);fill:#F58F8E;" cx="43.38" cy="43.38" r="43.38"/>
		<path style="clip-path:url(#SVGID_00000096778906253908085840000013842285580130479551_);fill:#FFFFFF;" d="M68.85,19.21
			c-2.96-2.63-6.25-3.78-7.33-2.56c-0.75,0.84-0.25,2.59,1.1,4.46l0.01,0.01l-4.2,4.72c-2.42-0.58-5.08,0.15-6.85,2.14L30.34,51.89
			c-2.56,2.88-2.3,7.28,0.58,9.84l0,0c2.88,2.56,7.28,2.3,9.84-0.58L62,37.25c1.71-1.93,2.16-4.54,1.4-6.82l4.3-4.83l0.11,0.09
			c1.97,1.07,3.71,1.33,4.45,0.51C73.34,24.97,71.82,21.85,68.85,19.21z"/>
		<path style="clip-path:url(#SVGID_00000096778906253908085840000013842285580130479551_);fill:#6B9F99;" d="M43.7,37.57l9.75,8.59
			L41.16,60.12c0,0-4.89,6.08-10.04,1.19c-3.17-3.01-2.49-6.81-0.47-9.08C32.67,49.96,43.7,37.57,43.7,37.57z"/>
		
			<line style="clip-path:url(#SVGID_00000096778906253908085840000013842285580130479551_);fill:#FFFFFF;stroke:#E3CEB7;stroke-width:1.1147;stroke-linecap:round;stroke-linejoin:round;stroke-miterlimit:10;" x1="30.74" y1="61.58" x2="19.91" y2="73.76"/>
		
			<line style="clip-path:url(#SVGID_00000096778906253908085840000013842285580130479551_);fill:#FFFFFF;stroke:#E3CEB7;stroke-width:1.1147;stroke-linecap:round;stroke-linejoin:round;stroke-miterlimit:10;" x1="57.69" y1="35.14" x2="60.13" y2="37.32"/>
		
			<line style="clip-path:url(#SVGID_00000096778906253908085840000013842285580130479551_);fill:#FFFFFF;stroke:#E3CEB7;stroke-width:1.1147;stroke-linecap:round;stroke-linejoin:round;stroke-miterlimit:10;" x1="51.79" y1="41.77" x2="54.24" y2="43.95"/>
		
			<line style="clip-path:url(#SVGID_00000096778906253908085840000013842285580130479551_);fill:#FFFFFF;stroke:#E3CEB7;stroke-width:1.1147;stroke-linecap:round;stroke-linejoin:round;stroke-miterlimit:10;" x1="46.53" y1="47.69" x2="48.98" y2="49.87"/>
		
			<line style="clip-path:url(#SVGID_00000096778906253908085840000013842285580130479551_);fill:#FFFFFF;stroke:#E3CEB7;stroke-width:1.1147;stroke-linecap:round;stroke-linejoin:round;stroke-miterlimit:10;" x1="40.85" y1="54.09" x2="43.29" y2="56.26"/>
		
			<line style="clip-path:url(#SVGID_00000096778906253908085840000013842285580130479551_);fill:#FFFFFF;stroke:#E3CEB7;stroke-width:1.1147;stroke-linecap:round;stroke-linejoin:round;stroke-miterlimit:10;" x1="53.7" y1="37.4" x2="57.26" y2="40.55"/>
		
			<line style="clip-path:url(#SVGID_00000096778906253908085840000013842285580130479551_);fill:#FFFFFF;stroke:#E3CEB7;stroke-width:1.1147;stroke-linecap:round;stroke-linejoin:round;stroke-miterlimit:10;" x1="47.95" y1="43.87" x2="51.5" y2="47.03"/>
		
			<line style="clip-path:url(#SVGID_00000096778906253908085840000013842285580130479551_);fill:#FFFFFF;stroke:#E3CEB7;stroke-width:1.1147;stroke-linecap:round;stroke-linejoin:round;stroke-miterlimit:10;" x1="37.08" y1="56.1" x2="40.63" y2="59.26"/>
		
			<line style="clip-path:url(#SVGID_00000096778906253908085840000013842285580130479551_);fill:#FFFFFF;stroke:#E3CEB7;stroke-width:1.1147;stroke-linecap:round;stroke-linejoin:round;stroke-miterlimit:10;" x1="42.69" y1="49.79" x2="46.24" y2="52.95"/>
		<polygon style="clip-path:url(#SVGID_00000096778906253908085840000013842285580130479551_);fill:#FFFFFF;" points="29.15,18.24 
			30.24,13.17 31.33,18.24 36.4,19.33 31.33,20.42 30.24,25.5 29.15,20.42 24.07,19.33 		"/>
		<polygon style="clip-path:url(#SVGID_00000096778906253908085840000013842285580130479551_);fill:#FFFFFF;" points="38.18,28.04 
			38.74,25.44 39.3,28.04 41.9,28.6 39.3,29.16 38.74,31.76 38.18,29.16 35.58,28.6 		"/>
	</g>
</g>
</svg>
