<?xml version="1.0" encoding="utf-8"?>
<!-- Generator: Adobe Illustrator 26.0.1, SVG Export Plug-In . SVG Version: 6.00 Build 0)  -->
<svg version="1.1" id="Layer_1" xmlns="http://www.w3.org/2000/svg" xmlns:xlink="http://www.w3.org/1999/xlink" x="0px" y="0px"
	 viewBox="0 0 86.76 86.76" style="enable-background:new 0 0 86.76 86.76;" xml:space="preserve">
<style type="text/css">
	.st0{clip-path:url(#SVGID_00000067231374309329272430000000145402191783455646_);fill:#F58F8E;}
	.st1{clip-path:url(#SVGID_00000067231374309329272430000000145402191783455646_);fill:#D9DBC5;}
	.st2{clip-path:url(#SVGID_00000067231374309329272430000000145402191783455646_);fill:#EAAA8F;}
	.st3{clip-path:url(#SVGID_00000067231374309329272430000000145402191783455646_);fill:#DF6E63;}
	.st4{clip-path:url(#SVGID_00000067231374309329272430000000145402191783455646_);fill:#563827;}
	.st5{clip-path:url(#SVGID_00000067231374309329272430000000145402191783455646_);fill:#F9CBAA;}
	.st6{clip-path:url(#SVGID_00000067231374309329272430000000145402191783455646_);fill:#BD5C56;}
	.st7{clip-path:url(#SVGID_00000067231374309329272430000000145402191783455646_);fill:#79B7B1;}
	.st8{clip-path:url(#SVGID_00000067231374309329272430000000145402191783455646_);fill:#F8C5A8;}
	.st9{clip-path:url(#SVGID_00000067231374309329272430000000145402191783455646_);fill:#6B9F99;}
	.st10{clip-path:url(#SVGID_00000067231374309329272430000000145402191783455646_);fill:#F3B190;}
	.st11{clip-path:url(#SVGID_00000067231374309329272430000000145402191783455646_);fill:#EAF5D8;}
	.st12{clip-path:url(#SVGID_00000067231374309329272430000000145402191783455646_);fill:#CFD3C1;}
</style>
<g>
	<g>
		<defs>
			<circle id="SVGID_1_" cx="43.38" cy="43.38" r="43.38"/>
		</defs>
		<clipPath id="SVGID_00000060741861533372994010000014589573210000236426_">
			<use xlink:href="#SVGID_1_"  style="overflow:visible;"/>
		</clipPath>
		
			<circle style="clip-path:url(#SVGID_00000060741861533372994010000014589573210000236426_);fill:#F58F8E;" cx="43.38" cy="43.38" r="43.38"/>
		<path style="clip-path:url(#SVGID_00000060741861533372994010000014589573210000236426_);fill:#D9DBC5;" d="M33.78,50.1
			l-2.35,3.31c0,0-11.32,5.34-17.62,5.45l-6.3-1.82C7.52,57.04,21.29,58.22,33.78,50.1z"/>
		<path style="clip-path:url(#SVGID_00000060741861533372994010000014589573210000236426_);fill:#EAAA8F;" d="M28.92,31.95
			c0,0,0.65,6.78,0.16,12.25c-0.49,5.47-0.33,6.04-3.59,9.39c0,0-1.96,0.25-4.17-1.88s-1.14-22.71-1.14-22.71
			S24.51,30.97,28.92,31.95z"/>
		<path style="clip-path:url(#SVGID_00000060741861533372994010000014589573210000236426_);fill:#EAAA8F;" d="M71.07,19.69
			c0,0,2.62,21.92,3.03,26.17s-0.6,6.25-2.15,6.72c-0.7,0.21-4.47-2.91-5.45-5.28s-3.52-20.1-3.52-20.1S70.74,17.73,71.07,19.69z"/>
		<path style="clip-path:url(#SVGID_00000060741861533372994010000014589573210000236426_);fill:#563827;" d="M56.69-15.1
			c0,0,7.02,5.23,7.84,9.15C65.35-2.03,64.7,3.52,58,6.79c0,0,5.39-3.59-0.33-14.05c0,0,4.9,11.11-3.1,16.66l-30.06,5.72l-6.29,8.33
			c0,0-0.9-6.21-2.7-9.48s-3.27-3.43-1.96-9.64c0,0-3.1,1.63-0.82,7.52c0,0-6.04-5.72-1.63-9.97S21.73-4.49,23.2-10.04
			C24.67-15.59,56.69-15.1,56.69-15.1z"/>
		<path style="clip-path:url(#SVGID_00000060741861533372994010000014589573210000236426_);fill:#EAAA8F;" d="M0.9,17.24
			c3.47,0.55,5.75-0.19,11.27-0.12c3.59,0.04,6,2.33,6,2.33v3.19L3.84,20.67C3.84,20.67-0.23,17.07,0.9,17.24z"/>
		<path style="clip-path:url(#SVGID_00000060741861533372994010000014589573210000236426_);fill:#F9CBAA;" d="M33.25,42.97
			c0,0,0.9,3.96-0.22,6.14c-0.42,0.83-2.4,2.35-3.95,3.99c-1.55,1.63-3.2,3.74-3.43,4c0,0,3.76,7.72,18.13,8.41
			c13.6,0.65,18.46-3.27,18.46-3.27S59.59,54,60.08,49.35s0.98-8.58,0.98-8.58s-6.25,3.55-14.46,4.04S33.25,42.97,33.25,42.97z"/>
		<path style="clip-path:url(#SVGID_00000060741861533372994010000014589573210000236426_);fill:#EAAA8F;" d="M27.5,58.32
			c0,0,2.17-3.28,3.46-4.4c0.99-0.86,3.09-3.12,3.51-5.15c0.41-1.96,0.12-2.86,0.12-2.86s13.27,3.68,25.12-1.96
			c0,0,0.49,3.72-0.57,6.86c-1.88,5.55-1.55,8.99-0.35,12.25c0,0,1.98-0.98,3.04-1.88c0,0-1.67-5.47-1.72-8.66
			c-0.04-3.19,0.74-10.74,0.74-10.74s-10.78,6.45-27.53,2.12c0,0,0.65,3.31-0.3,5.2c-0.48,0.95-3.14,3.02-4.24,4.27
			c-0.66,0.74-1.69,1.65-2.65,2.99C26.14,56.37,27.11,58.09,27.5,58.32z"/>
		<path style="clip-path:url(#SVGID_00000060741861533372994010000014589573210000236426_);fill:#DF6E63;" d="M31.86,38.73
			l0.41,4.98c0,0,2.53,2.22,13.48,2.08c9.52-0.12,16.42-4.29,16.42-4.29l0.16-4.82c0,0,2.78-3.02,0.74-9.64c0,0,6.13-1.72,8.74-8.66
			c0,0-0.16-1.92-1.55-3.68c-1.1-1.39-3.13-4.34-7.76-4.78c-2.16-0.2-4.98-0.16-5.92-0.25c0,0-1.43,7.31-15.48,8.86
			c-14.05,1.55-18.62-3.68-18.62-3.68s-3.59,4.66-4.41,13.31c0,0,6.45,2.86,10.86,3.76C28.92,31.95,28.14,35.74,31.86,38.73z"/>
		<path style="clip-path:url(#SVGID_00000060741861533372994010000014589573210000236426_);fill:#BD5C56;" d="M22.06,17.08
			c0,0,7.92,5.63,21.81,3.19c11.6-2.04,13.07-7.76,13.07-7.76s-3.12,8.46-23.44,7.52C26.47,19.69,22.06,17.08,22.06,17.08z"/>
		<path style="clip-path:url(#SVGID_00000060741861533372994010000014589573210000236426_);fill:#EAAA8F;" d="M56.57,9.69
			c0,0-2.56,0.85-5.35-1.67c-3.43-3.1-1.88-8.74-1.88-8.74L37.7,1.44c0,0,2.49,3.96,0.29,7.07c-2.21,3.1-8.5,3.59-11.27,3.92
			c-2.78,0.33-4.25,2.45-4.25,2.45s4.33,6.13,20.67,3.84c0,0,6.45-0.65,10.13-3.43S56.57,9.69,56.57,9.69z"/>
		<path style="clip-path:url(#SVGID_00000060741861533372994010000014589573210000236426_);fill:#79B7B1;" d="M26.14,56.37
			c0,0,3.35,7.19,17.32,8.33c13.97,1.14,18.38-3.51,18.38-3.51s4.37,9.84,2.78,21.36c-1.59,11.52-5.39,25.61-5.39,25.61H42.31
			l0.61-26.22h-2.7l1.1,25.85H23.44c0,0-5.76-18.75-5.88-28.06S21.12,62.05,26.14,56.37z"/>
		<path style="clip-path:url(#SVGID_00000060741861533372994010000014589573210000236426_);fill:#BD5C56;" d="M31.86,38.73
			c0,0,1.92,1.64,4.08,2.12c1.47,0.33,5.8,1.76,10.62-0.2c0,0-3.84,3.47-14.43,1.18L31.86,38.73z"/>
		<path style="clip-path:url(#SVGID_00000060741861533372994010000014589573210000236426_);fill:#BD5C56;" d="M62.33,36.68
			l-0.25,3.43c0,0-2.99,1.72-7.52,1.63c-4.33-0.08-6.53,0.53-8.01-1.1c0,0,5.3,1.76,11.44-0.29C61.43,39.22,62.33,36.68,62.33,36.68
			z"/>
		<path style="clip-path:url(#SVGID_00000060741861533372994010000014589573210000236426_);fill:#BD5C56;" d="M53.59,27.29
			c0,0-15.28,0.98-15.36,2.21c-0.08,1.23,13.15,0.74,13.15,0.41s-8.09,0-9.15-0.33C41.17,29.25,53.67,28.03,53.59,27.29z"/>
		<path style="clip-path:url(#SVGID_00000060741861533372994010000014589573210000236426_);fill:#BD5C56;" d="M28.92,31.95
			c0,0-0.25-4.98,4-8.82c0,0-2.8,1.1-3.45,3.55c0,0-0.27-0.81-0.52-2.42C28.94,24.26,28.51,30.11,28.92,31.95L28.92,31.95z"/>
		<path style="clip-path:url(#SVGID_00000060741861533372994010000014589573210000236426_);fill:#BD5C56;" d="M62.97,27.21
			c0,0-0.99-3.38-5.1-4.79c0,0,2.12,0.08,3.1,1.25c0,0-0.03-0.57,0.17-1.56c0,0,0.55,2.74,2.2,4.84L62.97,27.21z"/>
		
			<ellipse transform="matrix(0.1167 -0.9932 0.9932 0.1167 -21.9404 99.1502)" style="clip-path:url(#SVGID_00000060741861533372994010000014589573210000236426_);fill:#EAAA8F;" cx="44.77" cy="61.91" rx="1.59" ry="0.31"/>
		<path style="clip-path:url(#SVGID_00000060741861533372994010000014589573210000236426_);fill:#F8C5A8;" d="M35.09-0.03
			c0,0,5.51,4.53,8.94,4.53c3.43,0,7.35-7.35,7.6-8.45S34.23-4.08,35.09-0.03z"/>
		<path style="clip-path:url(#SVGID_00000060741861533372994010000014589573210000236426_);fill:#F9CBAA;" d="M25.49,53.59
			c0,0-4.57-0.08-6.7-4.49s-3.76-24.34-3.76-24.34c-0.01-0.44-2.41-0.8-2.78-0.92c-0.37-0.12-1.45-0.32-2.93-0.39
			s-2.88-0.6-2.88-0.6S3.32,21.6,2.59,21.3c-0.74-0.3-1.29-1.06-1.48-1.45s-1.8-5.1-1.8-5.1l0.09-0.99
			c1.73,0.29,1.96,2.91,1.96,2.91c1.11,0.97,1.71,2.35,1.71,2.35l0.74,0.05c-0.48-0.28-1.22-1.2-1.41-1.64
			c-0.18-0.44-1.2-1.91-1.2-1.91l0.19-0.41c1.53-0.18,2.94,2.21,2.94,2.21c1.41,0.55,1.9,1.72,1.9,1.72
			c1.72-0.18,5.08,0.55,5.08,0.55c2.62-0.84,4.56-0.56,6.1-0.27c0.26,0.05,0.52,0.1,0.76,0.14c0,0,0.7,0.15,1.21,0.99
			c0.47,0.78,0.99,2.18,1.49,4.65c1.23,6.13,6.49,16.42,6.49,16.42s1.72,3.68,1.39,5.96C28.43,49.75,27.45,51.88,25.49,53.59z"/>
		<path style="clip-path:url(#SVGID_00000060741861533372994010000014589573210000236426_);fill:#F9CBAA;" d="M-1.26,13.53
			c0,0-0.53-0.75-1.15-0.57l-0.11,0.94c0,0,2.04,4.78,2.45,5.51c0.41,0.74,0.8,1.1,1.86,1.26c0,0-0.23-0.14-0.57-0.82
			s-1.7-4.52-1.7-4.52L-1.26,13.53z"/>
		<path style="clip-path:url(#SVGID_00000060741861533372994010000014589573210000236426_);fill:#6B9F99;" d="M26.88,107.79
			c0,0-14.25-30.11,0.62-49.47l-1.36-1.95c0,0-8.17,8.9-8.66,19.2c-0.49,10.29,5.96,32.22,5.96,32.22H26.88z"/>
		<path style="clip-path:url(#SVGID_00000060741861533372994010000014589573210000236426_);fill:#6B9F99;" d="M41.33,107.79
			c0,0-0.49-22.42-3.76-27.32c0,0,5.23,1.14,8.17-0.49c0,0-3.43,5.64-3.43,28.18l0.33-26.3h-2.7L41.33,107.79z"/>
		<path style="clip-path:url(#SVGID_00000060741861533372994010000014589573210000236426_);fill:#6B9F99;" d="M61.84,61.19
			c-0.86,0.53-2.3,1.58-3.04,1.88c9.86,19.01-3,45.09-3,45.09h3.43c0,0,6.87-21.05,5.7-33.63C64.43,69.25,63.32,64.56,61.84,61.19z"
			/>
		<path style="clip-path:url(#SVGID_00000060741861533372994010000014589573210000236426_);fill:#BD5C56;" d="M32.14,42.4
			c0,0,15.07,6.58,29.94-2.29l0.14-1.67c0,0-0.18,3.14-11.33,3.14c-3.14,0-4.33-0.94-4.33-0.94s-2.16,1.1-4.9,1.1
			c-9.23,0-9.8-3.02-9.8-3.02L32.14,42.4z"/>
		<path style="clip-path:url(#SVGID_00000060741861533372994010000014589573210000236426_);fill:#DF6E63;" d="M1.81,16.39
			c0,0,0.28-1.42-0.76-1.85c0,0-0.16-0.11-0.29-0.02c-0.13,0.09-0.05,0.25-0.05,0.25L1.81,16.39z"/>
		<path style="clip-path:url(#SVGID_00000060741861533372994010000014589573210000236426_);fill:#6B9F99;" d="M27.28,61.19
			c0,0,13.89,9.31,30.39,2.94C57.67,64.13,42.48,72.79,27.28,61.19z"/>
		<path style="clip-path:url(#SVGID_00000060741861533372994010000014589573210000236426_);fill:#F9CBAA;" d="M45.41,20.01
			c0.98,0.13,2.67,0.73,2.67,0.73s0.58,0.03,1-0.14s1.17-1.35,1.28-1.75c0.1-0.39-0.41-1.33-0.41-1.33
			c-1.04-0.28-2.15-1.07-2.15-1.07c-0.37,0.5-1.75,0.79-1.75,0.79c-0.9,1.91-2.95,1.63-2.95,1.63s0.25-0.36,0.67-0.84
			c0.42-0.48,0.66-1.19,0.66-1.19s1.69-1.48,2.48-1.93c0.79-0.45,1.01-0.45,1.42-0.4s3.02,1.47,3.02,1.47
			c-1.01-2.06-1.16-3.63-1.16-3.63C49,11.02,48.13,9.3,48.13,9.3s-0.69-0.73-1-1.93s0.34-1.46,0.56-1.46c0.22,0,1.33,2.1,1.81,2.75
			c0.48,0.64,1.82,1.78,2.37,2.48c0.55,0.7,1.42,2.86,1.42,2.86c-0.26-0.86-0.16-1.83-0.14-2.32c-0.41-1.02-1.44-2.81-1.67-4.13
			c-0.29-1.73,0.69-1.78,0.69-1.78c0.35,0.43,1.61,3.23,1.88,3.78s0.99,1.58,1.18,2.48c0.18,0.89,0.46,3.21,0.46,3.21l1.09-1.01
			c-0.09-0.45,0.25-1.24,0.2-1.36c-0.05-0.11-0.19-0.36-0.34-0.74c-0.95-0.94-0.79-2.5-0.48-2.49c0.31,0.01,0.43,0.31,1.1,1.1
			c0.67,0.79,1.11,1.67,1.33,2.64s0.09,1.11-0.21,1.67c-0.3,0.56-1.85,1.54-1.95,2.81c0.58,2.32,0.77,7.35,0.77,7.35
			c0.67,0.79,14.17,16.13,15.77,18.12c1.6,2,1.88,8.14-0.21,9.07c-2.09,0.93-6.27-0.91-7.86-2.02c-1.6-1.12-4.66-10.01-5.94-12.75
			c-1.28-2.74-6.04-9.28-6.04-9.28s-1.95-0.58-2.68-1.74c-0.73-1.16-2.24-2.49-3.67-3.41c-1.43-0.92-2.79-1.34-3.1-2.01
			s-1.52-2.78-2.13-3.32c0,0,0.04-0.33,0.77-0.27C42.83,17.66,44.36,18.18,45.41,20.01z"/>
		<path style="clip-path:url(#SVGID_00000060741861533372994010000014589573210000236426_);fill:#DF6E63;" d="M44.43,16.83
			c0,0-1.56,1.3-1.91,1.74c-0.1,0.12,0.31,0.54,0.31,0.54S44.15,18.17,44.43,16.83z"/>
		<path style="clip-path:url(#SVGID_00000060741861533372994010000014589573210000236426_);fill:#DF6E63;" d="M42.67,19.71
			c0,0-1.48-1.39-1.8-1.85c-0.09-0.13,0.34-0.52,0.34-0.52S42.47,18.36,42.67,19.71z"/>
		<path style="clip-path:url(#SVGID_00000060741861533372994010000014589573210000236426_);fill:#F3B190;" d="M53.68,25.34
			c0,0-1.57-3.02,0.23-6.3C53.91,19.04,51.42,22.03,53.68,25.34z"/>
		<path style="clip-path:url(#SVGID_00000060741861533372994010000014589573210000236426_);fill:#F3B190;" d="M48.08,20.73
			c0,0-0.06,1.17-0.53,1.75l1.08-1.8L48.08,20.73z"/>
		<path style="clip-path:url(#SVGID_00000060741861533372994010000014589573210000236426_);fill:#F3B190;" d="M45.41,20.01
			c0,0-0.51,0.82-0.94,1.04c0,0,1.16-0.51,1.36-0.99L45.41,20.01z"/>
		<path style="clip-path:url(#SVGID_00000060741861533372994010000014589573210000236426_);fill:#EAF5D8;" d="M19.04,60.69v2.34
			c0.54,0.17,1.08,0.34,1.58,0.49v-2.41C20.09,60.98,19.56,60.84,19.04,60.69z"/>
		<path style="clip-path:url(#SVGID_00000060741861533372994010000014589573210000236426_);fill:#CFD3C1;" d="M20.62,61.12v2.41
			c0.48,0.14,0.96,0.29,1.41,0.41v-2.46C21.56,61.36,21.09,61.24,20.62,61.12z"/>
		<path style="clip-path:url(#SVGID_00000060741861533372994010000014589573210000236426_);fill:#CFD3C1;" d="M17.63,60.29v2.29
			c0.49,0.16,0.95,0.3,1.41,0.45v-2.34C18.56,60.56,18.09,60.43,17.63,60.29z"/>
		<path style="clip-path:url(#SVGID_00000060741861533372994010000014589573210000236426_);fill:#EAF5D8;" d="M16.22,59.88v2.24
			c0.48,0.16,0.96,0.32,1.41,0.47v-2.29C17.15,60.16,16.68,60.02,16.22,59.88z"/>
		<path style="clip-path:url(#SVGID_00000060741861533372994010000014589573210000236426_);fill:#EAF5D8;" d="M22.03,61.48v2.46
			c0.42,0.12,0.83,0.22,1.23,0.33v-2.5C22.85,61.67,22.44,61.58,22.03,61.48z"/>
		<path style="clip-path:url(#SVGID_00000060741861533372994010000014589573210000236426_);fill:#CFD3C1;" d="M25.9,62.35v2.55
			c0.36,0.07,0.71,0.14,1.06,0.2v-2.55C26.61,62.48,26.25,62.42,25.9,62.35z"/>
		<path style="clip-path:url(#SVGID_00000060741861533372994010000014589573210000236426_);fill:#EAF5D8;" d="M28.37,62.8v2.53
			c0.32,0.05,0.64,0.1,0.97,0.14v-2.52C29.01,62.91,28.69,62.86,28.37,62.8z"/>
		<path style="clip-path:url(#SVGID_00000060741861533372994010000014589573210000236426_);fill:#CFD3C1;" d="M23.27,61.77v2.5
			c0.45,0.12,0.89,0.23,1.32,0.33v-2.53C24.14,61.97,23.7,61.87,23.27,61.77z"/>
		<path style="clip-path:url(#SVGID_00000060741861533372994010000014589573210000236426_);fill:#CFD3C1;" d="M29.34,62.96v2.52
			c0.49,0.07,0.99,0.12,1.5,0.18v-2.48C30.33,63.11,29.83,63.04,29.34,62.96z"/>
		<path style="clip-path:url(#SVGID_00000060741861533372994010000014589573210000236426_);fill:#EAF5D8;" d="M26.96,62.55v2.55
			c0.47,0.09,0.94,0.17,1.41,0.24V62.8C27.9,62.72,27.43,62.64,26.96,62.55z"/>
		<path style="clip-path:url(#SVGID_00000060741861533372994010000014589573210000236426_);fill:#EAF5D8;" d="M24.59,62.07v2.53
			c0.44,0.11,0.89,0.21,1.32,0.3v-2.55C25.46,62.26,25.02,62.16,24.59,62.07z"/>
		<path style="clip-path:url(#SVGID_00000060741861533372994010000014589573210000236426_);fill:#EAF5D8;" d="M8.04,57.08v2.17
			c0.47,0.17,0.96,0.34,1.41,0.5V57.6C8.93,57.41,8.45,57.24,8.04,57.08z"/>
		<path style="clip-path:url(#SVGID_00000060741861533372994010000014589573210000236426_);fill:#EAF5D8;" d="M5.66,56.11v2.29
			c0.24,0.09,0.45,0.16,0.7,0.25c0.16,0.06,0.29,0.1,0.44,0.16v-2.22C6.45,56.44,6.07,56.28,5.66,56.11z"/>
		<path style="clip-path:url(#SVGID_00000060741861533372994010000014589573210000236426_);fill:#EAF5D8;" d="M3.29,55.12v2.44
			c0.36,0.12,0.77,0.27,1.14,0.4v-2.37C4.06,55.44,3.68,55.28,3.29,55.12z"/>
		<path style="clip-path:url(#SVGID_00000060741861533372994010000014589573210000236426_);fill:#CFD3C1;" d="M4.43,55.59v2.37
			c0.41,0.14,0.81,0.28,1.23,0.43v-2.29C5.27,55.95,4.86,55.77,4.43,55.59z"/>
		<path style="clip-path:url(#SVGID_00000060741861533372994010000014589573210000236426_);fill:#EAF5D8;" d="M-15.82,52.67
			c-6.87,3.63-7.13,9.08-7.57,12.39c-0.44,3.31,0.44,11.96,0.53,14.84c0.09,2.88-2.02,3.74-2.02,3.74l1.85,1.28
			c2.99-0.64,1.76-13.03,1.23-17.72s1.41-10.04,4.4-11.74c2.76-1.57,4.5-3.31,19.63,1.77V54.7C-3.43,52.46-10.95,50.09-15.82,52.67z
			"/>
		<path style="clip-path:url(#SVGID_00000060741861533372994010000014589573210000236426_);fill:#EAF5D8;" d="M12.79,58.78v2.16
			c0.8,0.28,1.56,0.54,2.29,0.79v-2.21C14.28,59.27,13.51,59.02,12.79,58.78z"/>
		<path style="clip-path:url(#SVGID_00000060741861533372994010000014589573210000236426_);fill:#CFD3C1;" d="M2.23,54.7v2.51
			c0.35,0.12,0.69,0.23,1.06,0.36v-2.44C2.94,54.98,2.59,54.84,2.23,54.7z"/>
		<path style="clip-path:url(#SVGID_00000060741861533372994010000014589573210000236426_);fill:#EAF5D8;" d="M10.59,58.02v2.14
			c0.39,0.14,0.77,0.27,1.14,0.4v-2.14C11.33,58.28,10.96,58.15,10.59,58.02z"/>
		<path style="clip-path:url(#SVGID_00000060741861533372994010000014589573210000236426_);fill:#CFD3C1;" d="M11.74,58.42v2.14
			c0.35,0.12,0.72,0.26,1.06,0.37v-2.16C12.42,58.66,12.08,58.54,11.74,58.42z"/>
		<path style="clip-path:url(#SVGID_00000060741861533372994010000014589573210000236426_);fill:#EAF5D8;" d="M30.83,63.17v2.48
			c0.32,0.03,0.64,0.06,0.97,0.09V63.3C31.48,63.26,31.15,63.22,30.83,63.17z"/>
		<path style="clip-path:url(#SVGID_00000060741861533372994010000014589573210000236426_);fill:#CFD3C1;" d="M7.95,57.04
			c-0.34-0.13-0.73-0.29-1.14-0.46v2.22c0.43,0.15,0.82,0.29,1.23,0.44v-2.17C8.01,57.07,7.98,57.06,7.95,57.04z"/>
		<path style="clip-path:url(#SVGID_00000060741861533372994010000014589573210000236426_);fill:#CFD3C1;" d="M9.45,57.6v2.15
			c0.4,0.14,0.76,0.27,1.14,0.41v-2.14C10.19,57.87,9.81,57.74,9.45,57.6z"/>
		<path style="clip-path:url(#SVGID_00000060741861533372994010000014589573210000236426_);fill:#CFD3C1;" d="M15.08,59.52v2.21
			c0.39,0.13,0.77,0.26,1.14,0.39v-2.24C15.83,59.76,15.46,59.64,15.08,59.52z"/>
		<path style="clip-path:url(#SVGID_00000060741861533372994010000014589573210000236426_);fill:#CFD3C1;" d="M50.72,61.52v3.2
			c0.49-0.17,0.96-0.36,1.41-0.55v-3.2C51.68,61.16,51.2,61.35,50.72,61.52z"/>
		<path style="clip-path:url(#SVGID_00000060741861533372994010000014589573210000236426_);fill:#EAF5D8;" d="M49.67,61.88v3.17
			c0.36-0.11,0.72-0.21,1.06-0.33v-3.2C50.38,61.65,50.02,61.77,49.67,61.88z"/>
		<path style="clip-path:url(#SVGID_00000060741861533372994010000014589573210000236426_);fill:#CFD3C1;" d="M53.1,60.51v3.18
			c0.5-0.25,0.97-0.51,1.41-0.79v-3.14C54.06,60.03,53.59,60.28,53.1,60.51z"/>
		<path style="clip-path:url(#SVGID_00000060741861533372994010000014589573210000236426_);fill:#EAF5D8;" d="M52.13,60.97v3.2
			c0.34-0.15,0.65-0.31,0.97-0.47v-3.18C52.78,60.67,52.47,60.83,52.13,60.97z"/>
		<path style="clip-path:url(#SVGID_00000060741861533372994010000014589573210000236426_);fill:#EAF5D8;" d="M47.2,62.58v3.07
			c0.39-0.07,0.78-0.14,1.14-0.23v-3.13C47.97,62.39,47.59,62.49,47.2,62.58z"/>
		<path style="clip-path:url(#SVGID_00000060741861533372994010000014589573210000236426_);fill:#CFD3C1;" d="M31.8,63.3v2.45
			c0.38,0.03,0.75,0.07,1.14,0.09v-2.42C32.56,63.38,32.18,63.34,31.8,63.3z"/>
		<path style="clip-path:url(#SVGID_00000060741861533372994010000014589573210000236426_);fill:#EAF5D8;" d="M60.41,52.88
			c-0.23,1.03-0.7,1.99-1.32,2.89v3.11c0.79-1.01,1.14-1.73,1.14-1.73C61.11,55.66,60.41,52.88,60.41,52.88z"/>
		<path style="clip-path:url(#SVGID_00000060741861533372994010000014589573210000236426_);fill:#CFD3C1;" d="M45.79,62.89v2.98
			c0.48-0.06,0.95-0.14,1.41-0.22v-3.07C46.74,62.69,46.27,62.79,45.79,62.89z"/>
		<path style="clip-path:url(#SVGID_00000060741861533372994010000014589573210000236426_);fill:#CFD3C1;" d="M57.94,57.16v3.03
			c0.46-0.47,0.83-0.91,1.14-1.31v-3.11C58.75,56.25,58.37,56.71,57.94,57.16z"/>
		<path style="clip-path:url(#SVGID_00000060741861533372994010000014589573210000236426_);fill:#EAF5D8;" d="M56.8,58.2v3.04
			c0.42-0.36,0.81-0.72,1.14-1.06v-3.03C57.59,57.52,57.21,57.87,56.8,58.2z"/>
		<path style="clip-path:url(#SVGID_00000060741861533372994010000014589573210000236426_);fill:#EAF5D8;" d="M54.51,59.77v3.14
			c0.34-0.21,0.66-0.42,0.97-0.64v-3.1C55.17,59.38,54.84,59.58,54.51,59.77z"/>
		<path style="clip-path:url(#SVGID_00000060741861533372994010000014589573210000236426_);fill:#CFD3C1;" d="M55.48,59.17v3.1
			c0.48-0.34,0.92-0.68,1.32-1.02V58.2C56.38,58.54,55.94,58.86,55.48,59.17z"/>
		<path style="clip-path:url(#SVGID_00000060741861533372994010000014589573210000236426_);fill:#CFD3C1;" d="M48.35,62.29v3.13
			c0.46-0.11,0.89-0.24,1.32-0.37v-3.17C49.23,62.02,48.8,62.16,48.35,62.29z"/>
		<path style="clip-path:url(#SVGID_00000060741861533372994010000014589573210000236426_);fill:#EAF5D8;" d="M44.65,63.11V66
			c0.39-0.03,0.77-0.08,1.14-0.13v-2.98C45.41,62.96,45.04,63.04,44.65,63.11z"/>
		<path style="clip-path:url(#SVGID_00000060741861533372994010000014589573210000236426_);fill:#EAF5D8;" d="M37.7,63.67v2.37
			c0.41,0.01,0.8,0.02,1.23,0.03v-2.41C38.52,63.67,38.11,63.67,37.7,63.67z"/>
		<path style="clip-path:url(#SVGID_00000060741861533372994010000014589573210000236426_);fill:#CFD3C1;" d="M36.55,63.66
			c-0.03,0-0.06,0-0.09,0v2.35c0.39,0.01,0.82,0.02,1.23,0.03v-2.37C37.32,63.67,36.94,63.68,36.55,63.66z"/>
		<path style="clip-path:url(#SVGID_00000060741861533372994010000014589573210000236426_);fill:#EAF5D8;" d="M32.94,63.42v2.42
			c0.4,0.03,0.81,0.05,1.23,0.07v-2.38C33.77,63.5,33.36,63.46,32.94,63.42z"/>
		<path style="clip-path:url(#SVGID_00000060741861533372994010000014589573210000236426_);fill:#CFD3C1;" d="M34.18,63.53v2.38
			c0.37,0.02,0.76,0.04,1.14,0.05V63.6C34.94,63.58,34.56,63.56,34.18,63.53z"/>
		<path style="clip-path:url(#SVGID_00000060741861533372994010000014589573210000236426_);fill:#EAF5D8;" d="M35.32,63.6v2.36
			c0.38,0.02,0.75,0.03,1.14,0.04v-2.35C36.09,63.65,35.7,63.62,35.32,63.6z"/>
		<path style="clip-path:url(#SVGID_00000060741861533372994010000014589573210000236426_);fill:#EAF5D8;" d="M42.19,63.44v2.67
			c0.39,0,0.77-0.01,1.14-0.03V63.3C42.95,63.35,42.57,63.4,42.19,63.44z"/>
		<path style="clip-path:url(#SVGID_00000060741861533372994010000014589573210000236426_);fill:#CFD3C1;" d="M43.33,63.3v2.77
			c0.45-0.02,0.89-0.04,1.32-0.08v-2.89C44.22,63.18,43.77,63.24,43.33,63.3z"/>
		<path style="clip-path:url(#SVGID_00000060741861533372994010000014589573210000236426_);fill:#EAF5D8;" d="M39.99,63.61v2.48
			c0.35,0.01,0.69,0.01,1.06,0.02v-2.56C40.69,63.57,40.34,63.59,39.99,63.61z"/>
		<path style="clip-path:url(#SVGID_00000060741861533372994010000014589573210000236426_);fill:#CFD3C1;" d="M38.93,63.66v2.41
			c0.34,0.01,0.71,0.01,1.06,0.02v-2.48C39.63,63.63,39.28,63.65,38.93,63.66z"/>
		<path style="clip-path:url(#SVGID_00000060741861533372994010000014589573210000236426_);fill:#CFD3C1;" d="M41.04,63.55v2.56
			c0.18,0,0.34,0.01,0.53,0.01c0.21,0,0.41-0.01,0.62-0.02v-2.67C41.81,63.48,41.43,63.52,41.04,63.55z"/>
	</g>
</g>
</svg>
