<?xml version="1.0" encoding="utf-8"?>
<!-- Generator: Adobe Illustrator 26.0.1, SVG Export Plug-In . SVG Version: 6.00 Build 0)  -->
<svg version="1.1" id="Layer_1" xmlns="http://www.w3.org/2000/svg" xmlns:xlink="http://www.w3.org/1999/xlink" x="0px" y="0px"
	 viewBox="0 0 86.76 86.76" style="enable-background:new 0 0 86.76 86.76;" xml:space="preserve">
<style type="text/css">
	.st0{clip-path:url(#SVGID_00000029034969738006172220000011870861955953919421_);fill:#F58F8E;}
	.st1{clip-path:url(#SVGID_00000029034969738006172220000011870861955953919421_);fill:#F3C09D;}
	.st2{clip-path:url(#SVGID_00000029034969738006172220000011870861955953919421_);fill:#EEA382;}
	.st3{clip-path:url(#SVGID_00000029034969738006172220000011870861955953919421_);fill:#A98662;}
	.st4{clip-path:url(#SVGID_00000029034969738006172220000011870861955953919421_);fill:#7E5740;}
	.st5{clip-path:url(#SVGID_00000029034969738006172220000011870861955953919421_);fill:#BA7F68;}
	.st6{clip-path:url(#SVGID_00000029034969738006172220000011870861955953919421_);fill:#151716;}
	.st7{clip-path:url(#SVGID_00000029034969738006172220000011870861955953919421_);fill:#76400F;}
	.st8{clip-path:url(#SVGID_00000029034969738006172220000011870861955953919421_);fill:#8B5020;}
	
		.st9{clip-path:url(#SVGID_00000029034969738006172220000011870861955953919421_);fill:url(#SVGID_00000044140795024608591710000011302071966722048903_);}
</style>
<g>
	<g>
		<defs>
			<circle id="SVGID_1_" cx="43.38" cy="43.38" r="43.38"/>
		</defs>
		<clipPath id="SVGID_00000155857598872979728010000004085049097136621987_">
			<use xlink:href="#SVGID_1_"  style="overflow:visible;"/>
		</clipPath>
		
			<circle style="clip-path:url(#SVGID_00000155857598872979728010000004085049097136621987_);fill:#F58F8E;" cx="43.69" cy="43.61" r="53.72"/>
		<path style="clip-path:url(#SVGID_00000155857598872979728010000004085049097136621987_);fill:#F3C09D;" d="M-60,73.03
			c0,0,2.51,23.12,13.07,34.18s29.15,28.65,42.22,28.65s37.2-24.13,41.72-31.67c4.52-7.54,9.05-16.09,10.05-26.64
			c0,0,9.96,2.26,13.48-16.34c3.52-18.6-6.44-16.83-6.44-16.83L44.05,6.18c0,0-10.05-18.1-46.25-19.6s-52.28,16.09-56.3,37.2
			S-61.51,59.96-60,73.03z"/>
		<path style="clip-path:url(#SVGID_00000155857598872979728010000004085049097136621987_);fill:#EEA382;" d="M4.83,83.39
			c0,2.32-2.86,4.88-5.37,4.88s1.8-0.56,1.8-5.05c0-4.49-4.09-5.95-1.57-5.95S4.83,81.07,4.83,83.39z"/>
		<path style="clip-path:url(#SVGID_00000155857598872979728010000004085049097136621987_);fill:#A98662;" d="M-13.64,86.68
			c0,0,4.13,2.08,7.9,2.08s8.25-2.08,8.25-2.08s-1.47-1.02-3.39-1.02s-3.35,1.42-4.94,1.42c-1.35,0-2.55-1.27-4.33-1.42
			S-13.64,86.68-13.64,86.68z"/>
		<path style="clip-path:url(#SVGID_00000155857598872979728010000004085049097136621987_);fill:#7E5740;" d="M7.98,39.38
			c0.78-1.98,8.07-6.29,15.56-7.05c7.75-0.79,16.06,5.1,18.41,7.81c0,0-9.56-5.28-17.27-4.97c-4.25,0.17-8.77,2.39-11.02,3.67
			c-1.07,0.61-3.24,1.9-3.66,2.02C8.33,41.33,7.55,40.48,7.98,39.38z"/>
		<path style="clip-path:url(#SVGID_00000155857598872979728010000004085049097136621987_);fill:#EEA382;" d="M37.29,51.16
			c0,0-6-7.16-14.01-6.68c-7.05,0.42-12.76,6.67-13.22,13.38C10.06,57.86,28.14,62.71,37.29,51.16z"/>
		<path style="clip-path:url(#SVGID_00000155857598872979728010000004085049097136621987_);fill:#BA7F68;" d="M36.11,49.92
			c0,0-1.74-2.43-5.39-4.57c-2.16-1.27-5.12-1.56-5.87-1.56c-9.41,0.11-12.65,7.5-12.65,7.5s5.42-5.87,12.52-5.67
			C31.3,45.81,36.11,49.92,36.11,49.92z"/>
		<path style="clip-path:url(#SVGID_00000155857598872979728010000004085049097136621987_);fill:#151716;" d="M37.29,51.16
			l-0.38,0.48c-1.6,1.86-8.71,8.54-26.85,6.22c0,0,6.02,4.54,16.25,2.15c3.72-0.87,6.06-2.12,7.63-3.53
			c0.63-0.56,1.52-1.6,2.14-2.56c0.28-0.44,0.79-0.73,1.2-0.6c2.63,0.39,4.13-1.58,4.13-1.58C39.1,52.44,38.69,51.63,37.29,51.16z"
			/>
		<path style="clip-path:url(#SVGID_00000155857598872979728010000004085049097136621987_);fill:#76400F;" d="M-65.53,82.08
			c0,0,12.44-13.95,18.85-54.66S-12-12.55,1.57-2.75c0,0,19.33-6.55,36.95,19.53C52.8,37.92,49.09,64.92,49.09,64.92l4.85-14.93
			c0,0,5.65,3.17,4.97,13.02c-0.6,8.68-6.68,14.22-11.84,14.55c0,0-5.94,27.6-20.26,37.78c0,0,6.06,42.15,39.62,39.88
			c0,0,31.37-3.9,20.06-51.02c-7.54-28.27-12.63-50-19.04-80.16s-20.51-75.95-60.09-62c0,0-32.54-28.87-67.98,6.19
			c-19.23,19.6-24.13,42.22-28.65,53.53s-9.05,27.14-26.01,33.55S-65.53,82.08-65.53,82.08z"/>
		<path style="clip-path:url(#SVGID_00000155857598872979728010000004085049097136621987_);fill:#8B5020;" d="M15.72-7.81
			c0,0,25.88,4.1,30.99,29.19C46.71,21.38,44.35-12.96,15.72-7.81z"/>
		<path style="clip-path:url(#SVGID_00000155857598872979728010000004085049097136621987_);fill:#8B5020;" d="M29.33-15.15
			c0,0,17.88,4.8,23.34,28.95C52.68,13.8,54.06-18.23,29.33-15.15z"/>
		<path style="clip-path:url(#SVGID_00000155857598872979728010000004085049097136621987_);fill:#A98662;" d="M2.9,86.94
			c0,0,4.26-2.43,0.56-6.56C3.46,80.38,5.24,83.32,2.9,86.94z"/>
		<path style="clip-path:url(#SVGID_00000155857598872979728010000004085049097136621987_);fill:#A98662;" d="M-13.74,86.94
			c0,0-3.83-2.06-0.56-6.56C-14.31,80.38-16.47,83.46-13.74,86.94z"/>
		
			<linearGradient id="SVGID_00000132776953899177646430000008084527797198873760_" gradientUnits="userSpaceOnUse" x1="32.7294" y1="47.0001" x2="69.9063" y2="47.0001" gradientTransform="matrix(0.9998 0.0188 -0.0188 0.9998 0.9056 -17.2769)">
			<stop  offset="0.2814" style="stop-color:#FFFFFF"/>
			<stop  offset="0.376" style="stop-color:#EEEEEE"/>
			<stop  offset="0.5635" style="stop-color:#C1C1C1"/>
			<stop  offset="0.8062" style="stop-color:#808080"/>
		</linearGradient>
		
			<path style="clip-path:url(#SVGID_00000155857598872979728010000004085049097136621987_);fill:url(#SVGID_00000132776953899177646430000008084527797198873760_);" d="
			M32.57,41.83c0,0,3.53-5.89,4.44-6.94c0.91-1.06,27.36-19.03,29.29-20.28c1.92-1.25,2.63-1.97,3.6-1.13
			c0.97,0.84-0.45,2.28-1,3.05c-0.55,0.78-18.52,22.7-20.11,24.79c-1.59,2.09-2.03,2.38-2.99,3.04c-0.96,0.67-7.03,3.83-7.57,3.97
			c-0.54,0.14-1.58-1.33-1.38-1.67c0.2-0.34,6.28-3.42,6.28-3.42c1.63-0.98,3.13-2.5,3.88-3.54s14.05-16.71,14.58-17.64
			c0.53-0.93,0.76-1.68-0.01-1.43S40.84,34.29,39.55,35.55c-1.29,1.26-4.88,7.31-4.88,7.31s-0.28,0.35-0.79,0.01
			C33.36,42.54,32.3,42.26,32.57,41.83z"/>
	</g>
</g>
</svg>
