<?xml version="1.0" encoding="utf-8"?>
<!-- Generator: Adobe Illustrator 26.0.1, SVG Export Plug-In . SVG Version: 6.00 Build 0)  -->
<svg version="1.1" id="Layer_1" xmlns="http://www.w3.org/2000/svg" xmlns:xlink="http://www.w3.org/1999/xlink" x="0px" y="0px"
	 viewBox="0 0 86.76 86.76" style="enable-background:new 0 0 86.76 86.76;" xml:space="preserve">
<style type="text/css">
	.st0{clip-path:url(#SVGID_00000106108762336721062260000000975752019538309818_);fill:#DF6E63;}
	.st1{clip-path:url(#SVGID_00000106108762336721062260000000975752019538309818_);fill:#F58F8E;}
	.st2{clip-path:url(#SVGID_00000106108762336721062260000000975752019538309818_);fill:#6B9F99;}
	.st3{clip-path:url(#SVGID_00000106108762336721062260000000975752019538309818_);fill:#563827;}
	.st4{clip-path:url(#SVGID_00000106108762336721062260000000975752019538309818_);fill:#F3C09D;}
	.st5{clip-path:url(#SVGID_00000106108762336721062260000000975752019538309818_);fill:#F9CBAA;}
	.st6{clip-path:url(#SVGID_00000106108762336721062260000000975752019538309818_);fill:#A98662;}
	.st7{clip-path:url(#SVGID_00000106108762336721062260000000975752019538309818_);fill:#EEA382;}
	.st8{clip-path:url(#SVGID_00000106108762336721062260000000975752019538309818_);fill:#BA7F68;}
	.st9{clip-path:url(#SVGID_00000106108762336721062260000000975752019538309818_);fill:#151716;}
	.st10{clip-path:url(#SVGID_00000106108762336721062260000000975752019538309818_);fill:#FC9D94;}
	.st11{clip-path:url(#SVGID_00000106108762336721062260000000975752019538309818_);fill:#FFFFFF;}
	.st12{clip-path:url(#SVGID_00000106108762336721062260000000975752019538309818_);fill:#D3958B;}
	.st13{clip-path:url(#SVGID_00000106108762336721062260000000975752019538309818_);fill:#FFDBC2;}
	.st14{clip-path:url(#SVGID_00000106108762336721062260000000975752019538309818_);fill:#D58B76;}
</style>
<g>
	<g>
		<defs>
			<circle id="SVGID_1_" cx="43.38" cy="43.38" r="43.38"/>
		</defs>
		<clipPath id="SVGID_00000173149781911476222550000017531110218738091675_">
			<use xlink:href="#SVGID_1_"  style="overflow:visible;"/>
		</clipPath>
		
			<circle style="clip-path:url(#SVGID_00000173149781911476222550000017531110218738091675_);fill:#DF6E63;" cx="43.38" cy="43.38" r="43.38"/>
		
			<circle style="clip-path:url(#SVGID_00000173149781911476222550000017531110218738091675_);fill:#F58F8E;" cx="43.38" cy="43.38" r="43.38"/>
		
			<rect x="-11.66" y="54.27" style="clip-path:url(#SVGID_00000173149781911476222550000017531110218738091675_);fill:#6B9F99;" width="106.37" height="35.46"/>
		<path style="clip-path:url(#SVGID_00000173149781911476222550000017531110218738091675_);fill:#563827;" d="M-27.53,69.48
			c0,0-25-0.69-20.84-24.54c0,0,5.79-19.45,26.62-13.2c0,0,8.33-8.57,15.97-0.69c6.05,6.24-3.24,17.13-7.87,10.88"/>
		<path style="clip-path:url(#SVGID_00000173149781911476222550000017531110218738091675_);fill:#F3C09D;" d="M-11.21,43.89
			c0,0,7.99,3.36,14.93,1.04c2.94-0.98,9.67-5.03,14.41-7.64c6.48-3.56,14.35-5.14,23.44-4.34c12.59,1.11,32.99,7.81,45.49,6.42
			v30.56c0,0-49.08-0.23-60.66-0.69S12.4,59.17,12.4,59.17c-7.76-3.01-15.16,1.04-15.16,1.04L-11.21,43.89z"/>
		<path style="clip-path:url(#SVGID_00000173149781911476222550000017531110218738091675_);fill:#F9CBAA;" d="M-38,64.76
			c0,0,13.97,9.62,29.45,3.67c6.48-3.13,7.06-7.64,5.44-12.5c-1.79-5.36-4.16-9.03-8.68-13.08c0,0,3.13-4.63-3.59-6.02
			c-5.09-1.05-6.03,2.86-5.56,4.05c0,0-18.58,4.75-21.01,11.69C-41.95,52.58-44.55,58.65-38,64.76z"/>
		<path style="clip-path:url(#SVGID_00000173149781911476222550000017531110218738091675_);fill:#A98662;" d="M-33.65,60.84
			c0.15,1.53,0.59,4.7,1.84,5.59c0,0,0-6.16-1.27-6.63C-33.26,59.73-33.7,60.33-33.65,60.84z"/>
		<path style="clip-path:url(#SVGID_00000173149781911476222550000017531110218738091675_);fill:#A98662;" d="M-30.38,52.46
			c-1.22-1.02,4.29-6.99,5.87-6.67C-24.51,45.79-29.43,53.25-30.38,52.46z"/>
		<path style="clip-path:url(#SVGID_00000173149781911476222550000017531110218738091675_);fill:#A98662;" d="M-19.9,64.14
			c0,0,1.11-0.95,1.57-2.05c0.46-1.1,0.41-2.66,0.41-2.66s-0.48,0.3-0.71,0.86c-0.24,0.56,0,1.15-0.19,1.61
			c-0.17,0.39-0.68,0.59-0.94,1.09C-20.03,63.5-19.9,64.14-19.9,64.14z"/>
		<path style="clip-path:url(#SVGID_00000173149781911476222550000017531110218738091675_);fill:#EEA382;" d="M-19.65,46.85
			c0,0-2.84-0.1-4.07,1.82c-1.23,1.92-0.55,4.2,1.03,5.64C-22.69,54.31-18.37,51.21-19.65,46.85z"/>
		<path style="clip-path:url(#SVGID_00000173149781911476222550000017531110218738091675_);fill:#EEA382;" d="M-27.26,67.46
			c0,0-1.27-1.04-0.94-2.82c0.33-1.78,1.18-2.66,2.96-2.59C-25.24,62.04-24.74,67.82-27.26,67.46z"/>
		<path style="clip-path:url(#SVGID_00000173149781911476222550000017531110218738091675_);fill:#BA7F68;" d="M-27.09,67.6
			c0,0-0.6-0.47-1.08-1.38c-0.29-0.54-0.28-1.23-0.28-1.41c0.02-0.64,0.19-1.03,0.34-1.31c0.34-0.63,1.38-1.2,1.38-1.2
			s-1.43,0.84-1.54,2.52C-28.36,66.36-27.09,67.6-27.09,67.6z"/>
		<path style="clip-path:url(#SVGID_00000173149781911476222550000017531110218738091675_);fill:#BA7F68;" d="M-20.65,46.9
			c0,0-0.92,0.11-2.02,0.77c-0.65,0.39-1.13,1.15-1.25,1.35c-0.42,0.7-0.52,1.26-0.56,1.67c-0.09,0.92,0.54,2.24,0.54,2.24
			s-0.84-1.89,0.21-3.8C-22.76,47.38-20.65,46.9-20.65,46.9z"/>
		<path style="clip-path:url(#SVGID_00000173149781911476222550000017531110218738091675_);fill:#151716;" d="M-23.08,54.34
			c0,0,4.13-1.75,3.49-7.78C-19.58,46.56-17.04,53.38-23.08,54.34z"/>
		<path style="clip-path:url(#SVGID_00000173149781911476222550000017531110218738091675_);fill:#151716;" d="M-25.24,62.04
			c0,0,0.02,5.96-2.16,5.39c0,0,3.31,0.9,2.92-3.35C-24.55,63.37-24.67,62.64-25.24,62.04z"/>
		<path style="clip-path:url(#SVGID_00000173149781911476222550000017531110218738091675_);fill:#FC9D94;" d="M-15.16,66.08
			c0,0-0.9-3.15-0.41-3.36c0.49-0.21,1.47-0.63,1.12-0.77c-0.35-0.14-0.66-0.99-0.04-1.43s2.35-1.54,2.65-2.6
			C-11.85,57.91-11.43,63.42-15.16,66.08z"/>
		<path style="clip-path:url(#SVGID_00000173149781911476222550000017531110218738091675_);fill:#FC9D94;" d="M-15.16,66.08
			c0,0,4.04-1.92,3.31-8.17c0,0,2.49,3.42,1.11,5.85C-12.14,66.21-12.97,66-15.16,66.08z"/>
		<path style="clip-path:url(#SVGID_00000173149781911476222550000017531110218738091675_);fill:#BA7F68;" d="M-15.16,66.08
			c0,0,1.66-0.98,2.41-3.68c0.75-2.7,1.03-5.67,1.03-5.67s0.36,4.2-0.41,6.36C-12.91,65.25-13.71,65.68-15.16,66.08z"/>
		<path style="clip-path:url(#SVGID_00000173149781911476222550000017531110218738091675_);fill:#FFFFFF;" d="M41.57,32.95
			c0,0,6.2,7.63,2.29,23.11l14.04,1.16l29.41,0.71l-0.25-18.55C87.07,39.38,76.65,37.64,41.57,32.95z"/>
		<path style="clip-path:url(#SVGID_00000173149781911476222550000017531110218738091675_);fill:#D3958B;" d="M61.16,57.3
			c-20.3,0.04-29.2-3.26-29.2-3.26s8.09,1.64,14.77,2.28S61.16,57.3,61.16,57.3z"/>
		<path style="clip-path:url(#SVGID_00000173149781911476222550000017531110218738091675_);fill:#FFDBC2;" d="M84.64-10.5
			c0,0-12.26,23.3-16.12,28.35c-6.26,8.19-13.23,11.84-13.73,12.22c-0.91,0.68-2.35,1.37-3.26,4.48c-0.91,3.11-1.52,4.86-2.58,6.37
			c-1.06,1.52-0.53,1.67-0.15,1.75c0.38,0.08,1.82,0,3.04-1.82s1.9-3.04,2.43-3.79s1.41,3.18,1.56,4.55s0.26,4.48,0.49,6.08
			c0.23,1.59,0.56,4.63,2.12,4.7c1.59,0.08,1.37-4.4,1.37-4.7c0,0,0.18,2.5,0.73,4.53c0.39,1.42,0.96,2.6,1.77,2.53
			c0.77-0.07,1.2-1.25,1.44-2.49c0.27-1.41,0.3-2.89,0.3-2.89s0.3,3.57,2.05,3.34s1.44-3.87,1.44-3.87s1.44,2.35,2.15-1.57
			c0.56-3.11,0.38-5.39,0.91-7.13c0.53-1.75,0.99-4.83,1.06-5.51c0.08-0.68,0.27-3.11-1.02-5.16c-0.86-1.37,30.01-38.87,32.06-39.93
			H84.64z"/>
		<path style="clip-path:url(#SVGID_00000173149781911476222550000017531110218738091675_);fill:#D58B76;" d="M55.35,39.59
			c0,0-0.59-2.92,0.11-6.07c0.15-0.65-0.87,0.99-1.44,3.15c-0.22,0.84-0.71,1.91-0.99,2.28c0,0,1.22-2.02,1.4-2.05
			C54.73,36.85,55.35,39.59,55.35,39.59z"/>
		<path style="clip-path:url(#SVGID_00000173149781911476222550000017531110218738091675_);fill:#D58B76;" d="M59.76,47.77
			c0,0-0.24-6.02-0.65-10.77c0,0,0.65,1.78,0.78,4.16c0.05,0.91,0.03,5.18-0.06,6.17C59.74,48.54,59.76,47.77,59.76,47.77z"/>
		<path style="clip-path:url(#SVGID_00000173149781911476222550000017531110218738091675_);fill:#D58B76;" d="M64.05,49.53
			c0,0-0.35-9.33-0.35-11.88c0-0.61,0.22,0.25,0.32,1.47S64.58,46.42,64.05,49.53z"/>
		<path style="clip-path:url(#SVGID_00000173149781911476222550000017531110218738091675_);fill:#D58B76;" d="M67.53,48.81
			c0,0-0.48-7.44,0.03-9.76c0.51-2.33,0.92-2.68,1.21-3.44c0.25-0.66-0.81,2.63-0.81,5.16S67.53,48.81,67.53,48.81z"/>
		<path style="clip-path:url(#SVGID_00000173149781911476222550000017531110218738091675_);fill:#FFDBC2;" d="M50.76-6.1
			c0,0-10.73,21.23-17.91,30.44c-1.92,1.92-2.12,2.63-4.76,3.84s-5.82,2.83-6.42,4.05c0,0-6.02,5.41-6.83,6.42
			c-0.81,1.01,0.2,1.47,0.2,1.47l-3.01,3.48c-0.4,0.61-0.8,1.21-0.13,1.78c0,0,0.91,0.51,2.23-1.11c0,0-3.78,2.83-2.87,4.25
			c1.11,1.72,4.28-0.81,4.28-0.81c0.91,3.54,10.62-5.16,13.66-7.69c3.04-2.53,7.69-4.15,7.69-4.15c-0.4,1.32-4.35,6.88-2.93,7.59
			c1.42,0.71,6.58-5.67,7.28-7.28c0.71-1.62,1.21-5.16,1.21-7.28s1.35-5.56,3.34-7.59c5.16-5.26,22.5-27.4,22.5-27.4H50.76z"/>
		<path style="clip-path:url(#SVGID_00000173149781911476222550000017531110218738091675_);fill:#D58B76;" d="M15.55,47.7
			c0,0,10.72-8.5,13.86-13.05C29.41,34.65,22.42,40.52,15.55,47.7z"/>
		<path style="clip-path:url(#SVGID_00000173149781911476222550000017531110218738091675_);fill:#D58B76;" d="M13.29,45.02
			c0,0,6.23-7.47,10.58-10.91C23.87,34.11,16.52,42.19,13.29,45.02z"/>
		<path style="clip-path:url(#SVGID_00000173149781911476222550000017531110218738091675_);fill:#D58B76;" d="M15.04,40.12
			c0,0,6.02-6.37,6.78-8.09C21.82,32.02,19.69,36.88,15.04,40.12z"/>
		<path style="clip-path:url(#SVGID_00000173149781911476222550000017531110218738091675_);fill:#D58B76;" d="M36.89,35.87
			c0,0,1.21-1.92,1.42-3.44c0,0-3.46,4.13-5.18,5.04L36.89,35.87z"/>
	</g>
</g>
</svg>
