<?xml version="1.0" encoding="utf-8"?>
<!-- Generator: Adobe Illustrator 26.0.1, SVG Export Plug-In . SVG Version: 6.00 Build 0)  -->
<svg version="1.1" id="Layer_1" xmlns="http://www.w3.org/2000/svg" xmlns:xlink="http://www.w3.org/1999/xlink" x="0px" y="0px"
	 viewBox="0 0 86.76 86.76" style="enable-background:new 0 0 86.76 86.76;" xml:space="preserve">
<style type="text/css">
	.st0{fill:#ADADAD;}
	.st1{fill:#C7C7C7;}
	.st2{fill:#B6B6B6;}
	.st3{fill:#FFFFFF;}
	.st4{fill:#E4E4E4;}
	.st5{fill:#CBCBCB;}
	.st6{fill:#DCDCDC;}
	.st7{fill:#A8A8A8;}
	.st8{fill:#8D8D8D;}
	.st9{fill:#B9B9B9;}
	.st10{fill:#C3C3C3;}
	.st11{fill:#8E8E8E;}
	.st12{fill:#161616;}
</style>
<g>
	<path class="st0" d="M43.38,0C19.42,0,0,19.42,0,43.38C0,59.3,8.58,73.22,21.37,80.77c3.06-0.52,11.48-1.55,11.48-1.55
		c6.07-5.35,5.56-11.53,4.86-14.43c-0.92-0.67-1.77-1.48-2.56-2.4c-1.8-1.52-8.24-7.19-11.13-12.6c-2.45-4.59-2.51-13.3-2.18-15.59
		s1.09-11.77,9.48-21.69c0,0-0.44-3.27,5.78-6.1c0.09-0.04,0.17-0.08,0.25-0.13c0.09-0.05,0.2-0.1,0.31-0.16
		c0.67-0.36,1.21-0.73,1.7-0.87c0.06-0.03,0.11-0.05,0.14-0.06c0.29-0.11,1.09,0.2,2.18,0.51c0.57,0.14,1.17,0.28,1.68,0.33
		c0.3,0.02,0.64,0.02,1.03,0C44.48,6,44.59,6,44.7,5.99c0.02,0,0.03,0,0.05,0s0.04,0,0.07,0c0.06,0,0.12-0.01,0.18-0.01
		c3.37-0.24,5.64,0.91,5.64,0.91c-0.01,0-0.01,0-0.02,0c0.34,0.14,0.68,0.29,1.03,0.48c3.76,1.96,9.89,8.67,12.26,18.97
		c0.18,0.8,0.34,1.56,0.48,2.3v0.01c0,0,0,0,0-0.01c1.65,8.73,0.22,13.11-1.14,17.48c-1.47,4.74-3.35,7.19-4.91,8.91
		c-1.49,1.64-4.99,5.97-6.72,7.56c-0.81,0.95-1.69,1.79-2.64,2.48c-0.16,0.74-0.3,1.66-0.33,2.7c0.17,3.42,1.01,5.74,1.7,7.09
		c0.27,0.49,0.57,0.98,0.92,1.46l0,0l0,0c0.7,0.98,1.56,1.95,2.64,2.9c0,0,8.41,1.04,11.48,1.55c12.79-7.55,21.37-21.46,21.37-37.39
		C86.76,19.42,67.34,0,43.38,0z"/>
	<path class="st1" d="M48.66,67.75c0.03-1.04,0.17-1.96,0.33-2.7c-0.11,0.08-0.23,0.16-0.34,0.24
		C48.61,66.17,48.62,66.99,48.66,67.75z"/>
	<path class="st1" d="M50.35,74.85c0.49,0.96,0.89,1.43,0.92,1.46C50.93,75.82,50.62,75.33,50.35,74.85z"/>
	<path class="st1" d="M51.28,76.31c-5.54-4.49-7.26-8.32-7.67-9.44c-0.1,0-0.2,0-0.3,0c-2.11-0.13-3.97-0.89-5.6-2.09
		c0.7,2.9,1.21,9.09-4.86,14.43c0,0-8.41,1.04-11.48,1.55c6.45,3.81,13.98,5.99,22.01,5.99s15.56-2.19,22.01-5.99
		c-3.06-0.52-11.48-1.55-11.48-1.55C52.84,78.26,51.97,77.29,51.28,76.31z"/>
	<path class="st2" d="M51.28,76.31L51.28,76.31L51.28,76.31z"/>
	<path class="st2" d="M50.35,74.85c-0.68-1.35-1.52-3.67-1.7-7.09C48.6,69.79,48.95,72.29,50.35,74.85z"/>
	<path class="st2" d="M48.65,65.3c-1.51,1.02-3.19,1.62-5.04,1.58c0.41,1.12,2.13,4.95,7.67,9.44l0,0c-0.03-0.03-0.43-0.5-0.92-1.46
		c-1.4-2.56-1.76-5.06-1.7-7.09C48.62,66.99,48.61,66.17,48.65,65.3z"/>
	<path class="st3" d="M35.24,27.29c6.94-3.88,7.17-5.26,7.15-5.47c-1.32-0.91-2.63-1.89-3.86-2.84c-0.29-0.03-1.95-0.19-3.19,0.5
		c-1.36,0.76-3.49,1.74-7.3,7.19c0,0,2.4-5.01,7.36-8.12c0.43-0.18,0.94-0.63,0.85-1.39c-0.52-0.42-1-0.82-1.45-1.2
		c-1.99-1.56-2.78-2.4-2.78-2.4s1.09,0.98,2.78,2.4c2.33,1.82,6.32,4.63,12.67,8.23c3.84,2.18,6.34,4.23,7.98,6
		c2.32,2.08,2.64,3.62,3.3,5.61c1.55,5.89,0.33,10.3-1.06,15.04c-0.82,2.79-2.88,8-6.06,11.73c1.73-1.59,5.23-5.92,6.72-7.56
		c1.55-1.72,3.43-4.17,4.91-8.91c1.36-4.37,2.78-8.75,1.14-17.48C59.15,16.71,48.01,8.91,44.45,7.35C39.49,5.18,37.1,6.4,37.1,6.4
		c-6.21,2.83-5.78,6.1-5.78,6.1c-8.39,9.92-9.16,19.4-9.48,21.69c-0.33,2.29-0.27,11,2.18,15.59c2.89,5.41,9.34,11.08,11.13,12.6
		c-2.94-3.42-4.98-8.3-6.39-12.85C26.3,41.61,27.64,31.54,35.24,27.29z"/>
	<path class="st3" d="M44.81,5.98c0.06-0.01,0.12-0.01,0.18-0.01C44.93,5.97,44.87,5.98,44.81,5.98z"/>
	<path class="st3" d="M44.39,6.01C44.49,6,44.59,6,44.7,5.99C44.59,6,44.48,6,44.39,6.01z"/>
	<path class="st3" d="M49.83,26.32c-1-0.62-2.06-1.23-3.17-1.84C47.65,25.04,48.72,25.65,49.83,26.32z"/>
	<path class="st3" d="M44.56,23.24c-0.61-0.38-1.22-0.78-1.83-1.2C43.23,22.41,43.85,22.81,44.56,23.24z"/>
	<path class="st3" d="M37.66,6.11c0.57-0.29,1.35-0.71,1.7-0.87C38.87,5.38,38.33,5.75,37.66,6.11z"/>
	<path class="st3" d="M37.1,6.4c0.06-0.03,0.15-0.07,0.25-0.13C37.27,6.31,37.18,6.36,37.1,6.4z"/>
	<path class="st3" d="M43.35,6.02c-0.51-0.05-1.11-0.18-1.68-0.33c0.01,0,0.02,0.01,0.03,0.01C41.99,5.77,42.45,5.96,43.35,6.02z"/>
	<path class="st3" d="M45.4,6.72c14.71,8.81,18.9,21.61,19,21.89c-0.14-0.73-0.3-1.5-0.48-2.3c-2.37-10.3-8.5-17.01-12.26-18.97
		C51.31,7.16,50.97,7,50.63,6.86C46.85,6.24,45.4,6.72,45.4,6.72z"/>
	<path class="st4" d="M34.81,15.96c-1.69-1.41-2.78-2.4-2.78-2.4S32.81,14.4,34.81,15.96z"/>
	<path class="st4" d="M47.48,24.19c-6.35-3.6-10.34-6.41-12.67-8.23c0.44,0.37,0.93,0.77,1.45,1.2c0-0.01,0-0.02,0-0.03l2.34,1.86
		c0,0-0.02,0-0.05-0.01c1.22,0.95,2.54,1.92,3.86,2.84c0-0.02,0-0.03,0-0.03c0.1,0.08,0.22,0.17,0.34,0.26
		c0.61,0.42,1.23,0.82,1.83,1.2c0.64,0.39,1.34,0.8,2.1,1.23c1.11,0.61,2.17,1.22,3.17,1.84c0.53,0.31,1.06,0.64,1.61,0.97
		c1.79,1.1,3.07,2.05,4.02,2.9C53.82,28.42,51.32,26.37,47.48,24.19z"/>
	<path class="st4" d="M37.35,6.27c0.11-0.05,0.21-0.11,0.31-0.16C37.55,6.17,37.44,6.22,37.35,6.27z"/>
	<path class="st4" d="M44.39,6.01c-0.4,0.02-0.74,0.02-1.03,0c0.16,0.02,0.31,0.03,0.45,0.03C43.95,6.04,44.15,6.03,44.39,6.01z"/>
	<path class="st4" d="M50.62,6.87c0.01,0,0.01,0,0.02,0c0,0-2.27-1.14-5.64-0.91C46.29,5.89,48.28,5.9,50.62,6.87z"/>
	<path class="st4" d="M40.04,5.22c0.38,0.11,0.99,0.3,1.64,0.46c-1.09-0.3-1.89-0.62-2.18-0.51c-0.03,0.01-0.08,0.03-0.14,0.06
		C39.59,5.18,39.82,5.16,40.04,5.22z"/>
	<polygon class="st4" points="64.4,28.63 64.39,28.61 64.39,28.62 	"/>
	<path class="st4" d="M44.75,5.98c-0.02,0-0.03,0-0.05,0c0.04,0,0.08-0.01,0.12-0.01C44.79,5.98,44.77,5.98,44.75,5.98z"/>
	<path class="st4" d="M44.45,7.35c3.56,1.56,14.7,9.36,19.94,21.27c0,0,0,0,0-0.01c-0.09-0.28-4.28-13.08-19-21.89
		c0,0,1.45-0.48,5.22,0.15C48.28,5.9,46.29,5.89,45,5.97c-0.06,0-0.12,0.01-0.18,0.01c-0.04,0-0.08,0.01-0.12,0.01
		C44.59,6,44.49,6.01,44.39,6.01c-0.23,0.02-0.43,0.03-0.59,0.03c-0.14,0-0.29-0.01-0.45-0.03c-0.9-0.05-1.36-0.25-1.65-0.32
		c-0.01,0-0.02-0.01-0.03-0.01c-0.65-0.16-1.26-0.35-1.64-0.46c-0.22-0.07-0.45-0.05-0.68,0.02C39,5.4,38.22,5.81,37.65,6.11
		c-0.1,0.05-0.21,0.11-0.31,0.16c-0.1,0.05-0.19,0.1-0.25,0.13C37.1,6.4,39.49,5.18,44.45,7.35z"/>
	<path class="st4" d="M35.41,18.55c-4.96,3.11-7.36,8.12-7.36,8.12c3.82-5.45,5.94-6.43,7.3-7.19c1.24-0.7,2.9-0.53,3.19-0.5
		c-0.81-0.63-1.58-1.24-2.29-1.82C36.35,17.92,35.84,18.38,35.41,18.55z"/>
	<path class="st4" d="M36.25,17.13c0,0.01,0,0.02,0,0.03c0.71,0.58,1.48,1.19,2.29,1.82c0.03,0,0.05,0.01,0.05,0.01L36.25,17.13z"/>
	<path class="st5" d="M36.11,62.78h-0.49c0,0-0.18-0.14-0.48-0.4c0.79,0.91,1.64,1.72,2.56,2.4c-0.05-0.22-0.11-0.42-0.16-0.61
		C37.04,63.75,36.56,63.28,36.11,62.78z"/>
	<path class="st5" d="M50.86,62.78c-0.53,0.59-1.1,1.14-1.71,1.63c-0.05,0.2-0.11,0.41-0.16,0.65c0.95-0.69,1.83-1.54,2.64-2.48
		c-0.08,0.07-0.16,0.15-0.23,0.21L50.86,62.78L50.86,62.78z"/>
	<path class="st5" d="M43.61,66.87c-0.08-0.22-0.11-0.33-0.11-0.33c-2.3,0-4.28-0.95-5.96-2.37c0.05,0.18,0.11,0.38,0.16,0.61
		c1.64,1.2,3.5,1.96,5.6,2.09C43.41,66.87,43.51,66.87,43.61,66.87z"/>
	<path class="st5" d="M48.28,65.04c0.24,0.14,0.37,0.25,0.37,0.25l0,0c0.12-0.08,0.23-0.16,0.34-0.24c0.05-0.24,0.1-0.45,0.16-0.65
		C48.87,64.63,48.58,64.85,48.28,65.04z"/>
	<path class="st5" d="M48.65,65.3L48.65,65.3c0,0-0.14-0.11-0.37-0.25c-1.4,0.92-2.99,1.5-4.78,1.5c0,0,0.03,0.12,0.11,0.33
		C45.46,66.91,47.14,66.31,48.65,65.3z"/>
	<path class="st5" d="M29.17,42.91c0,0,0.08,0.13,0.27,0.32C29.34,43.13,29.25,43.03,29.17,42.91z"/>
	<path class="st5" d="M33.03,40.85c-0.08,0.01-0.16,0.02-0.25,0.04C32.87,40.87,32.95,40.86,33.03,40.85z"/>
	<path class="st5" d="M57.81,42.91c-0.09,0.11-0.18,0.22-0.27,0.32C57.72,43.04,57.81,42.91,57.81,42.91z"/>
	<path class="st5" d="M54.19,40.89c-0.08-0.02-0.16-0.03-0.25-0.04C54.02,40.86,54.11,40.87,54.19,40.89z"/>
	<path class="st5" d="M36.11,62.78c-2.81-3.1-4.6-7.32-5.56-9.51c-1.63-3.72-0.05-6.27,2.34-6.65c2.4-0.38,5.01,0.54,6,0.44
		c0.98-0.11,3.43-0.82,2.2-4.8c-0.33-1.08-1.06-1.98-1.95-2.73c-0.01,0.28-0.25,0.45-0.67,0.3c-0.13-0.05-0.79-0.52-1.12-0.75
		c-0.69-0.48-1.74-1.06-3.06-1.17c-2.41-0.19-4.85,1.1-4.85,1.1c0.71-0.87,2.91-2.18,4.64-2.09c-0.47-0.15-0.77-0.22-0.77-0.22
		s-3.53-0.16-3.09-3.38s7.56-8.23,13.27-8.23c5.72,0,12.84,5.01,13.27,8.23c0.44,3.22-3.09,3.38-3.09,3.38s-0.3,0.07-0.78,0.22
		c1.74-0.1,3.96,1.22,4.68,2.09c0,0-2.44-1.3-4.85-1.1c-1.33,0.11-2.37,0.69-3.06,1.17c-0.33,0.23-0.99,0.71-1.12,0.75
		c-0.43,0.15-0.68-0.03-0.67-0.32c-0.9,0.75-1.64,1.66-1.97,2.75c-1.23,3.98,1.22,4.69,2.2,4.8s3.6-0.82,6-0.44s3.86,2.96,2.23,6.67
		c-0.96,2.19-2.71,6.4-5.48,9.49h0.55c0.07-0.06,0.15-0.14,0.23-0.21c3.19-3.73,5.25-8.94,6.06-11.73
		c1.39-4.74,2.62-9.16,1.06-15.04c-0.66-1.99-0.98-3.53-3.3-5.61c3.18,3.42,3.09,5.75,3.09,5.75c-0.73-3.67-4.09-6.75-8.72-9.63
		c-1.12-0.66-2.19-1.27-3.17-1.84c-0.05-0.03-0.09-0.05-0.14-0.08c-0.64-0.35-1.29-0.74-1.96-1.15c-0.71-0.43-1.33-0.83-1.83-1.2
		c-0.11-0.08-0.22-0.15-0.33-0.23c0.01,0.21-0.21,1.59-7.15,5.47c-7.6,4.25-8.94,14.32-6.49,22.25c1.41,4.55,3.45,9.42,6.39,12.85
		c0.3,0.26,0.48,0.4,0.48,0.4S36.11,62.78,36.11,62.78z M57.81,42.91c0,0-0.62,2.32-3.84,3.15c-3.66,0.94-5.89-0.53-5.89-0.53
		c0.04-1.11,0.44-2.17,1.17-3.01c-0.05,0.05-0.07,0.08-0.07,0.08s0.98-1.29,1.99-1.69c0.45-0.18,1.08-0.37,2.06-0.35
		c0.27,0.01,1.34,0.05,2.14,0.46c1.35,0.68,2,1.49,2,1.49s-1.28-1.24-3.13-1.61C56.33,41.34,57.81,42.91,57.81,42.91z M32.73,40.9
		c-1.85,0.36-3.13,1.61-3.13,1.61s0.66-0.8,2-1.49c0.8-0.4,1.86-0.45,2.14-0.46c0.98-0.02,1.61,0.17,2.06,0.35
		c1.01,0.4,1.99,1.69,1.99,1.69s-0.02-0.03-0.07-0.08c0.73,0.84,1.13,1.91,1.17,3.01c0,0-2.23,1.47-5.89,0.53
		c-3.22-0.83-3.84-3.15-3.84-3.15S30.64,41.34,32.73,40.9z"/>
	<path class="st5" d="M42.4,21.81c0.11,0.08,0.22,0.15,0.33,0.23c-0.12-0.09-0.23-0.17-0.34-0.26C42.39,21.78,42.4,21.79,42.4,21.81
		z"/>
	<path class="st5" d="M49.83,26.32c4.63,2.88,7.99,5.96,8.72,9.63c0,0,0.09-2.33-3.09-5.75c-0.95-0.85-2.24-1.8-4.02-2.9
		C50.9,26.95,50.36,26.63,49.83,26.32z"/>
	<path class="st5" d="M46.52,24.4c0.05,0.03,0.09,0.05,0.14,0.08c-0.76-0.44-1.47-0.85-2.1-1.23C45.23,23.66,45.89,24.05,46.52,24.4
		z"/>
	<path class="st6" d="M49.58,63.11c0,0-0.21,0.48-0.43,1.3c0.61-0.49,1.18-1.03,1.71-1.63H36.11c0.45,0.5,0.93,0.97,1.43,1.39
		c-0.2-0.68-0.37-1.07-0.37-1.07L49.58,63.11L49.58,63.11z"/>
	<path class="st6" d="M48.28,65.04c0.3-0.2,0.59-0.41,0.87-0.64c0.22-0.82,0.43-1.3,0.43-1.3h-12.4c0,0,0.17,0.39,0.37,1.07
		c1.68,1.42,3.65,2.37,5.96,2.37C45.41,63.81,47.46,64.57,48.28,65.04z"/>
	<path class="st6" d="M43.5,66.54c1.79,0,3.38-0.58,4.78-1.5C47.46,64.57,45.41,63.81,43.5,66.54z"/>
	<path class="st6" d="M56.34,53.29c1.63-3.72,0.16-6.29-2.23-6.67c-2.4-0.38-5.01,0.54-6,0.44c-0.98-0.11-3.43-0.82-2.2-4.8
		c0.34-1.09,1.08-2,1.97-2.75c0-0.06,0.01-0.12,0.03-0.18c0.22-0.71,2.84-2.06,4.69-2.37c0.1-0.02,0.21-0.03,0.31-0.03
		c0.48-0.15,0.78-0.22,0.78-0.22s3.53-0.16,3.09-3.38s-7.56-8.23-13.27-8.23c-5.72,0-12.84,5.01-13.27,8.23
		c-0.44,3.22,3.09,3.38,3.09,3.38s0.29,0.07,0.77,0.22c0.12,0.01,0.24,0.02,0.35,0.04c1.85,0.32,4.47,1.66,4.69,2.37
		c0.02,0.07,0.03,0.14,0.03,0.2c0.88,0.74,1.61,1.65,1.95,2.73c1.23,3.98-1.22,4.69-2.2,4.8s-3.6-0.82-6-0.44s-3.97,2.93-2.34,6.65
		c0.96,2.19,2.75,6.42,5.56,9.51h14.74C53.63,59.69,55.38,55.49,56.34,53.29z M41.94,52.49c0.61,0.05,1.01,0.48,1.47,0.48
		c0.54,0,1.03-0.48,1.68-0.48s1.16,0.35,1.16,0.35s-1.53,0.71-2.81,0.71s-2.69-0.71-2.69-0.71S41.33,52.43,41.94,52.49z M43.7,61.83
		h-0.4c0.07,0,0.13-0.01,0.2-0.01c-4.18-0.13-5.48-4.22-5.48-4.22s1.97-2.45,3.88-2.45c1.22,0,1.59,0.63,1.59,0.63
		s0.38-0.63,1.59-0.63c1.91,0,3.88,2.45,3.88,2.45s-1.3,4.09-5.48,4.22C43.57,61.82,43.63,61.83,43.7,61.83z"/>
	<path class="st7" d="M48.98,57.6c0,0-1.97-2.45-3.88-2.45c-1.22,0-1.59,0.63-1.59,0.63s-0.38-0.63-1.59-0.63
		c-1.91,0-3.88,2.45-3.88,2.45s1.3,4.09,5.48,4.22C47.68,61.68,48.98,57.6,48.98,57.6z M43.69,61.45h-0.38
		c0.07,0,0.13-0.01,0.19-0.01c-3.93-0.12-5.15-3.84-5.15-3.84s1.85-1.93,3.65-1.93c1.14,0,1.5,0.55,1.5,0.55s0.36-0.55,1.5-0.55
		c1.8,0,3.65,1.93,3.65,1.93s-1.22,3.72-5.15,3.84C43.57,61.44,43.63,61.45,43.69,61.45z"/>
	<path class="st7" d="M43.7,61.83c-0.07,0-0.13-0.01-0.2-0.01s-0.13,0.01-0.2,0.01H43.7z"/>
	<path class="st2" d="M38.89,45.53c-0.04-1.11-0.44-2.17-1.17-3.01c-0.32-0.35-1.71-1.7-3.97-1.72c-0.25,0-0.48,0.02-0.72,0.05
		c-0.08,0.01-0.16,0.02-0.25,0.04c-0.02,0-0.04,0.01-0.05,0.01c-2.09,0.44-3.57,2.01-3.57,2.01c0.09,0.11,0.18,0.22,0.27,0.32
		C30.21,44.04,32.78,46.06,38.89,45.53z"/>
	<path class="st8" d="M48.55,39.83c0.13-0.05,0.79-0.52,1.12-0.75c0.69-0.48,1.74-1.06,3.06-1.17c2.41-0.19,4.85,1.1,4.85,1.1
		c-0.72-0.87-2.94-2.19-4.68-2.09c-1.15,0.36-3.36,1.19-5.03,2.58C47.87,39.8,48.12,39.98,48.55,39.83z"/>
	<path class="st8" d="M47.9,39.33c-0.02,0.06-0.03,0.12-0.03,0.18c1.67-1.4,3.88-2.22,5.03-2.58c-0.11,0.01-0.21,0.02-0.31,0.03
		C50.75,37.27,48.12,38.62,47.9,39.33z"/>
	<path class="st8" d="M29.44,39.01c0,0,2.44-1.3,4.85-1.1c1.33,0.11,2.37,0.69,3.06,1.17c0.33,0.23,0.99,0.71,1.12,0.75
		c0.42,0.15,0.66-0.02,0.67-0.3c-1.68-1.41-3.91-2.25-5.07-2.61C32.35,36.84,30.16,38.15,29.44,39.01z"/>
	<path class="st8" d="M39.13,39.33c-0.22-0.71-2.84-2.06-4.69-2.37c-0.11-0.02-0.23-0.03-0.35-0.04c1.16,0.36,3.39,1.2,5.07,2.61
		C39.16,39.47,39.15,39.4,39.13,39.33z"/>
	<path class="st8" d="M46.25,52.83c0,0-0.5-0.35-1.16-0.35c-0.65,0-1.14,0.48-1.68,0.48c-0.46,0-0.87-0.43-1.47-0.48
		c-0.61-0.05-1.19,0.35-1.19,0.35s1.41,0.71,2.69,0.71S46.25,52.83,46.25,52.83z"/>
	<path class="st9" d="M48.65,57.6c0,0-1.85-1.93-3.65-1.93c-1.14,0-1.5,0.55-1.5,0.55s-0.36-0.55-1.5-0.55
		c-1.8,0-3.65,1.93-3.65,1.93s1.22,3.72,5.15,3.84C47.43,61.31,48.65,57.6,48.65,57.6z M43.5,60.53L43.5,60.53L43.5,60.53
		L43.5,60.53c-1.67,0-2.59-0.68-2.37-1.05c0.18-0.3,0.55-0.35,0.86-0.15c0.53,0.32,1.51,0.29,1.51,0.29s0.98,0.03,1.51-0.29
		c0.31-0.2,0.68-0.15,0.86,0.15C46.09,59.85,45.1,60.53,43.5,60.53z M43.5,59.09c-1.23,0-2.94-1.08-2.94-1.08
		c2.12,0.28,2.94,0.28,2.94,0.28s0.82,0,2.94-0.28C46.44,58.01,44.73,59.09,43.5,59.09z"/>
	<path class="st9" d="M43.69,61.45c-0.07,0-0.13-0.01-0.19-0.01c-0.07,0-0.12,0.01-0.19,0.01H43.69z"/>
	<path class="st8" d="M40.56,58.01c0,0,1.72,1.08,2.94,1.08c1.23,0,2.94-1.08,2.94-1.08c-2.12,0.28-2.94,0.28-2.94,0.28
		S42.68,58.29,40.56,58.01z"/>
	<path class="st10" d="M45.01,59.33c-0.53,0.32-1.51,0.29-1.51,0.29s-0.98,0.03-1.51-0.29c-0.31-0.2-0.68-0.15-0.86,0.15
		c-0.22,0.37,0.7,1.05,2.37,1.05c1.6,0,2.59-0.68,2.37-1.05C45.69,59.18,45.32,59.13,45.01,59.33z"/>
	<path class="st11" d="M33.03,40.85c0.41-0.06,0.83-0.09,1.27-0.04c1.49,0.16,2.64,0.8,3.42,1.7c0.05,0.05,0.07,0.08,0.07,0.08
		s-0.98-1.29-1.99-1.69c-0.45-0.18-1.08-0.37-2.06-0.35c-0.27,0.01-1.34,0.05-2.14,0.46c-1.35,0.68-2,1.49-2,1.49
		s1.28-1.24,3.13-1.61c0.02,0,0.04-0.01,0.05-0.01C32.87,40.87,32.95,40.86,33.03,40.85z"/>
	<path class="st11" d="M34.3,40.81c-0.44-0.05-0.86-0.02-1.27,0.04c0.23-0.03,0.47-0.05,0.72-0.05c2.27,0.01,3.65,1.37,3.97,1.72
		C36.94,41.61,35.79,40.97,34.3,40.81z"/>
	<path class="st11" d="M32.73,40.9c0.02,0,0.04-0.01,0.05-0.01C32.77,40.89,32.75,40.9,32.73,40.9z"/>
	<path class="st12" d="M33.01,46.06c3.66,0.94,5.89-0.53,5.89-0.53s-6.22,1.35-9.46-2.29c-0.19-0.2-0.27-0.32-0.27-0.32
		S29.78,45.23,33.01,46.06z"/>
	<path class="st12" d="M29.44,43.24c3.24,3.65,9.46,2.29,9.46,2.29C32.78,46.06,30.21,44.04,29.44,43.24z"/>
	<path class="st2" d="M54.19,40.89c-0.08-0.02-0.16-0.03-0.25-0.04c-0.23-0.03-0.47-0.05-0.72-0.05c-2.27,0.01-3.65,1.37-3.97,1.72
		c-0.73,0.84-1.13,1.91-1.17,3.01c6.12,0.53,8.69-1.49,9.46-2.29c0.09-0.1,0.18-0.21,0.27-0.32c0,0-1.48-1.57-3.57-2.01
		C54.22,40.9,54.2,40.89,54.19,40.89z"/>
	<path class="st11" d="M52.67,40.81c0.44-0.05,0.86-0.02,1.27,0.04c0.08,0.01,0.16,0.02,0.25,0.04c0.02,0,0.04,0.01,0.05,0.01
		c1.85,0.36,3.13,1.61,3.13,1.61s-0.66-0.8-2-1.49c-0.8-0.4-1.86-0.45-2.14-0.46c-0.98-0.02-1.61,0.17-2.06,0.35
		c-1.01,0.4-1.99,1.69-1.99,1.69s0.02-0.03,0.07-0.08C50.03,41.61,51.18,40.97,52.67,40.81z"/>
	<path class="st11" d="M54.24,40.9c-0.02,0-0.04-0.01-0.05-0.01C54.2,40.89,54.22,40.9,54.24,40.9z"/>
	<path class="st11" d="M53.23,40.8c0.25,0,0.48,0.02,0.72,0.05c-0.41-0.06-0.83-0.09-1.27-0.04c-1.49,0.16-2.64,0.8-3.42,1.7
		C49.57,42.17,50.96,40.81,53.23,40.8z"/>
	<path class="st12" d="M48.08,45.53c0,0,2.23,1.47,5.89,0.53c3.22-0.83,3.84-3.15,3.84-3.15s-0.08,0.13-0.27,0.32
		C54.3,46.88,48.08,45.53,48.08,45.53z"/>
	<path class="st12" d="M57.54,43.24c-0.77,0.81-3.34,2.82-9.46,2.29C48.08,45.53,54.3,46.88,57.54,43.24z"/>
</g>
</svg>
