<?xml version="1.0" encoding="utf-8"?>
<!-- Generator: Adobe Illustrator 26.0.1, SVG Export Plug-In . SVG Version: 6.00 Build 0)  -->
<svg version="1.1" id="Layer_1" xmlns="http://www.w3.org/2000/svg" xmlns:xlink="http://www.w3.org/1999/xlink" x="0px" y="0px"
	 viewBox="0 0 86.76 86.76" style="enable-background:new 0 0 86.76 86.76;" xml:space="preserve">
<style type="text/css">
	.st0{fill:#ADADAD;}
	.st1{clip-path:url(#SVGID_00000006685947166471060760000007200695775635639425_);}
	.st2{fill:#C1C1C1;}
	.st3{fill:#AFAFAF;}
	.st4{fill:#FFFFFF;}
	.st5{fill:#E3E3E3;}
	.st6{fill:#CECECE;}
	.st7{fill:#898989;}
	.st8{fill:#BABABA;}
	.st9{fill:#8B8B8B;}
	.st10{fill:#151515;}
	.st11{fill:#4C4C4C;}
	.st12{fill:#3B3B3B;}
	.st13{fill:#585858;}
	.st14{fill:#4D4D4D;}
	.st15{fill:#808080;}
	.st16{clip-path:url(#SVGID_00000123436886211126549280000009932357325736462236_);}
	.st17{opacity:0.5;fill:url(#SVGID_00000026880994087961624690000018057670405936340412_);enable-background:new    ;}
	.st18{fill:#6C6C6C;}
	.st19{fill:#C9C9C9;}
</style>
<g>
	<g>
		<circle class="st0" cx="43.38" cy="43.38" r="43.38"/>
		<g>
			<g>
				<defs>
					<circle id="SVGID_1_" cx="43.38" cy="43.38" r="43.38"/>
				</defs>
				<clipPath id="SVGID_00000054259683077375810210000003395170647508616849_">
					<use xlink:href="#SVGID_1_"  style="overflow:visible;"/>
				</clipPath>
				<g style="clip-path:url(#SVGID_00000054259683077375810210000003395170647508616849_);">
					<g>
						<path class="st2" d="M70.81,94.34c0,0,1.09-5.56,0.03-9.16c-1.06-3.6-2.86-3.84-4.58-4.25s-12.35-1.72-12.35-1.72
							c-8.25-7.28-4.33-16.11-4.33-16.11h-12.4c0,0,3.92,8.83-4.33,16.11c0,0-10.63,1.31-12.35,1.72s-3.52,0.65-4.58,4.25
							s0.03,9.16,0.03,9.16l5.79,2.04H65.3L70.81,94.34z"/>
						<path class="st3" d="M43.5,66.54c0,0,1.17,4.42,7.78,9.77c0,0-2.95-3.32-2.63-11.02C48.65,65.3,45.96,63.03,43.5,66.54z"/>
						<path class="st4" d="M35.62,62.78c0,0-8.23-6.68-11.61-13c-2.45-4.59-2.51-13.3-2.18-15.59s1.09-11.77,9.48-21.69
							c0,0-0.44-3.27,5.78-6.1c1.31-0.6,2.13-1.42,2.94-1.17s2.7,0.82,3.76,0.82c1.06,0,4.09-0.65,7.85,1.31s9.89,8.67,12.26,18.97
							s0.82,15.04-0.65,19.78s-3.35,7.19-4.91,8.91c-1.55,1.72-5.31,6.38-6.95,7.77H35.62V62.78z"/>
						<path class="st5" d="M32.03,13.56c0,0,8.2,7.4,14.5,10.83s11.14,7.05,12.03,11.55c0,0,0.21-5.35-11.08-11.75
							C35.7,17.51,32.03,13.56,32.03,13.56z"/>
						<path class="st5" d="M37.1,6.4c0,0,2.4-1.22,7.36,0.95c3.56,1.56,14.7,9.36,19.94,21.28c0,0-4.12-12.99-19-21.9
							c0,0,1.46-0.48,5.24,0.15c0,0-2.38-1.21-5.89-0.89c-1.87,0.17-2.64-0.18-3.04-0.29c-1.11-0.3-1.92-0.63-2.21-0.51
							C39.2,5.29,37.52,6.2,37.1,6.4z"/>
						<path class="st5" d="M28.05,26.67c0,0,2.4-5.01,7.36-8.12c0.44-0.18,0.96-0.64,0.85-1.42l2.34,1.86c0,0-1.87-0.27-3.24,0.49
							S31.86,21.22,28.05,26.67z"/>
						<path class="st6" d="M42.39,21.78c0,0,0.45,1.25-7.15,5.5S26.3,41.6,28.75,49.53s6.83,16.86,14.55,17.33
							c8.01,0.49,13-11.28,14.39-16.02s2.62-9.16,1.06-15.04c-0.93-2.81-1.18-4.71-7.32-8.51C47.61,24.92,44.1,23.16,42.39,21.78z"
							/>
						<path class="st3" d="M43.7,61.83c-4.35,0-5.68-4.23-5.68-4.23s1.97-2.45,3.88-2.45c1.22,0,1.59,0.63,1.59,0.63
							s0.38-0.63,1.59-0.63c1.91,0,3.88,2.45,3.88,2.45s-1.33,4.23-5.68,4.23H43.7z"/>
						<path class="st3" d="M29.17,42.91c0,0,2.26-2.41,5.14-2.1c2.88,0.3,4.51,2.43,4.59,4.72C38.89,45.53,32.31,46.96,29.17,42.91z
							"/>
						<path class="st7" d="M47.9,39.33c0.22-0.71,2.84-2.06,4.69-2.37c1.77-0.3,4.23,1.13,4.99,2.06c0,0-2.44-1.3-4.85-1.1
							c-1.33,0.11-2.37,0.69-3.06,1.17c-0.33,0.23-0.99,0.71-1.12,0.75C48.03,40.01,47.78,39.72,47.9,39.33z"/>
						<path class="st7" d="M39.13,39.33c-0.22-0.71-2.84-2.06-4.69-2.37c-1.77-0.3-4.23,1.13-4.99,2.06c0,0,2.44-1.3,4.85-1.1
							c1.33,0.11,2.37,0.69,3.06,1.17c0.33,0.23,0.99,0.71,1.12,0.75C39,40.01,39.25,39.72,39.13,39.33z"/>
						<path class="st7" d="M40.75,52.83c0,0,1.41,0.71,2.69,0.71c1.29,0,2.81-0.71,2.81-0.71s-0.5-0.35-1.16-0.35
							c-0.65,0-1.14,0.48-1.68,0.48c-0.46,0-0.87-0.43-1.47-0.48S40.75,52.83,40.75,52.83z"/>
						<path class="st3" d="M43.69,61.45c-4.09,0-5.34-3.85-5.34-3.85s1.85-1.93,3.65-1.93c1.14,0,1.5,0.55,1.5,0.55
							s0.36-0.55,1.5-0.55c1.8,0,3.65,1.93,3.65,1.93s-1.25,3.85-5.34,3.85H43.69z"/>
						<path class="st7" d="M43.5,58.29c0,0-0.82,0-2.94-0.28c0,0,1.72,1.08,2.94,1.08c1.23,0,2.94-1.08,2.94-1.08
							C44.32,58.29,43.5,58.29,43.5,58.29z"/>
						<path class="st8" d="M43.5,60.53c1.6,0,2.59-0.68,2.37-1.05c-0.18-0.3-0.55-0.35-0.86-0.15c-0.53,0.32-1.51,0.29-1.51,0.29
							s-0.98,0.03-1.51-0.29c-0.31-0.2-0.68-0.15-0.86,0.15C40.91,59.85,41.83,60.53,43.5,60.53L43.5,60.53z"/>
						<path class="st9" d="M29.61,42.51c0,0,0.66-0.8,2-1.49c0.8-0.4,1.86-0.45,2.14-0.46c0.98-0.02,1.61,0.17,2.06,0.35
							c1.01,0.4,1.99,1.69,1.99,1.69s-1.45-1.78-4.05-1.8C31.37,40.79,29.61,42.51,29.61,42.51z"/>
						<path class="st10" d="M29.17,42.91c0,0,2.13,3.27,9.73,2.62c0,0-2.23,1.47-5.89,0.53C29.78,45.23,29.17,42.91,29.17,42.91z"/>
						<path class="st3" d="M57.81,42.91c0,0-2.26-2.41-5.14-2.1c-2.88,0.3-4.51,2.43-4.59,4.72C48.08,45.53,54.66,46.96,57.81,42.91
							z"/>
						<path class="st9" d="M57.37,42.51c0,0-0.66-0.8-2-1.49c-0.8-0.4-1.86-0.45-2.14-0.46c-0.98-0.02-1.61,0.17-2.06,0.35
							c-1.01,0.4-1.99,1.69-1.99,1.69s1.45-1.78,4.05-1.8C55.6,40.79,57.37,42.51,57.37,42.51z"/>
						<path class="st10" d="M57.81,42.91c0,0-2.13,3.27-9.73,2.62c0,0,2.23,1.47,5.89,0.53C57.19,45.23,57.81,42.91,57.81,42.91z"/>
						<path class="st7" d="M21.74,91.37c-0.46-0.65-0.54-2.73-0.54-2.73s0.64,2.71,2.16,3.51C23.36,92.15,22.08,91.85,21.74,91.37z"
							/>
						<path class="st7" d="M64.71,93.96c0.46-0.65,0.74-3.36,0.74-3.36s-0.64,2.71-2.16,3.51C63.28,94.11,64.37,94.44,64.71,93.96z"
							/>
						<path class="st4" d="M21.74,96.38c0,0-1.08-1.74-0.99-2.94s0.81-3.49,4.75-3.92s7.54-1.58,11.38,0.49c0,0,5.2-1.2,13,0
							c0,0,8.43,0.49,11.38,1.36c2.96,0.87,3.5,2.4,4.03,2.62c0.54,0.22,0.36,1.74,0,2.4H21.74V96.38z"/>
						<path class="st5" d="M36.89,90c0,0-3.75,2.03-10,2.33C26.88,92.34,34.08,92.79,36.89,90z"/>
						<path class="st5" d="M39.87,93.51c0,0,11.84-3.67,24.08,2.05C63.95,95.56,53.84,91.3,39.87,93.51z"/>
						<path class="st5" d="M21.74,96.38c0,0,11.84-3.95,24.08-1.14C45.82,95.25,35.71,93.26,21.74,96.38z"/>
					</g>
					<circle class="st11" cx="51.92" cy="52.77" r="0.73"/>
					<g>
						<g>
							<g>
								<ellipse class="st12" cx="34.88" cy="43.61" rx="6.43" ry="3.49"/>
								<ellipse class="st13" cx="34.88" cy="43.61" rx="5.44" ry="2.56"/>
								<g>
									<path class="st14" d="M34.88,41.74c-0.07,0-0.13,0.01-0.2,0.01l-2.26,3.36c0.18,0.07,0.37,0.12,0.57,0.17l2.25-3.53
										C35.12,41.75,35,41.74,34.88,41.74z"/>
									<path class="st14" d="M30.87,43.63c0,0.52,0.44,0.99,1.16,1.33l2.03-3.18C32.24,41.96,30.87,42.72,30.87,43.63z"/>
									<path class="st14" d="M38.02,42.47l-2,2.96c1.65-0.23,2.87-0.95,2.87-1.8C38.89,43.19,38.55,42.79,38.02,42.47z"/>
									<path class="st15" d="M35.24,41.76l-2.25,3.53c0.57,0.14,1.21,0.23,1.9,0.23c0.4,0,0.78-0.04,1.14-0.09l2-2.96
										C37.35,42.07,36.37,41.8,35.24,41.76z"/>
									<path class="st15" d="M34.06,41.78l-2.03,3.18c0.12,0.06,0.25,0.1,0.38,0.15l2.26-3.36
										C34.47,41.75,34.26,41.76,34.06,41.78z"/>
								</g>
								<polygon class="st12" points="29.2,44.94 27.08,44.96 27.08,42.32 29.2,42.29 								"/>
							</g>
							<g>
								<ellipse class="st12" cx="52.12" cy="43.61" rx="6.43" ry="3.49"/>
								<ellipse class="st13" cx="52.12" cy="43.61" rx="5.44" ry="2.56"/>
								<g>
									<path class="st14" d="M52.12,41.74c-0.07,0-0.13,0.01-0.2,0.01l-2.26,3.36c0.18,0.07,0.37,0.12,0.57,0.17l2.25-3.53
										C52.36,41.75,52.24,41.74,52.12,41.74z"/>
									<path class="st14" d="M48.11,43.63c0,0.52,0.44,0.99,1.16,1.33l2.03-3.18C49.48,41.96,48.11,42.72,48.11,43.63z"/>
									<path class="st14" d="M55.26,42.47l-2,2.96c1.65-0.23,2.87-0.95,2.87-1.8C56.13,43.19,55.79,42.79,55.26,42.47z"/>
									<path class="st15" d="M52.48,41.76l-2.25,3.53c0.57,0.14,1.21,0.23,1.9,0.23c0.4,0,0.78-0.04,1.14-0.09l2-2.96
										C54.59,42.07,53.61,41.8,52.48,41.76z"/>
									<path class="st15" d="M51.3,41.78l-2.03,3.18c0.12,0.06,0.25,0.1,0.38,0.15l2.26-3.36C51.71,41.75,51.5,41.76,51.3,41.78z"
										/>
								</g>
								<polygon class="st12" points="57.8,44.94 59.92,44.96 59.92,42.32 57.8,42.29 								"/>
							</g>
						</g>
						<path class="st12" d="M45.44,44.27c-0.23-0.44-0.83-1.3-1.94-1.3s-1.7,0.85-1.94,1.3h-1.1v0.79h1.63l0.1-0.26
							c0-0.01,0.4-1.04,1.32-1.04c0.91,0,1.3,1,1.32,1.04l0.1,0.26h1.62v-0.79H45.44z"/>
					</g>
				</g>
			</g>
		</g>
		<g>
			<g>
				<defs>
					<circle id="SVGID_00000049193574218673985350000008683729339677302683_" cx="43.38" cy="43.38" r="43.38"/>
				</defs>
				<clipPath id="SVGID_00000026147031005290896210000010729281338111304117_">
					<use xlink:href="#SVGID_00000049193574218673985350000008683729339677302683_"  style="overflow:visible;"/>
				</clipPath>
				<g style="clip-path:url(#SVGID_00000026147031005290896210000010729281338111304117_);">
					
						<linearGradient id="SVGID_00000066488285666394995090000014675198955766278530_" gradientUnits="userSpaceOnUse" x1="54.4201" y1="32.4316" x2="60.5802" y2="43.1011" gradientTransform="matrix(1 0 0 -1 0 88)">
						<stop  offset="3.105836e-07" style="stop-color:#FFFFFF;stop-opacity:0"/>
						<stop  offset="9.577760e-03" style="stop-color:#FCFCFC;stop-opacity:9.577453e-03"/>
						<stop  offset="0.1032" style="stop-color:#E3E3E3;stop-opacity:0.1032"/>
						<stop  offset="0.2043" style="stop-color:#CDCDCD;stop-opacity:0.2043"/>
						<stop  offset="0.3129" style="stop-color:#BCBCBC;stop-opacity:0.3129"/>
						<stop  offset="0.4318" style="stop-color:#AEAEAE;stop-opacity:0.4318"/>
						<stop  offset="0.5662" style="stop-color:#A5A5A5;stop-opacity:0.5662"/>
						<stop  offset="0.7291" style="stop-color:#9F9F9F;stop-opacity:0.7291"/>
						<stop  offset="1" style="stop-color:#9D9D9D"/>
					</linearGradient>
					
						<path style="opacity:0.5;fill:url(#SVGID_00000066488285666394995090000014675198955766278530_);enable-background:new    ;" d="
						M51.48,53.75c-0.29,0-0.57-0.16-0.7-0.45c-0.18-0.38,0-0.84,0.38-1.01l12.05-5.5c0.38-0.18,0.84-0.01,1.01,0.38
						s0,0.84-0.38,1.01l-12.05,5.5C51.7,53.73,51.59,53.75,51.48,53.75z"/>
					<path class="st13" d="M54.78,50.04c-0.05,0-0.11-0.02-0.14-0.07c-0.05-0.07-0.03-0.18,0.05-0.24l4.57-3.16
						c0.07-0.06,0.18-0.04,0.24,0.05c0.05,0.07,0.03,0.18-0.05,0.24l-4.57,3.16C54.85,50.03,54.82,50.04,54.78,50.04z"/>
					<path class="st13" d="M55.96,52.59c-0.08,0-0.15-0.05-0.17-0.13c-0.02-0.09,0.04-0.18,0.13-0.2l5.73-1.28
						c0.09-0.04,0.18,0.04,0.2,0.13s-0.04,0.18-0.13,0.2L56,52.59C55.99,52.59,55.98,52.59,55.96,52.59z"/>
					<g>
						<path class="st5" d="M86.86,29.04c-0.39-0.5-0.76-0.89-1.09-1.22c-0.21,0.08-0.43,0.19-0.71,0.35
							c-1.83,1.05-6.91,5.62-10.67,7.71c-3.76,2.08-8.08,4.83-10.26,6.12c-2.15,1.28-3.79,2.53-3.99,3.22
							c0.09,0.57,0.2,1.16,0.37,1.7c0.49,1.58,1.54,3.8,2.13,5.01c0.23,0.26,0.83,0.61,2.35,0.2c2.21-0.59,6.58-1.81,11.1-4.27
							c4.53-2.46,6.21-7.15,7.12-9.3c0.91-2.16,1.97-4.16,3.72-5.45c1.63-1.21,1.51-1.76,1.51-1.76s0.01-0.01,0.02-0.01
							C88.24,30.93,87.79,30.24,86.86,29.04z"/>
						<path class="st18" d="M88.94,30.42c0,0,0.58-0.44-0.36-1.77c-1.06-1.48-1.48-0.75-1.48-0.75s-0.17-0.56-1.34-0.09
							c0.34,0.33,0.7,0.72,1.09,1.22c0.94,1.19,1.39,1.89,1.61,2.29C88.52,31.31,89.24,31.08,88.94,30.42z"/>
						<path class="st18" d="M60.14,45.21c0,0.01-0.02,0.02-0.02,0.03c0,0-2.33,1.32-2.12,2.16s1.53,4.24,1.53,4.24
							s0.46,0.71,2.97,0.07c0,0,0.04,0.1,0.14,0.21c-0.59-1.21-1.64-3.43-2.13-5.01C60.35,46.37,60.23,45.78,60.14,45.21z"/>
					</g>
					<path class="st19" d="M67.41,51.72c-0.08,0-0.15-0.03-0.22-0.09c-0.09-0.08-2.22-2.09-0.9-3.82c0.9-1.18,3.37-2.59,5.99-4.08
						c0.85-0.48,1.69-0.96,2.46-1.43c3.13-1.88,5.94-4.75,6.36-6.07c0.34-1.06-1.34-2.88-2.02-3.5c-0.13-0.12-0.14-0.32-0.02-0.45
						c0.12-0.12,0.32-0.14,0.45-0.02c0.28,0.25,2.73,2.53,2.2,4.17c-0.52,1.6-3.62,4.6-6.64,6.42c-0.78,0.47-1.62,0.95-2.48,1.43
						c-2.45,1.4-4.98,2.84-5.8,3.92c-0.97,1.26,0.81,2.95,0.83,2.96c0.13,0.12,0.14,0.32,0.02,0.45
						C67.58,51.69,67.5,51.72,67.41,51.72z"/>
				</g>
			</g>
		</g>
	</g>
</g>
</svg>
