<?xml version="1.0" encoding="utf-8"?>
<!-- Generator: Adobe Illustrator 26.0.1, SVG Export Plug-In . SVG Version: 6.00 Build 0)  -->
<svg version="1.1" id="Layer_1" xmlns="http://www.w3.org/2000/svg" xmlns:xlink="http://www.w3.org/1999/xlink" x="0px" y="0px"
	 viewBox="0 0 86.76 86.76" style="enable-background:new 0 0 86.76 86.76;" xml:space="preserve">
<style type="text/css">
	.st0{fill:#A6A6A6;}
	.st1{fill:#C6C6C6;}
	.st2{fill:#4C4C4C;}
	.st3{fill:#5B5B5B;}
	.st4{fill:#282828;}
	.st5{fill:#FFFFFF;}
	.st6{fill:#1B1B1B;}
	.st7{fill:#151515;}
	.st8{opacity:0.8;fill:#FFFFFF;enable-background:new    ;}
</style>
<g>
	<path class="st0" d="M77.74,69.86c5.65-7.33,9.02-16.51,9.02-26.48c0-17.11-9.91-31.91-24.31-38.97
		c2.08,6.77,3.69,13.52,4.99,19.63C71.07,41.11,74.27,55.47,77.74,69.86z"/>
	<path class="st1" d="M58.91,63c0.69-9.85-4.97-13.02-4.97-13.02l-4.85,14.93c0,0,1.09-7.91-0.18-18.51l-1.14,0.24l-0.56,2.6
		l-0.56-2.6l-2.6-0.56l2.6-0.56l0.56-2.6l0.56,2.6l1.06,0.23c-1.13-8.87-3.91-19.51-10.31-28.98c-4.06-6.01-8.2-10.28-12.18-13.3
		C10.85,10.1,0,25.47,0,43.38c0,23.96,19.42,43.38,43.38,43.38c0.36,0,0.72,0,1.08-0.01c1.78-5.35,2.61-9.19,2.61-9.19
		C52.23,77.22,58.3,71.68,58.91,63z M31.15,71.63c-9.09,2.5-14.71-1.01-17.34-3.42c-4.47-4.09-4.09-9.92-2.82-8.77
		c1.52,1.38,8.7,6.62,16.34,4.55c7.36-2,9.69-6.46,11.93-5.67C41.5,59.11,40.25,69.13,31.15,71.63z M32.67,58.53
		c0.38-0.31,0.7-0.64,0.96-0.98c-2.27,1.55-5.49,3.05-9.63,3.21c-8.64,0.35-12.92-4.4-13.52-6.65c-0.03,0.04-0.04,0.06-0.04,0.06
		s0.01-0.04,0.03-0.12c-0.01-0.04-0.02-0.08-0.03-0.12c0,0,0.04-0.08,0.12-0.23c0.51-1.66,2.91-7.26,12.11-7.83
		c10.81-0.67,14.89,4.97,14.89,4.97c2.35,0.25,2.96-1.34,2.96-1.34C39.81,53.93,32.67,58.53,32.67,58.53z M30.84,36.06
		c-4.1-0.26-15.69,4.97-19.91,6.94c-0.92,0.43-2.01,0.17-2.64-0.62l0,0c-0.87-1.09-0.52-2.7,0.73-3.32
		c5.57-2.78,16.24-7.55,21.71-7.1c6.42,0.53,12.42,9.36,12.42,9.36S35.89,36.38,30.84,36.06z"/>
	<path class="st2" d="M44.05,6.18l7.93,30.12l2.65-0.57l1.09-5.08l1.09,5.08l5.08,1.09l-5.08,1.09l-1.09,5.08l-1.09-5.08l-2.35-0.51
		l1.83,6.97c0,0,9.96-1.77,6.44,16.83S47.07,77.54,47.07,77.54c-0.31,3.23-0.95,6.28-1.82,9.16c13.22-0.56,24.91-7.04,32.49-16.86
		c-3.47-14.38-6.67-28.75-10.3-45.82c-1.3-6.11-2.91-12.86-4.99-19.63C58.9,2.67,55.08,1.4,51.07,0.68
		c1.88,6.77,1.6,13.12,1.6,13.12c-1.24-5.48-3.12-9.96-5.28-13.61C46.07,0.07,44.73,0,43.38,0c-1.49,0-2.95,0.08-4.4,0.22
		c0.14,0.18,0.27,0.35,0.41,0.53C42.75,3.83,44.05,6.18,44.05,6.18z"/>
	<path class="st2" d="M38.52,16.78c6.4,9.47,9.18,20.12,10.31,28.98l1.54,0.33l-1.46,0.31c1.27,10.6,0.18,18.51,0.18,18.51
		l4.85-14.93c0,0,5.65,3.17,4.97,13.02c-0.6,8.68-6.68,14.22-11.84,14.55c0,0,9.96,2.26,13.48-16.34
		c3.52-18.6-6.44-16.83-6.44-16.83l-1.83-6.97l-2.72-0.58l2.43-0.52L44.05,6.18c0,0-1.3-2.35-4.66-5.42
		c6.5,8.74,7.33,20.62,7.33,20.62c-1.94-9.55-6.89-16.05-12.28-20.45c-2.81,0.59-5.51,1.45-8.09,2.55
		C30.32,6.5,34.46,10.77,38.52,16.78z"/>
	<path class="st2" d="M47.07,77.55c0,0-0.83,3.84-2.61,9.19c0.27-0.01,0.53-0.02,0.79-0.03C46.12,83.83,46.76,80.79,47.07,77.55z"/>
	<path class="st3" d="M38.98,0.22c-0.06,0.01-0.11,0.01-0.17,0.02c0.2,0.17,0.39,0.35,0.58,0.52C39.25,0.58,39.12,0.4,38.98,0.22z"
		/>
	<path class="st3" d="M46.71,21.38c0,0-0.82-11.89-7.33-20.62C39.19,0.59,39,0.42,38.8,0.24c-1.48,0.16-2.94,0.39-4.38,0.69
		C39.82,5.33,44.77,11.83,46.71,21.38z"/>
	<path class="st3" d="M51.07,0.68c-1.21-0.22-2.44-0.38-3.68-0.49c2.16,3.66,4.04,8.13,5.28,13.61C52.68,13.8,52.95,7.45,51.07,0.68
		z"/>
	<path class="st4" d="M30.73,31.96c-5.47-0.45-16.14,4.32-21.71,7.1c-1.25,0.62-1.59,2.23-0.73,3.32l0,0
		c0.63,0.79,1.72,1.05,2.64,0.62c4.22-1.97,15.81-7.2,19.91-6.94c5.05,0.32,12.31,5.26,12.31,5.26S37.15,32.48,30.73,31.96z"/>
	<path class="st5" d="M28.01,48.99c1,1.2,1.6,2.73,1.6,4.4c0,3.85-3.2,6.98-7.14,6.98s-7.14-3.12-7.14-6.98c0-0.02,0-0.04,0-0.07
		c-0.75-0.27-1.23-0.69-1.23-1.15c0-0.56,0.69-1.04,1.71-1.3c0.16-0.41,0.36-0.8,0.59-1.16c-3.75,1.56-5.64,4-5.93,4.4
		c0.6,2.25,4.88,7,13.52,6.65c4.14-0.17,7.36-1.66,9.63-3.21C36.08,54.44,33.65,50.46,28.01,48.99z"/>
	<path class="st5" d="M10.44,53.93c0.01,0.04,0.02,0.08,0.03,0.12c0.02-0.08,0.05-0.19,0.1-0.34
		C10.48,53.85,10.44,53.93,10.44,53.93z"/>
	<path class="st4" d="M16.41,49.71c-0.23,0.37-0.43,0.76-0.59,1.16c0.49-0.12,1.05-0.19,1.66-0.19c0.98,0,1.86,0.19,2.48,0.48
		c0.68-0.57,1.56-0.91,2.52-0.91c2.14,0,3.87,1.7,3.87,3.79s-1.73,3.79-3.87,3.79s-3.87-1.7-3.87-3.79c0-0.16,0.01-0.32,0.03-0.47
		c-0.36,0.06-0.75,0.09-1.16,0.09c-0.81,0-1.56-0.13-2.14-0.34c0,0.02,0,0.04,0,0.07c0,3.85,3.2,6.98,7.14,6.98s7.14-3.12,7.14-6.98
		c0-1.67-0.6-3.2-1.6-4.4c-1.25-0.33-2.66-0.53-4.21-0.58C20.81,48.34,18.36,48.91,16.41,49.71z"/>
	<path class="st6" d="M20.84,52.17c0,0.64-0.92,1.19-2.21,1.4c-0.02,0.15-0.03,0.31-0.03,0.47c0,2.09,1.73,3.79,3.87,3.79
		s3.87-1.7,3.87-3.79s-1.73-3.79-3.87-3.79c-0.96,0-1.84,0.35-2.52,0.91C20.5,51.43,20.84,51.79,20.84,52.17z"/>
	<path class="st5" d="M14.11,52.17c0,0.46,0.48,0.88,1.23,1.15c0.01-0.86,0.18-1.68,0.48-2.45C14.8,51.13,14.11,51.62,14.11,52.17z"
		/>
	<path class="st5" d="M18.63,53.57c0.12-0.96,0.61-1.8,1.32-2.4c-0.62-0.3-1.5-0.48-2.48-0.48c-0.6,0-1.17,0.07-1.66,0.19
		c-0.3,0.76-0.47,1.58-0.48,2.45c0.58,0.21,1.33,0.34,2.14,0.34C17.88,53.66,18.27,53.63,18.63,53.57z"/>
	<path class="st5" d="M18.63,53.57c1.29-0.21,2.21-0.75,2.21-1.4c0-0.39-0.34-0.74-0.89-1C19.24,51.77,18.75,52.61,18.63,53.57z"/>
	<path class="st7" d="M10.44,54.17c0,0,0.02-0.02,0.04-0.06c-0.01-0.02-0.01-0.04-0.01-0.06C10.45,54.12,10.44,54.17,10.44,54.17z"
		/>
	<path class="st7" d="M37.56,50.84c0,0-4.08-5.63-14.89-4.97c-9.19,0.57-11.59,6.17-12.11,7.83c0.48-0.85,2.48-3.9,6.98-5.36
		c1.28-1.2,3.01-1.93,4.92-1.93c1.66,0,3.19,0.56,4.4,1.49c7.9,1.34,10.69,6.03,10.69,6.03s-1.34,1.84-3.93,3.62
		c-0.26,0.34-0.58,0.66-0.96,0.98c0,0,7.14-4.6,7.85-9.02C40.52,49.5,39.91,51.09,37.56,50.84z"/>
	<path class="st7" d="M16.41,49.71c0.32-0.5,0.7-0.96,1.13-1.37c-4.5,1.46-6.5,4.51-6.98,5.36c-0.05,0.15-0.08,0.26-0.1,0.34
		c0.01,0.02,0.01,0.04,0.01,0.06C10.77,53.71,12.66,51.27,16.41,49.71z"/>
	<path class="st7" d="M37.56,53.93c0,0-2.78-4.69-10.69-6.03c0.42,0.32,0.8,0.68,1.14,1.09c5.63,1.47,8.07,5.44,5.62,8.56
		C36.23,55.78,37.56,53.93,37.56,53.93z"/>
	<path class="st7" d="M23.9,47.58c1.06,0.05,2.05,0.17,2.97,0.32c-1.21-0.93-2.74-1.49-4.4-1.49c-1.91,0-3.64,0.74-4.92,1.93
		C19.28,47.78,21.38,47.46,23.9,47.58z"/>
	<path class="st7" d="M16.41,49.71c1.95-0.81,4.39-1.38,7.38-1.3c1.55,0.04,2.96,0.25,4.21,0.58c-0.34-0.4-0.72-0.77-1.14-1.09
		c-0.92-0.16-1.91-0.27-2.97-0.32c-2.52-0.12-4.62,0.2-6.35,0.76C17.11,48.75,16.73,49.21,16.41,49.71z"/>
	<polygon class="st5" points="55.71,42.99 56.8,37.91 61.88,36.82 56.8,35.73 55.71,30.65 54.62,35.73 51.98,36.3 52.27,37.41 
		54.62,37.91 	"/>
	<polygon class="st5" points="49.55,36.82 52.27,37.41 51.98,36.3 	"/>
	<path class="st5" d="M47.77,45.53l-0.56-2.6l-0.56,2.6l-2.6,0.56l2.6,0.56l0.56,2.6l0.56-2.6l1.14-0.24
		c-0.03-0.21-0.05-0.43-0.08-0.65L47.77,45.53z"/>
	<path class="st5" d="M48.83,45.76c0.03,0.22,0.05,0.43,0.08,0.65l1.46-0.31L48.83,45.76z"/>
	<path class="st1" d="M39.26,58.32c-2.24-0.79-4.57,3.67-11.93,5.67c-7.64,2.08-14.83-3.16-16.34-4.55
		c-1.27-1.16-1.65,4.68,2.82,8.77c2.63,2.41,8.25,5.93,17.34,3.42C40.25,69.13,41.5,59.11,39.26,58.32z"/>
	<path class="st8" d="M39.26,58.32c-2.24-0.79-4.57,3.67-11.93,5.67c-7.64,2.08-14.83-3.16-16.34-4.55
		c-1.27-1.16-1.65,4.68,2.82,8.77c2.63,2.41,8.25,5.93,17.34,3.42C40.25,69.13,41.5,59.11,39.26,58.32z"/>
</g>
</svg>
