<?xml version="1.0" encoding="utf-8"?>
<!-- Generator: Adobe Illustrator 26.0.1, SVG Export Plug-In . SVG Version: 6.00 Build 0)  -->
<svg version="1.1" id="Layer_1" xmlns="http://www.w3.org/2000/svg" xmlns:xlink="http://www.w3.org/1999/xlink" x="0px" y="0px"
	 viewBox="0 0 86.76 86.76" style="enable-background:new 0 0 86.76 86.76;" xml:space="preserve">
<style type="text/css">
	.st0{clip-path:url(#SVGID_00000121980234047019384500000018193958920077382025_);fill:#8F8F8F;}
	.st1{clip-path:url(#SVGID_00000142859457917291332160000010615319927096749700_);fill:#ADADAD;}
	.st2{clip-path:url(#SVGID_00000106862459272617427820000002056851067733636253_);fill:#8F8F8F;}
	.st3{clip-path:url(#SVGID_00000145739513928109069500000010959464868200497593_);fill:#3F3F3F;}
	.st4{clip-path:url(#SVGID_00000176012404149415616460000012689064631059156631_);fill:#CBCBCB;}
	.st5{clip-path:url(#SVGID_00000104706761098666022480000006466648789746202035_);fill:#D5D5D5;}
	.st6{clip-path:url(#SVGID_00000054961727860276186360000016513787346297144759_);fill:#8D8D8D;}
	.st7{clip-path:url(#SVGID_00000180332863674765940900000010542742825357125545_);fill:#8D8D8D;}
	.st8{clip-path:url(#SVGID_00000144338691355328454740000016523509493026250936_);fill:#8D8D8D;}
	.st9{clip-path:url(#SVGID_00000121259239908955705800000002694664323672530821_);fill:#B6B6B6;}
	.st10{clip-path:url(#SVGID_00000178175451890087800030000007397822096036521647_);fill:#B6B6B6;}
	.st11{clip-path:url(#SVGID_00000142859530371372936280000000656131534200842630_);fill:#8E8E8E;}
	.st12{clip-path:url(#SVGID_00000074440489783556675530000015210818971370375832_);fill:#8E8E8E;}
	.st13{clip-path:url(#SVGID_00000101822920956824119480000013740337246924866740_);fill:#161616;}
	.st14{clip-path:url(#SVGID_00000083089588869171629660000002900872269936118918_);fill:#161616;}
	.st15{clip-path:url(#SVGID_00000011714328569377171960000014434862739387329196_);fill:#B9B9B9;}
	.st16{clip-path:url(#SVGID_00000130626189480854877200000005727317303536471946_);fill:#B9B9B9;}
	.st17{clip-path:url(#SVGID_00000034781736642899343540000011925166985964878994_);fill:#8E8E8E;}
	.st18{clip-path:url(#SVGID_00000094582223258270888650000005245054936479603619_);fill:#FFFFFF;}
	.st19{clip-path:url(#SVGID_00000103241619214668072340000015283980597003220104_);fill:#A6A6A6;}
	.st20{clip-path:url(#SVGID_00000072983194897236447290000001498561929215582882_);fill:#E3E3E3;}
	.st21{clip-path:url(#SVGID_00000023259273008356643450000013539491690635218832_);fill:#9F9F9F;}
	.st22{clip-path:url(#SVGID_00000005967743807124021020000002384102818410719163_);fill:#9F9F9F;}
	.st23{clip-path:url(#SVGID_00000039134164785055922820000016852863903932300167_);fill:#9F9F9F;}
	.st24{clip-path:url(#SVGID_00000168802748861656106860000018281779164740176297_);fill:#9F9F9F;}
	.st25{clip-path:url(#SVGID_00000099623190429921871610000015213467837136302268_);fill:#E3E3E3;}
	.st26{clip-path:url(#SVGID_00000105401415974789778380000003799814071677936535_);fill:#9F9F9F;}
	.st27{clip-path:url(#SVGID_00000182492849510475048400000005435858900667484315_);fill:#9F9F9F;}
	.st28{clip-path:url(#SVGID_00000111879626625712533770000005517251936643768501_);fill:#9F9F9F;}
	.st29{clip-path:url(#SVGID_00000057852754352552158310000011902998805043004599_);fill:#9F9F9F;}
</style>
<g>
	<g>
		<g>
			<defs>
				<circle id="SVGID_1_" cx="43.38" cy="43.38" r="43.38"/>
			</defs>
			<clipPath id="SVGID_00000135675244391889194300000000549375757545141926_">
				<use xlink:href="#SVGID_1_"  style="overflow:visible;"/>
			</clipPath>
			
				<circle style="clip-path:url(#SVGID_00000135675244391889194300000000549375757545141926_);fill:#8F8F8F;" cx="43.38" cy="43.38" r="43.38"/>
		</g>
		<g>
			<defs>
				<circle id="SVGID_00000152255920946569134030000005792639955752029335_" cx="43.38" cy="43.38" r="43.38"/>
			</defs>
			<clipPath id="SVGID_00000161632653425621063810000014564221340329328782_">
				<use xlink:href="#SVGID_00000152255920946569134030000005792639955752029335_"  style="overflow:visible;"/>
			</clipPath>
			
				<circle style="clip-path:url(#SVGID_00000161632653425621063810000014564221340329328782_);fill:#ADADAD;" cx="43.38" cy="43.38" r="43.38"/>
		</g>
		<g>
			<defs>
				<circle id="SVGID_00000053543173145897407000000016462910646622083755_" cx="43.38" cy="43.38" r="43.38"/>
			</defs>
			<clipPath id="SVGID_00000078028687425311047570000001680049498855911061_">
				<use xlink:href="#SVGID_00000053543173145897407000000016462910646622083755_"  style="overflow:visible;"/>
			</clipPath>
			
				<rect x="-11.66" y="54.27" style="clip-path:url(#SVGID_00000078028687425311047570000001680049498855911061_);fill:#8F8F8F;" width="106.37" height="35.46"/>
		</g>
		<g>
			<defs>
				<circle id="SVGID_00000173847322163722746390000003885200386575660198_" cx="43.38" cy="43.38" r="43.38"/>
			</defs>
			<clipPath id="SVGID_00000119821594835119144670000005935525983928967088_">
				<use xlink:href="#SVGID_00000173847322163722746390000003885200386575660198_"  style="overflow:visible;"/>
			</clipPath>
			<path style="clip-path:url(#SVGID_00000119821594835119144670000005935525983928967088_);fill:#3F3F3F;" d="M-27.53,69.48
				c0,0-25-0.69-20.84-24.54c0,0,5.79-19.45,26.62-13.2c0,0,8.33-8.57,15.97-0.69c6.05,6.24-3.24,17.13-7.87,10.88"/>
		</g>
		<g>
			<defs>
				<circle id="SVGID_00000138549541008842636030000006290931528040925104_" cx="43.38" cy="43.38" r="43.38"/>
			</defs>
			<clipPath id="SVGID_00000036235932181816059020000016521055431587487903_">
				<use xlink:href="#SVGID_00000138549541008842636030000006290931528040925104_"  style="overflow:visible;"/>
			</clipPath>
			<path style="clip-path:url(#SVGID_00000036235932181816059020000016521055431587487903_);fill:#CBCBCB;" d="M-11.21,43.89
				c0,0,7.99,3.36,14.93,1.04c2.94-0.98,9.67-5.03,14.41-7.64c6.48-3.56,14.35-5.14,23.44-4.34c12.59,1.11,32.99,7.81,45.49,6.42
				v30.56c0,0-49.08-0.23-60.66-0.69s-14-10.07-14-10.07c-7.76-3.01-15.16,1.04-15.16,1.04L-11.21,43.89z"/>
		</g>
		<g>
			<defs>
				<circle id="SVGID_00000127755271001897320380000014970871265760589235_" cx="43.38" cy="43.38" r="43.38"/>
			</defs>
			<clipPath id="SVGID_00000026153386891607561080000007827463924444065979_">
				<use xlink:href="#SVGID_00000127755271001897320380000014970871265760589235_"  style="overflow:visible;"/>
			</clipPath>
			<path style="clip-path:url(#SVGID_00000026153386891607561080000007827463924444065979_);fill:#D5D5D5;" d="M-38,64.76
				c0,0,13.97,9.62,29.45,3.67c6.48-3.13,7.06-7.64,5.44-12.5c-1.79-5.36-4.16-9.03-8.68-13.08c0,0,3.13-4.63-3.59-6.02
				c-5.09-1.05-6.03,2.86-5.56,4.05c0,0-18.58,4.75-21.01,11.69C-41.95,52.58-44.55,58.65-38,64.76z"/>
		</g>
		<g>
			<defs>
				<circle id="SVGID_00000034052961753191211970000001289010491791613602_" cx="43.38" cy="43.38" r="43.38"/>
			</defs>
			<clipPath id="SVGID_00000017493093391205758180000014122695795690670253_">
				<use xlink:href="#SVGID_00000034052961753191211970000001289010491791613602_"  style="overflow:visible;"/>
			</clipPath>
			<path style="clip-path:url(#SVGID_00000017493093391205758180000014122695795690670253_);fill:#8D8D8D;" d="M-33.65,60.84
				c0.15,1.53,0.59,4.7,1.84,5.59c0,0,0-6.16-1.27-6.63C-33.26,59.73-33.7,60.33-33.65,60.84z"/>
		</g>
		<g>
			<defs>
				<circle id="SVGID_00000083802163341186162460000008077670805752523944_" cx="43.38" cy="43.38" r="43.38"/>
			</defs>
			<clipPath id="SVGID_00000160182140078046250300000015675209364771387832_">
				<use xlink:href="#SVGID_00000083802163341186162460000008077670805752523944_"  style="overflow:visible;"/>
			</clipPath>
			<path style="clip-path:url(#SVGID_00000160182140078046250300000015675209364771387832_);fill:#8D8D8D;" d="M-30.38,52.46
				c-1.22-1.02,4.29-6.99,5.87-6.67C-24.51,45.79-29.43,53.25-30.38,52.46z"/>
		</g>
		<g>
			<defs>
				<circle id="SVGID_00000045613628964433937300000009892536640009989765_" cx="43.38" cy="43.38" r="43.38"/>
			</defs>
			<clipPath id="SVGID_00000062168948202638011720000004070583171562737810_">
				<use xlink:href="#SVGID_00000045613628964433937300000009892536640009989765_"  style="overflow:visible;"/>
			</clipPath>
			<path style="clip-path:url(#SVGID_00000062168948202638011720000004070583171562737810_);fill:#8D8D8D;" d="M-19.9,64.14
				c0,0,1.11-0.95,1.57-2.05s0.41-2.66,0.41-2.66s-0.48,0.3-0.71,0.86c-0.24,0.56,0,1.15-0.19,1.61c-0.17,0.39-0.68,0.59-0.94,1.09
				C-20.03,63.5-19.9,64.14-19.9,64.14z"/>
		</g>
		<g>
			<defs>
				<circle id="SVGID_00000002358866537229429120000003599028780912566147_" cx="43.38" cy="43.38" r="43.38"/>
			</defs>
			<clipPath id="SVGID_00000154405761211798660090000013714010090379718792_">
				<use xlink:href="#SVGID_00000002358866537229429120000003599028780912566147_"  style="overflow:visible;"/>
			</clipPath>
			<path style="clip-path:url(#SVGID_00000154405761211798660090000013714010090379718792_);fill:#B6B6B6;" d="M-19.65,46.85
				c0,0-2.84-0.1-4.07,1.82s-0.55,4.2,1.03,5.64C-22.69,54.31-18.37,51.21-19.65,46.85z"/>
		</g>
		<g>
			<defs>
				<circle id="SVGID_00000001661571569165132720000012059778997679806902_" cx="43.38" cy="43.38" r="43.38"/>
			</defs>
			<clipPath id="SVGID_00000160912644624762827360000012040697420355431071_">
				<use xlink:href="#SVGID_00000001661571569165132720000012059778997679806902_"  style="overflow:visible;"/>
			</clipPath>
			<path style="clip-path:url(#SVGID_00000160912644624762827360000012040697420355431071_);fill:#B6B6B6;" d="M-27.26,67.46
				c0,0-1.27-1.04-0.94-2.82s1.18-2.66,2.96-2.59C-25.24,62.04-24.74,67.82-27.26,67.46z"/>
		</g>
		<g>
			<defs>
				<circle id="SVGID_00000174587408568878321380000015263606967328128954_" cx="43.38" cy="43.38" r="43.38"/>
			</defs>
			<clipPath id="SVGID_00000060001074291370743570000002693059976669788548_">
				<use xlink:href="#SVGID_00000174587408568878321380000015263606967328128954_"  style="overflow:visible;"/>
			</clipPath>
			<path style="clip-path:url(#SVGID_00000060001074291370743570000002693059976669788548_);fill:#8E8E8E;" d="M-27.09,67.6
				c0,0-0.6-0.47-1.08-1.38c-0.29-0.54-0.28-1.23-0.28-1.41c0.02-0.64,0.19-1.03,0.34-1.31c0.34-0.63,1.38-1.2,1.38-1.2
				s-1.43,0.84-1.54,2.52C-28.36,66.36-27.09,67.6-27.09,67.6z"/>
		</g>
		<g>
			<defs>
				<circle id="SVGID_00000141429090753155753690000017852073201122616764_" cx="43.38" cy="43.38" r="43.38"/>
			</defs>
			<clipPath id="SVGID_00000028317669990725645280000014246952249545872270_">
				<use xlink:href="#SVGID_00000141429090753155753690000017852073201122616764_"  style="overflow:visible;"/>
			</clipPath>
			<path style="clip-path:url(#SVGID_00000028317669990725645280000014246952249545872270_);fill:#8E8E8E;" d="M-20.65,46.9
				c0,0-0.92,0.11-2.02,0.77c-0.65,0.39-1.13,1.15-1.25,1.35c-0.42,0.7-0.52,1.26-0.56,1.67c-0.09,0.92,0.54,2.24,0.54,2.24
				s-0.84-1.89,0.21-3.8C-22.76,47.38-20.65,46.9-20.65,46.9z"/>
		</g>
		<g>
			<defs>
				<circle id="SVGID_00000098918102226926957560000003316538967109911995_" cx="43.38" cy="43.38" r="43.38"/>
			</defs>
			<clipPath id="SVGID_00000147919966549718034460000010634006711087736470_">
				<use xlink:href="#SVGID_00000098918102226926957560000003316538967109911995_"  style="overflow:visible;"/>
			</clipPath>
			<path style="clip-path:url(#SVGID_00000147919966549718034460000010634006711087736470_);fill:#161616;" d="M-23.08,54.34
				c0,0,4.13-1.75,3.49-7.78C-19.58,46.56-17.04,53.38-23.08,54.34z"/>
		</g>
		<g>
			<defs>
				<circle id="SVGID_00000098924570142764045820000006243494802466601406_" cx="43.38" cy="43.38" r="43.38"/>
			</defs>
			<clipPath id="SVGID_00000036934414901257674870000016906114456342779067_">
				<use xlink:href="#SVGID_00000098924570142764045820000006243494802466601406_"  style="overflow:visible;"/>
			</clipPath>
			<path style="clip-path:url(#SVGID_00000036934414901257674870000016906114456342779067_);fill:#161616;" d="M-25.24,62.04
				c0,0,0.02,5.96-2.16,5.39c0,0,3.31,0.9,2.92-3.35C-24.55,63.37-24.67,62.64-25.24,62.04z"/>
		</g>
		<g>
			<defs>
				<circle id="SVGID_00000086676302184780556640000010642903519654124984_" cx="43.38" cy="43.38" r="43.38"/>
			</defs>
			<clipPath id="SVGID_00000168818579695750667460000009142415173260100517_">
				<use xlink:href="#SVGID_00000086676302184780556640000010642903519654124984_"  style="overflow:visible;"/>
			</clipPath>
			<path style="clip-path:url(#SVGID_00000168818579695750667460000009142415173260100517_);fill:#B9B9B9;" d="M-15.16,66.08
				c0,0-0.9-3.15-0.41-3.36s1.47-0.63,1.12-0.77s-0.66-0.99-0.04-1.43s2.35-1.54,2.65-2.6C-11.85,57.91-11.43,63.42-15.16,66.08z"/>
		</g>
		<g>
			<defs>
				<circle id="SVGID_00000036227879971749912410000008183760087445272483_" cx="43.38" cy="43.38" r="43.38"/>
			</defs>
			<clipPath id="SVGID_00000144305579850090525530000012720827088548021898_">
				<use xlink:href="#SVGID_00000036227879971749912410000008183760087445272483_"  style="overflow:visible;"/>
			</clipPath>
			<path style="clip-path:url(#SVGID_00000144305579850090525530000012720827088548021898_);fill:#B9B9B9;" d="M-15.16,66.08
				c0,0,4.04-1.92,3.31-8.17c0,0,2.49,3.42,1.11,5.85C-12.14,66.21-12.97,66-15.16,66.08z"/>
		</g>
		<g>
			<defs>
				<circle id="SVGID_00000176002392034955046890000008820596963934013622_" cx="43.38" cy="43.38" r="43.38"/>
			</defs>
			<clipPath id="SVGID_00000018203042833179030560000014062173774915780002_">
				<use xlink:href="#SVGID_00000176002392034955046890000008820596963934013622_"  style="overflow:visible;"/>
			</clipPath>
			<path style="clip-path:url(#SVGID_00000018203042833179030560000014062173774915780002_);fill:#8E8E8E;" d="M-15.16,66.08
				c0,0,1.66-0.98,2.41-3.68c0.75-2.7,1.03-5.67,1.03-5.67s0.36,4.2-0.41,6.36C-12.91,65.25-13.71,65.68-15.16,66.08z"/>
		</g>
		<g>
			<defs>
				<circle id="SVGID_00000132079171816696207540000001186684538425206964_" cx="43.38" cy="43.38" r="43.38"/>
			</defs>
			<clipPath id="SVGID_00000018944578050399028730000002570935363111828655_">
				<use xlink:href="#SVGID_00000132079171816696207540000001186684538425206964_"  style="overflow:visible;"/>
			</clipPath>
			<path style="clip-path:url(#SVGID_00000018944578050399028730000002570935363111828655_);fill:#FFFFFF;" d="M41.57,32.95
				c0,0,6.2,7.63,2.29,23.11l14.04,1.16l29.41,0.71l-0.25-18.55C87.07,39.38,76.65,37.64,41.57,32.95z"/>
		</g>
		<g>
			<defs>
				<circle id="SVGID_00000181073580049906344540000002065519047161201550_" cx="43.38" cy="43.38" r="43.38"/>
			</defs>
			<clipPath id="SVGID_00000031906278977924573970000014389178904724813191_">
				<use xlink:href="#SVGID_00000181073580049906344540000002065519047161201550_"  style="overflow:visible;"/>
			</clipPath>
			<path style="clip-path:url(#SVGID_00000031906278977924573970000014389178904724813191_);fill:#A6A6A6;" d="M61.16,57.3
				c-20.3,0.04-29.2-3.26-29.2-3.26s8.09,1.64,14.77,2.28S61.16,57.3,61.16,57.3z"/>
		</g>
		<g>
			<defs>
				<circle id="SVGID_00000165224683263433817760000014787507064606651028_" cx="43.38" cy="43.38" r="43.38"/>
			</defs>
			<clipPath id="SVGID_00000016065339847359727450000000992321501432721034_">
				<use xlink:href="#SVGID_00000165224683263433817760000014787507064606651028_"  style="overflow:visible;"/>
			</clipPath>
			<path style="clip-path:url(#SVGID_00000016065339847359727450000000992321501432721034_);fill:#E3E3E3;" d="M84.64-10.5
				c0,0-12.26,23.3-16.12,28.35c-6.26,8.19-13.23,11.84-13.73,12.22c-0.91,0.68-2.35,1.37-3.26,4.48s-1.52,4.86-2.58,6.37
				c-1.06,1.52-0.53,1.67-0.15,1.75c0.38,0.08,1.82,0,3.04-1.82s1.9-3.04,2.43-3.79s1.41,3.18,1.56,4.55s0.26,4.48,0.49,6.08
				c0.23,1.59,0.56,4.63,2.12,4.7c1.59,0.08,1.37-4.4,1.37-4.7c0,0,0.18,2.5,0.73,4.53c0.39,1.42,0.96,2.6,1.77,2.53
				c0.77-0.07,1.2-1.25,1.44-2.49c0.27-1.41,0.3-2.89,0.3-2.89s0.3,3.57,2.05,3.34s1.44-3.87,1.44-3.87s1.44,2.35,2.15-1.57
				c0.56-3.11,0.38-5.39,0.91-7.13c0.53-1.75,0.99-4.83,1.06-5.51c0.08-0.68,0.27-3.11-1.02-5.16C69.78,28.1,100.65-9.4,102.7-10.46
				H84.64V-10.5z"/>
		</g>
		<g>
			<defs>
				<circle id="SVGID_00000090260061272821399500000001384569130568431795_" cx="43.38" cy="43.38" r="43.38"/>
			</defs>
			<clipPath id="SVGID_00000117646042940374719010000007044601172489544857_">
				<use xlink:href="#SVGID_00000090260061272821399500000001384569130568431795_"  style="overflow:visible;"/>
			</clipPath>
			<path style="clip-path:url(#SVGID_00000117646042940374719010000007044601172489544857_);fill:#9F9F9F;" d="M55.35,39.59
				c0,0-0.59-2.92,0.11-6.07c0.15-0.65-0.87,0.99-1.44,3.15c-0.22,0.84-0.71,1.91-0.99,2.28c0,0,1.22-2.02,1.4-2.05
				C54.73,36.85,55.35,39.59,55.35,39.59z"/>
		</g>
		<g>
			<defs>
				<circle id="SVGID_00000083809913979133128290000015494634721517882245_" cx="43.38" cy="43.38" r="43.38"/>
			</defs>
			<clipPath id="SVGID_00000137829178356441906010000009278105032358447039_">
				<use xlink:href="#SVGID_00000083809913979133128290000015494634721517882245_"  style="overflow:visible;"/>
			</clipPath>
			<path style="clip-path:url(#SVGID_00000137829178356441906010000009278105032358447039_);fill:#9F9F9F;" d="M59.76,47.77
				c0,0-0.24-6.02-0.65-10.77c0,0,0.65,1.78,0.78,4.16c0.05,0.91,0.03,5.18-0.06,6.17C59.74,48.54,59.76,47.77,59.76,47.77z"/>
		</g>
		<g>
			<defs>
				<circle id="SVGID_00000073684288970922293730000015242246681106250153_" cx="43.38" cy="43.38" r="43.38"/>
			</defs>
			<clipPath id="SVGID_00000087413566934561144350000011762035457821349506_">
				<use xlink:href="#SVGID_00000073684288970922293730000015242246681106250153_"  style="overflow:visible;"/>
			</clipPath>
			<path style="clip-path:url(#SVGID_00000087413566934561144350000011762035457821349506_);fill:#9F9F9F;" d="M64.05,49.53
				c0,0-0.35-9.33-0.35-11.88c0-0.61,0.22,0.25,0.32,1.47S64.58,46.42,64.05,49.53z"/>
		</g>
		<g>
			<defs>
				<circle id="SVGID_00000003825244011141960140000006515268554697521333_" cx="43.38" cy="43.38" r="43.38"/>
			</defs>
			<clipPath id="SVGID_00000028309600988818133110000007267523721342785212_">
				<use xlink:href="#SVGID_00000003825244011141960140000006515268554697521333_"  style="overflow:visible;"/>
			</clipPath>
			<path style="clip-path:url(#SVGID_00000028309600988818133110000007267523721342785212_);fill:#9F9F9F;" d="M67.53,48.81
				c0,0-0.48-7.44,0.03-9.76c0.51-2.33,0.92-2.68,1.21-3.44c0.25-0.66-0.81,2.63-0.81,5.16S67.53,48.81,67.53,48.81z"/>
		</g>
		<g>
			<defs>
				<circle id="SVGID_00000121242125955760605890000009777869867769352602_" cx="43.38" cy="43.38" r="43.38"/>
			</defs>
			<clipPath id="SVGID_00000047771927290075047090000012675182708425884335_">
				<use xlink:href="#SVGID_00000121242125955760605890000009777869867769352602_"  style="overflow:visible;"/>
			</clipPath>
			<path style="clip-path:url(#SVGID_00000047771927290075047090000012675182708425884335_);fill:#E3E3E3;" d="M50.76-6.1
				c0,0-10.73,21.23-17.91,30.44c-1.92,1.92-2.12,2.63-4.76,3.84s-5.82,2.83-6.42,4.05c0,0-6.02,5.41-6.83,6.42
				c-0.81,1.01,0.2,1.47,0.2,1.47l-3.01,3.48c-0.4,0.61-0.8,1.21-0.13,1.78c0,0,0.91,0.51,2.23-1.11c0,0-3.78,2.83-2.87,4.25
				c1.11,1.72,4.28-0.81,4.28-0.81c0.91,3.54,10.62-5.16,13.66-7.69s7.69-4.15,7.69-4.15c-0.4,1.32-4.35,6.88-2.93,7.59
				s6.58-5.67,7.28-7.28c0.71-1.62,1.21-5.16,1.21-7.28s1.35-5.56,3.34-7.59c5.16-5.26,22.5-27.4,22.5-27.4L50.76-6.1L50.76-6.1z"/>
		</g>
		<g>
			<defs>
				<circle id="SVGID_00000024693831077367635790000005307119889643554741_" cx="43.38" cy="43.38" r="43.38"/>
			</defs>
			<clipPath id="SVGID_00000154406415523535118900000013678137287243385785_">
				<use xlink:href="#SVGID_00000024693831077367635790000005307119889643554741_"  style="overflow:visible;"/>
			</clipPath>
			<path style="clip-path:url(#SVGID_00000154406415523535118900000013678137287243385785_);fill:#9F9F9F;" d="M15.55,47.7
				c0,0,10.72-8.5,13.86-13.05C29.41,34.65,22.42,40.52,15.55,47.7z"/>
		</g>
		<g>
			<defs>
				<circle id="SVGID_00000134940348657198204340000007657543385800658582_" cx="43.38" cy="43.38" r="43.38"/>
			</defs>
			<clipPath id="SVGID_00000067949999912665807240000013953223672280791692_">
				<use xlink:href="#SVGID_00000134940348657198204340000007657543385800658582_"  style="overflow:visible;"/>
			</clipPath>
			<path style="clip-path:url(#SVGID_00000067949999912665807240000013953223672280791692_);fill:#9F9F9F;" d="M13.29,45.02
				c0,0,6.23-7.47,10.58-10.91C23.87,34.11,16.52,42.19,13.29,45.02z"/>
		</g>
		<g>
			<defs>
				<circle id="SVGID_00000070802076566421644420000017102655454365039515_" cx="43.38" cy="43.38" r="43.38"/>
			</defs>
			<clipPath id="SVGID_00000036252956870716395970000006665811957940337036_">
				<use xlink:href="#SVGID_00000070802076566421644420000017102655454365039515_"  style="overflow:visible;"/>
			</clipPath>
			<path style="clip-path:url(#SVGID_00000036252956870716395970000006665811957940337036_);fill:#9F9F9F;" d="M15.04,40.12
				c0,0,6.02-6.37,6.78-8.09C21.82,32.02,19.69,36.88,15.04,40.12z"/>
		</g>
		<g>
			<defs>
				<circle id="SVGID_00000024718348119197013180000013388721443407476098_" cx="43.38" cy="43.38" r="43.38"/>
			</defs>
			<clipPath id="SVGID_00000138572996645443463420000009473965755216866979_">
				<use xlink:href="#SVGID_00000024718348119197013180000013388721443407476098_"  style="overflow:visible;"/>
			</clipPath>
			<path style="clip-path:url(#SVGID_00000138572996645443463420000009473965755216866979_);fill:#9F9F9F;" d="M36.89,35.87
				c0,0,1.21-1.92,1.42-3.44c0,0-3.46,4.13-5.18,5.04L36.89,35.87z"/>
		</g>
	</g>
</g>
</svg>
