<?xml version="1.0" encoding="utf-8"?>
<!-- Generator: Adobe Illustrator 26.0.1, SVG Export Plug-In . SVG Version: 6.00 Build 0)  -->
<svg version="1.1" id="Layer_1" xmlns="http://www.w3.org/2000/svg" xmlns:xlink="http://www.w3.org/1999/xlink" x="0px" y="0px"
	 viewBox="0 0 86.76 86.76" style="enable-background:new 0 0 86.76 86.76;" xml:space="preserve">
<style type="text/css">
	.st0{fill:#F3F3F3;}
	.st1{clip-path:url(#SVGID_00000062906137544471095480000008607817456034298273_);}
	.st2{fill:#B3B3B3;}
	.st3{clip-path:url(#SVGID_00000003099952880241822670000012086056317756717709_);}
	.st4{fill:#A6A6A6;}
	.st5{fill:#C9C9C9;}
	.st6{clip-path:url(#SVGID_00000117652777490330922880000008091869474227967624_);}
	.st7{fill:#B9B9B9;}
	.st8{fill:#E0E0E0;}
	.st9{fill:#A1A1A1;}
	.st10{fill:#FFFFFF;}
	.st11{fill:#F0F0F0;}
	.st12{fill:#DBDBDB;}
	.st13{opacity:0.78;}
	.st14{filter:url(#Adobe_OpacityMaskFilter);}
	.st15{mask:url(#SVGID_00000165222987427591833330000010064740999773287831_);}
	.st16{fill:#BBBBBB;}
	.st17{filter:url(#Adobe_OpacityMaskFilter_00000070111421265624796230000009923614713169843860_);}
	.st18{mask:url(#SVGID_00000156548883674100882810000017293849974645944476_);}
	.st19{fill:#A8A8A8;}
	.st20{fill:#EBEBEB;}
	.st21{clip-path:url(#SVGID_00000075161107970577435010000006880230170227471286_);fill:#F3F3F3;}
	.st22{clip-path:url(#SVGID_00000075161107970577435010000006880230170227471286_);fill:#8F8F8F;}
	.st23{clip-path:url(#SVGID_00000075161107970577435010000006880230170227471286_);fill:#A1A1A1;}
	.st24{clip-path:url(#SVGID_00000075161107970577435010000006880230170227471286_);fill:#AFAFAF;}
	.st25{fill:#ACACAC;}
	.st26{fill:#CECECE;}
	.st27{opacity:0.3;fill:#828282;}
	.st28{fill:#D6D6D6;}
	.st29{fill:#E5E5E5;}
	.st30{fill:#F5F5F5;}
	.st31{opacity:0.58;fill:#D6D6D6;}
	.st32{fill:#CFCFCF;}
	.st33{fill:#B4B4B4;}
	.st34{opacity:0.42;fill:#515151;}
	.st35{opacity:0.5;fill:#9E9E9E;}
	.st36{fill:#ADADAD;}
	.st37{fill:#F2F2F2;}
	.st38{fill:#E9E9E9;}
	.st39{fill:#9B9B9B;}
	.st40{fill:#D1D1D1;}
	.st41{fill:#565656;}
	.st42{fill:#9F9F9F;}
	.st43{fill:#4B4B4B;}
	.st44{fill:#FFEFEA;}
	.st45{clip-path:url(#SVGID_00000181078184408031387340000009512830668701405337_);}
	.st46{fill:#D3AB87;}
	.st47{clip-path:url(#SVGID_00000036225527119531042700000012612690093681227153_);}
	.st48{fill:#C79D7D;}
	.st49{fill:#E5C1A4;}
	.st50{clip-path:url(#SVGID_00000127013326201074477880000013109724196120417185_);}
	.st51{fill:#DAB08B;}
	.st52{fill:#F2DCC7;}
	.st53{fill:#C99477;}
	.st54{fill:#F6EFE8;}
	.st55{fill:#F5D4BC;}
	.st56{filter:url(#Adobe_OpacityMaskFilter_00000093161711230918640390000016561764920920968582_);}
	.st57{mask:url(#SVGID_00000005975822525281459990000003398711465471123844_);}
	.st58{fill:#F3A695;}
	.st59{filter:url(#Adobe_OpacityMaskFilter_00000093161779844162586550000012222382612931154052_);}
	.st60{mask:url(#SVGID_00000049191041554553466010000006273249527297467274_);}
	.st61{fill:#DC9488;}
	.st62{fill:#EABFA9;}
	.st63{fill:#FAE6DE;}
	.st64{clip-path:url(#SVGID_00000052087271186686856960000005982535513701453973_);fill:#FFEFEA;}
	.st65{clip-path:url(#SVGID_00000052087271186686856960000005982535513701453973_);fill:#DF6E63;}
	.st66{clip-path:url(#SVGID_00000052087271186686856960000005982535513701453973_);fill:#EC817D;}
	.st67{clip-path:url(#SVGID_00000052087271186686856960000005982535513701453973_);fill:#F19392;}
	.st68{fill:#BDA893;}
	.st69{fill:#DECAB4;}
	.st70{opacity:0.3;fill:#857F8C;}
	.st71{fill:#E4D3C4;}
	.st72{fill:#EDE4D3;}
	.st73{fill:#FAF5E8;}
	.st74{opacity:0.58;fill:#E4D3C4;}
	.st75{fill:#EDC7A7;}
	.st76{fill:#E1A58C;}
	.st77{fill:#F5F4E4;}
	.st78{opacity:0.42;fill:#604C3F;}
	.st79{fill:#E88A89;}
	.st80{opacity:0.5;fill:#75B0AA;}
	.st81{fill:#97A799;}
	.st82{fill:#E59595;}
	.st83{fill:#FBF0E4;}
	.st84{fill:#F8E6D1;}
	.st85{fill:#D78181;}
	.st86{fill:#F5C6AA;}
	.st87{fill:#FF1000;}
	.st88{fill:#D58B76;}
	.st89{fill:#76400F;}
</style>
<g>
	<g>
		<circle class="st44" cx="43.38" cy="43.38" r="43.38"/>
		<g>
			<defs>
				<circle id="SVGID_00000181049160614319590550000000016549069153253029_" cx="43.38" cy="43.38" r="43.38"/>
			</defs>
			<clipPath id="SVGID_00000129177620678680062230000002872678282292140190_">
				<use xlink:href="#SVGID_00000181049160614319590550000000016549069153253029_"  style="overflow:visible;"/>
			</clipPath>
			<g style="clip-path:url(#SVGID_00000129177620678680062230000002872678282292140190_);">
				<ellipse class="st46" cx="43.38" cy="29.99" rx="26.86" ry="8.63"/>
				<g>
					<defs>
						<ellipse id="SVGID_00000087411496084239102000000000288393651290368936_" cx="43.38" cy="29.99" rx="26.86" ry="8.63"/>
					</defs>
					<clipPath id="SVGID_00000083788133419168359770000001759750273302005635_">
						<use xlink:href="#SVGID_00000087411496084239102000000000288393651290368936_"  style="overflow:visible;"/>
					</clipPath>
					<g style="clip-path:url(#SVGID_00000083788133419168359770000001759750273302005635_);">
						
							<rect x="21.69" y="28.05" transform="matrix(0.1365 -0.9906 0.9906 0.1365 27.6992 88.3571)" class="st48" width="85.69" height="0.48"/>
						<polygon class="st48" points="50.78,74.28 50.3,74.24 57.38,-14.29 57.86,-14.26 						"/>
						<g>
							
								<rect x="21.98" y="-14.56" transform="matrix(0.9907 -0.1361 0.1361 0.9907 -3.6446 3.2894)" class="st48" width="0.48" height="85.69"/>
							<polygon class="st48" points="35.98,74.28 28.9,-14.26 29.38,-14.29 36.47,74.24 							"/>
							<rect x="43.14" y="-7.62" class="st48" width="0.48" height="68.2"/>
						</g>
					</g>
				</g>
				<path class="st49" d="M70.18,30.37c-0.62,4.59-12.36,8.25-26.8,8.25s-26.18-3.66-26.8-8.25h-2.67l3.68,26.69
					c0,4.88,11.54,8.84,25.79,8.84c14.24,0,25.79-3.96,25.79-8.84l3.68-26.69H70.18z"/>
				<g>
					<defs>
						<path id="SVGID_00000034075531869838929530000015850193035404635832_" d="M70.18,30.37c-0.62,4.59-12.36,8.25-26.8,8.25
							s-26.18-3.66-26.8-8.25h-2.67l3.68,26.69c0,4.88,11.54,8.84,25.79,8.84c14.24,0,25.79-3.96,25.79-8.84l3.68-26.69H70.18z"/>
					</defs>
					<clipPath id="SVGID_00000106837088835302812100000014185490629475345853_">
						<use xlink:href="#SVGID_00000034075531869838929530000015850193035404635832_"  style="overflow:visible;"/>
					</clipPath>
					<g style="clip-path:url(#SVGID_00000106837088835302812100000014185490629475345853_);">
						
							<rect x="21.69" y="52.2" transform="matrix(0.1365 -0.9906 0.9906 0.1365 3.5364 109.4187)" class="st51" width="85.69" height="0.97"/>
						
							<rect x="9.67" y="53.9" transform="matrix(0.0801 -0.9968 0.9968 0.0801 -4.4658 103.9312)" class="st51" width="88.82" height="0.97"/>
						<g>
							
								<rect x="21.74" y="9.83" transform="matrix(0.9907 -0.1361 0.1361 0.9907 -6.9653 3.5165)" class="st51" width="0.97" height="85.69"/>
							
								<rect x="32.2" y="9.97" transform="matrix(0.9968 -0.0797 0.0797 0.9968 -4.2324 2.7792)" class="st51" width="0.97" height="88.82"/>
							<rect x="42.9" y="16.77" class="st51" width="0.97" height="68.2"/>
						</g>
					</g>
				</g>
				<path class="st52" d="M43.38,20.27c-16.28,0-29.47,4.52-29.47,10.1c0,5.58,13.19,10.1,29.47,10.1c16.28,0,29.47-4.52,29.47-10.1
					C72.85,24.79,59.66,20.27,43.38,20.27z M43.38,38.63c-14.83,0-26.86-3.86-26.86-8.63s12.03-8.63,26.86-8.63
					s26.86,3.86,26.86,8.63S58.21,38.63,43.38,38.63z"/>
				<path class="st53" d="M43.38,64.71c-12.6,0-23.12-3.02-25.79-7.06l0,0c0,4.88,11.54,8.84,25.79,8.84
					c14.24,0,25.79-3.96,25.79-8.84l0,0C66.5,61.69,55.98,64.71,43.38,64.71z"/>
				<path class="st53" d="M43.38,50.98c-13.56,0-24.88-3.25-27.75-7.6l0,0c0,5.26,12.43,9.52,27.75,9.52
					c15.33,0,27.75-4.26,27.75-9.52l0,0C68.26,47.73,56.94,50.98,43.38,50.98z"/>
				<path class="st10" d="M53.21,36.48l-6.38,0.49c-2.3,0.18-4.61,0.18-6.91,0l-6.38-0.49c-1.36,0-2.46,1.1-2.46,2.46l1.94,20.52
					c0,0,4.67,1.26,10.36,1.26c5.68,0,10.36-1.26,10.36-1.26l1.94-20.52C55.67,37.58,54.57,36.48,53.21,36.48z"/>
			</g>
		</g>
	</g>
</g>
</svg>
