<?xml version="1.0" encoding="utf-8"?>
<!-- Generator: Adobe Illustrator 26.0.1, SVG Export Plug-In . SVG Version: 6.00 Build 0)  -->
<svg version="1.1" id="Layer_1" xmlns="http://www.w3.org/2000/svg" xmlns:xlink="http://www.w3.org/1999/xlink" x="0px" y="0px"
	 viewBox="0 0 86.76 86.76" style="enable-background:new 0 0 86.76 86.76;" xml:space="preserve">
<style type="text/css">
	.st0{fill:#F3F3F3;}
	.st1{clip-path:url(#SVGID_00000057862375875075038660000009402812640874686867_);}
	.st2{fill:#B3B3B3;}
	.st3{clip-path:url(#SVGID_00000052783924747822681610000008304792208901740721_);}
	.st4{fill:#A6A6A6;}
	.st5{fill:#C9C9C9;}
	.st6{clip-path:url(#SVGID_00000036950825415616109250000003684799503683314836_);}
	.st7{fill:#B9B9B9;}
	.st8{fill:#E0E0E0;}
	.st9{fill:#A1A1A1;}
	.st10{fill:#FFFFFF;}
	.st11{fill:#F0F0F0;}
	.st12{fill:#DBDBDB;}
	.st13{opacity:0.78;}
	.st14{filter:url(#Adobe_OpacityMaskFilter);}
	.st15{mask:url(#SVGID_00000054976530855287776320000006734764895238492073_);}
	.st16{fill:#BBBBBB;}
	.st17{filter:url(#Adobe_OpacityMaskFilter_00000160908122824428608970000009712199156717220246_);}
	.st18{mask:url(#SVGID_00000135672790775733218290000014216288037834463630_);}
	.st19{fill:#A8A8A8;}
	.st20{fill:#EBEBEB;}
	.st21{clip-path:url(#SVGID_00000179615571370507656040000017148350415084329616_);fill:#F3F3F3;}
	.st22{clip-path:url(#SVGID_00000179615571370507656040000017148350415084329616_);fill:#8F8F8F;}
	.st23{clip-path:url(#SVGID_00000179615571370507656040000017148350415084329616_);fill:#A1A1A1;}
	.st24{clip-path:url(#SVGID_00000179615571370507656040000017148350415084329616_);fill:#AFAFAF;}
	.st25{fill:#ACACAC;}
	.st26{fill:#CECECE;}
	.st27{opacity:0.3;fill:#828282;}
	.st28{fill:#D6D6D6;}
	.st29{fill:#E5E5E5;}
	.st30{fill:#F5F5F5;}
	.st31{opacity:0.58;fill:#D6D6D6;}
	.st32{fill:#CFCFCF;}
	.st33{fill:#B4B4B4;}
	.st34{opacity:0.42;fill:#515151;}
	.st35{opacity:0.5;fill:#9E9E9E;}
	.st36{fill:#ADADAD;}
	.st37{fill:#F2F2F2;}
	.st38{fill:#E9E9E9;}
	.st39{fill:#9B9B9B;}
	.st40{fill:#D1D1D1;}
	.st41{fill:#565656;}
	.st42{fill:#9F9F9F;}
	.st43{fill:#4B4B4B;}
	.st44{fill:#FFEFEA;}
	.st45{clip-path:url(#SVGID_00000137838764555089591610000007374022485626807727_);}
	.st46{fill:#D3AB87;}
	.st47{clip-path:url(#SVGID_00000019666448005355471230000008016815227110183592_);}
	.st48{fill:#C79D7D;}
	.st49{fill:#E5C1A4;}
	.st50{clip-path:url(#SVGID_00000170262186817254700840000007352228855319060664_);}
	.st51{fill:#DAB08B;}
	.st52{fill:#F2DCC7;}
	.st53{fill:#C99477;}
	.st54{fill:#F6EFE8;}
	.st55{fill:#F5D4BC;}
	.st56{filter:url(#Adobe_OpacityMaskFilter_00000114794016035474233850000007533571974944255669_);}
	.st57{mask:url(#SVGID_00000115474467788117009290000009261507561634269322_);}
	.st58{fill:#F3A695;}
	.st59{filter:url(#Adobe_OpacityMaskFilter_00000116205905689013009500000009438134349617306019_);}
	.st60{mask:url(#SVGID_00000155148626697627378270000016400744865681081478_);}
	.st61{fill:#DC9488;}
	.st62{fill:#EABFA9;}
	.st63{fill:#FAE6DE;}
	.st64{clip-path:url(#SVGID_00000137109217265566568320000016113539199693227956_);fill:#FFEFEA;}
	.st65{clip-path:url(#SVGID_00000137109217265566568320000016113539199693227956_);fill:#DF6E63;}
	.st66{clip-path:url(#SVGID_00000137109217265566568320000016113539199693227956_);fill:#EC817D;}
	.st67{clip-path:url(#SVGID_00000137109217265566568320000016113539199693227956_);fill:#F19392;}
	.st68{fill:#BDA893;}
	.st69{fill:#DECAB4;}
	.st70{opacity:0.3;fill:#857F8C;}
	.st71{fill:#E4D3C4;}
	.st72{fill:#EDE4D3;}
	.st73{fill:#FAF5E8;}
	.st74{opacity:0.58;fill:#E4D3C4;}
	.st75{fill:#EDC7A7;}
	.st76{fill:#E1A58C;}
	.st77{fill:#F5F4E4;}
	.st78{opacity:0.42;fill:#604C3F;}
	.st79{fill:#E88A89;}
	.st80{opacity:0.5;fill:#75B0AA;}
	.st81{fill:#97A799;}
	.st82{fill:#E59595;}
	.st83{fill:#FBF0E4;}
	.st84{fill:#F8E6D1;}
	.st85{fill:#D78181;}
	.st86{fill:#F5C6AA;}
	.st87{fill:#FF1000;}
	.st88{fill:#D58B76;}
	.st89{fill:#76400F;}
</style>
<g>
	<g>
		<defs>
			<circle id="SVGID_00000112596814652174401030000015341232585412395455_" cx="43.38" cy="43.38" r="43.38"/>
		</defs>
		<clipPath id="SVGID_00000138571482680800873190000012407122848572242862_">
			<use xlink:href="#SVGID_00000112596814652174401030000015341232585412395455_"  style="overflow:visible;"/>
		</clipPath>
		
			<circle style="clip-path:url(#SVGID_00000138571482680800873190000012407122848572242862_);fill:#FFEFEA;" cx="43.38" cy="43.38" r="43.38"/>
		<path style="clip-path:url(#SVGID_00000138571482680800873190000012407122848572242862_);fill:#DF6E63;" d="M43.83,56
			c-0.69,0.47-1.44,0.93-2.27,1.36c-0.43,0.23-0.93,0.42-1.4,0.62c1.85,2.56,3.67,3.91,3.67,3.91s1.83-1.35,3.67-3.91
			c-0.47-0.2-0.97-0.4-1.4-0.62C45.27,56.92,44.52,56.46,43.83,56z"/>
		<path style="clip-path:url(#SVGID_00000138571482680800873190000012407122848572242862_);fill:#DF6E63;" d="M63.23,44.79
			c-0.26,0.42-0.53,0.83-0.82,1.25c-0.66,0.92-1.4,1.82-2.27,2.69c-2.84,2.84-5.97,4.38-8.8,5.23c-0.63,0.19-1.24,0.35-1.83,0.47
			c-0.62,0.13-1.21,0.23-1.77,0.3c-0.06,0.01-0.12,0.01-0.18,0.02c-0.85,0.1-1.62,0.15-2.29,0.16c-0.05,0.04-0.11,0.08-0.16,0.13
			c0.57,0.37,1.17,0.72,1.84,1.06c0.43,0.22,0.89,0.42,1.35,0.61c0.46,0.19,0.92,0.37,1.41,0.53c1.78,0.59,3.77,1,6.02,1
			c9.97,0,16.19-7.48,16.19-7.48S68.7,46.97,63.23,44.79z"/>
		<path style="clip-path:url(#SVGID_00000138571482680800873190000012407122848572242862_);fill:#DF6E63;" d="M42.55,55.04
			c0.06-0.04,0.12-0.08,0.18-0.11c-0.1,0-0.23-0.01-0.34-0.01c-0.66-0.01-1.42-0.06-2.27-0.16c-0.07-0.01-0.13-0.01-0.21-0.02
			c-0.56-0.07-1.15-0.17-1.77-0.3c-0.59-0.12-1.2-0.28-1.83-0.47c-2.83-0.85-5.96-2.4-8.8-5.23c-0.87-0.87-1.62-1.78-2.28-2.7
			c-0.29-0.41-0.56-0.83-0.82-1.24c-5.46,2.18-8.69,5.98-8.69,5.98s6.21,7.48,16.19,7.48c2.25,0,4.24-0.41,6.02-1
			c0.49-0.16,0.96-0.34,1.41-0.53c0.47-0.2,0.93-0.39,1.35-0.61C41.38,55.77,41.98,55.41,42.55,55.04z"/>
		<path style="clip-path:url(#SVGID_00000138571482680800873190000012407122848572242862_);fill:#EC817D;" d="M25.86,44.28
			c0.27,0.42,0.56,0.84,0.86,1.25c0.55,0.73,1.15,1.46,1.84,2.15c2.3,2.3,4.82,3.65,7.18,4.49c0.57,0.2,1.13,0.4,1.68,0.54
			c0.59,0.15,1.18,0.3,1.72,0.4c0.5,0.09,0.94,0.13,1.4,0.18c0.28,0.03,0.58,0.08,0.83,0.1c-0.01-0.08-0.02-0.16-0.04-0.33
			c-0.36-0.36-0.76-0.77-1.18-1.27c-0.41-0.48-0.85-1.02-1.28-1.63c-0.31-0.43-0.6-0.93-0.89-1.42c-0.57-0.94-1.1-1.97-1.57-3.13
			c-0.04-0.09-0.08-0.18-0.12-0.27c-0.2-0.52-0.36-1.08-0.52-1.64c-0.15-0.52-0.31-1.03-0.42-1.58c0-0.01,0-0.01,0-0.02
			c-0.28-1.33-0.47-2.74-0.47-4.27c0-0.73,0.11-1.4,0.18-2.09c0.06-0.56,0.05-1.15,0.15-1.68c-6.25-3.71-12.8-3.11-12.8-3.11
			s-0.54,6,2.67,12C25.32,43.4,25.58,43.84,25.86,44.28z"/>
		<path style="clip-path:url(#SVGID_00000138571482680800873190000012407122848572242862_);fill:#EC817D;" d="M49.67,48.74
			c-0.3,0.49-0.59,0.99-0.89,1.42c-0.42,0.59-0.84,1.12-1.25,1.59c-0.44,0.51-0.84,0.94-1.22,1.31c-0.13,0.13-0.25,0.25-0.36,0.36
			c0.11-0.01,0.21-0.01,0.32-0.02c0.26-0.02,0.56-0.07,0.83-0.1c0.45-0.05,0.9-0.09,1.4-0.18c0.55-0.1,1.13-0.24,1.72-0.4
			c0.55-0.14,1.11-0.34,1.68-0.54c2.36-0.84,4.88-2.19,7.18-4.49c0.69-0.69,1.29-1.42,1.84-2.15c0.31-0.42,0.6-0.83,0.87-1.25
			c0.28-0.44,0.54-0.88,0.78-1.33c3.21-6,2.67-12,2.67-12s-6.55-0.6-12.8,3.11c0.09,0.53,0.09,1.12,0.15,1.68
			c0.07,0.69,0.18,1.35,0.18,2.09c0,1.54-0.2,2.94-0.48,4.27c0,0.01,0,0.01,0,0.02c-0.12,0.55-0.27,1.06-0.42,1.58
			c-0.17,0.56-0.32,1.12-0.52,1.64c-0.04,0.1-0.08,0.18-0.12,0.28C50.77,46.77,50.24,47.8,49.67,48.74z"/>
		<path style="clip-path:url(#SVGID_00000138571482680800873190000012407122848572242862_);fill:#F19392;" d="M36.88,42.1
			c0.03,0.14,0.08,0.27,0.11,0.4c0.14,0.56,0.27,1.13,0.45,1.65c0.14,0.41,0.31,0.77,0.47,1.15c0.09,0.22,0.19,0.43,0.29,0.63
			c0.52,1.12,1.09,2.15,1.68,3.02c0.3,0.44,0.6,0.83,0.9,1.2c0.18,0.22,0.36,0.46,0.53,0.66c0.39,0.45,0.74,0.82,1.06,1.15
			c0.15,0.15,0.29,0.3,0.43,0.43c0.17,0.16,0.3,0.27,0.43,0.39c0.35,0.3,0.61,0.51,0.61,0.51s0.26-0.21,0.62-0.52
			c0.13-0.11,0.26-0.22,0.42-0.38c0.14-0.13,0.29-0.29,0.45-0.45c0.32-0.32,0.66-0.69,1.04-1.13c0.17-0.2,0.35-0.44,0.52-0.66
			c0.3-0.38,0.59-0.76,0.9-1.21c0.6-0.87,1.16-1.9,1.68-3.02c0.1-0.21,0.2-0.42,0.29-0.64c0.16-0.38,0.32-0.74,0.46-1.15
			c0.18-0.52,0.31-1.09,0.45-1.65c0.03-0.14,0.08-0.26,0.11-0.4c0.26-1.12,0.41-2.31,0.46-3.58c0.01-0.24,0.06-0.45,0.06-0.69
			c0-0.39-0.08-0.73-0.1-1.11c-0.03-0.59-0.08-1.18-0.16-1.74c-0.08-0.55-0.18-1.07-0.3-1.59c-1.69-7.32-6.92-11.75-6.92-11.75
			s-5.24,4.43-6.92,11.75c-0.12,0.52-0.22,1.04-0.3,1.58c-0.08,0.56-0.12,1.15-0.16,1.74c-0.02,0.38-0.1,0.72-0.1,1.11
			c0,0.24,0.05,0.45,0.06,0.69C36.46,39.79,36.62,40.98,36.88,42.1z"/>
	</g>
</g>
</svg>
