<?xml version="1.0" encoding="utf-8"?>
<!-- Generator: Adobe Illustrator 26.0.1, SVG Export Plug-In . SVG Version: 6.00 Build 0)  -->
<svg version="1.1" id="Layer_1" xmlns="http://www.w3.org/2000/svg" xmlns:xlink="http://www.w3.org/1999/xlink" x="0px" y="0px"
	 viewBox="0 0 86.76 86.76" style="enable-background:new 0 0 86.76 86.76;" xml:space="preserve">
<style type="text/css">
	.st0{fill:#F3F3F3;}
	.st1{clip-path:url(#SVGID_00000049187726346810499400000001262586353268084111_);}
	.st2{fill:#B3B3B3;}
	.st3{clip-path:url(#SVGID_00000129883919684172270500000001838359931393719727_);}
	.st4{fill:#A6A6A6;}
	.st5{fill:#C9C9C9;}
	.st6{clip-path:url(#SVGID_00000145049752856803778220000018222643932269139337_);}
	.st7{fill:#B9B9B9;}
	.st8{fill:#E0E0E0;}
	.st9{fill:#A1A1A1;}
	.st10{fill:#FFFFFF;}
	.st11{fill:#F0F0F0;}
	.st12{fill:#DBDBDB;}
	.st13{opacity:0.78;}
	.st14{filter:url(#Adobe_OpacityMaskFilter);}
	.st15{mask:url(#SVGID_00000119103836814116725290000004970560772515058579_);}
	.st16{fill:#BBBBBB;}
	.st17{filter:url(#Adobe_OpacityMaskFilter_00000061472388764198767690000002302909701308090302_);}
	.st18{mask:url(#SVGID_00000082365243087901814860000011996585833043540385_);}
	.st19{fill:#A8A8A8;}
	.st20{fill:#EBEBEB;}
	.st21{clip-path:url(#SVGID_00000130618392809860239510000014390430260778524318_);fill:#F3F3F3;}
	.st22{clip-path:url(#SVGID_00000130618392809860239510000014390430260778524318_);fill:#8F8F8F;}
	.st23{clip-path:url(#SVGID_00000130618392809860239510000014390430260778524318_);fill:#A1A1A1;}
	.st24{clip-path:url(#SVGID_00000130618392809860239510000014390430260778524318_);fill:#AFAFAF;}
	.st25{fill:#ACACAC;}
	.st26{fill:#CECECE;}
	.st27{opacity:0.3;fill:#828282;}
	.st28{fill:#D6D6D6;}
	.st29{fill:#E5E5E5;}
	.st30{fill:#F5F5F5;}
	.st31{opacity:0.58;fill:#D6D6D6;}
	.st32{fill:#CFCFCF;}
	.st33{fill:#B4B4B4;}
	.st34{opacity:0.42;fill:#515151;}
	.st35{opacity:0.5;fill:#9E9E9E;}
	.st36{fill:#ADADAD;}
	.st37{fill:#F2F2F2;}
	.st38{fill:#E9E9E9;}
	.st39{fill:#9B9B9B;}
	.st40{fill:#D1D1D1;}
	.st41{fill:#565656;}
	.st42{fill:#9F9F9F;}
	.st43{fill:#4B4B4B;}
	.st44{fill:#FFEFEA;}
	.st45{clip-path:url(#SVGID_00000170994096174206140710000006090041471613450938_);}
	.st46{fill:#D3AB87;}
	.st47{clip-path:url(#SVGID_00000156545817801873844020000004359778092507096498_);}
	.st48{fill:#C79D7D;}
	.st49{fill:#E5C1A4;}
	.st50{clip-path:url(#SVGID_00000018923237558723745500000014319659620526037694_);}
	.st51{fill:#DAB08B;}
	.st52{fill:#F2DCC7;}
	.st53{fill:#C99477;}
	.st54{fill:#F6EFE8;}
	.st55{fill:#F5D4BC;}
	.st56{filter:url(#Adobe_OpacityMaskFilter_00000070839766698677640950000000197101175436686269_);}
	.st57{mask:url(#SVGID_00000044857488616512325300000002652908639166676384_);}
	.st58{fill:#F3A695;}
	.st59{filter:url(#Adobe_OpacityMaskFilter_00000155147674472380110580000005395125364108828327_);}
	.st60{mask:url(#SVGID_00000057839295663413612370000004489781110985961615_);}
	.st61{fill:#DC9488;}
	.st62{fill:#EABFA9;}
	.st63{fill:#FAE6DE;}
	.st64{clip-path:url(#SVGID_00000091016716049873322140000000685819520624954806_);fill:#FFEFEA;}
	.st65{clip-path:url(#SVGID_00000091016716049873322140000000685819520624954806_);fill:#DF6E63;}
	.st66{clip-path:url(#SVGID_00000091016716049873322140000000685819520624954806_);fill:#EC817D;}
	.st67{clip-path:url(#SVGID_00000091016716049873322140000000685819520624954806_);fill:#F19392;}
	.st68{fill:#BDA893;}
	.st69{fill:#DECAB4;}
	.st70{opacity:0.3;fill:#857F8C;}
	.st71{fill:#E4D3C4;}
	.st72{fill:#EDE4D3;}
	.st73{fill:#FAF5E8;}
	.st74{opacity:0.58;fill:#E4D3C4;}
	.st75{fill:#EDC7A7;}
	.st76{fill:#E1A58C;}
	.st77{fill:#F5F4E4;}
	.st78{opacity:0.42;fill:#604C3F;}
	.st79{fill:#E88A89;}
	.st80{opacity:0.5;fill:#75B0AA;}
	.st81{fill:#97A799;}
	.st82{fill:#E59595;}
	.st83{fill:#FBF0E4;}
	.st84{fill:#F8E6D1;}
	.st85{fill:#D78181;}
	.st86{fill:#F5C6AA;}
	.st87{fill:#FF1000;}
	.st88{fill:#D58B76;}
	.st89{fill:#76400F;}
</style>
<g>
	<path class="st44" d="M35.55,52.81c0,1.64-0.59,3.14-1.57,4.31l-0.02-0.02c-1.89,2.14-3.04,4.96-3.04,8.04
		c0,6.72,5.44,12.16,12.16,12.16s12.16-5.44,12.16-12.16c0-3.09-1.15-5.91-3.05-8.06l0.01,0c-0.96-1.16-1.54-2.64-1.54-4.27
		c0-3.69,2.99-6.69,6.69-6.69h-0.18h0.18h29.32c0.06-0.91,0.1-1.82,0.1-2.74C86.76,19.42,67.34,0,43.38,0C19.42,0,0,19.42,0,43.38
		c0,0.92,0.04,1.84,0.1,2.74h28.77C32.56,46.12,35.55,49.12,35.55,52.81z M38.04,62.75c1.29-1.53,1.42-4.69,1.42-4.69
		c0.63-34.96,15.6-45.79,15.6-45.79s-13.05,14.94-8.81,45.67c0.33,1.62,0.97,3.65,1.79,4.92v0c0.4,0.79,0.65,1.68,0.63,2.63
		c-0.06,3.09-2.6,5.54-5.69,5.49s-5.69-2.6-5.63-5.69C37.37,64.36,37.63,63.51,38.04,62.75z"/>
	<path class="st44" d="M57.35,46.12c-3.69,0-6.69,2.99-6.69,6.69c0,1.62,0.58,3.11,1.54,4.27l-0.01,0c1.9,2.15,3.05,4.97,3.05,8.06
		c0,6.72-5.44,12.16-12.16,12.16s-12.16-5.44-12.16-12.16c0-3.08,1.15-5.9,3.04-8.04l0.02,0.02c0.98-1.16,1.57-2.67,1.57-4.31
		c0-3.69-2.99-6.69-6.69-6.69H0.1C1.51,68.8,20.34,86.76,43.38,86.76c23.04,0,41.87-17.96,43.28-40.64H57.35z"/>
	<path class="st89" d="M42.98,70.98c3.09,0.06,5.63-2.4,5.69-5.49c0.02-0.95-0.23-1.84-0.63-2.63v0c-0.82-1.27-1.46-3.3-1.79-4.92
		c-4.23-30.74,8.81-45.67,8.81-45.67S40.1,23.1,39.46,58.06c0,0-0.14,3.15-1.42,4.69c-0.41,0.76-0.68,1.62-0.69,2.54
		C37.29,68.37,39.9,70.92,42.98,70.98z"/>
</g>
</svg>
