<?xml version="1.0" encoding="utf-8"?>
<!-- Generator: Adobe Illustrator 26.0.1, SVG Export Plug-In . SVG Version: 6.00 Build 0)  -->
<svg version="1.1" id="Layer_1" xmlns="http://www.w3.org/2000/svg" xmlns:xlink="http://www.w3.org/1999/xlink" x="0px" y="0px"
	 viewBox="0 0 86.76 86.76" style="enable-background:new 0 0 86.76 86.76;" xml:space="preserve">
<style type="text/css">
	.st0{fill:#F3F3F3;}
	.st1{clip-path:url(#SVGID_00000055674652852810817600000010914911720569358225_);}
	.st2{fill:#B3B3B3;}
	.st3{clip-path:url(#SVGID_00000103944367764001262730000009547665034344126371_);}
	.st4{fill:#A6A6A6;}
	.st5{fill:#C9C9C9;}
	.st6{clip-path:url(#SVGID_00000042008997235120617990000006182631413215594370_);}
	.st7{fill:#B9B9B9;}
	.st8{fill:#E0E0E0;}
	.st9{fill:#A1A1A1;}
	.st10{fill:#FFFFFF;}
	.st11{fill:#F0F0F0;}
	.st12{fill:#DBDBDB;}
	.st13{opacity:0.78;}
	.st14{filter:url(#Adobe_OpacityMaskFilter);}
	.st15{mask:url(#SVGID_00000053510298117412666660000000225048280929354654_);}
	.st16{fill:#BBBBBB;}
	.st17{filter:url(#Adobe_OpacityMaskFilter_00000163766894135056064850000002075682152442669486_);}
	.st18{mask:url(#SVGID_00000135663302669659325820000015134587678822777003_);}
	.st19{fill:#A8A8A8;}
	.st20{fill:#EBEBEB;}
	.st21{clip-path:url(#SVGID_00000008846758541729467520000013677346879298195081_);fill:#F3F3F3;}
	.st22{clip-path:url(#SVGID_00000008846758541729467520000013677346879298195081_);fill:#8F8F8F;}
	.st23{clip-path:url(#SVGID_00000008846758541729467520000013677346879298195081_);fill:#A1A1A1;}
	.st24{clip-path:url(#SVGID_00000008846758541729467520000013677346879298195081_);fill:#AFAFAF;}
	.st25{fill:#ACACAC;}
	.st26{fill:#CECECE;}
	.st27{opacity:0.3;fill:#828282;}
	.st28{fill:#D6D6D6;}
	.st29{fill:#E5E5E5;}
	.st30{fill:#F5F5F5;}
	.st31{opacity:0.58;fill:#D6D6D6;}
	.st32{fill:#CFCFCF;}
	.st33{fill:#B4B4B4;}
	.st34{opacity:0.42;fill:#515151;}
	.st35{opacity:0.5;fill:#9E9E9E;}
	.st36{fill:#ADADAD;}
	.st37{fill:#F2F2F2;}
	.st38{fill:#E9E9E9;}
	.st39{fill:#9B9B9B;}
	.st40{fill:#D1D1D1;}
	.st41{fill:#565656;}
	.st42{fill:#9F9F9F;}
	.st43{fill:#4B4B4B;}
	.st44{fill:#FFEFEA;}
	.st45{clip-path:url(#SVGID_00000177483297939601200970000015241164993671640998_);}
	.st46{fill:#D3AB87;}
	.st47{clip-path:url(#SVGID_00000085944604058857839170000013701371241932882304_);}
	.st48{fill:#C79D7D;}
	.st49{fill:#E5C1A4;}
	.st50{clip-path:url(#SVGID_00000139263590310077301370000009939877599400152997_);}
	.st51{fill:#DAB08B;}
	.st52{fill:#F2DCC7;}
	.st53{fill:#C99477;}
	.st54{fill:#F6EFE8;}
	.st55{fill:#F5D4BC;}
	.st56{filter:url(#Adobe_OpacityMaskFilter_00000161609595517658363910000004827955235987935649_);}
	.st57{mask:url(#SVGID_00000056391927309857465150000015890232822965078428_);}
	.st58{fill:#F3A695;}
	.st59{filter:url(#Adobe_OpacityMaskFilter_00000122708445218144792680000007409428004686331798_);}
	.st60{mask:url(#SVGID_00000105395620560984729150000009086995616756340659_);}
	.st61{fill:#DC9488;}
	.st62{fill:#EABFA9;}
	.st63{fill:#FAE6DE;}
	.st64{clip-path:url(#SVGID_00000011723687057678413650000015101419948980429188_);fill:#FFEFEA;}
	.st65{clip-path:url(#SVGID_00000011723687057678413650000015101419948980429188_);fill:#DF6E63;}
	.st66{clip-path:url(#SVGID_00000011723687057678413650000015101419948980429188_);fill:#EC817D;}
	.st67{clip-path:url(#SVGID_00000011723687057678413650000015101419948980429188_);fill:#F19392;}
	.st68{fill:#BDA893;}
	.st69{fill:#DECAB4;}
	.st70{opacity:0.3;fill:#857F8C;}
	.st71{fill:#E4D3C4;}
	.st72{fill:#EDE4D3;}
	.st73{fill:#FAF5E8;}
	.st74{opacity:0.58;fill:#E4D3C4;}
	.st75{fill:#EDC7A7;}
	.st76{fill:#E1A58C;}
	.st77{fill:#F5F4E4;}
	.st78{opacity:0.42;fill:#604C3F;}
	.st79{fill:#E88A89;}
	.st80{opacity:0.5;fill:#75B0AA;}
	.st81{fill:#97A799;}
	.st82{fill:#E59595;}
	.st83{fill:#FBF0E4;}
	.st84{fill:#F8E6D1;}
	.st85{fill:#D78181;}
	.st86{fill:#F5C6AA;}
	.st87{fill:#FF1000;}
	.st88{fill:#D58B76;}
	.st89{fill:#76400F;}
</style>
<g>
	<path class="st0" d="M43.38,0C19.42,0,0,19.42,0,43.38c0,18.79,11.95,34.78,28.65,40.81l2.91-6.59c-0.37-1.52-0.69-3.3-0.83-5.28
		l0,0C29.32,66.56,27.46,59,26.32,54.2c-0.09-0.3-0.27-0.86-0.49-1.58l0-0.01v0c-0.18-0.59-0.39-1.27-0.6-1.98c0,0,0,0,0,0
		c0,0,0,0,0,0c-0.61-2.06-1.24-4.33-1.3-5.07c-0.11-1.46,3.94-10.8,4.5-12.71c0.56-1.91,3.49-8.44,4.5-9.67
		c1.01-1.24,3.15-4.84,4.84-7.09c0.66-0.87,1.5-2.36,2.34-3.84c0,0-0.01-0.01-0.01-0.01c1.87-3.21,3.53-6.28,4.52-6.84
		c0.99-0.56,0.98,2.74,0.05,4.49c0,0,0,0,0,0c0.17,0.85,0.21,1.85,0.07,2.81c-0.34,2.36-6.19,13.5-6.97,14.96
		c-0.64,1.18-1.2,5.07-1.39,6.53c2.04-1.84,3.59-3.15,3.59-3.15c0.41-0.42,0.69-0.71,0.8-0.83c0.82-0.9,3.22-0.9,3.22-0.9
		s10.84,0.2,15.35,0.48c0,0,0-0.01,0-0.01c3.8,0.3,7.37,0.47,8.33,1.18c0.79,0.59-1.14,1.76-2.99,2.11
		c-0.24,0.26-0.45,0.44-0.45,0.44c-1.65,1.57-4.65,1.27-7.27,1.27c-2.62,0-7.17,0.62-7.18,0.62c1.77,0.69,4.94,1.95,7.1,2.98
		c1.02,0.49,2.08,1.24,3.03,2.04c2.98,1.94,5.77,3.69,6.3,4.59c0.43,0.75-1.52,0.63-3.16,0.02c-0.2,0.1-0.44,0.22-0.77,0.39
		c-2.73,1.38-5.77-1.27-7.8-2.32s-3.44-1.78-4.56-1.78c-1.12,0-1.86,0.15-3.21,0.98c-0.73,0.45-2.23,2.46-4.63,4.5
		c-0.01,0-0.01,0.01-0.02,0.01c1.71-1.07,3.54-2.06,4.99-2.44c1.2-0.31,4.57,0.9,5.32,1.2c0.75,0.3,1.8,0.3,3.82,1.87
		c0.08,0.06,0.15,0.12,0.22,0.18c0.01-0.01,0.01-0.02,0.01-0.02c2.32,1.58,4.55,2.98,4.84,3.89c0.21,0.66-1.13,0.95-2.37,0.77
		c-0.73,0.65-2,0.72-3.23,0.42c-1.31-0.33-3.37-1.95-3.37-1.95s-1.5-0.45-2.7,0c-0.86,0.32-3.72,1.83-5.17,3.68
		c-0.57,0.73-0.55,1.56-0.67,2.32c-0.45,2.7,3.15,8.7,4.5,11.85s1.54,6.78,1.23,9.28c-0.07,0.6-1.23,3.62-2.28,4.52
		c-0.71,0.61-1.29,1.64-2.15,4.32c23.18-0.88,41.7-19.94,41.7-43.34C86.76,19.42,67.34,0,43.38,0z"/>
	<path class="st40" d="M25.32,49.86c-0.01-0.06-0.02-0.11-0.03-0.17c-0.03,0.3-0.05,0.61-0.06,0.94c0.21,0.71,0.42,1.4,0.6,1.98
		c0,0,0-0.11,0.04-0.3C25.6,51.15,25.4,50.29,25.32,49.86z"/>
	<path class="st40" d="M25.83,52.62c0.22,0.73,0.4,1.29,0.49,1.58c0,0,0-0.01,0-0.01L25.83,52.62z"/>
	<path class="st40" d="M25.17,47.35c0-0.01,0-0.02,0-0.02c0.02-0.11,0.03-0.21,0.06-0.32c0.17-0.7,0.31-1.23,0.58-1.76
		c0.2-0.38,1.62-2.29,2.61-3.36c0.85-0.91,1.81-1.93,2.75-2.85c1.71-1.68,3.6-3.42,5.2-4.85c0.19-1.46,0.75-5.35,1.39-6.53
		c0.79-1.46,6.64-12.6,6.97-14.96c0.14-0.96,0.09-1.96-0.07-2.81c-2.35,4.42-4.48,2.42-4.56,2.34c-0.84,1.48-1.69,2.97-2.34,3.84
		c-1.69,2.25-3.82,5.85-4.84,7.09c-1.01,1.24-3.94,7.76-4.5,9.67c-0.56,1.91-4.61,11.25-4.5,12.71c0.06,0.74,0.69,3.01,1.3,5.07
		C25.22,50.61,24.81,49.17,25.17,47.35z"/>
	<path class="st41" d="M43.35,7.65c0.58,0.07,1.07,1,1.31,2.25c0,0,0,0,0,0c0.93-1.76,0.94-5.05-0.05-4.49
		c-0.99,0.56-2.65,3.62-4.52,6.84c0,0,0.01,0.01,0.01,0.01C41.43,9.9,42.75,7.58,43.35,7.65z"/>
	<path class="st41" d="M44.66,9.89c-0.24-1.24-0.74-2.18-1.31-2.25c-0.6-0.07-1.92,2.26-3.24,4.59
		C40.18,12.31,42.32,14.31,44.66,9.89z"/>
	<path class="st40" d="M31.71,53.6c-0.41,0.44-0.64,0.91-0.87,1.39c-0.62,1.25-0.79,2.44-0.79,2.44c-0.16-1.05-0.22-1.79,0.04-2.4
		c0.38-0.9,1.12-1.41,1.62-1.66l-0.02-7.03c0,0,0.09-0.09,0.22-0.22c-0.51,0.49-0.81,0.79-0.81,0.79s4.36-5.92,10.54-11.73
		c0.36-0.34,0.97-0.76,1.7-1.04c0.77-0.29,2.04-0.03,3.12,0.17c1.63,0.29,3.3,1.1,3.32,1.11c0,0,0,0,0,0c0.01,0,4.55-0.62,7.18-0.62
		c2.62,0,5.62,0.3,7.27-1.27c0,0,0.21-0.18,0.45-0.44c-0.4,0.08-0.79,0.12-1.15,0.1c-5.13-0.19-4.23-3.26-4.2-3.38
		c-4.51-0.28-15.35-0.48-15.35-0.48s-2.4,0-3.22,0.9c-0.1,0.11-0.39,0.4-0.8,0.83l0,0c0,0-1.82,2.15-4.07,4.53l-9.5,18.86
		c0,0-0.03-0.09-0.07-0.23c1.14,4.8,3,12.35,4.42,18.12c0,0,0.47,1.81,1.02,3.99L31.71,53.6z"/>
	<path class="st40" d="M25.17,47.35c0-0.01,0-0.02,0-0.02C25.18,47.33,25.17,47.34,25.17,47.35z"/>
	<path class="st40" d="M26.31,54.19c0,0,0,0.01,0,0.01c0.04,0.14,0.07,0.23,0.07,0.23L26.31,54.19z"/>
	<path class="st40" d="M27.71,44.1c-1.55,2.19-2.23,3.73-2.42,5.59c0.01,0.06,0.02,0.11,0.03,0.17c0.08,0.43,0.28,1.29,0.55,2.45
		c0.12-0.57,0.56-1.87,2.17-3.05c0,0-1.74,1.38-1.65,5.18l9.5-18.86c-0.26,0.27-0.52,0.55-0.79,0.83
		C32.11,39.49,28.67,42.73,27.71,44.1z"/>
	<path class="st40" d="M47.21,82.4c1.05-0.9,2.2-3.92,2.28-4.52c0.31-2.5,0.12-6.13-1.23-9.28s-4.95-9.15-4.5-11.85
		c0.13-0.76,0.1-1.59,0.67-2.32c1.46-1.85,4.31-3.35,5.17-3.68c1.2-0.45,2.7,0,2.7,0s2.06,1.62,3.37,1.95
		c1.23,0.31,2.5,0.23,3.23-0.42c-0.49-0.07-0.96-0.21-1.33-0.43c-3.16-1.92-1.31-4.06-1.16-4.22c-0.07-0.06-0.14-0.12-0.22-0.18
		c-2.02-1.57-3.07-1.57-3.82-1.87c-0.75-0.3-4.13-1.51-5.32-1.2c-1.44,0.38-3.28,1.37-4.99,2.44c-3.85,2.62-6.14,6.07-6.14,6.07
		s0.16-1.09,1.11-2.53l-0.03,0.02c0,0,0.02-0.02,0.04-0.03c0.35-0.53,0.81-1.11,1.41-1.71c1.42-1.4,6.8-4.93,6.8-4.93l-3.17,3.09
		c2.4-2.04,3.9-4.06,4.63-4.5c1.35-0.82,2.08-0.98,3.21-0.98c1.12,0,2.54,0.73,4.56,1.78s5.07,3.71,7.8,2.32
		c0.33-0.17,0.57-0.29,0.77-0.39c-0.39-0.14-0.76-0.32-1.08-0.51c-4.29-2.6-2.26-4.24-2.26-4.24c0.07,0.05,0.14,0.09,0.21,0.14
		c-0.96-0.8-2.01-1.56-3.03-2.04c-2.16-1.03-5.33-2.29-7.1-2.98l0,0L36.3,46l-3.56,34.19c0.26,1.03,0.48,1.97,0.64,2.64
		c0,0-1.02-2-1.81-5.23l-2.91,6.59c4.6,1.66,9.56,2.57,14.73,2.57c0.56,0,1.12-0.02,1.68-0.04C45.92,84.04,46.5,83.01,47.21,82.4z"
		/>
	<path class="st40" d="M37.01,50.38l0.03-0.02c0,0,0,0,0-0.01C37.04,50.37,37.01,50.38,37.01,50.38z"/>
	<path class="st40" d="M42.95,35.71c-1.77,1.48-8.66,8.11-11.04,10.41c-0.13,0.13-0.22,0.22-0.22,0.22l0.02,7.03
		c0.3-0.15,0.51-0.21,0.51-0.21c-0.2,0.14-0.36,0.29-0.51,0.45l0.06,22.71c0.32,1.26,0.67,2.64,0.98,3.88L36.3,46l13.48-10.59
		C49.78,35.41,45.1,33.91,42.95,35.71z"/>
	<polygon class="st40" points="49.78,35.41 49.78,35.41 49.78,35.41 	"/>
	<path class="st41" d="M63.48,43.94l0.27,0.75c0,0-0.01,0-0.7,0.36c1.65,0.61,3.6,0.72,3.16-0.02c-0.52-0.9-3.32-2.65-6.3-4.59
		C61.91,42.09,63.48,43.94,63.48,43.94z"/>
	<path class="st41" d="M61.97,44.54c0.32,0.19,0.69,0.37,1.08,0.51c0.69-0.35,0.7-0.36,0.7-0.36l-0.27-0.75c0,0-1.57-1.85-3.57-3.51
		c-0.07-0.05-0.14-0.09-0.21-0.14C59.71,40.29,57.68,41.93,61.97,44.54z"/>
	<path class="st41" d="M59.43,51.51c-0.11,0.32-0.29,0.58-0.52,0.78c1.24,0.18,2.58-0.12,2.37-0.77c-0.29-0.92-2.52-2.31-4.84-3.89
		c0,0-0.01,0.01-0.01,0.02C58.32,49.22,59.43,51.51,59.43,51.51z"/>
	<path class="st41" d="M57.59,51.86c0.36,0.22,0.84,0.36,1.33,0.43c0.23-0.2,0.41-0.46,0.52-0.78c0,0-1.11-2.29-3-3.87
		C56.28,47.81,54.42,49.94,57.59,51.86z"/>
	<path class="st41" d="M65.4,31.49c0.28,0.39-0.28,1.11-0.72,1.58c1.85-0.35,3.77-1.52,2.99-2.11c-0.95-0.71-4.53-0.88-8.33-1.18
		c0,0,0,0.01,0,0.01c1.02,0.06,1.71,0.13,1.89,0.2C61.82,30.22,64.72,30.54,65.4,31.49z"/>
	<path class="st41" d="M63.54,33.17c0.36,0.01,0.75-0.03,1.15-0.1c0.44-0.47,1-1.19,0.72-1.58c-0.68-0.95-3.57-1.27-4.17-1.5
		c-0.18-0.07-0.88-0.14-1.89-0.2C59.3,29.91,58.41,32.98,63.54,33.17z"/>
	<path class="st42" d="M30.09,55.03c-0.26,0.61-0.2,1.35-0.04,2.4c0,0,0.16-1.19,0.79-2.44c0.24-0.48,0.46-0.95,0.87-1.39l0-0.23
		C31.21,53.62,30.47,54.13,30.09,55.03z"/>
	<path class="st42" d="M32.22,53.16c0,0-0.21,0.06-0.51,0.21l0,0.23C31.85,53.45,32.02,53.3,32.22,53.16z"/>
	<polygon class="st42" points="25.82,52.61 25.83,52.62 25.82,52.61 	"/>
	<path class="st42" d="M25.87,52.31c-0.04,0.19-0.04,0.3-0.04,0.3c0,0,0,0.01,0,0.01l0.49,1.57C26.15,53.5,26,52.87,25.87,52.31z"/>
	<path class="st42" d="M28.04,49.26c-1.61,1.18-2.05,2.47-2.17,3.05c0.13,0.56,0.28,1.19,0.45,1.88l0.08,0.25
		C26.3,50.64,28.04,49.26,28.04,49.26z"/>
	<polygon class="st42" points="25.23,50.62 25.23,50.62 25.23,50.62 	"/>
	<path class="st42" d="M39.97,31.04c0,0-1.54,1.32-3.59,3.15c-0.05,0.35-0.07,0.56-0.07,0.56C37.82,33.22,39.15,31.87,39.97,31.04z"
		/>
	<path class="st42" d="M28.44,41.89c-0.99,1.06-2.41,2.98-2.61,3.36c-0.28,0.52-0.41,1.06-0.58,1.76c-0.03,0.11-0.04,0.21-0.06,0.32
		c0.2-1.22,0.8-2.17,1.64-3.01c0.84-0.84,5.72-5.75,9.49-9.56c0,0,0.03-0.21,0.07-0.56c-1.59,1.43-3.49,3.17-5.2,4.85
		C30.25,39.96,29.29,40.98,28.44,41.89z"/>
	<path class="st42" d="M25.17,47.35c-0.36,1.83,0.05,3.26,0.05,3.28c0,0,0,0,0,0c0.01-0.32,0.03-0.63,0.06-0.94
		C25.1,48.81,25.07,48.03,25.17,47.35z"/>
	<path class="st42" d="M36.3,34.75l-0.41,0.82c2.26-2.39,4.07-4.53,4.07-4.53l0,0C39.15,31.87,37.82,33.22,36.3,34.75L36.3,34.75z"
		/>
	<path class="st42" d="M36.3,34.75c-3.76,3.8-8.65,8.72-9.49,9.56c-0.84,0.84-1.45,1.8-1.64,3.01c0,0.01,0,0.02,0,0.02
		c-0.11,0.69-0.07,1.46,0.11,2.34c0.19-1.86,0.87-3.4,2.42-5.59c0.96-1.36,4.41-4.61,7.4-7.7c0.27-0.28,0.53-0.55,0.79-0.83
		L36.3,34.75L36.3,34.75z"/>
	<path class="st42" d="M46.63,34.48c1.31,0.31,1.82,0.42,1.82,0.42s0.52,0.2,1.32,0.51c-0.02-0.01-1.7-0.82-3.32-1.11
		c-1.09-0.19-2.35-0.46-3.12-0.17c-0.73,0.28-1.34,0.7-1.7,1.04C35.46,40.98,31.09,46.9,31.09,46.9s0.31-0.3,0.81-0.79
		c1.15-1.19,6.98-7.16,9.88-10.08C42.58,35.24,44.68,34.01,46.63,34.48z"/>
	<path class="st42" d="M48.46,34.9c0,0-0.51-0.11-1.82-0.42c-1.95-0.46-4.05,0.76-4.85,1.56c-2.9,2.92-8.72,8.89-9.88,10.08
		c2.38-2.29,9.27-8.92,11.04-10.41c2.15-1.8,6.83-0.3,6.83-0.3s0,0,0,0C48.97,35.09,48.46,34.9,48.46,34.9z"/>
	<path class="st42" d="M42.07,46.82c0.01,0,0.01-0.01,0.02-0.01L42.07,46.82C42.07,46.82,42.07,46.82,42.07,46.82z"/>
	<path class="st42" d="M38.46,48.65c-0.6,0.6-1.06,1.17-1.41,1.71c0.22-0.17,2.47-1.93,5.02-3.53l0.02-0.01l3.17-3.09
		C45.26,43.72,39.88,47.25,38.46,48.65z"/>
	<path class="st42" d="M37.05,50.36c-0.95,1.45-1.11,2.53-1.11,2.53s2.29-3.45,6.14-6.07c0,0,0,0,0,0L37.05,50.36z"/>
	<path class="st42" d="M37.05,50.36C37.05,50.36,37.05,50.36,37.05,50.36l5.02-3.53C39.52,48.42,37.27,50.18,37.05,50.36z"/>
	<path class="st42" d="M31.76,76.47c-0.3-1.2-0.64-2.61-1.02-4.15l0,0c0.14,1.98,0.46,3.76,0.83,5.28l0.2-0.45L31.76,76.47z"/>
	<path class="st42" d="M31.76,76.31c-0.56-2.18-1.02-3.98-1.02-3.99c0.38,1.54,0.73,2.95,1.02,4.15L31.76,76.31z"/>
	<path class="st42" d="M32.74,80.19l-0.02,0.16c0,0-0.38-1.52-0.96-3.88l0,0.68l-0.2,0.45c0.79,3.23,1.81,5.23,1.81,5.23
		C33.23,82.16,33,81.23,32.74,80.19z"/>
	<path class="st42" d="M31.76,76.47c0.58,2.36,0.96,3.88,0.96,3.88l0.02-0.16c-0.31-1.24-0.66-2.62-0.98-3.88L31.76,76.47z"/>
</g>
</svg>
