<?xml version="1.0" encoding="utf-8"?>
<!-- Generator: Adobe Illustrator 26.0.1, SVG Export Plug-In . SVG Version: 6.00 Build 0)  -->
<svg version="1.1" id="Layer_1" xmlns="http://www.w3.org/2000/svg" xmlns:xlink="http://www.w3.org/1999/xlink" x="0px" y="0px"
	 viewBox="0 0 214.14 83.51" style="enable-background:new 0 0 214.14 83.51;" xml:space="preserve">
<style type="text/css">
	.st0{enable-background:new    ;}
	.st1{fill:#FFFFFF;}
	.st2{fill:#707070;}
	.st3{fill:none;stroke:#707070;stroke-width:0.3;stroke-miterlimit:4.0005;}
</style>
<g>
	<g class="st0">
		<path class="st1" d="M0,19.04c2.16-3,4.16-5.96,5.64-9.48C6.88,6.6,7.92,3.28,8.96,0.2c0.72,0.28,1.6,0.64,2.28,0.96
			c-0.72,2.48-1.6,4.96-2.44,7.36l-0.72,2.04v26.28H5.6l0.04-21.4c-1.08,1.64-2.56,3.6-3.84,5.2L0,19.04z M9.72,34.55
			c2.96-1.04,5.88-2.4,8.2-4.8c-1.84-1.6-3.76-3.84-5.24-5.68l2.12-1.32c1.64,1.96,2.88,3.44,4.72,4.92
			c0.76-0.96,1.24-1.96,1.6-3.12c0.16-0.84,0.24-1.8,0.44-3.16h-9.24V10.64l9.36-0.04V7.2H10.56V4.76h11.12V0.12l2.64-0.04v4.68
			h11.32V7.2H24.36v3.44h9.36L33.67,21.4h-9.44c-0.44,4.16-0.92,5.52-2.48,7.84c0.16,0.24,0.48,0.4,0.72,0.48
			c4.32,2.88,9.68,3.64,15.04,4.24l-1.52,2.48c-1.32-0.08-2.68-0.36-4-0.64c-4.2-0.84-8.2-2.2-11.84-4.44
			c-2.6,2.52-5.48,4.08-8.48,5.44L9.72,34.55z M21.68,13.04l-6.92,0.04v5.88L21.64,19L21.68,13.04z M31.24,13.04l-6.88,0.04v5.88
			h6.84L31.24,13.04z"/>
		<path class="st1" d="M81.12,32.79c0,1.64-1.2,2.96-2.72,2.96h-3.96l-0.8-2.6c1.68,0.16,2.68,0.24,3.92,0.2
			c0.56,0,1.08-0.28,1.08-1.08v-9.4h-9.8v9.8H66.4v-9.8h-9.68c-0.4,4-0.56,6.44-3,10.16c-0.8,1.2-1.56,2.36-2.8,3.8l-2.12-1.64
			c1.52-1.8,2.76-3.4,3.72-5.44c1.16-2.44,1.4-4.36,1.68-7.52c0.12-1.2,0.08-2.72,0.08-4.16v-16h26.84V32.79z M56.76,4.4v6.8h9.64
			V4.4H56.76z M56.76,20.6h9.64v-7.12h-9.64V20.6z M68.84,11.2h9.8V4.4h-9.8V11.2z M68.84,13.48v7.12h9.8v-7.12H68.84z"/>
		<path class="st1" d="M104.4,23.08l-5.44,2.36l-1.84-2.04l7.12-2.96v-8.88h-3.4c-0.6,2.24-1.36,3.96-2.56,6.24L96,16.56
			c2.28-3.76,3.24-7.24,3.64-11.6l2.44,0.68c-0.04,0.92-0.32,2.24-0.48,3.56h2.68V0.6l2.44-0.04l0.04,8.64h3.72l0.04,2.36h-3.76
			l0.04,7.6l4-1.56v2.6l-3.88,1.72l-0.04,14.76h-2.48V23.08z M119.08,33.99c1.48,0.08,3.04,0.24,4.6,0.12c0.36-0.16,0.8-0.4,1-0.84
			l0.08-0.72v-8.84H110.8v-2.36h13.96V17.6h2.48l0.04,3.76h4.8v2.36h-4.8v9.84c0,1.16-0.96,2.2-2,2.68
			c-1.56,0.44-3.44,0.12-5.16,0.24L119.08,33.99z M131.23,14.16v2.4h-19.6v-2.4H120l0.04-6.12L113.2,8l-0.04-2.36h6.8V0.32h2.52
			v5.32h7.24L129.75,8h-7.2l-0.04,6.16H131.23z M118.64,31.35c-1.6-2.04-3.64-3.92-6-4.84l1.64-1.56c2.48,0.88,4.56,2.68,6.28,4.76
			L118.64,31.35z"/>
		<path class="st1" d="M144.48,35.07c0.52-0.24,0.84-0.72,1.24-1.12c1.2-1.52,2.36-3.24,2.6-5.28l2.04,0.76
			c-0.08,1.4-0.72,2.6-1.36,3.76c-0.64,1.2-1.52,2.28-2.48,3.28L144.48,35.07z M156.8,24.36l8.56-0.96v2.24l-19.2,2.08l-1.28-2.28
			l9.44-0.76V21.4h-6.64l-0.04-2.16h6.68v-3.08h-7.48V2.4H164l-0.04,13.68h-7.16v3.16h6.56v2.12l-6.52,0.04L156.8,24.36z
			 M149.16,4.56v9.4h5.16v-9.4H149.16z M151.4,5.76c1.08,1.92,1.64,4,2,6.2l-2,0.72c-0.12-2.24-0.6-4.48-1.8-6.28L151.4,5.76z
			 M152.52,35.67c-0.2-2.08-0.64-4.36-1.16-5.96l2.2-0.68c0.92,1.88,1.32,4.12,1.52,6.28L152.52,35.67z M158.12,28.24
			c1,1.88,1.84,3.92,2.08,6.08l-2.24,0.6c-0.16-2.32-1-4.4-2.16-6.24L158.12,28.24z M161.68,4.56h-4.88v9.36h4.92L161.68,4.56z
			 M157,12.08c1.2-1.96,2-4.08,2.2-6.4l1.76,0.56c-0.32,2.28-0.88,4.48-2.08,6.36L157,12.08z M162.68,27.28
			c1.24,1.76,2.4,3.92,2.8,6l-2.36,0.6c-0.36-2.24-1.24-4.16-2.84-5.88L162.68,27.28z M169.84,19.36V0.04L172.32,0v7.88h7.8v2.36
			h-7.8v9.12h5.8v17.2h-2.32v-2.88h-7.04l0.04,2.92h-2.36l-0.04-17.24H169.84z M175.75,21.64h-6.96v9.8l6.96-0.04V21.64z"/>
	</g>
	<g class="st0">
		<path class="st2" d="M118.78,38.73c2.29-0.61,3.95-0.83,5-0.64c1.04,0.19,1.66,0.65,1.86,1.39c0.12,0.43,0.03,0.84-0.27,1.22
			c-0.3,0.38-0.58,0.6-0.86,0.68c-0.28,0.07-0.43,0.05-0.47-0.07c-0.02-0.06,0.01-0.15,0.08-0.27c0.04-0.11,0.09-0.24,0.17-0.39
			c0.07-0.15,0.1-0.29,0.06-0.42c-0.12-0.43-0.65-0.65-1.61-0.64c-0.96,0.01-2.24,0.23-3.85,0.66c-2.23,0.6-4.41,1.36-6.55,2.28
			c-2.14,0.92-4.28,1.98-6.43,3.19c-2.15,1.21-4.33,2.55-6.55,4.02c-2.22,1.47-4.54,3.08-6.96,4.82c0.7-0.35,1.58-0.78,2.64-1.28
			c1.06-0.5,2.15-0.9,3.26-1.2c0.8-0.22,1.56-0.34,2.28-0.39c0.72-0.04,1.38,0.07,1.98,0.34c0.11-0.59,0.19-1.09,0.24-1.51
			c0.06-0.41,0.13-0.75,0.23-1.01c0.09-0.39,0.23-0.61,0.42-0.66c0.12-0.03,0.25,0.18,0.37,0.65c0.12,0.46,0.23,1.1,0.31,1.9
			c0.08,0.81,0.13,1.6,0.14,2.4c0.03-0.01,0.08,0.1,0.13,0.31c0.1,0.5,0.14,1.13,0.11,1.88c-0.03,0.75-0.09,1.56-0.17,2.41
			c-0.09,0.85-0.19,1.68-0.32,2.5c-0.13,0.81-0.23,1.53-0.29,2.14c1.99-0.96,4.15-1.81,6.48-2.53l0.32-0.09
			c0.8-0.22,1.23-0.21,1.29,0c0.07,0.25-0.24,0.46-0.92,0.64c-0.22,0.06-0.43,0.1-0.64,0.12c-0.21,0.02-0.42,0.06-0.64,0.12
			c-1.01,0.31-2.02,0.62-3.03,0.94c-1.01,0.32-1.99,0.69-2.93,1.11c-0.4,2.59-0.7,5.47-0.91,8.65c-0.21,3.17-0.29,6.75-0.25,10.75
			c0,0.36-0.06,0.56-0.19,0.6c-0.16,0.04-0.36-0.12-0.63-0.48c-0.26-0.36-0.46-0.79-0.59-1.28c-0.11-0.4-0.17-1.17-0.17-2.31
			s0.01-2.5,0.05-4.09c0.04-1.58,0.11-3.31,0.2-5.17c0.1-1.86,0.2-3.76,0.32-5.68c-0.85,0.43-1.63,0.86-2.36,1.3
			s-1.41,0.88-2.06,1.32c-0.14,0.1-0.27,0.23-0.4,0.38c-0.13,0.15-0.3,0.25-0.51,0.31c-0.16,0.04-0.24,0.02-0.27-0.08
			c-0.03-0.12,0.2-0.37,0.7-0.73c0.68-0.45,1.38-0.86,2.1-1.23c0.73-0.38,1.65-0.88,2.77-1.51c0.15-2.29,0.32-4.48,0.52-6.58
			c0.2-2.09,0.39-3.86,0.57-5.3c-0.54-0.29-1.16-0.42-1.87-0.39c-0.71,0.02-1.46,0.14-2.27,0.36c-0.87,0.23-1.77,0.56-2.72,0.98
			c-0.95,0.42-1.87,0.89-2.78,1.42c-0.9,0.52-1.77,1.06-2.6,1.62c-0.83,0.55-1.58,1.07-2.24,1.55c-0.11,0.09-0.28,0.18-0.53,0.24
			c-0.25,0.07-0.39,0.04-0.42-0.09c-0.05-0.19,0.11-0.41,0.47-0.67c2.51-1.9,5.04-3.79,7.6-5.67c2.56-1.88,5.15-3.65,7.77-5.31
			c2.62-1.66,5.25-3.15,7.88-4.45C113.49,40.5,116.13,39.47,118.78,38.73z M102.26,74.97c0.1-2.21,0.25-4.27,0.44-6.16
			c0.19-1.89,0.39-3.66,0.62-5.31l-1.03,0.43c-0.05,1.9-0.07,3.79-0.05,5.65C102.25,71.45,102.26,73.24,102.26,74.97z M103.37,63.19
			c0.07-0.48,0.17-1.09,0.31-1.82c0.13-0.73,0.26-1.49,0.38-2.29c0.12-0.79,0.21-1.58,0.26-2.36c0.06-0.78,0.06-1.46,0-2.04
			c-0.01,0.57-0.06,1.04-0.15,1.41c-0.08,0.37-0.2,0.58-0.36,0.62c-0.16,0.04-0.27-0.09-0.36-0.4c-0.01-0.03-0.01-0.07-0.01-0.12
			c0-0.05,0.01-0.19,0.01-0.43c0-0.23,0.01-0.57,0.03-1c0.02-0.44,0.05-1.06,0.1-1.87c-0.1-0.11-0.2-0.2-0.33-0.29
			c-0.12-0.08-0.25-0.17-0.37-0.27c-0.17,1.47-0.31,3.19-0.41,5.15c-0.1,1.97-0.17,4.05-0.21,6.24L103.37,63.19z M103.4,49.37
			c-0.07,0.35-0.15,0.76-0.24,1.23c-0.09,0.47-0.17,1-0.25,1.58c0.35,0.2,0.59,0.36,0.72,0.45c0.01-0.57,0-1.13-0.03-1.71
			C103.55,50.36,103.49,49.84,103.4,49.37z"/>
		<path class="st2" d="M130.26,58.36c0.1-0.13,0.21-0.21,0.33-0.24c0.19-0.05,0.3,0,0.34,0.16c0.04,0.16-0.01,0.32-0.17,0.49
			c-0.46,0.52-1.04,1.16-1.75,1.91c-0.71,0.75-1.46,1.49-2.24,2.22c-0.78,0.73-1.58,1.38-2.38,1.96c-0.81,0.58-1.53,0.96-2.18,1.13
			c-0.53,0.14-0.99,0.08-1.39-0.17c-0.4-0.26-0.68-0.68-0.84-1.27c-0.16-0.59-0.21-1.27-0.15-2.05c0.06-0.78,0.19-1.53,0.39-2.27
			c0.2-0.73,0.47-1.37,0.81-1.91c0.34-0.54,0.72-0.86,1.15-0.98c0.31-0.08,0.59-0.04,0.85,0.12c0.26,0.16,0.43,0.41,0.52,0.75
			c0.17,0.65,0.07,1.34-0.31,2.07c-0.38,0.73-0.83,1.4-1.33,2c-0.26,0.27-0.48,0.46-0.67,0.58c-0.18,0.12-0.35,0.19-0.51,0.23
			c-0.16,0.04-0.27,0.06-0.34,0.04c-0.11,0.69-0.1,1.29,0.03,1.78c0.09,0.34,0.26,0.59,0.5,0.76c0.24,0.17,0.57,0.2,0.97,0.09
			c0.56-0.15,1.22-0.53,1.98-1.13c0.77-0.6,1.54-1.29,2.33-2.04c0.79-0.76,1.55-1.52,2.27-2.3
			C129.21,59.53,129.8,58.88,130.26,58.36z M122.56,57.99c-0.25,0.07-0.56,0.47-0.94,1.22c-0.38,0.75-0.68,1.58-0.9,2.5
			c0.24-0.23,0.49-0.51,0.77-0.85c0.27-0.34,0.52-0.68,0.75-1.02c0.22-0.34,0.39-0.66,0.51-0.96c0.12-0.3,0.15-0.54,0.1-0.72
			C122.81,58.01,122.71,57.95,122.56,57.99z"/>
		<path class="st2" d="M147.43,53.81c0.1-0.12,0.19-0.2,0.29-0.23c0.19-0.05,0.3,0,0.34,0.16c0.04,0.15,0,0.31-0.12,0.48
			c-0.32,0.42-0.76,0.96-1.33,1.62c-0.57,0.67-1.18,1.34-1.85,2.01c-0.66,0.67-1.34,1.29-2.02,1.83c-0.68,0.55-1.32,0.9-1.9,1.06
			c-0.62,0.17-1.09,0.06-1.4-0.32c-0.32-0.38-0.55-0.85-0.7-1.4c-0.12-0.46-0.22-0.93-0.28-1.42c-0.06-0.48-0.13-0.86-0.21-1.14
			c-0.07-0.25-0.15-0.36-0.24-0.33s-0.21,0.22-0.34,0.59c0.07,0.15,0.14,0.29,0.19,0.45c0.06,0.15,0.11,0.3,0.15,0.46
			c0.12,0.43,0.1,0.79-0.06,1.08c-0.15,0.29-0.34,0.46-0.56,0.52c-0.12,0.03-0.24,0.02-0.36-0.05c-0.04,0.21-0.11,0.53-0.19,0.97
			c-0.08,0.44-0.2,0.87-0.35,1.31c-0.15,0.44-0.3,0.83-0.46,1.17c-0.16,0.34-0.33,0.54-0.51,0.58c-0.34,0.09-0.63,0-0.87-0.27
			c-0.24-0.27-0.42-0.63-0.54-1.1c-0.13-0.49-0.2-1.07-0.19-1.74c0-0.66,0.07-1.3,0.21-1.92c0.13-0.62,0.34-1.15,0.61-1.61
			c0.28-0.45,0.63-0.74,1.06-0.86c0.37-0.1,0.69-0.08,0.96,0.07c0.27,0.14,0.51,0.37,0.73,0.67c0.25-0.56,0.48-0.87,0.69-0.93
			c0.31-0.08,0.53,0.11,0.65,0.57c0.12,0.43,0.19,0.97,0.21,1.61c0.02,0.64,0.1,1.22,0.25,1.75c0.1,0.37,0.25,0.67,0.44,0.9
			c0.19,0.23,0.49,0.29,0.89,0.18c0.53-0.14,1.12-0.49,1.78-1.05c0.66-0.56,1.31-1.19,1.95-1.89c0.64-0.7,1.23-1.41,1.77-2.11
			S147.11,54.23,147.43,53.81z M136.87,58.73c-0.02-0.09-0.03-0.17-0.02-0.24c0-0.23,0-0.51,0-0.84c-0.01-0.33-0.04-0.62-0.11-0.86
			c-0.07-0.28-0.17-0.4-0.3-0.37c-0.34,0.09-0.64,0.38-0.89,0.86c-0.25,0.48-0.45,1.04-0.6,1.68c-0.15,0.64-0.24,1.27-0.29,1.89
			c-0.05,0.63-0.02,1.12,0.08,1.5c0.12,0.43,0.31,0.61,0.59,0.54c0.09-0.02,0.21-0.18,0.35-0.47c0.14-0.29,0.26-0.59,0.37-0.92
			c0.11-0.33,0.22-0.65,0.32-0.95c0.1-0.31,0.17-0.52,0.21-0.63L136.87,58.73z"/>
		<path class="st2" d="M172.66,35.22c0.38-0.07,0.65-0.09,0.8-0.07c0.16,0.03,0.24,0.07,0.26,0.13c0.03,0.12-0.04,0.27-0.23,0.43
			c-0.19,0.17-0.39,0.28-0.61,0.34c-0.32,0.05-0.64,0.08-0.97,0.09c-0.33,0.01-0.65,0.05-0.96,0.13c-1.59,0.36-3.18,0.73-4.75,1.1
			c-1.57,0.37-3.15,0.77-4.72,1.19c-1.21,0.32-2.41,0.66-3.6,1.02c-1.2,0.35-2.38,0.72-3.53,1.1c-0.25,1.53-0.52,3.24-0.79,5.13
			c-0.27,1.9-0.49,3.79-0.67,5.67c-0.17,1.89-0.26,3.65-0.27,5.29c-0.01,1.64,0.12,2.96,0.39,3.95c0.12,0.43,0.31,0.84,0.57,1.21
			c0.27,0.38,0.66,0.49,1.19,0.35c0.65-0.17,1.38-0.78,2.19-1.83c0.81-1.05,1.61-2.24,2.4-3.57s1.51-2.67,2.19-3.99
			c0.67-1.32,1.19-2.36,1.55-3.12c0.07-0.22,0.19-0.35,0.34-0.39c0.15-0.04,0.25,0.02,0.29,0.17c0.03,0.12,0.01,0.28-0.07,0.47
			c-0.26,0.5-0.59,1.14-0.97,1.93c-0.39,0.78-0.82,1.61-1.3,2.49c-0.48,0.87-0.99,1.77-1.54,2.67c-0.55,0.91-1.11,1.74-1.67,2.49
			c-0.56,0.75-1.12,1.38-1.67,1.91c-0.55,0.53-1.08,0.86-1.57,0.99c-0.62,0.17-1.14,0-1.57-0.5c-0.43-0.5-0.78-1.24-1.05-2.23
			c-0.29-1.08-0.49-2.39-0.61-3.94c-0.12-1.54-0.16-3.15-0.13-4.84c0.03-1.68,0.12-3.37,0.26-5.06c0.14-1.69,0.33-3.23,0.55-4.62
			c-0.94,0.32-1.81,0.62-2.62,0.9c-0.8,0.28-1.59,0.59-2.36,0.93c-0.42,0.18-0.81,0.37-1.19,0.57c-0.38,0.2-0.77,0.39-1.19,0.57
			c-0.12,0.06-0.27,0.12-0.45,0.17c-0.37,0.1-0.57,0.09-0.61-0.04c-0.04-0.15,0.25-0.37,0.87-0.63c1.26-0.5,2.51-0.96,3.76-1.38
			c1.25-0.42,2.52-0.85,3.83-1.3c0.14-0.7,0.28-1.35,0.42-1.95c0.14-0.6,0.28-1.12,0.43-1.56c0.32-0.91,0.65-1.42,0.99-1.51
			c0.25-0.07,0.43,0.1,0.53,0.5c0.09,0.34,0.09,0.82-0.01,1.44l-0.39,2.44c2.12-0.74,4.22-1.41,6.29-2.03
			c2.07-0.62,4.17-1.22,6.3-1.79c0.93-0.25,1.86-0.5,2.81-0.75C170.73,35.64,171.69,35.41,172.66,35.22z"/>
		<path class="st2" d="M180.3,45c0.1-0.12,0.21-0.21,0.33-0.24c0.15-0.04,0.25,0.02,0.29,0.17c0.04,0.15,0,0.31-0.12,0.48
			c-0.32,0.42-0.78,1-1.4,1.74c-0.61,0.74-1.28,1.5-2,2.27c-0.72,0.77-1.44,1.47-2.17,2.1c-0.73,0.63-1.38,1.02-1.97,1.17
			c-0.46,0.12-0.82,0.07-1.06-0.16c-0.25-0.23-0.42-0.56-0.54-1c-0.08-0.31-0.15-0.66-0.19-1.04c-0.04-0.39-0.06-0.76-0.07-1.12
			c-0.01-0.36-0.02-0.69-0.03-0.99c-0.02-0.29-0.05-0.52-0.09-0.67c-0.04-0.15-0.11-0.22-0.2-0.19c-0.15,0.04-0.29,0.4-0.4,1.08
			c-0.11,0.68-0.24,1.41-0.37,2.21c-0.13,0.8-0.31,1.55-0.53,2.25c-0.22,0.71-0.53,1.11-0.93,1.22c-0.28,0.07-0.6-0.01-0.96-0.27
			c-0.36-0.25-0.65-0.76-0.86-1.53c-0.17-0.62-0.24-1.29-0.24-2c0.01-0.71,0.06-1.37,0.17-1.96c0.12-0.53,0.28-0.94,0.46-1.24
			c0.19-0.3,0.37-0.47,0.56-0.52c0.28-0.07,0.47,0.09,0.58,0.49c0.09,0.34,0.11,0.7,0.04,1.08c-0.03,0.27-0.08,0.62-0.15,1.03
			c-0.07,0.42-0.12,0.85-0.15,1.31c-0.03,0.45-0.04,0.9-0.04,1.33c0,0.43,0.04,0.79,0.11,1.06c0.09,0.34,0.23,0.5,0.42,0.48
			c0.22-0.16,0.41-0.56,0.56-1.2c0.16-0.64,0.32-1.33,0.48-2.07c0.16-0.74,0.33-1.41,0.51-2.03c0.18-0.61,0.41-0.95,0.68-1.03
			c0.28-0.07,0.46,0.07,0.56,0.45c0.06,0.22,0.09,0.5,0.11,0.84c0.01,0.34,0.02,0.71,0.01,1.09c-0.01,0.38,0,0.76,0.02,1.14
			c0.02,0.37,0.07,0.7,0.15,0.98c0.18,0.68,0.57,0.94,1.15,0.79c0.52-0.14,1.14-0.53,1.85-1.17c0.71-0.64,1.41-1.35,2.11-2.15
			c0.7-0.8,1.34-1.59,1.92-2.38C179.53,46.02,179.98,45.41,180.3,45z"/>
		<path class="st2" d="M199.17,39.74c0.05-0.05,0.14-0.09,0.27-0.12c0.22-0.06,0.35-0.01,0.39,0.14c0.05,0.19-0.04,0.36-0.26,0.52
			c-0.75,0.53-1.68,1.11-2.79,1.74c-1.11,0.63-2.2,1.09-3.28,1.38c-0.71,0.19-1.31,0.28-1.79,0.26s-0.88-0.1-1.18-0.23
			c-0.3-0.13-0.53-0.31-0.69-0.54c-0.16-0.22-0.28-0.47-0.35-0.75c-0.09-0.34-0.14-0.68-0.15-1.03c-0.01-0.34-0.04-0.61-0.09-0.8
			c-0.04-0.15-0.12-0.21-0.25-0.18c-0.37,0.1-0.72,0.55-1.05,1.35c-0.33,0.8-0.62,1.71-0.86,2.72c-0.24,1.01-0.44,2.02-0.6,3.04
			c-0.16,1.02-0.25,1.78-0.28,2.29c0.03,0.22-0.04,0.36-0.19,0.4c-0.31,0.08-0.55-0.01-0.72-0.28c-0.17-0.27-0.31-0.54-0.42-0.81
			l-0.06-0.23c-0.15-0.56-0.26-1.23-0.32-2.03c-0.06-0.79-0.09-1.56-0.09-2.29c0-0.73,0.06-1.37,0.16-1.91
			c0.1-0.54,0.26-0.84,0.48-0.9c0.15-0.04,0.27,0.06,0.33,0.31c0.05,0.19,0.06,0.4,0.02,0.64c-0.04,0.48-0.07,1.02-0.08,1.64
			c-0.02,0.62-0.02,1.24-0.02,1.87c0.18-0.68,0.4-1.37,0.64-2.06c0.24-0.7,0.51-1.33,0.81-1.91c0.29-0.57,0.61-1.07,0.95-1.47
			c0.34-0.4,0.69-0.66,1.06-0.76c0.37-0.1,0.61,0.07,0.73,0.5c0.06,0.22,0.1,0.47,0.13,0.76c0.03,0.29,0.08,0.57,0.15,0.85
			c0.07,0.25,0.16,0.49,0.29,0.72c0.13,0.23,0.31,0.41,0.54,0.55c0.24,0.14,0.55,0.22,0.94,0.25c0.39,0.03,0.86-0.03,1.42-0.18
			c0.53-0.14,1.07-0.35,1.65-0.62c0.57-0.27,1.14-0.57,1.7-0.9s1.09-0.67,1.59-1.02C198.38,40.31,198.81,40,199.17,39.74z"/>
		<path class="st2" d="M213.3,36.1c0.1-0.13,0.21-0.21,0.33-0.24c0.19-0.05,0.3,0,0.34,0.16c0.04,0.16-0.01,0.32-0.17,0.49
			c-0.46,0.52-1.04,1.16-1.75,1.91c-0.71,0.75-1.46,1.49-2.24,2.22c-0.78,0.72-1.58,1.38-2.38,1.96c-0.81,0.58-1.53,0.96-2.18,1.13
			c-0.53,0.14-0.99,0.08-1.39-0.17c-0.4-0.26-0.68-0.68-0.84-1.27c-0.16-0.59-0.21-1.27-0.15-2.05c0.06-0.78,0.19-1.53,0.39-2.27
			c0.2-0.73,0.47-1.37,0.81-1.91c0.34-0.54,0.72-0.87,1.15-0.98c0.31-0.08,0.59-0.04,0.85,0.12c0.26,0.16,0.43,0.41,0.53,0.75
			c0.17,0.65,0.07,1.34-0.31,2.07c-0.38,0.73-0.83,1.4-1.33,2c-0.26,0.27-0.48,0.46-0.67,0.58c-0.18,0.12-0.35,0.19-0.51,0.23
			c-0.16,0.04-0.27,0.06-0.34,0.04c-0.11,0.69-0.1,1.29,0.03,1.78c0.09,0.34,0.26,0.59,0.5,0.76c0.24,0.17,0.57,0.2,0.97,0.09
			c0.56-0.15,1.22-0.53,1.98-1.13c0.76-0.6,1.54-1.29,2.33-2.04c0.79-0.76,1.55-1.52,2.27-2.3C212.26,37.27,212.85,36.62,213.3,36.1
			z M205.6,35.73c-0.25,0.07-0.56,0.47-0.94,1.22c-0.38,0.75-0.68,1.58-0.9,2.5c0.24-0.23,0.49-0.51,0.77-0.85
			c0.27-0.34,0.52-0.68,0.75-1.02c0.22-0.34,0.39-0.66,0.51-0.96c0.12-0.3,0.15-0.54,0.1-0.72
			C205.85,35.75,205.75,35.69,205.6,35.73z"/>
	</g>
	<g class="st0">
		<path class="st3" d="M118.78,38.73c2.29-0.61,3.95-0.83,5-0.64c1.04,0.19,1.66,0.65,1.86,1.39c0.12,0.43,0.03,0.84-0.27,1.22
			c-0.3,0.38-0.58,0.6-0.86,0.68c-0.28,0.07-0.43,0.05-0.47-0.07c-0.02-0.06,0.01-0.15,0.08-0.27c0.04-0.11,0.09-0.24,0.17-0.39
			c0.07-0.15,0.1-0.29,0.06-0.42c-0.12-0.43-0.65-0.65-1.61-0.64c-0.96,0.01-2.24,0.23-3.85,0.66c-2.23,0.6-4.41,1.36-6.55,2.28
			c-2.14,0.92-4.28,1.98-6.43,3.19c-2.15,1.21-4.33,2.55-6.55,4.02c-2.22,1.47-4.54,3.08-6.96,4.82c0.7-0.35,1.58-0.78,2.64-1.28
			c1.06-0.5,2.15-0.9,3.26-1.2c0.8-0.22,1.56-0.34,2.28-0.39c0.72-0.04,1.38,0.07,1.98,0.34c0.11-0.59,0.19-1.09,0.24-1.51
			c0.06-0.41,0.13-0.75,0.23-1.01c0.09-0.39,0.23-0.61,0.42-0.66c0.12-0.03,0.25,0.18,0.37,0.65c0.12,0.46,0.23,1.1,0.31,1.9
			c0.08,0.81,0.13,1.6,0.14,2.4c0.03-0.01,0.08,0.1,0.13,0.31c0.1,0.5,0.14,1.13,0.11,1.88c-0.03,0.75-0.09,1.56-0.17,2.41
			c-0.09,0.85-0.19,1.68-0.32,2.5c-0.13,0.81-0.23,1.53-0.29,2.14c1.99-0.96,4.15-1.81,6.48-2.53l0.32-0.09
			c0.8-0.22,1.23-0.21,1.29,0c0.07,0.25-0.24,0.46-0.92,0.64c-0.22,0.06-0.43,0.1-0.64,0.12c-0.21,0.02-0.42,0.06-0.64,0.12
			c-1.01,0.31-2.02,0.62-3.03,0.94c-1.01,0.32-1.99,0.69-2.93,1.11c-0.4,2.59-0.7,5.47-0.91,8.65c-0.21,3.17-0.29,6.75-0.25,10.75
			c0,0.36-0.06,0.56-0.19,0.6c-0.16,0.04-0.36-0.12-0.63-0.48c-0.26-0.36-0.46-0.79-0.59-1.28c-0.11-0.4-0.17-1.17-0.17-2.31
			s0.01-2.5,0.05-4.09c0.04-1.58,0.11-3.31,0.2-5.17c0.1-1.86,0.2-3.76,0.32-5.68c-0.85,0.43-1.63,0.86-2.36,1.3
			s-1.41,0.88-2.06,1.32c-0.14,0.1-0.27,0.23-0.4,0.38c-0.13,0.15-0.3,0.25-0.51,0.31c-0.16,0.04-0.24,0.02-0.27-0.08
			c-0.03-0.12,0.2-0.37,0.7-0.73c0.68-0.45,1.38-0.86,2.1-1.23c0.73-0.38,1.65-0.88,2.77-1.51c0.15-2.29,0.32-4.48,0.52-6.58
			c0.2-2.09,0.39-3.86,0.57-5.3c-0.54-0.29-1.16-0.42-1.87-0.39c-0.71,0.02-1.46,0.14-2.27,0.36c-0.87,0.23-1.77,0.56-2.72,0.98
			c-0.95,0.42-1.87,0.89-2.78,1.42c-0.9,0.52-1.77,1.06-2.6,1.62c-0.83,0.55-1.58,1.07-2.24,1.55c-0.11,0.09-0.28,0.18-0.53,0.24
			c-0.25,0.07-0.39,0.04-0.42-0.09c-0.05-0.19,0.11-0.41,0.47-0.67c2.51-1.9,5.04-3.79,7.6-5.67c2.56-1.88,5.15-3.65,7.77-5.31
			c2.62-1.66,5.25-3.15,7.88-4.45C113.49,40.5,116.13,39.47,118.78,38.73z M102.26,74.97c0.1-2.21,0.25-4.27,0.44-6.16
			c0.19-1.89,0.39-3.66,0.62-5.31l-1.03,0.43c-0.05,1.9-0.07,3.79-0.05,5.65C102.25,71.45,102.26,73.24,102.26,74.97z M103.37,63.19
			c0.07-0.48,0.17-1.09,0.31-1.82c0.13-0.73,0.26-1.49,0.38-2.29c0.12-0.79,0.21-1.58,0.26-2.36c0.06-0.78,0.06-1.46,0-2.04
			c-0.01,0.57-0.06,1.04-0.15,1.41c-0.08,0.37-0.2,0.58-0.36,0.62c-0.16,0.04-0.27-0.09-0.36-0.4c-0.01-0.03-0.01-0.07-0.01-0.12
			c0-0.05,0.01-0.19,0.01-0.43c0-0.23,0.01-0.57,0.03-1c0.02-0.44,0.05-1.06,0.1-1.87c-0.1-0.11-0.2-0.2-0.33-0.29
			c-0.12-0.08-0.25-0.17-0.37-0.27c-0.17,1.47-0.31,3.19-0.41,5.15c-0.1,1.97-0.17,4.05-0.21,6.24L103.37,63.19z M103.4,49.37
			c-0.07,0.35-0.15,0.76-0.24,1.23c-0.09,0.47-0.17,1-0.25,1.58c0.35,0.2,0.59,0.36,0.72,0.45c0.01-0.57,0-1.13-0.03-1.71
			C103.55,50.36,103.49,49.84,103.4,49.37z"/>
		<path class="st3" d="M130.26,58.36c0.1-0.13,0.21-0.21,0.33-0.24c0.19-0.05,0.3,0,0.34,0.16c0.04,0.16-0.01,0.32-0.17,0.49
			c-0.46,0.52-1.04,1.16-1.75,1.91c-0.71,0.75-1.46,1.49-2.24,2.22c-0.78,0.73-1.58,1.38-2.38,1.96c-0.81,0.58-1.53,0.96-2.18,1.13
			c-0.53,0.14-0.99,0.08-1.39-0.17c-0.4-0.26-0.68-0.68-0.84-1.27c-0.16-0.59-0.21-1.27-0.15-2.05c0.06-0.78,0.19-1.53,0.39-2.27
			c0.2-0.73,0.47-1.37,0.81-1.91c0.34-0.54,0.72-0.86,1.15-0.98c0.31-0.08,0.59-0.04,0.85,0.12c0.26,0.16,0.43,0.41,0.52,0.75
			c0.17,0.65,0.07,1.34-0.31,2.07c-0.38,0.73-0.83,1.4-1.33,2c-0.26,0.27-0.48,0.46-0.67,0.58c-0.18,0.12-0.35,0.19-0.51,0.23
			c-0.16,0.04-0.27,0.06-0.34,0.04c-0.11,0.69-0.1,1.29,0.03,1.78c0.09,0.34,0.26,0.59,0.5,0.76c0.24,0.17,0.57,0.2,0.97,0.09
			c0.56-0.15,1.22-0.53,1.98-1.13c0.77-0.6,1.54-1.29,2.33-2.04c0.79-0.76,1.55-1.52,2.27-2.3
			C129.21,59.53,129.8,58.88,130.26,58.36z M122.56,57.99c-0.25,0.07-0.56,0.47-0.94,1.22c-0.38,0.75-0.68,1.58-0.9,2.5
			c0.24-0.23,0.49-0.51,0.77-0.85c0.27-0.34,0.52-0.68,0.75-1.02c0.22-0.34,0.39-0.66,0.51-0.96c0.12-0.3,0.15-0.54,0.1-0.72
			C122.81,58.01,122.71,57.95,122.56,57.99z"/>
		<path class="st3" d="M147.43,53.81c0.1-0.12,0.19-0.2,0.29-0.23c0.19-0.05,0.3,0,0.34,0.16c0.04,0.15,0,0.31-0.12,0.48
			c-0.32,0.42-0.76,0.96-1.33,1.62c-0.57,0.67-1.18,1.34-1.85,2.01c-0.66,0.67-1.34,1.29-2.02,1.83c-0.68,0.55-1.32,0.9-1.9,1.06
			c-0.62,0.17-1.09,0.06-1.4-0.32c-0.32-0.38-0.55-0.85-0.7-1.4c-0.12-0.46-0.22-0.93-0.28-1.42c-0.06-0.48-0.13-0.86-0.21-1.14
			c-0.07-0.25-0.15-0.36-0.24-0.33s-0.21,0.22-0.34,0.59c0.07,0.15,0.14,0.29,0.19,0.45c0.06,0.15,0.11,0.3,0.15,0.46
			c0.12,0.43,0.1,0.79-0.06,1.08c-0.15,0.29-0.34,0.46-0.56,0.52c-0.12,0.03-0.24,0.02-0.36-0.05c-0.04,0.21-0.11,0.53-0.19,0.97
			c-0.08,0.44-0.2,0.87-0.35,1.31c-0.15,0.44-0.3,0.83-0.46,1.17c-0.16,0.34-0.33,0.54-0.51,0.58c-0.34,0.09-0.63,0-0.87-0.27
			c-0.24-0.27-0.42-0.63-0.54-1.1c-0.13-0.49-0.2-1.07-0.19-1.74c0-0.66,0.07-1.3,0.21-1.92c0.13-0.62,0.34-1.15,0.61-1.61
			c0.28-0.45,0.63-0.74,1.06-0.86c0.37-0.1,0.69-0.08,0.96,0.07c0.27,0.14,0.51,0.37,0.73,0.67c0.25-0.56,0.48-0.87,0.69-0.93
			c0.31-0.08,0.53,0.11,0.65,0.57c0.12,0.43,0.19,0.97,0.21,1.61c0.02,0.64,0.1,1.22,0.25,1.75c0.1,0.37,0.25,0.67,0.44,0.9
			c0.19,0.23,0.49,0.29,0.89,0.18c0.53-0.14,1.12-0.49,1.78-1.05c0.66-0.56,1.31-1.19,1.95-1.89c0.64-0.7,1.23-1.41,1.77-2.11
			S147.11,54.23,147.43,53.81z M136.87,58.73c-0.02-0.09-0.03-0.17-0.02-0.24c0-0.23,0-0.51,0-0.84c-0.01-0.33-0.04-0.62-0.11-0.86
			c-0.07-0.28-0.17-0.4-0.3-0.37c-0.34,0.09-0.64,0.38-0.89,0.86c-0.25,0.48-0.45,1.04-0.6,1.68c-0.15,0.64-0.24,1.27-0.29,1.89
			c-0.05,0.63-0.02,1.12,0.08,1.5c0.12,0.43,0.31,0.61,0.59,0.54c0.09-0.02,0.21-0.18,0.35-0.47c0.14-0.29,0.26-0.59,0.37-0.92
			c0.11-0.33,0.22-0.65,0.32-0.95c0.1-0.31,0.17-0.52,0.21-0.63L136.87,58.73z"/>
		<path class="st3" d="M172.66,35.22c0.38-0.07,0.65-0.09,0.8-0.07c0.16,0.03,0.24,0.07,0.26,0.13c0.03,0.12-0.04,0.27-0.23,0.43
			c-0.19,0.17-0.39,0.28-0.61,0.34c-0.32,0.05-0.64,0.08-0.97,0.09c-0.33,0.01-0.65,0.05-0.96,0.13c-1.59,0.36-3.18,0.73-4.75,1.1
			c-1.57,0.37-3.15,0.77-4.72,1.19c-1.21,0.32-2.41,0.66-3.6,1.02c-1.2,0.35-2.38,0.72-3.53,1.1c-0.25,1.53-0.52,3.24-0.79,5.13
			c-0.27,1.9-0.49,3.79-0.67,5.67c-0.17,1.89-0.26,3.65-0.27,5.29c-0.01,1.64,0.12,2.96,0.39,3.95c0.12,0.43,0.31,0.84,0.57,1.21
			c0.27,0.38,0.66,0.49,1.19,0.35c0.65-0.17,1.38-0.78,2.19-1.83c0.81-1.05,1.61-2.24,2.4-3.57s1.51-2.67,2.19-3.99
			c0.67-1.32,1.19-2.36,1.55-3.12c0.07-0.22,0.19-0.35,0.34-0.39c0.15-0.04,0.25,0.02,0.29,0.17c0.03,0.12,0.01,0.28-0.07,0.47
			c-0.26,0.5-0.59,1.14-0.97,1.93c-0.39,0.78-0.82,1.61-1.3,2.49c-0.48,0.87-0.99,1.77-1.54,2.67c-0.55,0.91-1.11,1.74-1.67,2.49
			c-0.56,0.75-1.12,1.38-1.67,1.91c-0.55,0.53-1.08,0.86-1.57,0.99c-0.62,0.17-1.14,0-1.57-0.5c-0.43-0.5-0.78-1.24-1.05-2.23
			c-0.29-1.08-0.49-2.39-0.61-3.94c-0.12-1.54-0.16-3.15-0.13-4.84c0.03-1.68,0.12-3.37,0.26-5.06c0.14-1.69,0.33-3.23,0.55-4.62
			c-0.94,0.32-1.81,0.62-2.62,0.9c-0.8,0.28-1.59,0.59-2.36,0.93c-0.42,0.18-0.81,0.37-1.19,0.57c-0.38,0.2-0.77,0.39-1.19,0.57
			c-0.12,0.06-0.27,0.12-0.45,0.17c-0.37,0.1-0.57,0.09-0.61-0.04c-0.04-0.15,0.25-0.37,0.87-0.63c1.26-0.5,2.51-0.96,3.76-1.38
			c1.25-0.42,2.52-0.85,3.83-1.3c0.14-0.7,0.28-1.35,0.42-1.95c0.14-0.6,0.28-1.12,0.43-1.56c0.32-0.91,0.65-1.42,0.99-1.51
			c0.25-0.07,0.43,0.1,0.53,0.5c0.09,0.34,0.09,0.82-0.01,1.44l-0.39,2.44c2.12-0.74,4.22-1.41,6.29-2.03
			c2.07-0.62,4.17-1.22,6.3-1.79c0.93-0.25,1.86-0.5,2.81-0.75C170.73,35.64,171.69,35.41,172.66,35.22z"/>
		<path class="st3" d="M180.3,45c0.1-0.12,0.21-0.21,0.33-0.24c0.15-0.04,0.25,0.02,0.29,0.17c0.04,0.15,0,0.31-0.12,0.48
			c-0.32,0.42-0.78,1-1.4,1.74c-0.61,0.74-1.28,1.5-2,2.27c-0.72,0.77-1.44,1.47-2.17,2.1c-0.73,0.63-1.38,1.02-1.97,1.17
			c-0.46,0.12-0.82,0.07-1.06-0.16c-0.25-0.23-0.42-0.56-0.54-1c-0.08-0.31-0.15-0.66-0.19-1.04c-0.04-0.39-0.06-0.76-0.07-1.12
			c-0.01-0.36-0.02-0.69-0.03-0.99c-0.02-0.29-0.05-0.52-0.09-0.67c-0.04-0.15-0.11-0.22-0.2-0.19c-0.15,0.04-0.29,0.4-0.4,1.08
			c-0.11,0.68-0.24,1.41-0.37,2.21c-0.13,0.8-0.31,1.55-0.53,2.25c-0.22,0.71-0.53,1.11-0.93,1.22c-0.28,0.07-0.6-0.01-0.96-0.27
			c-0.36-0.25-0.65-0.76-0.86-1.53c-0.17-0.62-0.24-1.29-0.24-2c0.01-0.71,0.06-1.37,0.17-1.96c0.12-0.53,0.28-0.94,0.46-1.24
			c0.19-0.3,0.37-0.47,0.56-0.52c0.28-0.07,0.47,0.09,0.58,0.49c0.09,0.34,0.11,0.7,0.04,1.08c-0.03,0.27-0.08,0.62-0.15,1.03
			c-0.07,0.42-0.12,0.85-0.15,1.31c-0.03,0.45-0.04,0.9-0.04,1.33c0,0.43,0.04,0.79,0.11,1.06c0.09,0.34,0.23,0.5,0.42,0.48
			c0.22-0.16,0.41-0.56,0.56-1.2c0.16-0.64,0.32-1.33,0.48-2.07c0.16-0.74,0.33-1.41,0.51-2.03c0.18-0.61,0.41-0.95,0.68-1.03
			c0.28-0.07,0.46,0.07,0.56,0.45c0.06,0.22,0.09,0.5,0.11,0.84c0.01,0.34,0.02,0.71,0.01,1.09c-0.01,0.38,0,0.76,0.02,1.14
			c0.02,0.37,0.07,0.7,0.15,0.98c0.18,0.68,0.57,0.94,1.15,0.79c0.52-0.14,1.14-0.53,1.85-1.17c0.71-0.64,1.41-1.35,2.11-2.15
			c0.7-0.8,1.34-1.59,1.92-2.38C179.53,46.02,179.98,45.41,180.3,45z"/>
		<path class="st3" d="M199.17,39.74c0.05-0.05,0.14-0.09,0.27-0.12c0.22-0.06,0.35-0.01,0.39,0.14c0.05,0.19-0.04,0.36-0.26,0.52
			c-0.75,0.53-1.68,1.11-2.79,1.74c-1.11,0.63-2.2,1.09-3.28,1.38c-0.71,0.19-1.31,0.28-1.79,0.26s-0.88-0.1-1.18-0.23
			c-0.3-0.13-0.53-0.31-0.69-0.54c-0.16-0.22-0.28-0.47-0.35-0.75c-0.09-0.34-0.14-0.68-0.15-1.03c-0.01-0.34-0.04-0.61-0.09-0.8
			c-0.04-0.15-0.12-0.21-0.25-0.18c-0.37,0.1-0.72,0.55-1.05,1.35c-0.33,0.8-0.62,1.71-0.86,2.72c-0.24,1.01-0.44,2.02-0.6,3.04
			c-0.16,1.02-0.25,1.78-0.28,2.29c0.03,0.22-0.04,0.36-0.19,0.4c-0.31,0.08-0.55-0.01-0.72-0.28c-0.17-0.27-0.31-0.54-0.42-0.81
			l-0.06-0.23c-0.15-0.56-0.26-1.23-0.32-2.03c-0.06-0.79-0.09-1.56-0.09-2.29c0-0.73,0.06-1.37,0.16-1.91
			c0.1-0.54,0.26-0.84,0.48-0.9c0.15-0.04,0.27,0.06,0.33,0.31c0.05,0.19,0.06,0.4,0.02,0.64c-0.04,0.48-0.07,1.02-0.08,1.64
			c-0.02,0.62-0.02,1.24-0.02,1.87c0.18-0.68,0.4-1.37,0.64-2.06c0.24-0.7,0.51-1.33,0.81-1.91c0.29-0.57,0.61-1.07,0.95-1.47
			c0.34-0.4,0.69-0.66,1.06-0.76c0.37-0.1,0.61,0.07,0.73,0.5c0.06,0.22,0.1,0.47,0.13,0.76c0.03,0.29,0.08,0.57,0.15,0.85
			c0.07,0.25,0.16,0.49,0.29,0.72c0.13,0.23,0.31,0.41,0.54,0.55c0.24,0.14,0.55,0.22,0.94,0.25c0.39,0.03,0.86-0.03,1.42-0.18
			c0.53-0.14,1.07-0.35,1.65-0.62c0.57-0.27,1.14-0.57,1.7-0.9s1.09-0.67,1.59-1.02C198.38,40.31,198.81,40,199.17,39.74z"/>
		<path class="st3" d="M213.3,36.1c0.1-0.13,0.21-0.21,0.33-0.24c0.19-0.05,0.3,0,0.34,0.16c0.04,0.16-0.01,0.32-0.17,0.49
			c-0.46,0.52-1.04,1.16-1.75,1.91c-0.71,0.75-1.46,1.49-2.24,2.22c-0.78,0.72-1.58,1.38-2.38,1.96c-0.81,0.58-1.53,0.96-2.18,1.13
			c-0.53,0.14-0.99,0.08-1.39-0.17c-0.4-0.26-0.68-0.68-0.84-1.27c-0.16-0.59-0.21-1.27-0.15-2.05c0.06-0.78,0.19-1.53,0.39-2.27
			c0.2-0.73,0.47-1.37,0.81-1.91c0.34-0.54,0.72-0.87,1.15-0.98c0.31-0.08,0.59-0.04,0.85,0.12c0.26,0.16,0.43,0.41,0.53,0.75
			c0.17,0.65,0.07,1.34-0.31,2.07c-0.38,0.73-0.83,1.4-1.33,2c-0.26,0.27-0.48,0.46-0.67,0.58c-0.18,0.12-0.35,0.19-0.51,0.23
			c-0.16,0.04-0.27,0.06-0.34,0.04c-0.11,0.69-0.1,1.29,0.03,1.78c0.09,0.34,0.26,0.59,0.5,0.76c0.24,0.17,0.57,0.2,0.97,0.09
			c0.56-0.15,1.22-0.53,1.98-1.13c0.76-0.6,1.54-1.29,2.33-2.04c0.79-0.76,1.55-1.52,2.27-2.3C212.26,37.27,212.85,36.62,213.3,36.1
			z M205.6,35.73c-0.25,0.07-0.56,0.47-0.94,1.22c-0.38,0.75-0.68,1.58-0.9,2.5c0.24-0.23,0.49-0.51,0.77-0.85
			c0.27-0.34,0.52-0.68,0.75-1.02c0.22-0.34,0.39-0.66,0.51-0.96c0.12-0.3,0.15-0.54,0.1-0.72
			C205.85,35.75,205.75,35.69,205.6,35.73z"/>
	</g>
</g>
</svg>
