<?xml version="1.0" encoding="utf-8"?>
<!-- Generator: Adobe Illustrator 26.0.1, SVG Export Plug-In . SVG Version: 6.00 Build 0)  -->
<svg version="1.1" id="Layer_1" xmlns="http://www.w3.org/2000/svg" xmlns:xlink="http://www.w3.org/1999/xlink" x="0px" y="0px"
	 viewBox="0 0 282.34 82.35" style="enable-background:new 0 0 282.34 82.35;" xml:space="preserve">
<style type="text/css">
	.st0{enable-background:new    ;}
	.st1{fill:#F58F8E;}
	.st2{fill:#707070;}
	.st3{fill:none;stroke:#707070;stroke-width:0.3;stroke-miterlimit:4.0005;}
</style>
<g>
	<g class="st0">
		<path class="st1" d="M6.84,8.56c0.48-2.72,0.8-5.24,1-7.84l2.44,0.24C10.24,2.52,9.52,7,9.4,8.56h8.4
			c-0.04,6.48-1.56,13.36-4.48,18.36c1.8,1.2,3.72,2.72,5.32,4.24L17,33.27c-1.52-1.4-3.2-2.96-4.96-4.16
			c-2.24,2.72-5.32,4.96-8.28,6.72c-0.6,0.36-1.28,0.56-1.88,0.92H1.6c-0.48-0.8-1.12-1.56-1.6-2.32c2.24-0.84,4.44-2.04,6.4-3.4
			c1.24-0.88,2.52-2.2,3.4-3.32c-0.6-0.4-1.28-0.76-1.92-1.08c-1.6-0.72-3.68-1.6-5.36-2.08c1.88-4.36,3.12-8.68,3.92-13.6H1.12
			v-2.4H6.84z M9,10.96C8.28,15.2,7.08,19.24,5.68,23.2c1.88,0.6,3.84,1.44,5.6,2.32c2-3.32,3.48-8.04,3.84-14.56H9z M30.75,32.19
			v-2.4h-7.68v2.56h-2.56V5.2h12.8v27H30.75z M23.08,7.6v19.8h7.68V7.6H23.08z"/>
		<path class="st1" d="M46.4,18.44c3.52-3.4,5.84-7.2,7.68-11.32C55.16,4.76,56.16,2.4,56.92,0c0.76,0.32,1.52,0.8,2.28,1.16
			c-1.08,2.68-2.04,5.88-3.32,8.52l0.04,27.04h-2.56V13.96c-1.32,2-3.12,4.48-4.76,6.12L46.4,18.44z M78.64,35.39
			c-1.68,1.12-4.2,0.36-6.32,0.64l-0.84-2.68c1.6,0.12,3.32,0.16,4.96,0.08c0.44-0.12,0.76-0.56,0.92-0.92L77.4,5.24H59.56V2.8h24.2
			l-0.04,2.48l-3.72-0.04l0.04,27.72C79.88,33.87,79.51,34.79,78.64,35.39z M73.04,28.55h-2.56v-2.76h-6.72l-0.04,2.84l-2.6-0.04
			l0.04-17.56h11.88V28.55z M63.76,23.4h6.72v-9.92h-6.76L63.76,23.4z"/>
		<path class="st1" d="M95.12,18.96c2.16-3,4.16-5.96,5.64-9.48c1.24-2.96,2.28-6.28,3.32-9.36c0.72,0.28,1.6,0.64,2.28,0.96
			c-0.72,2.48-1.6,4.96-2.44,7.36l-0.72,2.04v26.28h-2.48l0.04-21.4c-1.08,1.64-2.56,3.6-3.84,5.2L95.12,18.96z M104.84,34.47
			c2.96-1.04,5.88-2.4,8.2-4.8c-1.84-1.6-3.76-3.84-5.24-5.68l2.12-1.32c1.64,1.96,2.88,3.44,4.72,4.92
			c0.76-0.96,1.24-1.96,1.6-3.12c0.16-0.84,0.24-1.8,0.44-3.16h-9.24V10.56l9.36-0.04v-3.4h-11.12V4.68h11.12V0.04L119.44,0v4.68
			h11.32v2.44h-11.28v3.44h9.36l-0.04,10.76h-9.44c-0.44,4.16-0.92,5.52-2.48,7.84c0.16,0.24,0.48,0.4,0.72,0.48
			c4.32,2.88,9.68,3.64,15.04,4.24l-1.52,2.48c-1.32-0.08-2.68-0.36-4-0.64c-4.2-0.84-8.2-2.2-11.84-4.44
			c-2.6,2.52-5.48,4.08-8.48,5.44L104.84,34.47z M116.8,12.96L109.88,13v5.88l6.88,0.04L116.8,12.96z M126.35,12.96L119.48,13v5.88
			h6.84L126.35,12.96z"/>
		<path class="st1" d="M176.23,32.71c0,1.64-1.2,2.96-2.72,2.96h-3.96l-0.8-2.6c1.68,0.16,2.68,0.24,3.92,0.2
			c0.56,0,1.08-0.28,1.08-1.08v-9.4h-9.8v9.8h-2.44v-9.8h-9.68c-0.4,4-0.56,6.44-3,10.16c-0.8,1.2-1.56,2.36-2.8,3.8l-2.12-1.64
			c1.52-1.8,2.76-3.4,3.72-5.44c1.16-2.44,1.4-4.36,1.68-7.52c0.12-1.2,0.08-2.72,0.08-4.16V2h26.84V32.71z M151.88,4.32v6.8h9.64
			v-6.8H151.88z M151.88,20.52h9.64V13.4h-9.64V20.52z M163.96,11.12h9.8v-6.8h-9.8V11.12z M163.96,13.4v7.12h9.8V13.4H163.96z"/>
	</g>
	<g class="st0">
		<path class="st2" d="M133.79,40.13c0.37-0.1,0.68-0.03,0.92,0.2c0.24,0.23,0.42,0.57,0.54,1c0.32,1.21,0.39,2.55,0.21,4.04
			c-0.18,1.49-0.5,3-0.95,4.53c-0.45,1.53-1,3-1.65,4.42c-0.65,1.42-1.29,2.66-1.93,3.72c0,2.22,0.1,4.41,0.29,6.56
			c0.2,2.15,0.53,4.11,1,5.87c0.37,1.39,0.83,2.58,1.38,3.58c0.55,1,1.2,1.72,1.95,2.19c0.37,0.26,0.58,0.51,0.64,0.72
			c0.07,0.28-0.03,0.45-0.31,0.53c-0.19,0.05-0.44,0.01-0.75-0.12c-0.32-0.13-0.66-0.39-1.03-0.79c-0.51-0.56-1-1.34-1.45-2.34
			c-0.45-1-0.85-2.16-1.2-3.46c-0.42-1.58-0.77-3.31-1.05-5.21c-0.28-1.9-0.47-3.86-0.58-5.88c-0.56,0.75-1.12,1.44-1.68,2.09
			c-0.77,0.84-1.59,1.59-2.45,2.27c-0.86,0.68-1.72,1.3-2.56,1.86c-0.13,2.09-0.3,4.11-0.49,6.04c-0.19,1.94-0.38,3.67-0.58,5.17
			c-0.19,1.51-0.37,2.73-0.54,3.65c-0.17,0.92-0.3,1.4-0.39,1.42c-0.19,0.05-0.39-0.1-0.62-0.46c-0.23-0.35-0.42-0.71-0.58-1.06
			c-0.31-0.68-0.66-1.38-1.04-2.11c-0.38-0.73-0.8-1.42-1.25-2.08s-0.98-1.26-1.56-1.82c-0.58-0.56-1.22-1.02-1.92-1.4
			c-0.89-0.49-1.39-0.93-1.5-1.34c-0.08-0.31,0.05-0.63,0.39-0.95c0.34-0.32,0.78-0.63,1.29-0.92c0.52-0.29,1.04-0.54,1.57-0.74
			c0.52-0.21,0.92-0.38,1.18-0.51c0.76-0.37,1.59-0.76,2.47-1.16c0.89-0.4,1.78-0.89,2.69-1.47c0.07-1.71,0.11-3.42,0.12-5.13
			c0.01-1.71-0.01-3.33-0.06-4.85c-0.05-1.53-0.13-2.94-0.26-4.23c-0.13-1.29-0.31-2.35-0.53-3.19c-0.39-1.45-0.91-2.09-1.56-1.92
			c-0.56,0.15-1.08,0.53-1.58,1.14c-0.5,0.62-0.95,1.37-1.36,2.25s-0.76,1.86-1.06,2.92c-0.3,1.06-0.53,2.12-0.69,3.19
			c-0.16,1.07-0.24,2.1-0.24,3.07c0,0.98,0.09,1.82,0.28,2.53c0.15,0.56,0.37,0.99,0.65,1.31c0.2,0.25,0.41,0.34,0.62,0.28
			c0.06-0.02,0.1,0.01,0.12,0.07c0.02,0.09-0.03,0.24-0.18,0.45c-0.14,0.21-0.34,0.34-0.59,0.41c-0.25,0.07-0.59-0.06-1.02-0.37
			c-0.43-0.31-0.8-1.04-1.11-2.19c-0.35-1.3-0.42-2.8-0.21-4.49c0.21-1.69,0.6-3.32,1.17-4.89c0.58-1.56,1.29-2.93,2.16-4.11
			c0.86-1.18,1.77-1.89,2.73-2.15c0.68-0.18,1.24-0.01,1.68,0.52c0.44,0.53,0.81,1.33,1.1,2.41c0.25,0.93,0.44,2.01,0.57,3.25
			c0.13,1.24,0.23,2.58,0.28,4c0.05,1.43,0.06,2.93,0.01,4.49c-0.04,1.57-0.11,3.13-0.19,4.67c0.84-0.56,1.68-1.16,2.52-1.82
			c0.83-0.65,1.62-1.4,2.36-2.22c0.3-0.35,0.61-0.7,0.91-1.06c0.3-0.36,0.59-0.75,0.88-1.16c-0.12-2.29-0.13-4.54-0.04-6.75
			c0.09-2.21,0.3-4.2,0.63-5.98c0.33-1.78,0.78-3.26,1.35-4.44C132.3,41.04,132.98,40.35,133.79,40.13z M120.99,81.93
			c0.09-0.16,0.2-0.69,0.32-1.6c0.12-0.91,0.24-2.07,0.36-3.48c0.12-1.41,0.24-3.01,0.35-4.81c0.11-1.8,0.21-3.68,0.28-5.62
			c-0.88,0.54-1.76,1-2.63,1.4c-0.87,0.4-1.69,0.78-2.45,1.15c-0.18,0.08-0.51,0.23-1,0.44c-0.49,0.21-1,0.46-1.52,0.73
			c-0.52,0.27-0.98,0.56-1.36,0.86c-0.38,0.3-0.54,0.59-0.46,0.87c0.05,0.19,0.18,0.37,0.4,0.56c0.22,0.19,0.56,0.4,1.02,0.65
			c1.46,0.77,2.65,1.83,3.56,3.19c0.91,1.36,1.71,2.78,2.41,4.25c0.15,0.32,0.3,0.62,0.44,0.9S120.94,81.88,120.99,81.93z
			 M130.93,57.65c0.57-0.95,1.16-2.11,1.75-3.48c0.59-1.37,1.1-2.8,1.53-4.29c0.43-1.49,0.73-2.97,0.9-4.44
			c0.17-1.47,0.1-2.79-0.22-3.97c-0.07-0.28-0.18-0.5-0.3-0.66c-0.13-0.17-0.28-0.22-0.47-0.17c-0.43,0.12-0.84,0.67-1.22,1.67
			c-0.38,1-0.71,2.28-1.01,3.85s-0.52,3.35-0.7,5.36C131.02,53.51,130.93,55.56,130.93,57.65z"/>
		<path class="st2" d="M153.28,55.18c0.43-0.12,0.67-0.08,0.72,0.1c0.04,0.16-0.1,0.31-0.42,0.46c-0.54,0.21-1.23,0.46-2.08,0.76
			c-0.85,0.29-1.72,0.56-2.62,0.8c-0.59,0.16-1.14,0.29-1.66,0.39c-0.52,0.11-0.98,0.16-1.37,0.17c0.21,0.31,0.39,0.65,0.52,1.03
			c0.13,0.38,0.23,0.67,0.29,0.89c0.23,1,0.19,1.87-0.14,2.62c-0.33,0.75-0.74,1.19-1.24,1.32c-0.34,0.09-0.67,0.02-0.98-0.21
			c-0.31-0.23-0.55-0.67-0.73-1.32c-0.21-0.77-0.27-1.67-0.2-2.7c0.07-1.03,0.24-1.84,0.51-2.45c0.18-0.44,0.39-0.7,0.64-0.77
			c0.22-0.06,0.36,0.05,0.44,0.33c0.04,0.16,0.04,0.34,0,0.55c0.2,0.01,0.42,0.14,0.65,0.37c0.61,0.04,1.36-0.07,2.25-0.31
			c0.96-0.26,1.94-0.59,2.93-1.01C151.8,55.81,152.62,55.46,153.28,55.18z M144.93,63.54c0.31-0.08,0.54-0.3,0.69-0.66
			c0.15-0.35,0.23-0.77,0.24-1.23c0.01-0.47-0.02-0.95-0.09-1.44c-0.07-0.5-0.15-0.94-0.26-1.35c-0.09-0.34-0.18-0.6-0.26-0.8
			c-0.08-0.19-0.16-0.28-0.22-0.26c-0.04-0.02-0.08-0.04-0.11-0.04c-0.04-0.01-0.08-0.04-0.12-0.09c-0.29,0.77-0.5,1.64-0.64,2.61
			c-0.14,0.96-0.13,1.79,0.02,2.48C144.34,63.36,144.59,63.63,144.93,63.54z"/>
		<path class="st2" d="M174.18,49.73c0.17-0.11,0.27-0.17,0.3-0.18c0.19-0.05,0.3,0,0.34,0.16c0.05,0.19-0.05,0.36-0.3,0.53
			c-0.57,0.45-1.32,0.94-2.24,1.47c-0.92,0.53-1.84,0.92-2.77,1.17c-0.65,0.17-1.27,0.26-1.87,0.25c-0.6-0.01-1.12-0.18-1.58-0.52
			c-0.02,0.3-0.08,0.8-0.18,1.49c-0.1,0.69-0.25,1.41-0.45,2.16c-0.2,0.75-0.46,1.42-0.79,2.02c-0.32,0.6-0.72,0.96-1.19,1.09
			c-0.44,0.12-0.82-0.09-1.14-0.61c-0.32-0.53-0.58-1.16-0.78-1.9c-0.26-0.96-0.39-1.82-0.39-2.58c-0.15,0.41-0.33,0.85-0.53,1.33
			c-0.2,0.48-0.41,0.93-0.63,1.34c-0.22,0.41-0.44,0.75-0.66,1.04c-0.22,0.29-0.43,0.46-0.65,0.52c-0.31,0.08-0.58-0.06-0.83-0.43
			c-0.25-0.36-0.44-0.81-0.58-1.33c-0.12-0.43-0.2-0.88-0.26-1.35c-0.06-0.46-0.06-0.89,0-1.27c0.05-0.44,0.13-0.78,0.27-1.02
			c0.13-0.23,0.28-0.37,0.43-0.41c0.24-0.07,0.42,0.1,0.53,0.5c0.05,0.19,0.08,0.4,0.1,0.65c0.02,0.24,0,0.47-0.04,0.68
			c-0.01,0.57-0.02,1.13-0.04,1.7c-0.01,0.57,0.03,1.02,0.12,1.36c0.07,0.25,0.16,0.36,0.28,0.32c0.18-0.05,0.39-0.25,0.62-0.62
			c0.23-0.36,0.46-0.78,0.7-1.26c0.23-0.48,0.46-0.98,0.68-1.5c0.22-0.52,0.4-0.97,0.53-1.33l0.12-0.28
			c0.06-0.15,0.15-0.24,0.27-0.27c0.15-0.04,0.27,0.09,0.36,0.4c0.02,0.06,0.04,0.15,0.07,0.25c0.03,0.11,0.04,0.21,0.03,0.31
			c0.02,0.56,0.06,1.22,0.13,1.98c0.07,0.76,0.19,1.45,0.35,2.07c0.11,0.4,0.24,0.72,0.39,0.97c0.15,0.24,0.35,0.33,0.6,0.26
			c0.34-0.09,0.66-0.42,0.95-0.97c0.29-0.56,0.53-1.19,0.73-1.88c0.2-0.7,0.35-1.39,0.45-2.08c0.1-0.69,0.15-1.2,0.16-1.53
			c-0.18-0.18-0.33-0.37-0.45-0.55c-0.12-0.18-0.21-0.43-0.3-0.74c-0.22-1.07-0.18-1.64,0.13-1.73c0.25-0.07,0.48,0.32,0.71,1.15
			c0.07,0.25,0.11,0.53,0.12,0.84c0.02,0.31,0.03,0.61,0.04,0.91c0.42,0.32,0.87,0.5,1.37,0.55c0.49,0.05,1.02,0,1.58-0.15
			c0.96-0.26,1.9-0.69,2.83-1.31C172.77,50.79,173.55,50.23,174.18,49.73z"/>
		<path class="st2" d="M214.19,27.32c0.38-0.07,0.65-0.09,0.8-0.07c0.16,0.02,0.24,0.07,0.26,0.13c0.03,0.12-0.04,0.27-0.23,0.43
			c-0.19,0.17-0.39,0.28-0.6,0.34c-0.32,0.05-0.64,0.08-0.97,0.08c-0.33,0.01-0.65,0.05-0.96,0.13c-1.59,0.36-3.18,0.73-4.75,1.1
			c-1.57,0.37-3.15,0.77-4.72,1.19c-1.21,0.32-2.41,0.66-3.6,1.02c-1.2,0.35-2.38,0.72-3.53,1.1c-0.25,1.53-0.52,3.24-0.79,5.13
			c-0.27,1.9-0.49,3.79-0.67,5.67s-0.26,3.65-0.27,5.29c-0.01,1.64,0.12,2.96,0.39,3.95c0.12,0.43,0.31,0.84,0.57,1.21
			c0.27,0.38,0.66,0.49,1.19,0.35c0.65-0.17,1.38-0.78,2.19-1.83c0.81-1.05,1.61-2.24,2.4-3.57c0.78-1.34,1.51-2.67,2.19-3.99
			c0.67-1.32,1.19-2.36,1.55-3.12c0.07-0.22,0.19-0.35,0.34-0.39c0.15-0.04,0.25,0.02,0.29,0.17c0.03,0.12,0.01,0.28-0.07,0.47
			c-0.26,0.5-0.59,1.14-0.97,1.93c-0.39,0.78-0.82,1.61-1.3,2.49c-0.48,0.87-0.99,1.77-1.54,2.68c-0.55,0.91-1.11,1.74-1.67,2.49
			c-0.56,0.75-1.12,1.38-1.67,1.91c-0.55,0.53-1.08,0.86-1.57,0.99c-0.62,0.17-1.14,0-1.57-0.5c-0.43-0.5-0.78-1.24-1.05-2.23
			c-0.29-1.08-0.49-2.39-0.61-3.94c-0.12-1.54-0.16-3.15-0.13-4.84c0.03-1.68,0.12-3.37,0.26-5.06c0.14-1.69,0.33-3.23,0.55-4.62
			c-0.94,0.32-1.81,0.62-2.62,0.9c-0.8,0.28-1.59,0.59-2.36,0.93c-0.42,0.18-0.81,0.37-1.19,0.57c-0.38,0.2-0.77,0.39-1.19,0.57
			c-0.12,0.06-0.27,0.12-0.45,0.17c-0.37,0.1-0.57,0.09-0.61-0.04c-0.04-0.15,0.25-0.37,0.87-0.63c1.26-0.5,2.51-0.96,3.76-1.38
			c1.25-0.42,2.52-0.85,3.83-1.3c0.14-0.7,0.28-1.35,0.42-1.95c0.14-0.6,0.28-1.12,0.43-1.56c0.32-0.91,0.65-1.42,0.99-1.51
			c0.25-0.07,0.42,0.1,0.53,0.5c0.09,0.34,0.09,0.82-0.01,1.44l-0.39,2.44c2.12-0.73,4.22-1.41,6.29-2.03
			c2.07-0.62,4.17-1.22,6.3-1.79c0.93-0.25,1.86-0.5,2.81-0.75C212.26,27.74,213.22,27.52,214.19,27.32z"/>
		<path class="st2" d="M218.42,37.72c0.43-0.12,0.67-0.08,0.72,0.1c0.04,0.16-0.1,0.31-0.42,0.46c-0.54,0.21-1.23,0.46-2.08,0.76
			c-0.85,0.29-1.72,0.56-2.62,0.8c-0.59,0.16-1.14,0.29-1.66,0.39c-0.52,0.11-0.98,0.16-1.37,0.17c0.21,0.31,0.39,0.65,0.52,1.03
			c0.13,0.38,0.23,0.68,0.29,0.89c0.23,1,0.19,1.87-0.14,2.62c-0.33,0.75-0.74,1.19-1.24,1.32c-0.34,0.09-0.67,0.02-0.98-0.21
			c-0.31-0.23-0.55-0.67-0.73-1.32c-0.21-0.77-0.27-1.67-0.2-2.7c0.07-1.03,0.24-1.84,0.51-2.45c0.18-0.44,0.39-0.7,0.64-0.77
			c0.22-0.06,0.36,0.05,0.44,0.33c0.04,0.16,0.04,0.34,0,0.55c0.2,0.01,0.42,0.14,0.65,0.37c0.61,0.04,1.36-0.07,2.25-0.31
			c0.96-0.26,1.94-0.59,2.93-1.01C216.94,38.34,217.77,37.99,218.42,37.72z M210.08,46.07c0.31-0.08,0.54-0.3,0.69-0.66
			c0.15-0.36,0.23-0.77,0.24-1.23c0.01-0.47-0.02-0.95-0.09-1.44c-0.07-0.5-0.15-0.94-0.26-1.35c-0.09-0.34-0.18-0.6-0.26-0.8
			c-0.08-0.19-0.16-0.28-0.22-0.26c-0.04-0.02-0.08-0.04-0.11-0.04c-0.04-0.01-0.08-0.04-0.12-0.09c-0.29,0.77-0.5,1.64-0.64,2.61
			c-0.14,0.96-0.13,1.79,0.02,2.48C209.48,45.9,209.74,46.16,210.08,46.07z"/>
		<path class="st2" d="M250.58,29.39c0.1-0.13,0.21-0.21,0.33-0.24c0.15-0.04,0.25,0.02,0.29,0.17c0.04,0.16,0,0.31-0.12,0.48
			c-0.32,0.42-0.79,1-1.4,1.74c-0.61,0.74-1.28,1.5-2,2.27c-0.72,0.77-1.44,1.47-2.17,2.1c-0.73,0.63-1.38,1.02-1.97,1.17
			c-0.46,0.12-0.82,0.07-1.06-0.16c-0.25-0.23-0.42-0.56-0.54-1c-0.08-0.31-0.15-0.66-0.19-1.04s-0.06-0.76-0.07-1.12
			c-0.01-0.36-0.02-0.69-0.03-0.99c-0.02-0.29-0.05-0.52-0.09-0.67c-0.04-0.15-0.11-0.22-0.2-0.2c-0.15,0.04-0.29,0.4-0.4,1.08
			s-0.24,1.41-0.37,2.21c-0.13,0.8-0.31,1.55-0.53,2.25c-0.22,0.71-0.53,1.11-0.93,1.22c-0.28,0.07-0.6-0.01-0.96-0.26
			c-0.36-0.25-0.65-0.76-0.86-1.54c-0.17-0.62-0.24-1.28-0.24-2c0.01-0.71,0.06-1.37,0.17-1.96c0.12-0.53,0.28-0.94,0.46-1.24
			c0.19-0.3,0.37-0.47,0.56-0.52c0.28-0.07,0.47,0.09,0.58,0.49c0.09,0.34,0.11,0.7,0.04,1.08c-0.03,0.27-0.08,0.62-0.15,1.03
			c-0.07,0.42-0.12,0.85-0.15,1.31c-0.03,0.45-0.04,0.9-0.04,1.33c0,0.43,0.04,0.79,0.11,1.06c0.09,0.34,0.23,0.5,0.42,0.48
			c0.22-0.16,0.41-0.56,0.56-1.2c0.16-0.64,0.32-1.33,0.48-2.07c0.16-0.74,0.33-1.42,0.51-2.03c0.18-0.61,0.41-0.95,0.68-1.03
			s0.46,0.07,0.56,0.45c0.06,0.22,0.09,0.5,0.11,0.84c0.01,0.34,0.02,0.71,0.01,1.09c-0.01,0.38,0,0.76,0.02,1.14
			s0.07,0.7,0.15,0.98c0.18,0.68,0.57,0.94,1.15,0.78c0.53-0.14,1.14-0.53,1.85-1.17c0.71-0.64,1.41-1.35,2.11-2.15
			c0.7-0.8,1.34-1.59,1.92-2.38C249.81,30.41,250.26,29.81,250.58,29.39z"/>
		<path class="st2" d="M259.19,32.21c-0.27-0.26-0.64-0.42-1.12-0.47c-0.48-0.05-0.97-0.11-1.46-0.18c-0.5-0.06-0.95-0.18-1.36-0.36
			c-0.41-0.17-0.69-0.52-0.83-1.04c-0.17-0.62-0.15-1.31,0.06-2.08c0.21-0.77,0.52-1.51,0.92-2.21c0.41-0.71,0.88-1.33,1.41-1.87
			c0.53-0.54,1.06-0.88,1.59-1.02c0.46-0.12,0.84-0.08,1.13,0.14c0.29,0.22,0.49,0.53,0.6,0.93c0.12,0.46,0.1,1.01-0.06,1.63
			c-0.17,0.62-0.4,1.23-0.71,1.81c-0.15,0.31-0.33,0.53-0.54,0.69c-0.21,0.16-0.4,0.26-0.59,0.31c-0.34,0.09-0.54,0.03-0.6-0.19
			c-0.04-0.16,0.02-0.37,0.18-0.64c0.16-0.27,0.34-0.58,0.55-0.92c0.21-0.34,0.39-0.68,0.54-1.04c0.15-0.35,0.27-0.69,0.35-1.01
			c0.08-0.32,0.09-0.6,0.02-0.85c-0.03-0.12-0.11-0.17-0.24-0.14c-0.43,0.12-0.89,0.42-1.37,0.92c-0.48,0.49-0.92,1.07-1.33,1.72
			c-0.4,0.66-0.71,1.32-0.93,1.99c-0.22,0.67-0.27,1.22-0.15,1.66c0.07,0.28,0.27,0.49,0.59,0.64c0.32,0.15,0.7,0.28,1.12,0.39
			c0.43,0.12,0.87,0.24,1.32,0.37c0.45,0.13,0.84,0.31,1.17,0.56c1.12-1.26,2.34-2.51,3.67-3.74c1.33-1.23,2.65-2.36,3.97-3.38
			c0.17-0.11,0.28-0.18,0.35-0.19c0.19-0.05,0.3,0,0.34,0.16c0.04,0.16-0.06,0.33-0.31,0.53c-1.41,1.04-2.78,2.1-4.1,3.16
			c-1.32,1.07-2.57,2.25-3.74,3.56c0.26,0.23,0.43,0.5,0.51,0.81c0.12,0.46,0.09,1.01-0.11,1.64c-0.2,0.63-0.49,1.25-0.89,1.86
			c-0.38,0.56-0.77,1.03-1.17,1.38c-0.4,0.35-0.77,0.58-1.11,0.67c-0.46,0.12-0.74,0.02-0.83-0.32c-0.11-0.4,0.11-1.14,0.65-2.21
			c0.32-0.65,0.71-1.29,1.17-1.93S258.76,32.72,259.19,32.21z M256.91,35.95c-0.52,1.03-0.73,1.72-0.64,2.06
			c0.06,0.22,0.21,0.29,0.46,0.23s0.55-0.28,0.92-0.65c0.37-0.36,0.73-0.86,1.09-1.49c0.32-0.55,0.56-1.14,0.72-1.76
			c0.16-0.62,0.19-1.15,0.07-1.58c-0.02-0.09-0.09-0.22-0.2-0.39c-0.37,0.47-0.79,1.02-1.25,1.65
			C257.63,34.65,257.24,35.3,256.91,35.95z"/>
		<path class="st2" d="M281.5,21.05c0.1-0.12,0.21-0.21,0.33-0.24c0.19-0.05,0.3,0,0.34,0.16c0.04,0.16-0.01,0.32-0.17,0.49
			c-0.46,0.52-1.04,1.16-1.75,1.91c-0.71,0.75-1.46,1.49-2.24,2.22c-0.78,0.72-1.58,1.38-2.38,1.96c-0.81,0.58-1.53,0.96-2.18,1.13
			c-0.53,0.14-0.99,0.08-1.39-0.17c-0.4-0.26-0.68-0.68-0.84-1.27c-0.16-0.59-0.21-1.27-0.15-2.05c0.06-0.78,0.19-1.53,0.39-2.27
			c0.2-0.73,0.47-1.37,0.81-1.91c0.34-0.54,0.72-0.86,1.15-0.98c0.31-0.08,0.59-0.04,0.85,0.12c0.26,0.16,0.43,0.41,0.53,0.75
			c0.17,0.65,0.07,1.34-0.31,2.07c-0.38,0.73-0.83,1.4-1.33,2c-0.26,0.27-0.48,0.46-0.67,0.58c-0.18,0.12-0.35,0.19-0.51,0.23
			c-0.16,0.04-0.27,0.06-0.34,0.04c-0.11,0.69-0.1,1.29,0.03,1.78c0.09,0.34,0.26,0.59,0.5,0.76c0.24,0.17,0.57,0.2,0.97,0.09
			c0.56-0.15,1.22-0.53,1.98-1.13c0.77-0.6,1.54-1.28,2.33-2.04c0.79-0.76,1.55-1.53,2.27-2.3
			C280.45,22.22,281.04,21.57,281.5,21.05z M273.79,20.68c-0.25,0.07-0.56,0.47-0.94,1.22c-0.38,0.75-0.68,1.58-0.89,2.5
			c0.24-0.23,0.49-0.51,0.77-0.85c0.27-0.34,0.52-0.68,0.75-1.02c0.22-0.34,0.39-0.66,0.51-0.96c0.12-0.3,0.15-0.54,0.1-0.72
			C274.05,20.7,273.95,20.64,273.79,20.68z"/>
	</g>
	<g class="st0">
		<path class="st3" d="M133.79,40.13c0.37-0.1,0.68-0.03,0.92,0.2c0.24,0.23,0.42,0.57,0.54,1c0.32,1.21,0.39,2.55,0.21,4.04
			c-0.18,1.49-0.5,3-0.95,4.53c-0.45,1.53-1,3-1.65,4.42c-0.65,1.42-1.29,2.66-1.93,3.72c0,2.22,0.1,4.41,0.29,6.56
			c0.2,2.15,0.53,4.11,1,5.87c0.37,1.39,0.83,2.58,1.38,3.58c0.55,1,1.2,1.72,1.95,2.19c0.37,0.26,0.58,0.51,0.64,0.72
			c0.07,0.28-0.03,0.45-0.31,0.53c-0.19,0.05-0.44,0.01-0.75-0.12c-0.32-0.13-0.66-0.39-1.03-0.79c-0.51-0.56-1-1.34-1.45-2.34
			c-0.45-1-0.85-2.16-1.2-3.46c-0.42-1.58-0.77-3.31-1.05-5.21c-0.28-1.9-0.47-3.86-0.58-5.88c-0.56,0.75-1.12,1.44-1.68,2.09
			c-0.77,0.84-1.59,1.59-2.45,2.27c-0.86,0.68-1.72,1.3-2.56,1.86c-0.13,2.09-0.3,4.11-0.49,6.04c-0.19,1.94-0.38,3.67-0.58,5.17
			c-0.19,1.51-0.37,2.73-0.54,3.65c-0.17,0.92-0.3,1.4-0.39,1.42c-0.19,0.05-0.39-0.1-0.62-0.46c-0.23-0.35-0.42-0.71-0.58-1.06
			c-0.31-0.68-0.66-1.38-1.04-2.11c-0.38-0.73-0.8-1.42-1.25-2.08s-0.98-1.26-1.56-1.82c-0.58-0.56-1.22-1.02-1.92-1.4
			c-0.89-0.49-1.39-0.93-1.5-1.34c-0.08-0.31,0.05-0.63,0.39-0.95c0.34-0.32,0.78-0.63,1.29-0.92c0.52-0.29,1.04-0.54,1.57-0.74
			c0.52-0.21,0.92-0.38,1.18-0.51c0.76-0.37,1.59-0.76,2.47-1.16c0.89-0.4,1.78-0.89,2.69-1.47c0.07-1.71,0.11-3.42,0.12-5.13
			c0.01-1.71-0.01-3.33-0.06-4.85c-0.05-1.53-0.13-2.94-0.26-4.23c-0.13-1.29-0.31-2.35-0.53-3.19c-0.39-1.45-0.91-2.09-1.56-1.92
			c-0.56,0.15-1.08,0.53-1.58,1.14c-0.5,0.62-0.95,1.37-1.36,2.25s-0.76,1.86-1.06,2.92c-0.3,1.06-0.53,2.12-0.69,3.19
			c-0.16,1.07-0.24,2.1-0.24,3.07c0,0.98,0.09,1.82,0.28,2.53c0.15,0.56,0.37,0.99,0.65,1.31c0.2,0.25,0.41,0.34,0.62,0.28
			c0.06-0.02,0.1,0.01,0.12,0.07c0.02,0.09-0.03,0.24-0.18,0.45c-0.14,0.21-0.34,0.34-0.59,0.41c-0.25,0.07-0.59-0.06-1.02-0.37
			c-0.43-0.31-0.8-1.04-1.11-2.19c-0.35-1.3-0.42-2.8-0.21-4.49c0.21-1.69,0.6-3.32,1.17-4.89c0.58-1.56,1.29-2.93,2.16-4.11
			c0.86-1.18,1.77-1.89,2.73-2.15c0.68-0.18,1.24-0.01,1.68,0.52c0.44,0.53,0.81,1.33,1.1,2.41c0.25,0.93,0.44,2.01,0.57,3.25
			c0.13,1.24,0.23,2.58,0.28,4c0.05,1.43,0.06,2.93,0.01,4.49c-0.04,1.57-0.11,3.13-0.19,4.67c0.84-0.56,1.68-1.16,2.52-1.82
			c0.83-0.65,1.62-1.4,2.36-2.22c0.3-0.35,0.61-0.7,0.91-1.06c0.3-0.36,0.59-0.75,0.88-1.16c-0.12-2.29-0.13-4.54-0.04-6.75
			c0.09-2.21,0.3-4.2,0.63-5.98c0.33-1.78,0.78-3.26,1.35-4.44C132.3,41.04,132.98,40.35,133.79,40.13z M120.99,81.93
			c0.09-0.16,0.2-0.69,0.32-1.6c0.12-0.91,0.24-2.07,0.36-3.48c0.12-1.41,0.24-3.01,0.35-4.81c0.11-1.8,0.21-3.68,0.28-5.62
			c-0.88,0.54-1.76,1-2.63,1.4c-0.87,0.4-1.69,0.78-2.45,1.15c-0.18,0.08-0.51,0.23-1,0.44c-0.49,0.21-1,0.46-1.52,0.73
			c-0.52,0.27-0.98,0.56-1.36,0.86c-0.38,0.3-0.54,0.59-0.46,0.87c0.05,0.19,0.18,0.37,0.4,0.56c0.22,0.19,0.56,0.4,1.02,0.65
			c1.46,0.77,2.65,1.83,3.56,3.19c0.91,1.36,1.71,2.78,2.41,4.25c0.15,0.32,0.3,0.62,0.44,0.9S120.94,81.88,120.99,81.93z
			 M130.93,57.65c0.57-0.95,1.16-2.11,1.75-3.48c0.59-1.37,1.1-2.8,1.53-4.29c0.43-1.49,0.73-2.97,0.9-4.44
			c0.17-1.47,0.1-2.79-0.22-3.97c-0.07-0.28-0.18-0.5-0.3-0.66c-0.13-0.17-0.28-0.22-0.47-0.17c-0.43,0.12-0.84,0.67-1.22,1.67
			c-0.38,1-0.71,2.28-1.01,3.85s-0.52,3.35-0.7,5.36C131.02,53.51,130.93,55.56,130.93,57.65z"/>
		<path class="st3" d="M153.28,55.18c0.43-0.12,0.67-0.08,0.72,0.1c0.04,0.16-0.1,0.31-0.42,0.46c-0.54,0.21-1.23,0.46-2.08,0.76
			c-0.85,0.29-1.72,0.56-2.62,0.8c-0.59,0.16-1.14,0.29-1.66,0.39c-0.52,0.11-0.98,0.16-1.37,0.17c0.21,0.31,0.39,0.65,0.52,1.03
			c0.13,0.38,0.23,0.67,0.29,0.89c0.23,1,0.19,1.87-0.14,2.62c-0.33,0.75-0.74,1.19-1.24,1.32c-0.34,0.09-0.67,0.02-0.98-0.21
			c-0.31-0.23-0.55-0.67-0.73-1.32c-0.21-0.77-0.27-1.67-0.2-2.7c0.07-1.03,0.24-1.84,0.51-2.45c0.18-0.44,0.39-0.7,0.64-0.77
			c0.22-0.06,0.36,0.05,0.44,0.33c0.04,0.16,0.04,0.34,0,0.55c0.2,0.01,0.42,0.14,0.65,0.37c0.61,0.04,1.36-0.07,2.25-0.31
			c0.96-0.26,1.94-0.59,2.93-1.01C151.8,55.81,152.62,55.46,153.28,55.18z M144.93,63.54c0.31-0.08,0.54-0.3,0.69-0.66
			c0.15-0.35,0.23-0.77,0.24-1.23c0.01-0.47-0.02-0.95-0.09-1.44c-0.07-0.5-0.15-0.94-0.26-1.35c-0.09-0.34-0.18-0.6-0.26-0.8
			c-0.08-0.19-0.16-0.28-0.22-0.26c-0.04-0.02-0.08-0.04-0.11-0.04c-0.04-0.01-0.08-0.04-0.12-0.09c-0.29,0.77-0.5,1.64-0.64,2.61
			c-0.14,0.96-0.13,1.79,0.02,2.48C144.34,63.36,144.59,63.63,144.93,63.54z"/>
		<path class="st3" d="M174.18,49.73c0.17-0.11,0.27-0.17,0.3-0.18c0.19-0.05,0.3,0,0.34,0.16c0.05,0.19-0.05,0.36-0.3,0.53
			c-0.57,0.45-1.32,0.94-2.24,1.47c-0.92,0.53-1.84,0.92-2.77,1.17c-0.65,0.17-1.27,0.26-1.87,0.25c-0.6-0.01-1.12-0.18-1.58-0.52
			c-0.02,0.3-0.08,0.8-0.18,1.49c-0.1,0.69-0.25,1.41-0.45,2.16c-0.2,0.75-0.46,1.42-0.79,2.02c-0.32,0.6-0.72,0.96-1.19,1.09
			c-0.44,0.12-0.82-0.09-1.14-0.61c-0.32-0.53-0.58-1.16-0.78-1.9c-0.26-0.96-0.39-1.82-0.39-2.58c-0.15,0.41-0.33,0.85-0.53,1.33
			c-0.2,0.48-0.41,0.93-0.63,1.34c-0.22,0.41-0.44,0.75-0.66,1.04c-0.22,0.29-0.43,0.46-0.65,0.52c-0.31,0.08-0.58-0.06-0.83-0.43
			c-0.25-0.36-0.44-0.81-0.58-1.33c-0.12-0.43-0.2-0.88-0.26-1.35c-0.06-0.46-0.06-0.89,0-1.27c0.05-0.44,0.13-0.78,0.27-1.02
			c0.13-0.23,0.28-0.37,0.43-0.41c0.24-0.07,0.42,0.1,0.53,0.5c0.05,0.19,0.08,0.4,0.1,0.65c0.02,0.24,0,0.47-0.04,0.68
			c-0.01,0.57-0.02,1.13-0.04,1.7c-0.01,0.57,0.03,1.02,0.12,1.36c0.07,0.25,0.16,0.36,0.28,0.32c0.18-0.05,0.39-0.25,0.62-0.62
			c0.23-0.36,0.46-0.78,0.7-1.26c0.23-0.48,0.46-0.98,0.68-1.5c0.22-0.52,0.4-0.97,0.53-1.33l0.12-0.28
			c0.06-0.15,0.15-0.24,0.27-0.27c0.15-0.04,0.27,0.09,0.36,0.4c0.02,0.06,0.04,0.15,0.07,0.25c0.03,0.11,0.04,0.21,0.03,0.31
			c0.02,0.56,0.06,1.22,0.13,1.98c0.07,0.76,0.19,1.45,0.35,2.07c0.11,0.4,0.24,0.72,0.39,0.97c0.15,0.24,0.35,0.33,0.6,0.26
			c0.34-0.09,0.66-0.42,0.95-0.97c0.29-0.56,0.53-1.19,0.73-1.88c0.2-0.7,0.35-1.39,0.45-2.08c0.1-0.69,0.15-1.2,0.16-1.53
			c-0.18-0.18-0.33-0.37-0.45-0.55c-0.12-0.18-0.21-0.43-0.3-0.74c-0.22-1.07-0.18-1.64,0.13-1.73c0.25-0.07,0.48,0.32,0.71,1.15
			c0.07,0.25,0.11,0.53,0.12,0.84c0.02,0.31,0.03,0.61,0.04,0.91c0.42,0.32,0.87,0.5,1.37,0.55c0.49,0.05,1.02,0,1.58-0.15
			c0.96-0.26,1.9-0.69,2.83-1.31C172.77,50.79,173.55,50.23,174.18,49.73z"/>
		<path class="st3" d="M214.19,27.32c0.38-0.07,0.65-0.09,0.8-0.07c0.16,0.02,0.24,0.07,0.26,0.13c0.03,0.12-0.04,0.27-0.23,0.43
			c-0.19,0.17-0.39,0.28-0.6,0.34c-0.32,0.05-0.64,0.08-0.97,0.08c-0.33,0.01-0.65,0.05-0.96,0.13c-1.59,0.36-3.18,0.73-4.75,1.1
			c-1.57,0.37-3.15,0.77-4.72,1.19c-1.21,0.32-2.41,0.66-3.6,1.02c-1.2,0.35-2.38,0.72-3.53,1.1c-0.25,1.53-0.52,3.24-0.79,5.13
			c-0.27,1.9-0.49,3.79-0.67,5.67s-0.26,3.65-0.27,5.29c-0.01,1.64,0.12,2.96,0.39,3.95c0.12,0.43,0.31,0.84,0.57,1.21
			c0.27,0.38,0.66,0.49,1.19,0.35c0.65-0.17,1.38-0.78,2.19-1.83c0.81-1.05,1.61-2.24,2.4-3.57c0.78-1.34,1.51-2.67,2.19-3.99
			c0.67-1.32,1.19-2.36,1.55-3.12c0.07-0.22,0.19-0.35,0.34-0.39c0.15-0.04,0.25,0.02,0.29,0.17c0.03,0.12,0.01,0.28-0.07,0.47
			c-0.26,0.5-0.59,1.14-0.97,1.93c-0.39,0.78-0.82,1.61-1.3,2.49c-0.48,0.87-0.99,1.77-1.54,2.68c-0.55,0.91-1.11,1.74-1.67,2.49
			c-0.56,0.75-1.12,1.38-1.67,1.91c-0.55,0.53-1.08,0.86-1.57,0.99c-0.62,0.17-1.14,0-1.57-0.5c-0.43-0.5-0.78-1.24-1.05-2.23
			c-0.29-1.08-0.49-2.39-0.61-3.94c-0.12-1.54-0.16-3.15-0.13-4.84c0.03-1.68,0.12-3.37,0.26-5.06c0.14-1.69,0.33-3.23,0.55-4.62
			c-0.94,0.32-1.81,0.62-2.62,0.9c-0.8,0.28-1.59,0.59-2.36,0.93c-0.42,0.18-0.81,0.37-1.19,0.57c-0.38,0.2-0.77,0.39-1.19,0.57
			c-0.12,0.06-0.27,0.12-0.45,0.17c-0.37,0.1-0.57,0.09-0.61-0.04c-0.04-0.15,0.25-0.37,0.87-0.63c1.26-0.5,2.51-0.96,3.76-1.38
			c1.25-0.42,2.52-0.85,3.83-1.3c0.14-0.7,0.28-1.35,0.42-1.95c0.14-0.6,0.28-1.12,0.43-1.56c0.32-0.91,0.65-1.42,0.99-1.51
			c0.25-0.07,0.42,0.1,0.53,0.5c0.09,0.34,0.09,0.82-0.01,1.44l-0.39,2.44c2.12-0.73,4.22-1.41,6.29-2.03
			c2.07-0.62,4.17-1.22,6.3-1.79c0.93-0.25,1.86-0.5,2.81-0.75C212.26,27.74,213.22,27.52,214.19,27.32z"/>
		<path class="st3" d="M218.42,37.72c0.43-0.12,0.67-0.08,0.72,0.1c0.04,0.16-0.1,0.31-0.42,0.46c-0.54,0.21-1.23,0.46-2.08,0.76
			c-0.85,0.29-1.72,0.56-2.62,0.8c-0.59,0.16-1.14,0.29-1.66,0.39c-0.52,0.11-0.98,0.16-1.37,0.17c0.21,0.31,0.39,0.65,0.52,1.03
			c0.13,0.38,0.23,0.68,0.29,0.89c0.23,1,0.19,1.87-0.14,2.62c-0.33,0.75-0.74,1.19-1.24,1.32c-0.34,0.09-0.67,0.02-0.98-0.21
			c-0.31-0.23-0.55-0.67-0.73-1.32c-0.21-0.77-0.27-1.67-0.2-2.7c0.07-1.03,0.24-1.84,0.51-2.45c0.18-0.44,0.39-0.7,0.64-0.77
			c0.22-0.06,0.36,0.05,0.44,0.33c0.04,0.16,0.04,0.34,0,0.55c0.2,0.01,0.42,0.14,0.65,0.37c0.61,0.04,1.36-0.07,2.25-0.31
			c0.96-0.26,1.94-0.59,2.93-1.01C216.94,38.34,217.77,37.99,218.42,37.72z M210.08,46.07c0.31-0.08,0.54-0.3,0.69-0.66
			c0.15-0.36,0.23-0.77,0.24-1.23c0.01-0.47-0.02-0.95-0.09-1.44c-0.07-0.5-0.15-0.94-0.26-1.35c-0.09-0.34-0.18-0.6-0.26-0.8
			c-0.08-0.19-0.16-0.28-0.22-0.26c-0.04-0.02-0.08-0.04-0.11-0.04c-0.04-0.01-0.08-0.04-0.12-0.09c-0.29,0.77-0.5,1.64-0.64,2.61
			c-0.14,0.96-0.13,1.79,0.02,2.48C209.48,45.9,209.74,46.16,210.08,46.07z"/>
		<path class="st3" d="M250.58,29.39c0.1-0.13,0.21-0.21,0.33-0.24c0.15-0.04,0.25,0.02,0.29,0.17c0.04,0.16,0,0.31-0.12,0.48
			c-0.32,0.42-0.79,1-1.4,1.74c-0.61,0.74-1.28,1.5-2,2.27c-0.72,0.77-1.44,1.47-2.17,2.1c-0.73,0.63-1.38,1.02-1.97,1.17
			c-0.46,0.12-0.82,0.07-1.06-0.16c-0.25-0.23-0.42-0.56-0.54-1c-0.08-0.31-0.15-0.66-0.19-1.04s-0.06-0.76-0.07-1.12
			c-0.01-0.36-0.02-0.69-0.03-0.99c-0.02-0.29-0.05-0.52-0.09-0.67c-0.04-0.15-0.11-0.22-0.2-0.2c-0.15,0.04-0.29,0.4-0.4,1.08
			s-0.24,1.41-0.37,2.21c-0.13,0.8-0.31,1.55-0.53,2.25c-0.22,0.71-0.53,1.11-0.93,1.22c-0.28,0.07-0.6-0.01-0.96-0.26
			c-0.36-0.25-0.65-0.76-0.86-1.54c-0.17-0.62-0.24-1.28-0.24-2c0.01-0.71,0.06-1.37,0.17-1.96c0.12-0.53,0.28-0.94,0.46-1.24
			c0.19-0.3,0.37-0.47,0.56-0.52c0.28-0.07,0.47,0.09,0.58,0.49c0.09,0.34,0.11,0.7,0.04,1.08c-0.03,0.27-0.08,0.62-0.15,1.03
			c-0.07,0.42-0.12,0.85-0.15,1.31c-0.03,0.45-0.04,0.9-0.04,1.33c0,0.43,0.04,0.79,0.11,1.06c0.09,0.34,0.23,0.5,0.42,0.48
			c0.22-0.16,0.41-0.56,0.56-1.2c0.16-0.64,0.32-1.33,0.48-2.07c0.16-0.74,0.33-1.42,0.51-2.03c0.18-0.61,0.41-0.95,0.68-1.03
			s0.46,0.07,0.56,0.45c0.06,0.22,0.09,0.5,0.11,0.84c0.01,0.34,0.02,0.71,0.01,1.09c-0.01,0.38,0,0.76,0.02,1.14
			s0.07,0.7,0.15,0.98c0.18,0.68,0.57,0.94,1.15,0.78c0.53-0.14,1.14-0.53,1.85-1.17c0.71-0.64,1.41-1.35,2.11-2.15
			c0.7-0.8,1.34-1.59,1.92-2.38C249.81,30.41,250.26,29.81,250.58,29.39z"/>
		<path class="st3" d="M259.19,32.21c-0.27-0.26-0.64-0.42-1.12-0.47c-0.48-0.05-0.97-0.11-1.46-0.18c-0.5-0.06-0.95-0.18-1.36-0.36
			c-0.41-0.17-0.69-0.52-0.83-1.04c-0.17-0.62-0.15-1.31,0.06-2.08c0.21-0.77,0.52-1.51,0.92-2.21c0.41-0.71,0.88-1.33,1.41-1.87
			c0.53-0.54,1.06-0.88,1.59-1.02c0.46-0.12,0.84-0.08,1.13,0.14c0.29,0.22,0.49,0.53,0.6,0.93c0.12,0.46,0.1,1.01-0.06,1.63
			c-0.17,0.62-0.4,1.23-0.71,1.81c-0.15,0.31-0.33,0.53-0.54,0.69c-0.21,0.16-0.4,0.26-0.59,0.31c-0.34,0.09-0.54,0.03-0.6-0.19
			c-0.04-0.16,0.02-0.37,0.18-0.64c0.16-0.27,0.34-0.58,0.55-0.92c0.21-0.34,0.39-0.68,0.54-1.04c0.15-0.35,0.27-0.69,0.35-1.01
			c0.08-0.32,0.09-0.6,0.02-0.85c-0.03-0.12-0.11-0.17-0.24-0.14c-0.43,0.12-0.89,0.42-1.37,0.92c-0.48,0.49-0.92,1.07-1.33,1.72
			c-0.4,0.66-0.71,1.32-0.93,1.99c-0.22,0.67-0.27,1.22-0.15,1.66c0.07,0.28,0.27,0.49,0.59,0.64c0.32,0.15,0.7,0.28,1.12,0.39
			c0.43,0.12,0.87,0.24,1.32,0.37c0.45,0.13,0.84,0.31,1.17,0.56c1.12-1.26,2.34-2.51,3.67-3.74c1.33-1.23,2.65-2.36,3.97-3.38
			c0.17-0.11,0.28-0.18,0.35-0.19c0.19-0.05,0.3,0,0.34,0.16c0.04,0.16-0.06,0.33-0.31,0.53c-1.41,1.04-2.78,2.1-4.1,3.16
			c-1.32,1.07-2.57,2.25-3.74,3.56c0.26,0.23,0.43,0.5,0.51,0.81c0.12,0.46,0.09,1.01-0.11,1.64c-0.2,0.63-0.49,1.25-0.89,1.86
			c-0.38,0.56-0.77,1.03-1.17,1.38c-0.4,0.35-0.77,0.58-1.11,0.67c-0.46,0.12-0.74,0.02-0.83-0.32c-0.11-0.4,0.11-1.14,0.65-2.21
			c0.32-0.65,0.71-1.29,1.17-1.93S258.76,32.72,259.19,32.21z M256.91,35.95c-0.52,1.03-0.73,1.72-0.64,2.06
			c0.06,0.22,0.21,0.29,0.46,0.23s0.55-0.28,0.92-0.65c0.37-0.36,0.73-0.86,1.09-1.49c0.32-0.55,0.56-1.14,0.72-1.76
			c0.16-0.62,0.19-1.15,0.07-1.58c-0.02-0.09-0.09-0.22-0.2-0.39c-0.37,0.47-0.79,1.02-1.25,1.65
			C257.63,34.65,257.24,35.3,256.91,35.95z"/>
		<path class="st3" d="M281.5,21.05c0.1-0.12,0.21-0.21,0.33-0.24c0.19-0.05,0.3,0,0.34,0.16c0.04,0.16-0.01,0.32-0.17,0.49
			c-0.46,0.52-1.04,1.16-1.75,1.91c-0.71,0.75-1.46,1.49-2.24,2.22c-0.78,0.72-1.58,1.38-2.38,1.96c-0.81,0.58-1.53,0.96-2.18,1.13
			c-0.53,0.14-0.99,0.08-1.39-0.17c-0.4-0.26-0.68-0.68-0.84-1.27c-0.16-0.59-0.21-1.27-0.15-2.05c0.06-0.78,0.19-1.53,0.39-2.27
			c0.2-0.73,0.47-1.37,0.81-1.91c0.34-0.54,0.72-0.86,1.15-0.98c0.31-0.08,0.59-0.04,0.85,0.12c0.26,0.16,0.43,0.41,0.53,0.75
			c0.17,0.65,0.07,1.34-0.31,2.07c-0.38,0.73-0.83,1.4-1.33,2c-0.26,0.27-0.48,0.46-0.67,0.58c-0.18,0.12-0.35,0.19-0.51,0.23
			c-0.16,0.04-0.27,0.06-0.34,0.04c-0.11,0.69-0.1,1.29,0.03,1.78c0.09,0.34,0.26,0.59,0.5,0.76c0.24,0.17,0.57,0.2,0.97,0.09
			c0.56-0.15,1.22-0.53,1.98-1.13c0.77-0.6,1.54-1.28,2.33-2.04c0.79-0.76,1.55-1.53,2.27-2.3
			C280.45,22.22,281.04,21.57,281.5,21.05z M273.79,20.68c-0.25,0.07-0.56,0.47-0.94,1.22c-0.38,0.75-0.68,1.58-0.89,2.5
			c0.24-0.23,0.49-0.51,0.77-0.85c0.27-0.34,0.52-0.68,0.75-1.02c0.22-0.34,0.39-0.66,0.51-0.96c0.12-0.3,0.15-0.54,0.1-0.72
			C274.05,20.7,273.95,20.64,273.79,20.68z"/>
	</g>
</g>
</svg>
