<?xml version="1.0" encoding="utf-8"?>
<!-- Generator: Adobe Illustrator 24.0.1, SVG Export Plug-In . SVG Version: 6.00 Build 0)  -->
<svg version="1.1" id="圖層_1" xmlns="http://www.w3.org/2000/svg" xmlns:xlink="http://www.w3.org/1999/xlink" x="0px" y="0px"
	 viewBox="0 0 161 78" style="enable-background:new 0 0 161 78;" xml:space="preserve">
<style type="text/css">
	.st0{enable-background:new    ;}
	.st1{fill:#F58F8E;}
	.st2{fill:#707070;}
	.st3{fill:none;stroke:#707070;stroke-width:0.3;stroke-miterlimit:4.0005;}
	.st4{fill:#95918E;}
	.st5{fill:#FFFFFF;}
	.st6{fill:#A67C52;}
</style>
<g id="Group_789" transform="translate(-1118.239 -676.768) rotate(-42)">
	<g id="Group_788" transform="translate(1232 2618)">
		<g id="Group_786" transform="translate(6.35 11.254)">
			<path id="Path_29986" class="st4" d="M-888.764-1323.843c0.3,0.275,0.391,0.711,0.227,1.083c-0.186-0.473-0.276-0.3-0.469-0.862
				c-0.144-0.061-0.31,0.005-0.371,0.149c-0.015,0.036-0.023,0.075-0.023,0.114c-0.059-0.128-0.355,0.052-0.43-0.255
				c0.252-0.269,0.674-0.283,0.943-0.031c0.034,0.032,0.065,0.068,0.092,0.107C-888.698-1323.626-888.758-1323.757-888.764-1323.843
				z"/>
			<path id="Path_29999" class="st4" d="M-791.556-1300.018c-0.373-0.279,0.207,0.723-0.3,0.266
				C-791.763-1299.744-791.939-1300.427-791.556-1300.018z"/>
			<path id="Path_30004" class="st4" d="M-815.672-1309.757c0.089,0.048,0.137,0.044,0.217,0.155c-0.017,0.003-0.034,0.003-0.051,0
				C-815.518-1309.663-815.558-1309.715-815.672-1309.757z"/>
			<path id="Path_30008" class="st4" d="M-817.271-1310.264l0.5,0.355C-816.946-1310.016-817.113-1310.135-817.271-1310.264z"/>
			<path id="Path_30010" class="st4" d="M-814.666-1309.311c0.129,0.011,0.254,0.049,0.368,0.111c0.009,0.03,0.012,0.062,0.01,0.093
				L-814.666-1309.311z"/>
			<path id="Path_30012" class="st4" d="M-762.429-1260.306l-0.031-0.371l-0.018-0.12l0.034,0.313l-0.045-0.415l-0.024-0.156
				l-0.035-0.364c-0.014-0.044,0.014,0.163-0.028-0.081c-0.021-0.171,0.039,0.163,0-0.12c-0.033-0.18-0.027-0.147-0.062-0.334
				c-0.01-0.029-0.006,0.015,0,0.1c-0.026-0.2-0.055-0.385-0.084-0.586c-0.038-0.205-0.088-0.407-0.149-0.606
				c-0.014-0.088-0.053-0.354-0.076-0.5c0.031,0.311-0.155-0.635-0.192-0.551c-0.021-0.23-0.186-0.828-0.28-1.235l0.02,0.1
				c-0.08-0.2-0.116-0.294-0.172-0.439c-0.004-0.196-0.031-0.39-0.08-0.58c-0.139-0.276-0.012,0.173-0.09,0.088
				c0.049,0.012-0.106-0.488-0.037-0.4c-0.036-0.105-0.09-0.203-0.158-0.29c0.061-0.042-0.061-0.2-0.078-0.378
				c-0.151-0.306-0.1-0.075-0.2-0.415c-0.072-0.136,0.012,0.167,0.012,0.167c-0.131-0.344,0-0.165,0.012-0.24
				c-0.131-0.412-0.118-0.188-0.2-0.326c-0.08-0.258-0.086-0.458-0.158-0.65c-0.018-0.013-0.037-0.05-0.034-0.006
				c-0.051-0.274-0.34-0.8-0.391-1.124c-0.01-0.016-0.022-0.029-0.037-0.04c0.061,0.048,0.106,0.053,0.133,0.041
				c-0.063-0.154-0.063-0.289-0.143-0.344c0.024,0.046,0.031,0.099,0.022,0.15l-0.043-0.163c-0.139-0.14,0.063,0.222,0.006,0.227
				c-0.084-0.316-0.189-0.626-0.314-0.928c-0.1-0.045,0.208,0.566,0,0.25l0.188,0.371c-0.245-0.277,0.1,0.225-0.141-0.027
				c-0.231-0.489-0.19-0.552-0.46-1.037c0-0.113,0.09,0.031,0.084-0.082c-0.241-0.7-0.494-0.527-0.621-1.045
				c0-0.137,0.1-0.2-0.143-0.555l-0.052,0.133c-0.251-0.472,0.021-0.283-0.325-0.769c0,0.092,0.168,0.373,0.113,0.3
				c-0.27-0.311-0.059-0.231-0.194-0.477l-0.135-0.042l-0.779-1.617c-0.015,0.034,0,0.132-0.111,0.007
				c-0.435-0.749-0.925-1.464-1.466-2.139l-0.047-0.268c-0.039-0.06-0.127-0.1-0.1-0.038c-0.231-0.254,0.063-0.021,0.022-0.151
				c-0.1-0.148-0.208-0.187-0.178-0.09c-0.306-0.651-0.706-1.254-1.188-1.789l0.029,0.1c-0.327-0.367-0.025-0.456-0.411-0.786
				l0.029,0.069c-0.613-0.81-1.284-1.574-2.008-2.286c0.139-0.149-0.777-0.776-0.523-0.869c-0.419-0.275-0.817-0.581-1.19-0.915
				c-0.172-0.167-0.032-0.283-0.19-0.5l-0.174,0.02l-0.082-0.313l-0.344-0.121l-0.135-0.2c0.082,0.076,0.229,0.155,0.268,0.135
				c-0.245-0.321-0.572-0.569-0.947-0.719l-0.585-0.742c-0.057,0.028,0.043,0.152,0.094,0.254c-0.211-0.412-0.262-0.038-0.454-0.417
				c0.09,0.041,0.082-0.043,0.11-0.057c-0.361-0.234-0.683-0.523-0.955-0.856l-0.071,0.078c-0.556-0.529-1.151-1.119-1.823-1.7
				c0.3,0.2,0.482,0.108,0.309-0.069l-0.286-0.03c0-0.135,0.284,0.165,0.182-0.092c-0.276-0.214-0.409-0.1-0.331,0.035l-0.233-0.279
				c-0.082,0-0.043,0.065-0.1,0.1c0.006-0.134-0.742-0.418-0.7-0.619h-0.079c-0.665-0.586-0.92-0.861-1.521-1.327
				c0.18-0.047-0.1-0.22-0.121-0.392c-0.5-0.331-1.143-0.679-1.658-1.1c-0.276-0.311,0.057-0.12,0.008-0.276
				c-0.206,0.017-0.722-0.4-0.577-0.156c-0.607-0.5-0.838-0.626-1.552-1.274c0.172,0.048,0.313,0.115,0.321,0.062
				c-0.141-0.123-0.321-0.194-0.509-0.2l0.022,0.033c-0.722-0.749-2.78-1.458-3.277-2.071l0.029,0.034l-0.673-0.6
				c-0.442-0.243,0.1,0.19-0.327,0.035c-0.626-0.676-1.56-0.917-2.122-1.463c-1.169-0.219-2.271-1.3-3.529-1.68l0.2-0.015
				c-0.09-0.167-0.362-0.127-0.564-0.209c0.137-0.021,0.378,0.1,0.315,0c-2.144-1.193-4.376-2.219-6.677-3.069
				c-0.841-0.358,0.36-0.5-1.053-0.829l0.025,0.228c-1.368-0.847-3.488-1.477-4.864-2.3c0.035,0.068-0.047,0.1,0.116,0.171
				c-0.538-0.076-1.327-0.542-1.181-0.606c-0.3-0.1-0.215,0.037-0.468,0.008c-0.5-0.091-0.683-0.461-1.086-0.452
				c-0.067,0,0.039,0.067,0.092,0.1c-0.145-0.133-1.165-0.417-0.695-0.428c-0.777-0.2-1.167-0.524-1.836-0.662
				c-0.084-0.247-1.263-0.372-1-0.58c-0.319,0.183-1.482-0.292-1.771-0.513c0.035,0.1-0.5-0.071-0.491,0.062
				c-0.5-0.168-0.9-0.354-0.613-0.419c-1.391-0.085-1.519-0.8-2.625-0.683c-0.654-0.3-1.294-0.579-1.932-0.849
				s-1.341-0.49-2.008-0.721c-0.319,0.218,1.546,0.471,1.1,0.663c-0.997-0.495-2.038-0.897-3.109-1.2
				c-0.4-0.071,0.041,0.147,0.1,0.215c-1.206-0.471-2.654-0.722-3.664-1.184c-0.029,0.021,0.063,0.08,0.16,0.132
				c-0.221-0.078-0.616-0.117-0.427-0.21l0.2,0.086c0.634-0.046-0.5-0.547-0.421-0.637c-0.039,0.4-1.368-0.234-1.278,0.3
				c-0.135-0.059-0.264-0.158-0.119-0.218c-0.274-0.039-0.415-0.017-0.29,0.121c-0.8-0.272-0.317-0.306-1.131-0.5
				c-0.073,0.052,0.059,0.111,0.053,0.19c-0.363-0.294-0.805-0.476-1.27-0.522c-0.006,0.041-0.145,0.062,0.06,0.111
				c-0.987-0.404-2.003-0.731-3.04-0.978c0.055,0.326-0.54-0.033-0.9,0.162l-0.638-0.208l0.423-0.04
				c-0.532-0.183-1.075-0.329-1.627-0.436l0.356,0.182l-1.133-0.284l0.775,0.059c-0.5-0.239,0.415-0.248-0.5-0.366
				c-0.374-0.05-0.75-0.074-1.127-0.074l0,0c-0.3-0.191-0.645-0.299-1-0.315c-0.207,0.043-0.2,0.257-0.333,0.287
				c-0.086-0.244-1.417-0.355-1.576-0.63c0.076,0.073-0.053,0.189-0.125,0.2l-0.082-0.2c-0.35-0.013-0.419,0-0.48,0.1
				c-0.914-0.154,0.61-0.221-0.579-0.318c0.067,0.029,0,0.044,0.146,0.1c-1.121-0.156-1.979-0.465-3.054-0.568
				c-0.546,0.179,0.81,0.2,0.26,0.339c-1.388-0.283-2.678-0.783-4.13-0.967l0.286,0.018c0.145-0.369-1.206-0.012-1.75-0.29
				c0.147,0.055,0.041,0.227,0.031,0.181c-1-0.113-1.861-0.417-3.259-0.721l0.1,0.115c-0.652,0-1.564-0.162-2.222-0.205
				c-0.106-0.116-0.476-0.151-0.145-0.254c-2.363,0.265-3.443-0.792-5.505-0.581c0.2,0.029,0.421,0.151,0.259,0.128
				c-0.46-0.1-0.922-0.193-1.4-0.269c0.237-0.151,0.267-0.078,0.674-0.172c-0.255-0.165-0.549-0.26-0.853-0.277
				c0.591,0.181-0.2,0.263-0.552,0.323c0.084-0.045,0.025-0.111,0.086-0.16c-0.987,0.21,0.109-0.345-1.1-0.262l-0.006,0.093
				c-0.356-0.128-0.725-0.217-1.1-0.264c-0.309,0.175,0.362,0.136,0.28,0.3c-0.591-0.075-0.94-0.495-1.615-0.359
				c0.221,0.082,0.587,0.121,0.807,0.2c-0.403,0.109-0.824,0.14-1.239,0.09h0.047h-1.083l0.3-0.036
				c-0.425-0.593-1.47-0.255-2.277-0.7c0.793,0.428,0.051,0.2-0.01,0.438c-0.3,0.036-0.73,0.065-0.656,0.14
				c-0.368-0.234-0.879,0.062-1.4-0.278c-0.073,0.07-0.515-0.047-0.511,0.149c-0.6-0.106,0.221-0.118,0.219-0.211
				c-0.832-0.335-2.451,0.136-3.664-0.323c-1.133-0.238-1.233-0.512-2.3-0.73c-0.438,0.093,0.177,0.3,0.177,0.3
				c-0.553,0.063-1.113,0.021-1.65-0.123c0.086,0.076-0.059,0.124-0.274,0.2c-0.452-0.056-0.184-0.306-0.845-0.239
				c0.078,0.141,0.189,0.261,0.325,0.348c-0.511-0.112-0.986-0.3-1.519-0.413c-0.207,0.125,0.253,0.233,0.413,0.337
				c-0.605-0.109-1.584-0.248-1.695-0.48l0.438-0.047c-0.227-0.028-0.192,0.178-0.039,0.23c0.283,0.153,0.631,0.117,0.877-0.091
				l-0.382-0.081c0.605-0.427,1.587,0.2,2.4,0.234l-0.192-0.357l0.71,0.339c0.214-0.073,0.421-0.246,0.041-0.328
				c0.658-0.116,0.462,0.158,1.046,0.017c0.068-0.023,0.052-0.042,0.007-0.058l0.523,0.142c-0.08-0.077,0.2-0.223-0.169-0.2
				c1.116-0.1,1.533,0.376,2.038,0.16l-0.076-0.027c1.366,0.223,0.021,0.249,0.938,0.609l1.02-0.523l0.014,0.245
				c0.151,0,0.45,0.009,0.448-0.089c0.458,0.2-0.147,0.095,0.086,0.27c0.824-0.16,1.883,0.254,2.242-0.087
				c0.147,0.2-0.74,0.063-0.071,0.265c0.439-0.371,0.815,0.161,1.556,0.049c-0.074-0.224-0.74-0.183,0-0.293
				c0.178,0.384,1.282,0.062,1.781,0.187c-0.143,0.271,1.094,0.24,1.934,0.426c0-0.095,1.785,0.041,2.688,0.039l0.006-0.047
				c-0.022,0.281,0.873,0.326,1.462,0.449c0.09-0.159,0.021-0.233-0.268-0.34l0.589,0.066c0.078,0.1,0.231,0.162,0.591,0.236v-0.211
				c0.807,0.232,1.635,0.385,2.472,0.458c-0.088,0.184-1.173,0.383-0.229,0.646c0.116-0.09,0.284-0.248,0.043-0.325
				c0.146,0.071,0.306,0.108,0.468,0.108l-0.288-0.219c0.507-0.008,0.127,0.167,0.5,0.2c0.1-0.137,0.344-0.06,0.38-0.174
				c-0.082-0.026-0.36,0.012-0.454-0.061c0.41,0.042,0.824,0.022,1.228-0.057c-0.1,0.071-0.149,0.182,0.133,0.241
				c0.76,0.119,0.4-0.124,0.906-0.129c0.108,0.12,0.68,0.094,0.523,0.294c0.167,0.012,0.334-0.023,0.482-0.1
				c0.323,0.145,1.84,0.29,1.2,0.436h-0.11l0.057,0.017l0,0c1.122,0.38,2.821,0.256,3.989,0.577l0.059-0.064
				c0.688,0.14,1.366,0.328,2.028,0.564c0.223,0.038,0.642-0.022,0.622-0.112c0.463,0.18,0.956,0.271,1.453,0.271
				c-0.464-0.208,0.3-0.059-0.509-0.182c0.583-0.022,1.164,0.086,1.7,0.318c-0.1-0.2,0.775-0.095,1.079,0.014l-0.644,0.017
				c0.365,0.084,0.734,0.147,1.106,0.19l0.035-0.235c1.83,0.017,2.241,0.934,3.841,0.773c0.227,0.219-0.918-0.076-0.758,0.158
				c0.709,0.116,1.756-0.008,1.971,0.038c1.065,0.1,0.521,0.464,1.586,0.6c-0.21,0.04-0.558,0.195,0.086,0.41
				c0.709,0.117,1.2-0.1,0.838-0.246c-0.155-0.04-0.262-0.036-0.284-0.012c-0.188-0.072-0.439-0.161-0.075-0.176v0.086
				c0.425,0,1.353,0.212,1.276,0.057c0.432,0.173,0.076,0.155-0.35,0.108c1,0.093,1.374,0.283,2.345,0.422
				c-0.184,0-0.419,0.047-0.28,0.078c1.376,0.239,0.388,0.262,1.2,0.5c0.624,0.026,0.154-0.274,0.9,0.024
				c0.62,0.068,0.352-0.138,0.217-0.243c0.667,0.227,1.363,0.358,2.067,0.389l-0.341-0.156c0.199,0.084,0.406,0.151,0.617,0.2
				l-0.421,0.062c0.276,0.04,0.482,0.092,0.554,0.04c0.131,0.144-0.5,0.155-0.166,0.389c0.419,0.02,0.885,0.313,1.243,0.182
				c-1.1-0.2,0.36-0.131-0.464-0.376c0.199,0.078,0.407,0.129,0.619,0.153c0.063-0.009,0.017-0.042-0.037-0.068
				c1.2,0.107,0.17,0.294,1.186,0.546c0.012-0.121,0.5-0.107,0.635-0.046c-0.411-0.1-0.429,0.1-0.163,0.259
				c0.76,0.093,0.613,0.233,0.95,0.319l-0.421-0.077c-0.016,0.123,0.311,0.2,0.7,0.355c0.147-0.056-0.313-0.16-0.113-0.146
				c0.229,0.29,1.339,0.163,1.836,0.459c0.4,0.035,0.3-0.148,0.636-0.106c0.56,0.329,1.006,0.127,1.637,0.449
				c-0.421,0.042-0.411,0.005-0.049,0.275l-1.153-0.458l0.546,0.4c-0.393-0.112-0.7-0.311-0.965-0.361
				c0.237,0.207,0.243,0.167-0.1,0.205c0.822-0.01,0.883,0.4,1.695,0.472l0.464-0.274c1.134,0.16,1.411,0.615,2.7,0.918
				c-0.152-0.026-0.294-0.055-0.456-0.077c-0.031,0.149,0.679,0.251,0.971,0.417c0.128-0.1,0.419-0.049,0.679-0.048
				c-0.141,0.056,0.844,0.28,0.619,0.481l0.724,0.064c1.008,0.27,0.576,0.589,1.515,0.859c-0.086-0.177,0.433-0.1-0.031-0.361
				c0.3,0.1,0.593,0.176,0.483,0.232c0.276,0.01,0.593,0.384,1.022,0.4c0.051,0.076-0.084,0.172,0.262,0.278
				c0.069,0,0.08-0.039,0.08-0.039c-0.08,0.039,0.406,0.227-0.068,0.215c1.413,0.076,2.359,0.934,3.557,1.022
				c0.548,0.26,1.223,0.566,1.76,0.784c0.014-0.035,0.082-0.036-0.041-0.069c0.914,0.231-0.014,0.38,1.02,0.641
				c0.711,0.061-0.311-0.237,0.065-0.172c0.685-0.183,0.957,0.439,1.8,0.558l-0.1-0.072c0.6,0.111,0.8,0.532,1.521,0.817
				c0,0,0.014-0.033,0.078-0.033c0.448,0.438,0.969,0.793,1.541,1.049c0.013-0.167-0.182-0.172,0.16-0.2
				c0.26,0.141-0.436,0.091,0.086,0.369c0.366,0.091,0.741,0.135,1.118,0.132l-0.538-0.249c0.579,0.017,0.705,0.318,1.037,0.432
				l0.1-0.064c0.742,0.412,0.423,0.531,1.29,0.945l-0.187-0.01c0.137,0.341,0.569,0.132,0.787,0.443l0.468-0.04
				c0.389,0.338,0.8,0.648,1.231,0.93c-0.068-0.232-0.581-0.593-0.83-0.84c0.3,0.15,1,0.524,0.993,0.654
				c-0.091-0.1-0.205-0.175-0.333-0.218c0.258,0.393,0.637,0.692,1.079,0.851c0.56-0.263,1.621,0.766,2.51,0.846
				c1.012,0.644,2.062,1.228,3.142,1.749c-0.873-0.1,0.317,0.2-0.247,0.292c0.106,0.101,0.232,0.179,0.37,0.229l1.03,0.4
				c0.315,0.076-0.126-0.179,0-0.194c0.571,0.337,0.427,0.091,0.908,0.287c-0.243,0-0.059,0.185,0.311,0.366l-0.65-0.22
				c0.5,0.549,1.045,0.315,1.548,0.867l-0.09-0.192c0.288,0.275,1.448,0.92,1.406,1.266c0.117,0.033,0.325,0.063,0.2-0.06
				c0.751,0.68,1.546,1.31,2.378,1.888l0.045-0.071c0.125,0.122,0.069,0.246,0.376,0.365c0.035-0.018,0.045-0.071,0.125-0.019
				c0.124,0.2,0.296,0.367,0.5,0.485l-0.057-0.156c0.932,0.577,0.873,1.005,1.448,1.532c0.3-0.066,1,0.4,1.337,0.63l0.033-0.017
				c0.688,0.578,1.299,1.24,1.821,1.971c0.902,0.613,1.753,1.3,2.543,2.052c-0.149-0.1-0.194,0.053-0.1,0.179
				c0.211,0.152,0.248,0.477,0.466,0.41l-0.062-0.057c0.356,0.081,0.612,0.424,0.865,0.682l-0.27,0.093
				c1.126,0.6,1.538,1.8,2.212,2.118c0.069,0.177,0.245,0.382,0.317,0.556l0.143-0.031c0.388,0.396,0.752,0.814,1.09,1.253
				l0.006-0.131c0.282,0.319-0.1,0.465,0.129,0.763l0.28,0.062c0.485,0.516,0.912,1.085,1.272,1.695
				c0.022-0.012,0.066-0.037,0-0.129c0.227,0.263,0.865,1.018,0.533,0.952c0.174-0.014,0.407,0.586,0.544,0.9l0.088-0.061
				c-0.013,0.234,0.054,0.465,0.19,0.656c0.073,0.084,0.143,0.065,0.037-0.046c0.253,0.279,0.043,0.234,0.337,0.575l-0.014-0.138
				c0.207,0.294,0.156,0.274,0.17,0.446c0.103,0.239,0.271,0.444,0.484,0.593c-0.034,0.047-0.016,0.217,0.115,0.388
				c0.051,0.02,0.035-0.046,0.027-0.079c0.362,0.489,0.319,0.749,0.621,1.08c0.036,0.005,0.069,0.024,0.092,0.052
				c-0.235-0.393-0.427-0.71-0.417-0.68c0.1-0.009,0.3,0.308,0.278,0.042c0.077,0.36,0.212,0.705,0.4,1.021
				c0.016,0.014,0.033,0.027,0.051,0.038l-0.006-0.033c0.039,0.062,0.067,0.129,0.085,0.2l0.158,0.256
				c0.09,0.03,0.223,0.364,0.309,0.524c-0.1,0,0.022,0.2-0.151,0.013c0.018,0.025-0.006-0.031-0.057-0.137l-0.025-0.069v0.011
				l-0.2-0.4c0.016,0.162,0.081,0.315,0.188,0.437l-0.031,0.236c0.241,0.207,0.523,0.623,0.628,0.675
				c0.24,0.463,0.409,0.96,0.5,1.474c0.043,0.141,0.113,0.157,0.158,0.207c-0.027-0.072-0.048-0.146-0.063-0.222
				c0.086,0.282,0.352,0.827,0.288,0.9c0.2,0.348,0-0.2,0.2,0.279v-0.067c0.519,0.943,0.407,1.562,0.957,2.609
				c-0.015-0.044-0.037-0.086-0.065-0.123c0.468,1.2,0.762,2.491,1.116,3.685c0.051,0.192,0.085,0.388,0.1,0.586l0.045,0.072
				l0.045,0.357c0.1,0.5,0.215,0.871,0.3,1.511l-0.027-0.082c0.031,0.213,0.075,0.507,0.1,0.689l0.016,0.165l0.006,0.007
				l0.055,0.564c0.029,0.283,0.016,0.165,0.057,0.57c0.006,0.179,0.015,0.495,0.017,0.587c0-0.068-0.006-0.159-0.008-0.252
				l0.008,0.217 M-767.784-1275.479L-767.784-1275.479l0.086,0.164L-767.784-1275.479z M-768.199-1276.143l0.184,0.288
				c0.049,0.02,0.07-0.009,0.027-0.076c-0.003,0.036-0.12-0.118-0.211-0.214V-1276.143z M-766.727-1274.794
				c-0.041-0.108-0.078-0.142-0.1-0.155l0.084,0.187v0.013c0.011-0.013,0.017-0.031,0.016-0.048V-1274.794z"/>
			<path id="Path_30028" class="st4" d="M-880.43-1322.977l-0.729-0.034c0.155-0.117,0.359-0.272,0.045-0.371
				C-880.129-1323.619-881.368-1323.104-880.43-1322.977z"/>
			<path id="Path_30029" class="st4" d="M-878.226-1322.605c-0.358-0.165,0.054-0.2,0.054-0.28
				C-877.965-1322.696-877.917-1322.649-878.226-1322.605z"/>
			<path id="Path_30034" class="st4" d="M-800.675-1304.886c0.23,0.056,0.412,0.233,0.473,0.462
				C-800.379-1304.619-800.614-1304.762-800.675-1304.886z"/>
		</g>
		<g id="Group_787" transform="translate(0 0)">
			<path id="Path_30036" class="st4" d="M-870.502-1323.835c0.009-0.018,0.007-0.007-0.028,0.038l-0.03,0.03L-870.502-1323.835z"/>
			<path id="Path_30037" class="st4" d="M-870.708-1323.518c-0.044,0.051-0.113,0.1-0.108,0.051c0.044-0.03,0.086-0.064,0.126-0.1
				c0.034-0.045,0.052-0.083,0.044-0.077l0.073-0.093c-0.043,0.077-0.093,0.149-0.151,0.215
				C-870.73-1323.503-870.708-1323.518-870.708-1323.518z"/>
			<path id="Path_30038" class="st4" d="M-874.205-1319.24l0.007-0.048C-874.194-1319.272-874.197-1319.255-874.205-1319.24z"/>
			<path id="Path_30039" class="st4" d="M-876.758-1316.907c0.025-0.008,0.055,0.013,0.075,0.04
				C-876.716-1316.872-876.745-1316.879-876.758-1316.907z"/>
			<path id="Path_30040" class="st4" d="M-876.997-1316.213l0.013-0.044C-876.976-1316.22-876.974-1316.196-876.997-1316.213z"/>
			<path id="Path_30041" class="st4" d="M-874.205-1319.241l-0.016,0.125C-874.281-1319.177-874.227-1319.196-874.205-1319.241z"/>
			<path id="Path_30042" class="st4" d="M-871.249-1322.977c0.013-0.011,0.029-0.021,0.045-0.027l-0.035,0.031L-871.249-1322.977z"
				/>
			<path id="Path_30043" class="st4" d="M-872.992-1320.162l0.018-0.02l0.073,0.045L-872.992-1320.162z"/>
			<path id="Path_30044" class="st4" d="M-872.202-1321.036c-0.012,0.025-0.118-0.066-0.169-0.1
				c0.051,0.029,0.083,0.034,0.107,0.024C-872.241-1321.089-872.22-1321.063-872.202-1321.036z"/>
			<path id="Path_30045" class="st4" d="M-871.216-1322.632l0.027-0.021L-871.216-1322.632z"/>
			<path id="Path_30046" class="st4" d="M-873.544-1319.521c0.016,0.019,0.029,0.041,0.04,0.063
				C-873.521-1319.477-873.534-1319.498-873.544-1319.521z"/>
			<path id="Path_30047" class="st4" d="M-876.773-1297.574h0.011C-876.765-1297.57-876.768-1297.567-876.773-1297.574z"/>
			<path id="Path_30048" class="st4" d="M-876.136-1296.371v-0.018l0,0V-1296.371z"/>
			<path id="Path_30049" class="st4" d="M-877.628-1315.203v-0.008C-877.584-1315.197-877.6-1315.193-877.628-1315.203z"/>
			<path id="Path_30050" class="st4" d="M-882.728-1311.852c-0.544,0.017-0.565,0.1-1.187,0.111
				C-883.702-1311.765-883.091-1311.849-882.728-1311.852z"/>
			<path id="Path_30051" class="st4" d="M-871.263-1322.95l-0.034,0.032L-871.263-1322.95z"/>
			<path id="Path_30053" class="st4" d="M-879.776-1313.914c-0.024-0.049-0.045-0.099-0.062-0.151
				C-879.812-1314.017-879.792-1313.966-879.776-1313.914z"/>
			<path id="Path_30054" class="st4" d="M-878.514-1315.396l-0.013,0.065C-878.531-1315.354-878.527-1315.377-878.514-1315.396z"/>
			<path id="Path_30055" class="st4" d="M-880.853-1313.838c-0.007,0.038,0.013,0.088-0.042,0.062l-0.014-0.045
				C-880.873-1313.783-880.847-1313.772-880.853-1313.838z"/>
			<path id="Path_30056" class="st4" d="M-881.706-1313.315l-0.023-0.076h0.038L-881.706-1313.315z"/>
			<path id="Path_30057" class="st4" d="M-878.114-1300.249c0.057,0,0.113-0.005,0.169-0.014
				C-878.069-1300.234-878.041-1300.091-878.114-1300.249z"/>
			<path id="Path_30058" class="st4" d="M-871.222-1322.959c-0.013-0.004-0.028,0-0.038,0.009l0.023-0.023
				C-871.232-1322.97-871.222-1322.967-871.222-1322.959z"/>
			<path id="Path_30059" class="st4" d="M-882.398-1316.362l-0.106,0.121C-882.484-1316.293-882.446-1316.336-882.398-1316.362z"/>
			<path id="Path_30060" class="st4" d="M-881.671-1306.108l-0.014,0.049C-881.7-1306.066-881.699-1306.08-881.671-1306.108z"/>
			<path id="Path_30061" class="st4" d="M-882.932-1316.065c0.033,0.085,0.052,0.175,0.056,0.266l-0.066-0.076L-882.932-1316.065z"
				/>
			<path id="Path_30063" class="st4" d="M-877.81-1299.234c-0.08-0.127,0.138-0.12,0.225-0.183c-0.028-0.176-0.17-0.027-0.293-0.048
				c-0.009-0.113,0.128-0.249,0.084-0.321c-0.035,0.006-0.053,0-0.086,0.027c0.106-0.161-0.155-0.308,0-0.508
				c-0.02-0.003-0.041-0.003-0.061,0c0.103-0.018,0.204-0.048,0.3-0.089c-0.023-0.062,0.089-0.165-0.065-0.134
				c0.021,0.035-0.035,0.059-0.072,0.093l0.034-0.086c-0.235,0.021-0.031,0.113-0.183,0.169c0-0.145,0.114-0.355,0.01-0.427
				c-0.224,0.062,0.037,0.245-0.214,0.192l0.154,0.113c-0.382,0.013,0.07,0.078-0.33,0.108c-0.17-0.159-0.013-0.245-0.182-0.4
				c0.1-0.089,0.189-0.056,0.29-0.146c0.1-0.359-0.682,0.017-0.479-0.3c0.128-0.113,0.425-0.256,0.193-0.331l-0.248,0.159
				c-0.131-0.165,0.341-0.265,0.051-0.375c-0.093,0.079-0.016,0.177-0.063,0.165c-0.292-0.028,0.111-0.151,0.062-0.245l-0.265,0.088
				c-0.072-0.2,0.007-0.493-0.053-0.728c-0.075,0.046-0.139,0.12-0.249,0.108c0-0.327-0.358-0.539-0.687-0.7l0.2-0.215
				c-0.016-0.021-0.139,0.014-0.176,0.062c-0.155-0.049,0.161-0.083,0.234-0.179c-0.013-0.065-0.19,0-0.248,0.072
				c0.114-0.272,0.206-0.734-0.2-0.758l-0.059,0.075c-0.2-0.076,0.461-0.444,0.127-0.44l-0.034,0.051
				c-0.311-0.231-0.246-0.716-0.825-0.692c0.386-0.282-0.385-0.171,0.186-0.533c-0.4,0.007-0.475,0.117-0.832,0.013
				c-0.071-0.042,0.306-0.317,0.315-0.432l-0.313,0.193l0.256-0.308l-0.41,0.182l0.031-0.121c0.097-0.002,0.191-0.034,0.268-0.092
				c0.068-0.206-0.4-0.128-0.57-0.021l0.069-0.421c-0.082,0.066-0.146,0.151-0.187,0.248c0.217-0.347-0.351,0.2-0.152-0.115
				c0.088-0.051,0.169-0.112,0.242-0.183c-0.237,0.07-0.347-0.061-0.345-0.218l-0.2,0.175c-0.2-0.133-0.19-0.459-0.366-0.641
				c0.162-0.013,0.525-0.314,0.51-0.4l-0.352,0.234c0.172-0.2,0.177-0.038,0.362-0.308c-0.1-0.044-0.421,0.248-0.493,0.372
				l0.038-0.176c-0.1,0.073-0.138,0.135-0.259,0.24c0.173-0.2-0.466,0.124-0.156-0.213l-0.1,0.076
				c-0.175-0.177-0.137-0.358-0.258-0.522c0.279-0.249,0.162-0.255,0.348-0.5c-0.186-0.045-0.536,0.058-0.641-0.088
				c0.044-0.217,0.2-0.249,0.324-0.446c-0.255,0.235-0.363,0.089-0.473,0.328c-0.13-0.183-0.185-0.409-0.153-0.631
				c0.12-0.084,0.187-0.106,0.256-0.206c0-0.079-0.182,0.028-0.3,0.154c-0.002,0.013-0.006,0.026-0.013,0.038
				c-0.063-0.427-0.478-0.366-1.023-0.452c-0.513-0.059-1.107-0.184-0.883-0.493l-0.02,0.033c0-0.149,0.02-0.297,0.059-0.441
				c-0.279-0.107-0.241,0.176-0.689,0.158c0.152-0.269-0.041-0.372-0.3-0.48c-0.254-0.093-0.563-0.189-0.424-0.338
				c-1.063-0.006-1.382-0.211-1.575-0.4s-0.27-0.365-1.246-0.538l0.57,0.041l0.076-0.011c0.365-0.029-0.323-0.077-0.351-0.124
				c0.231,0.044,0.465,0.067,0.7,0.069c1.346-0.387,1.2-1.034,2.068-1.74c0.335-0.245,1.729,0.559,1.472,0.023l-0.631-0.193
				c0.48-0.011,0.948-0.156,1.349-0.42c0.334-0.247,0.734-0.386,1.149-0.4c-0.1-0.068-0.182-0.18-0.248-0.144
				c-0.027-0.175,0.116-0.256,0.272-0.258c0.206,0.024,0.251,0.125,0.342,0.241c0.042-0.058-0.107-0.22-0.139-0.358
				c-0.018-0.21,0.4,0.26,0.282-0.045c-0.021-0.044-0.056-0.079-0.1-0.1c0.13,0.111,0.216-0.161,0.357,0.193
				c0.048-0.231,0.348,0,0.346-0.249c0.282,0.323,0.135-0.3,0.455,0.2c-0.318-0.52-0.008-0.554,0.224-0.358
				c-0.123-0.141-0.021-0.2-0.185-0.4c0.1-0.045,0.252,0,0.393,0.276c-0.186-0.711,0.662,0.287,0.3-0.545
				c0.383,0.102,0.781,0.136,1.175,0.1c-0.313-0.48-0.322,0.117-0.63-0.4c0.376,0.066,0.78,0.4,0.955,0.141
				c0.023-0.1-0.167-0.186-0.241-0.256c0.375,0.056,0.458-0.309,0.839-0.186c-0.034-0.043-0.078-0.078-0.128-0.1
				c0.053-0.01,0.059-0.125,0.187,0.084l-0.079-0.031c0.128,0.345,0.58,0.528,0.69,0.679c-0.458-0.546,0.12-0.282-0.482-0.953
				c0.1,0.055,0.182,0.138,0.236,0.238c0.016-0.065-0.022-0.152-0.167-0.282c0.228,0.021,0.316,0.269,0.453,0.18
				c-0.065-0.079-0.134-0.154-0.208-0.224c0.2,0.149,0.393,0.294,0.458,0.142c-0.045-0.053-0.082-0.137-0.117-0.114
				c0.227-0.086,0.676,0.279,0.776-0.038c-0.337-0.358-0.014-0.179-0.236-0.528l0.189,0.03l0.066,0.194
				c0.1-0.069,0.362,0.117,0.375-0.049l-0.173-0.089l0.24-0.059l-0.023,0.194c0.224,0.1,0.282,0.428,0.354,0.244
				c-0.051-0.014,0.1-0.073,0.02-0.3l0,0c0.125,0.07,0.254,0.142,0.273,0.012c-0.052-0.114-0.266-0.341-0.3-0.417
				c0.241,0.234,0.294-0.082,0.555,0.149c-0.078-0.073-0.146-0.156-0.2-0.248l0.193,0.18c0-0.1-0.017-0.137-0.118-0.258
				c0.116-0.134,0.236,0.415,0.283,0.134c-0.025-0.007-0.041-0.042-0.091-0.053c0.107-0.2,0.418-0.1,0.5-0.3
				c-0.169-0.317-0.188,0.02-0.318-0.259c0.267-0.089,0.728,0.038,0.889-0.185l-0.017,0.058c0.318,0.351,0.014-0.3,0.256-0.2
				c-0.046-0.007-0.193-0.176-0.153-0.141c0.1-0.161,0.369-0.12,0.675-0.177l-0.1-0.066c0.023-0.137,0.192-0.2,0.254-0.306
				c0.1,0.061,0.138,0.01,0.2,0.149c-0.089-0.644,0.714-0.2,0.663-0.732c-0.03,0.023-0.123-0.006-0.1-0.023l0.266-0.1
				c0.082,0.121,0.032,0.086,0.066,0.207c0.073,0.045,0.165,0.045,0.238,0c-0.156,0.01-0.157-0.172-0.169-0.26
				c0.023,0.038,0.069,0.062,0.1,0.1c-0.062-0.272,0.21,0.192,0.241-0.056l-0.056-0.045c0.082-0.017,0.19,0,0.231-0.068
				c-0.082-0.131-0.1,0-0.194-0.086c0.087-0.063,0.35,0.056,0.318-0.117c-0.061,0-0.108,0.048-0.171,0.049
				c-0.043-0.2,0-0.171,0.038-0.242v0.009l0.086-0.17v0.06c0.351,0.159,0.251-0.136,0.538-0.111
				c-0.273-0.017-0.106-0.062-0.217-0.148c0.007-0.058,0.03-0.132-0.014-0.146c0.144,0.02,0.052-0.145,0.258-0.117
				c-0.025-0.031,0.069-0.06-0.02-0.115c0.11-0.049,0.031,0.063,0.075,0.09c0.22-0.034,0.179-0.372,0.476-0.441
				c0.2-0.114,0.293-0.087,0.452-0.218c0.013-0.073-0.107-0.011-0.107-0.011c0.043-0.092,0.112-0.168,0.2-0.218
				c-0.03,0-0.024-0.018-0.024-0.056c0.055-0.061,0.089,0,0.131-0.106c-0.037,0.002-0.075,0.01-0.11,0.022
				c0.08-0.059,0.157-0.124,0.229-0.193c0-0.034-0.068,0.027-0.1,0.044c0.075-0.083,0.157-0.159,0.246-0.227l-0.034,0.065
				c0.025-0.034-0.009-0.031-0.032-0.01c-0.082,0.062-0.076,0.115-0.066,0.128l0.048-0.054c0.024,0.1-0.17,0.231-0.256,0.344h0.1
				c-0.044,0.032-0.092,0.058-0.142,0.079c0,0.037,0.027,0.084,0.082,0.037c-0.027,0.11-0.084,0.052-0.1,0.153
				c0,0.013,0.009,0.013,0.017,0.009l-0.086,0.06c0.03,0,0.049,0.059,0.073,0c-0.055,0.189-0.242,0.182-0.213,0.294l0.014-0.008
				c-0.184,0.176-0.084-0.037-0.294,0.034l0.117,0.265l-0.1-0.049c-0.014,0.023-0.04,0.069,0,0.092
				c-0.116,0.027-0.026-0.045-0.116-0.048c0.006,0.172-0.259,0.228-0.132,0.382c-0.1-0.034,0.025-0.138-0.116-0.087
				c0.138,0.182-0.135,0.086-0.137,0.241c0.114,0.059,0.138-0.069,0.142,0.094c-0.2-0.094-0.114,0.2-0.206,0.249
				c-0.132-0.123-0.195,0.106-0.349,0.182c0.051,0.035-0.125,0.311-0.179,0.476l0.028,0.022c-0.169-0.137-0.254,0-0.366,0.046
				c0.1,0.1,0.148,0.124,0.231,0.124l-0.075,0.077c-0.055-0.036-0.125-0.041-0.184-0.013l0.138,0.111
				c-0.1,0.1-0.344,0.049-0.39,0.276c-0.127-0.131-0.22-0.469-0.444-0.434c0.059,0.078,0.163,0.209,0.227,0.2
				c-0.02,0-0.1-0.021-0.093,0.032l0.163,0.07c-0.011,0.113-0.121-0.073-0.161-0.016c0.094,0.1,0.031,0.11,0.111,0.188
				c0.021,0,0-0.085,0.058-0.061c-0.044,0.097-0.044,0.209,0,0.306c-0.049-0.068-0.127-0.148-0.179-0.123
				c-0.109,0.093,0.079,0.168,0.07,0.286c-0.09-0.052-0.087,0.094-0.234-0.077c-0.031,0.03,0.031,0.116,0.059,0.173
				c-0.118-0.025-0.272,0.214-0.369-0.035v-0.024h-0.016c-0.333-0.028-0.292,0.435-0.538,0.513l0.054,0.066
				c-0.167,0.018-0.276,0.166-0.471,0.08c-0.031,0.028,0.024,0.193,0.1,0.266c-0.127,0.017-0.2-0.059-0.229,0.16
				c0.182,0.058,0.057,0.138,0.158,0.021c-0.062,0.154,0,0.3-0.268,0.19c0.184,0.158,0.1,0.314,0.005,0.3l-0.028-0.2
				c-0.069,0.023-0.126,0.073-0.158,0.139l0.221,0.237c0.016,0.521-0.811-0.214-0.58,0.484c-0.2-0.144,0.024-0.24-0.191-0.42
				c-0.078,0.121,0.1,0.614,0.069,0.641c-0.031,0.277-0.43-0.309-0.506-0.082c-0.053-0.12-0.228-0.408-0.412-0.424
				c-0.082,0.116,0.176,0.539,0.3,0.573c0.032-0.011,0.021-0.055,0-0.089c0.061,0.011,0.137,0.02,0.175,0.167l-0.087-0.094
				c0.022,0.148-0.132,0.252,0.024,0.4c-0.151-0.038-0.156-0.149-0.134-0.249c-0.03,0.26-0.211,0.171-0.279,0.386
				c-0.018-0.078-0.086-0.221-0.107-0.2c-0.114,0.3-0.234-0.139-0.408-0.083c0.035,0.229,0.3,0.384,0.066,0.349
				c-0.008,0.183,0.183,0.314,0.279,0.377c-0.276-0.117-0.146,0.328-0.193,0.428l0.129,0.041c-0.049-0.02-0.106-0.008-0.142,0.031
				l-0.114-0.26c-0.014,0.07-0.048,0.1,0.017,0.193c-0.142-0.121-0.223-0.408-0.444-0.556c0.024,0.158-0.249-0.01-0.063,0.316
				c0.1-0.229,0.187,0.328,0.363,0.271c-0.052-0.017-0.084,0.01-0.1,0.083c0.014,0.031,0.039,0.056,0.07,0.069
				c0.023,0.4-0.306-0.3-0.471-0.166c0.138,0.162,0.182,0.368,0.13,0.351c0.065-0.055-0.162-0.323-0.313-0.416
				c-0.018,0.218-0.186-0.02-0.232,0.038l0.023-0.114c-0.139-0.165-0.179-0.1-0.292-0.107c0.085,0.146,0.132,0.049,0.145,0.131
				c-0.292-0.265,0.024,0.47-0.234,0.332c0.024,0.163,0.216,0.352,0.221,0.472c-0.286-0.151,0.018,0.356-0.248,0.255
				c-0.12-0.283-0.073-0.224-0.328-0.406l0.344,0.021l-0.38-0.266c0.068-0.051,0.248,0.059,0.262-0.011
				c-0.2-0.158-0.153-0.1-0.252-0.331c0.144,0.441-0.328-0.1-0.277,0.231l0.4,0.631c0.011,0.4-0.5-0.125-0.614,0.179v-0.159
				c-0.187-0.236-0.155,0.054-0.289,0c0.093,0.146,0.161,0.308,0.2,0.477c-0.1-0.163-0.151,0.121-0.437-0.307l0.077,0.354
				c-0.1,0.235-0.582-0.5-0.707-0.324c0.2,0.211,0.214,0.42,0.432,0.521c-0.055,0.038-0.082,0.113-0.175-0.044
				c0.051,0.163-0.339-0.2-0.264,0.044c-0.083-0.084-0.232-0.317-0.285-0.258c0.018,0.039,0.04,0.076,0.066,0.111
				c-0.066-0.111-0.19-0.09-0.283-0.376c0.245,0.821-0.522,0.242-0.317,0.952c-0.165-0.008-0.331,0.013-0.489,0.063
				c0.046,0.066,0.066,0.117,0.075,0.08c-0.032,0.313-0.482-0.618-0.521-0.269c0.124,0.435,0.211,0.151,0.237,0.328
				c0.4,0.806-0.237,0,0,0.462l0.044,0.035c0.159,0.259-0.313-0.214-0.368-0.11l0.1,0.1c-0.26-0.213-0.585-0.329-0.921-0.327
				c0.194,0.081,0.376,0.188,0.542,0.317c-0.09-0.007-0.521-0.362-0.731-0.361c0.191,0.194,0.412,0.356,0.655,0.479l0.088-0.024
				c0.472,0.3-0.093,0.031-0.044,0.1l0.241,0.111c-0.146,0-0.8-0.256-0.891-0.162l-0.193-0.079c-0.783-0.182,0.33,0.162-0.281,0.042
				l0.722,0.221c-0.391-0.06-0.787-0.084-1.183-0.072c0.69,0.083,1.083,0.1,1.46,0.172c-0.027,0.018-0.161,0.04-0.6-0.027
				c0.1,0.006,0.318,0.038,0.207,0c-0.4-0.105-0.817-0.122-1.224-0.051c1.777,0.234,0.168,0.2,1.644,0.338
				c-0.125,0-0.176,0.007-0.181,0.018c-0.015,0.049,0.627,0.092,0.595,0.122c-1.283,0.047-0.009,0.02-1.266,0.1
				c-0.034,0.032,0,0.042,0.086,0.037c0.286,0.005,0.556,0.001,0.81-0.013c0.347-0.037,0.227-0.049,0.489-0.08
				c0.266-0.017,0.531-0.051,0.793-0.1c-0.394,0.061-0.549,0.1-0.393,0.082c-0.165,0.029-0.338,0.053-0.516,0.073
				c-0.483,0.175,0.907-0.159,0.409,0l0.3-0.1c-0.161,0.069,0.01,0-0.6,0.358c0.127-0.055,0.251-0.118,0.369-0.19
				c0.135-0.018-0.5,0.488-0.009,0.4l0.124-0.167c0,0.089-0.19,0.356,0,0.263c0.056-0.063,0.124-0.165,0.152-0.152
				c-0.025,0.075-0.135,0.373,0,0.348l0.113-0.214c0.414,0.054-0.052,0.752,0.024,1.03c0.213-0.265,0.562-0.383,0.892-0.3
				l0.059-0.059c0.285,0.256,0.021,0.824,0.051,1.228c0.623-0.224,0.632,0.408,1.075,0.5c-0.156,0.07-0.282,0.192-0.359,0.344
				c0.134,0-0.2,0.4,0.211,0.1l-0.024-0.018c0.438-0.235,0.417-0.018,0.494,0.082l-0.528,0.386c0.968-0.246,0.155,0.913,0.931,0.627
				c-0.1,0.153-0.049,0.238-0.143,0.387l0.281-0.176c0.172,0.118,0.286,0.303,0.314,0.51l0.175-0.165
				c0.086,0.13-0.714,0.635-0.666,0.765l0.429-0.2c0.1,0.24,0.566,0.294,0.3,0.729c0.058-0.035,0.169-0.1,0.169-0.152
				c0.06,0.109,0.452,0.308-0.1,0.544c0.349-0.177,0.143,0.231,0.046,0.435l0.245-0.148c-0.28,0.273-0.365,0.318-0.39,0.513
				c0.048,0.02,0.213-0.066,0.13-0.083c0.179,0.058-0.2,0.208,0,0.289l0.135-0.129c0.069,0.114-0.02,0.145-0.172,0.3
				c-0.063,0.123,0.159,0.2,0.38,0.121c-0.125,0.079-0.272,0.227-0.179,0.27c0.057-0.018,0.106-0.053,0.142-0.1
				c0.238,0.135-0.141,0.427,0.135,0.469c0.045-0.022,0.094-0.035,0.144-0.037c-0.061-0.166-0.132-0.292-0.142-0.272
				c0.214-0.1,0.3,0.023,0.556-0.221c-0.124,0.186-0.4,0.526-0.262,0.615c0.026-0.003,0.052-0.008,0.078-0.014l0.018-0.024
				c0.029,0.022,0.02,0.058-0.006,0.1c0.047,0.028,0.08,0.045,0.1,0.084c0.172-0.056,0.138,0.12,0.167,0.186
				c-0.218,0.086-0.153,0.161-0.359,0.152c0.02,0,0.021-0.022,0.015-0.072c0-0.013,0-0.027,0.013-0.038l-0.018,0.013l-0.042-0.175
				c-0.094,0.1-0.168,0.2-0.02,0.22l-0.314,0.241c0.335-0.038,0.552,0.074,0.737,0.027c-0.048,0.255,0.069,0.527-0.255,0.8
				c-0.027,0.076,0.125,0.026,0.189,0.026c0.025-0.048,0.008-0.087,0.053-0.125c-0.057,0.155,0.068,0.365-0.163,0.486
				c0.153,0.106,0.194-0.169,0.217,0.051l0.063-0.056c0.455,0.279-0.356,0.855,0.195,1.145c-0.034-0.023-0.049-0.034-0.083-0.03
				c0.3,0.455,0.166,1.084,0.477,1.527c0.065,0.135-0.011,0.175-0.044,0.279h0.1l-0.068,0.18c-0.007,0.227,0.259,0.315,0.193,0.621
				l-0.043-0.024c0.024,0.1,0.042,0.311,0.072,0.287c-0.013,0.022-0.013,0.051,0,0.073h0.021l0.016,0.247
				c0.039,0.183,0.049-0.042,0.075,0.234c0.001,0.085,0.007,0.169,0.018,0.253c-0.007-0.039-0.023-0.106-0.023-0.106l0.018,0.092
				c0,0.018,0.039,0.082-0.065-0.128l-0.056-0.149l-0.034-0.044l0.058,0.123c-0.034-0.05-0.057-0.106-0.07-0.165
				c-0.019-0.016-0.035-0.035-0.048-0.056c-0.013-0.051-0.022-0.102-0.027-0.154c-0.028-0.013-0.005,0.073-0.066-0.018
				c-0.008-0.073,0.076,0.052,0.042-0.063c-0.056-0.063-0.073-0.037-0.086-0.125c-0.023-0.007-0.027,0.014-0.017,0.048
				c-0.015-0.078-0.089-0.193-0.062-0.242c-0.083-0.059-0.1-0.249-0.191-0.215c0.015-0.072,0.013-0.147-0.006-0.218
				c-0.076,0.16-0.123-0.247-0.266-0.166c0.091-0.13-0.106-0.337-0.1-0.521c-0.01,0.014-0.028,0.039-0.011,0.051
				c-0.059-0.084-0.125-0.093-0.19-0.138c0.139-0.058,0.107-0.206,0.173-0.314c-0.207-0.058-0.156,0.128-0.318,0.141
				c0.128-0.035,0.03-0.228,0.162-0.228c-0.138-0.051-0.08-0.056-0.244-0.052c0.208-0.086,0-0.089,0.1-0.2
				c-0.171-0.08-0.228,0.042-0.227-0.111C-877.792-1299.376-877.81-1299.234-877.81-1299.234z M-878.924-1302.473h-0.006l0.02,0.069
				L-878.924-1302.473z M-879.055-1302.731c0.029,0.031,0.052,0.067,0.068,0.106c0.083-0.025,0.159-0.072,0.144-0.1
				C-878.888-1302.683-878.967-1302.725-879.055-1302.731L-879.055-1302.731z M-877.261-1302.842
				c0.017-0.059-0.031-0.056-0.079-0.042c0.004,0.03,0.004,0.06,0,0.09l-0.025,0.017c0.037-0.019,0.072-0.04,0.105-0.065
				L-877.261-1302.842z"/>
			<path id="Path_30064" class="st4" d="M-877.519-1302.638c0,0.008-0.011,0.016-0.01,0.025l-0.058-0.006l0.062-0.045
				L-877.519-1302.638z"/>
			<path id="Path_30065" class="st4" d="M-874.195-1319.293v0.008c-0.002-0.011-0.006-0.022-0.011-0.033L-874.195-1319.293z"/>
			<path id="Path_30066" class="st4" d="M-881.63-1305.767l0.071-0.044l-0.048,0.059L-881.63-1305.767z"/>
			<path id="Path_30067" class="st4" d="M-873.419-1320.859c-0.009-0.013-0.014-0.029-0.014-0.045
				C-873.425-1320.89-873.42-1320.875-873.419-1320.859z"/>
			<path id="Path_30068" class="st4" d="M-872.916-1321.326l0.035-0.1C-872.889-1321.391-872.9-1321.358-872.916-1321.326z"/>
			<path id="Path_30069" class="st4" d="M-872.565-1321.719l0.048,0.032l0,0L-872.565-1321.719z"/>
			<path id="Path_30070" class="st4" d="M-879.722-1317.338c-0.008,0.003-0.017,0.003-0.025,0
				C-879.826-1317.373-879.784-1317.367-879.722-1317.338z"/>
			<path id="Path_30071" class="st4" d="M-877.166-1318.02c-0.047-0.029-0.097-0.053-0.149-0.072
				C-877.29-1318.134-877.264-1318.156-877.166-1318.02z"/>
			<path id="Path_30072" class="st4" d="M-882.385-1316.371v0.005l-0.015,0.008L-882.385-1316.371z"/>
			<path id="Path_30073" class="st4" d="M-877.411-1318.024c0-0.073,0.042-0.083,0.1-0.068
				C-877.335-1318.055-877.353-1318.007-877.411-1318.024z"/>
			<path id="Path_30074" class="st4" d="M-870.941-1323.335l0.016-0.02h0.006L-870.941-1323.335z"/>
			<path id="Path_30075" class="st4" d="M-870.924-1323.354l0.022-0.02C-870.908-1323.367-870.916-1323.36-870.924-1323.354z"/>
			<path id="Path_30076" class="st4" d="M-870.852-1323.416l-0.045,0.042C-870.885-1323.391-870.87-1323.406-870.852-1323.416z"/>
			<path id="Path_30077" class="st4" d="M-871.397-1322.801l-0.024-0.01C-871.412-1322.811-871.403-1322.807-871.397-1322.801z"/>
			<path id="Path_30078" class="st4" d="M-871.555-1322.658c0.031-0.04,0.049-0.123,0.114-0.161l0.021,0.007
				C-871.475-1322.811-871.486-1322.665-871.555-1322.658z"/>
			<path id="Path_30079" class="st4" d="M-871.821-1321.704l0.085-0.17c0.011,0.052,0.029,0.125,0.084,0.062
				C-871.691-1321.536-871.693-1321.912-871.821-1321.704z"/>
			<path id="Path_30080" class="st4" d="M-872.138-1321.222c0.082-0.059,0.054,0.052,0.079,0.069
				C-872.133-1321.136-872.151-1321.135-872.138-1321.222z"/>
			<path id="Path_30081" class="st4" d="M-875.038-1318.297l0.149,0.177C-874.966-1318.095-874.944-1318.191-875.038-1318.297z"/>
			<path id="Path_30082" class="st4" d="M-876.412-1318.834l-0.032-0.163l0.164,0.163H-876.412z"/>
			<path id="Path_30083" class="st4" d="M-875.705-1317.095l0.047,0.008l-0.152,0.009L-875.705-1317.095z"/>
			<path id="Path_30084" class="st4" d="M-881.385-1313.115l-0.194-0.382C-881.497-1313.456-881.247-1313.049-881.385-1313.115z"/>
			<path id="Path_30085" class="st4" d="M-883.383-1312.47c0.258,0.106,0.417,0.176,0.111,0.1
				C-883.286-1312.396-883.472-1312.486-883.383-1312.47z"/>
			<path id="Path_30086" class="st4" d="M-879.494-1308.084l0.074-0.127l-0.027,0.162L-879.494-1308.084z"/>
		</g>
	</g>
</g>
</svg>
