<?xml version="1.0" encoding="utf-8"?>
<!-- Generator: Adobe Illustrator 24.0.1, SVG Export Plug-In . SVG Version: 6.00 Build 0)  -->
<svg version="1.1" id="圖層_1" xmlns="http://www.w3.org/2000/svg" xmlns:xlink="http://www.w3.org/1999/xlink" x="0px" y="0px"
	 viewBox="0 0 125 60" style="enable-background:new 0 0 125 60;" xml:space="preserve">
<style type="text/css">
	.st0{enable-background:new    ;}
	.st1{fill:#F58F8E;}
	.st2{fill:#707070;}
	.st3{fill:none;stroke:#707070;stroke-width:0.3;stroke-miterlimit:4.0005;}
	.st4{fill:#95918E;}
	.st5{fill:#FFFFFF;}
	.st6{fill:#A67C52;}
</style>
<g>
	<g class="st0">
		<path class="st1" d="M70.105,49.717c-3.359,0-6.23-1.992-8.613-5.977s-3.574-8.418-3.574-13.301c0-5.215,1.211-9.878,3.633-13.989
			s5.332-6.167,8.73-6.167c3.281,0,6.123,2.061,8.525,6.182s3.604,8.662,3.604,13.623c0,4.844-1.211,9.326-3.633,13.447
			S73.465,49.717,70.105,49.717z M76.17,34.336V24.258c0-8.359-1.963-12.539-5.889-12.539c-1.973,0-3.486,0.977-4.541,2.93
			s-1.582,5.361-1.582,10.225V36.27c0,8.008,2.021,12.012,6.064,12.012c1.953,0,3.433-1.04,4.438-3.12S76.17,39.473,76.17,34.336z"
			/>
		<path class="st1" d="M104.671,10.283v37.09h6.768v1.494H92.366v-1.494h6.738V12.979h-6.738v-1.494h1.025
			C97.669,11.484,101.429,11.084,104.671,10.283z"/>
	</g>
	<g class="st0">
		<path class="st2" d="M28.204,35.502c0.053-0.034,0.127-0.064,0.224-0.091c0.136-0.036,0.214-0.015,0.234,0.063
			c0.026,0.096-0.038,0.205-0.19,0.329c-1.007,0.727-1.99,1.461-2.95,2.205c-0.961,0.743-1.89,1.526-2.788,2.347
			c0.135,0.503,0.174,1.035,0.118,1.6c-0.056,0.563-0.179,1.129-0.368,1.699c-0.189,0.566-0.432,1.129-0.729,1.685
			c-0.296,0.556-0.617,1.077-0.963,1.563c-0.54,0.766-1.095,1.382-1.664,1.844c-0.57,0.464-1.076,0.755-1.521,0.874
			c-0.578,0.155-0.929,0.011-1.048-0.433c-0.077-0.291-0.015-0.717,0.187-1.277c0.201-0.562,0.578-1.279,1.131-2.151
			c0.321-0.501,0.64-0.954,0.956-1.359c0.315-0.406,0.559-0.714,0.73-0.926c0.408-0.482,0.844-0.967,1.303-1.453
			c0.461-0.484,0.927-0.966,1.398-1.445c-0.18-0.594-0.495-1.038-0.946-1.33c-0.451-0.294-0.969-0.501-1.55-0.626
			c-0.582-0.123-1.196-0.212-1.843-0.266c-0.646-0.057-1.254-0.141-1.824-0.258c-0.569-0.116-1.07-0.308-1.505-0.575
			c-0.434-0.266-0.729-0.689-0.884-1.27c-0.155-0.579-0.19-1.248-0.104-2.007c0.087-0.758,0.266-1.541,0.536-2.348
			c0.27-0.808,0.618-1.611,1.046-2.409s0.899-1.53,1.415-2.196c0.516-0.667,1.066-1.238,1.652-1.717
			c0.586-0.478,1.179-0.798,1.777-0.959c0.618-0.165,1.101-0.124,1.447,0.125s0.587,0.625,0.721,1.126
			c0.136,0.503,0.181,1.097,0.136,1.782c-0.044,0.685-0.155,1.388-0.335,2.109c-0.179,0.721-0.409,1.425-0.691,2.111
			c-0.282,0.686-0.582,1.289-0.897,1.809c-0.217,0.348-0.439,0.62-0.667,0.816c-0.228,0.194-0.419,0.313-0.572,0.355
			c-0.231,0.062-0.374-0.005-0.426-0.198c-0.052-0.192,0.023-0.451,0.228-0.774c0.344-0.569,0.697-1.223,1.059-1.961
			s0.673-1.486,0.937-2.24c0.264-0.753,0.459-1.474,0.586-2.16c0.126-0.686,0.128-1.262,0.003-1.725
			c-0.113-0.426-0.403-0.575-0.868-0.45c-0.582,0.155-1.156,0.454-1.723,0.896c-0.567,0.441-1.111,0.971-1.632,1.587
			c-0.52,0.615-0.986,1.295-1.4,2.036c-0.414,0.743-0.759,1.493-1.033,2.25c-0.275,0.758-0.457,1.494-0.545,2.212
			c-0.088,0.719-0.057,1.356,0.094,1.916c0.113,0.425,0.365,0.746,0.757,0.963c0.391,0.216,0.858,0.385,1.4,0.509
			c0.543,0.124,1.122,0.228,1.737,0.311c0.615,0.085,1.209,0.205,1.781,0.362c0.572,0.156,1.088,0.371,1.545,0.642
			c0.457,0.271,0.785,0.659,0.983,1.165c0.888-0.859,1.796-1.683,2.724-2.47C26.309,36.933,27.25,36.193,28.204,35.502z
			 M20.548,46.688c0.308-0.476,0.588-0.976,0.841-1.499s0.46-1.045,0.622-1.564c0.16-0.521,0.269-1.024,0.323-1.516
			c0.054-0.492,0.047-0.944-0.023-1.36c-0.922,0.889-1.811,1.821-2.667,2.796c-0.186,0.236-0.431,0.555-0.737,0.959
			c-0.307,0.403-0.612,0.842-0.92,1.318c-0.539,0.848-0.897,1.539-1.074,2.074c-0.178,0.534-0.23,0.937-0.158,1.208
			c0.093,0.347,0.362,0.462,0.807,0.343c0.386-0.104,0.853-0.391,1.4-0.858C19.509,48.121,20.038,47.486,20.548,46.688z"/>
		<path class="st2" d="M44.026,23.96c0.237-0.042,0.404-0.057,0.502-0.042c0.098,0.017,0.151,0.043,0.162,0.081
			c0.021,0.077-0.028,0.168-0.146,0.272s-0.243,0.173-0.378,0.21c-0.199,0.033-0.401,0.051-0.607,0.055s-0.406,0.031-0.6,0.083
			c-0.995,0.225-1.984,0.454-2.969,0.686c-0.982,0.233-1.967,0.481-2.952,0.746c-0.753,0.202-1.505,0.415-2.253,0.636
			s-1.484,0.449-2.208,0.685c-0.159,0.954-0.323,2.023-0.491,3.207c-0.17,1.185-0.309,2.366-0.417,3.544
			c-0.108,1.179-0.165,2.281-0.169,3.308s0.076,1.848,0.242,2.467c0.072,0.27,0.191,0.522,0.357,0.759
			c0.167,0.233,0.414,0.309,0.743,0.221c0.405-0.109,0.862-0.492,1.37-1.146c0.509-0.654,1.008-1.398,1.499-2.233
			c0.489-0.836,0.944-1.668,1.365-2.494c0.42-0.827,0.742-1.478,0.968-1.952c0.046-0.137,0.117-0.219,0.214-0.245
			c0.097-0.025,0.157,0.01,0.184,0.106c0.021,0.077,0.005,0.175-0.046,0.292c-0.164,0.313-0.367,0.714-0.608,1.204
			c-0.241,0.489-0.513,1.007-0.812,1.553s-0.62,1.104-0.965,1.672s-0.692,1.087-1.043,1.553c-0.352,0.468-0.7,0.867-1.046,1.197
			c-0.347,0.331-0.674,0.538-0.983,0.62c-0.387,0.104-0.715,0.002-0.984-0.31s-0.487-0.776-0.652-1.394
			c-0.182-0.677-0.309-1.496-0.381-2.462c-0.072-0.963-0.1-1.971-0.08-3.021c0.018-1.05,0.072-2.106,0.161-3.165
			c0.088-1.06,0.203-2.021,0.344-2.888c-0.589,0.199-1.134,0.387-1.635,0.563c-0.502,0.176-0.994,0.37-1.476,0.581
			c-0.26,0.112-0.508,0.229-0.743,0.355c-0.235,0.125-0.483,0.243-0.743,0.354c-0.072,0.04-0.167,0.076-0.283,0.107
			c-0.23,0.062-0.357,0.054-0.379-0.023c-0.025-0.097,0.156-0.228,0.547-0.396c0.785-0.313,1.568-0.602,2.347-0.861
			c0.78-0.261,1.577-0.531,2.392-0.813c0.09-0.438,0.178-0.844,0.264-1.22s0.175-0.699,0.268-0.973
			c0.198-0.571,0.404-0.885,0.617-0.942c0.154-0.041,0.266,0.064,0.332,0.314c0.058,0.213,0.056,0.515-0.006,0.902l-0.244,1.525
			c1.326-0.459,2.638-0.882,3.931-1.271c1.294-0.387,2.607-0.761,3.94-1.118c0.58-0.155,1.164-0.312,1.754-0.47
			C42.817,24.222,43.417,24.083,44.026,23.96z"/>
		<path class="st2" d="M46.911,30.549c0.062-0.079,0.131-0.128,0.208-0.149c0.116-0.03,0.188,0.002,0.214,0.099
			c0.025,0.097-0.01,0.199-0.104,0.308c-0.285,0.325-0.65,0.724-1.093,1.194c-0.444,0.47-0.91,0.933-1.4,1.384
			c-0.489,0.453-0.986,0.86-1.489,1.223c-0.504,0.363-0.958,0.599-1.363,0.707c-0.328,0.088-0.618,0.052-0.868-0.109
			c-0.25-0.16-0.424-0.424-0.522-0.79c-0.099-0.367-0.13-0.794-0.095-1.28c0.035-0.485,0.116-0.957,0.242-1.416
			c0.125-0.459,0.293-0.855,0.503-1.191s0.45-0.539,0.722-0.612c0.192-0.052,0.37-0.026,0.532,0.075s0.271,0.257,0.329,0.471
			c0.108,0.405,0.042,0.838-0.197,1.296c-0.24,0.456-0.517,0.873-0.83,1.246c-0.162,0.168-0.301,0.288-0.416,0.36
			c-0.116,0.072-0.222,0.122-0.318,0.148c-0.097,0.025-0.166,0.034-0.21,0.025c-0.07,0.433-0.063,0.804,0.019,1.112
			c0.058,0.213,0.161,0.371,0.314,0.475c0.152,0.104,0.354,0.123,0.604,0.056c0.349-0.093,0.762-0.328,1.24-0.706
			c0.479-0.375,0.966-0.801,1.46-1.275c0.494-0.474,0.967-0.952,1.417-1.437C46.257,31.278,46.625,30.874,46.911,30.549z
			 M42.096,30.317c-0.155,0.041-0.352,0.296-0.588,0.763c-0.237,0.468-0.424,0.989-0.56,1.563c0.148-0.143,0.308-0.32,0.479-0.531
			c0.17-0.212,0.325-0.425,0.466-0.638c0.139-0.214,0.246-0.413,0.321-0.6c0.074-0.185,0.096-0.335,0.064-0.451
			C42.254,30.327,42.193,30.291,42.096,30.317z"/>
		<path class="st2" d="M59.805,26.968c0.038-0.011,0.065-0.023,0.083-0.037c0.016-0.016,0.034-0.026,0.054-0.031
			c0.154-0.041,0.248-0.004,0.279,0.112c0.025,0.096-0.051,0.199-0.229,0.309c-0.321,0.19-0.704,0.427-1.145,0.712
			c-0.442,0.284-0.917,0.598-1.425,0.941c-0.51,0.344-1.027,0.709-1.554,1.1c-0.527,0.389-1.038,0.786-1.53,1.188
			c-0.253,0.834-0.594,1.592-1.021,2.275c-0.427,0.686-0.922,1.102-1.481,1.252c-0.097,0.025-0.2,0.027-0.31,0.006
			c-0.11-0.022-0.183-0.102-0.218-0.236c-0.037-0.136,0.009-0.314,0.136-0.534c0.198-0.344,0.512-0.737,0.94-1.185
			c0.43-0.445,0.908-0.916,1.439-1.409c0.254-0.752,0.427-1.498,0.519-2.237s0.081-1.32-0.033-1.745
			c-0.119-0.444-0.343-0.623-0.672-0.535c-0.482,0.13-0.902,0.495-1.258,1.099c-0.356,0.604-0.659,1.347-0.908,2.231
			c-0.249,0.886-0.454,1.861-0.613,2.93c-0.159,1.066-0.286,2.136-0.382,3.208c-0.096,1.071-0.163,2.095-0.203,3.067
			c-0.039,0.975-0.063,1.792-0.07,2.458c-0.016,0.48-0.121,0.747-0.314,0.799c-0.154,0.041-0.278-0.113-0.371-0.459
			c-0.016-0.059-0.033-0.123-0.051-0.189c-0.018-0.068-0.027-0.143-0.029-0.226c-0.071-0.498-0.134-1.176-0.188-2.03
			c-0.053-0.855-0.092-1.772-0.115-2.75c-0.024-0.977-0.027-1.971-0.008-2.979c0.02-1.01,0.059-1.927,0.117-2.75
			c0.059-0.822,0.15-1.505,0.274-2.046s0.283-0.836,0.477-0.889c0.077-0.021,0.131,0.027,0.162,0.144
			c0.031,0.115,0.036,0.249,0.015,0.399c-0.277,1.669-0.459,3.349-0.544,5.038c-0.086,1.69-0.104,3.398-0.056,5.125
			c0.098-1.186,0.235-2.466,0.416-3.839c0.18-1.374,0.424-2.667,0.73-3.878c0.307-1.209,0.686-2.249,1.137-3.116
			c0.451-0.866,0.986-1.382,1.604-1.548c0.328-0.088,0.587-0.049,0.776,0.118c0.19,0.167,0.329,0.414,0.418,0.742
			c0.113,0.426,0.146,0.935,0.099,1.527c-0.049,0.593-0.155,1.201-0.319,1.825c0.475-0.396,0.962-0.797,1.465-1.201
			c0.502-0.403,0.997-0.779,1.484-1.127c0.485-0.349,0.936-0.659,1.348-0.938C59.143,27.384,59.502,27.153,59.805,26.968z
			 M51.682,34.675c0.386-0.104,0.757-0.438,1.114-0.998c0.356-0.561,0.665-1.208,0.925-1.941c-0.488,0.421-0.922,0.832-1.301,1.234
			c-0.379,0.401-0.668,0.773-0.865,1.117c-0.113,0.196-0.151,0.362-0.115,0.497C51.467,34.68,51.547,34.711,51.682,34.675z"/>
	</g>
	<g class="st0">
		<path class="st3" d="M28.204,35.502c0.053-0.034,0.127-0.064,0.224-0.091c0.136-0.036,0.214-0.015,0.234,0.063
			c0.026,0.096-0.038,0.205-0.19,0.329c-1.007,0.727-1.99,1.461-2.95,2.205c-0.961,0.743-1.89,1.526-2.788,2.347
			c0.135,0.503,0.174,1.035,0.118,1.6c-0.056,0.563-0.179,1.129-0.368,1.699c-0.189,0.566-0.432,1.129-0.729,1.685
			c-0.296,0.556-0.617,1.077-0.963,1.563c-0.54,0.766-1.095,1.382-1.664,1.844c-0.57,0.464-1.076,0.755-1.521,0.874
			c-0.578,0.155-0.929,0.011-1.048-0.433c-0.077-0.291-0.015-0.717,0.187-1.277c0.201-0.562,0.578-1.279,1.131-2.151
			c0.321-0.501,0.64-0.954,0.956-1.359c0.315-0.406,0.559-0.714,0.73-0.926c0.408-0.482,0.844-0.967,1.303-1.453
			c0.461-0.484,0.927-0.966,1.398-1.445c-0.18-0.594-0.495-1.038-0.946-1.33c-0.451-0.294-0.969-0.501-1.55-0.626
			c-0.582-0.123-1.196-0.212-1.843-0.266c-0.646-0.057-1.254-0.141-1.824-0.258c-0.569-0.116-1.07-0.308-1.505-0.575
			c-0.434-0.266-0.729-0.689-0.884-1.27c-0.155-0.579-0.19-1.248-0.104-2.007c0.087-0.758,0.266-1.541,0.536-2.348
			c0.27-0.808,0.618-1.611,1.046-2.409s0.899-1.53,1.415-2.196c0.516-0.667,1.066-1.238,1.652-1.717
			c0.586-0.478,1.179-0.798,1.777-0.959c0.618-0.165,1.101-0.124,1.447,0.125s0.587,0.625,0.721,1.126
			c0.136,0.503,0.181,1.097,0.136,1.782c-0.044,0.685-0.155,1.388-0.335,2.109c-0.179,0.721-0.409,1.425-0.691,2.111
			c-0.282,0.686-0.582,1.289-0.897,1.809c-0.217,0.348-0.439,0.62-0.667,0.816c-0.228,0.194-0.419,0.313-0.572,0.355
			c-0.231,0.062-0.374-0.005-0.426-0.198c-0.052-0.192,0.023-0.451,0.228-0.774c0.344-0.569,0.697-1.223,1.059-1.961
			s0.673-1.486,0.937-2.24c0.264-0.753,0.459-1.474,0.586-2.16c0.126-0.686,0.128-1.262,0.003-1.725
			c-0.113-0.426-0.403-0.575-0.868-0.45c-0.582,0.155-1.156,0.454-1.723,0.896c-0.567,0.441-1.111,0.971-1.632,1.587
			c-0.52,0.615-0.986,1.295-1.4,2.036c-0.414,0.743-0.759,1.493-1.033,2.25c-0.275,0.758-0.457,1.494-0.545,2.212
			c-0.088,0.719-0.057,1.356,0.094,1.916c0.113,0.425,0.365,0.746,0.757,0.963c0.391,0.216,0.858,0.385,1.4,0.509
			c0.543,0.124,1.122,0.228,1.737,0.311c0.615,0.085,1.209,0.205,1.781,0.362c0.572,0.156,1.088,0.371,1.545,0.642
			c0.457,0.271,0.785,0.659,0.983,1.165c0.888-0.859,1.796-1.683,2.724-2.47C26.309,36.933,27.25,36.193,28.204,35.502z
			 M20.548,46.688c0.308-0.476,0.588-0.976,0.841-1.499s0.46-1.045,0.622-1.564c0.16-0.521,0.269-1.024,0.323-1.516
			c0.054-0.492,0.047-0.944-0.023-1.36c-0.922,0.889-1.811,1.821-2.667,2.796c-0.186,0.236-0.431,0.555-0.737,0.959
			c-0.307,0.403-0.612,0.842-0.92,1.318c-0.539,0.848-0.897,1.539-1.074,2.074c-0.178,0.534-0.23,0.937-0.158,1.208
			c0.093,0.347,0.362,0.462,0.807,0.343c0.386-0.104,0.853-0.391,1.4-0.858C19.509,48.121,20.038,47.486,20.548,46.688z"/>
		<path class="st3" d="M44.026,23.96c0.237-0.042,0.404-0.057,0.502-0.042c0.098,0.017,0.151,0.043,0.162,0.081
			c0.021,0.077-0.028,0.168-0.146,0.272s-0.243,0.173-0.378,0.21c-0.199,0.033-0.401,0.051-0.607,0.055s-0.406,0.031-0.6,0.083
			c-0.995,0.225-1.984,0.454-2.969,0.686c-0.982,0.233-1.967,0.481-2.952,0.746c-0.753,0.202-1.505,0.415-2.253,0.636
			s-1.484,0.449-2.208,0.685c-0.159,0.954-0.323,2.023-0.491,3.207c-0.17,1.185-0.309,2.366-0.417,3.544
			c-0.108,1.179-0.165,2.281-0.169,3.308s0.076,1.848,0.242,2.467c0.072,0.27,0.191,0.522,0.357,0.759
			c0.167,0.233,0.414,0.309,0.743,0.221c0.405-0.109,0.862-0.492,1.37-1.146c0.509-0.654,1.008-1.398,1.499-2.233
			c0.489-0.836,0.944-1.668,1.365-2.494c0.42-0.827,0.742-1.478,0.968-1.952c0.046-0.137,0.117-0.219,0.214-0.245
			c0.097-0.025,0.157,0.01,0.184,0.106c0.021,0.077,0.005,0.175-0.046,0.292c-0.164,0.313-0.367,0.714-0.608,1.204
			c-0.241,0.489-0.513,1.007-0.812,1.553s-0.62,1.104-0.965,1.672s-0.692,1.087-1.043,1.553c-0.352,0.468-0.7,0.867-1.046,1.197
			c-0.347,0.331-0.674,0.538-0.983,0.62c-0.387,0.104-0.715,0.002-0.984-0.31s-0.487-0.776-0.652-1.394
			c-0.182-0.677-0.309-1.496-0.381-2.462c-0.072-0.963-0.1-1.971-0.08-3.021c0.018-1.05,0.072-2.106,0.161-3.165
			c0.088-1.06,0.203-2.021,0.344-2.888c-0.589,0.199-1.134,0.387-1.635,0.563c-0.502,0.176-0.994,0.37-1.476,0.581
			c-0.26,0.112-0.508,0.229-0.743,0.355c-0.235,0.125-0.483,0.243-0.743,0.354c-0.072,0.04-0.167,0.076-0.283,0.107
			c-0.23,0.062-0.357,0.054-0.379-0.023c-0.025-0.097,0.156-0.228,0.547-0.396c0.785-0.313,1.568-0.602,2.347-0.861
			c0.78-0.261,1.577-0.531,2.392-0.813c0.09-0.438,0.178-0.844,0.264-1.22s0.175-0.699,0.268-0.973
			c0.198-0.571,0.404-0.885,0.617-0.942c0.154-0.041,0.266,0.064,0.332,0.314c0.058,0.213,0.056,0.515-0.006,0.902l-0.244,1.525
			c1.326-0.459,2.638-0.882,3.931-1.271c1.294-0.387,2.607-0.761,3.94-1.118c0.58-0.155,1.164-0.312,1.754-0.47
			C42.817,24.222,43.417,24.083,44.026,23.96z"/>
		<path class="st3" d="M46.911,30.549c0.062-0.079,0.131-0.128,0.208-0.149c0.116-0.03,0.188,0.002,0.214,0.099
			c0.025,0.097-0.01,0.199-0.104,0.308c-0.285,0.325-0.65,0.724-1.093,1.194c-0.444,0.47-0.91,0.933-1.4,1.384
			c-0.489,0.453-0.986,0.86-1.489,1.223c-0.504,0.363-0.958,0.599-1.363,0.707c-0.328,0.088-0.618,0.052-0.868-0.109
			c-0.25-0.16-0.424-0.424-0.522-0.79c-0.099-0.367-0.13-0.794-0.095-1.28c0.035-0.485,0.116-0.957,0.242-1.416
			c0.125-0.459,0.293-0.855,0.503-1.191s0.45-0.539,0.722-0.612c0.192-0.052,0.37-0.026,0.532,0.075s0.271,0.257,0.329,0.471
			c0.108,0.405,0.042,0.838-0.197,1.296c-0.24,0.456-0.517,0.873-0.83,1.246c-0.162,0.168-0.301,0.288-0.416,0.36
			c-0.116,0.072-0.222,0.122-0.318,0.148c-0.097,0.025-0.166,0.034-0.21,0.025c-0.07,0.433-0.063,0.804,0.019,1.112
			c0.058,0.213,0.161,0.371,0.314,0.475c0.152,0.104,0.354,0.123,0.604,0.056c0.349-0.093,0.762-0.328,1.24-0.706
			c0.479-0.375,0.966-0.801,1.46-1.275c0.494-0.474,0.967-0.952,1.417-1.437C46.257,31.278,46.625,30.874,46.911,30.549z
			 M42.096,30.317c-0.155,0.041-0.352,0.296-0.588,0.763c-0.237,0.468-0.424,0.989-0.56,1.563c0.148-0.143,0.308-0.32,0.479-0.531
			c0.17-0.212,0.325-0.425,0.466-0.638c0.139-0.214,0.246-0.413,0.321-0.6c0.074-0.185,0.096-0.335,0.064-0.451
			C42.254,30.327,42.193,30.291,42.096,30.317z"/>
		<path class="st3" d="M59.805,26.968c0.038-0.011,0.065-0.023,0.083-0.037c0.016-0.016,0.034-0.026,0.054-0.031
			c0.154-0.041,0.248-0.004,0.279,0.112c0.025,0.096-0.051,0.199-0.229,0.309c-0.321,0.19-0.704,0.427-1.145,0.712
			c-0.442,0.284-0.917,0.598-1.425,0.941c-0.51,0.344-1.027,0.709-1.554,1.1c-0.527,0.389-1.038,0.786-1.53,1.188
			c-0.253,0.834-0.594,1.592-1.021,2.275c-0.427,0.686-0.922,1.102-1.481,1.252c-0.097,0.025-0.2,0.027-0.31,0.006
			c-0.11-0.022-0.183-0.102-0.218-0.236c-0.037-0.136,0.009-0.314,0.136-0.534c0.198-0.344,0.512-0.737,0.94-1.185
			c0.43-0.445,0.908-0.916,1.439-1.409c0.254-0.752,0.427-1.498,0.519-2.237s0.081-1.32-0.033-1.745
			c-0.119-0.444-0.343-0.623-0.672-0.535c-0.482,0.13-0.902,0.495-1.258,1.099c-0.356,0.604-0.659,1.347-0.908,2.231
			c-0.249,0.886-0.454,1.861-0.613,2.93c-0.159,1.066-0.286,2.136-0.382,3.208c-0.096,1.071-0.163,2.095-0.203,3.067
			c-0.039,0.975-0.063,1.792-0.07,2.458c-0.016,0.48-0.121,0.747-0.314,0.799c-0.154,0.041-0.278-0.113-0.371-0.459
			c-0.016-0.059-0.033-0.123-0.051-0.189c-0.018-0.068-0.027-0.143-0.029-0.226c-0.071-0.498-0.134-1.176-0.188-2.03
			c-0.053-0.855-0.092-1.772-0.115-2.75c-0.024-0.977-0.027-1.971-0.008-2.979c0.02-1.01,0.059-1.927,0.117-2.75
			c0.059-0.822,0.15-1.505,0.274-2.046s0.283-0.836,0.477-0.889c0.077-0.021,0.131,0.027,0.162,0.144
			c0.031,0.115,0.036,0.249,0.015,0.399c-0.277,1.669-0.459,3.349-0.544,5.038c-0.086,1.69-0.104,3.398-0.056,5.125
			c0.098-1.186,0.235-2.466,0.416-3.839c0.18-1.374,0.424-2.667,0.73-3.878c0.307-1.209,0.686-2.249,1.137-3.116
			c0.451-0.866,0.986-1.382,1.604-1.548c0.328-0.088,0.587-0.049,0.776,0.118c0.19,0.167,0.329,0.414,0.418,0.742
			c0.113,0.426,0.146,0.935,0.099,1.527c-0.049,0.593-0.155,1.201-0.319,1.825c0.475-0.396,0.962-0.797,1.465-1.201
			c0.502-0.403,0.997-0.779,1.484-1.127c0.485-0.349,0.936-0.659,1.348-0.938C59.143,27.384,59.502,27.153,59.805,26.968z
			 M51.682,34.675c0.386-0.104,0.757-0.438,1.114-0.998c0.356-0.561,0.665-1.208,0.925-1.941c-0.488,0.421-0.922,0.832-1.301,1.234
			c-0.379,0.401-0.668,0.773-0.865,1.117c-0.113,0.196-0.151,0.362-0.115,0.497C51.467,34.68,51.547,34.711,51.682,34.675z"/>
	</g>
</g>
</svg>
