<?xml version="1.0" encoding="utf-8"?>
<!-- Generator: Adobe Illustrator 24.0.1, SVG Export Plug-In . SVG Version: 6.00 Build 0)  -->
<svg version="1.1" id="圖層_1" xmlns="http://www.w3.org/2000/svg" xmlns:xlink="http://www.w3.org/1999/xlink" x="0px" y="0px"
	 viewBox="0 0 175 96" style="enable-background:new 0 0 175 96;" xml:space="preserve">
<style type="text/css">
	.st0{enable-background:new    ;}
	.st1{fill:#F58F8E;}
	.st2{fill:#707070;}
	.st3{fill:none;stroke:#707070;stroke-width:0.3;stroke-miterlimit:4.0005;}
	.st4{fill:#95918E;}
	.st5{fill:#FFFFFF;}
	.st6{fill:#A67C52;}
</style>
<g id="Group_795_1_" transform="translate(2100.245 2575.958) rotate(167)">
	<g id="Group_793_1_" transform="translate(1190 2881)">
		<g id="Group_791_1_" transform="translate(0 16.477)">
			<path id="Path_30087_1_" class="st4" d="M139.311,17.701c0.006-0.014,0.005-0.005-0.021,0.029l-0.023,0.023L139.311,17.701z"/>
			<path id="Path_30088_1_" class="st4" d="M139.158,17.943c-0.033,0.039-0.086,0.074-0.083,0.039
				c0.035-0.023,0.068-0.048,0.1-0.076c0.026-0.034,0.04-0.063,0.033-0.059l0.056-0.071c-0.032,0.059-0.071,0.114-0.115,0.165
				C139.141,17.955,139.158,17.943,139.158,17.943z"/>
			<path id="Path_30089_1_" class="st4" d="M136.488,21.208l0.005-0.036C136.495,21.184,136.493,21.197,136.488,21.208z"/>
			<path id="Path_30090_1_" class="st4" d="M134.539,22.99c0.019-0.006,0.042,0.01,0.057,0.03
				C134.571,23.016,134.549,23.011,134.539,22.99z"/>
			<path id="Path_30091_1_" class="st4" d="M134.356,23.518l0.01-0.033C134.369,23.513,134.374,23.531,134.356,23.518z"/>
			<path id="Path_30092_1_" class="st4" d="M136.488,21.208l-0.012,0.1C136.429,21.259,136.47,21.242,136.488,21.208z"/>
			<path id="Path_30093_1_" class="st4" d="M138.744,18.356c0.01-0.009,0.022-0.016,0.034-0.021l-0.027,0.024L138.744,18.356z"/>
			<path id="Path_30094_1_" class="st4" d="M137.414,20.501l0.014-0.015l0.056,0.035L137.414,20.501z"/>
			<path id="Path_30095_1_" class="st4" d="M138.015,19.837c-0.01,0.019-0.09-0.051-0.129-0.077
				c0.039,0.023,0.064,0.026,0.082,0.018C137.985,19.795,138.001,19.815,138.015,19.837z"/>
			<path id="Path_30096_1_" class="st4" d="M138.77,18.619l0.02-0.016L138.77,18.619z"/>
			<path id="Path_30097_1_" class="st4" d="M136.993,20.994c0.012,0.015,0.022,0.031,0.03,0.048
				C137.01,21.027,137,21.011,136.993,20.994z"/>
			<path id="Path_30098_1_" class="st4" d="M134.528,37.744h0.009C134.534,37.748,134.532,37.75,134.528,37.744z"/>
			<path id="Path_30099_1_" class="st4" d="M135.014,38.664V38.65l0,0V38.664z"/>
			<path id="Path_30100_1_" class="st4" d="M133.874,24.29v-0.006C133.908,24.294,133.896,24.297,133.874,24.29z"/>
			<path id="Path_30101_1_" class="st4" d="M129.982,26.847c-0.415,0.013-0.431,0.08-0.906,0.085
				C129.238,26.915,129.7,26.849,129.982,26.847z"/>
			<path id="Path_30102_1_" class="st4" d="M138.734,18.376l-0.026,0.025L138.734,18.376z"/>
			<path id="Path_30104_1_" class="st4" d="M132.234,25.273c-0.019-0.037-0.034-0.076-0.047-0.115
				C132.207,25.194,132.223,25.233,132.234,25.273z"/>
			<path id="Path_30105_1_" class="st4" d="M133.199,24.142l-0.01,0.049C133.186,24.174,133.19,24.156,133.199,24.142z"/>
			<path id="Path_30106_1_" class="st4" d="M131.412,25.332c-0.005,0.029,0.01,0.067-0.032,0.047l-0.011-0.034
				C131.397,25.379,131.416,25.379,131.412,25.332z"/>
			<path id="Path_30107_1_" class="st4" d="M130.763,25.73l-0.017-0.058h0.029L130.763,25.73z"/>
			<path id="Path_30108_1_" class="st4" d="M133.504,35.703c0.043,0,0.086-0.004,0.129-0.011
				C133.538,35.715,133.56,35.823,133.504,35.703z"/>
			<path id="Path_30109_1_" class="st4" d="M138.763,18.37c-0.01-0.003-0.021-0.001-0.029,0.006l0.017-0.017
				C138.758,18.361,138.763,18.363,138.763,18.37z"/>
			<path id="Path_30110_1_" class="st4" d="M130.235,23.403l-0.081,0.093C130.168,23.456,130.197,23.423,130.235,23.403z"/>
			<path id="Path_30111_1_" class="st4" d="M130.788,31.231l-0.011,0.037C130.767,31.263,130.769,31.252,130.788,31.231z"/>
			<path id="Path_30112_1_" class="st4" d="M129.825,23.632c0.025,0.064,0.039,0.131,0.043,0.2l-0.051-0.058L129.825,23.632z"/>
			<path id="Path_30114_1_" class="st4" d="M133.736,36.478c-0.061-0.1,0.105-0.091,0.172-0.14c-0.021-0.134-0.13-0.02-0.224-0.037
				c-0.006-0.086,0.1-0.19,0.065-0.245c-0.027,0-0.041,0-0.066,0.021c0.081-0.123-0.118-0.235,0-0.388
				c-0.015-0.002-0.031-0.002-0.046,0c0.079-0.014,0.157-0.037,0.231-0.068c-0.017-0.047,0.068-0.126-0.049-0.1
				c0.016,0.027-0.027,0.045-0.055,0.071l0.026-0.065c-0.179,0.016-0.024,0.086-0.14,0.129c0-0.111,0.087-0.271,0.008-0.326
				c-0.171,0.047,0.028,0.187-0.163,0.146l0.117,0.086c-0.291,0.01,0.054,0.059-0.252,0.083c-0.13-0.121-0.01-0.187-0.139-0.308
				c0.076-0.068,0.144-0.043,0.222-0.112c0.075-0.274-0.52,0.013-0.365-0.226c0.1-0.086,0.325-0.2,0.147-0.253l-0.189,0.121
				c-0.1-0.126,0.26-0.2,0.039-0.286c-0.071,0.06-0.012,0.135-0.048,0.126c-0.222-0.021,0.085-0.115,0.047-0.187l-0.2,0.067
				c-0.055-0.154,0.005-0.376-0.041-0.556c-0.057,0.035-0.106,0.091-0.19,0.083c0-0.249-0.273-0.412-0.525-0.532l0.152-0.164
				c-0.012-0.016-0.106,0.011-0.134,0.047c-0.118-0.037,0.123-0.063,0.178-0.136c-0.01-0.049-0.145,0-0.189,0.055
				c0.087-0.208,0.157-0.56-0.153-0.578l-0.045,0.057c-0.153-0.058,0.351-0.339,0.1-0.335l-0.026,0.039
				c-0.238-0.176-0.188-0.546-0.63-0.528c0.295-0.215-0.294-0.13,0.142-0.406c-0.307,0.005-0.362,0.089-0.635,0.01
				c-0.054-0.032,0.233-0.242,0.241-0.33l-0.239,0.147l0.2-0.235l-0.313,0.139l0.024-0.093c0.072-0.002,0.142-0.026,0.2-0.07
				c0.052-0.157-0.309-0.1-0.435-0.016l0.053-0.322c-0.062,0.05-0.111,0.115-0.143,0.189c0.166-0.264-0.268,0.155-0.116-0.088
				c0.067-0.039,0.13-0.086,0.185-0.14c-0.181,0.054-0.264-0.046-0.263-0.167l-0.155,0.133c-0.155-0.1-0.145-0.35-0.28-0.489
				c0.124-0.01,0.4-0.24,0.389-0.305l-0.269,0.178c0.131-0.149,0.135-0.029,0.276-0.235c-0.08-0.033-0.321,0.189-0.376,0.284
				l0.029-0.134c-0.079,0.056-0.105,0.1-0.2,0.183c0.132-0.151-0.356,0.095-0.119-0.162l-0.077,0.058
				c-0.133-0.135-0.1-0.273-0.2-0.4c0.213-0.19,0.124-0.195,0.266-0.385c-0.142-0.034-0.41,0.044-0.489-0.067
				c0.033-0.166,0.156-0.19,0.247-0.341c-0.195,0.18-0.277,0.068-0.361,0.25c-0.099-0.14-0.141-0.312-0.117-0.482
				c0.091-0.064,0.143-0.081,0.2-0.157c0-0.06-0.139,0.022-0.226,0.117c-0.002,0.01-0.005,0.02-0.01,0.029
				c-0.048-0.326-0.365-0.28-0.781-0.345c-0.391-0.045-0.845-0.141-0.674-0.376l-0.015,0.025c0-0.114,0.015-0.226,0.045-0.336
				c-0.213-0.082-0.184,0.134-0.526,0.12c0.116-0.205-0.031-0.284-0.226-0.366s-0.43-0.144-0.324-0.258
				c-0.812,0-1.054-0.161-1.2-0.3s-0.206-0.278-0.951-0.411l0.435,0.031l0.058-0.009c0.278-0.023-0.246-0.059-0.268-0.095
				c0.175,0.033,0.353,0.051,0.531,0.053c1.028-0.3,0.916-0.789,1.578-1.328c0.256-0.187,1.32,0.427,1.123,0.017l-0.482-0.147
				c0.367-0.008,0.723-0.119,1.03-0.32c0.255-0.188,0.56-0.295,0.877-0.305c-0.076-0.052-0.139-0.138-0.189-0.11
				c-0.021-0.133,0.088-0.2,0.207-0.2c0.157,0.018,0.191,0.1,0.261,0.184c0.032-0.044-0.082-0.168-0.106-0.273
				c-0.014-0.16,0.307,0.2,0.215-0.034c-0.017-0.033-0.044-0.058-0.078-0.073c0.1,0.085,0.165-0.123,0.272,0.147
				c0.036-0.176,0.265,0,0.264-0.19c0.215,0.246,0.1-0.228,0.347,0.151c-0.243-0.4-0.006-0.422,0.171-0.273
				c-0.094-0.107-0.016-0.156-0.141-0.307c0.08-0.034,0.193,0,0.3,0.211c-0.142-0.543,0.505,0.219,0.226-0.416
				c0.293,0.078,0.598,0.104,0.9,0.076c-0.239-0.367-0.246,0.089-0.48-0.309c0.287,0.051,0.6,0.3,0.729,0.108
				c0.017-0.077-0.128-0.142-0.184-0.2c0.286,0.043,0.349-0.235,0.641-0.142c-0.027-0.033-0.061-0.058-0.1-0.074
				c0.041-0.008,0.045-0.1,0.143,0.064l-0.06-0.024c0.1,0.263,0.443,0.4,0.527,0.518c-0.349-0.417,0.091-0.215-0.368-0.728
				c0.077,0.042,0.14,0.105,0.181,0.182c0.012-0.049-0.017-0.116-0.128-0.215c0.174,0.016,0.241,0.205,0.346,0.138
				c-0.05-0.06-0.103-0.117-0.159-0.171c0.151,0.114,0.3,0.225,0.349,0.109c-0.034-0.041-0.062-0.1-0.089-0.087
				c0.173-0.065,0.516,0.213,0.592-0.029c-0.257-0.273-0.011-0.136-0.181-0.4l0.144,0.023l0.051,0.148
				c0.076-0.053,0.276,0.089,0.286-0.038l-0.132-0.068l0.183-0.045l-0.017,0.148c0.171,0.08,0.215,0.327,0.27,0.186
				c-0.039-0.011,0.076-0.056,0.015-0.228l0,0c0.1,0.054,0.194,0.109,0.209,0.01c-0.04-0.087-0.2-0.26-0.23-0.318
				c0.184,0.178,0.225-0.062,0.423,0.114c-0.061-0.055-0.113-0.119-0.155-0.189l0.147,0.138c0-0.076-0.013-0.1-0.09-0.2
				c0.088-0.1,0.181,0.317,0.216,0.1c-0.019-0.005-0.031-0.032-0.07-0.041c0.082-0.151,0.319-0.074,0.383-0.23
				c-0.129-0.242-0.144,0.015-0.243-0.2c0.2-0.068,0.556,0.029,0.678-0.141l-0.013,0.044c0.243,0.268,0.011-0.228,0.2-0.154
				c-0.036-0.005-0.147-0.134-0.117-0.107c0.076-0.123,0.282-0.091,0.515-0.135l-0.074-0.051c0.017-0.1,0.146-0.155,0.193-0.233
				c0.073,0.046,0.105,0.008,0.155,0.114c-0.068-0.491,0.545-0.155,0.506-0.559c-0.023,0.017-0.094,0-0.075-0.017l0.2-0.076
				c0.062,0.093,0.025,0.066,0.051,0.158c0.056,0.035,0.126,0.035,0.182,0c-0.119,0.008-0.12-0.131-0.129-0.2
				c0.017,0.029,0.053,0.047,0.073,0.074c-0.047-0.207,0.16,0.146,0.184-0.043l-0.043-0.034c0.062-0.013,0.145,0,0.176-0.052
				c-0.062-0.1-0.078,0-0.148-0.066c0.067-0.048,0.268,0.043,0.243-0.089c-0.046,0-0.083,0.037-0.13,0.038
				c-0.033-0.149,0-0.13,0.029-0.185v0.006l0.066-0.13v0.046c0.268,0.121,0.192-0.1,0.411-0.085
				c-0.208-0.013-0.081-0.047-0.166-0.113c0.005-0.044,0.023-0.1-0.011-0.112c0.11,0.015,0.04-0.111,0.2-0.089
				c-0.019-0.024,0.053-0.046-0.015-0.088c0.084-0.038,0.024,0.048,0.057,0.069c0.168-0.026,0.136-0.284,0.363-0.337
				c0.15-0.087,0.224-0.067,0.345-0.167c0.01-0.056-0.082-0.009-0.082-0.009c0.031-0.07,0.083-0.128,0.149-0.167
				c-0.023,0-0.018-0.014-0.018-0.043c0.042-0.046,0.068,0,0.1-0.081c-0.029,0.002-0.057,0.007-0.084,0.017
				c0.062-0.045,0.12-0.094,0.175-0.147c0-0.026-0.052,0.021-0.079,0.033c0.057-0.063,0.12-0.121,0.188-0.173l-0.026,0.049
				c0.019-0.026-0.006-0.024-0.025-0.007c-0.062,0.047-0.058,0.088-0.051,0.1l0.036-0.041c0.018,0.079-0.13,0.176-0.2,0.262h0.075
				c-0.034,0.024-0.07,0.044-0.109,0.06c0,0.028,0.021,0.064,0.063,0.028c-0.021,0.084-0.065,0.04-0.074,0.117
				c0,0.01,0.006,0.01,0.013,0.006l-0.066,0.046c0.022,0,0.038,0.045,0.056,0c-0.042,0.144-0.185,0.139-0.162,0.225l0.011-0.006
				c-0.141,0.134-0.065-0.028-0.225,0.026l0.089,0.2l-0.073-0.038c-0.011,0.017-0.03,0.053,0,0.07
				c-0.088,0.02-0.019-0.034-0.088-0.037c0,0.131-0.2,0.174-0.1,0.291c-0.078-0.026,0.019-0.105-0.088-0.067
				c0.105,0.139-0.1,0.066-0.1,0.184c0.087,0.045,0.105-0.053,0.109,0.072c-0.153-0.072-0.087,0.153-0.157,0.19
				c-0.1-0.094-0.148,0.081-0.267,0.139c0.039,0.027-0.1,0.238-0.136,0.363l0.021,0.017c-0.129-0.1-0.194,0-0.28,0.036
				c0.073,0.075,0.113,0.095,0.176,0.095l-0.057,0.059c-0.042-0.028-0.095-0.031-0.141-0.01l0.105,0.085
				c-0.078,0.078-0.262,0.038-0.3,0.211c-0.1-0.1-0.168-0.358-0.339-0.331c0.045,0.059,0.125,0.159,0.173,0.156
				c-0.015,0-0.074-0.016-0.071,0.025l0.125,0.054c-0.009,0.086-0.093-0.056-0.123-0.012c0.072,0.079,0.024,0.084,0.085,0.143
				c0.016,0,0-0.064,0.044-0.046c-0.033,0.074-0.033,0.159,0,0.233c-0.037-0.052-0.1-0.113-0.136-0.094
				c-0.083,0.071,0.06,0.128,0.054,0.218c-0.069-0.04-0.067,0.072-0.178-0.059c-0.024,0.023,0.024,0.088,0.045,0.132
				c-0.09-0.019-0.208,0.164-0.282-0.027v-0.018h-0.012c-0.254-0.021-0.223,0.332-0.411,0.391l0.041,0.051
				c-0.128,0.014-0.211,0.127-0.359,0.061c-0.024,0.021,0.018,0.147,0.078,0.2c-0.1,0.013-0.152-0.045-0.175,0.122
				c0.139,0.044,0.043,0.105,0.12,0.016c-0.047,0.117,0,0.226-0.2,0.145c0.141,0.12,0.077,0.24,0,0.229l-0.021-0.156
				c-0.053,0.018-0.096,0.056-0.12,0.106l0.169,0.181c0.012,0.4-0.619-0.163-0.443,0.37c-0.152-0.11,0.018-0.183-0.146-0.321
				c-0.059,0.093,0.077,0.469,0.053,0.489c-0.024,0.212-0.328-0.235-0.386-0.062c-0.041-0.091-0.174-0.312-0.315-0.324
				c-0.062,0.088,0.134,0.412,0.23,0.438c0.025-0.009,0.016-0.042,0-0.068c0.046,0.009,0.1,0.015,0.133,0.128l-0.067-0.072
				c0.017,0.113-0.1,0.192,0.018,0.305c-0.115-0.029-0.119-0.114-0.1-0.19c-0.023,0.2-0.161,0.13-0.213,0.295
				c-0.014-0.059-0.066-0.169-0.082-0.155c-0.087,0.226-0.178-0.106-0.312-0.063c0.027,0.175,0.232,0.293,0.051,0.267
				c-0.006,0.14,0.14,0.24,0.213,0.288c-0.211-0.089-0.112,0.25-0.147,0.327l0.1,0.031c-0.038-0.015-0.081-0.005-0.109,0.024
				l-0.087-0.2c-0.011,0.054-0.036,0.074,0.013,0.147c-0.109-0.093-0.17-0.312-0.339-0.425c0.018,0.12-0.19-0.007-0.048,0.241
				c0.076-0.175,0.143,0.25,0.277,0.206c-0.04-0.013-0.064,0.007-0.074,0.063c0.01,0.024,0.03,0.043,0.054,0.053
				c0.017,0.308-0.233-0.227-0.359-0.127c0.105,0.124,0.139,0.281,0.1,0.268c0.05-0.042-0.124-0.246-0.239-0.317
				c-0.014,0.167-0.142-0.015-0.177,0.029l0.017-0.087c-0.106-0.126-0.137-0.078-0.223-0.082c0.065,0.112,0.1,0.038,0.111,0.1
				c-0.223-0.2,0.018,0.359-0.178,0.254c0.018,0.125,0.164,0.269,0.169,0.36c-0.218-0.115,0.014,0.272-0.189,0.195
				c-0.091-0.216-0.056-0.171-0.25-0.31l0.262,0.016l-0.29-0.2c0.052-0.039,0.189,0.045,0.2-0.009
				c-0.153-0.12-0.117-0.076-0.192-0.253c0.11,0.337-0.25-0.074-0.212,0.176l0.3,0.482c0.009,0.3-0.379-0.1-0.469,0.136v-0.121
				c-0.143-0.181-0.118,0.041-0.22,0c0.071,0.112,0.122,0.235,0.151,0.364c-0.073-0.125-0.115,0.092-0.333-0.234l0.059,0.27
				c-0.078,0.179-0.444-0.385-0.54-0.247c0.151,0.161,0.163,0.32,0.33,0.4c-0.042,0.029-0.062,0.086-0.133-0.033
				c0.039,0.125-0.259-0.155-0.2,0.033c-0.063-0.064-0.177-0.242-0.217-0.2c0.014,0.03,0.031,0.058,0.051,0.085
				c-0.051-0.085-0.145-0.069-0.216-0.287c0.187,0.627-0.4,0.185-0.242,0.727c-0.126-0.006-0.253,0.01-0.373,0.048
				c0.036,0.05,0.051,0.089,0.057,0.061c-0.025,0.239-0.368-0.472-0.4-0.205c0.095,0.332,0.161,0.115,0.181,0.25
				c0.3,0.615-0.181,0,0,0.353l0.033,0.027c0.121,0.2-0.239-0.163-0.281-0.084l0.079,0.074c-0.197-0.162-0.445-0.25-0.7-0.249
				c0.148,0.062,0.287,0.143,0.414,0.242c-0.069-0.005-0.4-0.276-0.558-0.275c0.146,0.148,0.315,0.271,0.5,0.365l0.067-0.018
				c0.36,0.228-0.071,0.024-0.033,0.077l0.184,0.085c-0.112,0-0.61-0.2-0.68-0.124l-0.147-0.06c-0.6-0.139,0.251,0.124-0.215,0.032
				l0.551,0.169c-0.298-0.045-0.599-0.064-0.9-0.055c0.527,0.063,0.827,0.079,1.115,0.131c-0.02,0.014-0.123,0.03-0.457-0.021
				c0.075,0,0.243,0.029,0.158,0c-0.305-0.08-0.623-0.093-0.934-0.039c1.357,0.178,0.128,0.152,1.255,0.258
				c-0.1,0-0.134,0.005-0.138,0.014c-0.012,0.038,0.478,0.07,0.454,0.094c-0.979,0.035-0.007,0.015-0.966,0.078
				c-0.026,0.025,0,0.032,0.066,0.028c0.218,0.004,0.424,0.001,0.618-0.01c0.264-0.028,0.173-0.038,0.373-0.061
				c0.203-0.013,0.405-0.038,0.605-0.075c-0.3,0.046-0.419,0.076-0.3,0.062c-0.126,0.023-0.258,0.041-0.393,0.056
				c-0.369,0.133,0.692-0.121,0.312,0l0.226-0.074c-0.123,0.053,0.008,0-0.46,0.273c0.097-0.042,0.192-0.09,0.282-0.145
				c0.1-0.014-0.385,0.372-0.006,0.305l0.095-0.128c0,0.068-0.145,0.272,0,0.2c0.043-0.048,0.095-0.126,0.116-0.116
				c-0.019,0.057-0.1,0.285,0,0.266l0.086-0.163c0.316,0.041-0.04,0.574,0.018,0.786c0.163-0.203,0.429-0.293,0.681-0.23
				l0.045-0.045c0.217,0.2,0.016,0.629,0.039,0.938c0.475-0.171,0.483,0.312,0.82,0.38c-0.119,0.053-0.215,0.146-0.274,0.262
				c0.1,0-0.149,0.306,0.161,0.076l-0.018-0.014c0.334-0.18,0.318-0.014,0.377,0.062l-0.4,0.295c0.739-0.188,0.118,0.7,0.711,0.478
				c-0.073,0.117-0.038,0.182-0.109,0.3l0.215-0.134c0.131,0.09,0.218,0.231,0.24,0.389l0.133-0.126
				c0.065,0.1-0.545,0.485-0.509,0.584l0.328-0.149c0.08,0.183,0.432,0.225,0.232,0.557c0.044-0.027,0.129-0.078,0.129-0.116
				c0.046,0.083,0.345,0.235-0.078,0.415c0.266-0.135,0.11,0.176,0.035,0.332l0.187-0.113c-0.214,0.209-0.278,0.243-0.3,0.391
				c0.037,0.015,0.162-0.051,0.1-0.063c0.136,0.044-0.149,0.159,0,0.22l0.1-0.1c0.053,0.087-0.015,0.111-0.131,0.228
				c-0.048,0.094,0.121,0.155,0.29,0.093c-0.1,0.06-0.207,0.173-0.136,0.206c0.043-0.014,0.081-0.041,0.109-0.077
				c0.182,0.1-0.108,0.326,0.1,0.358c0.034-0.017,0.071-0.026,0.109-0.028c-0.046-0.127-0.1-0.223-0.109-0.208
				c0.163-0.075,0.229,0.017,0.425-0.169c-0.095,0.142-0.308,0.4-0.2,0.47c0.02-0.002,0.04-0.006,0.059-0.011l0.014-0.018
				c0.023,0.017,0.015,0.044,0,0.075c0.036,0.022,0.061,0.034,0.073,0.064c0.131-0.043,0.105,0.092,0.128,0.142
				c-0.167,0.066-0.117,0.123-0.274,0.116c0.015,0,0.016-0.017,0.012-0.055c0-0.01,0-0.02,0.01-0.029l-0.014,0.01l-0.032-0.133
				c-0.072,0.078-0.128,0.151-0.015,0.168l-0.24,0.184c0.256-0.029,0.422,0.057,0.562,0.021c-0.037,0.195,0.053,0.4-0.195,0.612
				c-0.02,0.058,0.1,0.019,0.144,0.019c0.019-0.036,0.006-0.067,0.041-0.1c-0.043,0.118,0.052,0.278-0.125,0.371
				c0.117,0.081,0.148-0.129,0.165,0.039l0.048-0.043c0.347,0.213-0.272,0.652,0.148,0.874c-0.026-0.017-0.038-0.026-0.063-0.023
				c0.227,0.347,0.127,0.828,0.364,1.165c0.049,0.1-0.009,0.133-0.033,0.213h0.074l-0.052,0.138c-0.005,0.173,0.2,0.241,0.147,0.474
				l-0.033-0.018c0.018,0.073,0.032,0.238,0.055,0.219c-0.01,0.017-0.01,0.039,0,0.056h0.016l0.012,0.188
				c0.03,0.14,0.038-0.032,0.057,0.178c0.001,0.065,0.006,0.129,0.014,0.193c-0.005-0.03-0.017-0.081-0.017-0.081l0.014,0.07
				c0,0.014,0.03,0.062-0.049-0.1l-0.043-0.114l-0.026-0.033l0.044,0.094c-0.026-0.038-0.044-0.081-0.054-0.126
				c-0.015-0.012-0.027-0.027-0.037-0.043c-0.009-0.038-0.016-0.078-0.02-0.117c-0.021-0.01,0,0.056-0.051-0.014
				c-0.006-0.056,0.058,0.04,0.032-0.048c-0.043-0.048-0.056-0.028-0.066-0.1c-0.017-0.005-0.02,0.011-0.013,0.037
				c-0.012-0.059-0.068-0.147-0.047-0.185c-0.063-0.045-0.075-0.19-0.146-0.165c0.013-0.055,0.013-0.112,0-0.167
				c-0.058,0.122-0.094-0.188-0.2-0.127c0.07-0.1-0.081-0.257-0.074-0.4c-0.008,0.011-0.022,0.03-0.009,0.039
				c-0.045-0.065-0.1-0.071-0.145-0.105c0.106-0.044,0.082-0.157,0.132-0.24c-0.158-0.044-0.119,0.1-0.243,0.107
				c0.1-0.027,0.023-0.174,0.124-0.174c-0.105-0.039-0.061-0.043-0.186-0.04c0.159-0.066,0-0.068,0.076-0.155
				c-0.13-0.061-0.174,0.032-0.173-0.085C133.75,36.37,133.736,36.478,133.736,36.478z M132.886,34.005L132.886,34.005l0.015,0.053
				L132.886,34.005z M132.786,33.805c0.022,0.024,0.04,0.051,0.052,0.081c0.063-0.019,0.121-0.055,0.11-0.073
				c-0.036,0.032-0.093,0-0.162-0.004V33.805z M134.156,33.72c0.013-0.045-0.024-0.043-0.06-0.032c0.003,0.023,0.003,0.046,0,0.069
				l-0.019,0.013c0.027-0.013,0.053-0.029,0.078-0.046L134.156,33.72z"/>
			<path id="Path_30115_1_" class="st4" d="M133.958,33.88c0,0.006-0.009,0.012-0.007,0.019h-0.044l0.047-0.034L133.958,33.88z"/>
			<path id="Path_30116_1_" class="st4" d="M136.495,21.164v0.006c-0.001-0.009-0.004-0.017-0.008-0.025L136.495,21.164z"/>
			<path id="Path_30117_1_" class="st4" d="M130.822,31.496l0.055-0.034l-0.037,0.045L130.822,31.496z"/>
			<path id="Path_30118_1_" class="st4" d="M137.089,19.972c-0.007-0.01-0.011-0.022-0.011-0.034
				C137.084,19.948,137.088,19.96,137.089,19.972z"/>
			<path id="Path_30119_1_" class="st4" d="M137.472,19.62l0.027-0.076C137.493,19.57,137.484,19.596,137.472,19.62z"/>
			<path id="Path_30120_1_" class="st4" d="M137.74,19.316l0.036,0.025l0,0L137.74,19.316z"/>
			<path id="Path_30121_1_" class="st4" d="M132.277,22.66c-0.006,0.002-0.013,0.002-0.019,0
				C132.198,22.633,132.23,22.638,132.277,22.66z"/>
			<path id="Path_30122_1_" class="st4" d="M134.228,22.14c-0.036-0.022-0.074-0.041-0.114-0.055
				C134.133,22.052,134.151,22.035,134.228,22.14z"/>
			<path id="Path_30123_1_" class="st4" d="M130.244,23.398L130.244,23.398l-0.011,0.006L130.244,23.398z"/>
			<path id="Path_30124_1_" class="st4" d="M134.041,22.137c0-0.056,0.032-0.063,0.073-0.052
				C134.098,22.109,134.084,22.15,134.041,22.137z"/>
			<path id="Path_30125_1_" class="st4" d="M138.979,18.083l0.012-0.015l0,0L138.979,18.083z"/>
			<path id="Path_30126_1_" class="st4" d="M138.991,18.068l0.017-0.015C139.003,18.058,138.998,18.063,138.991,18.068z"/>
			<path id="Path_30127_1_" class="st4" d="M139.048,18.02l-0.034,0.032C139.022,18.038,139.034,18.027,139.048,18.02z"/>
			<path id="Path_30128_1_" class="st4" d="M138.631,18.491l-0.018-0.008C138.62,18.483,138.627,18.486,138.631,18.491z"/>
			<path id="Path_30129_1_" class="st4" d="M138.51,18.6c0.024-0.03,0.038-0.094,0.087-0.123l0.016,0.005
				C138.572,18.482,138.559,18.594,138.51,18.6z"/>
			<path id="Path_30130_1_" class="st4" d="M138.307,19.328l0.065-0.13c0.009,0.04,0.022,0.1,0.064,0.047
				C138.406,19.456,138.405,19.169,138.307,19.328z"/>
			<path id="Path_30131_1_" class="st4" d="M138.066,19.693c0.062-0.045,0.041,0.04,0.06,0.053
				C138.07,19.761,138.055,19.762,138.066,19.693z"/>
			<path id="Path_30132_1_" class="st4" d="M135.852,21.928l0.114,0.135C135.906,22.082,135.923,22.009,135.852,21.928z"/>
			<path id="Path_30133_1_" class="st4" d="M134.804,21.518l-0.025-0.125l0.125,0.125H134.804z"/>
			<path id="Path_30134_1_" class="st4" d="M135.343,22.845l0.036,0.006l-0.116,0.007L135.343,22.845z"/>
			<path id="Path_30135_1_" class="st4" d="M131.008,25.883l-0.148-0.291C130.925,25.623,131.114,25.934,131.008,25.883z"/>
			<path id="Path_30136_1_" class="st4" d="M129.482,26.375c0.2,0.081,0.318,0.134,0.085,0.077
				C129.556,26.437,129.415,26.363,129.482,26.375z"/>
			<path id="Path_30137_1_" class="st4" d="M132.451,29.723l0.057-0.1l-0.021,0.124L132.451,29.723z"/>
		</g>
		<g id="Group_792_1_" transform="translate(6.469 0)">
			<path id="Path_30138_1_" class="st4" d="M276.265,17.706c0.135-0.056,0.289,0.1,0.106,0.341h-0.416L276.265,17.706z"/>
			<path id="Path_30139_1_" class="st4" d="M275.753,19.788c-0.345,0.211-0.824,0.387-0.968,0.011
				c0.479-0.106,0.407-0.257,0.961-0.357c0.208-0.234,0.2-0.512,0.057-0.537c0.134-0.044,0.178-0.444,0.456-0.47
				c0.013,0.516-0.264,0.996-0.717,1.243C275.547,19.816,275.684,19.77,275.753,19.788z"/>
			<path id="Path_30140_1_" class="st4" d="M253.713,38.859l0.151-0.136C253.821,38.776,253.77,38.821,253.713,38.859z"/>
			<path id="Path_30141_1_" class="st4" d="M235.92,44.436c0.144-0.016,0.21,0.009,0.224,0.039
				C236.005,44.475,235.895,44.471,235.92,44.436z"/>
			<path id="Path_30142_1_" class="st4" d="M232.781,45.374l0.186-0.057C232.916,45.362,232.848,45.382,232.781,45.374z"/>
			<path id="Path_30143_1_" class="st4" d="M253.713,38.842l-0.4,0.318C253.223,39.071,253.505,38.974,253.713,38.842z"/>
			<path id="Path_30144_1_" class="st4" d="M272.635,22.644c0.071-0.065,0.153-0.117,0.241-0.154l-0.186,0.175L272.635,22.644z"/>
			<path id="Path_30145_1_" class="st4" d="M260.955,34.952l0.128-0.087c0.065,0.008,0.128,0.024,0.19,0.045L260.955,34.952z"/>
			<path id="Path_30146_1_" class="st4" d="M266.03,31.26c-0.1,0.109-0.335-0.085-0.463-0.147c0.126,0.036,0.261,0.016,0.37-0.057
				C265.985,31.114,266.017,31.185,266.03,31.26z"/>
			<path id="Path_30147_1_" class="st4" d="M272.716,24.091l0.144-0.114L272.716,24.091z"/>
			<path id="Path_30148_1_" class="st4" d="M257.15,37.369c0.013,0.039,0.014,0.081,0.005,0.121
				C257.137,37.452,257.135,37.408,257.15,37.369z"/>
			<path id="Path_30149_1_" class="st4" d="M131.723,42.681c-0.001,0.018-0.005,0.036-0.01,0.053
				C131.682,42.698,131.676,42.675,131.723,42.681z"/>
			<path id="Path_30150_1_" class="st4" d="M124.229,42.854l0.1,0.035c0.002,0.057-0.002,0.115-0.011,0.171L124.229,42.854z"/>
			<path id="Path_30151_1_" class="st4" d="M226.87,46.285l0.027-0.008C227.057,46.3,226.968,46.3,226.87,46.285z"/>
			<path id="Path_30152_1_" class="st4" d="M202.358,22.332c-0.707,0.064,0.931,0.649-0.1,0.644
				C202.387,22.893,201.508,22.256,202.358,22.332z"/>
			<path id="Path_30153_1_" class="st4" d="M272.567,22.799l-0.161,0.2C272.45,22.925,272.504,22.858,272.567,22.799z"/>
			<path id="Path_30154_1_" class="st4" d="M202.254,22.976L202.254,22.976h-0.1H202.254z"/>
			<path id="Path_30155_1_" class="st4" d="M213.101,45.369c0.046-0.048,0.103-0.084,0.165-0.107
				C213.255,45.29,213.216,45.322,213.101,45.369z"/>
			<path id="Path_30156_1_" class="st4" d="M223.356,45.8l-0.253,0.041C223.185,45.817,223.27,45.803,223.356,45.8z"/>
			<path id="Path_30157_1_" class="st4" d="M208.005,43.639c-0.128-0.002-0.253-0.038-0.362-0.105
				c0.021-0.008,0.044-0.014,0.067-0.015C207.785,43.601,207.893,43.645,208.005,43.639z"/>
			<path id="Path_30158_1_" class="st4" d="M202.869,41.935c0.04-0.004,0.08-0.005,0.12-0.005l0.148,0.1L202.869,41.935z"/>
			<path id="Path_30159_1_" class="st4" d="M148.003,45.152c-0.109,0.06-0.205,0.142-0.281,0.241
				C147.828,45.188,147.049,45.02,148.003,45.152z"/>
			<path id="Path_30160_1_" class="st4" d="M272.769,22.75c-0.07-0.023-0.147-0.006-0.2,0.045l0.124-0.13
				C272.736,22.684,272.771,22.704,272.769,22.75z"/>
			<path id="Path_30161_1_" class="st4" d="M208.549,41.813l-0.791-0.239C208.026,41.638,208.29,41.717,208.549,41.813z"/>
			<path id="Path_30162_1_" class="st4" d="M186.227,44.566l-0.193,0.026C186.094,44.563,186.161,44.554,186.227,44.566z"/>
			<path id="Path_30163_1_" class="st4" d="M205.515,40.684c-0.17,0.033-0.344,0.033-0.514,0c-0.025-0.032-0.044-0.069-0.054-0.109
				L205.515,40.684z"/>
			<path id="Path_30165_1_" class="st4" d="M142.187,44.341c0.814,0.092,0.33,0.405,0.472,0.636
				c0.957,0.224,0.488-0.214,0.845-0.361c0.591,0.171,1.009,0.565,1.464,0.606c0.042-0.056,0.132-0.067,0.04-0.155
				c0.6,0.377,1.9,0.227,2.6,0.678c0.044-0.016,0.082-0.044,0.11-0.081c-0.12,0.135-0.183,0.311-0.178,0.491
				c0.364,0.046,0.65,0.306,0.818,0.081c-0.226-0.017-0.232-0.116-0.328-0.2l0.371,0.146c0.388-0.308-0.508-0.177-0.476-0.432
				c0.692,0.27,1.416,0.451,2.154,0.539c0.159-0.324-1.325-0.259-0.527-0.476l-0.9,0.032c0.742-0.458-0.542-0.021,0.15-0.524
				c1.174,0.029,1.28,0.318,2.453,0.324c0.241,0.212-0.117,0.27,0.124,0.482c1.619,0.491,1.392-0.729,2.56-0.167
				c0.291,0.251,0.371,0.7,1.261,0.54l-0.259-0.4c1.132,0.045,0.595,0.6,1.8,0.427c-0.2-0.166-0.877-0.192-0.7-0.225
				c0.793-0.246,0.522,0.257,1.113,0.3l0.15-0.33c1.2,0.145,2.5,0.489,3.837,0.607c-0.068-0.105-0.289-0.223,0.029-0.311
				c1.732,0.211,3.484,0.197,5.212-0.04l0.612,0.307c0.144,0,0.27-0.127,0.115-0.187c0.632-0.1,0.029,0.187,0.33,0.309
				c0.36,0.029,0.477-0.158,0.252-0.251c1.415,0.379,2.895,0.449,4.34,0.206l-0.231-0.085c0.905-0.14,1.052,0.612,1.887,0.283
				l-0.164-0.043c1.961-0.24,4.183-0.071,5.6-0.735c0.344,0.382,1.892-0.4,2.113,0.148c0.688-0.413,1.414-0.759,2.169-1.032
				c0.391-0.121,0.7,0.223,1.215,0.157l-0.077-0.3l0.766,0.122l0.241-0.452l0.486-0.054c-0.177,0.069-0.345,0.242-0.289,0.319
				c0.643-0.071,1.229-0.4,1.624-0.912c0.591-0.1,1.167-0.248,1.758-0.371c-0.089-0.1-0.383-0.035-0.632-0.025
				c1.007-0.048,0.026-0.35,0.943-0.408c-0.075,0.11,0.137,0.143,0.183,0.192c0.569-0.431,1.209-0.76,1.891-0.972l-0.229-0.129
				c1.15-0.585,2.476-1.159,3.718-1.905c-0.388,0.346-0.071,0.6,0.321,0.405l-0.052-0.364c0.353,0.016-0.3,0.346,0.323,0.24
				c0.438-0.329,0.081-0.5-0.243-0.422l0.621-0.266c-0.029-0.1-0.19-0.058-0.3-0.138c0.361,0.025,0.729-0.885,1.263-0.834
				l-0.033-0.1c1.155-0.838,1.726-1.167,2.615-1.909c0.23,0.194,0.518-0.155,0.941-0.235c0.562-0.648,1.054-1.461,1.717-2.212
				c0.582-0.448,0.338-0.008,0.689-0.151c-0.186-0.2,0.443-0.974-0.034-0.672c0.756-0.928,0.952-1.182,1.855-2.388
				c0.038,0.189-0.005,0.372,0.124,0.326c0.159-0.227,0.159-0.6,0.021-0.613l-0.057,0.053c0.514-0.714,0.727-1.602,0.594-2.472
				c-0.133-0.66-0.219-1.328-0.257-2l-0.006,0.063c-0.002-0.186-0.036-0.371-0.1-0.546c-0.038-0.191-0.108-0.374-0.206-0.542
				c-0.386-0.374,0.043,0.355-0.343,0.164c-0.213-0.509-0.63-0.905-1.15-1.09c-0.511-0.183-1.012-0.394-1.5-0.631
				c-0.318,0.097-0.651,0.132-0.982,0.105c-0.191-0.014-0.382-0.04-0.57-0.078c-0.194-0.011-0.391-0.026-0.593-0.048
				c-0.392-0.043-0.787-0.041-1.178,0.008c-0.334,0.118-0.684,0.178-0.846,0.422l-0.019-0.188c-0.328-0.047-0.259,0.226-0.412,0.332
				c-0.051-0.128,0.19-0.253-0.017-0.272c-1.138,0.487-1.936,1.537-2.1,2.764c-0.142,1.283,0.049,2.58,0.556,3.767
				c0.33,0.879-0.763,0.835,0.178,1.843c0.048-0.157,0.105-0.311,0.17-0.462c0.288,1.007,0.809,1.932,1.522,2.7
				c0.344,0.413,0.708,0.808,1.091,1.184c0.358,0.4,0.737,0.774,1.1,1.172c-0.044-0.139,0.025-0.215-0.134-0.345
				c0.321,0.112,0.603,0.313,0.814,0.579c0.26,0.247,0.443,0.507,0.383,0.588c0.29,0.175,0.18-0.1,0.412-0.059
				c0.442,0.156,0.76,0.886,1.12,0.8c0.059-0.011-0.064-0.13-0.126-0.188c0.189,0.248,1.209,0.681,0.812,0.773
				c0.794,0.266,1.343,0.828,2.021,0.959c0.262,0.446,1.38,0.405,1.324,0.862c0.12-0.411,1.526,0.145,1.957,0.52
				c-0.12-0.186,0.486,0.013,0.354-0.233c0.57,0.188,1.089,0.393,0.914,0.594c0.557-0.057,1.117,0.064,1.6,0.346
				c0.472,0.189,0.9,0.348,1.285,0.073c0.834,0.301,1.685,0.551,2.549,0.749c0.819,0.216,1.651,0.383,2.49,0.5
				c-0.009-0.454-1.825-0.209-1.682-0.7l1.964,0.546c0.648,0.198,1.323,0.288,2,0.267c0.41-0.045-0.218-0.205-0.348-0.288
				c0.756,0.106,1.517,0.165,2.28,0.177c0.724-0.01,1.447,0.034,2.164,0.129c0-0.042-0.157-0.087-0.3-0.121
				c0.277,0.013,0.643-0.069,0.615,0.136l-0.272-0.055c-0.443,0.3,1.115,0.617,1.173,0.775c-0.489-0.556,1.393-0.221,0.615-0.923
				c0.183,0.026,0.416,0.107,0.381,0.247c0.269-0.059,0.349-0.145,0.069-0.282c1,0.041,0.657,0.284,1.557,0.215
				c-0.011-0.1-0.195-0.124-0.295-0.234c0.537,0.226,1.127,0.29,1.7,0.184c-0.052-0.057,0.03-0.14-0.2-0.123
				c0.605-0.008,1.21,0.031,1.809,0.118c0.63,0.103,1.274,0.062,1.886-0.119c-0.481-0.36,0.462-0.218,0.479-0.6l0.776-0.012
				l-0.275,0.228c0.623,0.003,1.244-0.047,1.858-0.152l-0.525-0.072l1.264-0.131l-0.68,0.253c0.716,0.08,0.019,0.476,0.894,0.23
				c-0.19-0.008,0.674-0.113,0.974-0.384l0,0c0.396,0.113,0.82,0.08,1.193-0.094c0.1-0.148-0.2-0.376-0.139-0.474
				c0.4,0.223,1.552-0.3,2.049-0.083c-0.157-0.041-0.217-0.229-0.184-0.278l0.339,0.177c0.282-0.155,0.315-0.2,0.22-0.342
				c0.9-0.275-0.154,0.529,0.873,0.059c-0.091,0-0.061-0.045-0.25-0.037c1.047-0.21,2.078-0.491,3.087-0.841
				c0.156-0.454-0.879,0.206-0.66-0.208c1.479-0.301,2.941-0.678,4.382-1.128l-0.236,0.126c0.418,0.443,0.891-0.615,1.651-0.69
				c-0.179,0.035-0.341-0.176-0.272-0.141c1.071-0.479,2.183-0.859,3.322-1.137l-0.234-0.047c0.481-0.316,1.322-0.726,1.834-1.076
				c0.232,0.032,0.533-0.156,0.448,0.119c0.627-0.692,1.436-1.194,2.335-1.448c0.835-0.263,1.577-0.757,2.142-1.426
				c-0.171,0.107-0.476,0.16-0.342,0.073l1.286-0.669c0.048,0.249-0.071,0.215-0.215,0.526c0.34-0.018,0.669-0.126,0.953-0.314
				c-0.645,0.227-0.228-0.3-0.076-0.557c0.005,0.082,0.136,0.093,0.162,0.164c0.361-0.748,0.405,0.306,1.058-0.521l-0.123-0.064
				c0.372-0.133,0.724-0.314,1.049-0.539c-0.041-0.311-0.412,0.146-0.578-0.011c0.474-0.332,1.262-0.289,1.505-0.809
				c-0.25,0.089-0.536,0.3-0.784,0.389c0.122-0.347,0.353-0.646,0.658-0.852l-0.028,0.03c0.225-0.236,0.468-0.45,0.676-0.7
				l-0.13,0.223c1.042,0.063,1.208-0.852,2.283-1.144c-1.039,0.3-0.3-0.083-0.578-0.258c0.128-0.222,0.345-0.533,0.2-0.526
				c0.523-0.124,0.452-0.616,1.181-0.8c-0.053-0.089,0.345-0.343,0.085-0.446c0.485-0.353,0.028,0.216,0.156,0.269
				c0.906-0.411,1.265-1.735,2.517-2.379c0.922-0.7,1.337-0.634,2.194-1.307c0.1-0.368-0.491-0.012-0.491-0.012
				c0.234-0.466,0.577-0.867,1-1.171c-0.143,0.03-0.13-0.1-0.117-0.292c0.3-0.312,0.488,0,0.734-0.524
				c-0.208-0.006-0.415,0.025-0.613,0.089c0.411-0.325,0.875-0.607,1.269-0.974c-0.063-0.209-0.418,0.1-0.626,0.177
				c0.424-0.417,1.061-1.11,1.411-1.1l-0.147,0.354c0.144-0.163-0.135-0.219-0.275-0.123c-0.492,0.276-0.362,0.629-0.3,0.709
				l0.284-0.259c0.265,0.643-1,1.143-1.469,1.724l0.558,0.014l-0.8,0.38c-0.015,0.193,0.105,0.426,0.4,0.178
				c-0.182,0.545-0.437,0.275-0.548,0.777c0,0.063,0.027,0.057,0.072,0.031c-0.148,0.111-0.3,0.22-0.458,0.321
				c0.144-0.02,0.181,0.254,0.358-0.026c-0.465,0.862-1.32,0.932-1.313,1.4l0.075-0.042c-1.029,0.883-0.335-0.107-1.3,0.379
				l0.109,0.983l-0.334-0.118c-0.091,0.1-0.272,0.308-0.141,0.357c-0.534,0.212-0.04-0.152-0.408-0.082
				c-0.268,0.654-1.422,1.172-1.164,1.623c-0.347,0,0.326-0.568-0.31-0.193c0.245,0.516-0.692,0.47-0.978,1.041
				c0.341,0.077,0.68-0.4,0.388,0.169c-0.615-0.1-0.839,0.847-1.3,1.119c-0.275-0.256-0.956,0.625-1.757,1.032
				c0.129,0.061-1.18,1.132-1.749,1.722l0.059,0.034c-0.36-0.19-0.992,0.355-1.567,0.608c0.159,0.165,0.306,0.176,0.649,0.076
				l-0.488,0.31c-0.254-0.01-0.505,0.057-0.72,0.192l0.292,0.146c-0.791,0.323-1.539,0.744-2.225,1.253
				c-0.192-0.187,0.239-1.019-0.73-0.607c0.048,0.137,0.153,0.358,0.414,0.259c-0.166,0.035-0.322,0.108-0.455,0.213
				c0.17,0,0.326-0.013,0.489-0.02c-0.319,0.328-0.308-0.036-0.611,0.155c0.119,0.164-0.155,0.246-0.019,0.355
				c0.091-0.028,0.23-0.219,0.4-0.219c-0.316,0.184-0.58,0.446-0.765,0.762c-0.031-0.113-0.148-0.227-0.425-0.108
				c-0.687,0.354-0.1,0.33-0.444,0.631c-0.24-0.029-0.6,0.328-0.766,0.078c-0.2,0.109-0.162,0.248-0.2,0.36
				c-0.421,0.076-1.666,0.854-1.428,0.363l0.078-0.067l-0.063,0.019l0,0c-1.319,0.307-2.4,1.261-3.652,1.683l0.045,0.089
				c-0.714,0.304-1.466,0.506-2.236,0.6c-0.216,0.075-0.441,0.345-0.3,0.422c-0.516,0.04-1.014,0.204-1.452,0.478
				c0.632-0.035-0.14,0.211,0.63-0.083c-0.498,0.352-1.09,0.546-1.7,0.559c0.359,0.146-0.444,0.492-0.821,0.542l0.455-0.35
				c-0.37,0.102-0.733,0.227-1.087,0.376l0.3,0.257c-1.434,0.8-3.006,0.051-4,1.008c-0.472-0.122,0.8-0.371,0.36-0.542
				c-0.543,0.265-1.061,0.576-1.549,0.932c-0.938,0.44-1.038-0.285-2.049,0.022c0.109-0.137,0.165-0.467-0.632-0.453
				c-0.712,0.159-0.794,0.632-0.315,0.653c0.176-0.018,0.254-0.069,0.239-0.107c0.243,0.005,0.563,0.005,0.3,0.177l-0.119-0.1
				c-0.338,0.177-1.346,0.326-1.074,0.48c-0.574-0.023-0.271-0.154,0.126-0.28c-0.906,0.32-1.463,0.24-2.41,0.508
				c0.144-0.089,0.265-0.25,0.112-0.224c-1.393,0.358-0.649-0.09-1.619-0.067c-0.526,0.219,0.25,0.415-0.742,0.334
				c-0.581,0.164-0.092,0.322,0.158,0.4c-0.737-0.038-1.474,0.081-2.162,0.347l0.48,0.062c-0.251-0.027-0.503-0.027-0.754,0
				l0.249-0.256c-0.272,0.06-0.506,0.078-0.494,0.176c-0.3-0.135,0.187-0.41-0.39-0.582c-0.358,0.146-1.12-0.051-1.23,0.273
				c1.148-0.189-0.111,0.325,0.872,0.306c-0.235-0.021-0.471-0.003-0.7,0.055c-0.04,0.038,0.043,0.062,0.119,0.075
				c-1.1,0.356-0.527-0.312-1.672-0.24c0.151,0.176-0.258,0.337-0.447,0.3c0.465-0.006,0.213-0.3-0.213-0.431
				c-0.733,0.141-0.8-0.1-1.183-0.081l0.438-0.068c-0.149-0.176-0.515-0.151-1.024-0.205c-0.045,0.139,0.463,0.093,0.281,0.155
				c-0.562-0.3-1.288,0.333-2.078,0.076c-0.372,0.105-0.048,0.332-0.376,0.4c-0.881-0.269-0.985,0.206-1.915-0.032
				c0.29-0.225,0.33-0.149-0.308-0.444c0.506,0.116,1.016,0.17,1.526,0.255l-0.963-0.389c0.462,0.017,0.966,0.192,1.247,0.163
				c-0.458-0.214-0.412-0.153-0.181-0.341c-0.655,0.33-1.234-0.252-1.978-0.092l-0.033,0.592c-1.136,0.147-1.931-0.447-3.369-0.533
				l0.473-0.035c-0.153-0.26-0.871-0.161-1.312-0.323c0.006,0.2-0.295,0.229-0.516,0.321c0.051-0.123-1.044-0.184-1.084-0.6
				l-0.689,0.125c-1.174-0.121-1.148-0.83-2.231-1.049c0.259,0.292-0.273,0.3,0.405,0.638c-0.361-0.095-0.7-0.147-0.661-0.28
				c-0.25,0.058-0.916-0.509-1.3-0.457c-0.119-0.132-0.095-0.344-0.493-0.46c-0.057,0.023-0.033,0.092-0.033,0.092
				c0.032-0.093-0.565-0.332-0.142-0.421c-0.347,0.045-0.699,0.021-1.036-0.073c-0.363-0.12-0.719-0.262-1.065-0.424
				c-0.605-0.332-1.266-0.554-1.949-0.654c-0.706-0.4-1.5-0.951-2.117-1.338c0,0.073-0.057,0.083,0.074,0.137
				c-0.986-0.361-0.172-0.8-1.232-1.265c-0.686-0.081,0.38,0.483,0.005,0.372c-0.275,0.214-0.549-0.006-0.86-0.294
				c-0.264-0.364-0.627-0.644-1.046-0.808l0.117,0.149c-0.641-0.207-0.891-1.152-1.588-1.8c0,0-0.016,0.073-0.076,0.068
				c-0.121-0.429-0.305-0.837-0.546-1.212c-0.223-0.45-0.477-0.91-0.691-1.3c-0.076,0.359,0.112,0.406-0.226,0.4
				c-0.191-0.358,0.424-0.108,0.095-0.831c-0.256-0.156-0.665-0.6-0.965-0.561l0.364,0.683c-0.239-0.097-0.417-0.302-0.478-0.553
				c-0.039-0.237-0.11-0.468-0.21-0.687l-0.133,0.107c-0.17-0.381-0.239-0.799-0.2-1.214c0.006-0.425-0.041-0.849-0.139-1.263
				l0.149,0.1c0.287-0.727-0.369-0.526-0.106-1.24l-0.44-0.183c0.16-0.809,0.392-1.602,0.694-2.369
				c-0.232,0.263-0.418,0.562-0.551,0.886c-0.12,0.378-0.245,0.769-0.342,1.074c0.013-0.338,0.043-0.674,0.091-1.009
				c0.046-0.292,0.165-0.567,0.345-0.8c-0.115,0.178-0.181,0.382-0.193,0.593c0.439-0.629,0.815-1.299,1.125-2
				c-0.4-0.076-0.218-0.687,0.262-1.293c0.444-0.629,1.16-1.17,1.329-1.613c0.431-0.231,0.91-0.336,1.343-0.537
				c0.456-0.122,0.916-0.293,1.392-0.38c0.487-0.103,0.982-0.161,1.479-0.171l0.773,0.005c0.259,0.027,0.516,0.067,0.771,0.12
				c-0.84,0.461,0.6,0.12,0.33,0.7c0.444,0.124,0.6,0.19,0.659,0.155c0.498-0.006,0.995,0.035,1.485,0.123
				c0.405-0.026-0.371-0.3-0.275-0.412c1.033,0.391,0.543-0.087,1.309,0.117c-0.251,0.12,0.185,0.454,0.784,0.75
				c-0.311-0.096-0.626-0.177-0.945-0.241c0.363,0.342,0.797,0.599,1.271,0.752c0.517,0.156,0.932,0.546,1.12,1.052
				c-0.046-0.178-0.102-0.354-0.169-0.525c0.177,0.235,0.335,0.484,0.472,0.745c0.2,0.324,0.352,0.676,0.45,1.044
				c0.12,0.348,0.172,0.715,0.154,1.082c0.017,0.282-0.057,0.562-0.21,0.8c0.078,0.128,0.261,0.313,0.3-0.033
				c0.031,0.959-0.183,1.911-0.621,2.765c-0.387,0.703-0.719,1.434-0.993,2.188l0.208-0.043c-0.2,0.256-0.539,0.341-0.593,0.753
				c0.068,0.014,0.2-0.035,0.137,0.1c-0.344,0.254-0.633,0.575-0.85,0.943l0.349-0.2c-0.782,1.455-1.872,1.752-2.872,2.639
				c0.369,0.3-0.428,1.3-0.856,1.779l0.063,0.029c-1.292,1.083-2.73,1.979-4.272,2.661c-0.6,1.006-2.993,2.141-4.448,3.141
				c0.2-0.189-0.215-0.283-0.517-0.187c-0.33,0.259-1.171,0.223-0.923,0.551l0.131-0.067c-0.1,0.482-0.941,0.728-1.55,1
				l-0.329-0.445c-0.797,0.66-1.759,1.091-2.783,1.246c-0.839,0.073-1.643,0.365-2.333,0.847c-0.452-0.032-0.964,0.088-1.4,0.054
				l0.09,0.271c-0.567,0.171-1,0.255-1.473,0.356c-0.562,0.117-1.132,0.188-1.705,0.212l0.327,0.165
				c-0.816,0.115-1.149-0.687-1.888-0.617l-0.171,0.446c-1.383,0.34-2.814,0.441-4.231,0.3c0.046,0.125,0.173,0.202,0.305,0.184
				c-0.332,0.025-0.973,0.133-1.5,0.161c-0.53,0.007-0.947-0.066-0.835-0.357c-0.005,0.378-1.451,0.055-2.209-0.1l0.12,0.277
				c-0.452-0.329-0.993-0.514-1.552-0.532c-0.212,0.032-0.187,0.224,0.094,0.15c-0.7,0.14-0.544-0.273-1.4-0.142l0.315,0.185
				c-0.38,0.054-0.765-0.057-1.058-0.305c-0.451-0.122-1.37,0.039-1.487,0.289c-0.231-0.25-0.573-0.366-0.908-0.307
				c-0.061,0.093,0.09,0.156,0.168,0.187c-1.218,0.152-1.777-0.408-2.621-0.172c-0.016,0.077-0.074,0.138-0.149,0.159
				c0.959,0.042,1.732,0.066,1.66,0.042c-0.011,0.257-0.79,0.262-0.189,0.648c-0.756-0.366-1.579-0.575-2.418-0.616
				c-0.041,0.02-0.077,0.049-0.106,0.083l0.076,0.033c-0.161,0.014-0.323-0.009-0.474-0.066c-0.209,0.034-0.42,0.049-0.632,0.046
				c-0.105,0.213-0.9,0.058-1.284,0.039c0.054-0.279-0.454-0.271,0.037-0.467c-0.063,0.015,0.07,0.038,0.326,0.069
				c0.055,0.008,0.109,0.022,0.161,0.041l-0.024-0.027c0.252,0.029,0.582,0.058,0.957,0.078c-0.307-0.202-0.686-0.265-1.042-0.172
				c-0.184-0.2-0.387-0.4-0.5-0.492c-0.556,0.352-1.59,0.489-1.753,0.719c-1.164-0.235-2.764-0.314-3.445-0.917
				c-0.327-0.1-0.4,0.115-0.532,0.186c0.187,0.07,0.417,0.084,0.513,0.169c-0.653-0.2-1.97-0.236-2.088-0.617
				c-0.859,0.087,0.433,0.381-0.714,0.214l0.143,0.127c-2.344,0.348-3.569-1.318-6.172-0.867c0.181-0.024,0.27-0.035,0.314-0.092
				c-2.908-0.012-5.835-1.047-8.728-0.929c-0.816-0.011-0.864-0.256-1.321-0.5l-0.224,0.273l-0.774-0.465
				c-1.133-0.435-2.174,0.418-3.581-0.3l0.23-0.169c-0.543-0.049-1.674-0.394-1.628-0.149c-0.048-0.046-0.136-0.237-0.365-0.167
				l-0.046,0.153l-1.262-0.487c-1.041-0.062,0.037,0.646-1.458,0.419c-0.541-0.156-1.484-0.734-1.254-0.8
				c0.226,0.034,0.591,0.007,0.64-0.146l-0.487-0.172c0.006-0.474-0.276-1.009,1.015-1.11l0.8,0.431l0.321-0.175l-0.719-0.139
				c0.45-0.136,0.673,0.092,0.939,0.268c0.106-0.113,0.252-0.178,0.407-0.183l0.759,0.583c0.136-0.163-0.31-0.42,0.275-0.424
				c0.357,0.268-0.458,0.34,0.173,0.581c0.451-0.141,0.363-0.331,0.813-0.074c0.09-0.107,0-0.2-0.179-0.282
				c0.4,0.212,1.128,0.245,1.3,0.526c0.476-0.185,1.444,0.294,1.479-0.146c0.323,0.252,0.694,0.435,1.091,0.538
				c-0.631-0.632,1.488,0.2,1.393-0.393c0.456,0.547,1.9,0.49,2.806,0.889c-0.046-0.045-0.139-0.135-0.226-0.124
				c0.363,0.011,0.726-0.03,1.077-0.123c0.005,0.4,0.826,0.6,1.238,0.9c0.715-0.285-0.328-0.508-0.066-0.84
				c-0.082,0.31,1.091,0.467,0.828,0.7c0.537-0.164,0.449-0.054,0.757-0.341c0.015,0.5,0.455,0.147,0.827,0.5
				c0.762-0.15,0.254-0.432,1.031-0.186C142.872,44.6,142.187,44.341,142.187,44.341z M161.135,46.97v-0.006l-0.395-0.036
				L161.135,46.97z M162.743,47.055c-0.2,0-0.441-0.009-0.7-0.024c-0.062,0.094-0.006,0.2,0.156,0.2
				C162.116,47.162,162.499,47.125,162.743,47.055z M159.202,48.825c0.254,0.059,0.344,0,0.384-0.051
				c-0.15-0.013-0.299-0.033-0.447-0.061l-0.028-0.037C159.128,48.732,159.159,48.784,159.202,48.825z"/>
			<path id="Path_30166_1_" class="st4" d="M158.767,48.357c-0.032-0.013-0.066-0.023-0.1-0.03c0.051-0.022,0.104-0.041,0.157-0.056
				l0.085,0.1L158.767,48.357z"/>
			<path id="Path_30167_1_" class="st4" d="M253.888,38.707l-0.027,0.023c0.019-0.021,0.034-0.047,0.042-0.074
				C253.896,38.672,253.891,38.689,253.888,38.707z"/>
			<path id="Path_30168_1_" class="st4" d="M184.52,44.93l0.018,0.074l-0.148-0.026L184.52,44.93z"/>
			<path id="Path_30169_1_" class="st4" d="M260.859,33.453c0.001-0.047,0.019-0.093,0.05-0.128
				C260.916,33.346,260.891,33.397,260.859,33.453z"/>
			<path id="Path_30170_1_" class="st4" d="M263.806,31.21l0.352-0.418C264.05,30.939,263.933,31.079,263.806,31.21z"/>
			<path id="Path_30171_1_" class="st4" d="M265.899,29.278c0.047,0.01,0.091,0.029,0.13,0.057v0.005L265.899,29.278z"/>
			<path id="Path_30172_1_" class="st4" d="M223.556,43.777c-0.038-0.001-0.075-0.005-0.112-0.013
				C223.178,43.707,223.355,43.729,223.556,43.777z"/>
			<path id="Path_30173_1_" class="st4" d="M237.354,43.025c-0.155-0.032-0.311-0.054-0.469-0.065
				C237.124,42.896,237.311,42.857,237.354,43.025z"/>
			<path id="Path_30174_1_" class="st4" d="M208.637,41.833v0.005l-0.087-0.031L208.637,41.833z"/>
			<path id="Path_30175_1_" class="st4" d="M236.251,43.074c0.199-0.087,0.417-0.126,0.634-0.114
				C236.68,43.03,236.467,43.068,236.251,43.074z"/>
			<path id="Path_30176_1_" class="st4" d="M274.162,20.549l0.071-0.12c0.014,0.011,0.031,0.017,0.049,0.014L274.162,20.549z"/>
			<path id="Path_30177_1_" class="st4" d="M274.283,20.443l0.12-0.105C274.362,20.396,274.323,20.445,274.283,20.443z"/>
			<path id="Path_30178_1_" class="st4" d="M274.654,20.113l-0.25,0.225C274.469,20.246,274.545,20.127,274.654,20.113z"/>
			<path id="Path_30179_1_" class="st4" d="M271.941,23.701l-0.112-0.036C271.869,23.662,271.909,23.675,271.941,23.701z"/>
			<path id="Path_30180_1_" class="st4" d="M271.165,24.19c0.154-0.334,0.348-0.649,0.577-0.938l0.09,0.026
				C271.602,23.324,271.484,24.11,271.165,24.19z"/>
			<path id="Path_30181_1_" class="st4" d="M268.801,28.439l0.639-0.78c-0.039,0.206-0.088,0.483,0.253,0.173
				C269.054,28.986,269.687,27.463,268.801,28.439z"/>
			<path id="Path_30182_1_" class="st4" d="M266.654,30.528c0.437-0.325,0.109,0.129,0.174,0.159
				C266.503,30.841,266.422,30.876,266.654,30.528z"/>
			<path id="Path_30183_1_" class="st4" d="M247.588,41.627l0.153,0.237C247.333,41.97,247.697,41.762,247.588,41.627z"/>
			<path id="Path_30184_1_" class="st4" d="M243.103,41.753c0.11-0.092,0.224-0.171,0.329-0.274l0.255,0.174
				C243.494,41.7,243.299,41.733,243.103,41.753z"/>
			<path id="Path_30185_1_" class="st4" d="M241.211,43.777l0.188-0.01l-0.7,0.087L241.211,43.777z"/>
			<path id="Path_30186_1_" class="st4" d="M203.632,42.599l0.264-0.243C204.131,42.526,204.018,42.908,203.632,42.599z"/>
			<path id="Path_30187_1_" class="st4" d="M192.981,30.866c-0.263-0.241-0.368-0.609-0.271-0.952
				C192.771,30.307,192.995,30.662,192.981,30.866z"/>
			<path id="Path_30188_1_" class="st4" d="M189.454,46.101l0.356-0.023l-0.625,0.153L189.454,46.101z"/>
		</g>
	</g>
</g>
</svg>
