<?xml version="1.0" encoding="utf-8"?>
<!-- Generator: Adobe Illustrator 24.0.1, SVG Export Plug-In . SVG Version: 6.00 Build 0)  -->
<svg version="1.1" id="圖層_1" xmlns="http://www.w3.org/2000/svg" xmlns:xlink="http://www.w3.org/1999/xlink" x="0px" y="0px"
	 viewBox="0 0 131 60" style="enable-background:new 0 0 131 60;" xml:space="preserve">
<style type="text/css">
	.st0{enable-background:new    ;}
	.st1{fill:#F58F8E;}
	.st2{fill:#707070;}
	.st3{fill:none;stroke:#707070;stroke-width:0.3;stroke-miterlimit:4.0005;}
	.st4{fill:#95918E;}
	.st5{fill:#FFFFFF;}
	.st6{fill:#A67C52;}
</style>
<g>
	<g class="st0">
		<path class="st1" d="M72.285,49.717c-3.359,0-6.23-1.992-8.613-5.977c-2.384-3.984-3.574-8.418-3.574-13.301
			c0-5.215,1.211-9.878,3.633-13.989c2.421-4.111,5.332-6.167,8.73-6.167c3.281,0,6.123,2.061,8.525,6.182s3.604,8.662,3.604,13.623
			c0,4.844-1.212,9.326-3.633,13.447C78.535,47.656,75.644,49.717,72.285,49.717z M78.35,34.336V24.258
			c0-8.359-1.963-12.539-5.889-12.539c-1.974,0-3.486,0.977-4.541,2.93s-1.582,5.361-1.582,10.225V36.27
			c0,8.008,2.021,12.012,6.064,12.012c1.952,0,3.433-1.04,4.438-3.12S78.35,39.473,78.35,34.336z"/>
		<path class="st1" d="M115.259,37.998l-0.967,10.869H92.319v-3.486c2.285-2.559,5.639-5.889,10.063-9.99s6.637-8.633,6.637-13.594
			c0-2.793-0.615-5.049-1.846-6.768s-2.979-2.578-5.244-2.578c-2.012,0-3.652,0.64-4.922,1.919
			c-1.271,1.279-1.904,2.661-1.904,4.146c0,0.762,0.176,1.143,0.527,1.143c0.077,0,0.234-0.068,0.469-0.205
			c0.645-0.43,1.27-0.645,1.875-0.645c0.762,0,1.41,0.298,1.947,0.894s0.807,1.294,0.807,2.095c0,0.82-0.293,1.528-0.879,2.124
			s-1.309,0.894-2.168,0.894c-1.212,0-2.217-0.522-3.018-1.567c-0.802-1.045-1.201-2.349-1.201-3.911
			c0-2.383,0.98-4.487,2.943-6.313s4.487-2.739,7.574-2.739c3.027,0,5.635,0.84,7.822,2.52c2.187,1.68,3.281,3.877,3.281,6.592
			c0,2.891-0.967,5.537-2.9,7.939s-4.781,5.352-8.541,8.848s-6.43,6.104-8.012,7.822h13.33c2.479,0,3.832-0.205,4.057-0.615
			s0.406-1.367,0.543-2.871l0.264-2.52H115.259z"/>
	</g>
	<g class="st0">
		<path class="st2" d="M30.383,35.501c0.053-0.035,0.128-0.064,0.225-0.09c0.135-0.036,0.213-0.016,0.234,0.062
			c0.025,0.096-0.038,0.206-0.192,0.33c-1.006,0.726-1.989,1.461-2.949,2.204c-0.96,0.744-1.89,1.527-2.788,2.347
			c0.135,0.503,0.174,1.035,0.118,1.599c-0.056,0.564-0.179,1.13-0.368,1.699c-0.188,0.568-0.432,1.13-0.728,1.686
			c-0.297,0.556-0.618,1.076-0.964,1.563c-0.54,0.766-1.095,1.38-1.664,1.844c-0.57,0.462-1.077,0.754-1.521,0.874
			c-0.58,0.155-0.93,0.011-1.049-0.434c-0.077-0.289-0.016-0.715,0.187-1.276c0.201-0.562,0.578-1.279,1.131-2.152
			c0.321-0.501,0.641-0.955,0.956-1.36c0.315-0.406,0.56-0.714,0.73-0.925c0.409-0.482,0.844-0.966,1.304-1.453
			c0.46-0.486,0.926-0.967,1.398-1.447c-0.181-0.592-0.496-1.037-0.947-1.329c-0.451-0.293-0.969-0.502-1.55-0.626
			c-0.582-0.123-1.196-0.212-1.842-0.266c-0.647-0.056-1.255-0.14-1.824-0.258c-0.569-0.116-1.071-0.307-1.506-0.575
			c-0.434-0.266-0.729-0.689-0.884-1.27c-0.155-0.58-0.189-1.249-0.104-2.007c0.087-0.758,0.266-1.541,0.536-2.348
			c0.27-0.809,0.618-1.611,1.046-2.41c0.429-0.798,0.9-1.529,1.415-2.195c0.516-0.667,1.066-1.238,1.652-1.717
			s1.179-0.798,1.777-0.958c0.618-0.166,1.102-0.125,1.447,0.125c0.347,0.248,0.587,0.624,0.722,1.125
			c0.135,0.503,0.18,1.096,0.136,1.782c-0.045,0.685-0.156,1.387-0.336,2.109c-0.179,0.721-0.409,1.424-0.691,2.111
			c-0.282,0.686-0.581,1.289-0.897,1.809c-0.217,0.348-0.439,0.62-0.667,0.815c-0.227,0.196-0.418,0.314-0.572,0.355
			c-0.231,0.062-0.373-0.004-0.425-0.197c-0.052-0.192,0.023-0.451,0.227-0.774c0.345-0.569,0.697-1.223,1.059-1.961
			c0.361-0.739,0.673-1.486,0.937-2.24c0.264-0.753,0.459-1.474,0.586-2.16s0.127-1.261,0.003-1.725
			c-0.114-0.425-0.403-0.574-0.868-0.45c-0.581,0.156-1.156,0.455-1.723,0.896s-1.111,0.971-1.632,1.587
			c-0.52,0.615-0.987,1.294-1.4,2.037c-0.414,0.743-0.759,1.493-1.033,2.249c-0.275,0.757-0.456,1.495-0.545,2.212
			c-0.088,0.718-0.057,1.356,0.094,1.917c0.114,0.425,0.366,0.746,0.757,0.962c0.391,0.216,0.858,0.385,1.4,0.509
			c0.543,0.125,1.122,0.228,1.737,0.311c0.615,0.083,1.209,0.205,1.782,0.362c0.571,0.156,1.086,0.371,1.544,0.642
			c0.457,0.271,0.785,0.659,0.983,1.165c0.888-0.86,1.795-1.683,2.724-2.471C28.488,36.932,29.43,36.192,30.383,35.501z
			 M22.728,46.687c0.307-0.476,0.587-0.976,0.84-1.499c0.254-0.523,0.46-1.044,0.622-1.564c0.16-0.521,0.269-1.025,0.324-1.516
			c0.054-0.492,0.046-0.945-0.024-1.361c-0.921,0.888-1.81,1.821-2.667,2.796c-0.185,0.236-0.431,0.556-0.737,0.959
			c-0.306,0.402-0.612,0.842-0.92,1.318c-0.538,0.848-0.896,1.54-1.074,2.075c-0.178,0.534-0.23,0.936-0.158,1.207
			c0.094,0.348,0.363,0.462,0.807,0.343c0.387-0.104,0.854-0.389,1.4-0.857C21.688,48.12,22.217,47.485,22.728,46.687z"/>
		<path class="st2" d="M46.205,23.959c0.238-0.043,0.405-0.056,0.502-0.042c0.098,0.016,0.151,0.043,0.161,0.081
			c0.021,0.077-0.027,0.167-0.145,0.272c-0.117,0.104-0.243,0.173-0.379,0.209c-0.198,0.033-0.4,0.051-0.606,0.055
			s-0.406,0.03-0.599,0.082c-0.996,0.226-1.986,0.455-2.969,0.687c-0.983,0.233-1.968,0.481-2.953,0.746
			c-0.754,0.202-1.504,0.414-2.253,0.636c-0.748,0.221-1.483,0.449-2.208,0.684c-0.158,0.955-0.322,2.024-0.491,3.208
			s-0.309,2.366-0.416,3.544c-0.109,1.179-0.165,2.28-0.17,3.307c-0.005,1.026,0.076,1.848,0.242,2.466
			c0.072,0.271,0.191,0.523,0.358,0.759c0.166,0.233,0.414,0.308,0.742,0.22c0.406-0.109,0.862-0.491,1.371-1.145
			c0.508-0.654,1.007-1.398,1.497-2.234c0.491-0.835,0.945-1.667,1.366-2.494c0.421-0.827,0.743-1.478,0.968-1.952
			c0.046-0.136,0.117-0.218,0.214-0.244s0.158,0.01,0.184,0.105c0.021,0.078,0.006,0.174-0.045,0.293
			c-0.165,0.313-0.368,0.714-0.609,1.204s-0.513,1.007-0.811,1.553c-0.3,0.546-0.621,1.103-0.965,1.672
			c-0.345,0.569-0.693,1.087-1.044,1.553c-0.352,0.468-0.7,0.866-1.046,1.197c-0.347,0.331-0.674,0.538-0.982,0.621
			c-0.387,0.104-0.715,0.001-0.984-0.31c-0.271-0.312-0.487-0.777-0.653-1.394c-0.182-0.677-0.309-1.496-0.38-2.461
			c-0.073-0.963-0.1-1.972-0.081-3.021c0.019-1.05,0.071-2.106,0.161-3.166c0.089-1.059,0.203-2.022,0.344-2.888
			c-0.589,0.2-1.134,0.388-1.635,0.563c-0.502,0.176-0.993,0.37-1.476,0.582c-0.26,0.11-0.507,0.229-0.743,0.355
			c-0.235,0.125-0.483,0.243-0.743,0.354c-0.072,0.041-0.167,0.076-0.282,0.107c-0.232,0.062-0.358,0.055-0.379-0.022
			c-0.025-0.097,0.156-0.228,0.546-0.396c0.786-0.314,1.568-0.602,2.348-0.862c0.778-0.26,1.576-0.532,2.392-0.812
			c0.089-0.438,0.177-0.845,0.263-1.221c0.086-0.375,0.175-0.699,0.268-0.972c0.198-0.571,0.404-0.885,0.616-0.942
			c0.155-0.042,0.267,0.063,0.334,0.314c0.057,0.214,0.055,0.514-0.008,0.903l-0.243,1.525c1.327-0.459,2.638-0.882,3.931-1.271
			c1.294-0.388,2.607-0.761,3.94-1.118c0.58-0.156,1.164-0.312,1.753-0.47C44.997,24.221,45.597,24.081,46.205,23.959z"/>
		<path class="st2" d="M49.09,30.548c0.062-0.08,0.132-0.128,0.209-0.149c0.116-0.031,0.187,0.001,0.213,0.097
			c0.025,0.098-0.009,0.2-0.104,0.309c-0.285,0.325-0.65,0.724-1.093,1.194c-0.444,0.471-0.91,0.932-1.399,1.384
			c-0.49,0.453-0.986,0.86-1.489,1.223c-0.504,0.363-0.958,0.598-1.364,0.707c-0.328,0.088-0.617,0.053-0.867-0.108
			c-0.251-0.16-0.425-0.424-0.523-0.792c-0.099-0.366-0.131-0.793-0.095-1.28c0.035-0.486,0.116-0.957,0.242-1.416
			c0.125-0.458,0.293-0.855,0.504-1.191c0.21-0.336,0.45-0.54,0.721-0.612c0.192-0.051,0.371-0.027,0.532,0.074
			c0.162,0.101,0.271,0.258,0.329,0.471c0.108,0.406,0.042,0.838-0.196,1.296c-0.24,0.457-0.518,0.873-0.831,1.246
			c-0.162,0.168-0.301,0.288-0.416,0.361c-0.115,0.072-0.221,0.121-0.317,0.147s-0.167,0.035-0.211,0.026
			c-0.07,0.433-0.064,0.804,0.019,1.113c0.058,0.213,0.162,0.371,0.314,0.475c0.152,0.105,0.354,0.123,0.604,0.056
			c0.348-0.093,0.762-0.329,1.24-0.706c0.478-0.375,0.965-0.802,1.459-1.276s0.967-0.953,1.417-1.436
			C48.436,31.277,48.805,30.873,49.09,30.548z M44.275,30.316c-0.155,0.041-0.351,0.296-0.588,0.764
			c-0.236,0.467-0.423,0.988-0.559,1.563c0.147-0.143,0.307-0.32,0.478-0.532c0.172-0.211,0.327-0.423,0.467-0.637
			c0.139-0.213,0.246-0.414,0.321-0.599c0.073-0.186,0.096-0.337,0.064-0.452C44.433,30.326,44.372,30.29,44.275,30.316z"/>
		<path class="st2" d="M61.983,26.967c0.038-0.01,0.066-0.023,0.083-0.038c0.016-0.015,0.035-0.025,0.055-0.03
			c0.153-0.041,0.247-0.003,0.278,0.113c0.025,0.096-0.051,0.199-0.229,0.308c-0.321,0.191-0.703,0.428-1.145,0.712
			s-0.917,0.598-1.425,0.941c-0.509,0.344-1.026,0.709-1.554,1.1c-0.527,0.389-1.037,0.785-1.53,1.187
			c-0.252,0.835-0.594,1.593-1.021,2.277c-0.427,0.685-0.921,1.101-1.481,1.251c-0.097,0.026-0.2,0.027-0.31,0.006
			c-0.109-0.024-0.182-0.102-0.218-0.237c-0.037-0.137,0.008-0.314,0.136-0.535c0.198-0.343,0.512-0.737,0.941-1.184
			c0.429-0.446,0.908-0.917,1.438-1.411c0.254-0.751,0.426-1.497,0.52-2.236c0.091-0.74,0.08-1.321-0.034-1.747
			c-0.119-0.444-0.344-0.623-0.672-0.535c-0.482,0.129-0.902,0.497-1.258,1.099c-0.356,0.604-0.659,1.346-0.908,2.231
			c-0.25,0.886-0.454,1.861-0.613,2.929s-0.286,2.137-0.382,3.209c-0.096,1.07-0.163,2.093-0.202,3.067
			c-0.04,0.974-0.063,1.792-0.071,2.458c-0.016,0.48-0.121,0.746-0.314,0.798c-0.154,0.042-0.278-0.111-0.371-0.459
			c-0.016-0.059-0.032-0.121-0.051-0.188c-0.018-0.067-0.027-0.144-0.029-0.226c-0.072-0.498-0.134-1.175-0.188-2.031
			c-0.053-0.854-0.092-1.772-0.116-2.75c-0.023-0.978-0.025-1.97-0.006-2.979c0.019-1.01,0.058-1.927,0.116-2.751
			c0.06-0.822,0.15-1.503,0.275-2.045c0.124-0.54,0.282-0.836,0.476-0.888c0.077-0.021,0.132,0.026,0.163,0.142
			c0.03,0.116,0.035,0.25,0.014,0.4c-0.277,1.669-0.459,3.349-0.544,5.038s-0.104,3.398-0.055,5.124
			c0.097-1.186,0.234-2.465,0.415-3.838c0.18-1.374,0.424-2.667,0.73-3.877c0.308-1.211,0.687-2.25,1.138-3.117
			c0.451-0.866,0.985-1.382,1.604-1.548c0.328-0.088,0.588-0.048,0.777,0.118c0.189,0.166,0.329,0.415,0.417,0.743
			c0.114,0.426,0.146,0.934,0.099,1.527c-0.049,0.593-0.154,1.2-0.318,1.825c0.474-0.396,0.962-0.797,1.464-1.201
			s0.997-0.78,1.484-1.127c0.486-0.348,0.936-0.659,1.348-0.938C61.323,27.383,61.681,27.151,61.983,26.967z M53.861,34.674
			c0.386-0.104,0.758-0.437,1.114-0.998c0.357-0.562,0.665-1.208,0.925-1.941c-0.488,0.421-0.922,0.833-1.3,1.234
			c-0.38,0.401-0.668,0.773-0.866,1.117c-0.113,0.197-0.151,0.362-0.115,0.497C53.645,34.679,53.726,34.71,53.861,34.674z"/>
	</g>
	<g class="st0">
		<path class="st3" d="M30.383,35.501c0.053-0.035,0.128-0.064,0.225-0.09c0.135-0.036,0.213-0.016,0.234,0.062
			c0.025,0.096-0.038,0.206-0.192,0.33c-1.006,0.726-1.989,1.461-2.949,2.204c-0.96,0.744-1.89,1.527-2.788,2.347
			c0.135,0.503,0.174,1.035,0.118,1.599c-0.056,0.564-0.179,1.13-0.368,1.699c-0.188,0.568-0.432,1.13-0.728,1.686
			c-0.297,0.556-0.618,1.076-0.964,1.563c-0.54,0.766-1.095,1.38-1.664,1.844c-0.57,0.462-1.077,0.754-1.521,0.874
			c-0.58,0.155-0.93,0.011-1.049-0.434c-0.077-0.289-0.016-0.715,0.187-1.276c0.201-0.562,0.578-1.279,1.131-2.152
			c0.321-0.501,0.641-0.955,0.956-1.36c0.315-0.406,0.56-0.714,0.73-0.925c0.409-0.482,0.844-0.966,1.304-1.453
			c0.46-0.486,0.926-0.967,1.398-1.447c-0.181-0.592-0.496-1.037-0.947-1.329c-0.451-0.293-0.969-0.502-1.55-0.626
			c-0.582-0.123-1.196-0.212-1.842-0.266c-0.647-0.056-1.255-0.14-1.824-0.258c-0.569-0.116-1.071-0.307-1.506-0.575
			c-0.434-0.266-0.729-0.689-0.884-1.27c-0.155-0.58-0.189-1.249-0.104-2.007c0.087-0.758,0.266-1.541,0.536-2.348
			c0.27-0.809,0.618-1.611,1.046-2.41c0.429-0.798,0.9-1.529,1.415-2.195c0.516-0.667,1.066-1.238,1.652-1.717
			s1.179-0.798,1.777-0.958c0.618-0.166,1.102-0.125,1.447,0.125c0.347,0.248,0.587,0.624,0.722,1.125
			c0.135,0.503,0.18,1.096,0.136,1.782c-0.045,0.685-0.156,1.387-0.336,2.109c-0.179,0.721-0.409,1.424-0.691,2.111
			c-0.282,0.686-0.581,1.289-0.897,1.809c-0.217,0.348-0.439,0.62-0.667,0.815c-0.227,0.196-0.418,0.314-0.572,0.355
			c-0.231,0.062-0.373-0.004-0.425-0.197c-0.052-0.192,0.023-0.451,0.227-0.774c0.345-0.569,0.697-1.223,1.059-1.961
			c0.361-0.739,0.673-1.486,0.937-2.24c0.264-0.753,0.459-1.474,0.586-2.16s0.127-1.261,0.003-1.725
			c-0.114-0.425-0.403-0.574-0.868-0.45c-0.581,0.156-1.156,0.455-1.723,0.896s-1.111,0.971-1.632,1.587
			c-0.52,0.615-0.987,1.294-1.4,2.037c-0.414,0.743-0.759,1.493-1.033,2.249c-0.275,0.757-0.456,1.495-0.545,2.212
			c-0.088,0.718-0.057,1.356,0.094,1.917c0.114,0.425,0.366,0.746,0.757,0.962c0.391,0.216,0.858,0.385,1.4,0.509
			c0.543,0.125,1.122,0.228,1.737,0.311c0.615,0.083,1.209,0.205,1.782,0.362c0.571,0.156,1.086,0.371,1.544,0.642
			c0.457,0.271,0.785,0.659,0.983,1.165c0.888-0.86,1.795-1.683,2.724-2.471C28.488,36.932,29.43,36.192,30.383,35.501z
			 M22.728,46.687c0.307-0.476,0.587-0.976,0.84-1.499c0.254-0.523,0.46-1.044,0.622-1.564c0.16-0.521,0.269-1.025,0.324-1.516
			c0.054-0.492,0.046-0.945-0.024-1.361c-0.921,0.888-1.81,1.821-2.667,2.796c-0.185,0.236-0.431,0.556-0.737,0.959
			c-0.306,0.402-0.612,0.842-0.92,1.318c-0.538,0.848-0.896,1.54-1.074,2.075c-0.178,0.534-0.23,0.936-0.158,1.207
			c0.094,0.348,0.363,0.462,0.807,0.343c0.387-0.104,0.854-0.389,1.4-0.857C21.688,48.12,22.217,47.485,22.728,46.687z"/>
		<path class="st3" d="M46.205,23.959c0.238-0.043,0.405-0.056,0.502-0.042c0.098,0.016,0.151,0.043,0.161,0.081
			c0.021,0.077-0.027,0.167-0.145,0.272c-0.117,0.104-0.243,0.173-0.379,0.209c-0.198,0.033-0.4,0.051-0.606,0.055
			s-0.406,0.03-0.599,0.082c-0.996,0.226-1.986,0.455-2.969,0.687c-0.983,0.233-1.968,0.481-2.953,0.746
			c-0.754,0.202-1.504,0.414-2.253,0.636c-0.748,0.221-1.483,0.449-2.208,0.684c-0.158,0.955-0.322,2.024-0.491,3.208
			s-0.309,2.366-0.416,3.544c-0.109,1.179-0.165,2.28-0.17,3.307c-0.005,1.026,0.076,1.848,0.242,2.466
			c0.072,0.271,0.191,0.523,0.358,0.759c0.166,0.233,0.414,0.308,0.742,0.22c0.406-0.109,0.862-0.491,1.371-1.145
			c0.508-0.654,1.007-1.398,1.497-2.234c0.491-0.835,0.945-1.667,1.366-2.494c0.421-0.827,0.743-1.478,0.968-1.952
			c0.046-0.136,0.117-0.218,0.214-0.244s0.158,0.01,0.184,0.105c0.021,0.078,0.006,0.174-0.045,0.293
			c-0.165,0.313-0.368,0.714-0.609,1.204s-0.513,1.007-0.811,1.553c-0.3,0.546-0.621,1.103-0.965,1.672
			c-0.345,0.569-0.693,1.087-1.044,1.553c-0.352,0.468-0.7,0.866-1.046,1.197c-0.347,0.331-0.674,0.538-0.982,0.621
			c-0.387,0.104-0.715,0.001-0.984-0.31c-0.271-0.312-0.487-0.777-0.653-1.394c-0.182-0.677-0.309-1.496-0.38-2.461
			c-0.073-0.963-0.1-1.972-0.081-3.021c0.019-1.05,0.071-2.106,0.161-3.166c0.089-1.059,0.203-2.022,0.344-2.888
			c-0.589,0.2-1.134,0.388-1.635,0.563c-0.502,0.176-0.993,0.37-1.476,0.582c-0.26,0.11-0.507,0.229-0.743,0.355
			c-0.235,0.125-0.483,0.243-0.743,0.354c-0.072,0.041-0.167,0.076-0.282,0.107c-0.232,0.062-0.358,0.055-0.379-0.022
			c-0.025-0.097,0.156-0.228,0.546-0.396c0.786-0.314,1.568-0.602,2.348-0.862c0.778-0.26,1.576-0.532,2.392-0.812
			c0.089-0.438,0.177-0.845,0.263-1.221c0.086-0.375,0.175-0.699,0.268-0.972c0.198-0.571,0.404-0.885,0.616-0.942
			c0.155-0.042,0.267,0.063,0.334,0.314c0.057,0.214,0.055,0.514-0.008,0.903l-0.243,1.525c1.327-0.459,2.638-0.882,3.931-1.271
			c1.294-0.388,2.607-0.761,3.94-1.118c0.58-0.156,1.164-0.312,1.753-0.47C44.997,24.221,45.597,24.081,46.205,23.959z"/>
		<path class="st3" d="M49.09,30.548c0.062-0.08,0.132-0.128,0.209-0.149c0.116-0.031,0.187,0.001,0.213,0.097
			c0.025,0.098-0.009,0.2-0.104,0.309c-0.285,0.325-0.65,0.724-1.093,1.194c-0.444,0.471-0.91,0.932-1.399,1.384
			c-0.49,0.453-0.986,0.86-1.489,1.223c-0.504,0.363-0.958,0.598-1.364,0.707c-0.328,0.088-0.617,0.053-0.867-0.108
			c-0.251-0.16-0.425-0.424-0.523-0.792c-0.099-0.366-0.131-0.793-0.095-1.28c0.035-0.486,0.116-0.957,0.242-1.416
			c0.125-0.458,0.293-0.855,0.504-1.191c0.21-0.336,0.45-0.54,0.721-0.612c0.192-0.051,0.371-0.027,0.532,0.074
			c0.162,0.101,0.271,0.258,0.329,0.471c0.108,0.406,0.042,0.838-0.196,1.296c-0.24,0.457-0.518,0.873-0.831,1.246
			c-0.162,0.168-0.301,0.288-0.416,0.361c-0.115,0.072-0.221,0.121-0.317,0.147s-0.167,0.035-0.211,0.026
			c-0.07,0.433-0.064,0.804,0.019,1.113c0.058,0.213,0.162,0.371,0.314,0.475c0.152,0.105,0.354,0.123,0.604,0.056
			c0.348-0.093,0.762-0.329,1.24-0.706c0.478-0.375,0.965-0.802,1.459-1.276s0.967-0.953,1.417-1.436
			C48.436,31.277,48.805,30.873,49.09,30.548z M44.275,30.316c-0.155,0.041-0.351,0.296-0.588,0.764
			c-0.236,0.467-0.423,0.988-0.559,1.563c0.147-0.143,0.307-0.32,0.478-0.532c0.172-0.211,0.327-0.423,0.467-0.637
			c0.139-0.213,0.246-0.414,0.321-0.599c0.073-0.186,0.096-0.337,0.064-0.452C44.433,30.326,44.372,30.29,44.275,30.316z"/>
		<path class="st3" d="M61.983,26.967c0.038-0.01,0.066-0.023,0.083-0.038c0.016-0.015,0.035-0.025,0.055-0.03
			c0.153-0.041,0.247-0.003,0.278,0.113c0.025,0.096-0.051,0.199-0.229,0.308c-0.321,0.191-0.703,0.428-1.145,0.712
			s-0.917,0.598-1.425,0.941c-0.509,0.344-1.026,0.709-1.554,1.1c-0.527,0.389-1.037,0.785-1.53,1.187
			c-0.252,0.835-0.594,1.593-1.021,2.277c-0.427,0.685-0.921,1.101-1.481,1.251c-0.097,0.026-0.2,0.027-0.31,0.006
			c-0.109-0.024-0.182-0.102-0.218-0.237c-0.037-0.137,0.008-0.314,0.136-0.535c0.198-0.343,0.512-0.737,0.941-1.184
			c0.429-0.446,0.908-0.917,1.438-1.411c0.254-0.751,0.426-1.497,0.52-2.236c0.091-0.74,0.08-1.321-0.034-1.747
			c-0.119-0.444-0.344-0.623-0.672-0.535c-0.482,0.129-0.902,0.497-1.258,1.099c-0.356,0.604-0.659,1.346-0.908,2.231
			c-0.25,0.886-0.454,1.861-0.613,2.929s-0.286,2.137-0.382,3.209c-0.096,1.07-0.163,2.093-0.202,3.067
			c-0.04,0.974-0.063,1.792-0.071,2.458c-0.016,0.48-0.121,0.746-0.314,0.798c-0.154,0.042-0.278-0.111-0.371-0.459
			c-0.016-0.059-0.032-0.121-0.051-0.188c-0.018-0.067-0.027-0.144-0.029-0.226c-0.072-0.498-0.134-1.175-0.188-2.031
			c-0.053-0.854-0.092-1.772-0.116-2.75c-0.023-0.978-0.025-1.97-0.006-2.979c0.019-1.01,0.058-1.927,0.116-2.751
			c0.06-0.822,0.15-1.503,0.275-2.045c0.124-0.54,0.282-0.836,0.476-0.888c0.077-0.021,0.132,0.026,0.163,0.142
			c0.03,0.116,0.035,0.25,0.014,0.4c-0.277,1.669-0.459,3.349-0.544,5.038s-0.104,3.398-0.055,5.124
			c0.097-1.186,0.234-2.465,0.415-3.838c0.18-1.374,0.424-2.667,0.73-3.877c0.308-1.211,0.687-2.25,1.138-3.117
			c0.451-0.866,0.985-1.382,1.604-1.548c0.328-0.088,0.588-0.048,0.777,0.118c0.189,0.166,0.329,0.415,0.417,0.743
			c0.114,0.426,0.146,0.934,0.099,1.527c-0.049,0.593-0.154,1.2-0.318,1.825c0.474-0.396,0.962-0.797,1.464-1.201
			s0.997-0.78,1.484-1.127c0.486-0.348,0.936-0.659,1.348-0.938C61.323,27.383,61.681,27.151,61.983,26.967z M53.861,34.674
			c0.386-0.104,0.758-0.437,1.114-0.998c0.357-0.562,0.665-1.208,0.925-1.941c-0.488,0.421-0.922,0.833-1.3,1.234
			c-0.38,0.401-0.668,0.773-0.866,1.117c-0.113,0.197-0.151,0.362-0.115,0.497C53.645,34.679,53.726,34.71,53.861,34.674z"/>
	</g>
</g>
</svg>
