<?xml version="1.0" encoding="utf-8"?>
<!-- Generator: Adobe Illustrator 24.0.1, SVG Export Plug-In . SVG Version: 6.00 Build 0)  -->
<svg version="1.1" id="圖層_1" xmlns="http://www.w3.org/2000/svg" xmlns:xlink="http://www.w3.org/1999/xlink" x="0px" y="0px"
	 viewBox="0 0 159 57" style="enable-background:new 0 0 159 57;" xml:space="preserve">
<style type="text/css">
	.st0{enable-background:new    ;}
	.st1{fill:#F58F8E;}
	.st2{fill:#707070;}
	.st3{fill:none;stroke:#707070;stroke-width:0.3;stroke-miterlimit:4.0005;}
	.st4{fill:#95918E;}
	.st5{fill:#FFFFFF;}
	.st6{fill:#A67C52;}
</style>
<g id="Group_799" transform="translate(-2011.564 -2436.698) rotate(-18)">
	<g id="Group_798" transform="translate(1140 3001)">
		<g id="Group_796">
			<path id="Path_30189" class="st4" d="M36.692-7.844c0.008,0.017,0.007,0.007-0.027-0.036l-0.028-0.028L36.692-7.844z"/>
			<path id="Path_30190" class="st4" d="M36.5-8.141c-0.041-0.048-0.105-0.091-0.1-0.048c0.042,0.029,0.082,0.06,0.119,0.094
				c0.032,0.042,0.049,0.078,0.041,0.073c0.032,0.04-0.008-0.009,0.069,0.087c-0.04-0.071-0.087-0.138-0.141-0.2
				C36.479-8.156,36.5-8.141,36.5-8.141z"/>
			<path id="Path_30191" class="st4" d="M33.221-12.151l0.007,0.045C33.231-12.122,33.228-12.138,33.221-12.151z"/>
			<path id="Path_30192" class="st4" d="M30.827-14.338c0.024,0.008,0.052-0.012,0.07-0.037
				C30.869-14.371,30.839-14.364,30.827-14.338z"/>
			<path id="Path_30193" class="st4" d="M30.603-14.988l0.012,0.041C30.623-14.978,30.624-15.004,30.603-14.988z"/>
			<path id="Path_30194" class="st4" d="M33.221-12.15l-0.014-0.117C33.15-12.21,33.2-12.193,33.221-12.15z"/>
			<path id="Path_30195" class="st4" d="M35.991-8.648c0.012,0.011,0.027,0.019,0.042,0.025L36-8.652L35.991-8.648z"/>
			<path id="Path_30196" class="st4" d="M34.358-11.284l0.017,0.019l0.069-0.042L34.358-11.284z"/>
			<path id="Path_30197" class="st4" d="M35.098-10.467c-0.012-0.024-0.111,0.062-0.158,0.095c0.048-0.028,0.078-0.031,0.1-0.022
				C35.062-10.416,35.081-10.441,35.098-10.467z"/>
			<path id="Path_30198" class="st4" d="M36.023-8.971l0.025,0.02L36.023-8.971z"/>
			<path id="Path_30199" class="st4" d="M33.841-11.888c0.014-0.018,0.027-0.038,0.037-0.059
				C33.863-11.929,33.851-11.909,33.841-11.888z"/>
			<path id="Path_30200" class="st4" d="M30.813-32.46h0.011C30.821-32.464,30.818-32.467,30.813-32.46z"/>
			<path id="Path_30201" class="st4" d="M31.41-33.589v0.017l0,0V-33.589z"/>
			<path id="Path_30202" class="st4" d="M30.012-15.936v0.008C30.053-15.941,30.039-15.945,30.012-15.936z"/>
			<path id="Path_30203" class="st4" d="M25.231-19.077c-0.51-0.016-0.53-0.1-1.113-0.1C24.317-19.16,24.886-19.079,25.231-19.077z"
				/>
			<path id="Path_30204" class="st4" d="M35.98-8.674l-0.031-0.03L35.98-8.674z"/>
			<path id="Path_30206" class="st4" d="M27.998-17.144c-0.023,0.045-0.042,0.093-0.058,0.141
				C27.964-17.048,27.984-17.095,27.998-17.144z"/>
			<path id="Path_30207" class="st4" d="M29.181-15.755l-0.012-0.061C29.165-15.795,29.17-15.774,29.181-15.755z"/>
			<path id="Path_30208" class="st4" d="M26.988-17.215c-0.007-0.036,0.012-0.082-0.04-0.058l-0.013,0.042
				C26.969-17.267,26.993-17.277,26.988-17.215z"/>
			<path id="Path_30209" class="st4" d="M26.189-17.705l-0.021,0.071h0.036L26.189-17.705z"/>
			<path id="Path_30210" class="st4" d="M29.556-29.953c0.053,0,0.106,0.004,0.158,0.013C29.598-29.968,29.625-30.101,29.556-29.953
				z"/>
			<path id="Path_30211" class="st4" d="M36.019-8.665c-0.013,0.004-0.026,0.001-0.036-0.008l0.021,0.021
				C36.008-8.654,36.019-8.657,36.019-8.665z"/>
			<path id="Path_30212" class="st4" d="M25.541-14.853l-0.1-0.114C25.459-14.918,25.495-14.878,25.541-14.853z"/>
			<path id="Path_30213" class="st4" d="M26.221-24.461l-0.013-0.046C26.195-24.5,26.196-24.486,26.221-24.461z"/>
			<path id="Path_30214" class="st4" d="M25.039-15.124c0.031-0.08,0.049-0.164,0.053-0.25l-0.062,0.071L25.039-15.124z"/>
			<path id="Path_30216" class="st4" d="M29.841-30.905c-0.075,0.119,0.129,0.112,0.211,0.172c-0.026,0.165-0.16,0.025-0.275,0.045
				c-0.008,0.106,0.12,0.234,0.079,0.3c-0.033-0.005-0.05,0-0.081-0.025c0.1,0.15-0.145,0.289,0,0.477
				c-0.019,0.003-0.038,0.003-0.057,0c0.098,0.017,0.193,0.045,0.284,0.083c-0.021,0.058,0.083,0.154-0.061,0.125
				c0.02-0.033-0.033-0.055-0.067-0.087l0.032,0.08c-0.22-0.02-0.029-0.105-0.172-0.158c0,0.136,0.107,0.333,0.009,0.4
				c-0.21-0.058,0.034-0.23-0.2-0.18l0.144-0.105c-0.358-0.012,0.066-0.073-0.309-0.1c-0.16,0.149-0.012,0.23-0.17,0.379
				c0.094,0.083,0.177,0.053,0.272,0.137c0.092,0.337-0.639-0.016-0.449,0.277c0.12,0.105,0.4,0.24,0.181,0.31l-0.232-0.149
				c-0.123,0.155,0.32,0.248,0.048,0.351c-0.087-0.074-0.014-0.166-0.06-0.155c-0.273,0.026,0.1,0.141,0.058,0.23l-0.248-0.082
				c-0.067,0.189,0.007,0.462-0.05,0.683c-0.07-0.044-0.131-0.112-0.234-0.1c0,0.306-0.335,0.505-0.644,0.653l0.186,0.2
				c-0.014,0.02-0.131-0.013-0.165-0.058c-0.145,0.046,0.151,0.078,0.219,0.168c-0.012,0.061-0.178,0-0.232-0.067
				c0.107,0.255,0.193,0.688-0.187,0.71l-0.055-0.07c-0.187,0.072,0.432,0.416,0.119,0.412l-0.032-0.048
				c-0.292,0.217-0.231,0.671-0.773,0.648c0.362,0.264-0.361,0.16,0.174,0.5c-0.377-0.007-0.445-0.109-0.78-0.012
				c-0.066,0.04,0.286,0.3,0.3,0.405l-0.293-0.181l0.24,0.289l-0.384-0.17l0.029,0.114c0.091,0.001,0.178,0.032,0.251,0.086
				c0.063,0.193-0.379,0.12-0.535,0.02l0.065,0.4c-0.077-0.062-0.137-0.141-0.176-0.232c0.2,0.325-0.329-0.19-0.143,0.108
				c0.083,0.048,0.159,0.105,0.227,0.172c-0.222-0.066-0.325,0.057-0.323,0.2l-0.19-0.164c-0.19,0.124-0.178,0.43-0.343,0.6
				c0.152,0.012,0.492,0.294,0.478,0.375l-0.33-0.219c0.161,0.184,0.166,0.036,0.339,0.289c-0.1,0.041-0.395-0.232-0.462-0.349
				l0.036,0.165c-0.1-0.069-0.129-0.127-0.243-0.224c0.162,0.186-0.437-0.116-0.146,0.2l-0.1-0.071
				c-0.164,0.166-0.128,0.335-0.241,0.49c0.261,0.234,0.152,0.239,0.326,0.473c-0.174,0.042-0.5-0.054-0.6,0.082
				c0.041,0.2,0.191,0.234,0.3,0.418c-0.239-0.22-0.341-0.083-0.444-0.308c-0.122,0.172-0.174,0.384-0.144,0.592
				c0.112,0.079,0.176,0.1,0.24,0.193c0,0.074-0.17-0.027-0.277-0.144c-0.002-0.013-0.006-0.025-0.012-0.036
				c-0.059,0.4-0.448,0.343-0.958,0.424c-0.481,0.055-1.038,0.173-0.828,0.462l-0.018-0.031c0,0.14,0.019,0.278,0.055,0.413
				c-0.261,0.1-0.226-0.165-0.646-0.148c0.143,0.252-0.038,0.349-0.277,0.45s-0.528,0.177-0.4,0.317c-1,0.005-1.3,0.2-1.476,0.374
				s-0.253,0.342-1.168,0.5l0.535-0.038l0.071,0.011c0.342,0.028-0.3,0.073-0.329,0.116c0.215-0.041,0.433-0.063,0.652-0.065
				c1.262,0.363,1.125,0.969,1.938,1.631c0.314,0.23,1.621-0.524,1.38-0.021l-0.592,0.181c0.45,0.01,0.889,0.146,1.265,0.393
				c0.313,0.231,0.688,0.362,1.077,0.375c-0.094,0.063-0.17,0.169-0.232,0.135c-0.025,0.164,0.108,0.24,0.255,0.241
				c0.193-0.022,0.235-0.117,0.321-0.226c0.04,0.054-0.1,0.206-0.131,0.335c-0.017,0.2,0.377-0.244,0.264,0.042
				c-0.022,0.041-0.057,0.072-0.1,0.09c0.122-0.1,0.2,0.15,0.334-0.181c0.045,0.217,0.326,0,0.325,0.234
				c0.264-0.3,0.127,0.28,0.427-0.185c-0.3,0.487-0.008,0.519,0.21,0.335c-0.115,0.132-0.02,0.191-0.173,0.378
				c0.1,0.042,0.236,0,0.368-0.259c-0.174,0.667,0.621-0.269,0.277,0.511c0.358-0.096,0.731-0.128,1.1-0.094
				c-0.293,0.45-0.3-0.11-0.59,0.379c0.353-0.062,0.731-0.374,0.9-0.132c0.021,0.095-0.157,0.174-0.226,0.24
				c0.351-0.053,0.429,0.289,0.787,0.174c-0.032,0.04-0.073,0.071-0.12,0.091c0.05,0.009,0.055,0.117,0.176-0.079l-0.074,0.029
				c0.12-0.323,0.544-0.5,0.647-0.636c-0.429,0.512,0.112,0.264-0.452,0.894c0.094-0.051,0.171-0.129,0.222-0.223
				c0.015,0.061-0.021,0.143-0.157,0.264c0.214-0.02,0.3-0.252,0.425-0.169c-0.062,0.074-0.129,0.144-0.2,0.21
				c0.185-0.14,0.368-0.276,0.429-0.133c-0.042,0.05-0.076,0.128-0.11,0.107c0.213,0.081,0.634-0.261,0.728,0.036
				c-0.315,0.335-0.013,0.168-0.222,0.5l0.177-0.028l0.062-0.182c0.094,0.065,0.339-0.11,0.351,0.046l-0.162,0.083l0.225,0.055
				l-0.021-0.182c0.21-0.1,0.264-0.4,0.331-0.229c-0.047,0.013,0.094,0.069,0.019,0.28l0,0c0.118-0.066,0.238-0.133,0.256-0.012
				c-0.049,0.107-0.25,0.319-0.282,0.391c0.226-0.219,0.276,0.077,0.52-0.14c-0.074,0.068-0.138,0.146-0.19,0.232l0.181-0.169
				c0,0.094-0.016,0.128-0.111,0.241c0.108,0.125,0.222-0.389,0.265-0.125c-0.024,0.007-0.038,0.04-0.086,0.05
				c0.1,0.186,0.392,0.091,0.47,0.282c-0.158,0.3-0.177-0.018-0.3,0.243c0.251,0.083,0.682-0.036,0.833,0.173l-0.016-0.054
				c0.3-0.329,0.013,0.28,0.24,0.189c-0.044,0.007-0.181,0.165-0.144,0.132c0.094,0.151,0.346,0.112,0.632,0.167l-0.091,0.062
				c0.021,0.128,0.18,0.19,0.238,0.287c0.09-0.057,0.129-0.01,0.19-0.14c-0.083,0.6,0.669,0.19,0.622,0.687
				c-0.028-0.021-0.115,0.005-0.092,0.021l0.25,0.094c0.076-0.114,0.03-0.081,0.062-0.194c0.068-0.042,0.155-0.042,0.223,0
				c-0.147-0.009-0.148,0.161-0.158,0.244c0.021-0.036,0.065-0.058,0.09-0.091c-0.058,0.255,0.2-0.179,0.226,0.053l-0.053,0.042
				c0.077,0.016,0.178,0,0.217,0.063c-0.077,0.123-0.1,0-0.182,0.081c0.082,0.059,0.329-0.053,0.3,0.11
				c-0.057,0-0.1-0.045-0.16-0.046c-0.041,0.184,0,0.16,0.036,0.227v-0.008l0.081,0.16v-0.057c0.329-0.149,0.235,0.128,0.5,0.1
				c-0.256,0.016-0.1,0.058-0.2,0.138c0.007,0.054,0.028,0.124-0.013,0.137c0.135-0.019,0.049,0.136,0.241,0.11
				c-0.024,0.029,0.065,0.057-0.018,0.108c0.1,0.046,0.029-0.059,0.07-0.084c0.206,0.032,0.168,0.349,0.446,0.413
				c0.184,0.107,0.275,0.082,0.424,0.2c0.012,0.069-0.1,0.01-0.1,0.01c0.04,0.084,0.104,0.153,0.184,0.2
				c-0.028,0-0.022,0.017-0.022,0.052c0.052,0.057,0.083,0,0.123,0.1c-0.034-0.002-0.068-0.009-0.1-0.021
				c0.076,0.056,0.147,0.116,0.215,0.181c0,0.032-0.063-0.025-0.1-0.041c0.07,0.078,0.148,0.149,0.231,0.213l-0.032-0.061
				c0.024,0.032-0.008,0.029-0.03,0.009c-0.077-0.058-0.072-0.108-0.062-0.12l0.045,0.05c0.022-0.1-0.16-0.217-0.24-0.322h0.093
				c-0.042-0.03-0.087-0.055-0.134-0.074c0-0.034,0.025-0.079,0.077-0.034c-0.025-0.1-0.079-0.049-0.091-0.144
				c0-0.012,0.008-0.012,0.016-0.008L35.95-9.044c0.028,0,0.046-0.055,0.069,0c-0.052-0.177-0.227-0.17-0.2-0.276l0.013,0.008
				c-0.173-0.165-0.079,0.034-0.276-0.032l0.11-0.248l-0.09,0.046c-0.013-0.021-0.037-0.065,0-0.086
				c-0.108-0.025-0.024,0.042-0.108,0.045c0.005-0.161-0.243-0.214-0.124-0.358c-0.1,0.032,0.024,0.13-0.108,0.082
				c0.129-0.17-0.127-0.081-0.128-0.226c0.107-0.055,0.129,0.065,0.134-0.088c-0.187,0.088-0.107-0.187-0.193-0.234
				c-0.124,0.115-0.182-0.1-0.327-0.17c0.048-0.033-0.117-0.292-0.168-0.446l0.027-0.021c-0.158,0.128-0.238,0-0.343-0.043
				c0.09-0.092,0.138-0.116,0.216-0.116l-0.07-0.073c-0.052,0.034-0.117,0.038-0.173,0.012l0.129-0.1
				c-0.1-0.095-0.322-0.046-0.365-0.259c-0.119,0.123-0.206,0.44-0.416,0.407c0.055-0.073,0.153-0.2,0.213-0.191
				c-0.019,0-0.091,0.02-0.087-0.031l0.153-0.066c-0.01-0.106-0.114,0.069-0.15,0.014c0.088-0.1,0.029-0.1,0.1-0.176
				c0.02,0,0,0.079,0.054,0.057c-0.041-0.091-0.041-0.196,0-0.287c-0.046,0.063-0.119,0.139-0.167,0.115
				c-0.1-0.087,0.074-0.157,0.066-0.268c-0.084,0.049-0.082-0.088-0.219,0.073c-0.029-0.028,0.029-0.108,0.055-0.162
				c-0.111,0.024-0.255-0.2-0.346,0.033v0.022h-0.015c-0.312,0.026-0.273-0.408-0.5-0.48l0.05-0.062
				c-0.157-0.017-0.259-0.156-0.441-0.075c-0.029-0.026,0.023-0.181,0.1-0.25c-0.119-0.016-0.186,0.056-0.215-0.15
				c0.17-0.054,0.053-0.129,0.148-0.02c-0.058-0.144,0-0.277-0.251-0.178c0.173-0.148,0.095-0.294,0.005-0.281l-0.027,0.191
				c-0.065-0.022-0.118-0.069-0.148-0.131l0.207-0.222c0.014-0.489-0.76,0.2-0.544-0.454c-0.186,0.135,0.022,0.225-0.179,0.394
				c-0.073-0.114,0.095-0.576,0.064-0.6c-0.029-0.26-0.4,0.289-0.474,0.077c-0.05,0.112-0.214,0.383-0.387,0.4
				c-0.077-0.108,0.165-0.506,0.282-0.537c0.03,0.011,0.02,0.052,0,0.083c0.057-0.01,0.128-0.019,0.164-0.157l-0.082,0.088
				c0.021-0.138-0.124-0.236,0.022-0.375c-0.141,0.036-0.146,0.14-0.125,0.234c-0.028-0.244-0.2-0.16-0.261-0.362
				c-0.017,0.073-0.08,0.207-0.1,0.19c-0.107-0.277-0.219,0.131-0.383,0.078c0.033-0.215,0.285-0.36,0.062-0.327
				c-0.008-0.172,0.172-0.294,0.261-0.354c-0.259,0.109-0.137-0.308-0.181-0.4l0.121-0.038c-0.046,0.019-0.099,0.007-0.133-0.029
				l-0.107,0.244c-0.013-0.066-0.045-0.091,0.016-0.181c-0.133,0.114-0.209,0.383-0.416,0.521c0.022-0.148-0.234,0.009-0.059-0.3
				c0.094,0.215,0.175-0.308,0.34-0.253c-0.049,0.016-0.079-0.009-0.091-0.078c0.013-0.029,0.036-0.052,0.066-0.065
				c0.021-0.379-0.286,0.279-0.441,0.156c0.129-0.152,0.17-0.345,0.122-0.329c0.061,0.052-0.152,0.3-0.293,0.39
				c-0.017-0.2-0.174,0.018-0.218-0.036l0.021,0.107c-0.131,0.155-0.168,0.1-0.273,0.1c0.079-0.137,0.124-0.046,0.136-0.123
				c-0.273,0.248,0.022-0.441-0.219-0.312c0.022-0.153,0.2-0.33,0.207-0.442c-0.268,0.141,0.017-0.334-0.232-0.239
				c-0.112,0.265-0.069,0.21-0.308,0.38l0.322-0.02l-0.356,0.25c0.063,0.048,0.232-0.055,0.245,0.011
				c-0.187,0.148-0.144,0.094-0.236,0.31c0.135-0.413-0.308,0.091-0.26-0.217l0.374-0.591c0.01-0.374-0.466,0.117-0.575-0.168v0.149
				c-0.176,0.222-0.145-0.05-0.271,0c0.087-0.138,0.149-0.289,0.185-0.448c-0.09,0.153-0.141-0.114-0.409,0.288l0.073-0.331
				c-0.1-0.22-0.545,0.472-0.663,0.3c0.185-0.2,0.2-0.394,0.405-0.489c-0.052-0.036-0.076-0.106-0.164,0.041
				c0.047-0.153-0.318,0.19-0.247-0.041c-0.078,0.079-0.218,0.3-0.267,0.241c0.017-0.035,0.038-0.069,0.062-0.1
				c-0.062,0.1-0.178,0.084-0.265,0.353c0.23-0.77-0.49-0.227-0.3-0.893c-0.155,0.007-0.31-0.012-0.458-0.059
				c0.043-0.062,0.062-0.11,0.07-0.075c-0.031-0.293-0.452,0.58-0.489,0.252c0.116-0.408,0.2-0.141,0.222-0.307
				c0.372-0.755-0.222,0,0-0.433l0.041-0.033c0.149-0.243-0.293,0.2-0.345,0.1l0.1-0.091c-0.243,0.199-0.548,0.308-0.863,0.306
				c0.182-0.077,0.353-0.178,0.508-0.3c-0.084,0.007-0.489,0.339-0.685,0.338c0.179-0.182,0.386-0.334,0.614-0.449l0.082,0.022
				c0.442-0.28-0.087-0.029-0.041-0.1l0.226-0.1c-0.137,0-0.749,0.24-0.836,0.152l-0.181,0.074c-0.734,0.17,0.309-0.152-0.264-0.04
				l0.677-0.207c-0.367,0.056-0.738,0.078-1.109,0.067c0.647-0.078,1.015-0.1,1.369-0.161c-0.025-0.017-0.15-0.037-0.561,0.025
				c0.092-0.005,0.3-0.036,0.194,0c-0.375,0.098-0.766,0.114-1.147,0.047c1.666-0.219,0.157-0.186,1.541-0.317
				c-0.117,0-0.165-0.007-0.169-0.017c-0.015-0.046,0.588-0.086,0.557-0.115c-1.2-0.043-0.008-0.018-1.187-0.1
				c-0.032-0.031,0-0.04,0.081-0.034c0.267-0.005,0.52-0.001,0.759,0.012c0.325,0.034,0.213,0.046,0.458,0.075
				c0.249,0.016,0.497,0.046,0.743,0.092c-0.37-0.057-0.515-0.094-0.368-0.076c-0.154-0.028-0.317-0.05-0.483-0.069
				c-0.453-0.164,0.85,0.149,0.383,0l0.277,0.091c-0.15-0.065,0.009,0-0.565-0.335c0.119,0.051,0.235,0.111,0.346,0.178
				c0.127,0.017-0.473-0.457-0.008-0.375l0.116,0.157c0-0.083-0.178-0.334,0-0.247c0.053,0.06,0.116,0.155,0.143,0.143
				c-0.024-0.07-0.127-0.35,0-0.326l0.106,0.2c0.388-0.05-0.049-0.705,0.022-0.965c0.2,0.25,0.526,0.36,0.836,0.283l0.055,0.055
				c0.267-0.24,0.02-0.772,0.048-1.151c0.583,0.21,0.593-0.383,1.007-0.467c-0.146-0.066-0.265-0.179-0.337-0.322
				c0.125,0-0.183-0.376,0.2-0.094l-0.022,0.017c0.411,0.221,0.391,0.017,0.463-0.076l-0.5-0.362
				c0.907,0.231,0.145-0.855,0.873-0.587c-0.09-0.144-0.046-0.223-0.135-0.363l0.264,0.165c0.16-0.111,0.267-0.285,0.294-0.478
				l0.164,0.154c0.08-0.121-0.669-0.6-0.625-0.717l0.4,0.184c0.1-0.224,0.531-0.276,0.285-0.684c0.054,0.033,0.158,0.1,0.158,0.143
				c0.057-0.1,0.424-0.289-0.1-0.51c0.327,0.167,0.135-0.217,0.044-0.408l0.23,0.139c-0.263-0.256-0.342-0.3-0.366-0.48
				c0.045-0.019,0.2,0.062,0.122,0.078c0.168-0.054-0.184-0.2,0-0.271l0.127,0.121c0.065-0.107-0.019-0.136-0.161-0.28
				c-0.06-0.115,0.149-0.19,0.356-0.114c-0.117-0.074-0.255-0.213-0.167-0.254c0.054,0.019,0.1,0.054,0.133,0.1
				c0.223-0.127-0.132-0.4,0.127-0.44c0.042,0.021,0.088,0.032,0.135,0.034c-0.057,0.156-0.124,0.273-0.133,0.255
				c0.2,0.093,0.281-0.021,0.521,0.207c-0.116-0.174-0.379-0.494-0.246-0.577c0.025,0.003,0.049,0.007,0.073,0.013l0.017,0.023
				c0.028-0.021,0.019-0.054-0.005-0.093c0.043-0.027,0.075-0.042,0.09-0.079c0.161,0.052,0.129-0.113,0.157-0.175
				c-0.2-0.08-0.144-0.15-0.337-0.142c0.019,0,0.02,0.021,0.014,0.067c0,0.012,0,0.025,0.012,0.036l-0.017-0.012l-0.04,0.164
				c-0.089-0.1-0.157-0.185-0.019-0.206l-0.294-0.226c0.314,0.036,0.518-0.07,0.69-0.025c-0.045-0.239,0.065-0.494-0.239-0.751
				c-0.025-0.071,0.117-0.024,0.177-0.024c0.024,0.045,0.008,0.082,0.05,0.117c-0.053-0.145,0.063-0.342-0.153-0.456
				c0.144-0.1,0.182,0.158,0.2-0.048l0.06,0.053c0.426-0.261-0.334-0.8,0.182-1.073c-0.032,0.021-0.046,0.032-0.078,0.028
				c0.279-0.427,0.156-1.017,0.448-1.431c0.061-0.127-0.01-0.164-0.041-0.261h0.091l-0.063-0.169
				c-0.007-0.213,0.243-0.3,0.181-0.582l-0.041,0.022c0.022-0.09,0.04-0.292,0.067-0.269c-0.013-0.021-0.013-0.048,0-0.069h0.02
				l0.014-0.231c0.037-0.172,0.046,0.04,0.07-0.219c0.001-0.08,0.007-0.159,0.017-0.238c-0.007,0.037-0.021,0.1-0.021,0.1
				l0.017-0.086c0-0.017,0.037-0.076-0.061,0.12l-0.053,0.14l-0.032,0.041l0.054-0.115c-0.032,0.047-0.054,0.1-0.066,0.155
				c-0.018,0.015-0.033,0.033-0.045,0.053c-0.011,0.047-0.02,0.096-0.025,0.144c-0.026,0.012-0.005-0.069-0.062,0.017
				c-0.008,0.069,0.072-0.049,0.04,0.059c-0.053,0.059-0.069,0.034-0.081,0.118c-0.021,0.007-0.025-0.013-0.016-0.045
				c-0.014,0.073-0.083,0.181-0.058,0.227c-0.078,0.055-0.093,0.234-0.179,0.2c0.014,0.066,0.012,0.135-0.005,0.2
				c-0.071-0.15-0.115,0.231-0.25,0.156c0.086,0.122-0.1,0.316-0.091,0.489c-0.009-0.013-0.027-0.037-0.01-0.047
				c-0.055,0.079-0.118,0.087-0.178,0.129c0.131,0.054,0.1,0.193,0.162,0.294c-0.194,0.054-0.146-0.12-0.3-0.132
				c0.12,0.033,0.028,0.214,0.152,0.214c-0.129,0.048-0.075,0.053-0.228,0.049c0.2,0.081,0,0.083,0.094,0.19
				c-0.16,0.075-0.214-0.04-0.213,0.1C29.859-30.772,29.841-30.905,29.841-30.905z M28.797-27.868h-0.005l0.019-0.065L28.797-27.868
				z M28.675-27.627c0.027-0.029,0.048-0.063,0.063-0.1c0.078,0.024,0.149,0.067,0.135,0.09c-0.043-0.034-0.113,0.005-0.202,0.011
				L28.675-27.627z M30.357-27.527c0.016,0.055-0.029,0.053-0.074,0.04c0.003-0.028,0.003-0.056,0-0.084l-0.024-0.016
				c0.035,0.019,0.068,0.041,0.099,0.065L30.357-27.527z"/>
			<path id="Path_30217" class="st4" d="M30.114-27.714c0-0.008-0.01-0.014-0.009-0.024l-0.054,0.005l0.058,0.042L30.114-27.714z"/>
			<path id="Path_30218" class="st4" d="M33.229-12.098v-0.008c-0.002,0.01-0.005,0.021-0.01,0.03L33.229-12.098z"/>
			<path id="Path_30219" class="st4" d="M26.261-24.781l0.067,0.042l-0.046-0.055L26.261-24.781z"/>
			<path id="Path_30220" class="st4" d="M33.958-10.634c-0.008,0.012-0.013,0.027-0.013,0.042
				C33.953-10.605,33.957-10.619,33.958-10.634z"/>
			<path id="Path_30221" class="st4" d="M34.429-10.195l0.033,0.094C34.455-10.134,34.444-10.165,34.429-10.195z"/>
			<path id="Path_30222" class="st4" d="M34.758-9.827l0.045-0.031l0,0L34.758-9.827z"/>
			<path id="Path_30223" class="st4" d="M28.048-13.935c-0.008-0.003-0.016-0.003-0.024,0
				C27.952-13.902,27.992-13.907,28.048-13.935z"/>
			<path id="Path_30224" class="st4" d="M30.443-13.295c-0.044,0.027-0.091,0.049-0.14,0.067
				C30.329-13.188,30.352-13.166,30.443-13.295z"/>
			<path id="Path_30225" class="st4" d="M25.552-14.844v-0.005l-0.014-0.008L25.552-14.844z"/>
			<path id="Path_30226" class="st4" d="M30.215-13.291c0,0.069,0.04,0.078,0.09,0.063C30.286-13.266,30.269-13.307,30.215-13.291z"
				/>
			<path id="Path_30227" class="st4" d="M36.28-8.313l0.015,0.019h0.006L36.28-8.313z"/>
			<path id="Path_30228" class="st4" d="M36.297-8.294l0.021,0.018C36.311-8.283,36.305-8.289,36.297-8.294z"/>
			<path id="Path_30229" class="st4" d="M36.365-8.236l-0.042-0.04C36.333-8.26,36.348-8.246,36.365-8.236z"/>
			<path id="Path_30230" class="st4" d="M35.853-8.813l-0.022,0.009C35.839-8.805,35.847-8.808,35.853-8.813z"/>
			<path id="Path_30231" class="st4" d="M35.705-8.948c0.029,0.037,0.046,0.115,0.107,0.151l0.02-0.007
				C35.78-8.804,35.77-8.941,35.705-8.948z"/>
			<path id="Path_30232" class="st4" d="M35.455-9.842l0.079,0.16c0.01-0.049,0.028-0.117,0.079-0.058
				C35.577-9.999,35.575-9.647,35.455-9.842z"/>
			<path id="Path_30233" class="st4" d="M35.159-10.293c0.076,0.055,0.05-0.049,0.074-0.065
				C35.163-10.374,35.146-10.375,35.159-10.293z"/>
			<path id="Path_30234" class="st4" d="M32.44-13.036l0.14-0.167C32.507-13.224,32.528-13.135,32.44-13.036z"/>
			<path id="Path_30235" class="st4" d="M31.152-12.531l-0.03,0.153l0.154-0.153H31.152z"/>
			<path id="Path_30236" class="st4" d="M31.814-14.164l0.044-0.007l-0.142-0.008L31.814-14.164z"/>
			<path id="Path_30237" class="st4" d="M26.49-17.892l-0.182,0.358C26.384-17.573,26.62-17.954,26.49-17.892z"/>
			<path id="Path_30238" class="st4" d="M24.617-18.497c0.242-0.1,0.391-0.165,0.1-0.1C24.708-18.567,24.534-18.482,24.617-18.497z"
				/>
			<path id="Path_30239" class="st4" d="M28.262-22.608l0.07,0.119l-0.026-0.152L28.262-22.608z"/>
		</g>
		<g id="Group_797" transform="translate(8.004 11.87)">
			<path id="Path_30240" class="st4" d="M148.833-17.072c0.062,0.03,0.028,0.012-0.148-0.066l-0.125-0.055L148.833-17.072z"/>
			<path id="Path_30241" class="st4" d="M147.653-17.608c-0.206-0.091-0.448-0.193-0.316-0.129l0.478,0.206l0.276,0.127l0.369,0.164
				l-0.82-0.37C147.575-17.639,147.638-17.613,147.653-17.608z"/>
			<path id="Path_30242" class="st4" d="M130.024-24.159l0.113,0.044L130.024-24.159z"/>
			<path id="Path_30243" class="st4" d="M118.708-27.013c0.088,0.016,0.127,0.013,0.133,0
				C118.758-27.018,118.691-27.026,118.708-27.013z"/>
			<path id="Path_30244" class="st4" d="M116.781-27.535l0.113,0.031C116.859-27.523,116.82-27.533,116.781-27.535z"/>
			<path id="Path_30245" class="st4" d="M130.024-24.159l-0.3-0.1C129.698-24.245,129.879-24.206,130.024-24.159z"/>
			<path id="Path_30246" class="st4" d="M145.276-18.649l0.156,0.066l-0.145-0.063L145.276-18.649z"/>
			<path id="Path_30247" class="st4" d="M134.954-22.69l0.09,0.031l0.081,0.008L134.954-22.69z"/>
			<path id="Path_30248" class="st4" d="M138.679-21.379c-0.051-0.019-0.107-0.024-0.16-0.012c0.065,0.009,0.128,0.024,0.19,0.045
				C138.702-21.36,138.692-21.371,138.679-21.379z"/>
			<path id="Path_30249" class="st4" d="M144.489-19.054l0.1,0.043L144.489-19.054z"/>
			<path id="Path_30250" class="st4" d="M132.257-23.535c-0.007-0.012-0.017-0.021-0.029-0.028
				C132.236-23.552,132.246-23.543,132.257-23.535z"/>
			<path id="Path_30251" class="st4" d="M22.82-29.023l-0.005-0.063C22.795-29.048,22.79-29.021,22.82-29.023z"/>
			<path id="Path_30252" class="st4" d="M18.115-30.371l0.061-0.027l-0.009-0.208L18.115-30.371z"/>
			<path id="Path_30253" class="st4" d="M113.225-28.384l0.016,0.005C113.337-28.372,113.283-28.38,113.225-28.384z"/>
			<path id="Path_30254" class="st4" d="M79.956-32.401c0.368,0.2-0.63,0.19-0.07,0.421C79.837-32.062,80.421-32.256,79.956-32.401z
				"/>
			<path id="Path_30255" class="st4" d="M145.184-18.692l-0.148-0.066L145.184-18.692z"/>
			<path id="Path_30256" class="st4" d="M79.887-31.98L79.887-31.98l0.058,0.023L79.887-31.98z"/>
			<path id="Path_30257" class="st4" d="M104.92-29.747c0.02,0.028,0.046,0.052,0.076,0.069
				C104.997-29.69,104.98-29.708,104.92-29.747z"/>
			<path id="Path_30258" class="st4" d="M111.076-28.554l-0.15-0.042C110.975-28.579,111.025-28.565,111.076-28.554z"/>
			<path id="Path_30259" class="st4" d="M101.675-30.024c-0.071-0.028-0.147-0.042-0.224-0.041l0.033,0.021
				C101.548-30.06,101.615-30.053,101.675-30.024z"/>
			<path id="Path_30260" class="st4" d="M98.319-30.468l0.058,0.037l0.107,0.006L98.319-30.468z"/>
			<path id="Path_30261" class="st4" d="M33.007-30.032c-0.073-0.085-0.132-0.181-0.173-0.285
				C32.9-30.086,32.41-29.97,33.007-30.032z"/>
			<path id="Path_30262" class="st4" d="M145.278-18.654l-0.094-0.037l0.1,0.045C145.296-18.643,145.299-18.643,145.278-18.654z"/>
			<path id="Path_30263" class="st4" d="M101.399-28.965l-0.53-0.079C101.02-29.015,101.212-28.986,101.399-28.965z"/>
			<path id="Path_30264" class="st4" d="M57.166-31.089l-0.123,0.033C57.087-31.048,57.132-31.06,57.166-31.089z"/>
			<path id="Path_30265" class="st4" d="M99.29-29.198c-0.089-0.059-0.186-0.103-0.288-0.132c-0.024,0.006-0.046,0.017-0.066,0.031
				L99.29-29.198z"/>
			<path id="Path_30267" class="st4" d="M29.366-29.265c0.508-0.03,0.21-0.454,0.3-0.718c0.6-0.17,0.3,0.306,0.523,0.516
				c0.371-0.147,0.636-0.573,0.92-0.576c0.026,0.07,0.083,0.092,0.024,0.188c0.379-0.379,1.188-0.108,1.631-0.569
				c0.03,0.028,0.053,0.062,0.067,0.1c-0.076-0.187-0.113-0.388-0.107-0.59c0.228-0.021,0.409-0.3,0.512-0.021
				c-0.141,0-0.147,0.115-0.207,0.207l0.232-0.137c0.239,0.392-0.318,0.16-0.3,0.461c0.458-0.162,0.985-0.53,1.349-0.437
				c0.1,0.388-0.829,0.185-0.333,0.506l-0.562-0.116c0.458,0.6-0.338-0.021,0.088,0.622c0.733,0.063,0.8-0.257,1.533-0.193
				c0.152-0.229-0.07-0.318,0.082-0.545c1.013-0.45,0.862,0.927,1.595,0.365c0.184-0.269,0.236-0.758,0.79-0.532l-0.164,0.443
				c0.706,0,0.374-0.644,1.126-0.4c-0.124,0.176-0.548,0.174-0.44,0.219c0.494,0.312,0.328-0.264,0.7-0.284l0.093,0.375
				c0.747-0.106,1.563-0.413,2.394-0.52c-0.042,0.112-0.179,0.235,0.02,0.338c1.083-0.171,2.188-0.137,3.258,0.1l0.377-0.326
				c0.09,0,0.17,0.133,0.075,0.2c0.4,0.1,0.015-0.2,0.2-0.326c0.223-0.029,0.3,0.165,0.162,0.264
				c0.842-0.406,1.794-0.523,2.71-0.335l-0.141,0.093c0.574,0.1,0.631-0.633,1.167-0.368l-0.1,0.055
				c1.244,0.094,2.612-0.222,3.563,0.2c0.176-0.416,1.23,0.156,1.3-0.415c0.466,0.269,0.978,0.451,1.509,0.537
				c0.267,0.019,0.395-0.359,0.723-0.422l0.01,0.291l0.445-0.312l0.24,0.342l0.309-0.076c-0.124-0.016-0.263-0.127-0.244-0.21
				c0.427-0.096,0.874,0.029,1.19,0.333l1.142-0.251c-0.026,0.112-0.217,0.153-0.368,0.228c0.61-0.294,0.111,0.295,0.669,0.024
				c-0.075-0.062,0.041-0.167,0.053-0.223c0.444,0.154,0.922,0.183,1.381,0.083l-0.091,0.192c0.846,0.037,1.786-0.1,2.737-0.1
				c-0.341-0.086-0.259-0.406,0.021-0.436l0.108,0.282c0.182-0.174-0.291-0.108,0.082-0.319c0.355,0.034,0.235,0.319,0.03,0.412
				l0.433-0.1c0.024,0.084-0.078,0.128-0.106,0.235c0.18-0.173,0.741,0.279,1-0.022l0.023,0.083c0.95,0,1.382-0.093,2.157-0.1
				c0.02-0.234,0.321-0.177,0.556-0.362c0.618,0.141,1.247,0.228,1.88,0.261c0.486-0.107,0.146-0.19,0.367-0.321
				c0.029,0.206,0.714,0.2,0.355,0.338c0.703-0.006,1.404-0.059,2.1-0.157c-0.11-0.084-0.237-0.124-0.168-0.19
				c0.19-0.026,0.427,0.1,0.4,0.191l-0.05,0.019c1.179-0.255,2.672,0.64,3.619,0.261l-0.053,0.019l0.973-0.167
				c0.442,0.052-0.273,0.129,0.05,0.259c1.055-0.267,1.64,0.111,2.506-0.057c0.634,0.553,2.355,0.058,3.228,0.446l-0.045-0.123
				c0.239-0.1,0.276,0.083,0.444,0.12c-0.019-0.094-0.243-0.122-0.1-0.177c2.019,0.077,4.03,0.289,6.021,0.635
				c0.73,0.079,0.463-0.524,1.365-0.2l-0.28,0.177c1.5-0.136,3.023,0.234,4.488,0.185c-0.091,0.034-0.1,0.088-0.24,0.075
				c0.369,0.137,0.776,0.137,1.145,0c0.224,0.033,0.042,0.1,0.176,0.167c0.3,0.1,0.787-0.094,0.935,0.048
				c0.026,0.024-0.09,0.034-0.148,0.04c0.208-0.045,0.93,0.1,0.754-0.063c0.536,0.114,1.044,0.046,1.467,0.177
				c0.3-0.125,0.918,0.18,1.034-0.03c-0.066,0.223,0.927,0.288,1.283,0.223c-0.124,0.054,0.288,0.1,0.143,0.18
				c0.391,0.04,0.754,0.038,0.7-0.079c0.687,0.334,1.475-0.04,1.834,0.342c1.174,0.042,2.255,0.117,3.3,0.216
				c-0.067,0.188-1.155-0.138-1.141,0.074c0.859-0.018,1.717,0.031,2.568,0.147c0.25,0.059-0.157,0.061-0.247,0.081
				c1,0.066,1.9,0.315,2.791,0.356c-0.063,0.019-0.129,0.025-0.194,0.017c0.174,0.022,0.4,0.09,0.391,0.008l-0.172-0.005
				c-0.256-0.161,0.726-0.125,0.767-0.178c-0.332,0.173,0.854,0.2,0.341,0.4c0.116,0,0.265-0.009,0.248-0.063
				c0.166,0.042,0.214,0.079,0.033,0.11c0.327-0.007,0.654,0.005,0.98,0.037c-0.008,0.036-0.124,0.03-0.19,0.063
				c0.354-0.044,0.714-0.021,1.06,0.069c-0.032,0.016,0.017,0.054-0.123,0.027c0.768,0.066,1.531,0.173,2.287,0.322
				c-0.289,0.091,0.293,0.1,0.316,0.235l0.484,0.053l-0.179-0.094c0.417,0.081,0.8,0.066,1.155,0.174l-0.32-0.012l0.787,0.128
				l-0.434-0.129c0.436,0.022-0.014-0.155,0.535-0.013c0.211,0.051,0.419,0.116,0.622,0.194l0,0
				c0.249,0.004,0.496,0.044,0.734,0.119c0.073,0.053-0.09,0.106-0.044,0.14c0.223-0.045,0.978,0.19,1.256,0.156
				c-0.09,0-0.107,0.055-0.081,0.074l0.186-0.033c0.186,0.066,0.213,0.082,0.172,0.119c0.576,0.141-0.154-0.172,0.52,0.038
				c-0.049,0.002-0.098,0-0.146-0.005c0.683,0.182,1.343,0.256,1.969,0.432c0.165,0.136-0.56-0.1-0.364,0.028
				c0.921,0.169,1.912,0.343,2.786,0.588l-0.161-0.052c0.152-0.088,0.637,0.228,1.1,0.287c-0.111-0.02-0.158,0.028-0.127,0.022
				c0.6,0.172,1.237,0.284,2.157,0.487h-0.12l1.3,0.394c0.12,0.008,0.335,0.077,0.214,0c1.129,0.479,2.25,0.594,3.254,1
				c-0.124-0.037-0.3-0.069-0.2-0.04l0.888,0.243c-0.058-0.057-0.11-0.054-0.287-0.137c0.2,0.031,0.396,0.083,0.586,0.153
				c-0.4-0.114-0.013,0.053,0.151,0.127c-0.025-0.018,0.037-0.009,0.025-0.024c0.437,0.21,0.1-0.037,0.706,0.214h-0.038
				c0.237,0.071,0.457,0.125,0.707,0.216c0.092,0.067-0.254-0.07-0.279-0.049c0.354,0.118,0.717,0.178,1.024,0.318l-0.52-0.158
				c0.206,0.098,0.418,0.182,0.634,0.253l-0.025-0.011l0.593,0.218l-0.149-0.061c0.468,0.075,0.9,0.292,1.513,0.45
				c-0.592-0.157-0.1-0.009-0.158,0c0.149,0.06,0.376,0.148,0.308,0.134c0.285,0.084,0.457,0.194,0.858,0.314
				c0.015,0.015,0.3,0.115,0.226,0.111c0.362,0.132-0.079-0.046-0.046-0.045c0.564,0.191,1.292,0.532,2.1,0.811l1.466,0.532
				c0.211,0.094-0.182-0.053-0.182-0.053l0.92,0.4c-0.066-0.027,0,0.007,0.095,0.054c0.259,0.115,0.178,0.065,0.515,0.222
				l-0.263-0.1l0.922,0.4c0.082,0.041-0.191-0.078-0.3-0.124l1.027,0.448l-0.226-0.1c0.129,0.058,0.064,0.034-0.031-0.007
				c-0.3-0.131-0.436-0.2-0.451-0.207l0.224,0.1c-0.223-0.118-0.9-0.4-1.348-0.6l0.194,0.07l-0.468-0.2
				c-0.1-0.048-0.158-0.088,0.063,0.011l-0.56-0.259c-0.029-0.016-0.016-0.01,0.013,0c-0.1-0.049-0.214-0.086-0.321-0.127
				c0.065,0.02-0.048-0.036,0.148,0.046c-0.57-0.243-0.936-0.355-1.145-0.458l0.048,0.017c-0.226-0.091-0.457-0.168-0.693-0.229
				l-0.384-0.209l-0.086-0.01c-0.083-0.034-0.245-0.1-0.211-0.1c-0.313-0.107,0.049,0.03-0.136-0.026
				c-0.388-0.178-1.1-0.423-1.173-0.5c-0.15-0.037,0.374,0.165-0.055,0.01c-0.276-0.132-0.56-0.248-0.85-0.346
				c0.124,0.009,0.461,0.165,0.107,0c-0.349-0.103-0.692-0.224-1.028-0.363c-0.409-0.109-0.812-0.239-1.207-0.389
				c0.037,0-0.974-0.366-1.453-0.555h0.017c-0.333-0.068-0.659-0.164-0.976-0.285c0.025-0.026,0.094-0.016,0.3,0.041l-0.342-0.121
				c-0.144-0.025-0.286-0.058-0.425-0.1l0.1-0.013c-0.462-0.141-0.945-0.238-1.53-0.449c-0.046,0.032,0.438,0.255-0.2,0.094
				c-0.017-0.029-0.028-0.074,0.138-0.033c-0.102-0.021-0.202-0.048-0.3-0.083l0.263,0.04c-0.265-0.1-0.151-0.012-0.366-0.082
				c0.013-0.03-0.153-0.071-0.115-0.088c0.089,0.033,0.18,0.061,0.272,0.084c-0.213-0.066-0.421-0.149-0.622-0.247
				c0.016,0.026-0.013,0.045-0.193-0.005c-0.463-0.139-0.146-0.09-0.41-0.19c-0.119-0.01-0.405-0.128-0.429-0.076
				c-0.073-0.021-0.142-0.057-0.2-0.106c-0.246-0.05-1.118-0.338-0.866-0.2l0.061,0.022l-0.041-0.009l0,0
				c-0.8-0.168-1.633-0.477-2.426-0.666l0.007-0.021c-0.475-0.1-1.047-0.266-1.394-0.3c-0.139-0.037-0.317-0.129-0.251-0.141
				c-0.313-0.051-0.62-0.131-0.917-0.24c0.371,0.054-0.115-0.071,0.376,0.069c-0.344-0.141-0.706-0.232-1.075-0.271
				c0.186-0.022-0.334-0.164-0.562-0.2l0.318,0.124c-0.253-0.05-0.471-0.107-0.693-0.165l0.141-0.058
				c-0.935-0.341-1.776-0.226-2.464-0.587c-0.269,0.007,0.511,0.17,0.267,0.193c-0.343-0.116-0.68-0.249-1.009-0.4
				c-0.594-0.2-0.593,0-1.223-0.167c0.074,0.054,0.131,0.165-0.354,0.1c-0.442-0.1-0.515-0.265-0.227-0.238
				c0.107,0.02,0.156,0.042,0.149,0.053c0.146,0.017,0.338,0.041,0.17-0.036l-0.066,0.025c-0.212-0.083-0.825-0.207-0.669-0.239
				c-0.343-0.034-0.156,0.031,0.089,0.1c-0.56-0.173-0.891-0.188-1.471-0.347c0.089,0.041,0.165,0.1,0.073,0.084
				c-0.852-0.227-0.393,0-0.981-0.106c-0.321-0.129,0.146-0.121-0.451-0.191c-0.351-0.116-0.055-0.124,0.094-0.127
				c-0.444-0.061-0.878-0.176-1.294-0.343l0.288,0.025c-0.172-0.017-0.31-0.045-0.452-0.07l0.145,0.115
				c-0.164-0.046-0.3-0.073-0.294-0.107c-0.182,0.024,0.106,0.165-0.25,0.179c-0.214-0.083-0.684-0.073-0.739-0.2
				c0.69,0.165-0.057-0.131,0.537-0.041c-0.142-0.011-0.283-0.038-0.42-0.079c-0.022-0.017,0.028-0.02,0.075-0.019
				c-0.65-0.227-0.331,0.075-1.023-0.053c0.1-0.051-0.137-0.157-0.253-0.164c0.279,0.053,0.114,0.136-0.151,0.141
				c-0.235-0.063-0.477-0.096-0.721-0.1l0.261,0.073c-0.212,0.031-0.427,0.021-0.635-0.029c-0.019-0.058,0.287,0.013,0.181-0.031
				c-0.365,0.062-0.757-0.267-1.249-0.269c-0.214-0.088,0-0.139-0.189-0.207c-0.552-0.007-0.566-0.2-1.146-0.217
				c0.148,0.127,0.181,0.106-0.234,0.14l0.943,0.076l-0.621,0.05c0.28,0.045,0.6,0.028,0.768,0.076
				c-0.3,0.029-0.264,0.012-0.143,0.115c-0.36-0.208-0.776-0.03-1.205-0.2l0.053-0.247c-0.652-0.219-1.208-0.057-2.066-0.256
				l0.272,0.089c-0.132,0.086-0.539-0.069-0.825-0.069c0.038-0.084-0.133-0.144-0.246-0.219c0.005,0.069-0.634-0.107-0.738,0.062
				l-0.371-0.18c-0.695-0.16-0.837,0.152-1.509,0.03c0.218-0.076-0.08-0.183,0.382-0.2c-0.226-0.032-0.426-0.076-0.438-0.012
				c-0.124-0.077-0.643,0.045-0.838-0.073c-0.1,0.029-0.145,0.127-0.4,0.086c-0.025-0.024,0.008-0.048,0.008-0.048
				c-0.008,0.048-0.405,0.013-0.2,0.149c-0.657-0.395-1.946-0.226-2.519-0.574l-1.545-0.1c0.032-0.028,0.007-0.052,0.09-0.032
				c-0.607-0.168-0.413,0.261-1.1,0.076c-0.342-0.213,0.383-0.053,0.166-0.142c-0.061-0.365-0.854-0.046-1.307-0.308l0.117-0.009
				c-0.35-0.164-0.9,0.038-1.487-0.053c0,0,0.033-0.031,0.009-0.055c-0.582,0.116-1.176,0.162-1.769,0.136
				c0.19-0.133,0.265-0.055,0.172-0.217c-0.258,0,0.053,0.248-0.461,0.247c-0.158-0.1-0.52-0.2-0.554-0.371l0.482,0.036
				c-0.227-0.234-0.623-0.052-0.874-0.111l0.041-0.091c-0.741-0.04-0.771,0.2-1.562,0.108l0.077,0.081
				c-0.453,0.2-0.353-0.168-0.8-0.028l-0.111-0.257c-0.291,0.029-1.02,0.146-1.537,0.162c0.417-0.149,0.851-0.245,1.292-0.286
				c-0.373-0.061-0.755-0.045-1.122,0.048c0.121-0.038,0.25-0.044,0.375-0.019c-0.44,0.182-0.92,0.247-1.393,0.19
				c0.136-0.489-1.463-0.234-1.847-0.66c-1.055-0.026-2.107-0.12-3.149-0.283c0.391,0.441-0.341-0.01-0.293,0.423
				c-0.273,0.01-0.376,0-0.4-0.032l-0.809-0.307c-0.189-0.14,0.263-0.081,0.243-0.18c-0.593-0.071-0.239-0.2-0.627-0.343
				c0.073,0.162-0.219,0.211-0.556,0.128l0.469,0.234c-0.844,0.183-0.7-0.417-1.552-0.239l0.272-0.123
				c-0.434,0.049-1.588-0.1-2.025,0.247c-0.075-0.057-0.17-0.187,0.021-0.211c-1.027-0.111-2.305,0.286-3.1,0.015l0.082-0.114
				c-0.194,0.025-0.342,0.2-0.578,0.074c0.013-0.048,0.081-0.114-0.008-0.124c-0.244,0.097-0.508,0.132-0.768,0.1l0.222-0.125
				c-1-0.2-1.552,0.271-2.4,0.329c0.012-0.358-0.775-0.5-1.168-0.58l0.015-0.05c-1.037,0.004-2.069,0.125-3.079,0.361
				c-0.667-0.427-2.275-0.225-3.354-0.489c0.164,0.075-0.029,0.3-0.222,0.343c-0.253-0.083-0.7,0.268-0.66-0.095l0.09,0.008
				c-0.189-0.359-0.712-0.272-1.118-0.288l-0.069,0.481c-1.064-0.716-2.787,0.231-3.371-0.408c-0.256,0.124-0.574,0.123-0.828,0.248
				l0.011-0.269c-0.646-0.084-1.3-0.099-1.949-0.044l0.178-0.2c-0.5-0.021-0.618,0.793-1.074,0.812l-0.144-0.415
				c-0.865,0.011-1.749-0.35-2.6,0.041c0.004-0.1,0.078-0.183,0.176-0.2c-0.408-0.007-1.584-0.28-1.423,0.312
				c-0.019-0.384-0.894-0.034-1.357,0.153L46.9-33.23c-0.385,0.375-0.395,0.477-0.943,0.593c-0.132-0.034-0.121-0.23,0.054-0.16
				c-0.438-0.143-0.33,0.284-0.862,0.141l0.19-0.191c-0.448-0.013-0.409,0.087-0.648,0.312c-0.277,0.125-0.85-0.053-0.926-0.321
				c-0.084,0.228-0.319,0.363-0.558,0.32c-0.04-0.1,0.054-0.166,0.1-0.2c-0.755-0.186-1.1,0.383-1.625,0.1
				c-0.003-0.07-0.038-0.135-0.094-0.177c0.343-0.022,0.688-0.018,1.03,0.013c-0.01-0.275-0.493-0.312-0.123-0.7
				c-0.379,0.217-1.021,0.692-1.495,0.576c-0.027-0.028-0.049-0.06-0.066-0.095l0.048-0.033c-0.101-0.02-0.206-0.001-0.294,0.053
				c-0.126-0.043-0.258-0.068-0.391-0.073c-0.064-0.232-0.557-0.112-0.8-0.116c0.033,0.31-0.284,0.27,0.021,0.516
				c-0.038-0.02,0.044-0.038,0.2-0.055c0.035-0.006,0.069-0.018,0.1-0.036l-0.016,0.028l0.594-0.038
				c-0.182,0.162-0.374,0.3-0.646,0.137c-0.115,0.2-0.241,0.413-0.313,0.512c-0.346-0.424-0.988-0.632-1.088-0.9
				c-0.723,0.2-1.719,0.179-2.148,0.8c-0.2,0.087-0.247-0.162-0.329-0.254c0.116-0.064,0.259-0.062,0.32-0.15
				c-0.408,0.169-1.228,0.11-1.3,0.541c-0.533-0.166,0.273-0.405-0.442-0.3l0.091-0.135c-1.456-0.623-2.237,1.211-3.856,0.413
				c0.112,0.049,0.168,0.071,0.2,0.144c-1.815-0.3-3.653,0.607-5.465,0.078c-0.511-0.1-0.543,0.2-0.83,0.446l-0.139-0.371
				l-0.487,0.475c-0.713,0.382-1.361-0.84-2.249-0.155l0.143,0.251c-0.341-0.022-1.052,0.244-1.023-0.061
				c-0.031,0.05-0.086,0.281-0.23,0.156l-0.029-0.2l-0.795,0.424c-0.655-0.09,0.024-0.823-0.919-0.781
				c-0.342,0.11-0.936,0.7-0.79,0.824c0.189-0.008,0.358,0.117,0.405,0.3l-0.306,0.141c0.009,0.617-0.161,1.27,0.647,1.609
				l0.5-0.432l0.2,0.276l-0.45,0.067c0.282,0.25,0.422-0.013,0.589-0.2c0.04,0.131,0.133,0.24,0.256,0.3l0.474-0.633
				c0.086,0.229-0.193,0.491,0.174,0.585c0.223-0.292-0.288-0.5,0.107-0.72c0.284,0.247,0.229,0.477,0.511,0.214
				c0.055,0.124,0.005,0.269-0.114,0.334c0.254-0.213,0.707-0.151,0.819-0.481c0.3,0.308,0.9-0.172,0.926,0.391
				c0.166-0.245,0.406-0.431,0.685-0.53c-0.4,0.708,0.932-0.047,0.869,0.676c0.288-0.626,1.191-0.374,1.76-0.754
				c-0.029,0.05-0.087,0.15-0.143,0.125c0.338,0.019,0.449,0.188,0.672,0.28c0.008-0.487,0.521-0.641,0.781-0.957
				c0.444,0.43-0.209,0.582-0.049,1.018c-0.047-0.388,0.687-0.448,0.524-0.758c0.334,0.26,0.28,0.116,0.469,0.5
				c0.014-0.6,0.285-0.125,0.521-0.511c0.474,0.258,0.154,0.545,0.642,0.327C29.796-29.509,29.366-29.265,29.366-29.265z
				 M41.205-30.999v0.007l-0.244,0.028L41.205-30.999z M42.205-31.051c-0.145-0.005-0.291-0.002-0.436,0.008
				c-0.038-0.1-0.005-0.214,0.1-0.212c-0.054,0.074,0.185,0.124,0.339,0.205L42.205-31.051z M39.997-33.096
				c0.157-0.049,0.213,0.01,0.238,0.074c-0.093,0.009-0.186,0.024-0.277,0.045l-0.017,0.038c0.009-0.055,0.029-0.109,0.059-0.156
				L39.997-33.096z"/>
			<path id="Path_30268" class="st4" d="M39.731-32.68c-0.021,0.011-0.043,0.02-0.066,0.025c0.032,0.024,0.065,0.046,0.1,0.066
				l0.052-0.1L39.731-32.68z"/>
			<path id="Path_30269" class="st4" d="M130.158-24.109l-0.02-0.007l0.04,0.02L130.158-24.109z"/>
			<path id="Path_30270" class="st4" d="M56.05-30.943v-0.067l-0.087,0.061L56.05-30.943z"/>
			<path id="Path_30271" class="st4" d="M135.4-22.338c0.02,0.014,0.043,0.025,0.066,0.033L135.4-22.338z"/>
			<path id="Path_30272" class="st4" d="M137.659-21.562l0.317,0.119L137.659-21.562z"/>
			<path id="Path_30273" class="st4" d="M139.394-20.963c0.013,0.002,0.025,0.002,0.038,0H139.394z"/>
			<path id="Path_30274" class="st4" d="M111.079-27.804l-0.07-0.007C110.837-27.816,110.953-27.807,111.079-27.804z"/>
			<path id="Path_30275" class="st4" d="M119.663-26.481l-0.281-0.016C119.533-26.459,119.65-26.435,119.663-26.481z"/>
			<path id="Path_30276" class="st4" d="M101.46-28.958L101.46-28.958l-0.059-0.006L101.46-28.958z"/>
			<path id="Path_30277" class="st4" d="M118.985-26.578c0.13,0.041,0.264,0.067,0.4,0.078
				C119.253-26.535,119.12-26.561,118.985-26.578z"/>
			<path id="Path_30278" class="st4" d="M146.773-17.985l0.081,0.037h0.011L146.773-17.985z"/>
			<path id="Path_30279" class="st4" d="M146.865-17.946l0.09,0.04L146.865-17.946z"/>
			<path id="Path_30280" class="st4" d="M147.144-17.823l-0.19-0.083L147.144-17.823z"/>
			<path id="Path_30281" class="st4" d="M144.553-18.974l-0.028-0.008C144.534-18.979,144.543-18.976,144.553-18.974z"/>
			<path id="Path_30282" class="st4" d="M143.866-19.249l0.636,0.261l0.022,0.005C144.419-19.028,144.028-19.195,143.866-19.249z"/>
			<path id="Path_30283" class="st4" d="M141.027-20.46l0.573,0.236c-0.1-0.048-0.224-0.112,0.037-0.008
				C140.923-20.548,141.78-20.154,141.027-20.46z"/>
			<path id="Path_30284" class="st4" d="M139.241-21.166c0.315,0.105,0-0.017,0.021-0.017
				C139.06-21.244,139.01-21.258,139.241-21.166z"/>
			<path id="Path_30285" class="st4" d="M125.984-25.283l0.048-0.051C125.782-25.397,126.024-25.317,125.984-25.283z"/>
			<path id="Path_30286" class="st4" d="M123.328-25.588l0.233,0.095l0.13-0.035L123.328-25.588z"/>
			<path id="Path_30287" class="st4" d="M121.913-26.431l0.111,0.016l-0.422-0.074L121.913-26.431z"/>
			<path id="Path_30288" class="st4" d="M98.928-30.516l0.058,0.172C99.166-30.351,99.222-30.526,98.928-30.516z"/>
			<path id="Path_30289" class="st4" d="M88.893-31.418c-0.153-0.134-0.366-0.178-0.56-0.116
				C88.517-31.483,88.704-31.444,88.893-31.418z"/>
			<path id="Path_30290" class="st4" d="M58.712-33.293l0.2-0.094l-0.383,0.075L58.712-33.293z"/>
		</g>
	</g>
</g>
</svg>
