<?xml version="1.0" encoding="utf-8"?>
<!-- Generator: Adobe Illustrator 24.0.1, SVG Export Plug-In . SVG Version: 6.00 Build 0)  -->
<svg version="1.1" id="圖層_1" xmlns="http://www.w3.org/2000/svg" xmlns:xlink="http://www.w3.org/1999/xlink" x="0px" y="0px"
	 viewBox="0 0 131 60" style="enable-background:new 0 0 131 60;" xml:space="preserve">
<style type="text/css">
	.st0{enable-background:new    ;}
	.st1{fill:#F58F8E;}
	.st2{fill:#707070;}
	.st3{fill:none;stroke:#707070;stroke-width:0.3;stroke-miterlimit:4.0005;}
	.st4{fill:#95918E;}
	.st5{fill:#FFFFFF;}
	.st6{fill:#A67C52;}
</style>
<g>
	<g class="st0">
		<path class="st1" d="M71.992,49.717c-3.359,0-6.23-1.992-8.613-5.977s-3.574-8.418-3.574-13.301c0-5.215,1.211-9.878,3.633-13.989
			s5.332-6.167,8.73-6.167c3.281,0,6.123,2.061,8.525,6.182s3.604,8.662,3.604,13.623c0,4.844-1.211,9.326-3.633,13.447
			S75.352,49.717,71.992,49.717z M78.057,34.336V24.258c0-8.359-1.963-12.539-5.889-12.539c-1.973,0-3.486,0.977-4.541,2.93
			s-1.582,5.361-1.582,10.225V36.27c0,8.008,2.021,12.012,6.064,12.012c1.953,0,3.433-1.04,4.438-3.12S78.057,39.473,78.057,34.336z
			"/>
		<path class="st1" d="M104.214,28.359v0.117c4.277,0.352,7.236,1.519,8.877,3.501s2.461,4.175,2.461,6.577
			c0,3.027-1.279,5.645-3.838,7.852c-2.56,2.207-5.636,3.311-9.229,3.311c-2.813,0-5.138-0.752-6.973-2.256
			c-1.836-1.504-2.754-3.154-2.754-4.951c0-1.016,0.282-1.87,0.85-2.563c0.566-0.693,1.278-1.04,2.139-1.04
			c0.801,0,1.475,0.298,2.021,0.894c0.546,0.596,0.82,1.313,0.82,2.153c0,1.328-0.527,2.256-1.582,2.783
			c-0.664,0.293-0.996,0.527-0.996,0.703c0,0.371,0.61,0.913,1.831,1.626c1.22,0.713,2.582,1.069,4.087,1.069
			c4.765,0,7.148-2.9,7.148-8.701c0-4.18-0.875-6.904-2.622-8.174c-1.748-1.27-3.658-1.904-5.728-1.904l-2.549,0.176
			c-0.938,0-1.406-0.313-1.406-0.938c0-0.605,0.399-0.908,1.201-0.908c0.253,0,0.874,0.049,1.86,0.146
			c0.985,0.098,1.489,0.146,1.509,0.146c0.604,0,1.489-0.322,2.651-0.967c1.161-0.645,2.021-1.499,2.578-2.563
			s0.835-2.749,0.835-5.054c0-3.066-0.425-5.112-1.274-6.138s-2.065-1.538-3.647-1.538c-1.446,0-2.677,0.288-3.691,0.864
			c-1.016,0.576-1.523,1.108-1.523,1.597c0,0.215,0.385,0.532,1.157,0.952c0.771,0.42,1.157,1.147,1.157,2.183
			c0,0.723-0.283,1.353-0.85,1.89c-0.567,0.537-1.201,0.806-1.904,0.806c-0.802,0-1.461-0.332-1.978-0.996
			c-0.518-0.664-0.776-1.436-0.776-2.314c0-1.602,0.85-3.071,2.549-4.409s3.886-2.007,6.563-2.007c2.988,0,5.488,0.845,7.5,2.534
			c2.011,1.689,3.018,3.745,3.018,6.167C113.706,23.594,110.542,26.719,104.214,28.359z"/>
	</g>
	<g class="st0">
		<path class="st2" d="M30.091,35.501c0.053-0.034,0.127-0.063,0.224-0.089c0.135-0.036,0.213-0.017,0.234,0.061
			c0.025,0.097-0.038,0.207-0.191,0.331c-1.007,0.727-1.989,1.461-2.95,2.205c-0.96,0.744-1.89,1.527-2.787,2.347
			c0.135,0.503,0.174,1.036,0.118,1.599c-0.056,0.564-0.179,1.13-0.368,1.699c-0.189,0.568-0.432,1.13-0.729,1.686
			c-0.296,0.556-0.617,1.077-0.963,1.563c-0.54,0.766-1.096,1.38-1.665,1.844c-0.569,0.462-1.076,0.754-1.521,0.874
			c-0.579,0.155-0.929,0.01-1.048-0.434c-0.078-0.289-0.016-0.716,0.187-1.276c0.201-0.562,0.577-1.28,1.131-2.151
			c0.321-0.501,0.64-0.955,0.956-1.36c0.315-0.406,0.559-0.714,0.729-0.925c0.409-0.483,0.845-0.966,1.304-1.453
			c0.46-0.485,0.926-0.967,1.398-1.446c-0.18-0.593-0.496-1.037-0.946-1.329c-0.452-0.293-0.969-0.502-1.551-0.626
			c-0.581-0.124-1.196-0.212-1.842-0.267c-0.646-0.055-1.254-0.14-1.824-0.257c-0.569-0.115-1.071-0.306-1.505-0.574
			c-0.435-0.267-0.729-0.69-0.885-1.27c-0.155-0.579-0.189-1.248-0.103-2.006c0.086-0.758,0.265-1.541,0.535-2.349
			c0.27-0.807,0.618-1.61,1.047-2.409c0.428-0.798,0.899-1.53,1.415-2.195c0.515-0.668,1.066-1.238,1.651-1.718
			c0.587-0.478,1.179-0.797,1.778-0.958c0.618-0.166,1.101-0.125,1.447,0.124c0.346,0.25,0.586,0.625,0.721,1.126
			c0.135,0.503,0.18,1.096,0.136,1.782c-0.044,0.685-0.155,1.387-0.335,2.108c-0.18,0.722-0.41,1.425-0.692,2.111
			c-0.281,0.687-0.581,1.29-0.897,1.81c-0.217,0.348-0.439,0.62-0.666,0.815c-0.228,0.196-0.419,0.314-0.573,0.355
			c-0.231,0.062-0.373-0.003-0.425-0.197c-0.052-0.192,0.023-0.451,0.227-0.775c0.345-0.568,0.698-1.222,1.059-1.961
			c0.361-0.739,0.674-1.486,0.937-2.239c0.265-0.753,0.46-1.475,0.587-2.161c0.126-0.686,0.127-1.261,0.003-1.725
			c-0.114-0.425-0.403-0.576-0.868-0.451c-0.582,0.156-1.156,0.454-1.724,0.897c-0.566,0.441-1.11,0.971-1.631,1.586
			s-0.987,1.295-1.401,2.037c-0.413,0.743-0.758,1.492-1.032,2.249c-0.275,0.757-0.457,1.495-0.545,2.212
			c-0.088,0.717-0.057,1.356,0.094,1.917c0.113,0.425,0.365,0.746,0.757,0.962c0.391,0.217,0.857,0.386,1.4,0.509
			c0.543,0.125,1.121,0.228,1.736,0.311c0.615,0.083,1.21,0.205,1.782,0.361c0.572,0.157,1.087,0.372,1.545,0.643
			c0.456,0.271,0.784,0.659,0.983,1.166c0.887-0.86,1.795-1.683,2.723-2.471C28.195,36.932,29.137,36.194,30.091,35.501z
			 M22.435,46.687c0.308-0.475,0.587-0.975,0.841-1.499c0.253-0.522,0.46-1.045,0.622-1.564c0.159-0.519,0.269-1.023,0.323-1.515
			c0.054-0.492,0.046-0.945-0.023-1.36c-0.922,0.888-1.811,1.821-2.668,2.796c-0.185,0.236-0.431,0.555-0.736,0.958
			c-0.307,0.403-0.612,0.843-0.92,1.319c-0.539,0.848-0.897,1.54-1.074,2.074c-0.178,0.534-0.23,0.937-0.158,1.208
			c0.093,0.348,0.362,0.462,0.806,0.343c0.387-0.104,0.854-0.389,1.401-0.857C21.394,48.121,21.924,47.487,22.435,46.687z"/>
		<path class="st2" d="M45.913,23.96c0.237-0.042,0.404-0.056,0.502-0.041c0.097,0.016,0.151,0.043,0.161,0.08
			c0.021,0.078-0.027,0.168-0.145,0.273c-0.117,0.104-0.244,0.173-0.379,0.209c-0.198,0.034-0.401,0.051-0.606,0.055
			c-0.206,0.003-0.406,0.03-0.6,0.082c-0.995,0.226-1.985,0.455-2.969,0.687c-0.983,0.233-1.968,0.48-2.952,0.745
			c-0.754,0.202-1.505,0.415-2.253,0.635c-0.748,0.223-1.484,0.45-2.209,0.685c-0.158,0.955-0.322,2.024-0.49,3.208
			c-0.17,1.185-0.309,2.366-0.417,3.545c-0.108,1.178-0.165,2.28-0.17,3.307c-0.004,1.026,0.076,1.848,0.242,2.466
			c0.072,0.27,0.192,0.523,0.358,0.758c0.167,0.235,0.414,0.309,0.743,0.221c0.405-0.109,0.862-0.491,1.37-1.145
			c0.509-0.653,1.007-1.397,1.498-2.233c0.49-0.835,0.945-1.667,1.366-2.495c0.42-0.826,0.742-1.477,0.967-1.952
			c0.047-0.137,0.117-0.219,0.214-0.245c0.097-0.026,0.158,0.011,0.185,0.107c0.021,0.077,0.005,0.174-0.046,0.292
			c-0.165,0.313-0.368,0.714-0.609,1.204c-0.241,0.489-0.512,1.006-0.811,1.553c-0.299,0.546-0.62,1.104-0.965,1.672
			c-0.345,0.569-0.692,1.087-1.044,1.553c-0.352,0.467-0.699,0.866-1.046,1.197c-0.346,0.331-0.674,0.538-0.982,0.621
			c-0.387,0.104-0.715,0-0.984-0.311c-0.27-0.312-0.487-0.776-0.653-1.394c-0.182-0.676-0.308-1.495-0.38-2.46
			c-0.072-0.963-0.1-1.972-0.08-3.022c0.018-1.05,0.071-2.105,0.16-3.165s0.204-2.022,0.345-2.888
			c-0.589,0.2-1.134,0.387-1.636,0.563c-0.502,0.176-0.993,0.369-1.475,0.582c-0.26,0.111-0.508,0.229-0.743,0.354
			c-0.236,0.125-0.483,0.244-0.744,0.354c-0.072,0.041-0.166,0.076-0.282,0.107c-0.231,0.062-0.357,0.055-0.379-0.023
			c-0.025-0.096,0.156-0.227,0.547-0.395c0.785-0.314,1.567-0.602,2.347-0.861c0.779-0.261,1.576-0.533,2.392-0.813
			c0.089-0.438,0.178-0.844,0.264-1.22c0.085-0.375,0.174-0.699,0.267-0.972c0.199-0.571,0.404-0.885,0.617-0.942
			c0.154-0.042,0.266,0.063,0.333,0.313c0.057,0.213,0.055,0.514-0.007,0.903l-0.243,1.524c1.326-0.458,2.637-0.882,3.931-1.271
			c1.294-0.388,2.606-0.761,3.94-1.119c0.579-0.155,1.163-0.312,1.753-0.47C44.704,24.222,45.304,24.083,45.913,23.96z"/>
		<path class="st2" d="M48.798,30.549c0.061-0.08,0.131-0.127,0.208-0.148c0.116-0.031,0.187,0.001,0.213,0.097
			c0.026,0.098-0.009,0.2-0.104,0.308c-0.286,0.325-0.65,0.723-1.094,1.193c-0.443,0.472-0.909,0.933-1.399,1.384
			c-0.489,0.454-0.986,0.86-1.489,1.223c-0.504,0.363-0.958,0.598-1.363,0.707c-0.329,0.088-0.618,0.052-0.868-0.109
			s-0.425-0.424-0.522-0.791c-0.099-0.367-0.131-0.793-0.095-1.28c0.035-0.485,0.116-0.957,0.241-1.415
			c0.125-0.458,0.294-0.855,0.504-1.192c0.21-0.334,0.45-0.539,0.721-0.612c0.193-0.052,0.371-0.026,0.533,0.075
			c0.161,0.102,0.271,0.258,0.328,0.471c0.109,0.406,0.043,0.838-0.196,1.295c-0.24,0.458-0.517,0.874-0.831,1.247
			c-0.162,0.168-0.301,0.288-0.415,0.36c-0.116,0.073-0.222,0.122-0.318,0.148s-0.166,0.035-0.211,0.025
			c-0.069,0.433-0.063,0.805,0.02,1.114c0.057,0.213,0.161,0.371,0.313,0.475c0.152,0.104,0.354,0.122,0.604,0.054
			c0.349-0.093,0.762-0.327,1.24-0.705c0.479-0.376,0.966-0.802,1.46-1.275c0.494-0.475,0.966-0.953,1.416-1.438
			C48.144,31.279,48.512,30.875,48.798,30.549z M43.982,30.317c-0.154,0.042-0.351,0.296-0.587,0.763
			c-0.237,0.469-0.424,0.99-0.56,1.564c0.147-0.143,0.307-0.32,0.479-0.532c0.171-0.211,0.326-0.423,0.466-0.637
			c0.14-0.214,0.247-0.414,0.321-0.599c0.074-0.186,0.096-0.336,0.064-0.452C44.141,30.328,44.079,30.292,43.982,30.317z"/>
		<path class="st2" d="M61.691,26.968c0.038-0.011,0.065-0.023,0.083-0.038c0.016-0.016,0.034-0.025,0.054-0.03
			c0.154-0.041,0.248-0.003,0.279,0.112c0.025,0.097-0.051,0.2-0.229,0.309c-0.321,0.19-0.704,0.427-1.145,0.711
			c-0.442,0.285-0.918,0.598-1.426,0.941c-0.509,0.343-1.026,0.71-1.553,1.1c-0.528,0.39-1.038,0.786-1.531,1.187
			c-0.252,0.834-0.593,1.593-1.021,2.277c-0.427,0.684-0.921,1.101-1.48,1.251c-0.098,0.026-0.2,0.027-0.31,0.005
			c-0.11-0.023-0.183-0.102-0.219-0.237c-0.036-0.136,0.009-0.313,0.137-0.534c0.197-0.343,0.512-0.738,0.94-1.184
			c0.429-0.445,0.908-0.917,1.438-1.41c0.254-0.752,0.427-1.497,0.52-2.236c0.092-0.739,0.08-1.32-0.033-1.746
			c-0.119-0.444-0.344-0.623-0.672-0.535c-0.482,0.13-0.902,0.497-1.258,1.1c-0.356,0.603-0.659,1.346-0.909,2.23
			c-0.249,0.886-0.453,1.862-0.612,2.93s-0.287,2.137-0.382,3.208c-0.097,1.072-0.164,2.095-0.203,3.068
			c-0.039,0.973-0.063,1.792-0.071,2.457c-0.016,0.48-0.12,0.747-0.313,0.799c-0.154,0.042-0.278-0.112-0.372-0.459
			c-0.016-0.059-0.032-0.121-0.051-0.188c-0.018-0.068-0.027-0.143-0.029-0.225c-0.071-0.499-0.134-1.176-0.187-2.031
			c-0.054-0.855-0.093-1.771-0.116-2.749s-0.026-1.97-0.007-2.98c0.02-1.01,0.058-1.926,0.116-2.75
			c0.06-0.823,0.151-1.504,0.275-2.046c0.124-0.54,0.282-0.837,0.476-0.889c0.077-0.021,0.132,0.027,0.163,0.143
			s0.035,0.249,0.014,0.4c-0.277,1.67-0.458,3.349-0.544,5.038c-0.085,1.69-0.103,3.399-0.055,5.125
			c0.097-1.186,0.235-2.465,0.415-3.838c0.181-1.374,0.424-2.667,0.731-3.877c0.307-1.211,0.686-2.249,1.137-3.117
			c0.451-0.866,0.985-1.382,1.604-1.548c0.329-0.088,0.588-0.049,0.777,0.118c0.189,0.166,0.329,0.415,0.417,0.743
			c0.114,0.425,0.146,0.934,0.099,1.526c-0.048,0.594-0.154,1.201-0.318,1.826c0.474-0.396,0.962-0.797,1.464-1.201
			c0.503-0.404,0.998-0.78,1.484-1.127c0.486-0.348,0.937-0.66,1.349-0.938C61.03,27.384,61.389,27.153,61.691,26.968z
			 M53.568,34.675c0.386-0.104,0.758-0.437,1.114-0.998c0.357-0.562,0.665-1.208,0.925-1.94c-0.488,0.421-0.921,0.832-1.3,1.234
			c-0.379,0.401-0.668,0.774-0.866,1.117c-0.112,0.196-0.15,0.362-0.114,0.497C53.352,34.68,53.433,34.711,53.568,34.675z"/>
	</g>
	<g class="st0">
		<path class="st3" d="M30.091,35.501c0.053-0.034,0.127-0.063,0.224-0.089c0.135-0.036,0.213-0.017,0.234,0.061
			c0.025,0.097-0.038,0.207-0.191,0.331c-1.007,0.727-1.989,1.461-2.95,2.205c-0.96,0.744-1.89,1.527-2.787,2.347
			c0.135,0.503,0.174,1.036,0.118,1.599c-0.056,0.564-0.179,1.13-0.368,1.699c-0.189,0.568-0.432,1.13-0.729,1.686
			c-0.296,0.556-0.617,1.077-0.963,1.563c-0.54,0.766-1.096,1.38-1.665,1.844c-0.569,0.462-1.076,0.754-1.521,0.874
			c-0.579,0.155-0.929,0.01-1.048-0.434c-0.078-0.289-0.016-0.716,0.187-1.276c0.201-0.562,0.577-1.28,1.131-2.151
			c0.321-0.501,0.64-0.955,0.956-1.36c0.315-0.406,0.559-0.714,0.729-0.925c0.409-0.483,0.845-0.966,1.304-1.453
			c0.46-0.485,0.926-0.967,1.398-1.446c-0.18-0.593-0.496-1.037-0.946-1.329c-0.452-0.293-0.969-0.502-1.551-0.626
			c-0.581-0.124-1.196-0.212-1.842-0.267c-0.646-0.055-1.254-0.14-1.824-0.257c-0.569-0.115-1.071-0.306-1.505-0.574
			c-0.435-0.267-0.729-0.69-0.885-1.27c-0.155-0.579-0.189-1.248-0.103-2.006c0.086-0.758,0.265-1.541,0.535-2.349
			c0.27-0.807,0.618-1.61,1.047-2.409c0.428-0.798,0.899-1.53,1.415-2.195c0.515-0.668,1.066-1.238,1.651-1.718
			c0.587-0.478,1.179-0.797,1.778-0.958c0.618-0.166,1.101-0.125,1.447,0.124c0.346,0.25,0.586,0.625,0.721,1.126
			c0.135,0.503,0.18,1.096,0.136,1.782c-0.044,0.685-0.155,1.387-0.335,2.108c-0.18,0.722-0.41,1.425-0.692,2.111
			c-0.281,0.687-0.581,1.29-0.897,1.81c-0.217,0.348-0.439,0.62-0.666,0.815c-0.228,0.196-0.419,0.314-0.573,0.355
			c-0.231,0.062-0.373-0.003-0.425-0.197c-0.052-0.192,0.023-0.451,0.227-0.775c0.345-0.568,0.698-1.222,1.059-1.961
			c0.361-0.739,0.674-1.486,0.937-2.239c0.265-0.753,0.46-1.475,0.587-2.161c0.126-0.686,0.127-1.261,0.003-1.725
			c-0.114-0.425-0.403-0.576-0.868-0.451c-0.582,0.156-1.156,0.454-1.724,0.897c-0.566,0.441-1.11,0.971-1.631,1.586
			s-0.987,1.295-1.401,2.037c-0.413,0.743-0.758,1.492-1.032,2.249c-0.275,0.757-0.457,1.495-0.545,2.212
			c-0.088,0.717-0.057,1.356,0.094,1.917c0.113,0.425,0.365,0.746,0.757,0.962c0.391,0.217,0.857,0.386,1.4,0.509
			c0.543,0.125,1.121,0.228,1.736,0.311c0.615,0.083,1.21,0.205,1.782,0.361c0.572,0.157,1.087,0.372,1.545,0.643
			c0.456,0.271,0.784,0.659,0.983,1.166c0.887-0.86,1.795-1.683,2.723-2.471C28.195,36.932,29.137,36.194,30.091,35.501z
			 M22.435,46.687c0.308-0.475,0.587-0.975,0.841-1.499c0.253-0.522,0.46-1.045,0.622-1.564c0.159-0.519,0.269-1.023,0.323-1.515
			c0.054-0.492,0.046-0.945-0.023-1.36c-0.922,0.888-1.811,1.821-2.668,2.796c-0.185,0.236-0.431,0.555-0.736,0.958
			c-0.307,0.403-0.612,0.843-0.92,1.319c-0.539,0.848-0.897,1.54-1.074,2.074c-0.178,0.534-0.23,0.937-0.158,1.208
			c0.093,0.348,0.362,0.462,0.806,0.343c0.387-0.104,0.854-0.389,1.401-0.857C21.394,48.121,21.924,47.487,22.435,46.687z"/>
		<path class="st3" d="M45.913,23.96c0.237-0.042,0.404-0.056,0.502-0.041c0.097,0.016,0.151,0.043,0.161,0.08
			c0.021,0.078-0.027,0.168-0.145,0.273c-0.117,0.104-0.244,0.173-0.379,0.209c-0.198,0.034-0.401,0.051-0.606,0.055
			c-0.206,0.003-0.406,0.03-0.6,0.082c-0.995,0.226-1.985,0.455-2.969,0.687c-0.983,0.233-1.968,0.48-2.952,0.745
			c-0.754,0.202-1.505,0.415-2.253,0.635c-0.748,0.223-1.484,0.45-2.209,0.685c-0.158,0.955-0.322,2.024-0.49,3.208
			c-0.17,1.185-0.309,2.366-0.417,3.545c-0.108,1.178-0.165,2.28-0.17,3.307c-0.004,1.026,0.076,1.848,0.242,2.466
			c0.072,0.27,0.192,0.523,0.358,0.758c0.167,0.235,0.414,0.309,0.743,0.221c0.405-0.109,0.862-0.491,1.37-1.145
			c0.509-0.653,1.007-1.397,1.498-2.233c0.49-0.835,0.945-1.667,1.366-2.495c0.42-0.826,0.742-1.477,0.967-1.952
			c0.047-0.137,0.117-0.219,0.214-0.245c0.097-0.026,0.158,0.011,0.185,0.107c0.021,0.077,0.005,0.174-0.046,0.292
			c-0.165,0.313-0.368,0.714-0.609,1.204c-0.241,0.489-0.512,1.006-0.811,1.553c-0.299,0.546-0.62,1.104-0.965,1.672
			c-0.345,0.569-0.692,1.087-1.044,1.553c-0.352,0.467-0.699,0.866-1.046,1.197c-0.346,0.331-0.674,0.538-0.982,0.621
			c-0.387,0.104-0.715,0-0.984-0.311c-0.27-0.312-0.487-0.776-0.653-1.394c-0.182-0.676-0.308-1.495-0.38-2.46
			c-0.072-0.963-0.1-1.972-0.08-3.022c0.018-1.05,0.071-2.105,0.16-3.165s0.204-2.022,0.345-2.888
			c-0.589,0.2-1.134,0.387-1.636,0.563c-0.502,0.176-0.993,0.369-1.475,0.582c-0.26,0.111-0.508,0.229-0.743,0.354
			c-0.236,0.125-0.483,0.244-0.744,0.354c-0.072,0.041-0.166,0.076-0.282,0.107c-0.231,0.062-0.357,0.055-0.379-0.023
			c-0.025-0.096,0.156-0.227,0.547-0.395c0.785-0.314,1.567-0.602,2.347-0.861c0.779-0.261,1.576-0.533,2.392-0.813
			c0.089-0.438,0.178-0.844,0.264-1.22c0.085-0.375,0.174-0.699,0.267-0.972c0.199-0.571,0.404-0.885,0.617-0.942
			c0.154-0.042,0.266,0.063,0.333,0.313c0.057,0.213,0.055,0.514-0.007,0.903l-0.243,1.524c1.326-0.458,2.637-0.882,3.931-1.271
			c1.294-0.388,2.606-0.761,3.94-1.119c0.579-0.155,1.163-0.312,1.753-0.47C44.704,24.222,45.304,24.083,45.913,23.96z"/>
		<path class="st3" d="M48.798,30.549c0.061-0.08,0.131-0.127,0.208-0.148c0.116-0.031,0.187,0.001,0.213,0.097
			c0.026,0.098-0.009,0.2-0.104,0.308c-0.286,0.325-0.65,0.723-1.094,1.193c-0.443,0.472-0.909,0.933-1.399,1.384
			c-0.489,0.454-0.986,0.86-1.489,1.223c-0.504,0.363-0.958,0.598-1.363,0.707c-0.329,0.088-0.618,0.052-0.868-0.109
			s-0.425-0.424-0.522-0.791c-0.099-0.367-0.131-0.793-0.095-1.28c0.035-0.485,0.116-0.957,0.241-1.415
			c0.125-0.458,0.294-0.855,0.504-1.192c0.21-0.334,0.45-0.539,0.721-0.612c0.193-0.052,0.371-0.026,0.533,0.075
			c0.161,0.102,0.271,0.258,0.328,0.471c0.109,0.406,0.043,0.838-0.196,1.295c-0.24,0.458-0.517,0.874-0.831,1.247
			c-0.162,0.168-0.301,0.288-0.415,0.36c-0.116,0.073-0.222,0.122-0.318,0.148s-0.166,0.035-0.211,0.025
			c-0.069,0.433-0.063,0.805,0.02,1.114c0.057,0.213,0.161,0.371,0.313,0.475c0.152,0.104,0.354,0.122,0.604,0.054
			c0.349-0.093,0.762-0.327,1.24-0.705c0.479-0.376,0.966-0.802,1.46-1.275c0.494-0.475,0.966-0.953,1.416-1.438
			C48.144,31.279,48.512,30.875,48.798,30.549z M43.982,30.317c-0.154,0.042-0.351,0.296-0.587,0.763
			c-0.237,0.469-0.424,0.99-0.56,1.564c0.147-0.143,0.307-0.32,0.479-0.532c0.171-0.211,0.326-0.423,0.466-0.637
			c0.14-0.214,0.247-0.414,0.321-0.599c0.074-0.186,0.096-0.336,0.064-0.452C44.141,30.328,44.079,30.292,43.982,30.317z"/>
		<path class="st3" d="M61.691,26.968c0.038-0.011,0.065-0.023,0.083-0.038c0.016-0.016,0.034-0.025,0.054-0.03
			c0.154-0.041,0.248-0.003,0.279,0.112c0.025,0.097-0.051,0.2-0.229,0.309c-0.321,0.19-0.704,0.427-1.145,0.711
			c-0.442,0.285-0.918,0.598-1.426,0.941c-0.509,0.343-1.026,0.71-1.553,1.1c-0.528,0.39-1.038,0.786-1.531,1.187
			c-0.252,0.834-0.593,1.593-1.021,2.277c-0.427,0.684-0.921,1.101-1.48,1.251c-0.098,0.026-0.2,0.027-0.31,0.005
			c-0.11-0.023-0.183-0.102-0.219-0.237c-0.036-0.136,0.009-0.313,0.137-0.534c0.197-0.343,0.512-0.738,0.94-1.184
			c0.429-0.445,0.908-0.917,1.438-1.41c0.254-0.752,0.427-1.497,0.52-2.236c0.092-0.739,0.08-1.32-0.033-1.746
			c-0.119-0.444-0.344-0.623-0.672-0.535c-0.482,0.13-0.902,0.497-1.258,1.1c-0.356,0.603-0.659,1.346-0.909,2.23
			c-0.249,0.886-0.453,1.862-0.612,2.93s-0.287,2.137-0.382,3.208c-0.097,1.072-0.164,2.095-0.203,3.068
			c-0.039,0.973-0.063,1.792-0.071,2.457c-0.016,0.48-0.12,0.747-0.313,0.799c-0.154,0.042-0.278-0.112-0.372-0.459
			c-0.016-0.059-0.032-0.121-0.051-0.188c-0.018-0.068-0.027-0.143-0.029-0.225c-0.071-0.499-0.134-1.176-0.187-2.031
			c-0.054-0.855-0.093-1.771-0.116-2.749s-0.026-1.97-0.007-2.98c0.02-1.01,0.058-1.926,0.116-2.75
			c0.06-0.823,0.151-1.504,0.275-2.046c0.124-0.54,0.282-0.837,0.476-0.889c0.077-0.021,0.132,0.027,0.163,0.143
			s0.035,0.249,0.014,0.4c-0.277,1.67-0.458,3.349-0.544,5.038c-0.085,1.69-0.103,3.399-0.055,5.125
			c0.097-1.186,0.235-2.465,0.415-3.838c0.181-1.374,0.424-2.667,0.731-3.877c0.307-1.211,0.686-2.249,1.137-3.117
			c0.451-0.866,0.985-1.382,1.604-1.548c0.329-0.088,0.588-0.049,0.777,0.118c0.189,0.166,0.329,0.415,0.417,0.743
			c0.114,0.425,0.146,0.934,0.099,1.526c-0.048,0.594-0.154,1.201-0.318,1.826c0.474-0.396,0.962-0.797,1.464-1.201
			c0.503-0.404,0.998-0.78,1.484-1.127c0.486-0.348,0.937-0.66,1.349-0.938C61.03,27.384,61.389,27.153,61.691,26.968z
			 M53.568,34.675c0.386-0.104,0.758-0.437,1.114-0.998c0.357-0.562,0.665-1.208,0.925-1.94c-0.488,0.421-0.921,0.832-1.3,1.234
			c-0.379,0.401-0.668,0.774-0.866,1.117c-0.112,0.196-0.15,0.362-0.114,0.497C53.352,34.68,53.433,34.711,53.568,34.675z"/>
	</g>
</g>
</svg>
