<?xml version="1.0" encoding="utf-8"?>
<!-- Generator: Adobe Illustrator 26.0.1, SVG Export Plug-In . SVG Version: 6.00 Build 0)  -->
<svg version="1.1" id="Layer_1" xmlns="http://www.w3.org/2000/svg" xmlns:xlink="http://www.w3.org/1999/xlink" x="0px" y="0px"
	 viewBox="0 0 150.41 150.41" style="enable-background:new 0 0 150.41 150.41;" xml:space="preserve">
<style type="text/css">
	.st0{fill:#FFFFFF;}
	.st1{enable-background:new    ;}
	.st2{fill:#F58F8E;}
</style>
<ellipse id="Ellipse_107" class="st0" cx="75.21" cy="75.21" rx="75.21" ry="75.21"/>
<g class="st1">
	<path class="st2" d="M43.52,66.02c-1.57,5.28-6.72,9.25-11.65,10.94l-1.66,0.58c-0.48-0.54-0.86-1.18-1.41-1.73
		c3.94-1.18,7.78-3.2,10.62-6.53c0.86-1.02,1.44-2.08,1.95-3.26H33.5v-7.26c-0.74,0.61-1.54,1.34-2.34,1.89
		c-0.67-0.35-1.28-0.83-1.92-1.25c4.29-2.85,7.3-7.01,9.57-11.26l1.98,0.96c-0.42,0.74-1.06,1.5-1.47,2.24h11.46v1.95
		c-0.83,1.09-1.57,2.34-2.34,3.42h5.95v9.31l-7.52,0.03c-0.06,2.24-0.06,4.51,0,6.69c0.1,0.51,0.45,1.09,0.99,1.28l0.83,0.1h4.83
		c1.7-0.32,1.86-2.08,2.11-3.39c0.1-0.42,0.16-0.8,0.19-1.18c0.19-0.06,0.29,0.19,0.48,0.16l1.57,0.61
		c-0.16,1.18-0.54,2.27-0.96,3.39c-0.38,1.09-1.41,2.05-2.56,2.24L52.86,76h-4.9c-2.05,0-2.98-1.54-3.14-2.43v-7.52L43.52,66.02z
		 M35.55,64.13h6.37c0.51-1.79,0.7-3.62,0.77-5.5l-7.14-0.03V64.13z M38.21,53.28c-0.77,1.15-1.63,2.34-2.59,3.42l10.24,0.03
		c0.9-1.12,1.57-2.33,2.4-3.46H38.21z M44.8,58.59c-0.1,1.89-0.32,3.74-0.7,5.54h8.29l0.03-5.54H44.8z"/>
	<path class="st2" d="M75.29,74.49V56.58c-1.79,1.73-4.61,3.01-5.63,3.39v-2.72c2.69-1.25,5.47-3.42,6.62-5.76h1.82v23.01H75.29z"/>
	<path class="st2" d="M121.5,66.14v1.95l-11.3-0.03l-0.03,9.47l-2.05,0.03l-0.03-9.47l-12.93-0.03v-1.95l4.1,0.03v-7.81h8.77V53.6
		h-7.2c-1.12,2.3-2.34,4.61-4.38,6.5l-1.73-1.34c2.53-2.34,4.26-5.12,5.15-8.19l0.7-2.37c0.61,0.26,1.18,0.51,1.76,0.83
		c-0.13,0.93-0.45,1.76-0.7,2.66h18.53v1.92l-10.05,0.03l0.03,4.7h8.38l0.03,1.95l-8.35,0.03v5.82H121.5z M101.31,60.32v5.82h6.75
		l0.03-5.86L101.31,60.32z"/>
</g>
<g class="st1">
	<path class="st2" d="M56.29,103.78V90.24l1.13-0.02l0.02,5.38l6.36,0.02v1.06h-6.36l-0.02,7.09l8.01,0.02v1.08l-15.23-0.02
		l0.02-1.08H56.29z"/>
	<path class="st2" d="M76.47,99.54l6.66,0.02v1.1h-5.2c0.47,0.54,1.04,0.95,1.57,1.39c1.46,0.95,3.01,1.71,4.7,2.12
		c-0.25,0.36-0.49,0.72-0.76,1.03c-2.61-0.77-5.28-2.2-6.93-4.57l-0.04,5.65l-1.21,0.02v-5.64c0-0.04-0.04-0.02-0.07-0.02
		c-1.62,2.5-4.27,3.92-6.88,4.75c-0.23-0.32-0.49-0.67-0.68-1.03c2.27-0.68,4.57-1.71,6.14-3.71l-5.4-0.02v-1.08l6.9-0.02v-1.73
		h1.21V99.54z M67.83,97.86c1.4-0.83,2.92-2.21,3.21-3.91c0.02-0.25,0.09-0.52,0.14-0.77h-2.5v-1.12h2.59
		c0.07-0.36,0.04-0.83,0.11-1.19c-0.09-0.14,0.04-0.31-0.02-0.45c0.02-0.13,0-0.27,0.02-0.41c0.36-0.04,0.74-0.02,1.12-0.02
		c0.02,0.7-0.07,1.39-0.09,2.07h3.24c-0.02,1.41-0.09,2.75-0.22,4.14c-0.09,0.41-0.09,0.86-0.4,1.19c-0.61,0.88-1.82,0.59-2.74,0.52
		l-0.43-1.22c0.61,0.09,1.21,0.23,1.85,0.23c0.18-0.04,0.34-0.18,0.45-0.32l0.09-0.25c0.13-1.1,0.18-2.05,0.25-3.17h-2.18
		c-0.23,1.51-0.68,2.92-1.78,4.01c-0.56,0.58-1.22,1.06-1.84,1.51L67.83,97.86z M82.5,91.04v6.91h-1.13v-1.06h-3.28v1.12h-1.15
		l0.02-6.97H82.5z M78.09,92.15v3.67l3.28-0.02v-3.64L78.09,92.15z"/>
	<path class="st2" d="M97.01,89.87v1.35h3.92l0.02,2.95h-3.94v0.97h4.61c-0.11,0.95-0.23,1.96-0.49,2.83
		c-0.05,0.07-0.09,0.2-0.16,0.23c-0.11,0.22-0.79,0.54-1.17,0.41l-0.29-0.05v5.02H88.89v-5.28c-0.7,0.22-1.4,0.43-2.12,0.56
		c-0.2-0.36-0.32-0.68-0.49-1.06c1.33-0.14,2.97-0.61,4.11-1.69L87.2,96.1l0.7-2.92h3.66l-0.02-1.01H86.8v-0.95h4.74l0.02-1.4h1.13
		v1.4h3.17v-1.35H97.01z M92.89,104.63c-1.75,0.81-3.71,1.21-5.65,1.55c-0.23-0.31-0.31-0.7-0.52-1.04
		c1.98-0.22,3.87-0.63,5.62-1.42C92.47,104,92.74,104.34,92.89,104.63z M91.09,95.14c0.14-0.22,0.27-0.45,0.34-0.99h-2.57
		l-0.23,0.99H91.09z M98.36,99.84h-8.34v0.85l8.34,0.02V99.84z M98.36,102.61v-0.94h-8.34v0.94H98.36z M98.36,98.08l-8.32-0.02v0.81
		h8.32V98.08z M95.84,97.1l-0.02-0.99l-3.96-0.02c-0.18,0.31-0.77,0.81-1.01,1.01H95.84z M95.86,95.14v-0.97h-3.24
		c-0.05,0.45-0.14,0.72-0.31,0.97H95.86z M95.86,92.15h-3.21v1.03h3.21V92.15z M101.13,106.31c-1.33-0.81-3.69-1.53-5.71-1.6
		c0.2-0.34,0.41-0.61,0.63-0.94c2.09,0.18,3.91,0.81,5.73,1.6L101.13,106.31z M99.53,97.55c0.16,0,0.43,0.16,0.54-0.07
		c0.14-0.45,0.27-0.9,0.36-1.37h-3.42v0.99l2.52-0.02V97.55z M99.78,92.15h-2.75v1.03h2.75V92.15z"/>
</g>
</svg>
