<?xml version="1.0" encoding="utf-8"?>
<!-- Generator: Adobe Illustrator 26.0.1, SVG Export Plug-In . SVG Version: 6.00 Build 0)  -->
<svg version="1.1" id="Layer_1" xmlns="http://www.w3.org/2000/svg" xmlns:xlink="http://www.w3.org/1999/xlink" x="0px" y="0px"
	 viewBox="0 0 150.41 150.41" style="enable-background:new 0 0 150.41 150.41;" xml:space="preserve">
<style type="text/css">
	.st0{fill:#FFFFFF;}
	.st1{enable-background:new    ;}
	.st2{fill:#F58F8E;}
</style>
<g id="Group_1182" transform="translate(0.075)">
	<ellipse id="Ellipse_110" class="st0" cx="75.13" cy="75.21" rx="75.21" ry="75.21"/>
	<g class="st1">
		<path class="st2" d="M34.65,59.53H26.3v1.04h-1.1V49.62h4.32c0.34-0.67,0.49-1.17,0.63-1.94h-7.22v-1.04h4.63
			c-0.36-0.65-1.24-1.64-1.93-2l1.13-0.59c0.9,0.74,1.64,1.64,2.05,2.59h3.31c0.92-1.03,1.55-2.07,1.75-2.57l1.06,0.5
			c-0.4,0.76-0.86,1.42-1.49,2.07h4.59v1.04h-6.75c-0.13,0.76-0.31,1.44-0.56,1.94h5.02v10.91h-1.1V59.53z M26.3,50.65v1.85h8.35
			v-1.85H26.3z M34.65,55.46v-1.96H26.3v1.96H34.65z M26.3,56.45v2.05h8.35v-2.05H26.3z"/>
		<path class="st2" d="M47.61,60.57v-4.95l-7-0.02l-0.02-1.08l7.02,0.02v-2.41H41.8l-0.02-1.06l5.83-0.02v-6.72h1.15v6.73h5.78v1.06
			l-5.78-0.02v2.41l6.99,0.02v1.06h-6.99v4.97H47.61z M44.57,50.09c-0.14-0.23-0.23-0.54-0.36-0.79c-0.63-1.3-1.49-2.65-2.79-3.42
			l0.99-0.68c0.83,0.52,1.51,1.31,2.05,2.12c0.45,0.67,0.79,1.35,1.12,2.07L44.57,50.09z M50.49,49.12c1.46-1.01,2.7-2.43,3.26-4.09
			l0.99,0.65c-0.58,1.62-1.85,3.06-3.26,4.21L50.49,49.12z"/>
		<path class="st2" d="M73.89,54.18v1.1l-6.36-0.02l-0.02,5.33l-1.15,0.02l-0.02-5.33l-7.27-0.02v-1.1l2.3,0.02v-4.39h4.93v-2.67
			h-4.05c-0.63,1.3-1.31,2.59-2.47,3.66l-0.97-0.76c1.42-1.31,2.39-2.88,2.9-4.61l0.4-1.33c0.34,0.14,0.67,0.29,0.99,0.47
			c-0.07,0.52-0.25,0.99-0.4,1.49h10.42v1.08l-5.65,0.02l0.02,2.65h4.72l0.02,1.1l-4.7,0.02v3.28H73.89z M62.53,50.9v3.28h3.8
			l0.02-3.29L62.53,50.9z"/>
		<path class="st2" d="M82.8,59.17c-0.31,0.81-0.86,0.99-1.44,0.99h-1.55c-0.13-0.38-0.29-0.76-0.43-1.13
			c0.59,0,1.26,0.13,1.87,0.04c0.16-0.05,0.32-0.22,0.43-0.34l-0.02-4.02h-2.79c-0.09,0.79-0.11,1.53-0.23,2.27l-0.05,0.31
			c-0.23,1.3-0.7,2.3-1.46,3.35c-0.34-0.23-0.63-0.49-0.94-0.7c0.41-0.63,0.83-1.3,1.03-2c0.2-0.4,0.29-0.86,0.36-1.31
			c0.34-2.47,0.16-5.06,0.18-7.58l0.02-3.94l5.02-0.02V59.17z M78.89,46.17v3.13h2.75v-3.13H78.89z M81.65,50.4l-2.75-0.02v3.22
			h2.75V50.4z M85.41,51.26l6.01-0.02c-0.11,1.08-0.31,2.14-0.63,3.12c-0.34,0.99-0.7,1.98-1.21,2.9c0.79,0.99,1.84,1.67,2.86,2.34
			c-0.22,0.29-0.45,0.59-0.72,0.86c-0.45-0.25-0.86-0.59-1.3-0.9c-0.47-0.42-1.01-0.83-1.44-1.3c-0.74,0.86-1.55,1.69-2.39,2.41
			c-0.27-0.27-0.5-0.54-0.77-0.83c0.88-0.74,1.8-1.51,2.41-2.47c-0.25-0.43-0.58-0.88-0.77-1.33c-0.54-1.19-0.94-2.39-1.15-3.71
			h-0.92l0.02,8.25h-1.15V45.07l7.15,0.02c-0.09,1.31-0.22,2.57-0.54,3.85c-0.14,0.59-0.77,1.01-1.35,1.04
			c-0.65,0.05-1.33-0.02-1.96-0.11l-0.34-1.19c0.67,0.09,1.35,0.25,2.07,0.29c0.16-0.02,0.32-0.11,0.4-0.25
			c0.18-0.47,0.38-1.85,0.41-2.54h-4.68V51.26z M87.45,52.34c0.11,0.85,0.29,1.66,0.65,2.41c0.14,0.56,0.45,1.04,0.72,1.51
			c0.7-1.26,1.15-2.5,1.39-3.92H87.45z"/>
		<path class="st2" d="M101.61,52.52l-1.13-0.27c0.07-0.23,0.23-0.77,0.27-1.03h-1.12v7.76c0.05,0.45-0.14,1.03-0.61,1.33
			c-0.61,0.49-1.57,0.16-2.34,0.27l-0.4-1.19c0.58,0.04,1.15,0.09,1.75,0.05c0.23-0.07,0.41-0.32,0.41-0.58v-7.65h-0.25
			c-0.36,2.48-1.39,5.04-3.38,6.75l-0.86-0.77c1.98-1.42,2.66-3.75,3.11-5.98h-2.52v-1.1h4.32c-0.2-0.27-0.5-0.5-0.76-0.76
			c-0.67-0.52-1.39-0.95-2.16-1.24l0.88-0.76c0.43,0.22,0.9,0.47,1.31,0.7c0.67-0.59,1.37-1.19,1.91-1.89h-4.83v-1.1h6.1v1.08
			c-0.61,1.24-1.4,1.82-2.29,2.56l0.94,0.9l-0.56,0.5h2.74c-0.07,0.68-0.23,1.62-0.41,2.34c1.1-0.49,2.11-1.01,3.06-1.76
			c-0.63-0.59-1.35-2.11-1.51-2.63c-0.36,0.56-0.83,1.08-1.31,1.53l-1.03-0.65c1.67-1.22,2.48-3.15,3.04-4.97l1.04,0.36
			c-0.09,0.52-0.32,0.99-0.5,1.49h5.37v1.1h-1.46c-0.36,1.39-0.99,2.68-2.04,3.76c1.26,1.12,2.84,1.67,4.41,2.07l-0.61,1.04
			c-1.67-0.47-3.22-1.21-4.63-2.32c-1.21,0.97-2.86,1.89-4.29,2.3l-0.7-0.92L101.61,52.52z M104.53,54.03
			c0.04-0.52,0.02-1.12,0-1.66h1.21c0.02,0.56-0.02,1.13-0.07,1.64h3.31c-0.02,0.72-0.07,1.42-0.14,2.14
			c-0.11,0.95-0.27,1.91-0.52,2.83c-0.13,0.49-0.54,0.86-1.03,1.01c-0.76,0.13-1.55-0.02-2.29-0.09l-0.31-1.19
			c0.99,0.18,2.23,0.56,2.54-0.2c0.25-0.65,0.47-2.16,0.56-3.4h-2.29c-0.29,1.64-0.97,3.22-2.32,4.32
			c-0.68,0.56-1.46,0.94-2.29,1.19l-0.65-1.06c1.69-0.31,3.29-1.75,3.82-3.37c0.07-0.34,0.22-0.7,0.27-1.06h-2.67v-1.1H104.53z
			 M104.13,46.94c0.16,1.12,0.77,2.14,1.5,3.02c0.79-0.86,1.35-1.94,1.64-3.02H104.13z"/>
		<path class="st2" d="M123.34,44.15v1.35h3.92l0.02,2.95h-3.94v0.97h4.61c-0.11,0.95-0.23,1.96-0.49,2.83
			c-0.05,0.07-0.09,0.2-0.16,0.23c-0.11,0.22-0.79,0.54-1.17,0.41l-0.29-0.05v5.02h-10.62v-5.28c-0.7,0.22-1.4,0.43-2.12,0.56
			c-0.2-0.36-0.32-0.68-0.49-1.06c1.33-0.14,2.97-0.61,4.11-1.69l-3.19-0.02l0.7-2.92h3.66l-0.02-1.01h-4.74V45.5h4.74l0.02-1.4
			h1.13v1.4h3.17v-1.35H123.34z M119.22,58.91c-1.75,0.81-3.71,1.21-5.65,1.55c-0.23-0.31-0.31-0.7-0.52-1.04
			c1.98-0.22,3.87-0.63,5.62-1.42C118.8,58.28,119.07,58.63,119.22,58.91z M117.42,49.42c0.14-0.22,0.27-0.45,0.34-0.99h-2.58
			l-0.23,0.99H117.42z M124.69,54.12h-8.34v0.85l8.34,0.02V54.12z M124.69,56.9v-0.94h-8.34v0.94H124.69z M124.69,52.36l-8.32-0.02
			v0.81h8.32V52.36z M122.17,51.39l-0.02-0.99l-3.96-0.02c-0.18,0.31-0.77,0.81-1.01,1.01H122.17z M122.19,49.42v-0.97h-3.24
			c-0.05,0.45-0.14,0.72-0.31,0.97H122.19z M122.19,46.44h-3.21v1.03h3.21V46.44z M127.46,60.59c-1.33-0.81-3.69-1.53-5.71-1.6
			c0.2-0.34,0.41-0.61,0.63-0.94c2.09,0.18,3.91,0.81,5.73,1.6L127.46,60.59z M125.86,51.84c0.16,0,0.43,0.16,0.54-0.07
			c0.14-0.45,0.27-0.9,0.36-1.37h-3.42v0.99l2.52-0.02V51.84z M126.11,46.44h-2.75v1.03h2.75V46.44z"/>
	</g>
	<g class="st1">
		<path class="st2" d="M26.26,89.99l-6.78,0.03V88.1l6.78,0.03v-5.12l-7.94,0.03l0.03-1.38c-1.34,0.83-2.82,1.38-4.26,1.95
			l-1.18-1.79c4.61-1.54,9.02-4.32,11.84-8.58l-5.06,0.03l-0.03-1.98l9.15,0.03c2.3,5.02,7.68,8.54,12.83,10.18l-1.18,1.82
			c-1.54-0.48-2.94-1.25-4.42-1.89l0.03,1.6h-7.81l0.03,5.09l6.82-0.03v1.92l-6.82-0.03v5.34h11.9v1.95H14.52l0.03-1.95h11.71V89.99
			z M26.99,73.25c-1.6,3.26-4.83,6.05-7.9,7.81l16.48,0.06c-3.14-1.86-6.3-4.61-8.03-7.84L26.99,73.25z"/>
		<path class="st2" d="M63.51,90.91l-3.9-0.03c-0.54,1.44-1.6,2.53-2.78,3.58c1.28,0.61,2.53,1.25,3.78,1.92l-1.09,1.54
			c-1.41-0.74-2.78-1.63-4.29-2.18L55,95.78c-2.72,1.76-5.89,2.66-9.18,3.04l-0.8-1.79c2.78-0.29,5.5-0.77,7.87-2.08
			c-1.54-0.51-3.17-0.86-4.86-0.96c0.96-0.93,2.02-1.95,2.78-3.07h-5.28l0.03-1.82h6.53l1.12-1.76l1.86,0.74l-0.61,1.02h9.06V90.91z
			 M73.04,77.76h-1.57c-0.32,4.64-0.93,9.02-2.88,13.09c1.15,2.5,3.01,4.9,5.31,6.53l-1.38,1.41c-2.11-1.5-3.68-3.71-4.9-5.86
			c-1.38,2.11-2.78,4.22-4.83,5.79l-1.31-1.34c2.37-1.73,3.84-4.16,5.12-6.5c-1.15-2.5-1.79-5.31-2.27-8.03
			c-0.45,0.64-0.93,1.22-1.34,1.82l-1.5-0.99v3.39H47.48v-4.9h5.95v-1.6h-5.98v-3.55h-2.34v-1.79l2.34,0.03v-3.36l5.98-0.03V69.7
			h1.98v2.14h5.98v3.26h1.98v1.73l-1.98,0.03v3.71h-5.98v1.6h6.08v1.09c0.22,0.03,0.19-0.26,0.38-0.35
			c2.82-3.68,3.52-8.48,3.65-13.22l1.76,0.42c0.06,2.05-0.22,3.84-0.58,5.73h6.37L73.04,77.76z M49.36,73.48l-0.03,1.73h4.06
			l0.03-1.7L49.36,73.48z M49.33,76.93l0.03,2.05h4.06l-0.03-2.02L49.33,76.93z M53.43,85.54v-1.82H49.4v1.82H53.43z M55.03,93.7
			c1.15-0.8,1.89-1.86,2.5-2.78l-4.38-0.03c-0.51,0.67-1.09,1.31-1.6,1.92L55.03,93.7z M55.41,73.48v1.73h4.16l-0.03-1.73H55.41z
			 M59.54,76.93l-4.13,0.03v2.05l4.13-0.03V76.93z M59.6,83.71h-4.19v1.82h4.19V83.71z M66.32,77.73c-0.19,0.77-0.51,1.47-0.67,2.24
			c0.51,2.88,0.9,5.79,1.92,8.51c1.34-3.23,2.11-7.04,2.11-10.75H66.32z"/>
		<path class="st2" d="M100.88,97.31v-2.3l-19.93-0.03l0.03,2.59h-2.02L78.93,72.2h23.97l0.03,25.12H100.88z M80.95,93.03h19.9
			l0.03-18.88h-19.9L80.95,93.03z M84.98,88.83V78.24l11.74-0.03v10.66L84.98,88.83z M87.03,86.95l7.65-0.06l0.03-6.69L87,80.16
			L87.03,86.95z"/>
		<path class="st2" d="M111.06,98.72c-0.7-0.29-1.28-0.77-1.95-1.12c1.66-1.66,2.97-3.71,3.49-5.98c0.64,0.19,1.22,0.54,1.86,0.77
			C113.97,94.79,112.66,96.83,111.06,98.72z M110.87,71.33l8.09-0.03v19.1l-8.13-0.03L110.87,71.33z M116.95,73.28l-4.16-0.03v3.58
			h4.13L116.95,73.28z M116.92,78.63l-4.13,0.03v3.9h4.13V78.63z M112.79,88.48h4.13v-4.06h-4.13V88.48z M117.36,91.59
			c1.66,1.41,2.53,3.62,3.14,5.7c-0.74,0.26-1.34,0.67-2.11,0.86c-0.38-2.21-1.25-4.32-2.94-5.86L117.36,91.59z M125.43,73.8
			c-0.64-1.41-1.66-2.75-3.01-3.65l1.66-0.93c1.44,0.86,2.56,2.37,3.29,3.9c-0.26,0.26-0.7,0.48-1.06,0.64l3.26,0.03
			c1.31-1.25,2.18-2.75,2.81-4.42c0.64,0.13,1.25,0.58,1.89,0.8c-0.48,1.31-1.44,2.62-2.4,3.65l4.77-0.03l0.03,10.34l-15.84-0.03
			V73.8H125.43z M122.45,98.63V86.08l12.67,0.03v12.58l-2.05-0.03v-1.92h-8.58v1.89H122.45z M122.84,75.72l0.03,6.56l4.86,0.03
			l0.03-6.62L122.84,75.72z M125.2,76.64c0.77,1.25,1.28,2.62,1.5,4.1c-0.61,0.22-1.18,0.48-1.79,0.67
			c-0.19-1.5-0.58-2.94-1.38-4.19L125.2,76.64z M124.53,90.47h8.54l0.03-2.56h-8.61L124.53,90.47z M133.07,92.26h-8.54v2.69h8.58
			L133.07,92.26z M129.68,75.72v6.56h4.89v-6.56H129.68z M132.02,81.44c-0.64-0.19-1.18-0.51-1.79-0.74
			c0.93-1.18,1.57-2.56,1.82-4.06c0.58,0.13,1.12,0.32,1.66,0.51C133.49,78.72,132.91,80.2,132.02,81.44z"/>
	</g>
</g>
</svg>
