<?xml version="1.0" encoding="utf-8"?>
<!-- Generator: Adobe Illustrator 26.0.1, SVG Export Plug-In . SVG Version: 6.00 Build 0)  -->
<svg version="1.1" id="Layer_1" xmlns="http://www.w3.org/2000/svg" xmlns:xlink="http://www.w3.org/1999/xlink" x="0px" y="0px"
	 viewBox="0 0 150.41 150.41" style="enable-background:new 0 0 150.41 150.41;" xml:space="preserve">
<style type="text/css">
	.st0{fill:#FFFFFF;}
	.st1{enable-background:new    ;}
	.st2{fill:#F58F8E;}
</style>
<ellipse id="Ellipse_109" class="st0" cx="75.21" cy="75.21" rx="75.21" ry="75.21"/>
<g class="st1">
	<path class="st2" d="M44.93,65.02h-9.92v-2.59l10.43-14.85h2.3v14.85h3.1v2.59h-3.1v5.47h-2.82V65.02z M44.93,62.43V52.1
		l-7.17,10.33H44.93z"/>
	<path class="st2" d="M65.03,56.26c-0.7,1.18-1.89,2.34-2.78,3.46l-1.66-1.47c1.82-1.79,3.07-3.84,4.1-5.98
		c1.22-2.56,2.11-5.18,2.85-7.97c0.58,0.32,1.22,0.58,1.79,0.9c-0.54,2.4-1.34,4.64-2.21,6.94l0.03,21.41l-2.11,0.06V56.26z
		 M72.74,73.53h-2.08V45.95l17.95,0.03v27.45h-2.05v-1.92H72.74V73.53z M72.74,47.87v21.76L86.5,69.6V47.87H72.74z M78.6,52.67v-4
		h2.02l-0.03,4h5.02v1.89h-4.99v3.78h3.46l-0.03,8.96H75.4v-8.96h3.23v-3.78h-4.99l0.03-1.89H78.6z M82.08,65.44v-5.21h-4.77v5.21
		H82.08z"/>
	<path class="st2" d="M116.29,70.49c-0.1,0.93-0.9,1.92-1.82,2.08l-0.8,0.13l-3.78,0.06c-0.26-0.74-0.51-1.41-0.8-2.14l3.97,0.13
		c0.67,0.03,0.8-0.29,1.02-0.7v-6.91h-11.62c-0.29,1.02-0.58,2.14-0.99,3.17c-1.15,2.82-3.55,5.25-5.95,7.33l-1.34-1.89
		c0.38-0.42,0.93-0.77,1.38-1.15c2.98-2.5,4.83-5.86,4.83-9.63l-0.03-14.97h15.9L116.29,70.49z M114.02,53.54v-5.6l-11.49-0.03
		l0.03,5.66L114.02,53.54z M102.63,55.49c-0.1,2.02,0.06,3.74-0.06,5.7h11.52v-5.7H102.63z"/>
</g>
<g class="st1">
	<path class="st2" d="M37.13,86.34h1.84l5.26,12.89h-1.93l-1.51-3.91H35.4l-1.42,3.91h-1.8L37.13,86.34z M40.26,93.94l-1.35-3.56
		c-0.52-1.37-0.65-1.77-0.88-2.68h-0.04c-0.14,0.76-0.41,1.73-0.68,2.47l-1.42,3.78H40.26z"/>
	<path class="st2" d="M45.42,89.9h1.44v1.21h0.04c0.67-0.99,1.48-1.42,2.67-1.42c2.39,0,3.96,1.89,3.96,4.81
		c0,2.92-1.67,4.95-4.07,4.95c-0.97,0-1.84-0.41-2.41-1.19h-0.04v4.56h-1.58V89.9z M49.35,98.13c1.58,0,2.56-1.39,2.56-3.66
		c0-2.18-0.95-3.55-2.48-3.55c-1.55,0-2.57,1.51-2.57,3.8C46.85,96.82,47.82,98.13,49.35,98.13z"/>
	<path class="st2" d="M55.43,89.9h1.44v1.21h0.04c0.67-0.99,1.48-1.42,2.67-1.42c2.39,0,3.96,1.89,3.96,4.81
		c0,2.92-1.67,4.95-4.07,4.95c-0.97,0-1.84-0.41-2.41-1.19h-0.04v4.56h-1.58V89.9z M59.36,98.13c1.58,0,2.56-1.39,2.56-3.66
		c0-2.18-0.95-3.55-2.48-3.55c-1.55,0-2.57,1.51-2.57,3.8C56.85,96.82,57.83,98.13,59.36,98.13z"/>
	<path class="st2" d="M73.2,85.31c-0.11-0.23-0.83-0.74-1.01-0.92l0.9-0.59c0.54,0.41,1.12,0.95,1.55,1.49h6.3v1.03L67.69,86.3v1.68
		v6.19c0,1.26-0.2,2.54-0.56,3.73c-0.25,0.87-0.68,1.69-1.17,2.47h-0.09l-0.9-0.7c1.06-1.57,1.57-3.38,1.57-5.37l0.02-4.38
		l-0.02-4.63L73.2,85.31z M73.34,98.87c-1.48,0.83-3.1,1.31-4.81,1.6c-0.2-0.3-0.36-0.67-0.56-0.97c1.66-0.18,3.17-0.65,4.59-1.33
		L73.34,98.87z M73.9,92.98v-0.86h-5.78v-1.01h12.71v0.99H75l-0.02,0.88L79.52,93l0.02,4.84H69.4v-4.86H73.9z M68.63,88.45v-1.01
		h2.47v-0.65h1.1v0.65h4.5v-0.68h1.1v0.68l2.47-0.02v1.03h-2.47v1.91h-6.7l-0.02-1.91H68.63z M70.48,94.01v0.92h3.44v-0.94
		L70.48,94.01z M70.48,95.92v0.92h3.44v-0.9L70.48,95.92z M72.19,89.33l4.5,0.02v-0.92l-4.52,0.02L72.19,89.33z M75,94.01v0.92h3.46
		v-0.94L75,94.01z M75.02,95.94v0.9l3.44-0.02l0.02-0.88H75.02z M80.56,100.47c-0.25-0.05-0.47-0.23-0.72-0.34
		c-1.28-0.56-2.59-1.06-4.03-1.26l0.63-0.79c1.69,0.27,3.29,0.74,4.75,1.55L80.56,100.47z"/>
	<path class="st2" d="M84.02,89.53c1.55-1.21,2.29-2.9,2.72-4.66l1.1,0.27c-0.13,0.56-0.38,1.22-0.56,1.76h3.53v-2.83h1.12v2.83
		h5.28v1.04h-5.28v2.79h7.02v1.04h-7.02v1.4H90.8v-1.4h-7.35v-1.04h7.35v-2.79h-4c-0.47,0.87-1.03,1.69-1.85,2.34L84.02,89.53z
		 M87.06,100.47h-1.12v-6.61h10.59v6.61h-1.12v-1.31h-8.35V100.47z M87.06,98.12h8.35v-3.21h-8.35V98.12z"/>
	<path class="st2" d="M100.75,92.15c2.86-2.79,3.42-5.87,4.27-7.83l1.04,0.5c-0.43,1.3-0.88,2.63-1.46,3.89l0.02,11.87h-1.15v-9.9
		c-0.36,0.56-1.17,1.66-1.71,2.2L100.75,92.15z M117.19,99.45h-11.33l-0.02-1.1l4.95-0.02c1.53-2.68,2.81-5.46,2.99-8.64l1.13,0.43
		c-0.2,2.66-1.19,5.02-2.36,7.29c-0.16,0.2-0.27,0.65-0.47,0.94h5.08L117.19,99.45z M106.28,89.15v-1.1l9.97-0.02v1.12H106.28z
		 M109.34,97.05c-0.07-2.45-0.74-4.54-1.93-6.54l1.19-0.25c1.12,1.98,1.76,4.18,1.94,6.54L109.34,97.05z M111.13,87.76
		c-0.47-1.13-1.26-2.21-2.32-2.9l1.03-0.61c0.2,0.07,0.34,0.25,0.52,0.36c0.74,0.74,1.42,1.58,1.84,2.54L111.13,87.76z"/>
</g>
</svg>
