<?xml version="1.0" encoding="utf-8"?>
<!-- Generator: Adobe Illustrator 26.0.1, SVG Export Plug-In . SVG Version: 6.00 Build 0)  -->
<svg version="1.1" id="Layer_1" xmlns="http://www.w3.org/2000/svg" xmlns:xlink="http://www.w3.org/1999/xlink" x="0px" y="0px"
	 viewBox="0 0 150.41 150.41" style="enable-background:new 0 0 150.41 150.41;" xml:space="preserve">
<style type="text/css">
	.st0{fill:#FFFFFF;}
	.st1{enable-background:new    ;}
	.st2{fill:#F58F8E;}
</style>
<g id="Group_1180" transform="translate(0.227)">
	<ellipse id="Ellipse_108" class="st0" cx="74.77" cy="75" rx="75.21" ry="75.21"/>
	<g class="st1">
		<path class="st2" d="M47.81,58.43c-1.15-1.6-2.56-3.39-4.45-4.16l1.41-1.28c1.63,0.74,3.42,2.56,4.51,4.06L47.81,58.43z
			 M43.4,72.12c2.37-3.14,3.62-6.78,4.16-10.72l1.79,0.77c-0.64,4-1.92,7.84-4.25,11.2L43.4,72.12z M48.97,51.32
			c-0.99-1.6-2.3-3.04-4-3.81l1.6-1.12c1.63,0.8,3.04,2.3,4.03,3.74L48.97,51.32z M71.46,74.04c-0.8-0.51-1.38-1.22-2.08-1.86
			c-0.96-1.09-1.7-2.3-2.43-3.49c-1.38,2.05-3.17,4.22-5.28,5.44l-1.22-1.57c2.11-1.5,4.29-3.65,5.5-5.89
			c-1.02-2.46-1.86-5.02-2.21-8.03c-0.03-0.06-0.06-0.22-0.1-0.22c-0.35,0.64-0.74,1.31-1.18,1.86l-1.82-0.96l0.51-0.67h-5.28
			c0.67,0.67,1.28,1.66,1.73,2.5l4.64,0.03v1.89l-7.2,0.03c0,0.77-0.1,1.6-0.13,2.4l6.24-0.03c-0.38,2.53-0.7,4.8-1.73,6.91
			c-0.48,0.74-1.28,1.25-2.21,1.18c-0.93-0.06-1.79-0.29-2.66-0.51l-0.29-2.14c0.8,0.26,1.92,0.61,2.78,0.67
			c1.22,0.13,1.15-1.41,1.5-2.21l0.38-2.02h-4.32c-0.64,2.91-2.4,5.66-5.15,7.04l-1.34-1.66c1.7-0.8,3.55-2.3,4.03-4.16
			c0.8-1.63,0.96-3.58,0.96-5.47l-2.94-0.03l0.03-1.86l5.34-0.03c-0.35-0.77-1.15-1.34-1.89-1.7l1.5-0.77l-3.71-0.06l0.03-10.59
			l3.17,0.03c0.7-0.86,1.15-1.92,1.22-3.07l1.89,0.7c-0.19,0.83-0.61,1.63-1.06,2.34h4.54v10.21c0.19,0.1,0.16-0.19,0.29-0.26
			c1.38-2.18,2.14-4.58,2.66-7.1c0.38-1.89,0.38-3.84,0.54-5.79l1.82,0.51c0.1,1.89-0.19,3.87-0.51,5.73h6.02v1.89h-1.54
			c0,4.64-0.61,9.41-2.5,13.28c1.15,2.21,2.59,4.45,4.7,5.98L71.46,74.04z M59.27,54.04l-5.82,0.03v2.69l5.82-0.03V54.04z
			 M53.48,49.98v2.34h5.79v-2.37L53.48,49.98z M65.67,53.24l-0.51,1.73c0.19,3.01,0.7,6.27,1.76,9.06c0.83-1.76,1.31-3.74,1.5-5.79
			c0.16-1.57,0.29-3.33,0.26-4.99H65.67z"/>
		<path class="st2" d="M86.5,69.88c0.38,0.51,0.9,0.8,1.22,1.31c-3.14,1.57-6.5,2.69-10.21,2.91l-1.09-1.79
			c3.62-0.1,6.91-0.93,9.95-2.43H86.5z M77.48,49.05h6.56c-0.22-0.42-0.7-0.9-1.06-1.25c-0.54-0.54-1.18-0.93-1.86-1.31l1.57-0.83
			c1.34,0.83,2.53,1.98,3.23,3.39h3.39v-4h1.98l0.03,4h3.87c0.93-0.7,2.18-2.27,2.78-3.3c0.54,0.19,1.06,0.54,1.57,0.86
			c-0.58,0.9-1.41,1.86-2.27,2.4l5.95,0.06v4.38h-1.98l-0.03-2.5H79.49v2.5h-2.02V49.05z M100.36,58.68l0.03,10.78h-20V58.68H100.36
			z M98.5,52.15v4.9H82.21v-4.9H98.5z M98.4,60.38H82.37v1.28l16,0.03L98.4,60.38z M98.4,63.13H82.37v1.5l16,0.03L98.4,63.13z
			 M98.4,66.17H82.37v1.63l16,0.03L98.4,66.17z M84.17,55.51l12.32,0.03v-1.89H84.2L84.17,55.51z M104.52,73.08l-1.15,1.38
			c-3.26-1.66-6.94-2.56-10.85-2.78c0.32-0.48,0.67-1.06,1.09-1.54c3.94,0.16,7.62,1.06,10.91,2.82V73.08z"/>
	</g>
	<g class="st1">
		<path class="st2" d="M47.28,87.88c-0.11-0.23-0.83-0.74-1.01-0.92l0.9-0.59c0.54,0.41,1.12,0.95,1.55,1.49h6.3v1.03l-13.25-0.02
			v1.67v6.19c0,1.26-0.2,2.54-0.56,3.73c-0.25,0.86-0.68,1.69-1.17,2.47h-0.09l-0.9-0.7c1.06-1.57,1.57-3.38,1.57-5.37l0.02-4.38
			l-0.02-4.63L47.28,87.88z M47.42,101.44c-1.48,0.83-3.1,1.31-4.81,1.6c-0.2-0.31-0.36-0.67-0.56-0.97
			c1.66-0.18,3.17-0.65,4.59-1.33L47.42,101.44z M47.98,95.55v-0.86H42.2v-1.01h12.71v0.99h-5.83l-0.02,0.88l4.54,0.02l0.02,4.84
			H43.48v-4.86H47.98z M42.71,91.02v-1.01h2.47v-0.65h1.1v0.65h4.5v-0.68h1.1v0.68l2.47-0.02v1.03h-2.47v1.91h-6.7l-0.02-1.91H42.71
			z M44.56,96.58v0.92H48v-0.94L44.56,96.58z M44.56,98.49v0.92H48v-0.9L44.56,98.49z M46.27,91.9l4.5,0.02V91l-4.52,0.02
			L46.27,91.9z M49.08,96.58v0.92h3.46v-0.94L49.08,96.58z M49.1,98.51v0.9l3.44-0.02l0.02-0.88H49.1z M54.64,103.04
			c-0.25-0.05-0.47-0.23-0.72-0.34c-1.28-0.56-2.59-1.06-4.03-1.26l0.63-0.79c1.69,0.27,3.29,0.74,4.75,1.55L54.64,103.04z"/>
		<path class="st2" d="M58.1,92.1c1.55-1.21,2.29-2.9,2.72-4.66l1.1,0.27c-0.13,0.56-0.38,1.22-0.56,1.76h3.53v-2.83H66v2.83h5.28
			v1.04H66v2.79h7.02v1.04H66v1.4h-1.12v-1.4h-7.35V93.3h7.35v-2.79h-4c-0.47,0.86-1.03,1.69-1.85,2.34L58.1,92.1z M61.14,103.04
			h-1.12v-6.61h10.59v6.61h-1.12v-1.31h-8.35V103.04z M61.14,100.69h8.35v-3.21h-8.35V100.69z"/>
		<path class="st2" d="M77.16,103.19v-9.38c-0.45,0.72-0.95,1.51-1.51,2.09l-1.01-0.67c1.62-1.78,2.59-3.98,3.31-6.19
			c0.23-0.76,0.47-1.58,0.65-2.34l0.99,0.38c-0.18,0.86-0.41,1.78-0.7,2.63l-0.59,1.71l-0.02,11.78H77.16z M90.77,103.04
			c-1.96-0.04-3.76-0.45-5.44-1.17c-1.76,0.76-3.69,1.19-5.76,1.24l-0.45-0.95c1.84,0.02,3.57-0.25,5.15-0.85
			c-0.74-0.49-1.39-1.04-1.89-1.78h-0.07c-0.59,0.68-1.28,1.19-2.11,1.46l-0.7-0.72c1.3-0.41,2.41-1.44,3.03-2.67l0.86,0.41
			c-0.07,0.2-0.25,0.36-0.31,0.56l5.64,0.02v0.81c-0.63,0.72-1.46,1.46-2.29,1.91c0.45,0.2,0.96,0.31,1.44,0.45
			c1.1,0.22,2.25,0.32,3.44,0.32L90.77,103.04z M90.54,96.06h-1.06V95.1h-4.54c0.14,0.14,0.43,0.22,0.65,0.36
			c0.27,0.16,0.61,0.38,0.88,0.63l-0.78,0.58c-0.59-0.41-1.19-0.86-1.91-1.1l0.58-0.43l-3.91-0.02v1.1h-1.04V94.2h1.39l0.02-4.83
			h3.4c0.18-0.23,0.31-0.52,0.41-0.81h-4.95l0.02-0.9h11.33v0.9h-5.28c-0.13,0.27-0.18,0.56-0.34,0.81h3.69l-0.02,4.83h1.46V96.06z
			 M82.22,96.36c-0.5,0.76-1.22,1.35-2,1.75l-0.74-0.79c0.77-0.29,1.44-0.83,2-1.48L82.22,96.36z M81.91,91.09l6.07,0.02v-0.83
			h-6.09L81.91,91.09z M81.89,91.83v0.81h6.09v-0.81H81.89z M87.98,94.2v-0.81l-6.07,0.02v0.79H87.98z M87.82,96.44
			c-0.07,0.67-0.45,1.26-0.86,1.39c-1.01,0.18-2.14,0.02-3.19,0.09c-0.34,0.02-0.77-0.29-0.94-0.72c-0.16-0.45-0.02-0.95-0.05-1.4
			l0.77-0.02v0.77c-0.05,0.27,0.09,0.58,0.45,0.58l2.48,0.02c0.49,0,0.58-0.59,0.63-0.99L87.82,96.44z M83.55,99.46
			c0.5,0.63,1.08,0.95,1.69,1.35l0.12,0.04c0.76-0.34,1.51-0.83,2.11-1.39H83.55z M89.74,97.98c-0.5-0.74-1.17-1.4-1.96-1.82
			l0.94-0.47c0.67,0.43,1.33,1.1,1.76,1.76L89.74,97.98z"/>
		<path class="st2" d="M93,100.72c1.35-0.38,2.59-1.08,3.53-2.2l0.79,0.61c-0.74,1.13-2.12,2.04-3.48,2.49L93,100.72z M107.8,98.25
			c-0.25-0.36-0.56-0.77-0.85-1.08l-12.95,0.38l-0.61-1.13c2.45,0.07,5.44,0.02,7.27-0.05v-1.13h-4.93v-5.29h4.93V89h-7.24v-1.06
			h7.24v-1.49h1.1v1.49h7.26V89h-7.26v0.94h4.95v5.29h-0.81c1.1,0.58,2.18,1.35,2.88,2.38L107.8,98.25z M100.67,92.01v-1.04h-3.82
			v1.04H100.67z M100.67,93.01h-3.82v1.19h3.82V93.01z M99.14,100.78c0,0.32,0.31,0.54,0.72,0.54h3.53c0.92,0,0.85-1.21,0.97-1.89
			l1.08,0.45c-0.22,0.86-0.29,2.45-1.71,2.45h-4.34c-0.77,0-1.35-0.43-1.35-1.06v-2.83h1.1V100.78z M102.4,100.38
			c-0.58-0.94-1.51-1.75-2.49-2.2l0.88-0.59c1.04,0.45,1.95,1.17,2.59,2.12L102.4,100.38z M101.77,92.01h3.83v-1.04h-3.83V92.01z
			 M105.6,93.01h-3.83v1.19h3.83V93.01z M105.67,96.31c-0.32-0.25-0.79-0.45-1.13-0.65l0.65-0.4l-3.42-0.04v1.1L105.67,96.31z
			 M106.27,98.63c0.32,0.09,0.56,0.23,0.86,0.4c0.95,0.5,1.78,1.31,2.39,2.25l-0.94,0.68c-0.76-1.15-1.87-2.12-3.13-2.72
			L106.27,98.63z"/>
	</g>
</g>
</svg>
