<?xml version="1.0" encoding="utf-8"?>
<!-- Generator: Adobe Illustrator 26.0.1, SVG Export Plug-In . SVG Version: 6.00 Build 0)  -->
<svg version="1.1" id="Layer_1" xmlns="http://www.w3.org/2000/svg" xmlns:xlink="http://www.w3.org/1999/xlink" x="0px" y="0px"
	 viewBox="0 0 45.67 45.68" style="enable-background:new 0 0 45.67 45.68;" xml:space="preserve">
<style type="text/css">
	.st0{fill:#FFFFFF;}
</style>
<g id="Group_87">
	<path id="Path_75" class="st0" d="M22.84,4.12c6.1,0,6.82,0.02,9.23,0.13c1.45,0.02,2.88,0.28,4.24,0.79
		c1.99,0.77,3.57,2.34,4.34,4.33c0.5,1.36,0.77,2.79,0.79,4.24c0.11,2.41,0.13,3.13,0.13,9.23s-0.02,6.82-0.13,9.23
		c-0.02,1.45-0.28,2.88-0.79,4.24c-0.77,1.99-2.34,3.57-4.34,4.33c-1.36,0.5-2.79,0.77-4.24,0.79c-2.41,0.11-3.13,0.13-9.23,0.13
		s-6.82-0.02-9.23-0.13c-1.45-0.02-2.88-0.28-4.24-0.79c-1.99-0.77-3.57-2.34-4.33-4.33c-0.5-1.36-0.77-2.79-0.79-4.24
		c-0.11-2.41-0.13-3.13-0.13-9.23s0.02-6.82,0.13-9.23c0.02-1.45,0.28-2.88,0.79-4.24C5.8,7.38,7.38,5.81,9.37,5.04
		c1.36-0.5,2.79-0.77,4.24-0.79C16.02,4.14,16.74,4.12,22.84,4.12 M22.84,0c-6.2,0-6.98,0.03-9.42,0.14
		c-1.89,0.04-3.77,0.4-5.54,1.06C4.81,2.39,2.38,4.81,1.2,7.88c-0.67,1.77-1.03,3.65-1.06,5.54C0.03,15.86,0,16.64,0,22.84
		s0.03,6.98,0.14,9.42c0.04,1.89,0.4,3.77,1.06,5.54c1.19,3.07,3.61,5.49,6.68,6.68c1.77,0.66,3.65,1.02,5.54,1.06
		c2.44,0.11,3.21,0.14,9.42,0.14s6.98-0.03,9.42-0.14c1.89-0.04,3.77-0.4,5.54-1.06c3.07-1.19,5.49-3.61,6.68-6.68
		c0.66-1.78,1.02-3.65,1.06-5.55c0.11-2.44,0.14-3.21,0.14-9.42s-0.03-6.98-0.14-9.42c-0.04-1.89-0.4-3.77-1.06-5.54
		c-1.19-3.07-3.61-5.49-6.68-6.68c-1.77-0.67-3.65-1.03-5.54-1.06C29.82,0.03,29.04,0,22.84,0"/>
	<path id="Path_76" class="st0" d="M22.84,11.11c-6.48,0-11.73,5.25-11.72,11.73c0,6.48,5.25,11.73,11.73,11.72
		c6.48,0,11.72-5.25,11.72-11.73C34.57,16.36,29.32,11.11,22.84,11.11 M22.84,30.45c-4.2,0-7.61-3.41-7.61-7.61s3.41-7.61,7.61-7.61
		s7.61,3.41,7.61,7.61l0,0C30.45,27.04,27.05,30.45,22.84,30.45C22.84,30.45,22.84,30.45,22.84,30.45"/>
	<path id="Path_77" class="st0" d="M37.77,10.65c0,1.51-1.23,2.74-2.74,2.74s-2.74-1.23-2.74-2.74c0-1.51,1.23-2.74,2.74-2.74
		S37.77,9.14,37.77,10.65L37.77,10.65"/>
</g>
</svg>
