<svg id="Layer_1" data-name="Layer 1" xmlns="http://www.w3.org/2000/svg" xmlns:xlink="http://www.w3.org/1999/xlink" viewBox="0 0 212.4 245.95"><defs><style>.cls-1,.cls-10{fill:#b65432;}.cls-1,.cls-9{opacity:0.5;}.cls-2{fill:url(#linear-gradient);}.cls-3{fill:url(#linear-gradient-2);}.cls-4{fill:url(#linear-gradient-3);}.cls-5{fill:#fff;}.cls-6{fill:url(#linear-gradient-4);}.cls-7{fill:url(#Gold_2);}.cls-8{fill:url(#Gold_2-2);}.cls-11{fill:url(#linear-gradient-5);}.cls-12{fill:url(#linear-gradient-6);}.cls-13{fill:url(#linear-gradient-7);}.cls-14{fill:url(#linear-gradient-8);}.cls-15{fill:url(#linear-gradient-9);}.cls-16{fill:url(#linear-gradient-10);}.cls-17{fill:url(#linear-gradient-11);}.cls-18{fill:url(#linear-gradient-12);}.cls-19{fill:url(#linear-gradient-13);}.cls-20{fill:url(#linear-gradient-14);}.cls-21{fill:url(#linear-gradient-15);}.cls-22{fill:url(#linear-gradient-16);}</style><linearGradient id="linear-gradient" x1="87.17" y1="246.34" x2="235.71" y2="179.99" gradientUnits="userSpaceOnUse"><stop offset="0.6" stop-color="#f8607d"/><stop offset="0.89" stop-color="#ffffd9"/></linearGradient><linearGradient id="linear-gradient-2" x1="5.26" y1="223.68" x2="153.79" y2="157.32" gradientUnits="userSpaceOnUse"><stop offset="0.25" stop-color="#f8607d"/><stop offset="0.27" stop-color="#f86982"/><stop offset="0.42" stop-color="#fba9a7"/><stop offset="0.55" stop-color="#fdd8c2"/><stop offset="0.65" stop-color="#fff4d3"/><stop offset="0.7" stop-color="#ffffd9"/></linearGradient><linearGradient id="linear-gradient-3" x1="4.22" y1="101.37" x2="152.75" y2="35.01" gradientUnits="userSpaceOnUse"><stop offset="0.74" stop-color="#f8607d"/><stop offset="0.96" stop-color="#ffffd9"/></linearGradient><linearGradient id="linear-gradient-4" x1="58.68" y1="213.17" x2="212.29" y2="57.21" gradientUnits="userSpaceOnUse"><stop offset="0.22" stop-color="#c21401"/><stop offset="0.49" stop-color="#b74e17"/><stop offset="0.6" stop-color="#ba531e"/><stop offset="0.75" stop-color="#c16131"/><stop offset="0.88" stop-color="#ca7147"/></linearGradient><linearGradient id="Gold_2" x1="207.86" y1="99.46" x2="227.38" y2="86.26" gradientUnits="userSpaceOnUse"><stop offset="0.01" stop-color="#ffce24"/><stop offset="0.25" stop-color="#ffffc8"/><stop offset="0.3" stop-color="#faf4b7"/><stop offset="0.39" stop-color="#eed88a"/><stop offset="0.52" stop-color="#daab42"/><stop offset="0.6" stop-color="#ce8e15"/><stop offset="0.84" stop-color="#f6de71"/><stop offset="0.87" stop-color="#fbe77b"/><stop offset="1" stop-color="#ffffc8"/></linearGradient><linearGradient id="Gold_2-2" x1="206.3" y1="89.03" x2="249.18" y2="60.02" xlink:href="#Gold_2"/><linearGradient id="linear-gradient-5" x1="-39.53" y1="223.26" x2="430.57" y2="310.43" gradientUnits="userSpaceOnUse"><stop offset="0.1" stop-color="#f55156"/><stop offset="0.21" stop-color="#f5595a"/><stop offset="0.38" stop-color="#f66f64"/><stop offset="0.59" stop-color="#f79475"/><stop offset="0.83" stop-color="#f9c68c"/><stop offset="1" stop-color="#faed9e"/></linearGradient><linearGradient id="linear-gradient-6" x1="-38.35" y1="216.9" x2="431.75" y2="304.07" xlink:href="#linear-gradient-5"/><linearGradient id="linear-gradient-7" x1="-37.48" y1="212.24" x2="432.62" y2="299.41" xlink:href="#linear-gradient-5"/><linearGradient id="linear-gradient-8" x1="-35.87" y1="203.57" x2="434.23" y2="290.74" xlink:href="#linear-gradient-5"/><linearGradient id="linear-gradient-9" x1="-34.07" y1="193.81" x2="436.03" y2="280.98" xlink:href="#linear-gradient-5"/><linearGradient id="linear-gradient-10" x1="100.29" y1="96.48" x2="171.3" y2="29.15" gradientUnits="userSpaceOnUse"><stop offset="0.13" stop-color="#f8537a"/><stop offset="0.24" stop-color="#f96584"/><stop offset="0.47" stop-color="#fb949f"/><stop offset="0.78" stop-color="#fedeca"/><stop offset="0.86" stop-color="#fff2d6"/></linearGradient><linearGradient id="linear-gradient-11" x1="-42.72" y1="248.53" x2="422.27" y2="334.75" xlink:href="#linear-gradient-5"/><linearGradient id="linear-gradient-12" x1="-41.22" y1="245.57" x2="421.42" y2="331.35" xlink:href="#linear-gradient-5"/><linearGradient id="linear-gradient-13" x1="-43.24" y1="242.6" x2="426.86" y2="329.78" xlink:href="#linear-gradient-5"/><linearGradient id="linear-gradient-14" x1="-40.95" y1="239.05" x2="425.35" y2="325.51" xlink:href="#linear-gradient-5"/><linearGradient id="linear-gradient-15" x1="-41.55" y1="235.61" x2="427.93" y2="322.66" xlink:href="#linear-gradient-5"/><linearGradient id="linear-gradient-16" x1="-41.26" y1="232.6" x2="428.84" y2="319.78" xlink:href="#linear-gradient-5"/></defs><title>A Yau B_logo</title><path class="cls-1" d="M142.94,181.24s-11.45,14.12,6.11,23.57c0,0-4-20.24,2.88-21.75Z" transform="translate(-30.98 -32.44)"/><path class="cls-2" d="M184.24,194.19a16.35,16.35,0,0,0-1.37,8.81l33.33.06-10.68-22.45c-4.92,2-9.13,3-12.11,3.92C191.63,185.34,188.09,187,184.24,194.19Z" transform="translate(-30.98 -32.44)"/><path class="cls-3" d="M74.57,183.68c.35.89,1.49,5.07,1.49,5.07a36.56,36.56,0,0,1-9.66-10.6c-.22-.33-.41-.66-.63-1L53.51,202.77l42,.07c-.81-.45-1.62-.92-2.43-1.44C85.22,196.41,74.57,183.68,74.57,183.68Z" transform="translate(-30.98 -32.44)"/><path class="cls-4" d="M135.05,32.44l-9,18.75c5.89-1.1,10.46-1.11,17.2-1.46Z" transform="translate(-30.98 -32.44)"/><path class="cls-5" d="M119.32,52.79c-6.75,1.92-15.42,2.06-20.53,4S83.69,64.81,78.47,70.6c-2,2.2-5.15,5.69-6,6.74-4.87,6.14-11.08,10.82-14.33,20.48-3.39,10.05-9.38,21.74-8.95,40.39,0,0,3-5.08,3.06-3.76.28,12.9,3.73,27.19,13.5,42.7l60.3-126C124,51.57,121.83,52.08,119.32,52.79Z" transform="translate(-30.98 -32.44)"/><path class="cls-5" d="M176.18,61.43a42.05,42.05,0,0,0-4.64-2.06Z" transform="translate(-30.98 -32.44)"/><path class="cls-6" d="M219.11,160.73a2.63,2.63,0,0,1,.54-1.28c.46-.57.61-.88,1.14-1.48a7.18,7.18,0,0,0,1.61-4.76c-.09-1.55-.55-5.15-7.1-4.56-.89,0-4.5.42-5.69-.65a1.57,1.57,0,0,1-.42-.69,1,1,0,0,1,0-.3.85.85,0,0,1,.24-.51l.17-.15a1.73,1.73,0,0,1,.38-.16c1.84-.4,6.08-1.44,7.68-3,2.46-1.95,4.06-4.49,3.39-6.57-.75-2.29-3.54-4.23-6-6.3,0,0,.59-.51,1-.91a14.52,14.52,0,0,0,1.93-2,8.4,8.4,0,0,0,1.53-6,8.06,8.06,0,0,0-1.05-3.22,8.7,8.7,0,0,0-2.38-2.48c-1.75-1.25-8-3.62-8.71-3.91a9.16,9.16,0,0,1-4.07-4.52A37.86,37.86,0,0,1,201,99a2.45,2.45,0,0,0,1.42-.31c1.41-.91,2-3.42,2-3.42a5.41,5.41,0,0,1-3.74,1.84c-.22-1.28-.38-2.26-.52-2.73-1-3.71-2.67-14.11-7.61-20.5-4.7-6.07-7-8.93-17.39-13,.08.08-.08-.06-.42-.34-.41-.44-1-1-1.73-1.7a45.76,45.76,0,0,0-8.42-6.26,27.68,27.68,0,0,0-4.39-1.82,17.7,17.7,0,0,0-3.77-1.14,21.55,21.55,0,0,0-8-.91c-3.23.2-6.68.32-10.37.42a88.1,88.1,0,0,0-11.73.92c-2.06.32-4.14.78-6.24,1.31a57.89,57.89,0,0,1-6.33,1.37c-4.36.75-9,1-13.91,2.21a32.87,32.87,0,0,0-7,3,75.28,75.28,0,0,0-6.62,4A62.9,62.9,0,0,0,79.84,67a37.32,37.32,0,0,0-3,3l-2.75,3-2.77,3.1c-.89,1-1.72,2.07-2.66,3.09-1.84,2-3.83,4.12-5.68,6.42a38.87,38.87,0,0,0-4.89,7.62,37.53,37.53,0,0,0-1.75,4.27l-1.5,4.13a128.17,128.17,0,0,0-5.64,17.55,79.29,79.29,0,0,0-1.9,19.11l.13,6.81,3.2-5.31a81.4,81.4,0,0,0,8.19,28.87c1.13,2.35,2.36,4.56,3.59,6.67.6,1.07,1.25,2,1.86,3s1.24,2,1.91,2.95a35.92,35.92,0,0,0,8.78,8.9l4,2.77-.78-2.56c1.94,2,3.9,4,5.88,5.88a71.28,71.28,0,0,0,5.74,4.83A46,46,0,0,0,96,204.8C104.1,209,111.8,210.23,117,211l3.18.49-2.2-2.32-.69-.74c.2,0,.4-.06.6-.11.94-.22,5.57-1.75,7.11-1.89a49.89,49.89,0,0,1,8.73,0,19,19,0,0,1,6.82,1.7,16.07,16.07,0,0,1,4.14,3.09l1.94,1.89-1-2.51a5.52,5.52,0,0,1-.41-1.86,1.8,1.8,0,0,1,.05-.31,17,17,0,0,0,4.78,2.09,12.22,12.22,0,0,0,3.21.38l1.09,0-.86-.69c-.26-.21-.49-.44-.73-.67-1.92-2.36-14-15.05-7.73-26.68a25.75,25.75,0,0,0,3.37.26,30.7,30.7,0,0,0,3.46-.05,7.08,7.08,0,0,0,3.16-1,7.94,7.94,0,0,0,2.41-2.8,6.77,6.77,0,0,0,.2-4.66,8.19,8.19,0,0,0-1.24-2.53,6.52,6.52,0,0,0-.61-.76,6.25,6.25,0,0,1,.52.82,8.48,8.48,0,0,1,1,2.56,6.05,6.05,0,0,1-.62,4.07,4.79,4.79,0,0,1-4.47,2.38,30.53,30.53,0,0,1-3.32-.18,28.5,28.5,0,0,1-3.56-.51c-2.48-.46-5.13-1-8-1.54-5.56-.47-10.9-3.9-14.64-9a25.55,25.55,0,0,1-3.9-8.25,22.31,22.31,0,0,1-.8-8.45,14.36,14.36,0,0,1,8-11.19,13.58,13.58,0,0,1,9.44-.87,28.71,28.71,0,0,1,7,4.19l-.34-.18s.67.58,1.82,1.71a44.53,44.53,0,0,1,4.43,5.15l4.25,5.84-2.83-6.77a13.54,13.54,0,0,1-1-5.27,1.38,1.38,0,0,1,.62-.42,3.62,3.62,0,0,1,1.58-.09,23.9,23.9,0,0,1,6.76,2.39c2.1,1,4,2,5.54,2.79a34.64,34.64,0,0,1,5.24,3.38,22.22,22.22,0,0,0-1.53-3.06c-.93-1.58-2.32-3.89-4-6.91a92.33,92.33,0,0,1-5.42-11.26,60.44,60.44,0,0,1-2.36-7.35,40.47,40.47,0,0,1-1.08-6.75c2.64,1.26,6.91,3.15,6.91,3.15s-1.77-5.24-2.94-9.26l.16.06,3.47,1.55a33.41,33.41,0,0,1-2.72-5.62c-2.85-8.31-4.57-16.66-3.25-24a22.93,22.93,0,0,1,4-9.6l1.51-1.9c.57-.57,1.12-1.13,1.71-1.64a23.76,23.76,0,0,1,3.58-2.63,17.47,17.47,0,0,1,7.21-2.43h0l.59-.08a13.51,13.51,0,0,1,11.27,4.44A62.35,62.35,0,0,1,194,85a70.45,70.45,0,0,1,3.19,10.39c.48,1.85.89,3.7,1.29,5.65.2,1,.41,2,.62,3a17.83,17.83,0,0,0,1,3.34,14.86,14.86,0,0,0,4.13,5.51,13.36,13.36,0,0,0,3,1.78c1.08.45,1.88.71,2.8,1.07a24.77,24.77,0,0,1,4.76,2.23,4.3,4.3,0,0,1,2.18,3.23,5.31,5.31,0,0,1-.7,3.82,13.52,13.52,0,0,1-1.45,1.67,18.44,18.44,0,0,0-1.77,2,3,3,0,0,0-.28.5,1.88,1.88,0,0,0-.14.52,1.71,1.71,0,0,0,.21,1,3.57,3.57,0,0,0,.58.66l.91.81c2.52,2.11,4.59,3.23,4.87,5.82a4.05,4.05,0,0,1-.2,1.8,8.29,8.29,0,0,1-3.41,3.69,21.08,21.08,0,0,1-3.28,1.72c.05,0,0,0-.15.05a22.54,22.54,0,0,1-2.84.79,1.24,1.24,0,0,0-.74.56,1,1,0,0,0,0,.61,2.22,2.22,0,0,0,.46.78,2.16,2.16,0,0,0,.31.29l.12.1a3.36,3.36,0,0,0,1,.55l.16,0,.31.08a8.62,8.62,0,0,0,1.47.27h0c1,.1,2.16.14,3.57.19a11.65,11.65,0,0,1,2.13.31,3.23,3.23,0,0,1,1.78,1.21c1.24,1.39.89,3.87-.6,5.24a13.58,13.58,0,0,1-1.29,1.21,5.46,5.46,0,0,0-1.59,3.29,8.75,8.75,0,0,0,.48,3.3c.31.68.58,1.29.82,1.92a9.91,9.91,0,0,1,.75,3.71,4.86,4.86,0,0,1-1.24,3.13c-1.74,2.12-3.27,3-6.45,3.89l-3.43,1c-6.48,5.1-16,5.41-16,5.41a49.68,49.68,0,0,0-4.53,4.31c-1.43,1.69-1.55,2.67-2.43,4.34-.21.42-.41.83-.62,1.24s-.37.89-.53,1.33-.24.88-.35,1.3l-.21,1.27a23.27,23.27,0,0,0-.33,4.53,29.62,29.62,0,0,0,1.29,5.9c.43,1.31.55,1.26.33-.08a33.46,33.46,0,0,1-.44-5.87,15.21,15.21,0,0,1,2.78-8.5,12.21,12.21,0,0,1,2.11-2.45c8.1-7,12.24-4.43,21.18-10.11a28.12,28.12,0,0,0,5.52-1.88,14,14,0,0,0,4.27-3.58,8.55,8.55,0,0,0,1.91-5.52,12.8,12.8,0,0,0-1.27-5A5.45,5.45,0,0,1,219.11,160.73ZM152.27,210l0,0-.5-.08Z" transform="translate(-30.98 -32.44)"/><path class="cls-7" d="M217.5,87.05c-.57,3.49-2.61,5.44-6.14,5.94,3.48.46,5.6,2.31,6.19,5.82a7.21,7.21,0,0,1,2.06-4.14,7.41,7.41,0,0,1,4.23-1.75C220.31,92.5,218.09,90.68,217.5,87.05Z" transform="translate(-30.98 -32.44)"/><path class="cls-8" d="M229.39,60.4c-1.25,7.7-5.75,12-13.52,13.1,7.65,1,12.34,5.1,13.64,12.83.68-3.47,1.87-6.68,4.54-9.11a16.44,16.44,0,0,1,9.33-3.87C235.6,72.42,230.7,68.42,229.39,60.4Z" transform="translate(-30.98 -32.44)"/><g class="cls-9"><path class="cls-10" d="M165.56,195.36s9.89-3.48,12.95-4.93c3.94-1.76,8.94-4.87,12.23-6.52l3.11-.54c2.33-.64,2.55,0,2.55,0l-3.36,2c-2.08,1.19-6.68,7.33-9.92,8.95a2.22,2.22,0,0,0-3.11-2.08C177.8,193.16,165.56,195.36,165.56,195.36Z" transform="translate(-30.98 -32.44)"/><path class="cls-10" d="M129.14,169s5.71,11.18,22.65,7.35C151.79,176.38,140.47,178.2,129.14,169Z" transform="translate(-30.98 -32.44)"/><path class="cls-10" d="M180.25,117.37l3.83-3.56,7.21,2.13S182.66,115.49,180.25,117.37Z" transform="translate(-30.98 -32.44)"/></g><path class="cls-10" d="M192.1,89.38a9.76,9.76,0,0,0-4.86-.23c-5.61,1.11-12,5.44-14,16.71,0,0,5.1-8.21,10.25-11a10.49,10.49,0,0,1,5.59-1.73c4-.32,4.41-.4,4.65-1.47A2,2,0,0,0,192.1,89.38Z" transform="translate(-30.98 -32.44)"/><path class="cls-10" d="M124.3,161.05s-2.91-10.29,3.87-13.8c6-3.09,10.25,2.3,11.4,7,1.08,4.43,2,3.52,5.56,3.53s.59,3.76,2.8,5.41,4.58,4.91,2,6.71c-1.93,1.33-3.81.78-5.49-.09-2-1-4.1-4-4.83-8.61s-3.66-12.63-10.37-10.13C125.29,152.54,123.88,155.28,124.3,161.05Z" transform="translate(-30.98 -32.44)"/><path class="cls-10" d="M195.79,113.75c1.13-3.08-1.37-8.55-2.42-9.33a8.94,8.94,0,0,0,3.56,0,8.74,8.74,0,0,1-2.47-1.13c.2,0,.26.06.26.06,4.31,1.12,5.08-3.69,5.08-3.69-2.48,2.57-5,1.81-5,1.81-2.58-.22-5.73,1.36-8.17,4.77a66.84,66.84,0,0,0-6.42,11.17l3.57-3.16c4.3,1.29,6,1.86,8.22,2a6.08,6.08,0,0,0,4.57-1.16,5.32,5.32,0,0,0,1.4-3.25s-.17.48-1.25,1.31A5.48,5.48,0,0,1,195.79,113.75Zm-.36.2c-1.38.89-1.79.8-3.72.72-3-.12-5-1.56-7.45-1.5,0,0,2.72-3.77,4.9-5.15.25.1,1.13.74,1.72.71a22.9,22.9,0,0,0,.9,2.44A6.62,6.62,0,0,0,194.6,114,.67.67,0,0,0,195.43,114Z" transform="translate(-30.98 -32.44)"/><path class="cls-11" d="M50.67,219l17.69,38.42H61.92L56.2,244.85H40.08l-5.93,12.52H31L49.09,219Zm-9.49,23.46H55l-6.83-14.87Z" transform="translate(-30.98 -32.44)"/><path class="cls-12" d="M83.28,227.2l10.47,15.29,10.42-15.29h2.75L95.23,244.33v13H90.15V244.81L78.09,227.2Z" transform="translate(-30.98 -32.44)"/><path class="cls-13" d="M130.64,226.51l14.2,30.86h-5.17l-4.59-10.06h-13l-4.76,10.06h-2.55l14.54-30.86ZM123,245.36h11.13l-5.48-12Z" transform="translate(-30.98 -32.44)"/><path class="cls-14" d="M156.26,227.2h5.08v19.59a9.92,9.92,0,0,0,.66,3.63,8.86,8.86,0,0,0,1.89,3,9,9,0,0,0,3,2,10.7,10.7,0,0,0,7.77,0,9.05,9.05,0,0,0,3-2,8.78,8.78,0,0,0,1.86-3,10.12,10.12,0,0,0,.65-3.63V227.2h2.23v19.59a12.58,12.58,0,0,1-.75,4.37,9.4,9.4,0,0,1-2.36,3.59,11.36,11.36,0,0,1-4.1,2.43,17.86,17.86,0,0,1-6,.9,15.66,15.66,0,0,1-5.52-.9,11.58,11.58,0,0,1-4-2.45,10.25,10.25,0,0,1-2.46-3.63,11.94,11.94,0,0,1-.83-4.45Z" transform="translate(-30.98 -32.44)"/><path class="cls-15" d="M198.73,219.8h15.13a21.12,21.12,0,0,1,5.51.67,14,14,0,0,1,4.31,1.88,9,9,0,0,1,2.79,2.92,7.29,7.29,0,0,1,1,3.74,11.2,11.2,0,0,1-.31,2.78,6.21,6.21,0,0,1-1.1,2.25,9.58,9.58,0,0,1-2.11,2,24.25,24.25,0,0,1-3.33,1.88V238a13.1,13.1,0,0,1,3.62,1.08A9.62,9.62,0,0,1,227,241a8.33,8.33,0,0,1,1.77,2.75,9.35,9.35,0,0,1,.62,3.44,8.85,8.85,0,0,1-.92,4,9.37,9.37,0,0,1-2.64,3.23,13,13,0,0,1-4.13,2.17,17.41,17.41,0,0,1-5.43.79H198.73Zm6.32,16.92h8a9.77,9.77,0,0,0,3.37-.54,7.34,7.34,0,0,0,2.49-1.49,6.17,6.17,0,0,0,1.55-2.27,7.55,7.55,0,0,0,.52-2.84,7.08,7.08,0,0,0-.62-3,5.93,5.93,0,0,0-1.94-2.31,9.87,9.87,0,0,0-3.35-1.48,20.13,20.13,0,0,0-4.86-.51h-5.21Zm0,17.9h6.83a19.17,19.17,0,0,0,4.77-.52,10.06,10.06,0,0,0,3.35-1.47,6,6,0,0,0,1.95-2.28,6.61,6.61,0,0,0,.64-2.92,9.45,9.45,0,0,0-.57-3.32,6.36,6.36,0,0,0-1.85-2.65,9.58,9.58,0,0,0-3.37-1.77,17.53,17.53,0,0,0-5.12-.65h-6.63Z" transform="translate(-30.98 -32.44)"/><path class="cls-16" d="M153.15,63c-.07-1-1.84-2.57-6.18-3.16s-6.91-1.55-8.53-1.55a28.65,28.65,0,0,0-11.19,1.47c-5.51,1.91-8.38,2.87-9.71,3s-3.9,1.33-3.75,2.8,1.62,1.1,2.65,1c0,0,9.49-.65,13.61-.36s17.06,5,21.19.89C153.88,65,153.22,64,153.15,63Zm-8.39-1c-.51.22-2.42.15-3.16.81s-1.84,1.18-1.55,1.54,1.25.45,1.92.52-.81.37-1.77.29-4.27-1.62-8.61-1.54-8.24-.23-12.5.65c0,0,5.44-1.83,7.43-2.64A28.88,28.88,0,0,1,137,59.94C141.09,60.09,145.28,61.71,144.76,61.93Z" transform="translate(-30.98 -32.44)"/><path class="cls-17" d="M89.51,272.24c0-.61,0-1.21,0-1.8l-.09-1.78.88,0,.87,0a8.77,8.77,0,0,0,.88,0l.88,0a9.52,9.52,0,0,1,1.34.09,3.63,3.63,0,0,1,1.1.32,1.88,1.88,0,0,1,.76.62,1.59,1.59,0,0,1,.28,1,1.92,1.92,0,0,1-.76,1.61,4.86,4.86,0,0,1-2,.82v0a4.57,4.57,0,0,1,2.32.6,1.89,1.89,0,0,1,.85,1.73,2.21,2.21,0,0,1-.38,1.31,2.74,2.74,0,0,1-1,.85,4.58,4.58,0,0,1-1.35.46,8.08,8.08,0,0,1-1.46.13H90.18l-.8,0,.09-1.77c0-.59,0-1.19,0-1.8Zm2.25.68a7.33,7.33,0,0,0,1.15-.09,3.82,3.82,0,0,0,1-.33,2,2,0,0,0,.72-.61,1.66,1.66,0,0,0,.27-1,1.49,1.49,0,0,0-.25-.91,1.72,1.72,0,0,0-.63-.53,3.09,3.09,0,0,0-.86-.25,7.73,7.73,0,0,0-1-.06l-.72,0-.53.05c0,.45,0,.89-.07,1.32s0,.88,0,1.32v1Zm-.89,1.94c0,.47,0,.94,0,1.4s0,.93.07,1.4l.74,0,.88,0a3.5,3.5,0,0,0,1-.15,2.57,2.57,0,0,0,.85-.45,2.36,2.36,0,0,0,.58-.74,2.25,2.25,0,0,0,.21-1,1.72,1.72,0,0,0-.26-1,1.62,1.62,0,0,0-.73-.6,4.27,4.27,0,0,0-1.15-.3,13.59,13.59,0,0,0-1.5-.08h-.74Z" transform="translate(-30.98 -32.44)"/><path class="cls-18" d="M106.19,270.44l-.09-1.78,1.48,0,1.48,0,1.47,0,1.47,0a1.75,1.75,0,0,0,0,.83l-1-.05-.92-.06-1.07-.05-1.39,0c0,.3,0,.58,0,.85s0,.57,0,.92,0,.71,0,1.05,0,.6,0,.78h1.31l1.06,0,.88,0,.77-.05a1.83,1.83,0,0,0,0,.85l-1-.07-1.14,0H107.6a2.44,2.44,0,0,1,0,.27c0,.1,0,.22,0,.37v1.38c0,.53,0,1,0,1.3s0,.61,0,.78h1.15c.42,0,.83,0,1.24,0l1.14-.05a9.2,9.2,0,0,0,.93-.11,1.43,1.43,0,0,0,0,.22,1.62,1.62,0,0,0,0,.21,1.15,1.15,0,0,0,0,.36l-1.48,0h-3l-1.5,0,.09-1.77c0-.59,0-1.19,0-1.8v-2.39C106.23,271.63,106.21,271,106.19,270.44Z" transform="translate(-30.98 -32.44)"/><path class="cls-19" d="M130.24,278.2l-.44,0h-.88l-.44,0c-.07-.21-.18-.47-.31-.77s-.28-.61-.44-.94l-.49-1c-.16-.34-.32-.66-.46-1l-1.07,0h-2.1l-1,0q-.54,1.08-1,2.07c-.29.65-.5,1.19-.65,1.61l-.61,0-.61,0q1.33-2.43,2.61-4.83t2.56-4.89h.32l.86,1.74.94,1.9,1,1.9.9,1.76.76,1.45C129.91,277.66,130.09,278,130.24,278.2Zm-7.33-4.32.89,0h1.82l.93,0-1.84-3.53Z" transform="translate(-30.98 -32.44)"/><path class="cls-20" d="M146.87,273.17c0-1.31,0-2.33,0-3a12.76,12.76,0,0,0-.08-1.47l.35,0,.33,0a2.4,2.4,0,0,0,.49-.07c0,.32-.06.71-.1,1.16s-.06.93-.08,1.44,0,1.05-.07,1.59,0,1.07,0,1.57a4.55,4.55,0,0,1-.34,1.67,3.48,3.48,0,0,1-.92,1.25,4,4,0,0,1-1.46.78,6.78,6.78,0,0,1-2,.26,5.56,5.56,0,0,1-3.6-.94,3.7,3.7,0,0,1-1.13-3c0-.43,0-.82.05-1.16s0-.68,0-1c0-.78,0-1.47,0-2.07s0-1.12-.06-1.53l.43,0,.43,0,.35,0,.36,0c0,.2,0,.47-.07.8s0,.7-.06,1.12,0,.86,0,1.34,0,1,0,1.5c0,.32,0,.65,0,1a6.38,6.38,0,0,0,.11,1,3.74,3.74,0,0,0,.33.92,2.27,2.27,0,0,0,.63.76,3.17,3.17,0,0,0,1,.52,5.77,5.77,0,0,0,1.56.18,4.58,4.58,0,0,0,1.53-.22,3,3,0,0,0,1-.58,2.55,2.55,0,0,0,.62-.84,4.19,4.19,0,0,0,.33-1,7.36,7.36,0,0,0,.11-1C146.86,273.78,146.87,273.46,146.87,273.17Z" transform="translate(-30.98 -32.44)"/><path class="cls-21" d="M160,269.38h-.9l-.94,0-.91,0-.79.07a1.25,1.25,0,0,0,.08-.44,1.41,1.41,0,0,0-.08-.43l2.13,0,2.14,0,2.13,0,2.13,0a1.79,1.79,0,0,0-.08.44,1.52,1.52,0,0,0,.08.43l-.78-.07-.91,0-.94,0h-.91c0,.95-.05,1.91-.05,2.88v2.39c0,.61,0,1.21.05,1.8s0,1.18.09,1.75l-.81,0-.81,0c0-.57.06-1.15.09-1.75s0-1.19,0-1.8v-2.39C160,271.29,160,270.33,160,269.38Z" transform="translate(-30.98 -32.44)"/><path class="cls-22" d="M176.3,274.3l-.49-.69-.71-1-.82-1.15-.82-1.16-.7-1-.48-.66.46,0,.45,0,.45,0,.46,0c.5.8,1,1.6,1.51,2.37s1.06,1.59,1.63,2.44c.25-.34.52-.7.79-1.1s.56-.81.83-1.23.54-.83.79-1.25.49-.83.72-1.23a5.07,5.07,0,0,0,.64.07,5.39,5.39,0,0,0,.65-.07l-1.43,1.83c-.42.55-.78,1-1.1,1.49s-.61.84-.85,1.2-.45.68-.63,1c0,.34,0,.71,0,1.09s0,.78,0,1.15,0,.72,0,1a6.52,6.52,0,0,0,.06.77l-.81,0-.81,0a16.13,16.13,0,0,0,.11-1.75C176.29,275.77,176.3,275.05,176.3,274.3Z" transform="translate(-30.98 -32.44)"/></svg>