<?xml version="1.0" encoding="utf-8"?>
<!-- Generator: Adobe Illustrator 24.0.1, SVG Export Plug-In . SVG Version: 6.00 Build 0)  -->
<svg version="1.1" id="圖層_1" xmlns="http://www.w3.org/2000/svg" xmlns:xlink="http://www.w3.org/1999/xlink" x="0px" y="0px"
	 viewBox="0 0 683 103" style="enable-background:new 0 0 683 103;" xml:space="preserve">
<style type="text/css">
	.st0{enable-background:new    ;}
	.st1{fill:#F58F8E;}
	.st2{fill:#707070;}
	.st3{fill:none;stroke:#707070;stroke-width:0.3;stroke-miterlimit:4.0005;}
	.st4{fill:#95918E;}
	.st5{fill:#FFFFFF;}
	.st6{fill:#A67C52;}
</style>
<g id="Group_1174" transform="translate(530 -536)">
	<g id="Group_1173" transform="translate(947.815 1465.916)">
		<g id="Group_1166">
			<g id="Group_1163">
				<g id="Group_1160">
					<path id="Path_43911" class="st6" d="M-867.913-860.761c-0.217,0-0.435-0.012-0.651-0.036c-3.234-0.351-5.45-3.387-6.079-8.331
						l-0.058-0.457c-0.3-2.369-0.6-4.818-2.083-6.466c-1.258-1.396-3.21-1.938-5.008-1.392c-1.754,0.613-2.913,2.286-2.87,4.143
						c0.137,1.821,1.537,3.294,3.349,3.523c0.891,0.04,1.761-0.271,2.425-0.866c0.649-0.542,1.056-1.32,1.132-2.162
						c0.026-0.414,0.382-0.729,0.796-0.703c0.414,0.026,0.729,0.382,0.704,0.796c-0.101,1.242-0.692,2.393-1.642,3.2
						c-0.964,0.861-2.231,1.305-3.522,1.232c-2.565-0.282-4.559-2.36-4.737-4.934c-0.066-2.526,1.504-4.807,3.887-5.648
						c2.365-0.729,4.938-0.023,6.6,1.81c1.8,2,2.146,4.805,2.456,7.282l0.057,0.454c0.252,1.985,1.222,6.645,4.752,7.028
						c1.369,0.178,2.734-0.353,3.624-1.408c1.033-1.252,1.395-2.927,0.969-4.494c-0.331-1.217-1.253-2.185-2.452-2.575
						c-0.863-0.268-1.803-0.037-2.443,0.6c-0.677,0.669-0.926,1.659-0.647,2.569c0.181,0.719,0.769,1.263,1.5,1.387
						c0.408,0.069,0.683,0.457,0.614,0.865c-0.069,0.408-0.457,0.683-0.865,0.614c-1.295-0.22-2.344-1.172-2.687-2.44
						c-0.435-1.459-0.023-3.039,1.068-4.1c1.027-0.994,2.512-1.352,3.879-0.936c1.706,0.533,3.02,1.903,3.482,3.63
						c0.565,2.044,0.086,4.235-1.279,5.857C-864.708-861.468-866.271-860.751-867.913-860.761z"/>
				</g>
				<g id="Group_1161">
					<path id="Path_43912" class="st6" d="M-880.433-877.668c-0.626,0.002-1.247-0.1-1.84-0.3c-2.383-0.84-3.953-3.121-3.887-5.647
						c0.177-2.574,2.172-4.652,4.737-4.935c1.291-0.072,2.558,0.372,3.522,1.233c0.95,0.807,1.541,1.958,1.642,3.2
						c0.026,0.414-0.289,0.771-0.703,0.797c-0.414,0.026-0.771-0.289-0.797-0.703l0,0c-0.076-0.842-0.483-1.62-1.132-2.162
						c-0.662-0.598-1.534-0.909-2.425-0.867c-1.812,0.229-3.212,1.703-3.349,3.524c-0.042,1.857,1.116,3.53,2.87,4.143
						c1.798,0.546,3.75,0.003,5.008-1.392c1.481-1.649,1.787-4.1,2.083-6.467l0.058-0.457c0.629-4.943,2.845-7.979,6.078-8.331
						c1.86-0.223,3.708,0.499,4.925,1.924c1.365,1.622,1.844,3.813,1.279,5.857c-0.462,1.727-1.776,3.096-3.482,3.629
						c-1.367,0.416-2.852,0.058-3.879-0.935c-1.091-1.062-1.503-2.641-1.068-4.1c0.343-1.268,1.392-2.22,2.687-2.439
						c0.406-0.083,0.802,0.179,0.885,0.585c0.083,0.406-0.179,0.802-0.585,0.885c-0.016,0.003-0.033,0.006-0.049,0.008
						c-0.731,0.124-1.319,0.669-1.5,1.388c-0.279,0.91-0.03,1.899,0.647,2.568c0.641,0.637,1.58,0.868,2.443,0.6
						c1.199-0.39,2.121-1.358,2.452-2.574c0.427-1.568,0.065-3.246-0.969-4.5c-0.89-1.055-2.255-1.586-3.624-1.408
						c-3.53,0.383-4.5,5.043-4.752,7.029l-0.057,0.454c-0.31,2.476-0.661,5.284-2.456,7.282
						C-876.894-878.441-878.621-877.676-880.433-877.668z"/>
				</g>
				<g id="Group_1162">
					<path id="Path_43913" class="st6" d="M-852.443-863.527c-0.328,0-0.618-0.213-0.717-0.526
						c-0.174-0.559-4.456-13.679-19.558-13.679c-0.414,0-0.75-0.336-0.75-0.75c0-0.414,0.336-0.75,0.75-0.75
						c8.763,0.192,16.656-5.273,19.559-13.544c0.124-0.395,0.545-0.615,0.94-0.491c0.056,0.018,0.109,0.042,0.16,0.072
						l23.779,14.137c0.356,0.211,0.474,0.67,0.263,1.026c-0.064,0.108-0.155,0.199-0.263,0.263l-23.779,14.136
						C-852.175-863.563-852.308-863.526-852.443-863.527z M-866.653-878.478c9.47,2.487,13.49,10.436,14.594,13.1l21.926-13.036
						l-21.929-13.036C-853.168-888.808-857.191-880.943-866.653-878.478z"/>
				</g>
			</g>
			<g id="Group_1164">
				<path id="Path_43914" class="st6" d="M-869.996-877.664h-573.971c-0.414,0-0.75-0.336-0.75-0.75c0-0.414,0.336-0.75,0.75-0.75
					h573.971c0.414,0,0.75,0.336,0.75,0.75C-869.246-877.999-869.582-877.664-869.996-877.664z"/>
			</g>
			<g id="Group_1165">
				<path id="Path_43915" class="st6" d="M-852.444-863.527c-0.414,0-0.75-0.336-0.75-0.75c0-0.169,0.057-0.332,0.162-0.465
					l10.909-13.79l-10.9-13.548c-0.26-0.323-0.209-0.795,0.114-1.055c0.323-0.26,0.795-0.209,1.055,0.114l11.28,14.014
					c0.218,0.274,0.218,0.662,0,0.936l-11.279,14.259C-851.996-863.631-852.214-863.526-852.444-863.527z"/>
			</g>
		</g>
	</g>
</g>
</svg>
