<?xml version="1.0" encoding="utf-8"?>
<!-- Generator: Adobe Illustrator 24.0.1, SVG Export Plug-In . SVG Version: 6.00 Build 0)  -->
<svg version="1.1" id="圖層_1" xmlns="http://www.w3.org/2000/svg" xmlns:xlink="http://www.w3.org/1999/xlink" x="0px" y="0px"
	 viewBox="0 0 573 204" style="enable-background:new 0 0 573 204;" xml:space="preserve">
<style type="text/css">
	.st0{enable-background:new    ;}
	.st1{fill:#F58F8E;}
	.st2{fill:#707070;}
	.st3{fill:none;stroke:#707070;stroke-width:0.3;stroke-miterlimit:4.0005;}
	.st4{fill:#95918E;}
</style>
<g class="st0">
	<path class="st1" d="M72.841,57.134c0.815-4.623,1.36-8.907,1.7-13.326l4.146,0.408c-0.067,2.651-1.291,10.267-1.495,12.918h14.278
		c-0.068,11.016-2.652,22.71-7.615,31.209c3.061,2.04,6.324,4.624,9.043,7.207l-2.787,3.604c-2.584-2.379-5.439-5.031-8.432-7.07
		c-3.808,4.623-9.043,8.431-14.074,11.422c-1.02,0.612-2.176,0.952-3.195,1.564h-0.477c-0.816-1.36-1.904-2.652-2.72-3.943
		c3.808-1.428,7.548-3.468,10.879-5.779c2.108-1.496,4.284-3.74,5.779-5.644c-1.021-0.681-2.176-1.292-3.264-1.836
		c-2.72-1.224-6.255-2.72-9.11-3.536c3.195-7.411,5.303-14.754,6.662-23.117h-9.043v-4.08H72.841z M76.512,61.214
		c-1.223,7.207-3.264,14.074-5.643,20.806c3.195,1.02,6.527,2.448,9.52,3.943c3.398-5.644,5.914-13.666,6.527-24.749H76.512z
		 M113.5,97.318v-4.08h-13.055v4.352h-4.352V51.423h21.758v45.896H113.5z M100.445,55.502v33.657H113.5V55.502H100.445z"/>
	<path class="st1" d="M140.094,73.929c5.984-5.779,9.928-12.239,13.055-19.242c1.836-4.012,3.536-8.023,4.828-12.104
		c1.291,0.545,2.584,1.36,3.875,1.973c-1.836,4.555-3.467,9.994-5.643,14.482l0.068,45.963h-4.352V66.313
		c-2.244,3.399-5.305,7.615-8.092,10.402L140.094,73.929z M194.896,102.758c-2.855,1.903-7.139,0.611-10.742,1.088l-1.428-4.556
		c2.719,0.204,5.643,0.271,8.431,0.136c0.747-0.204,1.292-0.952,1.563-1.563l0.068-46.372h-30.325v-4.147H203.6l-0.068,4.216
		l-6.322-0.068l0.067,47.12C197.004,100.174,196.393,101.737,194.896,102.758z M185.377,91.131h-4.352v-4.691h-11.422l-0.068,4.827
		l-4.42-0.068l0.068-29.849h20.193V91.131z M169.604,82.359h11.422V65.497h-11.49L169.604,82.359z"/>
	<path class="st1" d="M222.918,74.813c3.672-5.1,7.072-10.131,9.588-16.114c2.107-5.032,3.875-10.676,5.643-15.911
		c1.225,0.477,2.721,1.088,3.876,1.632c-1.224,4.216-2.72,8.432-4.147,12.511l-1.225,3.468v44.672h-4.215l0.068-36.377
		c-1.836,2.788-4.352,6.12-6.527,8.84L222.918,74.813z M239.44,101.193c5.032-1.768,9.995-4.079,13.938-8.159
		c-3.127-2.72-6.391-6.527-8.906-9.654l3.604-2.244c2.787,3.332,4.895,5.848,8.023,8.363c1.291-1.632,2.107-3.332,2.719-5.304
		c0.271-1.428,0.408-3.06,0.748-5.371h-15.707v-18.29l15.911-0.068v-5.779h-18.901v-4.147h18.901v-7.888l4.487-0.068v7.956H283.5
		v4.147h-19.174v5.848h15.91l-0.068,18.29h-16.046c-0.748,7.071-1.563,9.383-4.216,13.326c0.271,0.408,0.816,0.68,1.225,0.816
		c7.343,4.896,16.453,6.187,25.564,7.207l-2.584,4.216c-2.243-0.137-4.555-0.612-6.799-1.088c-7.139-1.428-13.938-3.74-20.125-7.548
		c-4.42,4.284-9.316,6.936-14.416,9.247L239.44,101.193z M259.771,64.613l-11.763,0.068v9.995l11.695,0.067L259.771,64.613z
		 M276.021,64.613l-11.695,0.068v9.995h11.627L276.021,64.613z"/>
	<path class="st1" d="M360.816,98.202c0,2.787-2.04,5.031-4.623,5.031h-6.732l-1.359-4.42c2.855,0.272,4.555,0.408,6.663,0.34
		c0.952,0,1.836-0.476,1.836-1.835V81.34h-16.658v16.658h-4.147V81.34H319.34c-0.68,6.799-0.951,10.946-5.1,17.271
		c-1.359,2.039-2.65,4.011-4.759,6.459l-3.604-2.788c2.584-3.06,4.692-5.779,6.324-9.247c1.972-4.147,2.379-7.411,2.855-12.782
		c0.204-2.04,0.137-4.624,0.137-7.071V45.983h45.623V98.202z M319.408,49.927v11.559h16.387V49.927H319.408z M319.408,77.464h16.387
		V65.361h-16.387V77.464z M339.942,61.485h16.658V49.927h-16.658V61.485z M339.942,65.361v12.103h16.658V65.361H339.942z"/>
</g>
<g class="st0">
	<path class="st2" d="M247.009,95.079c0.681-0.182,1.244-0.06,1.693,0.366c0.447,0.427,0.779,1.036,0.992,1.83
		c0.592,2.21,0.722,4.681,0.392,7.412c-0.331,2.73-0.91,5.499-1.737,8.302c-0.828,2.805-1.836,5.503-3.022,8.1
		c-1.188,2.597-2.37,4.873-3.546,6.828c-0.001,4.071,0.176,8.079,0.536,12.022c0.358,3.943,0.971,7.529,1.837,10.76
		c0.684,2.55,1.528,4.738,2.534,6.564c1.005,1.826,2.199,3.161,3.58,4.006c0.677,0.487,1.069,0.928,1.176,1.325
		c0.137,0.51-0.051,0.833-0.561,0.97c-0.34,0.091-0.801,0.018-1.381-0.221c-0.581-0.241-1.211-0.724-1.893-1.452
		c-0.942-1.023-1.829-2.457-2.656-4.3c-0.829-1.843-1.562-3.955-2.199-6.334c-0.774-2.891-1.417-6.073-1.923-9.553
		c-0.509-3.477-0.865-7.072-1.07-10.784c-1.03,1.369-2.055,2.646-3.072,3.831c-1.412,1.533-2.907,2.92-4.488,4.165
		c-1.579,1.243-3.144,2.377-4.692,3.399c-0.247,3.833-0.549,7.528-0.9,11.084c-0.354,3.558-0.704,6.718-1.056,9.485
		s-0.681,4.997-0.985,6.688c-0.308,1.691-0.544,2.561-0.714,2.606c-0.341,0.091-0.72-0.187-1.136-0.834
		c-0.417-0.648-0.772-1.296-1.067-1.945c-0.577-1.244-1.212-2.532-1.901-3.865c-0.692-1.333-1.458-2.602-2.296-3.804
		c-0.84-1.202-1.791-2.313-2.854-3.335c-1.064-1.021-2.234-1.876-3.513-2.566c-1.638-0.899-2.556-1.714-2.753-2.452
		c-0.151-0.565,0.088-1.146,0.718-1.741c0.631-0.593,1.421-1.156,2.372-1.685c0.953-0.527,1.908-0.981,2.87-1.361
		c0.961-0.379,1.683-0.692,2.162-0.943c1.397-0.678,2.908-1.387,4.532-2.128c1.624-0.738,3.266-1.633,4.93-2.687
		c0.13-3.134,0.201-6.266,0.213-9.397c0.011-3.131-0.025-6.098-0.108-8.901c-0.084-2.803-0.245-5.386-0.483-7.752
		c-0.24-2.364-0.564-4.313-0.975-5.843c-0.714-2.663-1.667-3.836-2.856-3.518c-1.021,0.273-1.987,0.976-2.899,2.1
		c-0.914,1.126-1.744,2.503-2.492,4.13c-0.748,1.628-1.395,3.412-1.938,5.349c-0.544,1.938-0.963,3.889-1.256,5.85
		c-0.294,1.962-0.444,3.84-0.449,5.632c-0.006,1.795,0.167,3.343,0.517,4.646c0.273,1.02,0.671,1.823,1.193,2.412
		c0.363,0.45,0.743,0.621,1.141,0.515c0.112-0.03,0.186,0.012,0.216,0.125c0.045,0.169-0.063,0.442-0.328,0.816
		c-0.264,0.375-0.623,0.623-1.076,0.744c-0.454,0.122-1.076-0.106-1.869-0.683c-0.792-0.578-1.469-1.915-2.031-4.013
		c-0.639-2.38-0.768-5.124-0.386-8.233c0.381-3.11,1.099-6.096,2.153-8.961c1.055-2.863,2.371-5.373,3.949-7.528
		c1.579-2.154,3.247-3.467,5.004-3.938c1.246-0.334,2.273-0.017,3.08,0.951c0.807,0.969,1.476,2.445,2.008,4.429
		c0.455,1.699,0.806,3.688,1.05,5.959c0.245,2.274,0.414,4.719,0.51,7.335c0.094,2.618,0.101,5.365,0.022,8.24
		c-0.08,2.878-0.194,5.733-0.346,8.567c1.549-1.022,3.087-2.133,4.619-3.334c1.53-1.2,2.973-2.559,4.328-4.077
		c0.559-0.636,1.113-1.286,1.664-1.95c0.551-0.664,1.091-1.371,1.619-2.119c-0.214-4.195-0.242-8.319-0.083-12.371
		c0.158-4.052,0.545-7.709,1.159-10.971c0.613-3.263,1.436-5.974,2.467-8.133C244.282,96.752,245.535,95.475,247.009,95.079z
		 M223.546,171.714c0.164-0.287,0.357-1.267,0.58-2.935c0.22-1.669,0.44-3.794,0.66-6.373c0.22-2.581,0.433-5.523,0.64-8.828
		c0.207-3.306,0.38-6.739,0.519-10.299c-1.62,0.982-3.229,1.838-4.823,2.569c-1.596,0.732-3.093,1.438-4.49,2.115
		c-0.324,0.148-0.936,0.419-1.833,0.812c-0.896,0.392-1.824,0.839-2.784,1.338c-0.96,0.5-1.79,1.026-2.493,1.58
		c-0.701,0.553-0.984,1.084-0.848,1.594c0.092,0.34,0.336,0.685,0.732,1.033c0.398,0.35,1.02,0.743,1.867,1.185
		c2.685,1.407,4.864,3.358,6.536,5.857c1.672,2.496,3.143,5.093,4.413,7.792c0.279,0.592,0.548,1.142,0.807,1.651
		C223.285,171.312,223.458,171.615,223.546,171.714z M241.769,127.191c1.051-1.74,2.122-3.863,3.212-6.374
		c1.089-2.509,2.025-5.129,2.813-7.861c0.785-2.73,1.333-5.445,1.645-8.141c0.31-2.694,0.177-5.118-0.401-7.273
		c-0.137-0.51-0.322-0.915-0.555-1.217c-0.232-0.302-0.519-0.408-0.858-0.317c-0.795,0.213-1.538,1.231-2.232,3.059
		c-0.695,1.827-1.311,4.178-1.845,7.055c-0.535,2.876-0.963,6.151-1.285,9.821C241.938,119.614,241.774,123.362,241.769,127.191z"/>
	<path class="st2" d="M282.745,122.675c0.793-0.213,1.235-0.15,1.327,0.19c0.075,0.284-0.184,0.566-0.776,0.847
		c-0.989,0.387-2.263,0.849-3.819,1.387c-1.557,0.54-3.156,1.028-4.8,1.469c-1.076,0.289-2.09,0.531-3.041,0.724
		c-0.949,0.195-1.787,0.297-2.514,0.311c0.394,0.563,0.714,1.19,0.961,1.883c0.246,0.694,0.424,1.239,0.53,1.634
		c0.429,1.83,0.342,3.432-0.261,4.807c-0.603,1.378-1.358,2.188-2.264,2.431c-0.625,0.167-1.221,0.039-1.789-0.386
		c-0.57-0.424-1.014-1.231-1.333-2.422c-0.38-1.416-0.505-3.069-0.373-4.957c0.132-1.888,0.444-3.384,0.938-4.489
		c0.327-0.817,0.717-1.286,1.172-1.408c0.395-0.106,0.662,0.095,0.799,0.606c0.076,0.283,0.075,0.618-0.004,1.003
		c0.371,0.023,0.766,0.251,1.187,0.685c1.11,0.066,2.487-0.121,4.132-0.562c1.756-0.471,3.549-1.088,5.381-1.852
		C280.027,123.813,281.543,123.178,282.745,122.675z M267.441,137.984c0.566-0.151,0.991-0.552,1.271-1.205
		c0.281-0.652,0.429-1.406,0.442-2.26c0.014-0.854-0.04-1.734-0.162-2.645c-0.122-0.908-0.282-1.731-0.479-2.468
		c-0.167-0.623-0.329-1.11-0.484-1.464c-0.155-0.353-0.289-0.515-0.402-0.484c-0.072-0.041-0.141-0.067-0.204-0.082
		c-0.065-0.013-0.141-0.068-0.228-0.168c-0.531,1.418-0.924,3.013-1.179,4.781c-0.254,1.769-0.243,3.286,0.034,4.547
		C266.354,137.67,266.817,138.152,267.441,137.984z"/>
	<path class="st2" d="M321.065,112.672c0.311-0.204,0.492-0.314,0.55-0.33c0.34-0.091,0.548,0.006,0.624,0.289
		c0.091,0.34-0.096,0.664-0.56,0.97c-1.054,0.83-2.423,1.729-4.106,2.696c-1.686,0.968-3.377,1.68-5.076,2.136
		c-1.191,0.319-2.334,0.475-3.431,0.463c-1.096-0.01-2.062-0.327-2.897-0.955c-0.036,0.557-0.145,1.467-0.326,2.73
		c-0.182,1.264-0.456,2.583-0.823,3.957c-0.366,1.373-0.846,2.611-1.439,3.711c-0.593,1.1-1.318,1.766-2.176,1.995
		c-0.799,0.214-1.496-0.161-2.091-1.125s-1.073-2.127-1.438-3.487c-0.471-1.756-0.711-3.331-0.721-4.727
		c-0.281,0.744-0.605,1.561-0.969,2.446c-0.363,0.887-0.746,1.703-1.147,2.449c-0.402,0.745-0.802,1.384-1.2,1.916
		c-0.398,0.533-0.794,0.851-1.187,0.956c-0.563,0.151-1.067-0.107-1.518-0.778c-0.45-0.668-0.804-1.483-1.063-2.448
		c-0.213-0.793-0.373-1.616-0.482-2.468c-0.108-0.851-0.105-1.626,0.009-2.325c0.083-0.812,0.246-1.433,0.492-1.864
		c0.247-0.431,0.51-0.683,0.791-0.759c0.449-0.12,0.772,0.188,0.97,0.925c0.091,0.34,0.151,0.733,0.181,1.182
		c0.028,0.449,0.005,0.864-0.071,1.25c-0.022,1.04-0.045,2.078-0.067,3.116c-0.021,1.039,0.052,1.87,0.219,2.493
		c0.121,0.454,0.294,0.649,0.518,0.589c0.337-0.09,0.717-0.464,1.143-1.126c0.423-0.661,0.851-1.427,1.277-2.302
		c0.427-0.872,0.844-1.789,1.248-2.748c0.404-0.958,0.728-1.773,0.969-2.447l0.223-0.515c0.11-0.272,0.277-0.439,0.504-0.5
		c0.283-0.076,0.502,0.171,0.653,0.735c0.03,0.115,0.072,0.271,0.125,0.468c0.054,0.199,0.073,0.392,0.063,0.576
		c0.031,1.026,0.112,2.234,0.243,3.625c0.13,1.393,0.348,2.656,0.651,3.789c0.197,0.737,0.433,1.328,0.705,1.771
		c0.272,0.444,0.638,0.604,1.097,0.48c0.63-0.169,1.208-0.763,1.734-1.787c0.524-1.021,0.969-2.173,1.331-3.455
		c0.362-1.282,0.636-2.554,0.817-3.819c0.183-1.263,0.282-2.201,0.3-2.814c-0.332-0.334-0.605-0.672-0.817-1.01
		c-0.213-0.338-0.394-0.791-0.546-1.357c-0.403-1.956-0.322-3.012,0.246-3.165c0.452-0.121,0.885,0.583,1.295,2.113
		c0.121,0.454,0.197,0.965,0.229,1.534c0.03,0.57,0.058,1.124,0.081,1.664c0.764,0.585,1.6,0.924,2.505,1.015
		c0.904,0.091,1.868,0,2.888-0.274c1.756-0.471,3.487-1.268,5.19-2.394S319.913,113.591,321.065,112.672z"/>
	<path class="st2" d="M394.426,71.591c0.696-0.125,1.186-0.165,1.472-0.12c0.285,0.045,0.443,0.124,0.474,0.236
		c0.061,0.228-0.082,0.493-0.425,0.797c-0.344,0.306-0.714,0.511-1.109,0.617c-0.583,0.098-1.177,0.149-1.78,0.158
		c-0.605,0.011-1.191,0.092-1.757,0.244c-2.921,0.662-5.825,1.334-8.709,2.017c-2.885,0.681-5.772,1.41-8.662,2.185
		c-2.21,0.592-4.413,1.214-6.607,1.863c-2.195,0.65-4.355,1.32-6.478,2.011c-0.466,2.798-0.946,5.934-1.441,9.407
		c-0.497,3.475-0.904,6.94-1.222,10.396c-0.319,3.456-0.484,6.69-0.498,9.7c-0.013,3.011,0.225,5.422,0.711,7.236
		c0.213,0.793,0.563,1.536,1.052,2.224c0.487,0.688,1.213,0.903,2.178,0.645c1.189-0.319,2.529-1.438,4.021-3.356
		c1.49-1.917,2.955-4.103,4.393-6.553c1.439-2.451,2.774-4.889,4.008-7.316c1.231-2.426,2.178-4.333,2.838-5.727
		c0.135-0.4,0.344-0.64,0.628-0.716c0.283-0.076,0.464,0.028,0.539,0.312c0.062,0.228,0.015,0.513-0.135,0.856
		c-0.482,0.92-1.078,2.097-1.786,3.531c-0.709,1.436-1.502,2.955-2.379,4.556c-0.877,1.603-1.819,3.238-2.83,4.905
		s-2.031,3.188-3.061,4.557c-1.031,1.369-2.053,2.539-3.068,3.511c-1.016,0.97-1.977,1.578-2.883,1.821
		c-1.135,0.304-2.096,0-2.887-0.912c-0.792-0.913-1.43-2.274-1.916-4.087c-0.532-1.983-0.904-4.389-1.115-7.219
		c-0.212-2.827-0.291-5.783-0.236-8.867c0.054-3.08,0.212-6.175,0.472-9.284c0.261-3.106,0.598-5.93,1.01-8.471
		c-1.728,0.585-3.326,1.136-4.798,1.651c-1.471,0.516-2.913,1.085-4.326,1.706c-0.762,0.327-1.489,0.673-2.181,1.041
		c-0.69,0.367-1.417,0.714-2.182,1.04c-0.21,0.117-0.487,0.222-0.827,0.313c-0.68,0.182-1.05,0.16-1.111-0.066
		c-0.075-0.283,0.459-0.67,1.603-1.159c2.305-0.921,4.601-1.764,6.885-2.529c2.286-0.764,4.624-1.558,7.017-2.381
		c0.262-1.286,0.52-2.478,0.771-3.579c0.252-1.1,0.512-2.051,0.783-2.854c0.584-1.674,1.187-2.596,1.811-2.763
		c0.453-0.121,0.779,0.188,0.977,0.923c0.168,0.624,0.16,1.506-0.019,2.648l-0.714,4.473c3.89-1.345,7.733-2.587,11.528-3.729
		c3.796-1.138,7.647-2.232,11.558-3.281c1.701-0.456,3.414-0.916,5.144-1.379C390.88,72.359,392.639,71.95,394.426,71.591z"/>
	<path class="st2" d="M402.178,90.653c0.794-0.212,1.236-0.15,1.327,0.191c0.076,0.284-0.184,0.566-0.775,0.846
		c-0.99,0.387-2.264,0.849-3.819,1.387c-1.558,0.54-3.157,1.028-4.8,1.469c-1.077,0.289-2.091,0.531-3.041,0.724
		c-0.95,0.195-1.788,0.297-2.514,0.311c0.393,0.563,0.714,1.19,0.961,1.883c0.246,0.694,0.423,1.239,0.529,1.634
		c0.43,1.83,0.342,3.432-0.26,4.808c-0.604,1.378-1.359,2.188-2.265,2.43c-0.624,0.167-1.22,0.04-1.789-0.386
		c-0.569-0.424-1.014-1.231-1.333-2.422c-0.379-1.416-0.504-3.069-0.372-4.957s0.444-3.384,0.938-4.489
		c0.327-0.817,0.717-1.286,1.171-1.408c0.396-0.106,0.663,0.096,0.8,0.606c0.076,0.283,0.074,0.617-0.004,1.003
		c0.371,0.023,0.765,0.251,1.186,0.685c1.111,0.066,2.488-0.121,4.133-0.562c1.756-0.471,3.549-1.088,5.38-1.852
		C399.46,91.791,400.977,91.156,402.178,90.653z M386.875,105.963c0.565-0.152,0.99-0.553,1.271-1.206
		c0.281-0.652,0.428-1.405,0.441-2.26c0.014-0.854-0.039-1.734-0.162-2.645c-0.122-0.908-0.281-1.731-0.479-2.469
		c-0.168-0.623-0.33-1.11-0.484-1.464c-0.156-0.353-0.29-0.515-0.403-0.484c-0.071-0.041-0.141-0.067-0.204-0.082
		c-0.064-0.013-0.141-0.068-0.228-0.168c-0.53,1.418-0.923,3.013-1.178,4.781c-0.254,1.769-0.243,3.286,0.034,4.547
		C385.787,105.648,386.25,106.13,386.875,105.963z"/>
	<path class="st2" d="M461.139,75.391c0.181-0.231,0.384-0.377,0.612-0.438c0.282-0.076,0.463,0.029,0.538,0.312
		c0.076,0.284,0.003,0.577-0.22,0.878c-0.585,0.765-1.438,1.83-2.561,3.193c-1.123,1.364-2.346,2.755-3.666,4.172
		c-1.32,1.418-2.646,2.7-3.98,3.846c-1.332,1.148-2.538,1.865-3.613,2.154c-0.85,0.228-1.5,0.13-1.948-0.297
		c-0.448-0.426-0.778-1.036-0.991-1.83c-0.152-0.566-0.268-1.204-0.344-1.913c-0.078-0.708-0.12-1.394-0.13-2.06
		c-0.01-0.665-0.03-1.268-0.061-1.806c-0.032-0.539-0.085-0.948-0.161-1.232c-0.076-0.283-0.199-0.402-0.367-0.357
		c-0.281,0.075-0.526,0.733-0.734,1.974c-0.21,1.241-0.434,2.593-0.675,4.053c-0.239,1.463-0.563,2.84-0.969,4.134
		c-0.406,1.293-0.975,2.038-1.704,2.233c-0.506,0.136-1.092-0.025-1.756-0.486c-0.664-0.459-1.188-1.397-1.567-2.815
		c-0.304-1.133-0.449-2.353-0.436-3.664c0.013-1.309,0.116-2.506,0.313-3.592c0.225-0.972,0.507-1.731,0.848-2.278
		c0.339-0.546,0.679-0.865,1.019-0.957c0.51-0.137,0.864,0.164,1.062,0.899c0.167,0.625,0.192,1.286,0.076,1.985
		c-0.048,0.5-0.138,1.131-0.267,1.894c-0.13,0.764-0.219,1.563-0.27,2.396c-0.049,0.833-0.075,1.646-0.075,2.434
		c-0.002,0.792,0.067,1.44,0.204,1.951c0.167,0.624,0.426,0.919,0.778,0.884c0.403-0.29,0.748-1.02,1.035-2.191
		s0.579-2.433,0.876-3.789c0.298-1.356,0.612-2.594,0.943-3.716c0.33-1.121,0.748-1.75,1.253-1.885
		c0.505-0.135,0.849,0.138,1.03,0.818c0.107,0.396,0.172,0.91,0.199,1.542c0.026,0.63,0.033,1.297,0.021,1.998
		c-0.012,0.704,0.001,1.398,0.043,2.084c0.043,0.689,0.131,1.287,0.269,1.797c0.334,1.247,1.039,1.726,2.116,1.437
		c0.963-0.258,2.094-0.971,3.391-2.139c1.296-1.167,2.582-2.483,3.86-3.95c1.277-1.466,2.452-2.921,3.523-4.362
		C459.726,77.259,460.554,76.156,461.139,75.391z"/>
	<path class="st2" d="M476.917,80.545c-0.492-0.475-1.177-0.762-2.055-0.861c-0.877-0.098-1.771-0.208-2.684-0.328
		c-0.914-0.12-1.746-0.336-2.499-0.651c-0.752-0.314-1.257-0.952-1.516-1.917c-0.304-1.133-0.265-2.403,0.117-3.813
		c0.381-1.408,0.945-2.759,1.692-4.054c0.746-1.293,1.608-2.436,2.588-3.427s1.951-1.616,2.915-1.874
		c0.851-0.228,1.542-0.141,2.075,0.263c0.532,0.403,0.899,0.975,1.097,1.71c0.228,0.851,0.19,1.848-0.109,2.991
		c-0.301,1.144-0.734,2.248-1.3,3.31c-0.275,0.561-0.602,0.982-0.981,1.266c-0.38,0.283-0.739,0.47-1.079,0.562
		c-0.625,0.167-0.988,0.054-1.095-0.343c-0.076-0.283,0.031-0.677,0.321-1.18c0.29-0.502,0.626-1.064,1.007-1.683
		c0.382-0.617,0.712-1.252,0.993-1.905c0.28-0.652,0.493-1.271,0.641-1.857c0.146-0.586,0.159-1.105,0.037-1.559
		c-0.061-0.227-0.205-0.311-0.432-0.25c-0.794,0.213-1.631,0.772-2.512,1.676c-0.882,0.905-1.693,1.958-2.434,3.158
		c-0.741,1.201-1.311,2.417-1.709,3.647c-0.399,1.232-0.492,2.244-0.28,3.036c0.137,0.511,0.499,0.9,1.087,1.167
		c0.588,0.269,1.275,0.509,2.063,0.724c0.786,0.215,1.59,0.439,2.413,0.675c0.821,0.234,1.535,0.575,2.142,1.02
		c2.053-2.312,4.294-4.598,6.726-6.861c2.431-2.259,4.854-4.322,7.271-6.187c0.311-0.204,0.521-0.322,0.635-0.352
		c0.34-0.091,0.549,0.005,0.625,0.289c0.076,0.284-0.111,0.608-0.561,0.97c-2.586,1.908-5.091,3.841-7.513,5.796
		c-2.423,1.957-4.71,4.133-6.859,6.532c0.477,0.418,0.791,0.913,0.943,1.479c0.228,0.85,0.162,1.854-0.194,3.012
		c-0.359,1.159-0.904,2.293-1.64,3.401c-0.695,1.038-1.409,1.883-2.146,2.535c-0.735,0.654-1.416,1.063-2.039,1.23
		c-0.85,0.228-1.358,0.029-1.525-0.593c-0.198-0.737,0.198-2.089,1.19-4.055c0.591-1.193,1.308-2.372,2.149-3.538
		C475.324,82.538,476.135,81.484,476.917,80.545z M472.742,87.405c-0.95,1.895-1.342,3.153-1.174,3.778
		c0.105,0.396,0.387,0.534,0.84,0.413c0.453-0.122,1.015-0.515,1.688-1.182c0.671-0.667,1.339-1.575,2.003-2.724
		c0.58-1.006,1.021-2.082,1.322-3.225c0.3-1.144,0.345-2.113,0.133-2.907c-0.046-0.169-0.172-0.41-0.376-0.719
		c-0.683,0.853-1.445,1.861-2.286,3.028C474.05,85.035,473.334,86.214,472.742,87.405z"/>
	<path class="st2" d="M517.814,60.104c0.181-0.231,0.385-0.377,0.612-0.438c0.34-0.091,0.548,0.006,0.624,0.289
		c0.076,0.284-0.026,0.585-0.306,0.901c-0.838,0.954-1.906,2.122-3.207,3.502c-1.301,1.383-2.669,2.737-4.104,4.062
		c-1.437,1.328-2.893,2.523-4.369,3.587c-1.477,1.065-2.81,1.755-3.999,2.074c-0.965,0.258-1.813,0.153-2.546-0.319
		c-0.734-0.472-1.245-1.246-1.534-2.323c-0.289-1.076-0.382-2.326-0.277-3.753c0.104-1.425,0.34-2.809,0.709-4.153
		c0.369-1.343,0.861-2.51,1.478-3.496c0.616-0.985,1.321-1.583,2.115-1.796c0.565-0.152,1.087-0.078,1.563,0.219
		c0.474,0.299,0.796,0.759,0.963,1.382c0.319,1.189,0.126,2.458-0.576,3.799c-0.704,1.343-1.516,2.563-2.436,3.66
		c-0.477,0.491-0.883,0.844-1.221,1.056c-0.339,0.213-0.648,0.356-0.932,0.432c-0.284,0.076-0.49,0.101-0.618,0.075
		c-0.206,1.271-0.188,2.359,0.055,3.265c0.168,0.625,0.475,1.089,0.921,1.394c0.446,0.306,1.038,0.359,1.774,0.162
		c1.021-0.273,2.232-0.962,3.638-2.068c1.403-1.105,2.831-2.354,4.28-3.745c1.449-1.391,2.834-2.794,4.156-4.212
		C515.897,62.244,516.977,61.059,517.814,60.104z M503.691,59.426c-0.454,0.122-1.028,0.867-1.723,2.238
		c-0.696,1.372-1.243,2.9-1.641,4.586c0.434-0.42,0.901-0.939,1.403-1.562c0.502-0.62,0.957-1.244,1.367-1.87
		c0.408-0.625,0.723-1.211,0.941-1.756c0.219-0.543,0.282-0.986,0.19-1.327C504.155,59.454,503.975,59.351,503.691,59.426z"/>
</g>
<g class="st0">
	<path class="st3" d="M247.009,95.079c0.681-0.182,1.244-0.06,1.693,0.366c0.447,0.427,0.779,1.036,0.992,1.83
		c0.592,2.21,0.722,4.681,0.392,7.412c-0.331,2.73-0.91,5.499-1.737,8.302c-0.828,2.805-1.836,5.503-3.022,8.1
		c-1.188,2.597-2.37,4.873-3.546,6.828c-0.001,4.071,0.176,8.079,0.536,12.022c0.358,3.943,0.971,7.529,1.837,10.76
		c0.684,2.55,1.528,4.738,2.534,6.564c1.005,1.826,2.199,3.161,3.58,4.006c0.677,0.487,1.069,0.928,1.176,1.325
		c0.137,0.51-0.051,0.833-0.561,0.97c-0.34,0.091-0.801,0.018-1.381-0.221c-0.581-0.241-1.211-0.724-1.893-1.452
		c-0.942-1.023-1.829-2.457-2.656-4.3c-0.829-1.843-1.562-3.955-2.199-6.334c-0.774-2.891-1.417-6.073-1.923-9.553
		c-0.509-3.477-0.865-7.072-1.07-10.784c-1.03,1.369-2.055,2.646-3.072,3.831c-1.412,1.533-2.907,2.92-4.488,4.165
		c-1.579,1.243-3.144,2.377-4.692,3.399c-0.247,3.833-0.549,7.528-0.9,11.084c-0.354,3.558-0.704,6.718-1.056,9.485
		s-0.681,4.997-0.985,6.688c-0.308,1.691-0.544,2.561-0.714,2.606c-0.341,0.091-0.72-0.187-1.136-0.834
		c-0.417-0.648-0.772-1.296-1.067-1.945c-0.577-1.244-1.212-2.532-1.901-3.865c-0.692-1.333-1.458-2.602-2.296-3.804
		c-0.84-1.202-1.791-2.313-2.854-3.335c-1.064-1.021-2.234-1.876-3.513-2.566c-1.638-0.899-2.556-1.714-2.753-2.452
		c-0.151-0.565,0.088-1.146,0.718-1.741c0.631-0.593,1.421-1.156,2.372-1.685c0.953-0.527,1.908-0.981,2.87-1.361
		c0.961-0.379,1.683-0.692,2.162-0.943c1.397-0.678,2.908-1.387,4.532-2.128c1.624-0.738,3.266-1.633,4.93-2.687
		c0.13-3.134,0.201-6.266,0.213-9.397c0.011-3.131-0.025-6.098-0.108-8.901c-0.084-2.803-0.245-5.386-0.483-7.752
		c-0.24-2.364-0.564-4.313-0.975-5.843c-0.714-2.663-1.667-3.836-2.856-3.518c-1.021,0.273-1.987,0.976-2.899,2.1
		c-0.914,1.126-1.744,2.503-2.492,4.13c-0.748,1.628-1.395,3.412-1.938,5.349c-0.544,1.938-0.963,3.889-1.256,5.85
		c-0.294,1.962-0.444,3.84-0.449,5.632c-0.006,1.795,0.167,3.343,0.517,4.646c0.273,1.02,0.671,1.823,1.193,2.412
		c0.363,0.45,0.743,0.621,1.141,0.515c0.112-0.03,0.186,0.012,0.216,0.125c0.045,0.169-0.063,0.442-0.328,0.816
		c-0.264,0.375-0.623,0.623-1.076,0.744c-0.454,0.122-1.076-0.106-1.869-0.683c-0.792-0.578-1.469-1.915-2.031-4.013
		c-0.639-2.38-0.768-5.124-0.386-8.233c0.381-3.11,1.099-6.096,2.153-8.961c1.055-2.863,2.371-5.373,3.949-7.528
		c1.579-2.154,3.247-3.467,5.004-3.938c1.246-0.334,2.273-0.017,3.08,0.951c0.807,0.969,1.476,2.445,2.008,4.429
		c0.455,1.699,0.806,3.688,1.05,5.959c0.245,2.274,0.414,4.719,0.51,7.335c0.094,2.618,0.101,5.365,0.022,8.24
		c-0.08,2.878-0.194,5.733-0.346,8.567c1.549-1.022,3.087-2.133,4.619-3.334c1.53-1.2,2.973-2.559,4.328-4.077
		c0.559-0.636,1.113-1.286,1.664-1.95c0.551-0.664,1.091-1.371,1.619-2.119c-0.214-4.195-0.242-8.319-0.083-12.371
		c0.158-4.052,0.545-7.709,1.159-10.971c0.613-3.263,1.436-5.974,2.467-8.133C244.282,96.752,245.535,95.475,247.009,95.079z
		 M223.546,171.714c0.164-0.287,0.357-1.267,0.58-2.935c0.22-1.669,0.44-3.794,0.66-6.373c0.22-2.581,0.433-5.523,0.64-8.828
		c0.207-3.306,0.38-6.739,0.519-10.299c-1.62,0.982-3.229,1.838-4.823,2.569c-1.596,0.732-3.093,1.438-4.49,2.115
		c-0.324,0.148-0.936,0.419-1.833,0.812c-0.896,0.392-1.824,0.839-2.784,1.338c-0.96,0.5-1.79,1.026-2.493,1.58
		c-0.701,0.553-0.984,1.084-0.848,1.594c0.092,0.34,0.336,0.685,0.732,1.033c0.398,0.35,1.02,0.743,1.867,1.185
		c2.685,1.407,4.864,3.358,6.536,5.857c1.672,2.496,3.143,5.093,4.413,7.792c0.279,0.592,0.548,1.142,0.807,1.651
		C223.285,171.312,223.458,171.615,223.546,171.714z M241.769,127.191c1.051-1.74,2.122-3.863,3.212-6.374
		c1.089-2.509,2.025-5.129,2.813-7.861c0.785-2.73,1.333-5.445,1.645-8.141c0.31-2.694,0.177-5.118-0.401-7.273
		c-0.137-0.51-0.322-0.915-0.555-1.217c-0.232-0.302-0.519-0.408-0.858-0.317c-0.795,0.213-1.538,1.231-2.232,3.059
		c-0.695,1.827-1.311,4.178-1.845,7.055c-0.535,2.876-0.963,6.151-1.285,9.821C241.938,119.614,241.774,123.362,241.769,127.191z"/>
	<path class="st3" d="M282.745,122.675c0.793-0.213,1.235-0.15,1.327,0.19c0.075,0.284-0.184,0.566-0.776,0.847
		c-0.989,0.387-2.263,0.849-3.819,1.387c-1.557,0.54-3.156,1.028-4.8,1.469c-1.076,0.289-2.09,0.531-3.041,0.724
		c-0.949,0.195-1.787,0.297-2.514,0.311c0.394,0.563,0.714,1.19,0.961,1.883c0.246,0.694,0.424,1.239,0.53,1.634
		c0.429,1.83,0.342,3.432-0.261,4.807c-0.603,1.378-1.358,2.188-2.264,2.431c-0.625,0.167-1.221,0.039-1.789-0.386
		c-0.57-0.424-1.014-1.231-1.333-2.422c-0.38-1.416-0.505-3.069-0.373-4.957c0.132-1.888,0.444-3.384,0.938-4.489
		c0.327-0.817,0.717-1.286,1.172-1.408c0.395-0.106,0.662,0.095,0.799,0.606c0.076,0.283,0.075,0.618-0.004,1.003
		c0.371,0.023,0.766,0.251,1.187,0.685c1.11,0.066,2.487-0.121,4.132-0.562c1.756-0.471,3.549-1.088,5.381-1.852
		C280.027,123.813,281.543,123.178,282.745,122.675z M267.441,137.984c0.566-0.151,0.991-0.552,1.271-1.205
		c0.281-0.652,0.429-1.406,0.442-2.26c0.014-0.854-0.04-1.734-0.162-2.645c-0.122-0.908-0.282-1.731-0.479-2.468
		c-0.167-0.623-0.329-1.11-0.484-1.464c-0.155-0.353-0.289-0.515-0.402-0.484c-0.072-0.041-0.141-0.067-0.204-0.082
		c-0.065-0.013-0.141-0.068-0.228-0.168c-0.531,1.418-0.924,3.013-1.179,4.781c-0.254,1.769-0.243,3.286,0.034,4.547
		C266.354,137.67,266.817,138.152,267.441,137.984z"/>
	<path class="st3" d="M321.065,112.672c0.311-0.204,0.492-0.314,0.55-0.33c0.34-0.091,0.548,0.006,0.624,0.289
		c0.091,0.34-0.096,0.664-0.56,0.97c-1.054,0.83-2.423,1.729-4.106,2.696c-1.686,0.968-3.377,1.68-5.076,2.136
		c-1.191,0.319-2.334,0.475-3.431,0.463c-1.096-0.01-2.062-0.327-2.897-0.955c-0.036,0.557-0.145,1.467-0.326,2.73
		c-0.182,1.264-0.456,2.583-0.823,3.957c-0.366,1.373-0.846,2.611-1.439,3.711c-0.593,1.1-1.318,1.766-2.176,1.995
		c-0.799,0.214-1.496-0.161-2.091-1.125s-1.073-2.127-1.438-3.487c-0.471-1.756-0.711-3.331-0.721-4.727
		c-0.281,0.744-0.605,1.561-0.969,2.446c-0.363,0.887-0.746,1.703-1.147,2.449c-0.402,0.745-0.802,1.384-1.2,1.916
		c-0.398,0.533-0.794,0.851-1.187,0.956c-0.563,0.151-1.067-0.107-1.518-0.778c-0.45-0.668-0.804-1.483-1.063-2.448
		c-0.213-0.793-0.373-1.616-0.482-2.468c-0.108-0.851-0.105-1.626,0.009-2.325c0.083-0.812,0.246-1.433,0.492-1.864
		c0.247-0.431,0.51-0.683,0.791-0.759c0.449-0.12,0.772,0.188,0.97,0.925c0.091,0.34,0.151,0.733,0.181,1.182
		c0.028,0.449,0.005,0.864-0.071,1.25c-0.022,1.04-0.045,2.078-0.067,3.116c-0.021,1.039,0.052,1.87,0.219,2.493
		c0.121,0.454,0.294,0.649,0.518,0.589c0.337-0.09,0.717-0.464,1.143-1.126c0.423-0.661,0.851-1.427,1.277-2.302
		c0.427-0.872,0.844-1.789,1.248-2.748c0.404-0.958,0.728-1.773,0.969-2.447l0.223-0.515c0.11-0.272,0.277-0.439,0.504-0.5
		c0.283-0.076,0.502,0.171,0.653,0.735c0.03,0.115,0.072,0.271,0.125,0.468c0.054,0.199,0.073,0.392,0.063,0.576
		c0.031,1.026,0.112,2.234,0.243,3.625c0.13,1.393,0.348,2.656,0.651,3.789c0.197,0.737,0.433,1.328,0.705,1.771
		c0.272,0.444,0.638,0.604,1.097,0.48c0.63-0.169,1.208-0.763,1.734-1.787c0.524-1.021,0.969-2.173,1.331-3.455
		c0.362-1.282,0.636-2.554,0.817-3.819c0.183-1.263,0.282-2.201,0.3-2.814c-0.332-0.334-0.605-0.672-0.817-1.01
		c-0.213-0.338-0.394-0.791-0.546-1.357c-0.403-1.956-0.322-3.012,0.246-3.165c0.452-0.121,0.885,0.583,1.295,2.113
		c0.121,0.454,0.197,0.965,0.229,1.534c0.03,0.57,0.058,1.124,0.081,1.664c0.764,0.585,1.6,0.924,2.505,1.015
		c0.904,0.091,1.868,0,2.888-0.274c1.756-0.471,3.487-1.268,5.19-2.394S319.913,113.591,321.065,112.672z"/>
	<path class="st3" d="M394.426,71.591c0.696-0.125,1.186-0.165,1.472-0.12c0.285,0.045,0.443,0.124,0.474,0.236
		c0.061,0.228-0.082,0.493-0.425,0.797c-0.344,0.306-0.714,0.511-1.109,0.617c-0.583,0.098-1.177,0.149-1.78,0.158
		c-0.605,0.011-1.191,0.092-1.757,0.244c-2.921,0.662-5.825,1.334-8.709,2.017c-2.885,0.681-5.772,1.41-8.662,2.185
		c-2.21,0.592-4.413,1.214-6.607,1.863c-2.195,0.65-4.355,1.32-6.478,2.011c-0.466,2.798-0.946,5.934-1.441,9.407
		c-0.497,3.475-0.904,6.94-1.222,10.396c-0.319,3.456-0.484,6.69-0.498,9.7c-0.013,3.011,0.225,5.422,0.711,7.236
		c0.213,0.793,0.563,1.536,1.052,2.224c0.487,0.688,1.213,0.903,2.178,0.645c1.189-0.319,2.529-1.438,4.021-3.356
		c1.49-1.917,2.955-4.103,4.393-6.553c1.439-2.451,2.774-4.889,4.008-7.316c1.231-2.426,2.178-4.333,2.838-5.727
		c0.135-0.4,0.344-0.64,0.628-0.716c0.283-0.076,0.464,0.028,0.539,0.312c0.062,0.228,0.015,0.513-0.135,0.856
		c-0.482,0.92-1.078,2.097-1.786,3.531c-0.709,1.436-1.502,2.955-2.379,4.556c-0.877,1.603-1.819,3.238-2.83,4.905
		s-2.031,3.188-3.061,4.557c-1.031,1.369-2.053,2.539-3.068,3.511c-1.016,0.97-1.977,1.578-2.883,1.821
		c-1.135,0.304-2.096,0-2.887-0.912c-0.792-0.913-1.43-2.274-1.916-4.087c-0.532-1.983-0.904-4.389-1.115-7.219
		c-0.212-2.827-0.291-5.783-0.236-8.867c0.054-3.08,0.212-6.175,0.472-9.284c0.261-3.106,0.598-5.93,1.01-8.471
		c-1.728,0.585-3.326,1.136-4.798,1.651c-1.471,0.516-2.913,1.085-4.326,1.706c-0.762,0.327-1.489,0.673-2.181,1.041
		c-0.69,0.367-1.417,0.714-2.182,1.04c-0.21,0.117-0.487,0.222-0.827,0.313c-0.68,0.182-1.05,0.16-1.111-0.066
		c-0.075-0.283,0.459-0.67,1.603-1.159c2.305-0.921,4.601-1.764,6.885-2.529c2.286-0.764,4.624-1.558,7.017-2.381
		c0.262-1.286,0.52-2.478,0.771-3.579c0.252-1.1,0.512-2.051,0.783-2.854c0.584-1.674,1.187-2.596,1.811-2.763
		c0.453-0.121,0.779,0.188,0.977,0.923c0.168,0.624,0.16,1.506-0.019,2.648l-0.714,4.473c3.89-1.345,7.733-2.587,11.528-3.729
		c3.796-1.138,7.647-2.232,11.558-3.281c1.701-0.456,3.414-0.916,5.144-1.379C390.88,72.359,392.639,71.95,394.426,71.591z"/>
	<path class="st3" d="M402.178,90.653c0.794-0.212,1.236-0.15,1.327,0.191c0.076,0.284-0.184,0.566-0.775,0.846
		c-0.99,0.387-2.264,0.849-3.819,1.387c-1.558,0.54-3.157,1.028-4.8,1.469c-1.077,0.289-2.091,0.531-3.041,0.724
		c-0.95,0.195-1.788,0.297-2.514,0.311c0.393,0.563,0.714,1.19,0.961,1.883c0.246,0.694,0.423,1.239,0.529,1.634
		c0.43,1.83,0.342,3.432-0.26,4.808c-0.604,1.378-1.359,2.188-2.265,2.43c-0.624,0.167-1.22,0.04-1.789-0.386
		c-0.569-0.424-1.014-1.231-1.333-2.422c-0.379-1.416-0.504-3.069-0.372-4.957s0.444-3.384,0.938-4.489
		c0.327-0.817,0.717-1.286,1.171-1.408c0.396-0.106,0.663,0.096,0.8,0.606c0.076,0.283,0.074,0.617-0.004,1.003
		c0.371,0.023,0.765,0.251,1.186,0.685c1.111,0.066,2.488-0.121,4.133-0.562c1.756-0.471,3.549-1.088,5.38-1.852
		C399.46,91.791,400.977,91.156,402.178,90.653z M386.875,105.963c0.565-0.152,0.99-0.553,1.271-1.206
		c0.281-0.652,0.428-1.405,0.441-2.26c0.014-0.854-0.039-1.734-0.162-2.645c-0.122-0.908-0.281-1.731-0.479-2.469
		c-0.168-0.623-0.33-1.11-0.484-1.464c-0.156-0.353-0.29-0.515-0.403-0.484c-0.071-0.041-0.141-0.067-0.204-0.082
		c-0.064-0.013-0.141-0.068-0.228-0.168c-0.53,1.418-0.923,3.013-1.178,4.781c-0.254,1.769-0.243,3.286,0.034,4.547
		C385.787,105.648,386.25,106.13,386.875,105.963z"/>
	<path class="st3" d="M461.139,75.391c0.181-0.231,0.384-0.377,0.612-0.438c0.282-0.076,0.463,0.029,0.538,0.312
		c0.076,0.284,0.003,0.577-0.22,0.878c-0.585,0.765-1.438,1.83-2.561,3.193c-1.123,1.364-2.346,2.755-3.666,4.172
		c-1.32,1.418-2.646,2.7-3.98,3.846c-1.332,1.148-2.538,1.865-3.613,2.154c-0.85,0.228-1.5,0.13-1.948-0.297
		c-0.448-0.426-0.778-1.036-0.991-1.83c-0.152-0.566-0.268-1.204-0.344-1.913c-0.078-0.708-0.12-1.394-0.13-2.06
		c-0.01-0.665-0.03-1.268-0.061-1.806c-0.032-0.539-0.085-0.948-0.161-1.232c-0.076-0.283-0.199-0.402-0.367-0.357
		c-0.281,0.075-0.526,0.733-0.734,1.974c-0.21,1.241-0.434,2.593-0.675,4.053c-0.239,1.463-0.563,2.84-0.969,4.134
		c-0.406,1.293-0.975,2.038-1.704,2.233c-0.506,0.136-1.092-0.025-1.756-0.486c-0.664-0.459-1.188-1.397-1.567-2.815
		c-0.304-1.133-0.449-2.353-0.436-3.664c0.013-1.309,0.116-2.506,0.313-3.592c0.225-0.972,0.507-1.731,0.848-2.278
		c0.339-0.546,0.679-0.865,1.019-0.957c0.51-0.137,0.864,0.164,1.062,0.899c0.167,0.625,0.192,1.286,0.076,1.985
		c-0.048,0.5-0.138,1.131-0.267,1.894c-0.13,0.764-0.219,1.563-0.27,2.396c-0.049,0.833-0.075,1.646-0.075,2.434
		c-0.002,0.792,0.067,1.44,0.204,1.951c0.167,0.624,0.426,0.919,0.778,0.884c0.403-0.29,0.748-1.02,1.035-2.191
		s0.579-2.433,0.876-3.789c0.298-1.356,0.612-2.594,0.943-3.716c0.33-1.121,0.748-1.75,1.253-1.885
		c0.505-0.135,0.849,0.138,1.03,0.818c0.107,0.396,0.172,0.91,0.199,1.542c0.026,0.63,0.033,1.297,0.021,1.998
		c-0.012,0.704,0.001,1.398,0.043,2.084c0.043,0.689,0.131,1.287,0.269,1.797c0.334,1.247,1.039,1.726,2.116,1.437
		c0.963-0.258,2.094-0.971,3.391-2.139c1.296-1.167,2.582-2.483,3.86-3.95c1.277-1.466,2.452-2.921,3.523-4.362
		C459.726,77.259,460.554,76.156,461.139,75.391z"/>
	<path class="st3" d="M476.917,80.545c-0.492-0.475-1.177-0.762-2.055-0.861c-0.877-0.098-1.771-0.208-2.684-0.328
		c-0.914-0.12-1.746-0.336-2.499-0.651c-0.752-0.314-1.257-0.952-1.516-1.917c-0.304-1.133-0.265-2.403,0.117-3.813
		c0.381-1.408,0.945-2.759,1.692-4.054c0.746-1.293,1.608-2.436,2.588-3.427s1.951-1.616,2.915-1.874
		c0.851-0.228,1.542-0.141,2.075,0.263c0.532,0.403,0.899,0.975,1.097,1.71c0.228,0.851,0.19,1.848-0.109,2.991
		c-0.301,1.144-0.734,2.248-1.3,3.31c-0.275,0.561-0.602,0.982-0.981,1.266c-0.38,0.283-0.739,0.47-1.079,0.562
		c-0.625,0.167-0.988,0.054-1.095-0.343c-0.076-0.283,0.031-0.677,0.321-1.18c0.29-0.502,0.626-1.064,1.007-1.683
		c0.382-0.617,0.712-1.252,0.993-1.905c0.28-0.652,0.493-1.271,0.641-1.857c0.146-0.586,0.159-1.105,0.037-1.559
		c-0.061-0.227-0.205-0.311-0.432-0.25c-0.794,0.213-1.631,0.772-2.512,1.676c-0.882,0.905-1.693,1.958-2.434,3.158
		c-0.741,1.201-1.311,2.417-1.709,3.647c-0.399,1.232-0.492,2.244-0.28,3.036c0.137,0.511,0.499,0.9,1.087,1.167
		c0.588,0.269,1.275,0.509,2.063,0.724c0.786,0.215,1.59,0.439,2.413,0.675c0.821,0.234,1.535,0.575,2.142,1.02
		c2.053-2.312,4.294-4.598,6.726-6.861c2.431-2.259,4.854-4.322,7.271-6.187c0.311-0.204,0.521-0.322,0.635-0.352
		c0.34-0.091,0.549,0.005,0.625,0.289c0.076,0.284-0.111,0.608-0.561,0.97c-2.586,1.908-5.091,3.841-7.513,5.796
		c-2.423,1.957-4.71,4.133-6.859,6.532c0.477,0.418,0.791,0.913,0.943,1.479c0.228,0.85,0.162,1.854-0.194,3.012
		c-0.359,1.159-0.904,2.293-1.64,3.401c-0.695,1.038-1.409,1.883-2.146,2.535c-0.735,0.654-1.416,1.063-2.039,1.23
		c-0.85,0.228-1.358,0.029-1.525-0.593c-0.198-0.737,0.198-2.089,1.19-4.055c0.591-1.193,1.308-2.372,2.149-3.538
		C475.324,82.538,476.135,81.484,476.917,80.545z M472.742,87.405c-0.95,1.895-1.342,3.153-1.174,3.778
		c0.105,0.396,0.387,0.534,0.84,0.413c0.453-0.122,1.015-0.515,1.688-1.182c0.671-0.667,1.339-1.575,2.003-2.724
		c0.58-1.006,1.021-2.082,1.322-3.225c0.3-1.144,0.345-2.113,0.133-2.907c-0.046-0.169-0.172-0.41-0.376-0.719
		c-0.683,0.853-1.445,1.861-2.286,3.028C474.05,85.035,473.334,86.214,472.742,87.405z"/>
	<path class="st3" d="M517.814,60.104c0.181-0.231,0.385-0.377,0.612-0.438c0.34-0.091,0.548,0.006,0.624,0.289
		c0.076,0.284-0.026,0.585-0.306,0.901c-0.838,0.954-1.906,2.122-3.207,3.502c-1.301,1.383-2.669,2.737-4.104,4.062
		c-1.437,1.328-2.893,2.523-4.369,3.587c-1.477,1.065-2.81,1.755-3.999,2.074c-0.965,0.258-1.813,0.153-2.546-0.319
		c-0.734-0.472-1.245-1.246-1.534-2.323c-0.289-1.076-0.382-2.326-0.277-3.753c0.104-1.425,0.34-2.809,0.709-4.153
		c0.369-1.343,0.861-2.51,1.478-3.496c0.616-0.985,1.321-1.583,2.115-1.796c0.565-0.152,1.087-0.078,1.563,0.219
		c0.474,0.299,0.796,0.759,0.963,1.382c0.319,1.189,0.126,2.458-0.576,3.799c-0.704,1.343-1.516,2.563-2.436,3.66
		c-0.477,0.491-0.883,0.844-1.221,1.056c-0.339,0.213-0.648,0.356-0.932,0.432c-0.284,0.076-0.49,0.101-0.618,0.075
		c-0.206,1.271-0.188,2.359,0.055,3.265c0.168,0.625,0.475,1.089,0.921,1.394c0.446,0.306,1.038,0.359,1.774,0.162
		c1.021-0.273,2.232-0.962,3.638-2.068c1.403-1.105,2.831-2.354,4.28-3.745c1.449-1.391,2.834-2.794,4.156-4.212
		C515.897,62.244,516.977,61.059,517.814,60.104z M503.691,59.426c-0.454,0.122-1.028,0.867-1.723,2.238
		c-0.696,1.372-1.243,2.9-1.641,4.586c0.434-0.42,0.901-0.939,1.403-1.562c0.502-0.62,0.957-1.244,1.367-1.87
		c0.408-0.625,0.723-1.211,0.941-1.756c0.219-0.543,0.282-0.986,0.19-1.327C504.155,59.454,503.975,59.351,503.691,59.426z"/>
</g>
</svg>
