<?xml version="1.0" encoding="utf-8"?>
<!-- Generator: Adobe Illustrator 24.0.1, SVG Export Plug-In . SVG Version: 6.00 Build 0)  -->
<svg version="1.1" id="圖層_1" xmlns="http://www.w3.org/2000/svg" xmlns:xlink="http://www.w3.org/1999/xlink" x="0px" y="0px"
	 viewBox="0 0 377 176" style="enable-background:new 0 0 377 176;" xml:space="preserve">
<style type="text/css">
	.st0{enable-background:new    ;}
	.st1{fill:#F58F8E;}
	.st2{fill:#707070;}
	.st3{fill:none;stroke:#707070;stroke-width:0.3;stroke-miterlimit:4.0005;}
	.st4{fill:#95918E;}
	.st5{fill:#FFFFFF;}
	.st6{fill:#A67C52;}
</style>
<g>
	<g class="st0">
		<path class="st5" d="M23.487,58.967c3.672-5.1,7.072-10.131,9.588-16.114c2.107-5.032,3.875-10.676,5.643-15.911
			c1.225,0.477,2.721,1.088,3.876,1.632c-1.224,4.216-2.72,8.432-4.147,12.511l-1.225,3.468v44.672h-4.215l0.068-36.377
			c-1.836,2.788-4.352,6.12-6.527,8.84L23.487,58.967z M40.01,85.348c5.032-1.768,9.995-4.079,13.938-8.159
			c-3.127-2.72-6.391-6.527-8.906-9.654l3.604-2.244c2.787,3.332,4.895,5.848,8.023,8.363c1.291-1.632,2.107-3.332,2.719-5.304
			c0.271-1.428,0.408-3.06,0.748-5.371H44.429v-18.29L60.34,44.62v-5.779H41.439v-4.147H60.34v-7.888l4.487-0.068v7.956h19.242
			v4.147H64.896v5.848h15.91l-0.068,18.29H64.692c-0.748,7.071-1.563,9.383-4.216,13.326c0.271,0.408,0.816,0.68,1.225,0.816
			c7.343,4.896,16.453,6.187,25.564,7.207l-2.584,4.216c-2.243-0.137-4.555-0.612-6.799-1.088
			c-7.139-1.428-13.938-3.74-20.125-7.548c-4.42,4.284-9.316,6.936-14.416,9.247L40.01,85.348z M60.34,48.768l-11.763,0.068v9.995
			l11.695,0.067L60.34,48.768z M76.591,48.768l-11.695,0.068v9.995h11.627L76.591,48.768z"/>
		<path class="st5" d="M161.386,82.356c0,2.787-2.039,5.031-4.623,5.031h-6.731l-1.36-4.42c2.855,0.272,4.557,0.408,6.664,0.34
			c0.951,0,1.836-0.476,1.836-1.835V65.494h-16.658v16.658h-4.148V65.494H119.91c-0.681,6.799-0.952,10.946-5.1,17.271
			c-1.36,2.039-2.651,4.011-4.759,6.459l-3.604-2.788c2.583-3.06,4.691-5.779,6.322-9.247c1.973-4.147,2.381-7.411,2.855-12.782
			c0.205-2.04,0.137-4.624,0.137-7.071V30.138h45.623V82.356z M119.978,34.081V45.64h16.387V34.081H119.978z M119.978,61.618h16.387
			V49.516h-16.387V61.618z M140.513,45.64h16.658V34.081h-16.658V45.64z M140.513,49.516v12.103h16.658V49.516H140.513z"/>
		<path class="st5" d="M200.966,65.834l-9.246,4.012l-3.129-3.468l12.104-5.031V46.252h-5.779c-1.02,3.808-2.313,6.731-4.352,10.606
			l-3.875-2.107c3.875-6.392,5.507-12.307,6.187-19.718l4.147,1.155c-0.068,1.564-0.543,3.808-0.816,6.052h4.557V27.622l4.146-0.068
			l0.068,14.687h6.324l0.067,4.012h-6.392l0.068,12.919l6.799-2.652v4.42l-6.595,2.924l-0.067,25.089h-4.217V65.834z M225.92,84.395
			c2.516,0.137,5.167,0.408,7.819,0.204c0.611-0.271,1.359-0.68,1.699-1.428l0.137-1.224V66.922h-23.73V62.91h23.73v-6.392h4.215
			l0.068,6.392h8.159v4.012h-8.159v16.727c0,1.972-1.632,3.739-3.4,4.556c-2.65,0.747-5.847,0.203-8.771,0.407L225.92,84.395z
			 M246.59,50.671v4.08h-33.317v-4.08h14.211l0.068-10.402L215.925,40.2l-0.068-4.012h11.559v-9.043h4.284v9.043h12.307l0.067,4.012
			h-12.238l-0.068,10.471H246.59z M225.172,79.908c-2.72-3.468-6.188-6.663-10.198-8.227l2.787-2.652
			c4.215,1.496,7.751,4.556,10.675,8.092L225.172,79.908z"/>
		<path class="st5" d="M269.103,86.231c0.885-0.407,1.429-1.224,2.108-1.903c2.04-2.584,4.012-5.508,4.419-8.976l3.469,1.292
			c-0.137,2.38-1.225,4.42-2.313,6.392c-1.088,2.04-2.584,3.876-4.215,5.575L269.103,86.231z M290.046,68.01l14.55-1.632v3.808
			l-32.637,3.535l-2.176-3.875l16.046-1.292v-5.575h-11.287l-0.067-3.672h11.354v-5.235h-12.715v-23.39h29.17l-0.068,23.253h-12.17
			v5.372h11.15v3.604l-11.083,0.068L290.046,68.01z M277.059,34.353v15.979h8.771V34.353H277.059z M280.866,36.393
			c1.836,3.264,2.787,6.8,3.399,10.539l-3.399,1.224c-0.204-3.808-1.02-7.615-3.061-10.675L280.866,36.393z M282.771,87.252
			c-0.34-3.536-1.088-7.411-1.973-10.131l3.74-1.156c1.563,3.195,2.244,7.003,2.584,10.675L282.771,87.252z M292.289,74.604
			c1.7,3.196,3.128,6.664,3.536,10.336l-3.809,1.02c-0.271-3.943-1.699-7.479-3.672-10.607L292.289,74.604z M298.341,34.353h-8.295
			v15.911h8.362L298.341,34.353z M290.386,47.136c2.039-3.332,3.398-6.936,3.738-10.879l2.992,0.952
			c-0.543,3.875-1.496,7.615-3.535,10.811L290.386,47.136z M300.04,72.974c2.107,2.991,4.08,6.663,4.76,10.198l-4.012,1.021
			c-0.611-3.808-2.107-7.071-4.828-9.995L300.04,72.974z M312.211,59.511V26.67l4.216-0.068v13.395h13.258v4.012h-13.258v15.503
			h9.859v29.236h-3.944v-4.895h-11.967l0.067,4.963h-4.011l-0.067-29.305H312.211z M322.275,63.386h-11.832v16.658l11.832-0.067
			V63.386z"/>
	</g>
	<g class="st0">
		<path class="st2" d="M204.915,67.577c4.194-1.124,7.248-1.516,9.161-1.18c1.913,0.338,3.052,1.187,3.416,2.547
			c0.213,0.794,0.047,1.536-0.496,2.229c-0.544,0.692-1.069,1.107-1.58,1.244c-0.51,0.137-0.795,0.092-0.856-0.136
			c-0.029-0.112,0.018-0.277,0.142-0.493c0.067-0.201,0.17-0.439,0.308-0.72c0.138-0.28,0.177-0.533,0.115-0.761
			c-0.213-0.793-1.198-1.182-2.955-1.166c-1.758,0.016-4.11,0.418-7.057,1.208c-4.08,1.094-8.081,2.486-12.001,4.175
			c-3.922,1.689-7.85,3.64-11.782,5.847c-3.934,2.209-7.938,4.666-12.012,7.367c-4.075,2.701-8.326,5.648-12.756,8.841
			c1.285-0.648,2.898-1.429,4.839-2.345c1.942-0.916,3.933-1.647,5.974-2.194c1.473-0.395,2.867-0.631,4.182-0.712
			c1.314-0.078,2.524,0.129,3.63,0.622c0.194-1.084,0.342-2.005,0.444-2.761c0.1-0.757,0.239-1.37,0.416-1.843
			c0.174-0.714,0.43-1.118,0.77-1.209c0.227-0.061,0.454,0.334,0.682,1.184c0.229,0.85,0.418,2.015,0.572,3.492
			c0.153,1.479,0.242,2.941,0.267,4.393c0.056-0.015,0.139,0.177,0.245,0.573c0.186,0.922,0.251,2.073,0.197,3.455
			c-0.056,1.382-0.162,2.853-0.32,4.413c-0.159,1.563-0.356,3.088-0.595,4.579c-0.237,1.492-0.42,2.801-0.542,3.927
			c3.656-1.77,7.615-3.317,11.877-4.642l0.596-0.16c1.473-0.395,2.263-0.394,2.369,0.001c0.121,0.455-0.442,0.848-1.688,1.182
			c-0.396,0.106-0.787,0.182-1.17,0.223c-0.384,0.043-0.774,0.116-1.171,0.223c-1.854,0.559-3.705,1.13-5.553,1.716
			c-1.848,0.587-3.641,1.265-5.378,2.034c-0.73,4.751-1.288,10.035-1.674,15.848c-0.386,5.813-0.537,12.384-0.454,19.712
			c-0.004,0.669-0.119,1.035-0.345,1.096c-0.285,0.076-0.666-0.218-1.146-0.877c-0.481-0.661-0.844-1.446-1.087-2.351
			c-0.197-0.738-0.303-2.151-0.316-4.243c-0.015-2.092,0.014-4.59,0.086-7.495c0.071-2.906,0.195-6.066,0.372-9.485
			c0.178-3.419,0.37-6.887,0.581-10.408c-1.553,0.782-2.994,1.577-4.324,2.391c-1.332,0.813-2.588,1.621-3.77,2.423
			c-0.254,0.19-0.496,0.422-0.725,0.694c-0.231,0.277-0.545,0.466-0.941,0.573c-0.283,0.076-0.447,0.029-0.493-0.141
			c-0.061-0.227,0.366-0.676,1.28-1.346c1.238-0.818,2.523-1.573,3.857-2.264c1.332-0.691,3.029-1.617,5.087-2.776
			c0.27-4.203,0.589-8.223,0.959-12.058c0.368-3.835,0.715-7.072,1.041-9.71c-0.992-0.522-2.134-0.763-3.428-0.72
			c-1.296,0.044-2.679,0.262-4.152,0.657c-1.587,0.426-3.249,1.024-4.986,1.793c-1.738,0.77-3.434,1.635-5.09,2.595
			c-1.656,0.961-3.245,1.949-4.764,2.962c-1.52,1.016-2.892,1.959-4.115,2.834c-0.195,0.175-0.521,0.322-0.976,0.444
			c-0.452,0.121-0.709,0.07-0.77-0.158c-0.092-0.341,0.194-0.75,0.854-1.23c4.596-3.48,9.239-6.944,13.936-10.389
			c4.693-3.445,9.442-6.691,14.245-9.742c4.801-3.049,9.616-5.768,14.442-8.155C195.215,70.816,200.057,68.942,204.915,67.577z
			 M174.618,134.017c0.188-4.059,0.455-7.82,0.802-11.285c0.347-3.464,0.722-6.708,1.126-9.733l-1.887,0.78
			c-0.098,3.488-0.129,6.945-0.091,10.366C174.605,127.567,174.621,130.857,174.618,134.017z M176.664,112.42
			c0.128-0.884,0.314-1.998,0.563-3.34c0.247-1.341,0.479-2.739,0.697-4.196c0.217-1.455,0.377-2.894,0.481-4.32
			c0.104-1.424,0.104-2.67,0.001-3.736c-0.025,1.041-0.114,1.899-0.266,2.577c-0.152,0.68-0.37,1.056-0.653,1.132
			c-0.284,0.076-0.501-0.169-0.652-0.735c-0.016-0.056-0.021-0.132-0.016-0.226c0.006-0.092,0.012-0.352,0.02-0.778
			c0.007-0.426,0.024-1.04,0.054-1.837c0.029-0.796,0.087-1.937,0.177-3.419c-0.174-0.195-0.372-0.369-0.596-0.524
			c-0.223-0.152-0.449-0.319-0.681-0.5c-0.312,2.696-0.561,5.845-0.747,9.449c-0.188,3.604-0.32,7.42-0.393,11.449L176.664,112.42z
			 M176.704,87.079c-0.133,0.643-0.279,1.396-0.442,2.259c-0.163,0.865-0.314,1.832-0.452,2.9c0.646,0.374,1.086,0.651,1.316,0.832
			c0.024-1.039,0.003-2.082-0.064-3.126S176.874,87.944,176.704,87.079z"/>
		<path class="st2" d="M225.957,103.578c0.181-0.231,0.385-0.377,0.611-0.438c0.34-0.091,0.549,0.006,0.624,0.289
			c0.076,0.283-0.025,0.584-0.305,0.901c-0.838,0.953-1.906,2.122-3.207,3.502c-1.301,1.383-2.669,2.737-4.104,4.062
			c-1.437,1.329-2.893,2.523-4.368,3.586c-1.478,1.066-2.811,1.756-4,2.075c-0.965,0.258-1.813,0.153-2.547-0.32
			c-0.734-0.471-1.244-1.245-1.533-2.322c-0.288-1.076-0.382-2.326-0.277-3.752c0.104-1.425,0.34-2.809,0.709-4.153
			c0.368-1.344,0.86-2.511,1.478-3.496c0.615-0.985,1.321-1.583,2.115-1.796c0.565-0.151,1.087-0.079,1.563,0.219
			c0.474,0.299,0.796,0.758,0.963,1.382c0.318,1.189,0.126,2.458-0.577,3.799c-0.703,1.343-1.515,2.563-2.436,3.659
			c-0.476,0.492-0.883,0.845-1.22,1.057c-0.339,0.213-0.649,0.356-0.933,0.432c-0.284,0.077-0.489,0.101-0.617,0.075
			c-0.206,1.271-0.188,2.359,0.055,3.265c0.168,0.624,0.475,1.089,0.921,1.394c0.446,0.305,1.037,0.359,1.774,0.162
			c1.02-0.273,2.232-0.962,3.637-2.068c1.404-1.105,2.832-2.354,4.281-3.745c1.449-1.392,2.835-2.795,4.155-4.212
			C224.04,105.718,225.119,104.531,225.957,103.578z M211.835,102.899c-0.455,0.122-1.029,0.868-1.725,2.239
			c-0.695,1.372-1.242,2.9-1.641,4.586c0.435-0.42,0.901-0.939,1.404-1.561c0.502-0.62,0.956-1.244,1.366-1.871
			c0.409-0.625,0.724-1.21,0.942-1.756c0.219-0.544,0.281-0.986,0.19-1.327C212.297,102.927,212.117,102.823,211.835,102.899z"/>
		<path class="st2" d="M257.432,95.23c0.181-0.231,0.356-0.37,0.526-0.416c0.34-0.091,0.548,0.006,0.624,0.29
			s0.003,0.577-0.22,0.878c-0.586,0.764-1.396,1.756-2.438,2.977c-1.039,1.221-2.167,2.45-3.385,3.687
			c-1.217,1.237-2.451,2.358-3.7,3.361c-1.25,1.004-2.414,1.648-3.49,1.938c-1.134,0.304-1.99,0.109-2.571-0.586
			c-0.582-0.694-1.008-1.552-1.281-2.572c-0.229-0.85-0.4-1.715-0.514-2.596c-0.115-0.881-0.24-1.576-0.377-2.086
			c-0.122-0.452-0.268-0.657-0.438-0.611c-0.171,0.045-0.379,0.407-0.623,1.078c0.132,0.27,0.251,0.542,0.355,0.817
			s0.195,0.555,0.271,0.838c0.213,0.794,0.177,1.456-0.105,1.987c-0.283,0.531-0.623,0.851-1.02,0.957
			c-0.227,0.061-0.447,0.029-0.663-0.095c-0.079,0.386-0.193,0.979-0.343,1.777c-0.15,0.8-0.362,1.6-0.633,2.402
			c-0.271,0.801-0.551,1.515-0.839,2.139c-0.288,0.625-0.603,0.981-0.942,1.072c-0.625,0.167-1.151,0.006-1.588-0.485
			c-0.435-0.49-0.767-1.162-0.995-2.011c-0.243-0.906-0.359-1.968-0.353-3.186c0.008-1.216,0.134-2.389,0.378-3.518
			c0.244-1.127,0.619-2.109,1.124-2.944c0.506-0.833,1.154-1.356,1.948-1.569c0.68-0.183,1.268-0.143,1.763,0.12
			c0.495,0.262,0.94,0.673,1.335,1.236c0.452-1.033,0.876-1.602,1.272-1.708c0.566-0.151,0.964,0.197,1.192,1.048
			c0.213,0.794,0.339,1.776,0.381,2.95c0.042,1.173,0.191,2.241,0.45,3.205c0.182,0.68,0.451,1.231,0.807,1.652
			c0.354,0.421,0.901,0.532,1.639,0.334c0.963-0.258,2.051-0.898,3.266-1.923c1.213-1.023,2.407-2.179,3.581-3.466
			c1.173-1.285,2.255-2.578,3.243-3.876C256.06,97.026,256.847,95.995,257.432,95.23z M238.071,104.248
			c-0.045-0.17-0.055-0.319-0.028-0.448c0.007-0.426,0.005-0.942-0.005-1.548c-0.012-0.604-0.076-1.132-0.198-1.586
			c-0.137-0.511-0.319-0.735-0.545-0.674c-0.624,0.167-1.167,0.692-1.628,1.575c-0.462,0.884-0.826,1.908-1.09,3.071
			c-0.266,1.165-0.441,2.322-0.527,3.468c-0.088,1.147-0.041,2.06,0.142,2.74c0.213,0.794,0.574,1.122,1.084,0.985
			c0.171-0.045,0.382-0.33,0.637-0.854c0.254-0.523,0.483-1.086,0.687-1.687c0.203-0.602,0.396-1.184,0.579-1.75
			c0.182-0.564,0.307-0.948,0.376-1.148L238.071,104.248z"/>
		<path class="st2" d="M303.691,61.141c0.696-0.125,1.186-0.166,1.472-0.121c0.286,0.046,0.443,0.125,0.474,0.237
			c0.061,0.228-0.082,0.493-0.424,0.797c-0.344,0.306-0.715,0.511-1.11,0.617c-0.583,0.097-1.177,0.149-1.78,0.158
			c-0.605,0.011-1.191,0.092-1.758,0.244c-2.92,0.661-5.823,1.333-8.707,2.015c-2.886,0.682-5.772,1.411-8.663,2.186
			c-2.21,0.592-4.413,1.214-6.607,1.863c-2.194,0.65-4.354,1.32-6.478,2.011c-0.465,2.797-0.946,5.934-1.441,9.407
			c-0.496,3.475-0.904,6.939-1.221,10.397c-0.32,3.457-0.485,6.689-0.498,9.7c-0.014,3.01,0.224,5.422,0.71,7.235
			c0.213,0.794,0.563,1.535,1.052,2.225c0.488,0.689,1.213,0.904,2.178,0.645c1.19-0.319,2.529-1.438,4.021-3.355
			c1.49-1.918,2.955-4.103,4.394-6.554c1.438-2.45,2.773-4.889,4.007-7.315c1.231-2.426,2.178-4.333,2.838-5.727
			c0.135-0.4,0.345-0.64,0.628-0.716c0.283-0.076,0.464,0.028,0.54,0.312c0.061,0.227,0.015,0.513-0.136,0.856
			c-0.482,0.919-1.078,2.097-1.786,3.532c-0.709,1.436-1.502,2.954-2.378,4.555c-0.877,1.603-1.82,3.238-2.831,4.905
			s-2.031,3.188-3.061,4.557c-1.031,1.37-2.053,2.539-3.068,3.511c-1.015,0.97-1.978,1.578-2.884,1.821
			c-1.134,0.304-2.096,0-2.886-0.911c-0.791-0.913-1.431-2.275-1.916-4.088c-0.532-1.983-0.903-4.39-1.115-7.219
			c-0.212-2.827-0.291-5.784-0.236-8.867c0.054-3.082,0.212-6.176,0.472-9.284c0.262-3.107,0.598-5.93,1.01-8.471
			c-1.727,0.584-3.326,1.135-4.797,1.651c-1.472,0.517-2.914,1.085-4.326,1.706c-0.763,0.327-1.49,0.674-2.182,1.04
			c-0.689,0.367-1.417,0.715-2.182,1.041c-0.209,0.117-0.486,0.222-0.826,0.313c-0.681,0.183-1.051,0.16-1.111-0.067
			c-0.076-0.282,0.458-0.669,1.603-1.158c2.304-0.921,4.6-1.764,6.884-2.529c2.286-0.764,4.624-1.558,7.017-2.381
			c0.262-1.286,0.52-2.478,0.771-3.579s0.512-2.052,0.784-2.853c0.584-1.674,1.186-2.596,1.811-2.764
			c0.452-0.121,0.779,0.187,0.977,0.923c0.167,0.624,0.16,1.505-0.02,2.647l-0.714,4.474c3.89-1.347,7.734-2.589,11.528-3.729
			c3.795-1.138,7.648-2.233,11.559-3.281c1.7-0.456,3.414-0.916,5.144-1.379C300.146,61.909,301.903,61.499,303.691,61.141z"/>
		<path class="st2" d="M317.7,79.071c0.18-0.231,0.385-0.377,0.611-0.438c0.283-0.076,0.463,0.029,0.539,0.312
			s0.003,0.577-0.22,0.878c-0.585,0.764-1.438,1.829-2.561,3.192c-1.124,1.365-2.345,2.756-3.665,4.173
			c-1.322,1.418-2.648,2.7-3.981,3.846c-1.332,1.147-2.538,1.865-3.613,2.153c-0.851,0.228-1.501,0.129-1.948-0.297
			c-0.449-0.427-0.778-1.036-0.991-1.831c-0.151-0.565-0.268-1.203-0.344-1.913c-0.077-0.708-0.12-1.394-0.13-2.06
			c-0.01-0.667-0.03-1.268-0.061-1.807c-0.033-0.538-0.085-0.948-0.161-1.233c-0.076-0.282-0.199-0.401-0.366-0.356
			c-0.282,0.075-0.527,0.733-0.736,1.974c-0.209,1.241-0.434,2.592-0.674,4.053c-0.239,1.463-0.564,2.839-0.969,4.133
			c-0.407,1.293-0.975,2.038-1.703,2.233c-0.507,0.136-1.092-0.025-1.757-0.485c-0.664-0.46-1.188-1.397-1.567-2.815
			c-0.304-1.133-0.449-2.354-0.437-3.665c0.015-1.308,0.117-2.505,0.313-3.59c0.225-0.972,0.507-1.731,0.848-2.278
			c0.338-0.547,0.679-0.865,1.019-0.957c0.511-0.137,0.864,0.164,1.062,0.899c0.167,0.625,0.192,1.286,0.076,1.984
			c-0.048,0.5-0.138,1.132-0.267,1.895c-0.13,0.763-0.22,1.562-0.269,2.396c-0.051,0.833-0.076,1.646-0.076,2.434
			c-0.002,0.791,0.067,1.44,0.204,1.95c0.167,0.625,0.426,0.92,0.778,0.885c0.403-0.291,0.748-1.021,1.035-2.191
			c0.287-1.171,0.579-2.433,0.876-3.789c0.298-1.355,0.612-2.593,0.943-3.715c0.33-1.121,0.748-1.75,1.253-1.885
			c0.505-0.135,0.849,0.138,1.031,0.817c0.106,0.397,0.171,0.911,0.197,1.542c0.027,0.631,0.033,1.297,0.022,1.999
			c-0.013,0.703,0.001,1.398,0.043,2.084c0.042,0.689,0.132,1.287,0.269,1.796c0.334,1.247,1.039,1.725,2.115,1.437
			c0.963-0.258,2.094-0.971,3.392-2.138c1.296-1.167,2.582-2.484,3.86-3.951c1.277-1.466,2.452-2.92,3.523-4.361
			C316.288,80.94,317.115,79.835,317.7,79.071z"/>
		<path class="st2" d="M352.291,69.432c0.099-0.086,0.261-0.161,0.487-0.222c0.396-0.106,0.633-0.017,0.709,0.267
			c0.092,0.339-0.067,0.655-0.475,0.947c-1.379,0.978-3.084,2.042-5.112,3.193c-2.03,1.153-4.037,1.993-6.021,2.525
			c-1.305,0.35-2.401,0.507-3.29,0.473c-0.891-0.035-1.612-0.175-2.163-0.422c-0.554-0.247-0.975-0.574-1.267-0.982
			c-0.29-0.408-0.505-0.867-0.642-1.377c-0.167-0.623-0.26-1.251-0.278-1.885c-0.019-0.632-0.071-1.119-0.163-1.459
			c-0.076-0.283-0.229-0.394-0.454-0.333c-0.68,0.182-1.323,1.009-1.933,2.477c-0.608,1.471-1.136,3.13-1.58,4.98
			c-0.446,1.851-0.813,3.712-1.102,5.579c-0.289,1.871-0.46,3.268-0.516,4.194c0.049,0.41-0.067,0.656-0.351,0.732
			c-0.567,0.152-1.008-0.019-1.321-0.513c-0.314-0.491-0.569-0.985-0.762-1.481l-0.114-0.424c-0.273-1.021-0.469-2.259-0.587-3.717
			c-0.116-1.456-0.172-2.853-0.166-4.191c0.006-1.337,0.104-2.502,0.293-3.497c0.189-0.992,0.481-1.541,0.879-1.647
			c0.283-0.076,0.486,0.113,0.607,0.566c0.092,0.34,0.105,0.732,0.041,1.174c-0.071,0.87-0.122,1.871-0.151,3.002
			c-0.031,1.132-0.044,2.274-0.038,3.426c0.334-1.243,0.726-2.502,1.174-3.777c0.447-1.273,0.94-2.438,1.478-3.494
			s1.116-1.954,1.737-2.699c0.62-0.742,1.271-1.207,1.951-1.389c0.68-0.182,1.126,0.124,1.339,0.917
			c0.106,0.397,0.186,0.861,0.237,1.395s0.146,1.054,0.283,1.564c0.121,0.454,0.299,0.892,0.534,1.313
			c0.234,0.425,0.568,0.759,0.999,1.008c0.432,0.249,1.003,0.401,1.716,0.452c0.712,0.052,1.579-0.059,2.599-0.333
			c0.964-0.258,1.972-0.634,3.023-1.13c1.053-0.494,2.089-1.044,3.11-1.653c1.021-0.607,1.993-1.232,2.914-1.874
			C350.84,70.475,351.63,69.915,352.291,69.432z"/>
	</g>
	<g class="st0">
		<path class="st3" d="M204.915,67.577c4.194-1.124,7.248-1.516,9.161-1.18c1.913,0.338,3.052,1.187,3.416,2.547
			c0.213,0.794,0.047,1.536-0.496,2.229c-0.544,0.692-1.069,1.107-1.58,1.244c-0.51,0.137-0.795,0.092-0.856-0.136
			c-0.029-0.112,0.018-0.277,0.142-0.493c0.067-0.201,0.17-0.439,0.308-0.72c0.138-0.28,0.177-0.533,0.115-0.761
			c-0.213-0.793-1.198-1.182-2.955-1.166c-1.758,0.016-4.11,0.418-7.057,1.208c-4.08,1.094-8.081,2.486-12.001,4.175
			c-3.922,1.689-7.85,3.64-11.782,5.847c-3.934,2.209-7.938,4.666-12.012,7.367c-4.075,2.701-8.326,5.648-12.756,8.841
			c1.285-0.648,2.898-1.429,4.839-2.345c1.942-0.916,3.933-1.647,5.974-2.194c1.473-0.395,2.867-0.631,4.182-0.712
			c1.314-0.078,2.524,0.129,3.63,0.622c0.194-1.084,0.342-2.005,0.444-2.761c0.1-0.757,0.239-1.37,0.416-1.843
			c0.174-0.714,0.43-1.118,0.77-1.209c0.227-0.061,0.454,0.334,0.682,1.184c0.229,0.85,0.418,2.015,0.572,3.492
			c0.153,1.479,0.242,2.941,0.267,4.393c0.056-0.015,0.139,0.177,0.245,0.573c0.186,0.922,0.251,2.073,0.197,3.455
			c-0.056,1.382-0.162,2.853-0.32,4.413c-0.159,1.563-0.356,3.088-0.595,4.579c-0.237,1.492-0.42,2.801-0.542,3.927
			c3.656-1.77,7.615-3.317,11.877-4.642l0.596-0.16c1.473-0.395,2.263-0.394,2.369,0.001c0.121,0.455-0.442,0.848-1.688,1.182
			c-0.396,0.106-0.787,0.182-1.17,0.223c-0.384,0.043-0.774,0.116-1.171,0.223c-1.854,0.559-3.705,1.13-5.553,1.716
			c-1.848,0.587-3.641,1.265-5.378,2.034c-0.73,4.751-1.288,10.035-1.674,15.848c-0.386,5.813-0.537,12.384-0.454,19.712
			c-0.004,0.669-0.119,1.035-0.345,1.096c-0.285,0.076-0.666-0.218-1.146-0.877c-0.481-0.661-0.844-1.446-1.087-2.351
			c-0.197-0.738-0.303-2.151-0.316-4.243c-0.015-2.092,0.014-4.59,0.086-7.495c0.071-2.906,0.195-6.066,0.372-9.485
			c0.178-3.419,0.37-6.887,0.581-10.408c-1.553,0.782-2.994,1.577-4.324,2.391c-1.332,0.813-2.588,1.621-3.77,2.423
			c-0.254,0.19-0.496,0.422-0.725,0.694c-0.231,0.277-0.545,0.466-0.941,0.573c-0.283,0.076-0.447,0.029-0.493-0.141
			c-0.061-0.227,0.366-0.676,1.28-1.346c1.238-0.818,2.523-1.573,3.857-2.264c1.332-0.691,3.029-1.617,5.087-2.776
			c0.27-4.203,0.589-8.223,0.959-12.058c0.368-3.835,0.715-7.072,1.041-9.71c-0.992-0.522-2.134-0.763-3.428-0.72
			c-1.296,0.044-2.679,0.262-4.152,0.657c-1.587,0.426-3.249,1.024-4.986,1.793c-1.738,0.77-3.434,1.635-5.09,2.595
			c-1.656,0.961-3.245,1.949-4.764,2.962c-1.52,1.016-2.892,1.959-4.115,2.834c-0.195,0.175-0.521,0.322-0.976,0.444
			c-0.452,0.121-0.709,0.07-0.77-0.158c-0.092-0.341,0.194-0.75,0.854-1.23c4.596-3.48,9.239-6.944,13.936-10.389
			c4.693-3.445,9.442-6.691,14.245-9.742c4.801-3.049,9.616-5.768,14.442-8.155C195.215,70.816,200.057,68.942,204.915,67.577z
			 M174.618,134.017c0.188-4.059,0.455-7.82,0.802-11.285c0.347-3.464,0.722-6.708,1.126-9.733l-1.887,0.78
			c-0.098,3.488-0.129,6.945-0.091,10.366C174.605,127.567,174.621,130.857,174.618,134.017z M176.664,112.42
			c0.128-0.884,0.314-1.998,0.563-3.34c0.247-1.341,0.479-2.739,0.697-4.196c0.217-1.455,0.377-2.894,0.481-4.32
			c0.104-1.424,0.104-2.67,0.001-3.736c-0.025,1.041-0.114,1.899-0.266,2.577c-0.152,0.68-0.37,1.056-0.653,1.132
			c-0.284,0.076-0.501-0.169-0.652-0.735c-0.016-0.056-0.021-0.132-0.016-0.226c0.006-0.092,0.012-0.352,0.02-0.778
			c0.007-0.426,0.024-1.04,0.054-1.837c0.029-0.796,0.087-1.937,0.177-3.419c-0.174-0.195-0.372-0.369-0.596-0.524
			c-0.223-0.152-0.449-0.319-0.681-0.5c-0.312,2.696-0.561,5.845-0.747,9.449c-0.188,3.604-0.32,7.42-0.393,11.449L176.664,112.42z
			 M176.704,87.079c-0.133,0.643-0.279,1.396-0.442,2.259c-0.163,0.865-0.314,1.832-0.452,2.9c0.646,0.374,1.086,0.651,1.316,0.832
			c0.024-1.039,0.003-2.082-0.064-3.126S176.874,87.944,176.704,87.079z"/>
		<path class="st3" d="M225.957,103.578c0.181-0.231,0.385-0.377,0.611-0.438c0.34-0.091,0.549,0.006,0.624,0.289
			c0.076,0.283-0.025,0.584-0.305,0.901c-0.838,0.953-1.906,2.122-3.207,3.502c-1.301,1.383-2.669,2.737-4.104,4.062
			c-1.437,1.329-2.893,2.523-4.368,3.586c-1.478,1.066-2.811,1.756-4,2.075c-0.965,0.258-1.813,0.153-2.547-0.32
			c-0.734-0.471-1.244-1.245-1.533-2.322c-0.288-1.076-0.382-2.326-0.277-3.752c0.104-1.425,0.34-2.809,0.709-4.153
			c0.368-1.344,0.86-2.511,1.478-3.496c0.615-0.985,1.321-1.583,2.115-1.796c0.565-0.151,1.087-0.079,1.563,0.219
			c0.474,0.299,0.796,0.758,0.963,1.382c0.318,1.189,0.126,2.458-0.577,3.799c-0.703,1.343-1.515,2.563-2.436,3.659
			c-0.476,0.492-0.883,0.845-1.22,1.057c-0.339,0.213-0.649,0.356-0.933,0.432c-0.284,0.077-0.489,0.101-0.617,0.075
			c-0.206,1.271-0.188,2.359,0.055,3.265c0.168,0.624,0.475,1.089,0.921,1.394c0.446,0.305,1.037,0.359,1.774,0.162
			c1.02-0.273,2.232-0.962,3.637-2.068c1.404-1.105,2.832-2.354,4.281-3.745c1.449-1.392,2.835-2.795,4.155-4.212
			C224.04,105.718,225.119,104.531,225.957,103.578z M211.835,102.899c-0.455,0.122-1.029,0.868-1.725,2.239
			c-0.695,1.372-1.242,2.9-1.641,4.586c0.435-0.42,0.901-0.939,1.404-1.561c0.502-0.62,0.956-1.244,1.366-1.871
			c0.409-0.625,0.724-1.21,0.942-1.756c0.219-0.544,0.281-0.986,0.19-1.327C212.297,102.927,212.117,102.823,211.835,102.899z"/>
		<path class="st3" d="M257.432,95.23c0.181-0.231,0.356-0.37,0.526-0.416c0.34-0.091,0.548,0.006,0.624,0.29
			s0.003,0.577-0.22,0.878c-0.586,0.764-1.396,1.756-2.438,2.977c-1.039,1.221-2.167,2.45-3.385,3.687
			c-1.217,1.237-2.451,2.358-3.7,3.361c-1.25,1.004-2.414,1.648-3.49,1.938c-1.134,0.304-1.99,0.109-2.571-0.586
			c-0.582-0.694-1.008-1.552-1.281-2.572c-0.229-0.85-0.4-1.715-0.514-2.596c-0.115-0.881-0.24-1.576-0.377-2.086
			c-0.122-0.452-0.268-0.657-0.438-0.611c-0.171,0.045-0.379,0.407-0.623,1.078c0.132,0.27,0.251,0.542,0.355,0.817
			s0.195,0.555,0.271,0.838c0.213,0.794,0.177,1.456-0.105,1.987c-0.283,0.531-0.623,0.851-1.02,0.957
			c-0.227,0.061-0.447,0.029-0.663-0.095c-0.079,0.386-0.193,0.979-0.343,1.777c-0.15,0.8-0.362,1.6-0.633,2.402
			c-0.271,0.801-0.551,1.515-0.839,2.139c-0.288,0.625-0.603,0.981-0.942,1.072c-0.625,0.167-1.151,0.006-1.588-0.485
			c-0.435-0.49-0.767-1.162-0.995-2.011c-0.243-0.906-0.359-1.968-0.353-3.186c0.008-1.216,0.134-2.389,0.378-3.518
			c0.244-1.127,0.619-2.109,1.124-2.944c0.506-0.833,1.154-1.356,1.948-1.569c0.68-0.183,1.268-0.143,1.763,0.12
			c0.495,0.262,0.94,0.673,1.335,1.236c0.452-1.033,0.876-1.602,1.272-1.708c0.566-0.151,0.964,0.197,1.192,1.048
			c0.213,0.794,0.339,1.776,0.381,2.95c0.042,1.173,0.191,2.241,0.45,3.205c0.182,0.68,0.451,1.231,0.807,1.652
			c0.354,0.421,0.901,0.532,1.639,0.334c0.963-0.258,2.051-0.898,3.266-1.923c1.213-1.023,2.407-2.179,3.581-3.466
			c1.173-1.285,2.255-2.578,3.243-3.876C256.06,97.026,256.847,95.995,257.432,95.23z M238.071,104.248
			c-0.045-0.17-0.055-0.319-0.028-0.448c0.007-0.426,0.005-0.942-0.005-1.548c-0.012-0.604-0.076-1.132-0.198-1.586
			c-0.137-0.511-0.319-0.735-0.545-0.674c-0.624,0.167-1.167,0.692-1.628,1.575c-0.462,0.884-0.826,1.908-1.09,3.071
			c-0.266,1.165-0.441,2.322-0.527,3.468c-0.088,1.147-0.041,2.06,0.142,2.74c0.213,0.794,0.574,1.122,1.084,0.985
			c0.171-0.045,0.382-0.33,0.637-0.854c0.254-0.523,0.483-1.086,0.687-1.687c0.203-0.602,0.396-1.184,0.579-1.75
			c0.182-0.564,0.307-0.948,0.376-1.148L238.071,104.248z"/>
		<path class="st3" d="M303.691,61.141c0.696-0.125,1.186-0.166,1.472-0.121c0.286,0.046,0.443,0.125,0.474,0.237
			c0.061,0.228-0.082,0.493-0.424,0.797c-0.344,0.306-0.715,0.511-1.11,0.617c-0.583,0.097-1.177,0.149-1.78,0.158
			c-0.605,0.011-1.191,0.092-1.758,0.244c-2.92,0.661-5.823,1.333-8.707,2.015c-2.886,0.682-5.772,1.411-8.663,2.186
			c-2.21,0.592-4.413,1.214-6.607,1.863c-2.194,0.65-4.354,1.32-6.478,2.011c-0.465,2.797-0.946,5.934-1.441,9.407
			c-0.496,3.475-0.904,6.939-1.221,10.397c-0.32,3.457-0.485,6.689-0.498,9.7c-0.014,3.01,0.224,5.422,0.71,7.235
			c0.213,0.794,0.563,1.535,1.052,2.225c0.488,0.689,1.213,0.904,2.178,0.645c1.19-0.319,2.529-1.438,4.021-3.355
			c1.49-1.918,2.955-4.103,4.394-6.554c1.438-2.45,2.773-4.889,4.007-7.315c1.231-2.426,2.178-4.333,2.838-5.727
			c0.135-0.4,0.345-0.64,0.628-0.716c0.283-0.076,0.464,0.028,0.54,0.312c0.061,0.227,0.015,0.513-0.136,0.856
			c-0.482,0.919-1.078,2.097-1.786,3.532c-0.709,1.436-1.502,2.954-2.378,4.555c-0.877,1.603-1.82,3.238-2.831,4.905
			s-2.031,3.188-3.061,4.557c-1.031,1.37-2.053,2.539-3.068,3.511c-1.015,0.97-1.978,1.578-2.884,1.821
			c-1.134,0.304-2.096,0-2.886-0.911c-0.791-0.913-1.431-2.275-1.916-4.088c-0.532-1.983-0.903-4.39-1.115-7.219
			c-0.212-2.827-0.291-5.784-0.236-8.867c0.054-3.082,0.212-6.176,0.472-9.284c0.262-3.107,0.598-5.93,1.01-8.471
			c-1.727,0.584-3.326,1.135-4.797,1.651c-1.472,0.517-2.914,1.085-4.326,1.706c-0.763,0.327-1.49,0.674-2.182,1.04
			c-0.689,0.367-1.417,0.715-2.182,1.041c-0.209,0.117-0.486,0.222-0.826,0.313c-0.681,0.183-1.051,0.16-1.111-0.067
			c-0.076-0.282,0.458-0.669,1.603-1.158c2.304-0.921,4.6-1.764,6.884-2.529c2.286-0.764,4.624-1.558,7.017-2.381
			c0.262-1.286,0.52-2.478,0.771-3.579s0.512-2.052,0.784-2.853c0.584-1.674,1.186-2.596,1.811-2.764
			c0.452-0.121,0.779,0.187,0.977,0.923c0.167,0.624,0.16,1.505-0.02,2.647l-0.714,4.474c3.89-1.347,7.734-2.589,11.528-3.729
			c3.795-1.138,7.648-2.233,11.559-3.281c1.7-0.456,3.414-0.916,5.144-1.379C300.146,61.909,301.903,61.499,303.691,61.141z"/>
		<path class="st3" d="M317.7,79.071c0.18-0.231,0.385-0.377,0.611-0.438c0.283-0.076,0.463,0.029,0.539,0.312
			s0.003,0.577-0.22,0.878c-0.585,0.764-1.438,1.829-2.561,3.192c-1.124,1.365-2.345,2.756-3.665,4.173
			c-1.322,1.418-2.648,2.7-3.981,3.846c-1.332,1.147-2.538,1.865-3.613,2.153c-0.851,0.228-1.501,0.129-1.948-0.297
			c-0.449-0.427-0.778-1.036-0.991-1.831c-0.151-0.565-0.268-1.203-0.344-1.913c-0.077-0.708-0.12-1.394-0.13-2.06
			c-0.01-0.667-0.03-1.268-0.061-1.807c-0.033-0.538-0.085-0.948-0.161-1.233c-0.076-0.282-0.199-0.401-0.366-0.356
			c-0.282,0.075-0.527,0.733-0.736,1.974c-0.209,1.241-0.434,2.592-0.674,4.053c-0.239,1.463-0.564,2.839-0.969,4.133
			c-0.407,1.293-0.975,2.038-1.703,2.233c-0.507,0.136-1.092-0.025-1.757-0.485c-0.664-0.46-1.188-1.397-1.567-2.815
			c-0.304-1.133-0.449-2.354-0.437-3.665c0.015-1.308,0.117-2.505,0.313-3.59c0.225-0.972,0.507-1.731,0.848-2.278
			c0.338-0.547,0.679-0.865,1.019-0.957c0.511-0.137,0.864,0.164,1.062,0.899c0.167,0.625,0.192,1.286,0.076,1.984
			c-0.048,0.5-0.138,1.132-0.267,1.895c-0.13,0.763-0.22,1.562-0.269,2.396c-0.051,0.833-0.076,1.646-0.076,2.434
			c-0.002,0.791,0.067,1.44,0.204,1.95c0.167,0.625,0.426,0.92,0.778,0.885c0.403-0.291,0.748-1.021,1.035-2.191
			c0.287-1.171,0.579-2.433,0.876-3.789c0.298-1.355,0.612-2.593,0.943-3.715c0.33-1.121,0.748-1.75,1.253-1.885
			c0.505-0.135,0.849,0.138,1.031,0.817c0.106,0.397,0.171,0.911,0.197,1.542c0.027,0.631,0.033,1.297,0.022,1.999
			c-0.013,0.703,0.001,1.398,0.043,2.084c0.042,0.689,0.132,1.287,0.269,1.796c0.334,1.247,1.039,1.725,2.115,1.437
			c0.963-0.258,2.094-0.971,3.392-2.138c1.296-1.167,2.582-2.484,3.86-3.951c1.277-1.466,2.452-2.92,3.523-4.361
			C316.288,80.94,317.115,79.835,317.7,79.071z"/>
		<path class="st3" d="M352.291,69.432c0.099-0.086,0.261-0.161,0.487-0.222c0.396-0.106,0.633-0.017,0.709,0.267
			c0.092,0.339-0.067,0.655-0.475,0.947c-1.379,0.978-3.084,2.042-5.112,3.193c-2.03,1.153-4.037,1.993-6.021,2.525
			c-1.305,0.35-2.401,0.507-3.29,0.473c-0.891-0.035-1.612-0.175-2.163-0.422c-0.554-0.247-0.975-0.574-1.267-0.982
			c-0.29-0.408-0.505-0.867-0.642-1.377c-0.167-0.623-0.26-1.251-0.278-1.885c-0.019-0.632-0.071-1.119-0.163-1.459
			c-0.076-0.283-0.229-0.394-0.454-0.333c-0.68,0.182-1.323,1.009-1.933,2.477c-0.608,1.471-1.136,3.13-1.58,4.98
			c-0.446,1.851-0.813,3.712-1.102,5.579c-0.289,1.871-0.46,3.268-0.516,4.194c0.049,0.41-0.067,0.656-0.351,0.732
			c-0.567,0.152-1.008-0.019-1.321-0.513c-0.314-0.491-0.569-0.985-0.762-1.481l-0.114-0.424c-0.273-1.021-0.469-2.259-0.587-3.717
			c-0.116-1.456-0.172-2.853-0.166-4.191c0.006-1.337,0.104-2.502,0.293-3.497c0.189-0.992,0.481-1.541,0.879-1.647
			c0.283-0.076,0.486,0.113,0.607,0.566c0.092,0.34,0.105,0.732,0.041,1.174c-0.071,0.87-0.122,1.871-0.151,3.002
			c-0.031,1.132-0.044,2.274-0.038,3.426c0.334-1.243,0.726-2.502,1.174-3.777c0.447-1.273,0.94-2.438,1.478-3.494
			s1.116-1.954,1.737-2.699c0.62-0.742,1.271-1.207,1.951-1.389c0.68-0.182,1.126,0.124,1.339,0.917
			c0.106,0.397,0.186,0.861,0.237,1.395s0.146,1.054,0.283,1.564c0.121,0.454,0.299,0.892,0.534,1.313
			c0.234,0.425,0.568,0.759,0.999,1.008c0.432,0.249,1.003,0.401,1.716,0.452c0.712,0.052,1.579-0.059,2.599-0.333
			c0.964-0.258,1.972-0.634,3.023-1.13c1.053-0.494,2.089-1.044,3.11-1.653c1.021-0.607,1.993-1.232,2.914-1.874
			C350.84,70.475,351.63,69.915,352.291,69.432z"/>
	</g>
</g>
</svg>
