<?xml version="1.0" encoding="utf-8"?>
<!-- Generator: Adobe Illustrator 24.0.1, SVG Export Plug-In . SVG Version: 6.00 Build 0)  -->
<svg version="1.1" id="圖層_1" xmlns="http://www.w3.org/2000/svg" xmlns:xlink="http://www.w3.org/1999/xlink" x="0px" y="0px"
	 viewBox="0 0 73 72" style="enable-background:new 0 0 73 72;" xml:space="preserve">
<style type="text/css">
	.st0{enable-background:new    ;}
	.st1{fill:#F58F8E;}
	.st2{fill:#707070;}
	.st3{fill:none;stroke:#707070;stroke-width:0.3;stroke-miterlimit:4.0005;}
	.st4{fill:#95918E;}
	.st5{fill:#FFFFFF;}
	.st6{fill:#A67C52;}
</style>
<g id="Group_88" transform="translate(194.332 373.326)">
	<g id="Group_87">
		<path id="Path_75" class="st5" d="M-157.831-360.591c7.579,0,8.477,0.028,11.47,0.166c1.8,0.02,3.582,0.35,5.27,0.976
			c2.475,0.956,4.432,2.913,5.388,5.388c0.626,1.688,0.956,3.47,0.978,5.27c0.135,2.993,0.164,3.89,0.164,11.47
			s-0.028,8.477-0.164,11.47c-0.022,1.8-0.352,3.582-0.978,5.27c-0.954,2.477-2.911,4.434-5.388,5.388
			c-1.688,0.625-3.47,0.956-5.27,0.978c-2.993,0.135-3.89,0.166-11.47,0.166s-8.477-0.031-11.47-0.166
			c-1.8-0.022-3.582-0.352-5.27-0.978c-2.477-0.954-4.434-2.911-5.388-5.388c-0.626-1.688-0.956-3.47-0.978-5.27
			c-0.135-2.993-0.164-3.89-0.164-11.47s0.028-8.477,0.164-11.47c0.021-1.8,0.352-3.582,0.978-5.27
			c0.956-2.475,2.913-4.432,5.388-5.388c1.688-0.626,3.47-0.956,5.27-0.976C-166.308-360.563-165.411-360.591-157.831-360.591
			 M-157.831-365.706c-7.708,0-8.675,0.033-11.7,0.17c-2.355,0.047-4.685,0.493-6.89,1.321c-3.813,1.473-6.827,4.487-8.3,8.3
			c-0.827,2.205-1.274,4.535-1.321,6.89c-0.138,3.028-0.17,3.995-0.17,11.7s0.033,8.675,0.17,11.7
			c0.047,2.355,0.493,4.685,1.321,6.89c1.474,3.812,4.488,6.826,8.3,8.3c2.206,0.826,4.535,1.272,6.89,1.319
			c3.028,0.138,3.995,0.17,11.7,0.17s8.675-0.033,11.7-0.17c2.355-0.047,4.684-0.493,6.89-1.319c3.811-1.475,6.825-4.489,8.3-8.3
			c0.826-2.206,1.272-4.535,1.319-6.89c0.138-3.028,0.17-3.995,0.17-11.7s-0.033-8.675-0.17-11.7
			c-0.048-2.355-0.494-4.684-1.319-6.89c-1.474-3.812-4.488-6.826-8.3-8.3c-2.205-0.828-4.535-1.274-6.89-1.321
			C-149.159-365.674-150.126-365.706-157.831-365.706"/>
		<path id="Path_76" class="st5" d="M-157.83-351.898c-8.05,0-14.576,6.526-14.576,14.576c0,8.05,6.526,14.576,14.576,14.576
			s14.576-6.526,14.576-14.576l0,0C-143.255-345.372-149.78-351.897-157.83-351.898 M-157.83-327.861
			c-5.225,0-9.461-4.236-9.461-9.461c0-5.225,4.236-9.461,9.461-9.461c5.225,0,9.461,4.236,9.461,9.461l0,0
			c0.001,5.225-4.234,9.46-9.459,9.461C-157.829-327.861-157.829-327.861-157.83-327.861"/>
		<path id="Path_77" class="st5" d="M-139.273-352.472c-0.001,1.882-1.526,3.407-3.408,3.406s-3.407-1.526-3.406-3.408
			c0.001-1.882,1.526-3.407,3.408-3.406c0,0,0,0,0,0C-140.797-355.879-139.272-354.354-139.273-352.472"/>
	</g>
</g>
</svg>
