<?xml version="1.0" encoding="utf-8"?>
<!-- Generator: Adobe Illustrator 24.0.1, SVG Export Plug-In . SVG Version: 6.00 Build 0)  -->
<svg version="1.1" id="圖層_1" xmlns="http://www.w3.org/2000/svg" xmlns:xlink="http://www.w3.org/1999/xlink" x="0px" y="0px"
	 viewBox="0 0 73 72" style="enable-background:new 0 0 73 72;" xml:space="preserve">
<style type="text/css">
	.st0{enable-background:new    ;}
	.st1{fill:#F58F8E;}
	.st2{fill:#707070;}
	.st3{fill:none;stroke:#707070;stroke-width:0.3;stroke-miterlimit:4.0005;}
	.st4{fill:#95918E;}
	.st5{fill:#FFFFFF;}
	.st6{fill:#A67C52;}
	.st7{fill:none;}
</style>
<g id="Group_474" transform="translate(-418 -798)">
	<g id="Ellipse_37" transform="translate(420 798)">
		<circle class="st7" cx="34.5" cy="36" r="27.5"/>
		<path class="st1" d="M34.5,63.5C19.337,63.5,7,51.164,7,36S19.337,8.5,34.5,8.5S62,20.836,62,36S49.663,63.5,34.5,63.5z
			 M34.5,10.5C20.439,10.5,9,21.939,9,36s11.439,25.5,25.5,25.5S60,50.061,60,36S48.561,10.5,34.5,10.5z"/>
	</g>
	<path class="st1" d="M449.693,845.719c-0.009,0-0.019,0-0.027,0c-0.445-0.008-0.863-0.213-1.142-0.56l-8.133-10.111
		c-0.52-0.646-0.417-1.589,0.229-2.109c0.645-0.519,1.589-0.417,2.109,0.229l7.007,8.711l15.458-17.829
		c0.543-0.625,1.49-0.694,2.116-0.151c0.626,0.542,0.693,1.49,0.151,2.116l-16.635,19.187
		C450.542,845.531,450.128,845.719,449.693,845.719z"/>
</g>
</svg>
